<?xml version="1.0" encoding="utf-8"?><svg xmlns="http://www.w3.org/2000/svg" xmlns:xlink="http://www.w3.org/1999/xlink"><symbol id="strib-arrow-right" viewBox="0 0 5 9" aria-labelledby="aastrib-arrow-right-desc aastrib-arrow-right-title" xmlns="http://www.w3.org/2000/svg"><title id="aastrib-arrow-right-title">Right arrow</title><desc id="aastrib-arrow-right-desc">Triangle arrow pointed right</desc><style/><path d="M.4 8.7l4.2-4.2L.4.3z"/></symbol><symbol viewBox="0 0 20 21" aria-labelledby="abstrib-arrow-value-down-desc abstrib-arrow-value-down-title" id="strib-arrow-value-down" xmlns="http://www.w3.org/2000/svg"><title id="abstrib-arrow-value-down-title">Value arrow up</title><desc id="abstrib-arrow-value-down-desc">Arrow pointed up for data values</desc><path d="M18.8 11.2c.1-.1.1-.3 0-.4-.1-.1-.2-.2-.4-.2h-5V1.7c0-.2-.2-.4-.4-.4H6.9c-.2 0-.4.2-.4.4v8.9h-5c-.1 0-.3.1-.4.2 0 .1 0 .3.1.4l8.5 8.5c.1.1.2.1.3.1s.2 0 .3-.1c0-.1 8.5-8.6 8.5-8.5z"/></symbol><symbol viewBox="0 0 20 21" aria-labelledby="acstrib-arrow-value-up-desc acstrib-arrow-value-up-title" id="strib-arrow-value-up" xmlns="http://www.w3.org/2000/svg"><title id="acstrib-arrow-value-up-title">Value arrow down</title><desc id="acstrib-arrow-value-up-desc">Arrow pointed down for data values</desc><path d="M1.2 9.9c-.1.1-.1.3-.1.4.1.1.2.2.4.2h5v8.9c0 .2.2.4.4.4h6.2c.2 0 .4-.2.4-.4v-8.8h5c.1 0 .3-.1.4-.2 0-.1 0-.3-.1-.4l-8.5-8.6c-.1 0-.2-.1-.3-.1s-.2.1-.3.1L1.2 9.9z"/></symbol><symbol viewBox="0 0 115 88" aria-labelledby="adstrib-camera-desc adstrib-camera-title" id="strib-camera" xmlns="http://www.w3.org/2000/svg"><title id="adstrib-camera-title">Camera</title><desc id="adstrib-camera-desc">Simple box and circle camera icon</desc><ellipse class="adst0" cx="57.5" cy="48.7" rx="18.3" ry="18.4"/><path class="adst0" d="M103.3 11.8H71.2V7.2c0-2.5-2.1-4.6-4.6-4.6H48.4c-2.5 0-4.6 2.1-4.6 4.6v4.6H11.7c-5.1 0-9.2 4.1-9.2 9.2v55.3c0 5.1 4.1 9.2 9.2 9.2h91.7c5.1 0 9.2-4.1 9.2-9.2V21.1c0-5.1-4.2-9.3-9.3-9.3zM57.5 76.3C42.3 76.3 30 63.9 30 48.7S42.3 21 57.5 21 85 33.3 85 48.7 72.8 76.3 57.5 76.3z"/></symbol><symbol viewBox="0 0 73 73" aria-labelledby="aestrib-close-desc aestrib-close-title" id="strib-close" xmlns="http://www.w3.org/2000/svg"><title id="aestrib-close-title">Close</title><desc id="aestrib-close-desc">The X symbol used to close popups</desc><path d="M44.8 36.5l24.9-24.9c2.3-2.3 2.3-6 0-8.3s-6-2.3-8.3 0L36.5 28.2l-24.9-25C9.3.9 5.6.9 3.3 3.2s-2.3 6 0 8.3l24.9 24.9-24.9 25c-2.3 2.3-2.3 6 0 8.3s6 2.3 8.3 0l24.9-24.9 24.9 24.9c2.3 2.3 6 2.3 8.3 0s2.3-6 0-8.3L44.8 36.5z"/></symbol><symbol viewBox="0 0 38 35" aria-labelledby="afstrib-comment-bubble-desc afstrib-comment-bubble-title" id="strib-comment-bubble" xmlns="http://www.w3.org/2000/svg"><title id="afstrib-comment-bubble-title">Comment bubble</title><desc id="afstrib-comment-bubble-desc">Comment or talk symbol</desc><path d="M37 15.2c0-8-8-14.4-18-14.4S1 7.3 1 15.2c0 4.8 2.9 9 7.4 11.7-.5 3.7-2.7 5.9-2.7 5.9-.2.2-.2.5-.2.8.1.3.4.5.7.5 4.3 0 7.8-2.8 9.7-4.6 1 .1 2 .2 3 .2 10 0 18.1-6.5 18.1-14.5"/></symbol><symbol viewBox="0 0 46 26" aria-labelledby="agstrib-comment-bubble-long-desc agstrib-comment-bubble-long-title" id="strib-comment-bubble-long" xmlns="http://www.w3.org/2000/svg"><title id="agstrib-comment-bubble-long-title">Comment bubble long</title><desc id="agstrib-comment-bubble-long-desc">Comment or talk bubble elongated to allow for small amounts of text</desc><path d="M2.9 24.9c.1.2.3.3.5.3 2.1 0 4.5-2.2 5.7-3.4H37s8 0 8-8v-5s0-8-8-8H9s-8 0-8 8v5s0 4.6 3.5 6.8"/></symbol><symbol viewBox="0 0 90 90" aria-labelledby="ahstrib-data-drop-desc ahstrib-data-drop-title" id="strib-data-drop" xmlns="http://www.w3.org/2000/svg"><title id="ahstrib-data-drop-title">Data Drop series</title><desc id="ahstrib-data-drop-desc">Star Tribune Data Drop series symbol, a set of waves simlar to a chart</desc><path fill="var(--strib-data-drop-background, #000000)" d="M0 0h90v90H0z"/><path fill="var(--strib-data-drop-right, #FCB947)" d="M58.1 21.7c10.2 16 16.7 41.4 31.9 44.9v-7.7c-8.5-16.7-15.1-37.2-31.4-37.2h-1.2.7z"/><path fill="var(--strib-data-drop-middle, #ED257A)" d="M90 66.6c-15.2-3.5-21.7-28.9-31.9-44.9C30.8 22 31 80 3.5 80H0v10h90V66.6z"/><path fill="var(--strib-data-drop-left, #6AAEA1)" d="M38.7 8.7C17.6 8.7 14.2 43.2 0 59.1V80h3.5C31 80 30.8 22 58.1 21.7c-4.8-7.6-10.9-13-19.4-13z"/><path fill="var(--strib-data-drop-bottom, #7A3170)" d="M80 90c-7.9-16.3-14.6-35.3-30.2-35.3-15.5 0-22.2 19-30.2 35.3H80z"/></symbol><symbol viewBox="0 0 30 30" aria-labelledby="aistrib-document-desc aistrib-document-title" id="strib-document" xmlns="http://www.w3.org/2000/svg"><title id="aistrib-document-title">Document</title><desc id="aistrib-document-desc">Icon for document links</desc><path d="M27 13.7v15.4H4V.9h10.2v12.8z"/><path d="M27 11.2L16.8.9v10.3z"/></symbol><symbol viewBox="0 0 27.3 21.3" aria-labelledby="ajstrib-email-desc ajstrib-email-title" id="strib-email" xmlns="http://www.w3.org/2000/svg"><title id="ajstrib-email-title">Email</title><desc id="ajstrib-email-desc">Small letter to symbolize email</desc><path d="M.9 2.7c0-.9.7-1.6 1.6-1.6h22.3c.9 0 1.6.7 1.6 1.6l-12.8 9.6L.9 2.7zm25.5 2.8v13.1c0 .9-.7 1.6-1.6 1.6H2.5c-.9 0-1.6-.7-1.6-1.6V5.5l12.8 9.6 12.7-9.6z"/></symbol><symbol viewBox="0 0 36 36" id="strib-gallery-grid" xmlns="http://www.w3.org/2000/svg"><path d="M25.9 26.7v6.7c0 .4.3.7.7.7h6.7c.4 0 .7-.3.7-.7v-6.7c0-.4-.3-.7-.7-.7h-6.7c-.4.1-.7.4-.7.7m-12 0v6.7c0 .4.3.7.7.7h6.7c.4 0 .7-.3.7-.7v-6.7c0-.4-.3-.7-.7-.7h-6.7c-.4.1-.7.4-.7.7m-12 0v6.7c0 .4.3.7.7.7h6.7c.4 0 .7-.3.7-.7v-6.7c0-.4-.3-.7-.7-.7H2.6c-.4.1-.7.4-.7.7m24-12v6.7c0 .4.3.7.7.7h6.7c.4 0 .7-.3.7-.7v-6.7c0-.4-.3-.7-.7-.7h-6.7c-.4.1-.7.4-.7.7m-12 0v6.7c0 .4.3.7.7.7h6.7c.4 0 .7-.3.7-.7v-6.7c0-.4-.3-.7-.7-.7h-6.7c-.4.1-.7.4-.7.7m-12 0v6.7c0 .4.3.7.7.7h6.7c.4 0 .7-.3.7-.7v-6.7c0-.4-.3-.7-.7-.7H2.6c-.4.1-.7.4-.7.7m24-12v6.7c0 .4.3.7.7.7h6.7c.4 0 .7-.3.7-.7V2.7c0-.4-.3-.7-.7-.7h-6.7c-.4.1-.7.4-.7.7m-12 0v6.7c0 .4.3.7.7.7h6.7c.4 0 .7-.3.7-.7V2.7c0-.4-.3-.7-.7-.7h-6.7c-.4.1-.7.4-.7.7m-12 0v6.7c0 .4.3.7.7.7h6.7c.4 0 .7-.3.7-.7V2.7c0-.4-.3-.7-.7-.7H2.6c-.4.1-.7.4-.7.7"/></symbol><symbol viewBox="0 0 36 36" id="strib-gallery-slideshow" xmlns="http://www.w3.org/2000/svg"><path class="alst2" d="M33.3 34H2.7c-.4 0-.7-.3-.7-.7V2.7c0-.4.3-.7.7-.7h30.7c.3 0 .6.3.6.7v30.7c0 .3-.3.6-.7.6z"/></symbol><symbol viewBox="0 0 30 30" aria-labelledby="amstrib-graphic-desc amstrib-graphic-title" id="strib-graphic" xmlns="http://www.w3.org/2000/svg"><title id="amstrib-graphic-title">Graphic</title><desc id="amstrib-graphic-desc">Icon for news graphic links</desc><path d="M4.9 6.1h3v23.1h-3zM13.6.9h3v28.3h-3zm8.7 9.9h3v18.4h-3z"/></symbol><symbol viewBox="0 0 97 70" aria-labelledby="anstrib-hamburger-desc anstrib-hamburger-title" id="strib-hamburger" xmlns="http://www.w3.org/2000/svg"><title id="anstrib-hamburger-title">Menu hamburger</title><desc id="anstrib-hamburger-desc">Three lines to note a menu</desc><path d="M89.6 29.1H7.4c-3.3 0-5.9 2.7-5.9 5.9s2.6 5.9 5.9 5.9h82.2c3.2 0 5.9-2.6 5.9-5.9s-2.6-5.9-5.9-5.9zm0 27.4H7.4c-3.2 0-5.9 2.6-5.9 5.9 0 3.2 2.6 5.9 5.9 5.9h82.2c3.2 0 5.9-2.6 5.9-5.9 0-3.2-2.6-5.9-5.9-5.9zm-82.2-43h82.2c3.2 0 5.9-2.6 5.9-5.9s-2.6-5.9-5.9-5.9H7.4c-3.2 0-5.9 2.6-5.9 5.9 0 3.2 2.6 5.9 5.9 5.9z"/></symbol><symbol viewBox="0 0 11.8 11.8" aria-labelledby="aostrib-home-desc aostrib-home-title" id="strib-home" xmlns="http://www.w3.org/2000/svg"><title id="aostrib-home-title">House</title><desc id="aostrib-home-desc">Simple house outline</desc><path d="M11.4 6c0-.1 0-.2-.1-.3L6.1.5C6 .4 5.9.4 5.8.5L.5 5.7c-.1.1-.1.2-.1.3 0 .1.1.1.2.1h1.1v5c0 .1.1.2.2.2h2.3c.1 0 .2-.1.2-.2V7.2h2.7v3.9c0 .1.1.2.2.2h2.3c.1 0 .2-.1.2-.2v-5h1.1c.3 0 .4-.1.5-.1"/></symbol><symbol viewBox="0 0 22 22" aria-labelledby="apstrib-like-desc apstrib-like-title" id="strib-like" xmlns="http://www.w3.org/2000/svg"><title id="apstrib-like-title">Like</title><desc id="apstrib-like-desc">Thumb-up hand</desc><path class="apst0" d="M20 12c.7-.3 1-.9 1-1.7 0-.5-.2-1-.5-1.3-.4-.4-.8-.5-1.3-.5h-4.4c-.2 0-.3-.1-.3-.2-.1-.1-.1-.3 0-.4 0 0 .1-.2.2-.5.1-.4.3-.8.4-1.4s.2-1.1.2-1.6c0-.9-.2-1.7-.7-2.4-.5-.7-1-1-1.5-1-.3 0-.6.1-.9.4-.2.2-.4.5-.4.9 0 1.3-.4 2.5-1.1 3.6-.8 1-2.3 2.3-4.7 3.9v8.7l4.3 2c.8.3 1.5.5 2.4.5h4.4c.5 0 1-.2 1.3-.5.4-.4.5-.8.5-1.3 0-.3-.1-.5-.2-.7.4-.1.8-.4 1-.8.3-.4.4-.8.4-1.2 0-.4-.1-.7-.3-1 .7-.3 1.1-.9 1.1-1.7.1-.8-.2-1.4-.9-1.8M4.4 8.9c0-.1 0-.2-.1-.3-.1-.1-.2-.1-.4-.1H1.4c-.1 0-.2 0-.3.1 0 .1-.1.2-.1.3v11.7c0 .1 0 .2.1.3.1.1.2.1.3.1h2.5c.1 0 .2 0 .3-.1s.2-.2.2-.3V8.9z"/></symbol><symbol viewBox="0 0 48 70" aria-labelledby="aqstrib-map-pin-desc aqstrib-map-pin-title" id="strib-map-pin" xmlns="http://www.w3.org/2000/svg"><title id="aqstrib-map-pin-title">Map pin</title><desc id="aqstrib-map-pin-desc">Simple pointed map pin</desc><path d="M24 1.7C11.3 1.7 1.1 11.9 1.1 24.6S24 68.3 24 68.3s22.9-31 22.9-43.8C46.9 11.9 36.7 1.7 24 1.7zM24 35c-5.8 0-10.4-4.6-10.4-10.4S18.2 14.2 24 14.2s10.4 4.6 10.4 10.4S29.9 35 24 35z"/></symbol><symbol viewBox="0 0 48 48" aria-labelledby="arstrib-media-play-desc arstrib-media-play-title" id="strib-media-play" xmlns="http://www.w3.org/2000/svg"><title id="arstrib-media-play-title">Play</title><desc id="arstrib-media-play-desc">A triangle in a circle used to play media</desc><circle cx="24" cy="24" r="22.5"/><path d="M36.3 24.2l-19.1-11v22l19.1-11z" fill="var(--strib-icon-background, #FFFFFF)"/></symbol><symbol viewBox="0 0 22 16" aria-labelledby="asstrib-media-video-desc asstrib-media-video-title" id="strib-media-video" xmlns="http://www.w3.org/2000/svg"><title id="asstrib-media-video-title">Video</title><desc id="asstrib-media-video-desc">A small camera icon</desc><path d="M21 1.6c0-.2-.1-.4-.3-.4-.2-.1-.3 0-.5.1L16 6V2.5c0-.8-.6-1.4-1.2-1.4H2.3c-.7.1-1.3.7-1.3 1.4v11c0 .8.6 1.4 1.2 1.4h12.5c.7 0 1.2-.6 1.2-1.4V10l4.3 4.7c.1.1.2.1.3.1h.2c.2-.1.3-.3.3-.4V1.6z"/></symbol><symbol viewBox="0 0 16 16" aria-labelledby="atstrib-media-video-square-desc atstrib-media-video-square-title" id="strib-media-video-square" xmlns="http://www.w3.org/2000/svg"><title id="atstrib-media-video-square-title">Video</title><desc id="atstrib-media-video-square-desc">Icon for video links</desc><path d="M15.3 2.5c0-.2-.1-.3-.3-.3-.2-.1-.3 0-.4.1l-3.6 4v-3c0-.7-.5-1.3-1-1.3H1.8c-.6.1-1.1.6-1.1 1.2v9.5c0 .7.5 1.2 1 1.2h8.2c.6 0 1-.5 1-1.2v-3l3.7 4.1c.1.1.2.1.3.1h.2c.2-.1.3-.3.3-.3V2.5z"/></symbol><symbol viewBox="0 0 62 62" aria-labelledby="austrib-modal-desc austrib-modal-title" id="strib-modal" xmlns="http://www.w3.org/2000/svg"><title id="austrib-modal-title">Modal</title><desc id="austrib-modal-desc">A two-way arrow in a box to show that a modal or popup will appear</desc><path d="M1 1v60h60V1H1zm56 56H5V5h52v52z"/><path d="M45 13H27v4h15.2L17 42.2V27h-4v22h22v-4H19.8L45 19.8V35h4V13z"/></symbol><symbol viewBox="0 0 47 83" aria-labelledby="avstrib-nav-back-desc avstrib-nav-back-title" id="strib-nav-back" xmlns="http://www.w3.org/2000/svg"><title id="avstrib-nav-back-title">Back navigation</title><desc id="avstrib-nav-back-desc">A left chevron arrow used for navigation</desc><path d="M44.1 3.1c-1.6-1.6-4.1-1.6-5.7 0L2.9 38.7c-1.6 1.6-1.6 4.1 0 5.7l35.6 35.5c.8.8 1.8 1.2 2.8 1.2 1 0 2-.4 2.8-1.2 1.6-1.6 1.6-4.1 0-5.7L11.4 41.5 44.1 8.8c1.6-1.6 1.6-4.1 0-5.7z"/></symbol><symbol viewBox="0 0 47 83" aria-labelledby="awstrib-nav-forward-desc awstrib-nav-forward-title" id="strib-nav-forward" xmlns="http://www.w3.org/2000/svg"><title id="awstrib-nav-forward-title">Forward navigation</title><desc id="awstrib-nav-forward-desc">A right chevron arrow used for navigation</desc><path d="M2.9 79.9c1.6 1.6 4.1 1.6 5.7 0l35.5-35.6c1.6-1.6 1.6-4.1 0-5.7L8.5 3.1c-.8-.8-1.8-1.2-2.8-1.2s-2 .4-2.8 1.2c-1.6 1.6-1.6 4.1 0 5.7l32.7 32.7L2.9 74.2c-1.6 1.6-1.6 4.1 0 5.7z"/></symbol><symbol viewBox="0 0 12 12" aria-labelledby="axstrib-person-desc axstrib-person-title" id="strib-person" xmlns="http://www.w3.org/2000/svg"><title id="axstrib-person-title">Person</title><desc id="axstrib-person-desc">Outline of head and shoulders of a person</desc><path d="M11.5 11c0-2.3-4.1-1.8-4.1-3.7 0 0 1.4-1.4 1.4-3.9C8.8 1.9 7.6.6 6 .6S3.2 1.9 3.2 3.4c0 2.5 1.4 3.9 1.4 3.9C4.6 9.1.5 8.7.5 11v.5c0 .1.1.2.2.2h10.5c.1 0 .2-.1.2-.2V11z"/></symbol><symbol viewBox="0 0 8 12" aria-labelledby="aystrib-phone-app-desc aystrib-phone-app-title" id="strib-phone-app" xmlns="http://www.w3.org/2000/svg"><title id="aystrib-phone-app-title">Phone smart</title><desc id="aystrib-phone-app-desc">A modern, smart phone</desc><path d="M6.3 8.8H1.8V2.3h4.6v6.5zm-2.3 2c-.4 0-.7-.3-.7-.7s.4-.7.7-.7.7.3.7.7c.1.4-.3.7-.7.7M6.7.5H1.3C.9.5.6.8.6 1.2v9.6c0 .4.3.7.7.7h5.5c.4 0 .7-.3.7-.7V1.2c0-.4-.3-.7-.8-.7"/></symbol><symbol viewBox="0 0 26 26" aria-labelledby="azstrib-phone-landline-desc azstrib-phone-landline-title" id="strib-phone-landline" xmlns="http://www.w3.org/2000/svg"><title id="azstrib-phone-landline-title">Phone landline</title><desc id="azstrib-phone-landline-desc">A simple land-line phone reciever</desc><path d="M24.9 3.7c0-.1-.1-.2-.2-.3L18.8 1c-.3-.1-.5 0-.6.3l-3.3 6.6c-.1.2-.1.4.1.6l3.2 3.2c-1.7 2.7-3.9 4.9-6.5 6.5L8.5 15c-.2-.2-.4-.2-.6-.1l-6.6 3.3c-.3.1-.3.3-.3.6l2.4 5.9.3.3h.4c5.4-.7 10.1-3 14-6.9s6.2-8.6 6.9-14v-.2c-.1 0-.1-.1-.1-.2"/></symbol><symbol viewBox="0 0 30 30" aria-labelledby="bastrib-podcast-desc bastrib-podcast-title" id="strib-podcast" xmlns="http://www.w3.org/2000/svg"><title id="bastrib-podcast-title">Podcast</title><desc id="bastrib-podcast-desc">Icon for podcast links</desc><path d="M12.5 3.3c-.2-.1-.5 0-.6.1L5.8 9.5H1.5c-.1 0-.2 0-.4.1-.1.1-.1.2-.1.4v9c0 .1 0 .2.1.4.1.1.2.1.4.1h4.3l6.1 6.1c.1.1.4.2.6.1.2-.1.4-.2.4-.5V3.8c0-.3-.2-.4-.4-.5m9.9 14.6c.6-2.2.6-4.3 0-6.5s-1.7-4.1-3.3-5.7c-.2-.2-.5-.2-.7 0l-1.6 1.6c-.2.2-.2.5 0 .7 1.9 1.9 2.7 4.1 2.7 6.5s-.9 4.8-2.7 6.5c-.2.2-.2.5 0 .9l1.6 1.6c.2.2.5.2.7 0 1.5-1.6 2.7-3.5 3.3-5.6"/><path d="M23.5 28c2.5-2.5 4.1-5.3 4.9-8.5.9-3.2.9-6.5 0-9.8-.9-3.2-2.5-6.1-4.9-8.5-.2-.2-.5-.2-.7 0l-1.6 1.6c-.2.2-.2.5 0 .7 2 2 3.3 4.3 4.1 7 .7 2.7.7 5.3 0 8s-2.1 5.1-4.1 7c-.2.2-.2.5 0 .9l1.6 1.6c.1.2.4.2.7 0"/></symbol><symbol viewBox="0 0 150 150" aria-labelledby="bbstrib-poll-desc bbstrib-poll-title" id="strib-poll" xmlns="http://www.w3.org/2000/svg"><title id="bbstrib-poll-title">Poll</title><desc id="bbstrib-poll-desc">Icon for poll links</desc><path d="M72.9 110.7L32.5 70.5l18.3-18.3 21.9 21.9L122 24.9C109.8 13.3 93.3 6.1 75 6.1 36.9 6.1 6.1 36.9 6.1 75s30.8 68.9 68.9 68.9 68.9-30.8 68.9-68.9c0-10.4-2.4-20-6.4-28.9l-64.6 64.6z"/></symbol><symbol viewBox="0 0 35 31" aria-labelledby="bcstrib-print-desc bcstrib-print-title" id="strib-print" xmlns="http://www.w3.org/2000/svg"><title id="bcstrib-print-title">Print</title><desc id="bcstrib-print-desc">A simple outline of a home printer</desc><path d="M9.3 15.5h16.4v13.3c0 .3-.3.6-.7.6H10c-.4 0-.7-.3-.7-.6V15.5zm18.4-7c-1.1 0-2-.8-2-1.7s.9-1.7 2-1.7 2 .8 2 1.7c0 .9-.8 1.7-2 1.7m4.1-6.9H3.2c-1.1 0-2 .8-2 1.7v13.9c0 1 .9 1.7 2 1.7h3.4v-5.8h21.8V19h3.4c1.1 0 2-.8 2-1.7v-14c.1-.9-.8-1.7-2-1.7"/></symbol><symbol viewBox="0 0 22 17" id="strib-reply" xmlns="http://www.w3.org/2000/svg"><path d="M20.6 14.8c.3-.1.4-.2.4-.4-.1-2.9-1-5.1-2.8-6.7S14.1 5.2 11 5.2V1.4c0-.2-.1-.3-.2-.4-.2-.1-.3-.1-.4 0L1.1 8.2c-.1.1-.1.2-.1.3s0 .2.1.3l9.2 7.1c.1.1.1.1.3.1h.2c.2-.1.2-.2.2-.4v-3.7c2.2 0 4.1.2 5.7.7 1.6.4 2.8 1.1 3.5 2 .1.1.2.2.4.2"/></symbol><symbol viewBox="0 0 25 22" aria-labelledby="bestrib-reprint-title" id="strib-reprint" xmlns="http://www.w3.org/2000/svg"><title id="bestrib-reprint-title">Reprint</title><path d="M12.5 5.3H21v4.2h-8.5V5.3zM5.9 1.1c-.1 0-.3 0-.3.1-.1.1-.2.2-.2.4v16c0 .3-.1.5-.3.7-.2.2-.4.3-.7.3-.3 0-.5-.1-.7-.3-.1-.2-.2-.4-.2-.7V3.9H1.7c-.2 0-.3.1-.4.2-.1 0-.1.2-.1.3v13.7c0 .8.3 1.5.8 2 .6.6 1.2.8 2 .8h17c.8 0 1.5-.3 2-.8.6-.5.8-1.2.8-2V1.6c0-.1 0-.3-.1-.3-.1-.1-.2-.1-.3-.1L5.9 1.1z"/></symbol><symbol viewBox="0 0 12.8 12.8" aria-labelledby="bfstrib-search-desc bfstrib-search-title" id="strib-search" xmlns="http://www.w3.org/2000/svg"><title id="bfstrib-search-title">Search</title><desc id="bfstrib-search-desc">Magnifying glass outline</desc><path d="M7.9 7.9c-1.6 0-3-1.3-3-3s1.3-3 3-3 3 1.3 3 3-1.4 3-3 3m0-7.5c-2.5 0-4.4 2-4.4 4.5 0 .9.2 1.7.7 2.4L.8 10.7c-.4.4-.4 1 0 1.4.2.2.4.3.7.3.2 0 .5-.1.7-.3l3.3-3.4c.7.4 1.5.7 2.4.7 2.5 0 4.4-2 4.4-4.5S10.4.4 7.9.4"/></symbol><symbol viewBox="0 0 23 43" aria-labelledby="bgstrib-social-facebook-desc bgstrib-social-facebook-title" id="strib-social-facebook" xmlns="http://www.w3.org/2000/svg"><title id="bgstrib-social-facebook-title">Facebook</title><desc id="bgstrib-social-facebook-desc">Simple Facebook logo</desc><path d="M6.5 41.5H14V23.2h7l.5-6.7H14v-5c0-2 .4-3.3 2.9-3.3h4.3l.3-6.3s-2.2-.4-5-.4c-7 0-10 4.5-10 9.2v5.8h-5v6.7h5v18.3z"/></symbol><symbol viewBox="0 0 32 32" aria-labelledby="bhstrib-social-facebook-circle-desc bhstrib-social-facebook-circle-title" id="strib-social-facebook-circle" xmlns="http://www.w3.org/2000/svg"><title id="bhstrib-social-facebook-circle-title">Facebook circle</title><desc id="bhstrib-social-facebook-circle-desc">Facebook logo in a circle</desc><path d="M10.2 2C12 1.2 13.9.8 15.9.8s3.9.4 5.8 1.2c1.8.8 3.4 1.9 4.7 3.2 1.3 1.4 2.4 3 3.2 4.9.8 1.9 1.2 3.8 1.2 5.9 0 2.3-.5 4.5-1.4 6.6-1 2.1-2.3 3.8-4 5.2-1.7 1.4-3.6 2.4-5.7 3V19.1H23l.5-3.8h-3.7V12c0-1.1.5-1.7 1.6-1.7h2.4V6.7c-.7-.2-1.6-.3-2.7-.3-1.7 0-3.1.5-4 1.4s-1.4 2.1-1.4 3.7v3.8h-3.4v3.8h3.4v12.1c-2 0-3.9-.5-5.6-1.3-1.8-.8-3.3-1.9-4.6-3.3-1.3-1.4-2.3-3-3.1-4.8S1.1 18 1.1 16c0-2.1.4-4 1.2-5.9.8-1.9 1.8-3.5 3.1-4.9C6.8 3.9 8.3 2.8 10.2 2z"/></symbol><symbol viewBox="0 0 56.693 56.693" aria-labelledby="bistrib-social-google-desc bistrib-social-google-title" id="strib-social-google" xmlns="http://www.w3.org/2000/svg"><title id="bistrib-social-google-title">Google Plus logo</title><desc id="bistrib-social-google-desc">Just the Google Plus logo</desc><path d="M52.218 25.852h-7.512v-7.51c0-.573-.465-1.039-1.037-1.039H41.53a1.04 1.04 0 0 0-1.041 1.039v7.51h-7.512c-.572 0-1.039.467-1.039 1.041v2.139a1.04 1.04 0 0 0 1.039 1.039h7.512v7.514a1.04 1.04 0 0 0 1.041 1.039h2.139c.572 0 1.037-.465 1.037-1.039V30.07h7.512a1.04 1.04 0 0 0 1.039-1.039v-2.139a1.04 1.04 0 0 0-1.039-1.04z"/><path d="M26.974 32.438c-1.58-1.119-3.016-2.76-3.041-3.264 0-.918.082-1.357 2.141-2.961 2.662-2.084 4.128-4.824 4.128-7.719 0-2.625-.802-4.957-2.167-6.595h1.059c.219 0 .434-.068.609-.196l2.955-2.141c.367-.263.521-.732.381-1.161a1.042 1.042 0 0 0-.988-.72H18.835c-1.446 0-2.915.255-4.357.751-4.816 1.661-8.184 5.765-8.184 9.978 0 5.969 4.624 10.493 10.805 10.635a5.623 5.623 0 0 0-.182 1.396c0 .92.233 1.791.713 2.633h-.17c-5.892 0-11.21 2.891-13.229 7.193-.526 1.119-.794 2.25-.794 3.367a6.33 6.33 0 0 0 .826 3.113c1.269 2.27 3.994 4.031 7.677 4.961 1.901.48 3.944.725 6.065.725 1.906 0 3.723-.246 5.403-.732 5.238-1.521 8.625-5.377 8.625-9.828-.001-4.271-1.374-6.828-5.059-9.435zm-16.691 9.777c0-3.107 3.947-5.832 8.446-5.832h.121c.979.012 1.934.156 2.834.432.309.213.607.416.893.611 2.084 1.42 3.461 2.357 3.844 3.861.09.379.135.758.135 1.125 0 3.869-2.885 5.83-8.578 5.83-4.315 0-7.695-2.646-7.695-6.027zm4.094-29.357c.703-.803 1.624-1.227 2.658-1.227l.117.002c2.921.086 5.716 3.341 6.23 7.256.289 2.192-.199 4.253-1.301 5.509-.705.805-1.613 1.229-2.689 1.229h-.049c-2.861-.088-5.716-3.467-6.227-7.377-.287-2.186.173-4.151 1.261-5.392z"/></symbol><symbol viewBox="0 0 32 32" aria-labelledby="bjstrib-social-google-circle-desc bjstrib-social-google-circle-title" id="strib-social-google-circle" xmlns="http://www.w3.org/2000/svg"><title id="bjstrib-social-google-circle-title">Google Plus circle</title><desc id="bjstrib-social-google-circle-desc">Google Plus logo in a circle</desc><path d="M7.8 21.3c0 .8.4 1.6 1.1 2.4H7.5c-1.3 0-2.6.2-3.8.7-1.6-2.5-2.4-5.3-2.4-8.3v-.8c.4 1.3 1.1 2.4 2.2 3.2s2.4 1.2 4 1.2h.7c-.3.6-.4 1.1-.4 1.6zM16 .9c2 0 3.9.4 5.7 1.2 1.8.8 3.4 1.9 4.7 3.2 1.3 1.4 2.4 3 3.1 4.8.8 1.9 1.2 3.8 1.2 5.9s-.4 4-1.2 5.9c-.8 1.9-1.8 3.5-3.1 4.8-1.3 1.4-2.9 2.4-4.7 3.2-1.8.8-3.7 1.2-5.7 1.2h-.6c.4-.9.6-1.7.6-2.5 0-1.3-.2-2.3-.7-3.1-.4-.8-1.2-1.6-2.3-2.4-.5-.4-1-.8-1.5-1.4-.5-.5-.7-1-.7-1.4 0-.5.1-.9.3-1.2.2-.3.6-.7 1.3-1.3.7-.6 1.3-1.3 1.7-2 .4-.8.6-1.6.6-2.5 0-1.1-.2-2.2-.7-3.1-.5-.9-1.1-1.6-2-1.9h2.7l2-1.2H8.3c-1 0-2 .2-3 .7-1 .4-1.8 1-2.6 1.8 1.2-2.6 3-4.7 5.4-6.3S13.1.9 16 .9zm-4.1 12.8c.2 1.5 0 2.7-.7 3.7-.6 1-1.5 1.5-2.6 1.5s-2.1-.6-3-1.6C4.7 16.2 4.2 15 4 13.5c-.2-1.5 0-2.7.7-3.7.6-1 1.5-1.5 2.5-1.4 1.1 0 2.1.6 3 1.6 1 1 1.5 2.2 1.7 3.7zm1.9 14.5c.1.3.1.6.1.9 0 .7-.1 1.4-.4 1.9-1.8-.3-3.5-.9-5-1.9-1.6-.9-2.9-2.1-4-3.6 1.2-.7 2.5-1.1 3.9-1.1.7 0 1.4.1 2.1.4.1.1.4.3.7.5s.6.4.7.5c.1.1.3.2.5.4s.4.3.5.5.2.3.4.4c.1.2.3.3.3.5.1.2.2.4.2.6zm9.6-15.9h3.7v-1.9h-3.7V6.6h-1.8v3.8h-3.7v1.9h3.7v3.8h1.8v-3.8z"/></symbol><symbol viewBox="0 0 56.693 56.693" aria-labelledby="bkstrib-social-instagram-desc bkstrib-social-instagram-title" id="strib-social-instagram" xmlns="http://www.w3.org/2000/svg"><title id="bkstrib-social-instagram-title">Instagram logo</title><desc id="bkstrib-social-instagram-desc">Just the Instagram logo</desc><path d="M43.414 4.831H13c-5.283 0-9.581 4.297-9.581 9.58v30.415c0 5.283 4.298 9.58 9.581 9.58h30.415c5.283 0 9.58-4.297 9.58-9.58V14.41c-.001-5.283-4.298-9.579-9.581-9.579zm2.748 5.713l1.096-.004v8.403l-8.375.027-.029-8.402 7.308-.024zM21.131 24.53c1.588-2.197 4.164-3.638 7.076-3.638s5.488 1.441 7.074 3.638a8.677 8.677 0 0 1 1.652 5.088c0 4.811-3.918 8.725-8.727 8.725-4.812 0-8.726-3.914-8.726-8.725a8.683 8.683 0 0 1 1.651-5.088zm27.033 20.295a4.754 4.754 0 0 1-4.75 4.75H13a4.755 4.755 0 0 1-4.751-4.75V24.53h7.4a13.483 13.483 0 0 0-.998 5.088c0 7.473 6.08 13.557 13.556 13.557 7.475 0 13.555-6.084 13.555-13.557 0-1.799-.361-3.516-1-5.088h7.402v20.295z"/></symbol><symbol viewBox="0 0 32 32" aria-labelledby="blstrib-social-instagram-circle-desc blstrib-social-instagram-circle-title" id="strib-social-instagram-circle" xmlns="http://www.w3.org/2000/svg"><title id="blstrib-social-instagram-circle-title">Instagram circle</title><desc id="blstrib-social-instagram-circle-desc">Instagram logo in a circle</desc><path d="M10.2 2C12 1.2 13.9.8 16 .8c2 0 3.9.4 5.8 1.2 1.8.8 3.4 1.9 4.7 3.2 1.3 1.4 2.4 3 3.2 4.9.8 1.9 1.2 3.8 1.2 5.9s-.4 4-1.2 5.9c-.8 1.9-1.8 3.5-3.2 4.9-1.3 1.4-2.9 2.4-4.7 3.2-1.8.8-3.7 1.2-5.8 1.2-2 0-3.9-.4-5.8-1.2-1.8-.8-3.4-1.9-4.7-3.2-1.3-1.4-2.4-3-3.2-4.9S1.1 18.1 1.1 16s.4-4 1.2-5.9 1.8-3.5 3.2-4.9C6.8 3.9 8.3 2.8 10.2 2zm14.3 20.3V9.7c0-.7-.2-1.3-.7-1.8s-1.1-.7-1.7-.7H9.7c-.7-.1-1.2.2-1.7.7S7.3 9 7.3 9.7v12.7c0 .7.2 1.3.7 1.8s1.1.7 1.7.7h12.4c.7 0 1.3-.2 1.7-.7s.7-1.2.7-1.9zM20.8 16c0-.5 0-.9-.1-1.3h2v7.6c0 .2-.1.3-.2.4s-.3.2-.4.2H9.7c-.2 0-.3-.1-.4-.2-.1-.1-.2-.3-.2-.4v-7.6h2c-.1.4-.1.8-.1 1.3 0 1.4.5 2.6 1.4 3.6 1 1 2.1 1.5 3.5 1.5s2.5-.5 3.5-1.5 1.4-2.2 1.4-3.6zm-2.7 2.2c-.6.6-1.3.9-2.2.9-.8 0-1.6-.3-2.2-.9-.6-.6-.9-1.4-.9-2.2 0-.9.3-1.6.9-2.2.6-.6 1.3-.9 2.2-.9.8 0 1.6.3 2.2.9.6.6.9 1.4.9 2.2 0 .9-.3 1.6-.9 2.2zm4-9.2c.2 0 .3.1.4.2.1.1.2.3.2.4v1.9c0 .2-.1.3-.2.5-.1.1-.3.2-.4.2h-1.9c-.2 0-.3-.1-.4-.2-.1-.1-.2-.3-.2-.5V9.7c0-.2.1-.3.2-.4.1-.2.3-.3.4-.3h1.9z"/></symbol><symbol viewBox="0 0 56.693 56.693" aria-labelledby="bmstrib-social-linkedin-desc bmstrib-social-linkedin-title" id="strib-social-linkedin" xmlns="http://www.w3.org/2000/svg"><title id="bmstrib-social-linkedin-title">LinkedIn logo</title><desc id="bmstrib-social-linkedin-desc">Simple LinkedIn logo</desc><path d="M30.071 27.101v-.077a2.031 2.031 0 0 1-.05.077h.05z"/><path d="M49.265 4.667H7.145c-2.016 0-3.651 1.596-3.651 3.563v42.613c0 1.966 1.635 3.562 3.651 3.562h42.12c2.019 0 3.654-1.597 3.654-3.562V8.23c0-1.968-1.636-3.563-3.654-3.563zm-30.79 41.637H11.01V23.845h7.465v22.459zm-3.732-25.527h-.05c-2.504 0-4.124-1.725-4.124-3.88 0-2.203 1.67-3.88 4.223-3.88 2.554 0 4.125 1.677 4.175 3.88 0 2.155-1.622 3.88-4.224 3.88zm30.651 25.527h-7.465V34.286c0-3.018-1.08-5.078-3.781-5.078-2.062 0-3.29 1.389-3.831 2.731-.197.479-.245 1.149-.245 1.821v12.543h-7.465s.098-20.354 0-22.459h7.465v3.179c.992-1.53 2.766-3.709 6.729-3.709 4.911 0 8.594 3.211 8.594 10.11v12.88z"/></symbol><symbol viewBox="0 0 43 43" aria-labelledby="bnstrib-social-linkedin-circle-desc bnstrib-social-linkedin-circle-title" id="strib-social-linkedin-circle" xmlns="http://www.w3.org/2000/svg"><title id="bnstrib-social-linkedin-circle-title">LinkedIn circle</title><desc id="bnstrib-social-linkedin-circle-desc">LinkedIn logo in a circle</desc><path d="M34.2 31.7h-5v-7.6c0-2.6-1-3.4-2.6-3.4s-2.5 1.3-2.5 3.4v7.6H19v-11s-.1-2.8-.1-3.4H24l.2 2.2c.7-1.8 2.2-3.1 4.2-3.1 3.6 0 6 3 6 7.6v7.7h-.2zM13 14.7c-2.1 0-3.4-1.3-3.4-3s1.4-3 3.4-3c2.1 0 3.4 1.3 3.4 3s-1.3 3-3.4 3m2.6 17h-5.1V17.3h5.1v14.4zm5.9-30.6c-11.3 0-20.4 9.1-20.4 20.4s9.1 20.4 20.4 20.4 20.4-9.1 20.4-20.4S32.8 1.1 21.5 1.1"/></symbol><symbol viewBox="0 0 56.693 56.693" aria-labelledby="bostrib-social-pinterest-desc bostrib-social-pinterest-title" id="strib-social-pinterest" xmlns="http://www.w3.org/2000/svg"><title id="bostrib-social-pinterest-title">Pinterest logo</title><desc id="bostrib-social-pinterest-desc">Just the Pinterest logo</desc><path d="M30.374 4.622c-13.586 0-20.437 9.74-20.437 17.864 0 4.918 1.862 9.293 5.855 10.922.655.27 1.242.01 1.432-.715.132-.5.445-1.766.584-2.295.191-.717.117-.967-.412-1.594-1.151-1.357-1.888-3.115-1.888-5.607 0-7.226 5.407-13.695 14.079-13.695 7.679 0 11.898 4.692 11.898 10.957 0 8.246-3.649 15.205-9.065 15.205-2.992 0-5.23-2.473-4.514-5.508.859-3.623 2.524-7.531 2.524-10.148 0-2.34-1.257-4.292-3.856-4.292-3.058 0-5.515 3.164-5.515 7.401 0 2.699.912 4.525.912 4.525l-3.678 15.582c-1.092 4.625-.164 10.293-.085 10.865.046.34.482.422.68.166.281-.369 3.925-4.865 5.162-9.359.351-1.271 2.011-7.859 2.011-7.859.994 1.896 3.898 3.562 6.986 3.562 9.191 0 15.428-8.379 15.428-19.595.001-8.483-7.183-16.382-18.101-16.382z"/></symbol><symbol viewBox="0 0 32 32" aria-labelledby="bpstrib-social-pinterest-circle-desc bpstrib-social-pinterest-circle-title" id="strib-social-pinterest-circle" xmlns="http://www.w3.org/2000/svg"><title id="bpstrib-social-pinterest-circle-title">Pinterest circle</title><desc id="bpstrib-social-pinterest-circle-desc">Pinterest logo in a circle</desc><path d="M10.1 2c1.8-.8 3.8-1.2 5.8-1.2s3.9.4 5.8 1.2c1.8.8 3.4 1.9 4.7 3.2 1.3 1.4 2.4 3 3.2 4.9.8 1.9 1.2 3.9 1.2 5.9 0 2.1-.4 4-1.2 5.9-.8 1.9-1.8 3.5-3.2 4.9-1.3 1.4-2.9 2.4-4.7 3.2-1.8.8-3.7 1.2-5.8 1.2-1.5 0-2.9-.2-4.2-.6.7-1.1 1.2-2.2 1.5-3.2l1-4.2c.3.5.7 1 1.4 1.3.7.4 1.4.6 2.2.6 1.6 0 3-.5 4.2-1.4 1.2-.9 2.2-2.1 2.8-3.7.7-1.6 1-3.4 1-5.3 0-1.1-.2-2.2-.7-3.3-.5-1-1.1-2-1.9-2.8s-1.8-1.5-3-1.9C19 6.2 17.7 6 16.4 6c-1.4 0-2.6.2-3.8.6s-2.2.9-3 1.5-1.5 1.4-2.1 2.2-1 1.7-1.3 2.6c-.2.7-.3 1.6-.3 2.5 0 1.4.2 2.6.7 3.6s1.3 1.8 2.2 2.2c.4.1.6 0 .8-.4 0-.1.1-.5.3-1.2v-.4c0-.1-.1-.2-.3-.4-.6-.8-1-1.8-1-3 0-1 .2-1.9.5-2.8.3-.9.8-1.7 1.4-2.3.6-.7 1.4-1.2 2.3-1.6.9-.4 1.9-.6 3-.6 1.9 0 3.4.5 4.5 1.6s1.6 2.5 1.6 4.2c0 1.5-.2 2.8-.6 4-.4 1.2-.9 2.2-1.7 2.9-.7.7-1.5 1.1-2.5 1.1-.8 0-1.4-.3-1.9-.9s-.6-1.3-.4-2.1c.1-.5.3-1.1.5-1.9s.4-1.5.6-2c.1-.6.2-1.1.2-1.5 0-.7-.2-1.2-.5-1.6-.3-.4-.8-.6-1.5-.6-.8 0-1.5.4-2 1.1-.6.8-.8 1.7-.8 2.8 0 .4 0 .9.1 1.3s.2.7.2.9l.1.3c-1.1 4.7-1.7 7.5-1.9 8.3.1 1.1.1 2.3.1 3.6-2.7-1.2-4.8-3.1-6.4-5.6S1.1 19.1 1.1 16c0-2.1.4-4 1.2-5.9s1.8-3.5 3.2-4.9C6.7 3.9 8.3 2.8 10.1 2z"/></symbol><symbol viewBox="0 0 36 56" aria-labelledby="bqstrib-social-tumblr-desc bqstrib-social-tumblr-title" id="strib-social-tumblr" xmlns="http://www.w3.org/2000/svg"><title id="bqstrib-social-tumblr-title">Tumblr logo</title><desc id="bqstrib-social-tumblr-desc">Just the Tumblr logo</desc><path d="M20.1 3.4v11.4h11.4v8.8H20.1v12.6c0 2.9 0 4.5.3 5.3.3.8 1.1 1.6 1.9 2.1 1.1.7 2.3 1 3.7 1 2.5 0 5-.8 7.4-2.4V50c-2.1 1-4 1.7-5.7 2.1-1.7.4-3.5.6-5.5.6-2.2 0-3.6-.3-5.3-.8-1.7-.6-3.2-1.4-4.4-2.4-1.2-1.1-2.1-2.2-2.5-3.4-.5-1.2-.7-2.9-.7-5.2V23.6H2.5v-7c1.9-.6 4.2-1.5 5.6-2.7 1.4-1.2 2.5-2.6 3.3-4.2.8-1.6 1.4-3.7 1.7-6.3h7z"/></symbol><symbol viewBox="0 0 32 32" aria-labelledby="brstrib-social-tumblr-circle-desc brstrib-social-tumblr-circle-title" id="strib-social-tumblr-circle" xmlns="http://www.w3.org/2000/svg"><title id="brstrib-social-tumblr-circle-title">Tumblr circle</title><desc id="brstrib-social-tumblr-circle-desc">Tumblr logo in a circle</desc><circle cx="16" cy="16" r="15"/><path d="M19.8 21.3c-.4.2-1 .3-1.5.3-1.5 0-1.8-1.1-1.8-2v-6.2h3.8v-3h-3.8v-5h-2.8s-.1 0-.1.1c-.2 1.6-.9 4.3-3.8 5.4v2.6h1.9V20c0 2.2 1.6 5.4 5.7 5.3 1.4 0 3-.6 3.3-1.2l-.9-2.8" fill="var(--strib-icon-background, #FFFFFF)"/></symbol><symbol viewBox="0 0 25 21" aria-labelledby="bsstrib-social-twitter-desc bsstrib-social-twitter-title" id="strib-social-twitter" xmlns="http://www.w3.org/2000/svg"><title id="bsstrib-social-twitter-title">Twitter</title><desc id="bsstrib-social-twitter-desc">Simple Twitter logo</desc><path d="M24.4 3c-.9.4-1.8.7-2.8.8 1-.6 1.8-1.6 2.2-2.7-.9.6-2 1-3.1 1.2-.9-.9-2.2-1.5-3.6-1.5-2.7 0-4.9 2.2-4.9 4.9 0 .4 0 .8.1 1.1-4.1-.3-7.7-2.1-10.1-5.1-.4.7-.7 1.5-.7 2.4 0 1.7.9 3.2 2.2 4.1-.8-.1-1.6-.3-2.2-.6v.1c0 2.4 1.7 4.4 4 4.8-.4.1-.9.2-1.3.2-.3 0-.6 0-.9-.1.6 1.9 2.5 3.4 4.6 3.4-1.7 1.3-3.8 2.3-6.1 2.3-.4 0-.8 0-1.2-.1 2.2 1.4 4.8 2 7.6 2 9 0 14-7.5 14-14v-.6c.7-.7 1.6-1.6 2.2-2.6"/></symbol><symbol viewBox="0 0 32 32" aria-labelledby="btstrib-social-twitter-circle-desc btstrib-social-twitter-circle-title" id="strib-social-twitter-circle" xmlns="http://www.w3.org/2000/svg"><title id="btstrib-social-twitter-circle-title">Twitter circle</title><desc id="btstrib-social-twitter-circle-desc">Twitter logo in a circle</desc><path d="M10.1 2C12 1.2 13.9.8 15.9.8s3.9.4 5.8 1.2c1.8.8 3.4 1.9 4.7 3.2 1.3 1.4 2.4 3 3.2 4.9.8 1.9 1.2 3.9 1.2 5.9 0 2.1-.4 4-1.2 5.9-.8 1.9-1.8 3.5-3.2 4.9-1.3 1.4-2.9 2.4-4.7 3.2-1.8.8-3.7 1.2-5.8 1.2-2 0-3.9-.4-5.8-1.2-1.8-.8-3.4-1.9-4.7-3.2-1.3-1.4-2.4-3-3.2-4.9-.7-1.9-1.1-3.8-1.1-5.9s.4-4 1.2-5.9 1.8-3.5 3.2-4.9C6.8 3.9 8.3 2.8 10.1 2zm14.8 10.7c.8-.5 1.5-1.3 2.1-2.2-.8.3-1.6.6-2.4.7.9-.5 1.5-1.3 1.8-2.4-.8.5-1.7.8-2.6 1.1-.9-1.1-1.9-1.5-3.1-1.5s-2.2.4-3 1.3c-.8.8-1.2 1.9-1.2 3.1 0 .4 0 .7.1 1-1.7-.1-3.3-.5-4.9-1.3-1.5-.8-2.8-1.9-3.9-3.2-.4.7-.5 1.4-.5 2.2 0 .7.2 1.4.5 2.1.3.6.8 1.1 1.4 1.5-.7 0-1.3-.2-1.9-.5 0 1 .3 2 1 2.7.6.8 1.4 1.3 2.4 1.5-.3.1-.7.1-1.1.1-.3 0-.5 0-.8-.1.3.9.7 1.6 1.5 2.1.7.5 1.5.8 2.5.8-1.6 1.3-3.4 2-5.2 2-.1 0-.5 0-1-.1 1.9 1.3 4 1.9 6.4 1.9 1.5 0 2.9-.2 4.2-.7s2.4-1.1 3.4-2c.9-.8 1.7-1.8 2.4-2.8.7-1.1 1.2-2.2 1.5-3.3.3-1.2.5-2.3.5-3.5l-.1-.5z"/></symbol><symbol viewBox="0 0 56 56" aria-labelledby="bustrib-social-youtube-desc bustrib-social-youtube-title" id="strib-social-youtube" xmlns="http://www.w3.org/2000/svg"><title id="bustrib-social-youtube-title">YouTube</title><desc id="bustrib-social-youtube-desc">Simple YouTube logo</desc><path d="M43.6 26.9H12.4c-4.9 0-9 4-9 9V43c0 4.9 4 9 9 9h31.1c4.9 0 9-4 9-9v-7.2c0-4.9-4-8.9-8.9-8.9zM19 32.5h-2.9v14.4h-2.8V32.5h-2.9V30H19v2.5zm8.2 14.3h-2.5v-1.4c-.5.5-.9.9-1.4 1.1-.5.3-1 .4-1.4.4-.6 0-1-.2-1.3-.6-.3-.4-.4-.9-.4-1.7V34.4h2.5V44c0 .3.1.5.2.6.1.1.3.2.5.2s.4-.1.7-.3c.3-.2.5-.4.8-.7v-9.4h2.5v12.4zm9-2.5c0 .9-.2 1.6-.6 2-.4.5-1 .7-1.7.7-.5 0-.9-.1-1.3-.3-.4-.2-.7-.5-1.1-.8v1H29V30h2.5v5.4c.3-.4.7-.7 1.1-.9.4-.2.8-.3 1.1-.3.8 0 1.4.3 1.8.8.4.5.6 1.3.6 2.3l.1 7zm8.6-3.4H40v2.3c0 .7.1 1.1.2 1.4.2.3.4.4.8.4s.7-.1.9-.3c.2-.2.2-.7.2-1.4v-.6h2.6v.6c0 1.3-.3 2.2-.9 2.9-.6.6-1.5 1-2.8 1-1.1 0-2-.3-2.6-1-.6-.7-1-1.6-1-2.8v-5.6c0-1.1.4-2 1.1-2.6.7-.7 1.6-1 2.7-1s2 .3 2.6.9c.6.6.9 1.5.9 2.7v3.1z"/><path d="M41.1 36.3c-.4 0-.7.1-.8.3-.2.2-.3.6-.3 1.1V39h2.2v-1.3c0-.5-.1-.9-.3-1.1-.1-.2-.4-.3-.8-.3zm-8.5 0c-.2 0-.4 0-.5.1-.2.1-.3.2-.5.4v7.7c.2.2.4.4.6.4.2.1.4.1.6.1.3 0 .5-.1.7-.3.1-.2.2-.5.2-.9v-6.4c0-.4-.1-.7-.3-1-.2 0-.5-.1-.8-.1zM16.5 22.6h3.2v-7.7L23.3 4h-3.2l-1.9 7.4H18L15.9 4h-3.1l3.7 11.2zm11.1.3c1.3 0 2.3-.3 3-1 .7-.7 1.1-1.6 1.1-2.8V12c0-1-.4-1.9-1.1-2.6-.7-.7-1.7-1-2.8-1-1.3 0-2.3.3-3 .9-.8.6-1.1 1.5-1.1 2.5v7.1c0 1.2.4 2.1 1.1 2.8.6.9 1.6 1.2 2.8 1.2zm-1.2-11c0-.3.1-.5.3-.7.2-.2.5-.3.8-.3.4 0 .7.1.9.3.2.2.3.4.3.7v7.5c0 .4-.1.7-.3.9-.2.2-.5.3-.9.3s-.7-.1-.9-.3c-.2-.2-.3-.5-.3-.9l.1-7.5zm9.5 10.9c.5 0 1.1-.1 1.6-.4.6-.3 1.1-.7 1.6-1.3v1.5h2.8V8.9h-2.8v10.4c-.3.3-.5.5-.9.7-.3.2-.6.3-.8.3-.3 0-.5-.1-.6-.2-.1-.1-.2-.4-.2-.7V8.9h-2.8v11.4c0 .8.2 1.4.5 1.8.4.4.9.7 1.6.7z"/></symbol><symbol viewBox="0 0 56.5 56.5" aria-labelledby="bvstrib-social-youtube-circle-desc bvstrib-social-youtube-circle-title" id="strib-social-youtube-circle" xmlns="http://www.w3.org/2000/svg"><title id="bvstrib-social-youtube-circle-title">YouTube circle</title><desc id="bvstrib-social-youtube-circle-desc">YouTube logo in a circle</desc><path d="M17.7 30.3h1.8v8.9h1.7v-8.9H23v-1.5h-5.3zM28.3 23c.2 0 .4-.1.6-.2.1-.1.2-.3.2-.5v-4.6c0-.2-.1-.3-.2-.4-.1-.1-.3-.2-.6-.2-.2 0-.4.1-.5.2-.1.1-.2.3-.2.4v4.6c0 .2.1.4.2.5.1.1.3.2.5.2zm3.8 8.4c-.2 0-.5.1-.7.2-.2.1-.4.3-.7.5v-3.3h-1.5v10.4h1.5v-.6c.2.2.4.4.7.5.2.1.5.2.8.2.5 0 .8-.1 1-.4.2-.3.4-.7.4-1.2v-4.2c0-.6-.1-1.1-.4-1.4-.2-.5-.6-.7-1.1-.7zm-.1 6c0 .2 0 .4-.1.5-.1.1-.2.2-.4.2-.1 0-.2 0-.4-.1-.1-.1-.2-.1-.4-.3V33c.1-.1.2-.2.3-.2.1-.1.2-.1.3-.1.2 0 .4.1.5.2.2.1.2.3.2.5v4zm-5.5-.1c-.1.2-.3.3-.5.4-.2.1-.3.2-.4.2-.1 0-.2 0-.3-.1-.1-.1-.1-.2-.1-.4v-5.9h-1.5v6.4c0 .5.1.8.3 1 .2.2.4.3.8.3.3 0 .6-.1.9-.2.3-.2.6-.4.9-.7v.8h1.5v-7.6h-1.5l-.1 5.8z"/><path d="M28.3 3.6c-13.6 0-24.6 11-24.6 24.6 0 13.6 11 24.6 24.6 24.6s24.6-11 24.6-24.6c0-13.5-11.1-24.6-24.6-24.6zm3.9 12.2h1.7v6.5c0 .2 0 .3.1.4.1.1.2.1.3.1.1 0 .3-.1.5-.2s.4-.3.5-.5v-6.4H37v8.4h-1.7v-.9c-.3.3-.6.6-1 .8-.3.2-.7.3-1 .3-.4 0-.7-.1-.9-.4-.2-.2-.3-.6-.3-1.1.1 0 .1-7 .1-7zm-6.4 1.9c0-.6.2-1.2.7-1.6.5-.4 1.1-.6 1.9-.6.7 0 1.3.2 1.8.6.5.4.7.9.7 1.6v4.4c0 .7-.2 1.3-.7 1.7-.4.4-1.1.6-1.8.6-.8 0-1.4-.2-1.8-.6-.5-.4-.7-1-.7-1.7l-.1-4.4zm-4.6-4.9l1.3 4.6h.1l1.2-4.6h2l-2.3 6.7v4.7h-1.9v-4.5l-2.3-6.9h1.9zm22.5 24c0 3-2.5 5.5-5.5 5.5H19c-3 0-5.5-2.5-5.5-5.5v-4.4c0-3 2.5-5.5 5.5-5.5h19.2c3 0 5.5 2.5 5.5 5.5v4.4z"/><path d="M36.7 31.3c-.7 0-1.2.2-1.7.6-.4.4-.7 1-.7 1.6V37c0 .7.2 1.3.6 1.7.4.4.9.6 1.6.6.8 0 1.3-.2 1.7-.6.4-.4.6-1 .6-1.8v-.4h-1.6v.5c0 .5-.1.7-.2.9s-.3.2-.5.2-.4-.1-.5-.2v-2.3h2.9v-2c0-.7-.2-1.3-.6-1.7-.3-.4-.9-.6-1.6-.6zm.6 3.1H36v-.8c0-.3 0-.6.2-.7.1-.1.3-.2.5-.2s.4.1.5.2c.1.1.2.4.2.7l-.1.8z"/></symbol><symbol viewBox="0 0 160 25" aria-labelledby="bwstrib-strib-logo-desc bwstrib-strib-logo-title" id="strib-strib-logo" xmlns="http://www.w3.org/2000/svg"><title id="bwstrib-strib-logo-title">Star Tribune logo</title><desc id="bwstrib-strib-logo-desc">Two-tone Star Tribune star and Star Tribune wordmark</desc><path d="M13.9.9l-2.8 9.2H.9l8.4 5 7.3-5.1L13.9.9z" fill="var(--strib-strib-logo-top, #61bf1a)"/><path d="M16.8 10.1l-10.9 14 8-5.8 8 5.8-3.5-8.9 8.4-5.1h-10z" fill="var(--strib-strib-logo-bottom, #00824a)"/><path d="M63.5 20c-.6.8-1.6 1.6-3 1.6-1.1 0-1.7-.4-1.7-1.4 0-1.2 1.2-2 3.2-2.3.4-.1.9-.1 1.4-.2l.1 2.3zm4.1 1.5v-5.9c0-2.8-1.3-4.6-5.9-4.6-4 0-6.2 1.3-6.9 3.9l3.9.3c.3-1.1 1-1.6 2.6-1.6 1.5 0 2.1.6 2.2 1.6v.6c-.6 0-1.1.1-1.6.1-4.7.4-7.4 1.9-7.4 4.7 0 2.2 1.7 3.5 4.2 3.5 2.4 0 3.8-.7 5-1.8 0 .7.1 1.4.2 1.6h4c-.2-.4-.3-1.7-.3-2.4M45 11.1h1.6l.3-3.9h3.8v3.9h2.8v2.7h-2.8v5.5c0 1 .4 1.6 1.4 1.7.5.1 1 .1 1.6 0v3c-.7.1-1.6.2-2.5.2-3.1 0-4.7-1.4-4.7-4.1v-6.2H45v-2.8zm24.4 0h4.1v2.8c.6-1.5 2.2-2.9 4.2-2.9.4 0 .8 0 1 .1v3.2c-.3-.1-.9-.1-1.2-.1-1.6 0-3 .8-3.7 2.1v7.5h-4.3l-.1-12.7zm-40.1 8.4l3.6-1.3c.7 1.7 1.9 2.7 4.4 2.7 1.8 0 3-.7 3-1.9 0-1.6-2-2-4.2-2.5-2.8-.7-6.1-1.6-6.1-5.5 0-3 2.7-5.1 7.1-5.1 3.9 0 6.1 1.6 7.2 4.3l-3.8 1.1c-.5-1.5-1.7-2.1-3.4-2.1-1.5 0-2.5.6-2.5 1.6 0 1.6 1.8 1.8 4.3 2.4 3 .7 5.9 1.8 5.9 5.4 0 3.1-2.4 5.4-7.3 5.4-5 .1-7.2-1.9-8.2-4.5"/><path d="M75.7 6.2v3.3h4.7v14.4h4.3V9.5h4.7V6.2H75.7z"/><path d="M86.5 11.1h4v2.8c.6-1.5 2.2-2.9 4.2-2.9.4 0 .8 0 1 .1v3.2c-.3-.1-.9-.1-1.2-.1-1.6 0-3 .8-3.7 2.1v7.5h-4.3V11.1zM110 22c-1.4 0-2.3-1.2-2.3-3v-3.4c.3-1.2 1.1-1.9 2.3-1.9 1.6 0 2.2 1.3 2.2 4 0 2.8-.6 4.3-2.2 4.3m1.8-11.1c-2.1 0-3.3 1.1-4.1 2.2V6.2h-4.2v17.7h2.6l.6-1.9c1 1.3 2.3 2.1 4.5 2.1 3.2 0 5.4-2.2 5.4-6.6 0-4.3-1.7-6.6-4.8-6.6m6 9.1v-8.9h4.2v8.7c0 1.2.5 1.7 1.7 1.7 1 0 1.7-.6 2.2-1.5v-8.9h4.2v12.8H126V22c-.9 1.4-2.4 2-4.3 2-2.2.1-3.9-1.1-3.9-4m14.1-8.9h4.1v2.1c.8-1.1 2.1-2.3 4.4-2.3 2.8 0 3.9 1.6 3.9 4v9H140V15c0-.8-.4-1.4-1.5-1.4s-1.9.7-2.4 1.5v8.8h-4.2V11.1zm22.9 5.1c-.1-1.7-.9-2.8-2.5-2.8-1.4 0-2.4 1-2.6 2.8h5.1zm-9.5 1.5c0-4.1 3.2-6.8 7-6.8 4.2 0 6.7 2.6 6.8 6.6v.8h-9.3c.1 2.3 1.3 3.3 3 3.3 1.4 0 2.2-.6 2.7-1.9l3.5.4c-.9 2.4-3.1 4-6.6 4-4.2 0-7.1-2.5-7.1-6.4M97.5 6.2h4.2v3.3h-4.2V6.2zm0 4.9h4.3v12.8h-4.3V11.1z"/></symbol><symbol viewBox="0 0 68 61" aria-labelledby="bxstrib-strib-star-desc bxstrib-strib-star-title" id="strib-strib-star" xmlns="http://www.w3.org/2000/svg"><title id="bxstrib-strib-star-title">Star Tribune star</title><desc id="bxstrib-strib-star-desc">Two-tone Star Tribune star logo</desc><path fill="var(--strib-strib-star-top, #61bf1a)" d="M34 1.5l-7 22.9H1.7L22.5 37l18.4-12.7L34 1.5z"/><path fill="var(--strib-strib-star-bottom, #00824a)" d="M41.3 24.4L14.2 59.5 34 44.9l19.9 14.6-8.6-22.4 21-12.7h-25z"/></symbol><symbol viewBox="0 0 233 160" aria-labelledby="bystrib-text-size-desc bystrib-text-size-title" id="strib-text-size" xmlns="http://www.w3.org/2000/svg"><title id="bystrib-text-size-title">Text size</title><desc id="bystrib-text-size-desc">Two capital letters to show difference in text size</desc><path d="M95.2 110.2l-3.1 8.2-7.9 20.6m-.1 0l-2.7-7.2H35.5L26.4 155H4.1L47.5 42.6h21.7l26.1 67.8M58.4 72.2l-15.1 38.6h30.1l-15-38.6zm84-67.2h29L229 154.8h-29.6l-11.7-30.9h-61.1l-12.2 30.9H84.6L142.4 5zM157 44.7l-20.1 51.4H177l-20-51.4z"/></symbol></svg>