<?xml version="1.0" encoding="utf-8"?><svg xmlns="http://www.w3.org/2000/svg" xmlns:xlink="http://www.w3.org/1999/xlink"><symbol id="strib-arrow-right" viewBox="0 0 5 9" aria-labelledby="aastrib-arrow-right-desc aastrib-arrow-right-title" xmlns="http://www.w3.org/2000/svg"><title id="aastrib-arrow-right-title">Right arrow</title><desc id="aastrib-arrow-right-desc">Triangle arrow pointed right</desc><style/><path d="M.4 8.7l4.2-4.2L.4.3z"/></symbol><symbol viewBox="0 0 20 21" aria-labelledby="abstrib-arrow-value-down-desc abstrib-arrow-value-down-title" id="strib-arrow-value-down" xmlns="http://www.w3.org/2000/svg"><title id="abstrib-arrow-value-down-title">Value arrow up</title><desc id="abstrib-arrow-value-down-desc">Arrow pointed up for data values</desc><path d="M18.8 11.2c.1-.1.1-.3 0-.4-.1-.1-.2-.2-.4-.2h-5V1.7c0-.2-.2-.4-.4-.4H6.9c-.2 0-.4.2-.4.4v8.9h-5c-.1 0-.3.1-.4.2 0 .1 0 .3.1.4l8.5 8.5c.1.1.2.1.3.1s.2 0 .3-.1c0-.1 8.5-8.6 8.5-8.5z"/></symbol><symbol viewBox="0 0 20 21" aria-labelledby="acstrib-arrow-value-up-desc acstrib-arrow-value-up-title" id="strib-arrow-value-up" xmlns="http://www.w3.org/2000/svg"><title id="acstrib-arrow-value-up-title">Value arrow down</title><desc id="acstrib-arrow-value-up-desc">Arrow pointed down for data values</desc><path d="M1.2 9.9c-.1.1-.1.3-.1.4.1.1.2.2.4.2h5v8.9c0 .2.2.4.4.4h6.2c.2 0 .4-.2.4-.4v-8.8h5c.1 0 .3-.1.4-.2 0-.1 0-.3-.1-.4l-8.5-8.6c-.1 0-.2-.1-.3-.1s-.2.1-.3.1L1.2 9.9z"/></symbol><symbol viewBox="0 0 115 88" aria-labelledby="adstrib-camera-desc adstrib-camera-title" id="strib-camera" xmlns="http://www.w3.org/2000/svg"><title id="adstrib-camera-title">Camera</title><desc id="adstrib-camera-desc">Simple box and circle camera icon</desc><ellipse class="adst0" cx="57.5" cy="48.7" rx="18.3" ry="18.4"/><path class="adst0" d="M103.3 11.8H71.2V7.2c0-2.5-2.1-4.6-4.6-4.6H48.4c-2.5 0-4.6 2.1-4.6 4.6v4.6H11.7c-5.1 0-9.2 4.1-9.2 9.2v55.3c0 5.1 4.1 9.2 9.2 9.2h91.7c5.1 0 9.2-4.1 9.2-9.2V21.1c0-5.1-4.2-9.3-9.3-9.3zM57.5 76.3C42.3 76.3 30 63.9 30 48.7S42.3 21 57.5 21 85 33.3 85 48.7 72.8 76.3 57.5 76.3z"/></symbol><symbol viewBox="0 0 73 73" aria-labelledby="aestrib-close-desc aestrib-close-title" id="strib-close" xmlns="http://www.w3.org/2000/svg"><title id="aestrib-close-title">Close</title><desc id="aestrib-close-desc">The X symbol used to close popups</desc><path d="M44.8 36.5l24.9-24.9c2.3-2.3 2.3-6 0-8.3s-6-2.3-8.3 0L36.5 28.2l-24.9-25C9.3.9 5.6.9 3.3 3.2s-2.3 6 0 8.3l24.9 24.9-24.9 25c-2.3 2.3-2.3 6 0 8.3s6 2.3 8.3 0l24.9-24.9 24.9 24.9c2.3 2.3 6 2.3 8.3 0s2.3-6 0-8.3L44.8 36.5z"/></symbol><symbol viewBox="0 0 38 35" aria-labelledby="afstrib-comment-bubble-desc afstrib-comment-bubble-title" id="strib-comment-bubble" xmlns="http://www.w3.org/2000/svg"><title id="afstrib-comment-bubble-title">Comment bubble</title><desc id="afstrib-comment-bubble-desc">Comment or talk symbol</desc><path d="M37 15.2c0-8-8-14.4-18-14.4S1 7.3 1 15.2c0 4.8 2.9 9 7.4 11.7-.5 3.7-2.7 5.9-2.7 5.9-.2.2-.2.5-.2.8.1.3.4.5.7.5 4.3 0 7.8-2.8 9.7-4.6 1 .1 2 .2 3 .2 10 0 18.1-6.5 18.1-14.5"/></symbol><symbol viewBox="0 0 46 26" aria-labelledby="agstrib-comment-bubble-long-desc agstrib-comment-bubble-long-title" id="strib-comment-bubble-long" xmlns="http://www.w3.org/2000/svg"><title id="agstrib-comment-bubble-long-title">Comment bubble long</title><desc id="agstrib-comment-bubble-long-desc">Comment or talk bubble elongated to allow for small amounts of text</desc><path d="M2.9 24.9c.1.2.3.3.5.3 2.1 0 4.5-2.2 5.7-3.4H37s8 0 8-8v-5s0-8-8-8H9s-8 0-8 8v5s0 4.6 3.5 6.8"/></symbol><symbol viewBox="0 0 90 90" aria-labelledby="ahstrib-data-drop-desc ahstrib-data-drop-title" id="strib-data-drop" xmlns="http://www.w3.org/2000/svg"><title id="ahstrib-data-drop-title">Data Drop series</title><desc id="ahstrib-data-drop-desc">Star Tribune Data Drop series symbol, a set of waves simlar to a chart</desc><path fill="var(--strib-data-drop-background, #000000)" d="M0 0h90v90H0z"/><path fill="var(--strib-data-drop-right, #FCB947)" d="M58.1 21.7c10.2 16 16.7 41.4 31.9 44.9v-7.7c-8.5-16.7-15.1-37.2-31.4-37.2h-1.2.7z"/><path fill="var(--strib-data-drop-middle, #ED257A)" d="M90 66.6c-15.2-3.5-21.7-28.9-31.9-44.9C30.8 22 31 80 3.5 80H0v10h90V66.6z"/><path fill="var(--strib-data-drop-left, #6AAEA1)" d="M38.7 8.7C17.6 8.7 14.2 43.2 0 59.1V80h3.5C31 80 30.8 22 58.1 21.7c-4.8-7.6-10.9-13-19.4-13z"/><path fill="var(--strib-data-drop-bottom, #7A3170)" d="M80 90c-7.9-16.3-14.6-35.3-30.2-35.3-15.5 0-22.2 19-30.2 35.3H80z"/></symbol><symbol viewBox="0 0 27.3 21.3" aria-labelledby="aistrib-email-desc aistrib-email-title" id="strib-email" xmlns="http://www.w3.org/2000/svg"><title id="aistrib-email-title">Email</title><desc id="aistrib-email-desc">Small letter to symbolize email</desc><path d="M.9 2.7c0-.9.7-1.6 1.6-1.6h22.3c.9 0 1.6.7 1.6 1.6l-12.8 9.6L.9 2.7zm25.5 2.8v13.1c0 .9-.7 1.6-1.6 1.6H2.5c-.9 0-1.6-.7-1.6-1.6V5.5l12.8 9.6 12.7-9.6z"/></symbol><symbol viewBox="0 0 97 70" aria-labelledby="ajstrib-hamburger-desc ajstrib-hamburger-title" id="strib-hamburger" xmlns="http://www.w3.org/2000/svg"><title id="ajstrib-hamburger-title">Menu hamburger</title><desc id="ajstrib-hamburger-desc">Three lines to note a menu</desc><path d="M89.6 29.1H7.4c-3.3 0-5.9 2.7-5.9 5.9s2.6 5.9 5.9 5.9h82.2c3.2 0 5.9-2.6 5.9-5.9s-2.6-5.9-5.9-5.9zm0 27.4H7.4c-3.2 0-5.9 2.6-5.9 5.9 0 3.2 2.6 5.9 5.9 5.9h82.2c3.2 0 5.9-2.6 5.9-5.9 0-3.2-2.6-5.9-5.9-5.9zm-82.2-43h82.2c3.2 0 5.9-2.6 5.9-5.9s-2.6-5.9-5.9-5.9H7.4c-3.2 0-5.9 2.6-5.9 5.9 0 3.2 2.6 5.9 5.9 5.9z"/></symbol><symbol viewBox="0 0 11.8 11.8" aria-labelledby="akstrib-home-desc akstrib-home-title" id="strib-home" xmlns="http://www.w3.org/2000/svg"><title id="akstrib-home-title">House</title><desc id="akstrib-home-desc">Simple house outline</desc><path d="M11.4 6c0-.1 0-.2-.1-.3L6.1.5C6 .4 5.9.4 5.8.5L.5 5.7c-.1.1-.1.2-.1.3 0 .1.1.1.2.1h1.1v5c0 .1.1.2.2.2h2.3c.1 0 .2-.1.2-.2V7.2h2.7v3.9c0 .1.1.2.2.2h2.3c.1 0 .2-.1.2-.2v-5h1.1c.3 0 .4-.1.5-.1"/></symbol><symbol viewBox="0 0 22 22" aria-labelledby="alstrib-like-desc alstrib-like-title" id="strib-like" xmlns="http://www.w3.org/2000/svg"><title id="alstrib-like-title">Like</title><desc id="alstrib-like-desc">Thumb-up hand</desc><path class="alst0" d="M20 12c.7-.3 1-.9 1-1.7 0-.5-.2-1-.5-1.3-.4-.4-.8-.5-1.3-.5h-4.4c-.2 0-.3-.1-.3-.2-.1-.1-.1-.3 0-.4 0 0 .1-.2.2-.5.1-.4.3-.8.4-1.4s.2-1.1.2-1.6c0-.9-.2-1.7-.7-2.4-.5-.7-1-1-1.5-1-.3 0-.6.1-.9.4-.2.2-.4.5-.4.9 0 1.3-.4 2.5-1.1 3.6-.8 1-2.3 2.3-4.7 3.9v8.7l4.3 2c.8.3 1.5.5 2.4.5h4.4c.5 0 1-.2 1.3-.5.4-.4.5-.8.5-1.3 0-.3-.1-.5-.2-.7.4-.1.8-.4 1-.8.3-.4.4-.8.4-1.2 0-.4-.1-.7-.3-1 .7-.3 1.1-.9 1.1-1.7.1-.8-.2-1.4-.9-1.8M4.4 8.9c0-.1 0-.2-.1-.3-.1-.1-.2-.1-.4-.1H1.4c-.1 0-.2 0-.3.1 0 .1-.1.2-.1.3v11.7c0 .1 0 .2.1.3.1.1.2.1.3.1h2.5c.1 0 .2 0 .3-.1s.2-.2.2-.3V8.9z"/></symbol><symbol viewBox="0 0 48 70" aria-labelledby="amstrib-map-pin-desc amstrib-map-pin-title" id="strib-map-pin" xmlns="http://www.w3.org/2000/svg"><title id="amstrib-map-pin-title">Map pin</title><desc id="amstrib-map-pin-desc">Simple pointed map pin</desc><path d="M24 1.7C11.3 1.7 1.1 11.9 1.1 24.6S24 68.3 24 68.3s22.9-31 22.9-43.8C46.9 11.9 36.7 1.7 24 1.7zM24 35c-5.8 0-10.4-4.6-10.4-10.4S18.2 14.2 24 14.2s10.4 4.6 10.4 10.4S29.9 35 24 35z"/></symbol><symbol viewBox="0 0 48 48" aria-labelledby="anstrib-media-play-desc anstrib-media-play-title" id="strib-media-play" xmlns="http://www.w3.org/2000/svg"><title id="anstrib-media-play-title">Play</title><desc id="anstrib-media-play-desc">A triangle in a circle used to play media</desc><circle cx="24" cy="24" r="22.5"/><path d="M36.3 24.2l-19.1-11v22l19.1-11z" fill="var(--strib-icon-background, #FFFFFF)"/></symbol><symbol viewBox="0 0 22 16" aria-labelledby="aostrib-media-video-desc aostrib-media-video-title" id="strib-media-video" xmlns="http://www.w3.org/2000/svg"><title id="aostrib-media-video-title">Video</title><desc id="aostrib-media-video-desc">A small camera icon</desc><path d="M21 1.6c0-.2-.1-.4-.3-.4-.2-.1-.3 0-.5.1L16 6V2.5c0-.8-.6-1.4-1.2-1.4H2.3c-.7.1-1.3.7-1.3 1.4v11c0 .8.6 1.4 1.2 1.4h12.5c.7 0 1.2-.6 1.2-1.4V10l4.3 4.7c.1.1.2.1.3.1h.2c.2-.1.3-.3.3-.4V1.6z"/></symbol><symbol viewBox="0 0 62 62" aria-labelledby="apstrib-modal-desc apstrib-modal-title" id="strib-modal" xmlns="http://www.w3.org/2000/svg"><title id="apstrib-modal-title">Modal</title><desc id="apstrib-modal-desc">A two-way arrow in a box to show that a modal or popup will appear</desc><path d="M1 1h60v60H1V1z"/><path d="M5 5h52v52H5V5z" fill="var(--strib-icon-background, #FFFFFF)"/><path d="M27 13h22v4H27v-4z"/><path d="M45 13h4v22h-4V13zM13 45h22v4H13v-4z"/><path d="M13 27h4v22h-4V27z"/></symbol><symbol viewBox="0 0 47 83" aria-labelledby="aqstrib-nav-back-desc aqstrib-nav-back-title" id="strib-nav-back" xmlns="http://www.w3.org/2000/svg"><title id="aqstrib-nav-back-title">Back navigation</title><desc id="aqstrib-nav-back-desc">A left chevron arrow used for navigation</desc><path d="M44.1 3.1c-1.6-1.6-4.1-1.6-5.7 0L2.9 38.7c-1.6 1.6-1.6 4.1 0 5.7l35.6 35.5c.8.8 1.8 1.2 2.8 1.2 1 0 2-.4 2.8-1.2 1.6-1.6 1.6-4.1 0-5.7L11.4 41.5 44.1 8.8c1.6-1.6 1.6-4.1 0-5.7z"/></symbol><symbol viewBox="0 0 47 83" aria-labelledby="arstrib-nav-forward-desc arstrib-nav-forward-title" id="strib-nav-forward" xmlns="http://www.w3.org/2000/svg"><title id="arstrib-nav-forward-title">Forward navigation</title><desc id="arstrib-nav-forward-desc">A right chevron arrow used for navigation</desc><path d="M2.9 79.9c1.6 1.6 4.1 1.6 5.7 0l35.5-35.6c1.6-1.6 1.6-4.1 0-5.7L8.5 3.1c-.8-.8-1.8-1.2-2.8-1.2s-2 .4-2.8 1.2c-1.6 1.6-1.6 4.1 0 5.7l32.7 32.7L2.9 74.2c-1.6 1.6-1.6 4.1 0 5.7z"/></symbol><symbol viewBox="0 0 12 12" aria-labelledby="asstrib-person-desc asstrib-person-title" id="strib-person" xmlns="http://www.w3.org/2000/svg"><title id="asstrib-person-title">Person</title><desc id="asstrib-person-desc">Outline of head and shoulders of a person</desc><path d="M11.5 11c0-2.3-4.1-1.8-4.1-3.7 0 0 1.4-1.4 1.4-3.9C8.8 1.9 7.6.6 6 .6S3.2 1.9 3.2 3.4c0 2.5 1.4 3.9 1.4 3.9C4.6 9.1.5 8.7.5 11v.5c0 .1.1.2.2.2h10.5c.1 0 .2-.1.2-.2V11z"/></symbol><symbol viewBox="0 0 8 12" aria-labelledby="atstrib-phone-app-desc atstrib-phone-app-title" id="strib-phone-app" xmlns="http://www.w3.org/2000/svg"><title id="atstrib-phone-app-title">Phone smart</title><desc id="atstrib-phone-app-desc">A modern, smart phone</desc><path d="M6.3 8.8H1.8V2.3h4.6v6.5zm-2.3 2c-.4 0-.7-.3-.7-.7s.4-.7.7-.7.7.3.7.7c.1.4-.3.7-.7.7M6.7.5H1.3C.9.5.6.8.6 1.2v9.6c0 .4.3.7.7.7h5.5c.4 0 .7-.3.7-.7V1.2c0-.4-.3-.7-.8-.7"/></symbol><symbol viewBox="0 0 26 26" aria-labelledby="austrib-phone-landline-desc austrib-phone-landline-title" id="strib-phone-landline" xmlns="http://www.w3.org/2000/svg"><title id="austrib-phone-landline-title">Phone landline</title><desc id="austrib-phone-landline-desc">A simple land-line phone reciever</desc><path d="M24.9 3.7c0-.1-.1-.2-.2-.3L18.8 1c-.3-.1-.5 0-.6.3l-3.3 6.6c-.1.2-.1.4.1.6l3.2 3.2c-1.7 2.7-3.9 4.9-6.5 6.5L8.5 15c-.2-.2-.4-.2-.6-.1l-6.6 3.3c-.3.1-.3.3-.3.6l2.4 5.9.3.3h.4c5.4-.7 10.1-3 14-6.9s6.2-8.6 6.9-14v-.2c-.1 0-.1-.1-.1-.2"/></symbol><symbol viewBox="0 0 35 31" aria-labelledby="avstrib-print-desc avstrib-print-title" id="strib-print" xmlns="http://www.w3.org/2000/svg"><title id="avstrib-print-title">Print</title><desc id="avstrib-print-desc">A simple outline of a home printer</desc><path d="M9.3 15.5h16.4v13.3c0 .3-.3.6-.7.6H10c-.4 0-.7-.3-.7-.6V15.5zm18.4-7c-1.1 0-2-.8-2-1.7s.9-1.7 2-1.7 2 .8 2 1.7c0 .9-.8 1.7-2 1.7m4.1-6.9H3.2c-1.1 0-2 .8-2 1.7v13.9c0 1 .9 1.7 2 1.7h3.4v-5.8h21.8V19h3.4c1.1 0 2-.8 2-1.7v-14c.1-.9-.8-1.7-2-1.7"/></symbol><symbol viewBox="0 0 22 17" id="strib-reply" xmlns="http://www.w3.org/2000/svg"><path d="M20.6 14.8c.3-.1.4-.2.4-.4-.1-2.9-1-5.1-2.8-6.7S14.1 5.2 11 5.2V1.4c0-.2-.1-.3-.2-.4-.2-.1-.3-.1-.4 0L1.1 8.2c-.1.1-.1.2-.1.3s0 .2.1.3l9.2 7.1c.1.1.1.1.3.1h.2c.2-.1.2-.2.2-.4v-3.7c2.2 0 4.1.2 5.7.7 1.6.4 2.8 1.1 3.5 2 .1.1.2.2.4.2"/></symbol><symbol viewBox="0 0 25 22" aria-labelledby="axstrib-reprint-title" id="strib-reprint" xmlns="http://www.w3.org/2000/svg"><title id="axstrib-reprint-title">Reprint</title><path d="M12.5 5.3H21v4.2h-8.5V5.3zM5.9 1.1c-.1 0-.3 0-.3.1-.1.1-.2.2-.2.4v16c0 .3-.1.5-.3.7-.2.2-.4.3-.7.3-.3 0-.5-.1-.7-.3-.1-.2-.2-.4-.2-.7V3.9H1.7c-.2 0-.3.1-.4.2-.1 0-.1.2-.1.3v13.7c0 .8.3 1.5.8 2 .6.6 1.2.8 2 .8h17c.8 0 1.5-.3 2-.8.6-.5.8-1.2.8-2V1.6c0-.1 0-.3-.1-.3-.1-.1-.2-.1-.3-.1L5.9 1.1z"/></symbol><symbol viewBox="0 0 12.8 12.8" aria-labelledby="aystrib-search-desc aystrib-search-title" id="strib-search" xmlns="http://www.w3.org/2000/svg"><title id="aystrib-search-title">Search</title><desc id="aystrib-search-desc">Magnifying glass outline</desc><path d="M7.9 7.9c-1.6 0-3-1.3-3-3s1.3-3 3-3 3 1.3 3 3-1.4 3-3 3m0-7.5c-2.5 0-4.4 2-4.4 4.5 0 .9.2 1.7.7 2.4L.8 10.7c-.4.4-.4 1 0 1.4.2.2.4.3.7.3.2 0 .5-.1.7-.3l3.3-3.4c.7.4 1.5.7 2.4.7 2.5 0 4.4-2 4.4-4.5S10.4.4 7.9.4"/></symbol><symbol viewBox="0 0 23 43" aria-labelledby="azstrib-social-facebook-desc azstrib-social-facebook-title" id="strib-social-facebook" xmlns="http://www.w3.org/2000/svg"><title id="azstrib-social-facebook-title">Facebook</title><desc id="azstrib-social-facebook-desc">Simple Facebook logo</desc><path d="M6.5 41.5H14V23.2h7l.5-6.7H14v-5c0-2 .4-3.3 2.9-3.3h4.3l.3-6.3s-2.2-.4-5-.4c-7 0-10 4.5-10 9.2v5.8h-5v6.7h5v18.3z"/></symbol><symbol viewBox="0 0 32 32" aria-labelledby="bastrib-social-facebook-circle-desc bastrib-social-facebook-circle-title" id="strib-social-facebook-circle" xmlns="http://www.w3.org/2000/svg"><title id="bastrib-social-facebook-circle-title">Facebook circle</title><desc id="bastrib-social-facebook-circle-desc">Facebook logo in a circle</desc><path d="M10.2 2C12 1.2 13.9.8 15.9.8s3.9.4 5.8 1.2c1.8.8 3.4 1.9 4.7 3.2 1.3 1.4 2.4 3 3.2 4.9.8 1.9 1.2 3.8 1.2 5.9 0 2.3-.5 4.5-1.4 6.6-1 2.1-2.3 3.8-4 5.2-1.7 1.4-3.6 2.4-5.7 3V19.1H23l.5-3.8h-3.7V12c0-1.1.5-1.7 1.6-1.7h2.4V6.7c-.7-.2-1.6-.3-2.7-.3-1.7 0-3.1.5-4 1.4s-1.4 2.1-1.4 3.7v3.8h-3.4v3.8h3.4v12.1c-2 0-3.9-.5-5.6-1.3-1.8-.8-3.3-1.9-4.6-3.3-1.3-1.4-2.3-3-3.1-4.8S1.1 18 1.1 16c0-2.1.4-4 1.2-5.9.8-1.9 1.8-3.5 3.1-4.9C6.8 3.9 8.3 2.8 10.2 2z"/></symbol><symbol viewBox="0 0 32 32" aria-labelledby="bbstrib-social-google-circle-desc bbstrib-social-google-circle-title" id="strib-social-google-circle" xmlns="http://www.w3.org/2000/svg"><title id="bbstrib-social-google-circle-title">Google Plus circle</title><desc id="bbstrib-social-google-circle-desc">Google Plus logo in a circle</desc><path d="M7.8 21.3c0 .8.4 1.6 1.1 2.4H7.5c-1.3 0-2.6.2-3.8.7-1.6-2.5-2.4-5.3-2.4-8.3v-.8c.4 1.3 1.1 2.4 2.2 3.2s2.4 1.2 4 1.2h.7c-.3.6-.4 1.1-.4 1.6zM16 .9c2 0 3.9.4 5.7 1.2 1.8.8 3.4 1.9 4.7 3.2 1.3 1.4 2.4 3 3.1 4.8.8 1.9 1.2 3.8 1.2 5.9s-.4 4-1.2 5.9c-.8 1.9-1.8 3.5-3.1 4.8-1.3 1.4-2.9 2.4-4.7 3.2-1.8.8-3.7 1.2-5.7 1.2h-.6c.4-.9.6-1.7.6-2.5 0-1.3-.2-2.3-.7-3.1-.4-.8-1.2-1.6-2.3-2.4-.5-.4-1-.8-1.5-1.4-.5-.5-.7-1-.7-1.4 0-.5.1-.9.3-1.2.2-.3.6-.7 1.3-1.3.7-.6 1.3-1.3 1.7-2 .4-.8.6-1.6.6-2.5 0-1.1-.2-2.2-.7-3.1-.5-.9-1.1-1.6-2-1.9h2.7l2-1.2H8.3c-1 0-2 .2-3 .7-1 .4-1.8 1-2.6 1.8 1.2-2.6 3-4.7 5.4-6.3S13.1.9 16 .9zm-4.1 12.8c.2 1.5 0 2.7-.7 3.7-.6 1-1.5 1.5-2.6 1.5s-2.1-.6-3-1.6C4.7 16.2 4.2 15 4 13.5c-.2-1.5 0-2.7.7-3.7.6-1 1.5-1.5 2.5-1.4 1.1 0 2.1.6 3 1.6 1 1 1.5 2.2 1.7 3.7zm1.9 14.5c.1.3.1.6.1.9 0 .7-.1 1.4-.4 1.9-1.8-.3-3.5-.9-5-1.9-1.6-.9-2.9-2.1-4-3.6 1.2-.7 2.5-1.1 3.9-1.1.7 0 1.4.1 2.1.4.1.1.4.3.7.5s.6.4.7.5c.1.1.3.2.5.4s.4.3.5.5.2.3.4.4c.1.2.3.3.3.5.1.2.2.4.2.6zm9.6-15.9h3.7v-1.9h-3.7V6.6h-1.8v3.8h-3.7v1.9h3.7v3.8h1.8v-3.8z"/></symbol><symbol viewBox="0 0 32 32" aria-labelledby="bcstrib-social-instagram-circle-desc bcstrib-social-instagram-circle-title" id="strib-social-instagram-circle" xmlns="http://www.w3.org/2000/svg"><title id="bcstrib-social-instagram-circle-title">Instagram circle</title><desc id="bcstrib-social-instagram-circle-desc">Instagram logo in a circle</desc><path d="M10.2 2C12 1.2 13.9.8 16 .8c2 0 3.9.4 5.8 1.2 1.8.8 3.4 1.9 4.7 3.2 1.3 1.4 2.4 3 3.2 4.9.8 1.9 1.2 3.8 1.2 5.9s-.4 4-1.2 5.9c-.8 1.9-1.8 3.5-3.2 4.9-1.3 1.4-2.9 2.4-4.7 3.2-1.8.8-3.7 1.2-5.8 1.2-2 0-3.9-.4-5.8-1.2-1.8-.8-3.4-1.9-4.7-3.2-1.3-1.4-2.4-3-3.2-4.9S1.1 18.1 1.1 16s.4-4 1.2-5.9 1.8-3.5 3.2-4.9C6.8 3.9 8.3 2.8 10.2 2zm14.3 20.3V9.7c0-.7-.2-1.3-.7-1.8s-1.1-.7-1.7-.7H9.7c-.7-.1-1.2.2-1.7.7S7.3 9 7.3 9.7v12.7c0 .7.2 1.3.7 1.8s1.1.7 1.7.7h12.4c.7 0 1.3-.2 1.7-.7s.7-1.2.7-1.9zM20.8 16c0-.5 0-.9-.1-1.3h2v7.6c0 .2-.1.3-.2.4s-.3.2-.4.2H9.7c-.2 0-.3-.1-.4-.2-.1-.1-.2-.3-.2-.4v-7.6h2c-.1.4-.1.8-.1 1.3 0 1.4.5 2.6 1.4 3.6 1 1 2.1 1.5 3.5 1.5s2.5-.5 3.5-1.5 1.4-2.2 1.4-3.6zm-2.7 2.2c-.6.6-1.3.9-2.2.9-.8 0-1.6-.3-2.2-.9-.6-.6-.9-1.4-.9-2.2 0-.9.3-1.6.9-2.2.6-.6 1.3-.9 2.2-.9.8 0 1.6.3 2.2.9.6.6.9 1.4.9 2.2 0 .9-.3 1.6-.9 2.2zm4-9.2c.2 0 .3.1.4.2.1.1.2.3.2.4v1.9c0 .2-.1.3-.2.5-.1.1-.3.2-.4.2h-1.9c-.2 0-.3-.1-.4-.2-.1-.1-.2-.3-.2-.5V9.7c0-.2.1-.3.2-.4.1-.2.3-.3.4-.3h1.9z"/></symbol><symbol viewBox="0 0 43 43" aria-labelledby="bdstrib-social-linkedin-social-desc bdstrib-social-linkedin-social-title" id="strib-social-linkedin-social" xmlns="http://www.w3.org/2000/svg"><title id="bdstrib-social-linkedin-social-title">LinkedIn</title><desc id="bdstrib-social-linkedin-social-desc">Simple LinkedIn logo</desc><path d="M34.2 31.7h-5v-7.6c0-2.6-1-3.4-2.6-3.4s-2.5 1.3-2.5 3.4v7.6H19v-11s-.1-2.8-.1-3.4H24l.2 2.2c.7-1.8 2.2-3.1 4.2-3.1 3.6 0 6 3 6 7.6v7.7h-.2zM13 14.7c-2.1 0-3.4-1.3-3.4-3s1.4-3 3.4-3c2.1 0 3.4 1.3 3.4 3s-1.3 3-3.4 3m2.6 17h-5.1V17.3h5.1v14.4zm5.9-30.6c-11.3 0-20.4 9.1-20.4 20.4s9.1 20.4 20.4 20.4 20.4-9.1 20.4-20.4S32.8 1.1 21.5 1.1"/></symbol><symbol viewBox="0 0 32 32" aria-labelledby="bestrib-social-pinterest-circle-desc bestrib-social-pinterest-circle-title" id="strib-social-pinterest-circle" xmlns="http://www.w3.org/2000/svg"><title id="bestrib-social-pinterest-circle-title">LinkedIn circle</title><desc id="bestrib-social-pinterest-circle-desc">Linked logo in a circle</desc><path d="M10.1 2c1.8-.8 3.8-1.2 5.8-1.2s3.9.4 5.8 1.2c1.8.8 3.4 1.9 4.7 3.2 1.3 1.4 2.4 3 3.2 4.9.8 1.9 1.2 3.9 1.2 5.9 0 2.1-.4 4-1.2 5.9-.8 1.9-1.8 3.5-3.2 4.9-1.3 1.4-2.9 2.4-4.7 3.2-1.8.8-3.7 1.2-5.8 1.2-1.5 0-2.9-.2-4.2-.6.7-1.1 1.2-2.2 1.5-3.2l1-4.2c.3.5.7 1 1.4 1.3.7.4 1.4.6 2.2.6 1.6 0 3-.5 4.2-1.4 1.2-.9 2.2-2.1 2.8-3.7.7-1.6 1-3.4 1-5.3 0-1.1-.2-2.2-.7-3.3-.5-1-1.1-2-1.9-2.8s-1.8-1.5-3-1.9C19 6.2 17.7 6 16.4 6c-1.4 0-2.6.2-3.8.6s-2.2.9-3 1.5-1.5 1.4-2.1 2.2-1 1.7-1.3 2.6c-.2.7-.3 1.6-.3 2.5 0 1.4.2 2.6.7 3.6s1.3 1.8 2.2 2.2c.4.1.6 0 .8-.4 0-.1.1-.5.3-1.2v-.4c0-.1-.1-.2-.3-.4-.6-.8-1-1.8-1-3 0-1 .2-1.9.5-2.8.3-.9.8-1.7 1.4-2.3.6-.7 1.4-1.2 2.3-1.6.9-.4 1.9-.6 3-.6 1.9 0 3.4.5 4.5 1.6s1.6 2.5 1.6 4.2c0 1.5-.2 2.8-.6 4-.4 1.2-.9 2.2-1.7 2.9-.7.7-1.5 1.1-2.5 1.1-.8 0-1.4-.3-1.9-.9s-.6-1.3-.4-2.1c.1-.5.3-1.1.5-1.9s.4-1.5.6-2c.1-.6.2-1.1.2-1.5 0-.7-.2-1.2-.5-1.6-.3-.4-.8-.6-1.5-.6-.8 0-1.5.4-2 1.1-.6.8-.8 1.7-.8 2.8 0 .4 0 .9.1 1.3s.2.7.2.9l.1.3c-1.1 4.7-1.7 7.5-1.9 8.3.1 1.1.1 2.3.1 3.6-2.7-1.2-4.8-3.1-6.4-5.6S1.1 19.1 1.1 16c0-2.1.4-4 1.2-5.9s1.8-3.5 3.2-4.9C6.7 3.9 8.3 2.8 10.1 2z"/></symbol><symbol viewBox="0 0 32 32" aria-labelledby="bfstrib-social-tumblr-circle-desc bfstrib-social-tumblr-circle-title" id="strib-social-tumblr-circle" xmlns="http://www.w3.org/2000/svg"><title id="bfstrib-social-tumblr-circle-title">Tumblr circle</title><desc id="bfstrib-social-tumblr-circle-desc">Tumblr logo in a circle</desc><circle cx="16" cy="16" r="15"/><path d="M19.8 21.3c-.4.2-1 .3-1.5.3-1.5 0-1.8-1.1-1.8-2v-6.2h3.8v-3h-3.8v-5h-2.8s-.1 0-.1.1c-.2 1.6-.9 4.3-3.8 5.4v2.6h1.9V20c0 2.2 1.6 5.4 5.7 5.3 1.4 0 3-.6 3.3-1.2l-.9-2.8" fill="var(--strib-icon-background, #FFFFFF)"/></symbol><symbol viewBox="0 0 25 21" aria-labelledby="bgstrib-social-twitter-desc bgstrib-social-twitter-title" id="strib-social-twitter" xmlns="http://www.w3.org/2000/svg"><title id="bgstrib-social-twitter-title">Twitter</title><desc id="bgstrib-social-twitter-desc">Simple Twitter logo</desc><path d="M24.4 3c-.9.4-1.8.7-2.8.8 1-.6 1.8-1.6 2.2-2.7-.9.6-2 1-3.1 1.2-.9-.9-2.2-1.5-3.6-1.5-2.7 0-4.9 2.2-4.9 4.9 0 .4 0 .8.1 1.1-4.1-.3-7.7-2.1-10.1-5.1-.4.7-.7 1.5-.7 2.4 0 1.7.9 3.2 2.2 4.1-.8-.1-1.6-.3-2.2-.6v.1c0 2.4 1.7 4.4 4 4.8-.4.1-.9.2-1.3.2-.3 0-.6 0-.9-.1.6 1.9 2.5 3.4 4.6 3.4-1.7 1.3-3.8 2.3-6.1 2.3-.4 0-.8 0-1.2-.1 2.2 1.4 4.8 2 7.6 2 9 0 14-7.5 14-14v-.6c.7-.7 1.6-1.6 2.2-2.6"/></symbol><symbol viewBox="0 0 32 32" aria-labelledby="bhstrib-social-twitter-circle-desc bhstrib-social-twitter-circle-title" id="strib-social-twitter-circle" xmlns="http://www.w3.org/2000/svg"><title id="bhstrib-social-twitter-circle-title">Twitter circle</title><desc id="bhstrib-social-twitter-circle-desc">Twitter logo in a circle</desc><path d="M10.1 2C12 1.2 13.9.8 15.9.8s3.9.4 5.8 1.2c1.8.8 3.4 1.9 4.7 3.2 1.3 1.4 2.4 3 3.2 4.9.8 1.9 1.2 3.9 1.2 5.9 0 2.1-.4 4-1.2 5.9-.8 1.9-1.8 3.5-3.2 4.9-1.3 1.4-2.9 2.4-4.7 3.2-1.8.8-3.7 1.2-5.8 1.2-2 0-3.9-.4-5.8-1.2-1.8-.8-3.4-1.9-4.7-3.2-1.3-1.4-2.4-3-3.2-4.9-.7-1.9-1.1-3.8-1.1-5.9s.4-4 1.2-5.9 1.8-3.5 3.2-4.9C6.8 3.9 8.3 2.8 10.1 2zm14.8 10.7c.8-.5 1.5-1.3 2.1-2.2-.8.3-1.6.6-2.4.7.9-.5 1.5-1.3 1.8-2.4-.8.5-1.7.8-2.6 1.1-.9-1.1-1.9-1.5-3.1-1.5s-2.2.4-3 1.3c-.8.8-1.2 1.9-1.2 3.1 0 .4 0 .7.1 1-1.7-.1-3.3-.5-4.9-1.3-1.5-.8-2.8-1.9-3.9-3.2-.4.7-.5 1.4-.5 2.2 0 .7.2 1.4.5 2.1.3.6.8 1.1 1.4 1.5-.7 0-1.3-.2-1.9-.5 0 1 .3 2 1 2.7.6.8 1.4 1.3 2.4 1.5-.3.1-.7.1-1.1.1-.3 0-.5 0-.8-.1.3.9.7 1.6 1.5 2.1.7.5 1.5.8 2.5.8-1.6 1.3-3.4 2-5.2 2-.1 0-.5 0-1-.1 1.9 1.3 4 1.9 6.4 1.9 1.5 0 2.9-.2 4.2-.7s2.4-1.1 3.4-2c.9-.8 1.7-1.8 2.4-2.8.7-1.1 1.2-2.2 1.5-3.3.3-1.2.5-2.3.5-3.5l-.1-.5z"/></symbol><symbol viewBox="0 0 68 61" aria-labelledby="bistrib-strib-star-desc bistrib-strib-star-title" id="strib-strib-star" xmlns="http://www.w3.org/2000/svg"><title id="bistrib-strib-star-title">Star Tribune star</title><desc id="bistrib-strib-star-desc">Two-tone Star Tribune star logo</desc><path fill="var(--strib-strib-star-top, #61bf1a)" d="M34 1.5l-7 22.9H1.7L22.5 37l18.4-12.7L34 1.5z"/><path fill="var(--strib-strib-star-bottom, #00824a)" d="M41.3 24.4L14.2 59.5 34 44.9l19.9 14.6-8.6-22.4 21-12.7h-25z"/></symbol><symbol viewBox="0 0 233 160" aria-labelledby="bjstrib-text-size-desc bjstrib-text-size-title" id="strib-text-size" xmlns="http://www.w3.org/2000/svg"><title id="bjstrib-text-size-title">Text size</title><desc id="bjstrib-text-size-desc">Two capital letters to show difference in text size</desc><path d="M95.2 110.2l-3.1 8.2-7.9 20.6m-.1 0l-2.7-7.2H35.5L26.4 155H4.1L47.5 42.6h21.7l26.1 67.8M58.4 72.2l-15.1 38.6h30.1l-15-38.6zm84-67.2h29L229 154.8h-29.6l-11.7-30.9h-61.1l-12.2 30.9H84.6L142.4 5zM157 44.7l-20.1 51.4H177l-20-51.4z"/></symbol></svg>