<svg id="strib-arrow-counterclockwise" viewBox="0 0 16 16" width="16" height="16" fill="currentcolor" class="strib-icon strib-arrow-counterclockwise" xmlns="http://www.w3.org/2000/svg">
  <path d="M3,1L3,3.115C3.65,2.446 4.427,1.914 5.286,1.551C6.145,1.188 7.068,1 8,1C9.385,1 10.738,1.411 11.889,2.18C13.04,2.949 13.938,4.042 14.468,5.321C14.997,6.6 15.135,8.008 14.865,9.366C14.595,10.724 13.929,11.971 12.95,12.95C11.971,13.929 10.724,14.595 9.366,14.865C8.008,15.135 6.6,14.997 5.321,14.467C4.042,13.938 2.949,13.04 2.18,11.889C1.411,10.738 1,9.384 1,8L2,8C1.997,9.402 2.485,10.761 3.38,11.841C4.274,12.921 5.519,13.654 6.897,13.911C8.276,14.169 9.701,13.936 10.925,13.253C12.15,12.569 13.096,11.478 13.6,10.169C14.104,8.861 14.133,7.417 13.683,6.089C13.233,4.76 12.332,3.632 11.137,2.899C9.941,2.166 8.527,1.874 7.139,2.076C5.752,2.277 4.478,2.958 3.54,4L6,4L6,5L2,5L2,1L3,1Z"/>
</svg>
