<svg id="strib-arrow-clockwise" viewBox="0 0 16 16" width="16" height="16" fill="currentcolor" class="strib-icon strib-arrow-clockwise" xmlns="http://www.w3.org/2000/svg">
  <path d="M13,1L13,3.115C12.35,2.446 11.573,1.914 10.714,1.551C9.855,1.188 8.932,1 8,1C6.615,1 5.262,1.411 4.111,2.18C2.96,2.949 2.062,4.042 1.532,5.321C1.003,6.6 0.865,8.008 1.135,9.366C1.405,10.724 2.071,11.971 3.05,12.95C4.029,13.929 5.276,14.595 6.634,14.865C7.992,15.135 9.4,14.997 10.679,14.467C11.958,13.938 13.051,13.04 13.82,11.889C14.589,10.738 15,9.384 15,8L14,8C14.003,9.402 13.515,10.761 12.62,11.841C11.726,12.921 10.481,13.654 9.103,13.911C7.724,14.169 6.299,13.936 5.075,13.253C3.85,12.569 2.904,11.478 2.4,10.169C1.896,8.861 1.867,7.417 2.317,6.089C2.767,4.76 3.668,3.632 4.863,2.899C6.059,2.166 7.473,1.874 8.861,2.076C10.248,2.277 11.522,2.958 12.46,4L10,4L10,5L14,5L14,1L13,1Z"/>
</svg>
