<svg id="strib-audio-waves" viewBox="0 0 16 16" width="16" height="16" fill="currentcolor" class="strib-icon strib-audio-waves" xmlns="http://www.w3.org/2000/svg">
  <path d="M6.9 2.137v11.726c0 .455-.413.823-.922.823-.508 0-.92-.368-.92-.823V2.137c0-.455.412-.823.92-.823.509 0 .922.368.922.823M2.841 6.596v7.267c0 .455-.411.823-.92.823-.508 0-.921-.368-.921-.823V6.596c0-.454.413-.823.921-.823.509 0 .92.369.92.823m8.109 7.267V9.937c0-.455-.412-.824-.921-.824s-.921.369-.921.824v3.926c0 .455.412.823.921.823s.921-.368.921-.823M15 7.71v6.153c0 .455-.413.823-.921.823-.509 0-.92-.368-.92-.823V7.71c0-.455.411-.823.92-.823.508 0 .921.368.921.823"/>
</svg>