<svg id="strib-avatar" viewBox="0 0 16 16" width="16" height="16" fill="currentcolor" class="strib-icon strib-avatar" xmlns="http://www.w3.org/2000/svg">
  <path d="M8 4c-.495 0-.978.146-1.389.422a2.49 2.49 0 0 0-1.063 2.565 2.49 2.49 0 0 0 1.964 1.965A2.5 2.5 0 1 0 8 4m0 4a1.495 1.495 0 0 1-1.386-.926 1.5 1.5 0 0 1 .326-1.635 1.5 1.5 0 0 1 1.634-.325A1.498 1.498 0 0 1 9.06 7.56 1.5 1.5 0 0 1 8 8"/>
  <path d="M8 1a7.005 7.005 0 0 0-6.467 4.321A7 7 0 1 0 15 8a7 7 0 0 0-2.052-4.948A7 7 0 0 0 8 1M5 13.188V12.5A1.504 1.504 0 0 1 6.5 11h3a1.505 1.505 0 0 1 1.5 1.5v.688a5.94 5.94 0 0 1-6 0m6.996-.725A2.505 2.505 0 0 0 9.5 10h-3a2.5 2.5 0 0 0-2.496 2.463A6 6 0 0 1 2.17 9.407a6.01 6.01 0 0 1 2.427-6.361 6 6 0 0 1 6.807 0 6.01 6.01 0 0 1 2.427 6.361 6 6 0 0 1-1.835 3.056"/>
</svg>