<svg id="strib-avatar-filled" viewBox="0 0 16 16" width="16" height="16" fill="currentcolor" class="strib-icon strib-avatar-filled" xmlns="http://www.w3.org/2000/svg">
  <path d="M13.383 12.469a7 7 0 0 0 1.372-6.311A7 7 0 0 0 7.07 1.056a7.01 7.01 0 0 0-5.283 3.715A7 7 0 0 0 1 8.001c0 1.634.576 3.215 1.627 4.468l-.01.008c.035.042.075.079.111.12q.068.076.14.15.21.23.435.435.07.062.14.121.24.209.496.391c.022.015.042.035.064.051v-.006a6.96 6.96 0 0 0 8.006 0v.006c.021-.016.041-.036.063-.051a7 7 0 0 0 .496-.391q.07-.059.14-.121.226-.206.436-.435l.14-.15c.035-.041.075-.078.111-.12zM8.005 3.998a2.255 2.255 0 0 1 2.08 1.39 2.251 2.251 0 1 1-2.08-1.39m-4 8.471a2.5 2.5 0 0 1 2.499-2.467h3.002a2.5 2.5 0 0 1 2.498 2.467 5.977 5.977 0 0 1-7.999 0"/>
</svg>