<svg id="strib-briefcase-filled" viewBox="0 0 16 16" width="16" height="16" fill="currentcolor" class="strib-icon strib-briefcase-filled" xmlns="http://www.w3.org/2000/svg">
  <path d="M11.373 4.264V1.798c0-.218-.218-.435-.508-.435H5.062c-.217 0-.435.145-.435.435v2.466H1.435Q1 4.264 1 4.699v3.555l.073.072c4.352 2.467 9.357 2.467 13.709 0l.145-.072V4.699c.073-.29-.145-.435-.435-.435zm-1.015 0H5.497V2.233h4.861zm-2.394 6.819c-2.394 0-4.788-.58-6.964-1.814v4.861c0 .29.218.507.435.507h13.057c.29 0 .508-.217.508-.507V9.342c-2.249 1.161-4.642 1.741-7.036 1.741M8 7.832a.489.489 0 1 1 0 .978.489.489 0 0 1 0-.978"/>
</svg>