<svg id="strib-briefcase" viewBox="0 0 16 16" width="16" height="16" fill="currentcolor" class="strib-icon strib-briefcase" xmlns="http://www.w3.org/2000/svg">
  <path d="M11.373 4.264h3.119c.29 0 .508.145.508.435v9.431c0 .29-.218.507-.508.507H1.435c-.217 0-.435-.217-.435-.507V4.699q0-.435.435-.435h3.192V1.798q0-.435.435-.435h5.803c.29 0 .508.145.508.435zm-1.015-2.031H5.497v1.959h4.861zm3.626 2.902H1.87v3.627c3.918 1.886 8.27 1.886 12.114-.073zM1.87 9.777v3.845h12.114V9.777a14.5 14.5 0 0 1-6.02 1.306q-3.156 0-6.094-1.306M8 7.869a.49.49 0 1 1 0 .978.49.49 0 0 1 0-.978"/>
</svg>