<svg id="strib-camera" viewBox="0 0 16 16" width="16" height="16" fill="currentcolor" class="strib-icon strib-camera" xmlns="http://www.w3.org/2000/svg">
  <path d="M14.499 13.5H1.5A.5.5 0 0 1 1 13V4.5a.5.5 0 0 1 .5-.5h3.23l.854-1.275A.51.51 0 0 1 6 2.5h4a.5.5 0 0 1 .415.225L11.27 4h3.229a.5.5 0 0 1 .501.5V13a.5.5 0 0 1-.501.5M2 12.499h12V5h-3.001a.5.5 0 0 1-.414-.225L9.73 3.501H6.269l-.854 1.274A.5.5 0 0 1 5 5H2z"/>
  <path d="M8 11.5a2.998 2.998 0 0 1-2.943-3.585 3 3 0 0 1 .821-1.536 3.006 3.006 0 0 1 4.617.454 3.01 3.01 0 0 1-.374 3.789A3 3 0 0 1 8 11.5m0-5a2.005 2.005 0 0 0-1.848 1.235 2 2 0 0 0 .434 2.179c.279.28.635.471 1.024.547A1.995 1.995 0 0 0 10 8.5a2.003 2.003 0 0 0-2-2"/>
</svg>