<svg id="strib-comment" viewBox="0 0 16 16" width="16" height="16" fill="currentcolor" class="strib-icon strib-comment" xmlns="http://www.w3.org/2000/svg">
  <path d="M4.575 1.517A3.577 3.577 0 0 0 1 5.092V8.3a3.577 3.577 0 0 0 3.575 3.575h.067v2.112a.498.498 0 0 0 .767.416l3.894-2.528h2.122A3.577 3.577 0 0 0 15 8.3V5.092a3.577 3.577 0 0 0-3.575-3.575zM1.994 5.092a2.583 2.583 0 0 1 2.581-2.581h6.85a2.583 2.583 0 0 1 2.581 2.581V8.3a2.583 2.583 0 0 1-2.581 2.581H9.156a.5.5 0 0 0-.271.08l-3.25 2.111v-1.694a.497.497 0 0 0-.496-.497h-.564A2.583 2.583 0 0 1 1.994 8.3z"/>
</svg>