<svg id="strib-comment-disabled" viewBox="0 0 16 16" width="16" height="16" fill="currentcolor" class="strib-icon strib-comment-disabled" xmlns="http://www.w3.org/2000/svg">
  <path d="M14.788 13.696 2.124 1.03l-.729.728L14.06 14.423zm-1.435-2.741c.412-.515.72-1.133.72-1.75V6.014c0-1.441-1.235-2.676-2.676-2.676H5.633l-.824-.927h6.588C13.353 2.411 15 4.058 15 6.014v3.191c0 .927-.309 1.75-1.03 2.47zm-8.235 3.912c.205.103.308.103.515.103.205 0 .411-.103.617-.207l3.088-1.955h1.956l-.927-.926H9.132c-.052 0-.077.026-.103.051-.026.026-.051.052-.103.052l-3.397 2.161v-1.853a.44.44 0 0 0-.411-.411h-.515c-1.441 0-2.676-1.235-2.676-2.677V6.014c0-.618.308-1.338.72-1.853l-.617-.617C1.309 4.264 1 5.088 1 6.014v3.191c0 1.957 1.545 3.603 3.5 3.603h.103v1.132c0 .412.205.721.515.927"/>
</svg>