<svg id="strib-comment-disabled-filled" viewBox="0 0 16 16" width="16" height="16" fill="currentcolor" class="strib-icon strib-comment-disabled-filled" xmlns="http://www.w3.org/2000/svg">
  <path d="M14.788 13.696 2.124 1.03l-.729.728L14.06 14.423zm-.818-2.021L4.809 2.411h6.588C13.353 2.411 15 4.058 15 6.014v3.191c0 .927-.309 1.75-1.03 2.47m-8.852 3.192c.205.103.308.103.515.103.205 0 .411-.103.617-.207l3.088-1.955h1.956L2.03 3.544C1.309 4.264 1 5.088 1 6.014v3.191c0 1.957 1.545 3.603 3.5 3.603h.103v1.132c0 .412.205.721.515.927"/>
</svg>