<svg id="strib-company-name" viewBox="0 0 16 16" width="16" height="16" fill="currentcolor" class="strib-icon strib-company-name" xmlns="http://www.w3.org/2000/svg">
  <path d="m9.183 7.988-.143-.081c-.061-.032-.099-.067-.099-.145v-.026c0-.074.032-.124.113-.124.163 0 .135.229.135.229h.18v-.069c0-.194-.111-.301-.313-.301-.2 0-.309.103-.309.291 0 .162.089.238.186.296l.142.081c.075.038.108.071.108.163v.038c0 .084-.032.136-.119.136-.175 0-.15-.258-.15-.258h-.181v.06q.001.337.328.338.318.001.316-.311c0-.173-.071-.247-.194-.317m2.573-.507h-.608v.147h.21v.975h.187v-.975h.211zm-.963.493v-.251h-.176v.88h.176v-.502c0-.133.054-.181.191-.181h.075v-.197h-.044c-.214 0-.222.251-.222.251"/>
  <path d="M11.839 7.974v-.251h-.177v.88h.177v-.502c0-.133.054-.181.191-.181h.075v-.197h-.044c-.214 0-.222.251-.222.251m1.665.347c0 .116-.061.145-.112.145-.067 0-.095-.044-.095-.136v-.607h-.18v.619c0 .125.036.274.208.274.088 0 .167-.084.179-.211l.001.198h.178v-.88h-.179zm-3.029-.346q.001-.267-.272-.266c-.149 0-.278.091-.289.262v.066h.177l-.002-.066c0-.076.038-.142.115-.142.065 0 .097.056.097.111v.036c0 .052-.041.069-.097.092l-.049.021-.06.027q-.2.092-.2.274c0 .144.076.227.208.227.109 0 .174-.076.202-.212v.063c0 .075.06.135.134.135h.11v-.155h-.074zm-.174.294c0 .132-.043.191-.141.191-.064 0-.116-.054-.1-.133.009-.042.038-.07.1-.104l.05-.027c.038-.021.07-.029.091-.053zm2.516-.559c-.106.006-.167.121-.181.211v-.538l-.171.089v1.131h.17l.001-.198c.012.126.08.208.181.211.152.006.223-.099.223-.266v-.355c0-.176-.041-.296-.223-.286zm.048.615q0 .145-.11.144c-.109 0-.118-.111-.118-.145v-.313c0-.071.031-.184.118-.184.074 0 .11.086.11.182zm-3.156-.484h.15v-.128h-.15v-.207l-.18.093v.114h-.097v.128h.097v.595c0 .045.017.087.049.118a.16.16 0 0 0 .118.049h.163v-.155h-.15zm-5.12-.132c-.099 0-.173.085-.185.212l.01-.199h-.19v.881h.18v-.598c0-.117.061-.174.112-.174.067 0 .095.072.095.165v.607h.178l.002-.619c0-.09-.008-.275-.202-.275m.646 0c-.099 0-.173.085-.185.212l.009-.199H4.87v.881h.18v-.598c0-.117.061-.174.112-.174.066 0 .095.072.095.165v.607h.178l.001-.619c0-.09-.007-.275-.201-.275m1.34.413-.151-.085c-.059-.031-.078-.056-.078-.1 0-.037.017-.111.099-.111.075 0 .106.061.106.138v.05h.175v-.052c0-.165-.124-.253-.279-.253-.221 0-.276.164-.276.235 0 .103.049.172.159.224l.131.071c.082.048.096.075.096.128 0 .071-.029.137-.105.137-.083 0-.116-.073-.116-.158v-.061h-.175v.063c0 .173.115.269.29.269.112 0 .281-.049.281-.259 0-.111-.044-.177-.157-.236m1.868-.147q.001-.267-.272-.266c-.148 0-.278.091-.288.262l-.001.022v.044h.177l-.002-.066c0-.076.038-.142.116-.142.065 0 .096.056.096.111v.036c0 .052-.04.069-.097.092l-.048.021-.06.027q-.202.092-.201.274c0 .144.076.227.209.227.109 0 .174-.076.201-.212v.063c0 .075.06.135.135.135h.11v-.155h-.075zm-.174.294c0 .132-.043.191-.14.191-.065 0-.117-.054-.1-.133.008-.042.037-.07.099-.104l.05-.027c.039-.021.071-.029.091-.053zm-1.184-.56c-.193 0-.295.115-.295.332v.249c0 .216.102.327.295.327.192 0 .293-.111.293-.327v-.249c0-.217-.101-.332-.293-.332m.109.606c0 .133-.055.18-.109.18-.055 0-.11-.047-.11-.18v-.299c0-.106.033-.185.11-.185.096 0 .109.11.109.185zm-3.062-.772v.179h-.18v-.179zm-.18 1.06h.18v-.881l-.18.093zm8.415-1.06v.179h-.179v-.179zm-.179 1.06h.179v-.881l-.179.093zm-9.683-.894c-.168 0-.297.115-.297.333v.249c0 .217.123.325.297.325.171 0 .283-.095.289-.295v-.036h-.186l-.002.062c-.002.072-.019.152-.099.152-.057 0-.115-.05-.115-.182v-.138h.405V8.04c0-.219-.136-.331-.292-.331m.107.377h-.22v-.07c0-.106.034-.19.113-.19.072 0 .103.078.107.173zm-.673-.377h-.002c-.086.001-.152.065-.176.165l-.001.004-.007.043v-.538l-.189.098H1v.147h.21v.975h.187v-.975h.177v.975h.179v-.598l.001-.021c.007-.103.063-.153.111-.153.067 0 .095.072.095.165v.607h.179l.001-.619c0-.09-.008-.275-.201-.275m5.738.132h.149v-.128h-.149v-.207l-.181.093v.114h-.097v.128h.097v.595c0 .092.075.167.167.167h.163v-.155h-.149zm-1.866-.132c-.168 0-.297.115-.297.333v.249c0 .217.123.325.297.325.171 0 .283-.095.289-.295v-.036h-.186l-.001.062c-.002.072-.02.152-.1.152-.057 0-.115-.05-.115-.182v-.138h.405V8.04c0-.219-.136-.331-.292-.331m.107.377h-.22v-.07c0-.106.034-.19.113-.19.072 0 .103.078.107.173zm8.791-.377c-.169 0-.298.115-.298.333v.249c0 .217.123.325.298.325.17 0 .283-.095.288-.295v-.036h-.186l-.001.062c-.002.072-.02.152-.1.152-.056 0-.114-.05-.114-.182v-.138H15V8.04c0-.219-.135-.331-.291-.331m.106.377h-.219v-.07c0-.106.033-.19.113-.19.072 0 .102.078.106.173zM3.856 7.481H3.64l-.18.691-.18-.691h-.216v1.122h.165v-.744l.186.744h.089l.186-.744v.744h.166zm10.279.228c-.099 0-.173.085-.185.212l.009-.199h-.189v.881h.18v-.598c0-.117.061-.174.112-.174.067 0 .095.072.095.165v.607h.178l.002-.619c0-.09-.008-.275-.202-.275"/>
</svg>