<svg id="strib-connect" viewBox="0 0 16 16" width="16" height="16" fill="currentcolor" class="strib-icon strib-connect" xmlns="http://www.w3.org/2000/svg">
  <path d="m9.696 4.367.004-.002a2.7 2.7 0 0 1-.086-.673A2.706 2.706 0 0 1 12.307.999 2.706 2.706 0 0 1 15 3.692a2.706 2.706 0 0 1-2.693 2.693 2.7 2.7 0 0 1-2.135-1.052zm1.469.468a1.616 1.616 0 1 0-.332-.481l.014.025.024.054q.115.222.294.402m-.993.498L6.299 7.329c.113.44.113.903 0 1.344l3.873 1.995q.106-.138.232-.263a2.7 2.7 0 0 1 1.903-.789 2.705 2.705 0 0 1 2.692 2.693A2.69 2.69 0 0 1 12.308 15a2.706 2.706 0 0 1-2.693-2.693q0-.34.085-.671L5.826 9.641a2.7 2.7 0 0 1-2.134 1.052h-.001A2.705 2.705 0 0 1 .998 8.001a2.705 2.705 0 0 1 2.693-2.693c.836 0 1.626.389 2.135 1.053l3.87-1.994zM5.166 8.661c.095-.21.145-.438.145-.668 0-.887-.73-1.616-1.616-1.616a1.617 1.617 0 0 0-1.616 1.616c0 .886.73 1.615 1.616 1.615.632 0 1.209-.371 1.471-.947m5.667 2.986a1.6 1.6 0 0 0-.142.662c0 .887.73 1.616 1.616 1.616s1.616-.729 1.616-1.616c0-.886-.73-1.615-1.616-1.615-.604 0-1.159.338-1.436.874a.3.3 0 0 1-.024.054z"/>
</svg>