<svg id="strib-crystal-ball-filled" viewBox="0 0 16 16" width="16" height="16" fill="currentcolor" class="strib-icon strib-crystal-ball-filled" xmlns="http://www.w3.org/2000/svg">
  <path d="M7.524 1.023a6.1 6.1 0 0 1 4.709 1.644c2.765 2.467 2.989 6.503.598 9.119-.075.149-.225.299-.374.448l-.15.15q-.059.03-.107.058c-.088.051-.157.091-.266.091H4.011a.56.56 0 0 1-.299-.149C1.021 9.992.797 6.03 3.114 3.265c1.121-1.345 2.691-2.168 4.41-2.242m-.299 4.111h.598V3.938h-.598c-1.645 0-2.841 1.27-2.841 2.84v.598H5.58v-.598c0-.897.673-1.644 1.645-1.644M2.74 13.206h10.464V15H2.74z"/>
</svg>