<svg id="strib-crystal-ball" viewBox="0 0 16 16" width="16" height="16" fill="currentcolor" class="strib-icon strib-crystal-ball" xmlns="http://www.w3.org/2000/svg">
  <path d="M4.623 6.577c0-1.488 1.151-2.638 2.639-2.638h.47v.939h-.47c-.969 0-1.699.73-1.699 1.699v.47h-.94zM8.024 15v-.94h4.552v-1.952H8.024v-.94h3.611l.052-.045.069-.06c.079-.072.136-.131.176-.192l.043-.055c1.983-2.181 1.733-5.499-.474-7.506a5.23 5.23 0 0 0-3.477-1.37V1a6.17 6.17 0 0 1 4.109 1.615c2.474 2.249 2.867 5.968.778 8.553h.135c.26 0 .47.211.47.47v2.892c0 .26-.21.47-.47.47z"/>
  <path d="M8.024 1v.94a5.2 5.2 0 0 0-4.019 1.834c-1.897 2.224-1.735 5.458.33 7.394h3.689v.94h-4.63v1.952h4.63V15H2.925a.47.47 0 0 1-.47-.47v-2.892c0-.259.21-.47.47-.47h.137c-1.824-2.311-1.776-5.655.228-8.004A6.13 6.13 0 0 1 8.024 1"/>
</svg>