<svg id="strib-diamond" viewBox="0 0 16 16" width="16" height="16" fill="currentcolor" class="strib-icon strib-diamond" xmlns="http://www.w3.org/2000/svg">
  <path d="M12.64 2.805H3.359l.302-.444a1 1 0 0 1 .824-.436h7.029c.33 0 .638.164.824.436zm-9.281 0h9.281l2.188 3.208c.133.198.192.436.166.673a.98.98 0 0 1-.259.566l-6.003 6.503a1 1 0 0 1-.536.301h-.002q-.194.037-.389 0h-.002a1 1 0 0 1-.537-.302L1.262 7.252a1.006 1.006 0 0 1-.091-1.239zm10.349 4.263h-2.51l-2.049 4.937zm-3.506-.881-1.634-3.38H7.431l-1.635 3.38zm-4.448.881 2.245 5.408 2.245-5.408zm-.954 0H2.291l4.559 4.937zm.018-.881 1.635-3.38H4.485a.12.12 0 0 0-.096.051l-2.27 3.329zm9.061 0-2.269-3.33a.12.12 0 0 0-.096-.05H9.546l1.635 3.38z"/>
</svg>