<svg id="strib-edit-filled" viewBox="0 0 16 16" width="16" height="16" fill="currentcolor" class="strib-icon strib-edit-filled" xmlns="http://www.w3.org/2000/svg">
  <path d="M12.883 1c-.562 0-1.1.223-1.497.62l-6.42 6.397a.52.52 0 0 0-.151.365v2.288c0 .285.23.515.515.515h2.288a.52.52 0 0 0 .365-.151l6.397-6.42c.398-.397.622-.936.622-1.498A2.127 2.127 0 0 0 12.886 1zM3.041 4.052c-.541 0-1.06.215-1.444.597A2.05 2.05 0 0 0 1 6.092v6.867c0 .541.215 1.061.597 1.444.384.382.903.597 1.444.597h6.867c.541 0 1.06-.215 1.443-.597.382-.383.597-.903.597-1.444v-.763a.52.52 0 0 0-.515-.477.52.52 0 0 0-.514.477v.764c0 .554-.456 1.01-1.01 1.01H3.041a1.02 1.02 0 0 1-1.011-1.011V6.091c0-.554.456-1.01 1.01-1.01h.787a.517.517 0 0 0 .515-.515.517.517 0 0 0-.515-.514z"/>
</svg>