<svg id="strib-edit" viewBox="0 0 16 16" width="16" height="16" fill="currentcolor" class="strib-icon strib-edit" xmlns="http://www.w3.org/2000/svg">
  <path d="M12.883 1c-.562 0-1.1.223-1.497.62l-6.42 6.397a.52.52 0 0 0-.151.365v2.288c0 .285.23.515.515.515h2.288a.52.52 0 0 0 .365-.151l6.397-6.42A2.116 2.116 0 0 0 12.883 1m-.769 1.349a1.084 1.084 0 0 1 1.537 0 1.084 1.084 0 0 1 0 1.537l-6.246 6.269h-1.56v-1.56l6.268-6.246zM3.041 4.052c-.541 0-1.06.215-1.444.597A2.05 2.05 0 0 0 1 6.092v6.867c0 .541.215 1.061.597 1.444.384.382.903.597 1.444.597h6.867c.541 0 1.06-.215 1.443-.597.382-.383.597-.903.597-1.444v-.763a.516.516 0 0 0-1.029 0v.763a1.01 1.01 0 0 1-1.011 1.011H3.041a1.013 1.013 0 0 1-1.011-1.011V6.092a1.01 1.01 0 0 1 1.011-1.011h.763a.515.515 0 1 0 0-1.029z"/>
</svg>