<svg id="strib-faq" viewBox="0 0 16 16" width="16" height="16" fill="currentcolor" class="strib-icon strib-faq" xmlns="http://www.w3.org/2000/svg">
  <path d="M15 5.621V9.81a.484.484 0 0 1-.828.342l-2.03-2.029H9.933v3.136c0 .663-.545 1.208-1.208 1.208H3.858l-2.03 2.029A.484.484 0 0 1 1 14.153v-7.24c0-.663.545-1.208 1.208-1.208h3.859v-.084h.971v1.294c0 .13.107.238.238.238h5.067c.129 0 .252.051.343.143l1.343 1.343V5.621zM6.067 6.676H2.209a.24.24 0 0 0-.238.238v6.067l1.343-1.343a.48.48 0 0 1 .343-.142h5.067a.24.24 0 0 0 .238-.238V8.123H7.276a1.215 1.215 0 0 1-1.209-1.208zm0-1.055v-3.05a1.216 1.216 0 0 1 1.209-1.209h6.515A1.216 1.216 0 0 1 15 2.571v3.05h-.971v-3.05a.24.24 0 0 0-.238-.239H7.276a.24.24 0 0 0-.238.239v3.05z"/>
</svg>