<svg id="strib-fast-forward-15" viewBox="0 0 16 16" width="16" height="16" fill="currentcolor" class="strib-icon strib-fast-forward-15" xmlns="http://www.w3.org/2000/svg">
  <path d="m14.754 3.646-2.64-2.64-.794.793 1.683 1.683H6.13A5.06 5.06 0 0 0 1.082 8.53a5.06 5.06 0 0 0 5.048 5.049h.561v-1.122H6.13A3.94 3.94 0 0 1 2.203 8.53 3.94 3.94 0 0 1 6.13 4.604h6.873L11.32 6.286l.794.794 2.64-2.64a.56.56 0 0 0 0-.794M9.608 9.54V15h-.972V9.54zm1.757 0a.487.487 0 0 0-.486.487v2.243c0 .269.218.486.486.486h1.122c.33 0 .636.306.636.636s-.306.636-.636.636h-1.645V15h1.645c.867 0 1.608-.741 1.608-1.608s-.741-1.608-1.608-1.608h-.635v-1.271h2.057V9.54z"/>
</svg>