<svg id="strib-flag" viewBox="0 0 16 16" width="16" height="16" fill="currentcolor" class="strib-icon strib-flag" xmlns="http://www.w3.org/2000/svg">
  <path d="M5.409 1a4.25 4.25 0 0 0-2.975 1.215.55.55 0 0 0-.165.392v12.325c0 .037.03.068.068.068H3.3a.07.07 0 0 0 .067-.068V9.511a3.153 3.153 0 0 1 4.248.15 4.25 4.25 0 0 0 5.951 0 .55.55 0 0 0 .165-.392V2.607a.55.55 0 0 0-.934-.392 3.15 3.15 0 0 1-4.412 0A4.25 4.25 0 0 0 5.409 1M3.367 8.185V2.849a3.15 3.15 0 0 1 4.248.15 4.25 4.25 0 0 0 5.018.693v5.336a3.153 3.153 0 0 1-4.248-.151 4.25 4.25 0 0 0-5.018-.692"/>
</svg>