<svg id="strib-forward" viewBox="0 0 16 16" width="16" height="16" fill="currentcolor" class="strib-icon strib-forward" xmlns="http://www.w3.org/2000/svg">
  <path d="M8.513 1.766a.5.5 0 0 1 .541.079l5.773 5.052a.503.503 0 0 1 0 .76l-5.773 5.051a.504.504 0 0 1-.837-.38v-2.34c-.581.087-1.191.306-1.805.614-.795.399-1.565.931-2.245 1.467a24 24 0 0 0-1.664 1.457l-.361.348-.12.118a4 4 0 0 1-.145.136l-.001.001c-.014.012-.053.047-.1.076-.015.008-.043.024-.079.039-.026.01-.113.044-.228.034a.506.506 0 0 1-.461-.596v-.004h.001c.693-3.69 2.442-8.015 7.208-8.988V2.225c0-.198.115-.377.296-.459m.713 1.572v1.774c0 .249-.18.461-.427.499-3.771.59-5.557 3.496-6.431 6.66.338-.307.736-.649 1.174-.995.711-.561 1.54-1.138 2.417-1.577.872-.437 1.82-.755 2.758-.763a.504.504 0 0 1 .509.505v1.774l4.501-3.939zM1.207 13.371l.005-.003z"/>
</svg>