<svg id="strib-gift" viewBox="0 0 16 16" width="16" height="16" fill="currentcolor" class="strib-icon strib-gift" xmlns="http://www.w3.org/2000/svg">
  <path d="M13.187 4.625h-1.432a2.326 2.326 0 0 0-2.244-3.604A2.33 2.33 0 0 0 8 1.88a2.326 2.326 0 0 0-3.755 2.745H2.813a1.037 1.037 0 0 0-1.037 1.038v2.075a1.035 1.035 0 0 0 1.037 1.038v5.186A1.04 1.04 0 0 0 3.85 15h8.3a1.04 1.04 0 0 0 1.037-1.038V8.776a1.037 1.037 0 0 0 1.037-1.038V5.663a1.035 1.035 0 0 0-1.037-1.038M8.519 3.329a1.3 1.3 0 0 1 .218-.721 1.3 1.3 0 0 1 1.996-.197 1.302 1.302 0 0 1-.197 1.996 1.3 1.3 0 0 1-.721.218H8.519zM6.185 2.032a1.3 1.3 0 0 1 1.296 1.297v1.296H6.185a1.296 1.296 0 1 1 0-2.593M2.813 5.663h4.668v2.075H2.813zM3.85 8.776h3.631v5.186H3.85zm8.3 5.186H8.519V8.776h3.631zM8.519 7.738V5.663h4.668v2.075z"/>
</svg>