<svg id="strib-gift-filled" viewBox="0 0 16 16" width="16" height="16" fill="currentcolor" class="strib-icon strib-gift-filled" xmlns="http://www.w3.org/2000/svg">
  <path d="M13.187 4.625h.002a1.04 1.04 0 0 1 1.035 1.035v2.079c0 .568-.468 1.037-1.037 1.037v5.186A1.045 1.045 0 0 1 12.15 15h-8.3a1.045 1.045 0 0 1-1.037-1.038V8.776h-.002a1.04 1.04 0 0 1-1.035-1.035V5.662c0-.568.468-1.037 1.037-1.037h1.432a2.33 2.33 0 0 1-.426-1.341A2.337 2.337 0 0 1 6.145.958c.728 0 1.416.342 1.855.922A2.34 2.34 0 0 1 9.826 1a2.337 2.337 0 0 1 2.326 2.326c0 .463-.138.915-.397 1.299zM7.481 8.776v5.186h1.038V8.776h3.631V7.738H8.519V5.663H7.481v2.075H3.85v1.038zM6.185 2.032c-.711 0-1.297.585-1.297 1.297 0 .711.586 1.296 1.297 1.296h1.296V3.329a1.306 1.306 0 0 0-1.296-1.297m2.334 1.297v1.296h1.296c.257 0 .507-.076.721-.218a1.302 1.302 0 0 0 .197-1.996 1.3 1.3 0 0 0-1.996.197 1.3 1.3 0 0 0-.218.721"/>
</svg>