<svg id="strib-headphones" viewBox="0 0 16 16" width="16" height="16" fill="currentcolor" class="strib-icon strib-headphones" xmlns="http://www.w3.org/2000/svg">
  <path d="M14.894 7.562q.007.159.007.319v3.634H14.9C14.845 13.446 13.358 15 11.522 15h-.327a.95.95 0 0 1-.947-.947v-5.3c0-.524.424-.947.947-.947h.327c.918 0 1.749.389 2.357 1.02v-.945q0-.16-.008-.319h.075q.009.159.009.319V9.02 7.881q0-.16-.009-.319zm-3.372 1.265h-.252v5.15h.252c1.246 0 2.357-1.095 2.357-2.575 0-1.479-1.111-2.575-2.357-2.575m.662 6.027q-.328.07-.662.07h-.329a.873.873 0 0 1-.869-.869V8.753v5.3c0 .482.39.871.871.871h.327q.34 0 .662-.07m1.771-3.452c0 1.162-.669 2.099-1.563 2.475.894-.376 1.563-1.313 1.563-2.475 0-1.517-1.141-2.649-2.433-2.649h-.327.327c1.292 0 2.433 1.132 2.433 2.649M2.129 7.562a7 7 0 0 0-.008.319v.945a3.27 3.27 0 0 1 2.357-1.02h.327c.523 0 .947.423.947.947v5.3a.946.946 0 0 1-.947.947h-.327c-1.858 0-3.359-1.594-3.379-3.558V7.881q0-.16.007-.319h.076a7 7 0 0 0-.008.319v1.492-1.492q0-.16.008-.319zm2.349 6.415h.252v-5.15h-.252c-1.246 0-2.357 1.096-2.357 2.575s1.111 2.575 2.357 2.575m-3.304-2.61v.072c.019 1.928 1.491 3.485 3.304 3.485h.327-.327c-1.813 0-3.285-1.557-3.304-3.485zm3.631 2.686v-5.3h-.327.327zM2.046 9.02l.075-.085zm-.94-1.458C1.286 3.908 4.342 1 8 1s6.714 2.908 6.894 6.562h-1.023C13.705 4.46 11.107 1.997 8 1.997S2.295 4.46 2.129 7.562z"/>
</svg>