<svg id="strib-headphones-filled" viewBox="0 0 16 16" width="16" height="16" fill="currentcolor" class="strib-icon strib-headphones-filled" xmlns="http://www.w3.org/2000/svg">
  <path d="M11.852 14.907q-.165.018-.335.018h-.326a.87.87 0 0 1-.871-.87V8.761v5.294c0 .48.39.87.87.87h.327q.17 0 .335-.018m2.094-5.879V7.891zm-11.892 0 .075-.084zm2.888 5.887a1 1 0 0 1-.132.01h-.327c-1.822 0-3.299-1.575-3.299-3.517v-.036.073c.019 1.925 1.489 3.48 3.299 3.48h.327a1 1 0 0 0 .132-.01M1.184 9.337V7.891zm13.707 2.183c-.056 1.927-1.54 3.48-3.373 3.48h-.327a.945.945 0 0 1-.945-.945V8.761c0-.522.423-.945.945-.945h.327c.916 0 1.746.389 2.354 1.018v-.943a5.87 5.87 0 0 0-11.742 0v.943a3.27 3.27 0 0 1 2.354-1.018h.327c.522 0 .945.423.945.945v5.294A.945.945 0 0 1 4.81 15h-.327c-1.856 0-3.355-1.592-3.374-3.553V7.891a6.89 6.89 0 1 1 13.782 0z"/>
</svg>