<svg id="strib-help" viewBox="0 0 16 16" width="16" height="16" fill="currentcolor" class="strib-icon strib-help" xmlns="http://www.w3.org/2000/svg">
  <path d="M8 1a7.005 7.005 0 0 0-6.467 4.321A7 7 0 1 0 15 8a7 7 0 0 0-2.051-4.949A7 7 0 0 0 8 1m0 13a6 6 0 1 1-.001-12.002A6 6 0 0 1 8 14"/>
  <path d="M8 12.5A.75.75 0 1 0 8 11a.75.75 0 0 0 0 1.5M8.5 4h-.75a2.26 2.26 0 0 0-1.592.658A2.24 2.24 0 0 0 5.5 6.25v.25h1v-.25A1.25 1.25 0 0 1 7.75 5h.75a1.25 1.25 0 1 1 0 2.5h-1v2.25h1V8.5a2.25 2.25 0 1 0 0-4.5"/>
</svg>