<svg id="strib-home" viewBox="0 0 16 16" width="16" height="16" fill="currentcolor" class="strib-icon strib-home" xmlns="http://www.w3.org/2000/svg">
  <path d="M8 1.943a.46.46 0 0 0-.281.096L1 7.265l.563.723.821-.639v6.25c0 .253.205.458.458.458h3.597a.46.46 0 0 0 .458-.458V9.306h2.206v4.293c0 .253.205.458.458.458h3.597a.46.46 0 0 0 .458-.458v-6.25l.821.639.563-.723-6.711-5.219-.005-.005A.46.46 0 0 0 8 1.943M3.301 13.14V6.695L8 2.985l4.7 3.71v6.445h-2.681V8.848a.46.46 0 0 0-.458-.458H6.439a.46.46 0 0 0-.458.458v4.292z"/>
</svg>