<svg id="strib-image" viewBox="0 0 16 16" width="16" height="16" fill="currentcolor" class="strib-icon strib-image" xmlns="http://www.w3.org/2000/svg">
  <path d="M9.75 6.833a1.75 1.75 0 1 0 .001-3.5 1.75 1.75 0 0 0-.001 3.5m0-2.333a.585.585 0 0 1 .413.996.59.59 0 0 1-.636.126.585.585 0 0 1-.19-.951.6.6 0 0 1 .413-.171"/>
  <path d="M13.833 1H2.167A1.166 1.166 0 0 0 1 2.167v11.666A1.166 1.166 0 0 0 2.167 15h11.666A1.167 1.167 0 0 0 15 13.833V2.167A1.166 1.166 0 0 0 13.833 1m0 12.833H2.167v-3.5l2.916-2.916 3.261 3.261a1.17 1.17 0 0 0 1.645 0l.928-.928 2.916 2.917zm0-2.817-2.094-2.094a1.167 1.167 0 0 0-1.645 0l-.927.927-3.261-3.26a1.167 1.167 0 0 0-1.645 0L2.167 8.682V2.167h11.666z"/>
</svg>