<svg id="strib-latest" viewBox="0 0 16 16" width="16" height="16" fill="currentcolor" class="strib-icon strib-latest" xmlns="http://www.w3.org/2000/svg">
  <path d="M3.608 13.137a.235.235 0 0 0 .029.337q.237.19.491.358a.233.233 0 0 0 .329-.075l.318-.516a.25.25 0 0 0-.075-.336 6 6 0 0 1-.355-.259.25.25 0 0 0-.343.03zm-1.364-1.592a.236.236 0 0 0-.075.33q.168.252.359.49a.233.233 0 0 0 .336.029l.461-.395a.247.247 0 0 0 .03-.342 6 6 0 0 1-.259-.355.25.25 0 0 0-.336-.075zm-.81-1.934a.235.235 0 0 0-.173.29 7 7 0 0 0 .191.579.235.235 0 0 0 .311.131l.56-.236a.25.25 0 0 0 .134-.317 6 6 0 0 1-.137-.415.25.25 0 0 0-.296-.176zm4.51 3.933a.25.25 0 0 0-.317.133l-.235.56a.235.235 0 0 0 .132.312q.284.108.578.191a.236.236 0 0 0 .29-.174l.144-.589a.25.25 0 0 0-.176-.296 7 7 0 0 1-.416-.137M1.869 8.519a.25.25 0 0 0 .225-.26v-.018A.25.25 0 0 0 1.847 8h-.606a.234.234 0 0 0-.237.241l.004.108a.234.234 0 0 0 .256.22zM8 1a6.97 6.97 0 0 0-5.367 2.505V1H1.544v3.474c0 .444.36.803.804.803h3.474V4.189h-2.34a5.916 5.916 0 0 1 8.021-.95 5.907 5.907 0 0 1-.662 9.945 5.9 5.9 0 0 1-3.34.706l-.091 1.086Q7.703 15 8 15a7 7 0 0 0 4.949-2.051 6.993 6.993 0 0 0 0-9.898A7 7 0 0 0 8 1"/>
  <path d="M8.525 3.981H7.479v3.854c0 .292.159.561.414.703l3.323 1.873.508-.913-3.199-1.805z"/>
</svg>