<svg id="strib-link" viewBox="0 0 16 16" width="16" height="16" fill="currentcolor" class="strib-icon strib-link" xmlns="http://www.w3.org/2000/svg">
  <path d="M14.215 3.433a2.65 2.65 0 0 0-.867-.623 2.5 2.5 0 0 0-2.047 0 2.65 2.65 0 0 0-.867.623l.632.678c.165-.179.362-.32.579-.416a1.68 1.68 0 0 1 1.364 0c.217.096.414.237.579.416.165.177.297.388.386.62a2.03 2.03 0 0 1 0 1.464 1.9 1.9 0 0 1-.386.62l-3.558 3.818a1.72 1.72 0 0 1-1.26.561 1.72 1.72 0 0 1-1.26-.558 2 2 0 0 1-.524-1.352c0-.507.188-.993.521-1.351l.627-.678-.627-.678-.631.678a2.9 2.9 0 0 0-.581.93 3.04 3.04 0 0 0 0 2.196c.135.348.332.663.581.929.503.533 1.183.83 1.89.826.353.001.702-.071 1.028-.216.327-.144.622-.356.872-.624l3.558-3.817A2.97 2.97 0 0 0 15 5.454a2.97 2.97 0 0 0-.785-2.021"/>
  <path d="M2.431 11.889a1.9 1.9 0 0 1-.388-.622 2.05 2.05 0 0 1 0-1.467 1.9 1.9 0 0 1 .388-.62l3.557-3.824c.165-.179.361-.32.577-.417a1.66 1.66 0 0 1 1.365 0c.217.097.413.238.578.417s.295.392.381.626.13.484.126.735c0 .253-.044.504-.134.738-.089.234-.22.446-.386.625l-.943 1.028.631.678.943-1.013c.501-.54.783-1.271.783-2.034s-.282-1.493-.783-2.033a2.6 2.6 0 0 0-1.892-.843c-.71 0-1.39.304-1.891.843L1.787 8.529a2.9 2.9 0 0 0-.583.932 3.06 3.06 0 0 0 0 2.203c.136.349.334.666.583.933a2.58 2.58 0 0 0 1.894.812 2.6 2.6 0 0 0 1.902-.841l-.631-.679c-.165.178-.362.32-.578.416a1.67 1.67 0 0 1-1.365 0 1.8 1.8 0 0 1-.578-.416"/>
</svg>