<svg id="strib-location-precise-filled" viewBox="0 0 16 16" width="16" height="16" fill="currentcolor" class="strib-icon strib-location-precise-filled" xmlns="http://www.w3.org/2000/svg">
  <path d="M8 5.502a2.497 2.497 0 1 0-.001 4.995A2.497 2.497 0 0 0 8 5.502"/>
  <path d="M1 7.994h3.648V8A3.367 3.367 0 0 0 8 11.352 3.367 3.367 0 0 0 11.352 8v-.006H15v.433h-1.298c-.213 2.812-2.513 5.063-5.275 5.275V15h-.854v-1.299c-2.754-.217-4.997-2.515-5.209-5.274H1zm14 0h-3.648A3.367 3.367 0 0 0 8 4.648a3.367 3.367 0 0 0-3.352 3.346H1v-.421h1.363a5.654 5.654 0 0 1 5.21-5.21V1h.854v1.363c2.815.203 5.067 2.4 5.275 5.21H15z"/>
</svg>