<svg id="strib-location-map-filled" viewBox="0 0 16 16" width="16" height="16" fill="currentcolor" class="strib-icon strib-location-map-filled" xmlns="http://www.w3.org/2000/svg">
  <path d="m5.221 1.484-4.01 1.97c-.141.07-.211.281-.211.422v9.145q0 .212.211.423c.07.07.141.07.211.07s.141 0 .211-.07l3.588-1.759zm3.729 9.075c0-.633.211-1.196.492-1.688V3.102L6.065 1.484v10.201l3.307 1.688v-1.055c-.281-.633-.422-1.196-.422-1.759m3.447-2.603c-1.407 0-2.603 1.126-2.603 2.533 0 1.547 2.04 3.588 2.251 3.869l.352.352.352-.352C12.96 14.147 15 12.036 15 10.489c0-1.337-1.196-2.533-2.603-2.533m1.055 2.603c0 .563-.492 1.055-1.055 1.055a1.08 1.08 0 0 1-1.055-1.055c0-.563.492-1.055 1.055-1.055s1.055.422 1.055 1.055m-1.055-3.518c.774 0 1.548.282 2.111.774v-6.05q0-.211-.211-.422a.45.45 0 0 0-.422 0l-3.588 1.759v4.643c.633-.422 1.336-.704 2.11-.704"/>
</svg>