<svg id="strib-location" viewBox="0 0 16 16" width="16" height="16" fill="currentcolor" class="strib-icon strib-location" xmlns="http://www.w3.org/2000/svg">
  <path d="M8 9a2.5 2.5 0 0 1-2.31-1.543 2.5 2.5 0 0 1-.142-1.445 2.495 2.495 0 0 1 1.964-1.963 2.49 2.49 0 0 1 2.566 1.063 2.494 2.494 0 0 1-.311 3.155A2.5 2.5 0 0 1 8 9m0-3.999a1.49 1.49 0 0 0-1.386.925 1.502 1.502 0 0 0 1.96 1.96A1.5 1.5 0 0 0 9.5 6.5 1.5 1.5 0 0 0 8 5.001"/>
  <path d="m8 15-4.218-4.975-.174-.224A5.44 5.44 0 0 1 2.5 6.5 5.504 5.504 0 0 1 8 1a5.5 5.5 0 0 1 5.5 5.5 5.44 5.44 0 0 1-1.108 3.299v.002s-.15.196-.173.223zM4.406 9.198c.001 0 .117.154.144.186L8 13.454l3.455-4.075c.022-.027.139-.182.139-.183a4.44 4.44 0 0 0 .905-2.696 4.5 4.5 0 1 0-8.998 0 4.45 4.45 0 0 0 .905 2.698"/>
</svg>