<svg id="strib-location-map" viewBox="0 0 16 16" width="16" height="16" fill="currentcolor" class="strib-icon strib-location-map" xmlns="http://www.w3.org/2000/svg">
  <path d="M14.361 1.361c.135.083.217.23.217.389v5.311h-.915V2.489l-3.306 1.654v3.692h-.915V4.143L6.136 2.489v8.124l3.392 1.696-.409.818-3.441-1.721-4.016 2.009A.458.458 0 0 1 1 13.006V3.86c0-.173.098-.331.253-.409l4.213-2.106a.45.45 0 0 1 .425 0l4.008 2.004 4.017-2.008a.46.46 0 0 1 .445.02m-9.14 9.252V2.489L1.915 4.143v8.123zm6.888 3.771.323-.323.324.323-.324.324zm-.099-3.418c-.141-.071-.141-.282-.141-.423 0-.14.07-.281.141-.422.035-.035.07-.052.105-.07s.071-.035.106-.07a.6.6 0 0 1 .492 0c.071 0 .141.07.211.14.141.141.141.282.141.422s-.07.282-.141.423c-.211.14-.351.14-.492.14s-.282-.07-.422-.14"/>
  <path d="M10.304 12.011h1.06q.18.281.379.545c.249.332.499.624.689.836.191-.212.441-.504.69-.836.131-.175.26-.358.379-.545h1.059a9 9 0 0 1-.707 1.093 13 13 0 0 1-1.07 1.253l-.027.027-.324-.323-.323.323-.008-.007-.019-.02-.071-.074a13 13 0 0 1-1-1.179 9 9 0 0 1-.707-1.093m4.256 0h-1.059q.17-.264.303-.529c.185-.37.281-.69.281-.939 0-.943-.709-1.653-1.653-1.653-.943 0-1.653.71-1.653 1.653 0 .249.097.569.281.939q.134.265.304.529h-1.06l-.062-.12c-.21-.421-.378-.892-.378-1.348 0-1.448 1.12-2.567 2.568-2.567 1.449 0 2.568 1.119 2.568 2.567 0 .456-.167.927-.378 1.348z"/>
</svg>