<svg id="strib-location-precise" viewBox="0 0 16 16" width="16" height="16" fill="currentcolor" class="strib-icon strib-location-precise" xmlns="http://www.w3.org/2000/svg">
  <path d="M8.427 1v1.331a5.705 5.705 0 0 1 5.242 5.242H15v.854h-1.331a5.705 5.705 0 0 1-5.242 5.242V15h-.854v-1.331a5.705 5.705 0 0 1-5.242-5.242H1v-.854h1.331a5.705 5.705 0 0 1 5.242-5.242V1zM3.169 7.999v.002c.001 2.656 2.175 4.83 4.831 4.83A4.847 4.847 0 0 0 12.831 8c0-2.656-2.174-4.83-4.83-4.831h-.002a4.847 4.847 0 0 0-4.83 4.83M8 5.601A2.364 2.364 0 0 0 5.601 8 2.364 2.364 0 0 0 8 10.399 2.364 2.364 0 0 0 10.399 8 2.364 2.364 0 0 0 8 5.601M6.455 8c0-.881.664-1.545 1.545-1.545S9.545 7.119 9.545 8 8.881 9.545 8 9.545 6.455 8.881 6.455 8"/>
</svg>