<svg id="strib-lock-filled" viewBox="0 0 16 16" width="16" height="16" fill="currentcolor" class="strib-icon strib-lock-filled" xmlns="http://www.w3.org/2000/svg">
  <path d="M4.57 6.599V4.35A3.447 3.447 0 0 1 8 1a3.447 3.447 0 0 1 3.43 3.35v2.249h-1.083V4.35A2.36 2.36 0 0 0 8 2.004 2.36 2.36 0 0 0 5.653 4.35v2.249zm6.86 0v.098h.18a2 2 0 0 1 1.986 1.985v4.333A1.995 1.995 0 0 1 11.61 15H4.39a1.995 1.995 0 0 1-1.986-1.985V8.682c0-1.089.897-1.985 1.986-1.985h.18v-.098h1.083v.098h4.694v-.098zm-4.196 4.294q.101.1.224.171v1.589h1.084v-1.589q.122-.07.224-.171a1.09 1.09 0 0 0 0-1.532 1.08 1.08 0 0 0-1.532 0c-.42.42-.42 1.111 0 1.532"/>
</svg>