<svg id="strib-lock" viewBox="0 0 16 16" width="16" height="16" fill="currentcolor" class="strib-icon strib-lock" xmlns="http://www.w3.org/2000/svg">
  <path d="M7.234 10.893a1.09 1.09 0 0 1 0-1.532 1.082 1.082 0 0 1 1.848.765c0 .387-.206.745-.54.938v1.589H7.458v-1.589a1 1 0 0 1-.224-.171"/>
  <path d="M11.43 6.655v.042h.18a2 2 0 0 1 1.986 1.985v4.333A1.995 1.995 0 0 1 11.61 15H4.39a1.995 1.995 0 0 1-1.986-1.985V8.682c0-1.089.897-1.985 1.986-1.985h.18v-.042h1.083v.042h4.694v-.042zm.18 1.125H4.388a.906.906 0 0 0-.901.901v4.334a.91.91 0 0 0 .903.902h7.222a.906.906 0 0 0 .901-.901V8.682a.91.91 0 0 0-.903-.902M4.57 6.655V4.35A3.447 3.447 0 0 1 8 1a3.447 3.447 0 0 1 3.43 3.35v2.305h-1.083V4.35A2.36 2.36 0 0 0 8 2.004 2.36 2.36 0 0 0 5.653 4.35v2.305z"/>
</svg>