<svg id="strib-log-in-left" viewBox="0 0 16 16" width="16" height="16" fill="currentcolor" class="strib-icon strib-log-in-left" xmlns="http://www.w3.org/2000/svg" clip-rule="evenodd" fill-rule="evenodd">
  <path d="M7.721 5.299a.06.06 0 0 1 .04-.016q.023 0 .039.016l.8.8a.055.055 0 0 1 0 .08L7.401 7.378h7.543c.031 0 .056.026.056.056v1.132c0 .03-.025.056-.056.056H7.401l1.199 1.2a.054.054 0 0 1 0 .079l-.8.8a.06.06 0 0 1-.039.017.06.06 0 0 1-.04-.017L5.459 8.439a.62.62 0 0 1 0-.879z"/>
  <path d="M1.566 1.405A.565.565 0 0 0 1 1.971v12.058c0 .313.253.566.566.566h8.29a.565.565 0 0 0 .565-.566v-3.203h-1.13v2.639H2.13V2.535h7.161v2.639h1.13V1.971a.565.565 0 0 0-.565-.566z"/>
</svg>