<svg id="strib-log-out-right" viewBox="0 0 16 16" width="16" height="16" fill="currentcolor" class="strib-icon strib-log-out-right" xmlns="http://www.w3.org/2000/svg">
  <path d="M12.557 5.299a.06.06 0 0 0-.08 0l-.799.8a.055.055 0 0 0 0 .08l1.199 1.199H5.334a.057.057 0 0 0-.056.056v1.132c0 .03.025.056.056.056h7.543l-1.199 1.2a.054.054 0 0 0 0 .079l.799.8a.06.06 0 0 0 .04.017q.024-.001.04-.017l2.262-2.262a.62.62 0 0 0-.001-.879z"/>
  <path d="M1.566 1.405A.565.565 0 0 0 1 1.971v12.058c0 .313.253.566.566.566h8.291a.565.565 0 0 0 .564-.566v-3.203h-1.13v2.639H2.13V2.535h7.161v2.639h1.13V1.971a.565.565 0 0 0-.564-.566z"/>
</svg>