<svg id="strib-log-in-right" viewBox="0 0 16 16" width="16" height="16" fill="currentcolor" class="strib-icon strib-log-in-right" xmlns="http://www.w3.org/2000/svg">
  <path d="M8.279 5.299a.06.06 0 0 0-.04-.016.06.06 0 0 0-.039.016l-.8.8a.055.055 0 0 0 0 .08l1.199 1.199H1.056A.057.057 0 0 0 1 7.434v1.132c0 .03.025.056.056.056h7.543L7.4 9.822a.054.054 0 0 0 0 .079l.8.8q.016.016.039.017.024-.001.04-.017l2.262-2.262a.62.62 0 0 0 0-.879z"/>
  <path d="M14.434 1.405c.313 0 .566.253.566.566v12.058a.565.565 0 0 1-.566.566h-8.29a.565.565 0 0 1-.565-.566v-3.203h1.13v2.639h7.161V2.535H6.709v2.639h-1.13V1.971c0-.313.253-.566.565-.566z"/>
</svg>