<svg id="strib-microphone" viewBox="0 0 16 16" width="16" height="16" fill="currentcolor" class="strib-icon strib-microphone" xmlns="http://www.w3.org/2000/svg">
  <path d="M11.5 7v1.5c0 1.92-1.58 3.5-3.5 3.5s-3.5-1.58-3.5-3.5V7h-.999v1.5A4.516 4.516 0 0 0 7.5 12.97V14h-2v1h5.001v-1h-2v-1.03A4.516 4.516 0 0 0 12.5 8.5V7z"/>
  <path d="M8 11a2.513 2.513 0 0 0 2.501-2.5v-5C10.501 2.128 9.371 1 8 1a2.51 2.51 0 0 0-2.5 2.5v5C5.5 9.871 6.629 11 8 11M6.501 3.5C6.501 2.677 7.177 2 8 2s1.5.677 1.5 1.5v5c0 .823-.676 1.5-1.5 1.5a1.506 1.506 0 0 1-1.499-1.5z"/>
</svg>