<svg id="strib-news" viewBox="0 0 16 16" width="16" height="16" fill="currentcolor" class="strib-icon strib-news" xmlns="http://www.w3.org/2000/svg">
  <path d="M4.237 7.474h4.288v1.051H4.237zm0-3.237h4.288v1.052H4.237zm0 6.474h4.288v1.052H4.237z"/>
  <path d="M1 1.526C1 1.235 1.235 1 1.526 1h9.711c.29 0 .526.235.526.526v1.092h2.549a.74.74 0 0 1 .403.129 1 1 0 0 1 .114.091l.01.008.006.007s.001.001-.371.372l.372-.371a.52.52 0 0 1 .154.371v11.087a.74.74 0 0 1-.195.49l-.009.011-.03.032s-.001.001-.373-.371l.372.372a.52.52 0 0 1-.372.154H3.306A2.33 2.33 0 0 1 1 12.694zm10.763 10.763a1.65 1.65 0 0 0 1.659 1.659h.526V3.67h-2.185zM10.711 2.052H2.052v10.642c0 .68.574 1.254 1.254 1.254h7.967a2.7 2.7 0 0 1-.562-1.659z"/>
</svg>