<svg id="strib-notification-new" viewBox="0 0 16 16" width="16" height="16" fill="currentcolor" class="strib-icon strib-notification-new" xmlns="http://www.w3.org/2000/svg">
  <path d="M12.586 8.525V7.276h-.966v1.448c0 .128.052.251.142.342l1.307 1.307v.765H2.449v-.765l1.306-1.307a.48.48 0 0 0 .141-.342V6.793a3.854 3.854 0 0 1 5.793-3.339V2.375a4.8 4.8 0 0 0-1.447-.385V1h-.966v.989a4.835 4.835 0 0 0-4.345 4.804v1.732L1.624 9.831a.5.5 0 0 0-.141.342v1.447a.487.487 0 0 0 .482.484h3.38v.482A2.41 2.41 0 0 0 7.758 15a2.4 2.4 0 0 0 1.707-.707 2.4 2.4 0 0 0 .708-1.707v-.482h3.378a.48.48 0 0 0 .484-.484v-1.447a.48.48 0 0 0-.142-.342zm-3.379 4.061a1.445 1.445 0 0 1-1.449 1.449 1.45 1.45 0 0 1-1.447-1.449v-.482h2.896z"/>
  <path d="M12.586 6.311a1.932 1.932 0 0 0 0-3.862 1.931 1.931 0 1 0 0 3.862"/>
</svg>