<svg id="strib-notification-filled" viewBox="0 0 16 16" width="16" height="16" fill="currentcolor" class="strib-icon strib-notification-filled" xmlns="http://www.w3.org/2000/svg">
  <path d="m14.135 9.831-1.308-1.306V6.793a4.84 4.84 0 0 0-4.344-4.804V1h-.966v.989a4.84 4.84 0 0 0-4.344 4.804v1.732L1.865 9.831a.5.5 0 0 0-.141.342v1.447a.487.487 0 0 0 .483.484h3.379v.482A2.41 2.41 0 0 0 8 15a2.414 2.414 0 0 0 2.414-2.414v-.482h3.379a.484.484 0 0 0 .483-.484v-1.447a.5.5 0 0 0-.141-.342m-4.686 2.755a1.45 1.45 0 0 1-2.473 1.024 1.45 1.45 0 0 1-.425-1.024v-.482h2.898z"/>
</svg>