<svg id="strib-notification-off" viewBox="0 0 16 16" width="16" height="16" fill="currentcolor" class="strib-icon strib-notification-off" xmlns="http://www.w3.org/2000/svg">
  <path d="M12.827 8.525V6.793c0-.756-.179-1.5-.522-2.173l2.454-2.455-.683-.682L1.241 14.318l.683.682 2.897-2.897h.765v.483a2.413 2.413 0 0 0 4.828 0v-.483h3.379a.484.484 0 0 0 .483-.483v-1.447a.5.5 0 0 0-.141-.342zm-3.379 4.061A1.445 1.445 0 0 1 8 14.034a1.447 1.447 0 0 1-1.448-1.448v-.483h2.896zm3.862-1.448H5.786l5.792-5.793c.188.461.284.952.284 1.448v1.931c0 .128.051.251.142.342l1.306 1.306zM3.996 9.066a.48.48 0 0 0 .142-.342V6.793a3.86 3.86 0 0 1 1.133-2.729A3.86 3.86 0 0 1 8 2.931c.876 0 1.726.301 2.407.854l.689-.689A4.8 4.8 0 0 0 8.483 1.99V1h-.966v.99a4.83 4.83 0 0 0-4.344 4.803v1.732L1.724 9.972l.683.684z"/>
</svg>