<svg id="strib-notification" viewBox="0 0 16 16" width="16" height="16" fill="currentcolor" class="strib-icon strib-notification" xmlns="http://www.w3.org/2000/svg">
  <path d="m14.134 9.831-1.307-1.307V6.793a4.836 4.836 0 0 0-4.344-4.804V1h-.966v.989a4.836 4.836 0 0 0-4.344 4.804v1.731L1.866 9.831a.48.48 0 0 0-.142.341v1.449a.48.48 0 0 0 .483.482h3.379v.376a2.49 2.49 0 0 0 2.172 2.509c.336.034.675-.004.995-.11a2.4 2.4 0 0 0 1.452-1.313 2.4 2.4 0 0 0 .209-.978v-.484h3.379a.48.48 0 0 0 .483-.482v-1.449a.48.48 0 0 0-.142-.341m-4.685 2.756a1.447 1.447 0 0 1-2.898 0v-.484h2.898zm3.862-1.449H2.689v-.766l1.307-1.306a.5.5 0 0 0 .142-.342V6.793a3.861 3.861 0 0 1 7.724 0v1.931c0 .128.051.25.142.342l1.307 1.306z"/>
</svg>