<svg id="strib-phone-filled" viewBox="0 0 16 16" width="16" height="16" fill="currentcolor" class="strib-icon strib-phone-filled" xmlns="http://www.w3.org/2000/svg">
  <path d="M13.385 15h-.092C2.711 14.392 1.209 5.464.999 2.739a1.6 1.6 0 0 1 .383-1.178A1.6 1.6 0 0 1 2.485 1h2.968a1.08 1.08 0 0 1 1.002.679l.818 2.014a1.08 1.08 0 0 1-.238 1.162L5.889 6.013a5.045 5.045 0 0 0 4.081 4.092l1.169-1.157a1.07 1.07 0 0 1 1.168-.221l2.031.814c.197.082.365.221.484.399.117.179.18.388.178.601v2.844c0 .428-.17.839-.473 1.143a1.62 1.62 0 0 1-1.142.472"/>
</svg>