<svg id="strib-phone" viewBox="0 0 16 16" width="16" height="16" fill="currentcolor" class="strib-icon strib-phone" xmlns="http://www.w3.org/2000/svg">
  <path d="M13.385 15h-.092C2.711 14.392 1.209 5.464.999 2.739a1.6 1.6 0 0 1 .383-1.178A1.6 1.6 0 0 1 2.485 1h2.968a1.08 1.08 0 0 1 1.002.679l.818 2.014a1.08 1.08 0 0 1-.238 1.162L5.889 6.013a5.045 5.045 0 0 0 4.081 4.092l1.169-1.157a1.07 1.07 0 0 1 1.168-.221l2.031.814c.197.082.365.221.484.399.117.179.18.388.178.601v2.844c0 .428-.17.839-.473 1.143a1.62 1.62 0 0 1-1.142.472M2.615 2.076a.54.54 0 0 0-.539.539v.043c.248 3.188 1.837 10.727 11.276 11.265a.53.53 0 0 0 .39-.134.54.54 0 0 0 .181-.372v-2.876l-2.03-.813-1.546 1.535-.258-.031c-4.685-.588-5.321-5.272-5.321-5.321l-.031-.258 1.529-1.546-.808-2.031z"/>
</svg>