<svg id="strib-photo" viewBox="0 0 16 16" width="16" height="16" fill="currentcolor" class="strib-icon strib-photo" xmlns="http://www.w3.org/2000/svg">
  <path d="M10.14 6.077a1.015 1.015 0 1 0 .001-2.03 1.015 1.015 0 0 0-.001 2.03"/>
  <path d="M14.492 1H1.435Q1 1 1 1.435v13.057c0 .291.217.508.435.508h13.057a.495.495 0 0 0 .508-.508V1.435c0-.29-.217-.435-.508-.435m-.507.871v7.833l-1.379-1.377c-.87-.798-1.958-.798-2.829 0l-.362.435-1.814-1.814c-.87-.798-1.959-.798-2.829 0L1.943 9.777V1.871zM1.871 14.057V11.01l3.481-3.481c.508-.508 1.016-.436 1.523 0l3.627 3.627.654-.654-1.089-1.087.363-.363q.762-.762 1.524 0l2.031 2.031v2.974z"/>
</svg>