<svg id="strib-pinned" viewBox="0 0 16 16" width="16" height="16" fill="currentcolor" class="strib-icon strib-pinned" xmlns="http://www.w3.org/2000/svg">
  <path d="m14.569 4.836-3.43-3.429a1.39 1.39 0 0 0-1.965 0A3.8 3.8 0 0 0 8.06 4.235l-.949.949a5.45 5.45 0 0 0-4.552.694 1.35 1.35 0 0 0-.591.997 1.4 1.4 0 0 0 .403 1.128l2.414 2.413-3.59 3.59a.581.581 0 1 0 .822.822l3.59-3.59 2.366 2.366a1.4 1.4 0 0 0 1.128.404c.408-.04.77-.256.995-.591a5.45 5.45 0 0 0 .696-4.553l.949-.949a3.8 3.8 0 0 0 2.828-1.113 1.393 1.393 0 0 0 0-1.966m-.822 1.144a2.64 2.64 0 0 1-2.166.759.58.58 0 0 0-.475.166l-1.39 1.39a.58.58 0 0 0-.134.613 4.28 4.28 0 0 1-.451 3.86c-.04.06-.1.078-.143.082a.23.23 0 0 1-.193-.068L3.193 7.181a.24.24 0 0 1-.068-.193.19.19 0 0 1 .082-.143 4.28 4.28 0 0 1 3.86-.451.58.58 0 0 0 .613-.135l1.39-1.39a.58.58 0 0 0 .166-.474 2.65 2.65 0 0 1 .759-2.166.226.226 0 0 1 .321 0l3.43 3.43a.226.226 0 0 1 0 .321z"/>
</svg>