<svg id="strib-podium" viewBox="0 0 16 16" width="16" height="16" fill="currentcolor" class="strib-icon strib-podium" xmlns="http://www.w3.org/2000/svg">
  <path d="m2.646 6.004-.183-.8a.47.47 0 0 1 .459-.577h.98v-.979C3.902 2.154 5.056 1 6.549 1h.472v.943h-.472c-.973 0-1.704.732-1.704 1.705v.979h8.233a.47.47 0 0 1 .456.589l-.203.788h-.973l.112-.434H3.514l.099.434zm10.685 0-.438 1.706a.8.8 0 0 1-.315.562.96.96 0 0 1-.588.2h-.667l-.62 5.585h1.395V15H3.902v-.943h1.395l-.621-5.585H4.01a1.02 1.02 0 0 1-.967-.73l-.397-1.738h.967l.341 1.492.018.018a.1.1 0 0 0 .038.014h7.956l.002-.008.39-1.516zm-7.085 8.053h3.508l.621-5.585h-4.75z"/>
</svg>