<svg id="strib-reply" viewBox="0 0 16 16" width="16" height="16" fill="currentcolor" class="strib-icon strib-reply" xmlns="http://www.w3.org/2000/svg">
  <path d="M14.459 14.516a.49.49 0 0 1-.424-.242 7.34 7.34 0 0 0-6.275-3.619v2.895a.48.48 0 0 1-.299.444.48.48 0 0 1-.526-.101L1.142 8.101A.5.5 0 0 1 1 7.758a.5.5 0 0 1 .142-.343l5.793-5.792a.482.482 0 0 1 .742.076.5.5 0 0 1 .083.268v2.948A8.3 8.3 0 0 1 15 13.12a8 8 0 0 1-.062.966.49.49 0 0 1-.382.415zm-6.94-4.828a8.52 8.52 0 0 1 6.516 2.897 7.4 7.4 0 0 0-2.156-4.632 7.4 7.4 0 0 0-4.645-2.125.486.486 0 0 1-.439-.484V3.129L2.166 7.758l4.629 4.629v-2.215a.483.483 0 0 1 .482-.484h.261z"/>
</svg>