<svg id="strib-rewind-15" viewBox="0 0 16 16" width="16" height="16" fill="currentcolor" class="strib-icon strib-rewind-15" xmlns="http://www.w3.org/2000/svg">
  <path d="M4.547 1.693 2.774 3.465h7.111a5.026 5.026 0 0 1 5.013 5.014 5.026 5.026 0 0 1-5.013 5.013h-.49v-.98h.49a4.047 4.047 0 0 0 4.033-4.033 4.047 4.047 0 0 0-4.033-4.034H2.774l1.773 1.771-.694.694-2.607-2.609a.486.486 0 0 1 0-.692L3.853 1zM2.836 15V9.496h-.98V15zm1.772-5.504a.49.49 0 0 0-.49.49v2.263c0 .27.219.49.49.49h1.13a.67.67 0 0 1 .641.64.67.67 0 0 1-.641.641H4.079V15h1.659c.874 0 1.621-.748 1.621-1.621 0-.874-.747-1.62-1.621-1.62h-.64v-1.283H7.17v-.98z"/>
</svg>