<svg id="strib-search-jobs-filled" viewBox="0 0 16 16" width="16" height="16" fill="currentcolor" class="strib-icon strib-search-jobs-filled" xmlns="http://www.w3.org/2000/svg">
  <path d="m15 13.874-1.317-1.317q.416-.624.416-1.455a2.63 2.63 0 0 0-2.634-2.634 2.63 2.63 0 0 0-2.633 2.634 2.63 2.63 0 0 0 2.633 2.633q.832 0 1.456-.416l1.317 1.317zm-5.059-2.772c0-.832.693-1.525 1.524-1.525s1.525.693 1.525 1.525c0 .831-.693 1.524-1.525 1.524-.831 0-1.524-.623-1.524-1.524"/>
  <path d="M11.084 2.999v1.103h2.877c.346 0 .554.277.554.554v4.852a3.43 3.43 0 0 0-3.05-1.872C9.594 7.636 8 9.161 8 11.102c0 1.316.693 2.495 1.802 3.118H1.554A.546.546 0 0 1 1 13.666v-9.01c0-.277.277-.554.554-.554H4.5V2.999h1.04v1.103h4.505V2.999zm-6.584 0V1.884a.52.52 0 0 1 .52-.52h5.544a.52.52 0 0 1 .52.52v1.115h-1.039v-.596H5.54v.596z"/>
</svg>