<svg id="strib-search-jobs" viewBox="0 0 16 16" width="16" height="16" fill="currentcolor" class="strib-icon strib-search-jobs" xmlns="http://www.w3.org/2000/svg">
  <path d="M8.866 11.129c0-1.391 1.128-2.611 2.611-2.611 1.472 0 2.61 1.139 2.61 2.611 0 .541-.154 1.038-.422 1.449L15 13.914l-.738.738-1.336-1.335a2.64 2.64 0 0 1-1.449.422c-1.472 0-2.611-1.138-2.611-2.61m2.611-1.567c-.884 0-1.567.73-1.567 1.567 0 .895.672 1.566 1.567 1.566s1.566-.671 1.566-1.566-.671-1.567-1.566-1.567m-.383-6.538H10.05v-.632H5.525v.632H4.481V1.87c0-.288.233-.522.522-.522h5.569c.288 0 .522.234.522.522z"/>
  <path d="M4.481 3.024h1.044v1.109h4.525V3.024h1.044v1.109h2.959c.288 0 .522.233.522.522v3.724h-1.044V5.177H2.044v8.006h6.544v1.044H1.522A.52.52 0 0 1 1 13.705v-9.05c0-.289.234-.522.522-.522h2.959z"/>
</svg>