<svg id="strib-section-filled" viewBox="0 0 16 16" width="16" height="16" fill="currentcolor" class="strib-icon strib-section-filled" xmlns="http://www.w3.org/2000/svg">
  <path d="M1 1.777C1 1.348 1.348 1 1.777 1h4.667c.43 0 .779.348.779.777v4.667a.78.78 0 0 1-.779.779H1.777A.78.78 0 0 1 1 6.444zm7.777 0c0-.429.349-.777.779-.777h4.667c.429 0 .777.348.777.777v4.667c0 .43-.348.779-.777.779H9.556a.78.78 0 0 1-.779-.779zm-7 7A.78.78 0 0 0 1 9.556v4.667c0 .429.348.777.777.777h4.667c.43 0 .779-.348.779-.777V9.556a.78.78 0 0 0-.779-.779zm7 .779a.78.78 0 0 1 .779-.779h4.667c.429 0 .777.349.777.779v4.667a.777.777 0 0 1-.777.777H9.556a.78.78 0 0 1-.779-.777z"/>
</svg>