<svg id="strib-section" viewBox="0 0 16 16" width="16" height="16" fill="currentcolor" class="strib-icon strib-section" xmlns="http://www.w3.org/2000/svg">
  <path d="M1 11.638h.933v2.429h4.356v-2.429h.934v2.585a.78.78 0 0 1-.779.777H1.777A.78.78 0 0 1 1 14.223zm6.223 0h-.934V9.711H1.933v1.927H1V9.556c0-.43.348-.779.777-.779h4.667a.78.78 0 0 1 .779.779zm7.777 0v2.585a.777.777 0 0 1-.777.777H9.555a.78.78 0 0 1-.778-.777v-2.585h.934v2.429h4.356v-2.429zm-6.223 0V9.556a.78.78 0 0 1 .779-.779h4.667c.429 0 .777.349.777.779v2.082h-.933V9.711H9.711v1.927zM7.223 4.121v2.324a.78.78 0 0 1-.778.778H1.777A.78.78 0 0 1 1 6.445V4.121h.933v2.168h4.356V4.121zM1 4.121V1.777C1 1.348 1.348 1 1.777 1h4.667c.43 0 .779.348.779.777v2.344h-.934V1.933H1.933v2.188zm14 0v2.324a.78.78 0 0 1-.777.778H9.555a.78.78 0 0 1-.778-.778V4.121h.934v2.168h4.356V4.121zm-6.223 0V1.777c0-.429.349-.777.779-.777h4.667c.429 0 .777.348.777.777v2.344h-.933V1.933H9.711v2.188z"/>
</svg>