<svg id="strib-settings" viewBox="0 0 16 16" width="16" height="16" fill="currentcolor" class="strib-icon strib-settings" xmlns="http://www.w3.org/2000/svg">
  <path d="M13.513 7.614v.767l.947.868a1 1 0 0 1 .329.591c.037.23-.006.466-.123.667l-1.143 2.006a1 1 0 0 1-.868.501 1 1 0 0 1-.321-.05l-1.213-.411q-.318.21-.662.376l-.255 1.263A1.01 1.01 0 0 1 9.201 15H6.834a1.004 1.004 0 0 1-1.003-.808l-.256-1.263a6 6 0 0 1-.656-.376l-1.219.411a1 1 0 0 1-1.188-.451l-1.183-2.006a1.004 1.004 0 0 1 .205-1.279l.948-.842v-.767l-.948-.868a1 1 0 0 1-.205-1.258l1.183-2.006a1 1 0 0 1 .867-.501q.164-.01.321.03l1.194.431a6 6 0 0 1 .662-.376l.255-1.263c.046-.231.172-.438.355-.587.183-.147.413-.225.648-.221h2.347c.235-.004.465.074.648.221.183.149.309.356.354.587l.256 1.263q.34.166.657.376l1.218-.411q.157-.051.321-.05a1 1 0 0 1 .868.501l1.183 2.006c.124.202.173.44.139.674a1 1 0 0 1-.33.605zm-2.618 3.816 1.72.581 1.184-2.005-1.364-1.239a4.5 4.5 0 0 0 0-1.57l1.364-1.203-1.184-2.005-1.725.561a4.7 4.7 0 0 0-1.354-.787l-.355-1.78H6.814l-.356 1.8c-.496.18-.956.446-1.359.787l-1.72-.581-1.183 2.005L3.56 7.233a4.5 4.5 0 0 0 0 1.57l-1.364 1.203 1.183 2.005 1.725-.561a4.7 4.7 0 0 0 1.354.787l.356 1.78h2.367l.355-1.8c.497-.18.957-.446 1.359-.787m-4.569-.929a3 3 0 0 0 1.671.507A2.976 2.976 0 0 0 11.006 8a3 3 0 0 0-.508-1.672 3.01 3.01 0 0 0-5.28 2.824 3 3 0 0 0 1.108 1.349m.897-4.367c.246-.099.509-.146.774-.14A1.96 1.96 0 0 1 10.003 8a1.96 1.96 0 0 1-2.006 2.006 1.975 1.975 0 0 1-1.866-1.231A2 2 0 0 1 5.991 8a2 2 0 0 1 .14-.775 1.98 1.98 0 0 1 1.092-1.091"/>
</svg>