<svg id="strib-settings-filled" viewBox="0 0 16 16" width="16" height="16" fill="currentcolor" class="strib-icon strib-settings-filled" xmlns="http://www.w3.org/2000/svg" clip-rule="evenodd" fill-rule="evenodd">
  <path d="M13.513 7.614v.767l.947.868a1 1 0 0 1 .206 1.258l-1.143 2.006c-.179.31-.51.501-.868.501a1 1 0 0 1-.321-.05l-1.213-.411q-.318.21-.662.376l-.255 1.263c-.097.473-.52.814-1.003.808H6.834a1.006 1.006 0 0 1-1.003-.808l-.256-1.263a6 6 0 0 1-.656-.376l-1.219.411a1.004 1.004 0 0 1-1.188-.451l-1.183-2.006a1.01 1.01 0 0 1 .205-1.279l.948-.842v-.767l-.948-.868a1 1 0 0 1-.205-1.258l1.183-2.006a1 1 0 0 1 .867-.501q.164-.01.321.03l1.194.431q.319-.209.662-.376l.255-1.263c.046-.231.172-.438.355-.587.183-.147.413-.225.648-.221h2.347c.235-.004.465.074.648.221.183.149.309.356.354.587l.256 1.263q.34.166.657.376l1.218-.411q.157-.051.321-.05c.358 0 .689.191.868.501l1.183 2.006a1 1 0 0 1-.191 1.279zm-7.187 2.887a3 3 0 0 0 1.671.507h.033a2.99 2.99 0 0 0 2.976-2.976V8c0-.595-.177-1.177-.508-1.672a3.01 3.01 0 0 0-2.493-1.324 3.024 3.024 0 0 0-3.01 3.01c0 .39.076.777.223 1.138a3 3 0 0 0 1.108 1.349m.897-4.367c.246-.099.509-.146.774-.14l.047-.001a1.97 1.97 0 0 1 1.96 1.96L10.003 8l.001.047a1.97 1.97 0 0 1-1.96 1.96l-.047-.001a1.98 1.98 0 0 1-1.866-1.231A2 2 0 0 1 5.991 8a2 2 0 0 1 .14-.775c.201-.496.596-.89 1.092-1.091"/>
</svg>