<svg id="strib-settings-filled" viewBox="0 0 16 16" width="16" height="16" fill="currentcolor" class="strib-icon strib-settings-filled" xmlns="http://www.w3.org/2000/svg">
  <path d="m14.492 10.102-1.169-1.063a.41.41 0 0 1-.127-.367q.09-.692 0-1.384a.41.41 0 0 1 .133-.374l1.156-1.022a.42.42 0 0 0 .087-.528L13.543 3.62a.43.43 0 0 0-.494-.188l-1.477.482a.43.43 0 0 1-.381-.067 5.5 5.5 0 0 0-1.196-.695.44.44 0 0 1-.254-.301l-.301-1.51A.43.43 0 0 0 9.026 1H6.968a.42.42 0 0 0-.415.341l-.3 1.53a.42.42 0 0 1-.254.301 5.2 5.2 0 0 0-1.197.688.4.4 0 0 1-.387.067l-1.464-.495a.41.41 0 0 0-.494.188L1.428 5.37a.425.425 0 0 0 .08.528l1.169 1.063a.41.41 0 0 1 .127.367q-.09.692 0 1.384c.02.14-.026.28-.133.374l-1.156 1.022a.42.42 0 0 0-.087.528l1.029 1.744c.1.167.307.248.494.188l1.477-.482a.43.43 0 0 1 .381.067q.554.423 1.196.695a.44.44 0 0 1 .254.301l.301 1.51c.04.194.214.341.414.341h2.058c.201 0 .375-.14.415-.341l.3-1.53a.42.42 0 0 1 .254-.301 5.2 5.2 0 0 0 1.197-.688.4.4 0 0 1 .387-.067l1.464.495a.41.41 0 0 0 .494-.188l1.029-1.744a.426.426 0 0 0-.08-.528zm-4.464-1.257a2.1 2.1 0 0 1-.474.715 2.12 2.12 0 0 1-1.557.629 2.2 2.2 0 0 1-.842-.154 2.1 2.1 0 0 1-.715-.475 2 2 0 0 1-.475-.715 2.2 2.2 0 0 1-.154-.842 2.12 2.12 0 0 1 .629-1.557 2.12 2.12 0 0 1 1.557-.628 2.13 2.13 0 0 1 1.557.628c.2.207.367.448.474.715.107.268.161.555.154.842.007.288-.047.575-.154.842"/>
</svg>