<svg id="strib-shooting-star-down-right" viewBox="0 0 16 16" width="16" height="16" fill="currentcolor" class="strib-icon strib-shooting-star-down-right" xmlns="http://www.w3.org/2000/svg">
  <path d="M8.043 7.31 1.732 1 1 1.732l6.31 6.311zm3.316-.231a.516.516 0 0 0-.926 0L9.356 9.234l-2.131.355a.517.517 0 0 0-.281.877l1.411 1.41-.362 2.533a.518.518 0 0 0 .744.536l2.159-1.079 2.159 1.079a.516.516 0 0 0 .745-.536l-.362-2.533 1.41-1.41a.515.515 0 0 0-.281-.877l-2.13-.355zm-1.195 2.854.732-1.464.732 1.464a.52.52 0 0 0 .378.279l1.398.233-.882.882a.52.52 0 0 0-.146.439l.258 1.811-1.506-.753a.52.52 0 0 0-.463 0l-1.507.753.259-1.811a.52.52 0 0 0-.147-.439l-.882-.882 1.398-.233a.52.52 0 0 0 .378-.279M5.717 1l3.521 3.521-.732.733-3.522-3.522zm-.463 7.506L1.732 4.984 1 5.717l3.521 3.521z"/>
</svg>