<svg id="strib-shooting-star-up-right-filled" viewBox="0 0 16 16" width="16" height="16" fill="currentcolor" class="strib-icon strib-shooting-star-up-right-filled" xmlns="http://www.w3.org/2000/svg">
  <path d="M8.17 8.664 1.834 15 1 14.166 7.336 7.83zm2.703.59a.59.59 0 0 0 .528-.326l1.044-2.09 2.062-.344a.59.59 0 0 0 .32-.998l-1.363-1.364.351-2.459a.59.59 0 0 0-.847-.611L10.873 2.11 8.779 1.062a.59.59 0 0 0-.847.611l.351 2.459-1.364 1.364a.588.588 0 0 0 .32.998l2.062.344 1.045 2.09c.1.199.304.326.527.326M5.764 15l3.585-3.585-.834-.834-3.585 3.585zm-.345-7.515L1.834 11.07 1 10.236l3.585-3.585z"/>
</svg>