<svg id="strib-shooting-star-down-left" viewBox="0 0 16 16" width="16" height="16" fill="currentcolor" class="strib-icon strib-shooting-star-down-left" xmlns="http://www.w3.org/2000/svg" clip-rule="evenodd" fill-rule="evenodd">
  <path d="M7.957 7.31 14.268 1l.732.732-6.31 6.311zm-3.316-.231a.516.516 0 0 1 .926 0l1.077 2.155 2.131.355a.517.517 0 0 1 .281.877l-1.411 1.41.362 2.533a.518.518 0 0 1-.744.536l-2.159-1.079-2.159 1.079a.516.516 0 0 1-.745-.536l.362-2.533-1.41-1.41a.515.515 0 0 1 .281-.877l2.13-.355zm1.195 2.854-.732-1.464-.732 1.464a.52.52 0 0 1-.378.279l-1.398.233.882.882a.52.52 0 0 1 .146.439l-.258 1.811 1.506-.753a.52.52 0 0 1 .463 0l1.507.753-.259-1.811a.52.52 0 0 1 .147-.439l.882-.882-1.398-.233a.52.52 0 0 1-.378-.279M10.283 1 6.762 4.521l.732.733 3.522-3.522zm.463 7.506 3.522-3.522.732.733-3.521 3.521z"/>
</svg>