<svg id="strib-shooting-star-up-left-filled" viewBox="0 0 16 16" width="16" height="16" fill="currentcolor" class="strib-icon strib-shooting-star-up-left-filled" xmlns="http://www.w3.org/2000/svg">
  <path d="M7.83 8.664 14.166 15l.834-.834L8.664 7.83zm-2.703.59a.59.59 0 0 1-.528-.326l-1.044-2.09-2.062-.344a.59.59 0 0 1-.32-.998l1.363-1.364-.351-2.459a.59.59 0 0 1 .847-.611L5.127 2.11l2.094-1.048a.59.59 0 0 1 .847.611l-.351 2.459 1.364 1.364a.588.588 0 0 1-.32.998l-2.062.344-1.045 2.09a.59.59 0 0 1-.527.326M10.236 15l-3.585-3.585.834-.834 3.585 3.585zm.345-7.515 3.585 3.585.834-.834-3.585-3.585z"/>
</svg>