<svg id="strib-shooting-star-down-right-filled" viewBox="0 0 16 16" width="16" height="16" fill="currentcolor" class="strib-icon strib-shooting-star-down-right-filled" xmlns="http://www.w3.org/2000/svg">
  <path d="M8.17 7.336 1.834 1 1 1.834 7.336 8.17zm2.703-.59c.224 0 .428.127.528.326l1.044 2.09 2.062.344a.59.59 0 0 1 .32.998l-1.363 1.364.351 2.459a.59.59 0 0 1-.847.611l-2.095-1.048-2.094 1.048a.59.59 0 0 1-.847-.611l.351-2.459-1.364-1.364a.588.588 0 0 1 .32-.998l2.062-.344 1.045-2.09a.59.59 0 0 1 .527-.326M5.764 1l3.585 3.585-.834.834L4.93 1.834zm-.345 7.515L1.834 4.93 1 5.764l3.585 3.585z"/>
</svg>