<svg id="strib-social-threads-circle" viewBox="0 0 16 16" width="16" height="16" fill="currentcolor" class="strib-icon strib-social-threads-circle" xmlns="http://www.w3.org/2000/svg">
  <path d="M9.179 8.187q-.018.148-.041.291a1.8 1.8 0 0 1-.108.388 1 1 0 0 1-.328.436.9.9 0 0 1-.376.153 1.5 1.5 0 0 1-.393.021 1.06 1.06 0 0 1-.484-.153.57.57 0 0 1-.276-.384.57.57 0 0 1 .183-.55.9.9 0 0 1 .321-.185c.143-.05.29-.074.44-.085q.235-.016.47-.007.284.011.563.069z"/>
  <path d="M1 7.971A7.004 7.004 0 0 1 8 1c3.863 0 7 3.137 7 7s-3.137 7-7 7-7-3.137-7-7zh3.354v.031q.003.201.014.404a5.8 5.8 0 0 0 .235 1.371c.093.3.215.587.376.857a3.2 3.2 0 0 0 .663.799 3 3 0 0 0 .595.4q.317.162.663.255c.297.081.6.125.907.142l.134.009h.243q.051-.005.102-.007.34-.014.674-.077.398-.075.764-.244.348-.163.641-.41.24-.198.434-.442c.187-.242.326-.509.408-.804q.113-.403.075-.819a2.2 2.2 0 0 0-.122-.558 2 2 0 0 0-.209-.413 2.1 2.1 0 0 0-.585-.581 2.6 2.6 0 0 0-.429-.235q-.022-.008-.022-.032a3 3 0 0 0-.049-.393 2.1 2.1 0 0 0-.277-.732 1.56 1.56 0 0 0-.932-.681 2.2 2.2 0 0 0-.63-.073 2 2 0 0 0-.743.154 1.7 1.7 0 0 0-.641.478q-.063.079-.124.162l.61.418.014-.019a.97.97 0 0 1 .427-.35q.19-.081.398-.092c.183-.012.364.002.54.058a.83.83 0 0 1 .463.35c.096.148.148.312.18.484l.004.032c-.149-.015-.298-.033-.446-.043a4.5 4.5 0 0 0-.706.008q-.264.023-.517.105a1.7 1.7 0 0 0-.618.345 1.3 1.3 0 0 0-.362.53 1.35 1.35 0 0 0-.061.674q.049.33.252.596c.165.215.379.364.629.465q.3.119.621.133c.249.011.492-.016.73-.091q.292-.092.529-.286c.225-.186.384-.42.496-.688a2.7 2.7 0 0 0 .182-.703l.016.01q.08.052.158.111c.189.148.332.33.414.557q.12.333.075.684a1.54 1.54 0 0 1-.298.74 2.26 2.26 0 0 1-1.25.821c-.29.075-.585.103-.883.108a4 4 0 0 1-.611-.04 3 3 0 0 1-.715-.185q-.451-.178-.799-.518a2.6 2.6 0 0 1-.474-.659 4 4 0 0 1-.355-1.143 7 7 0 0 1-.074-.951 6 6 0 0 1 .057-.825q.046-.35.147-.689.095-.32.251-.615c.133-.248.297-.472.504-.664.223-.207.478-.361.761-.472.239-.093.487-.151.741-.184q.394-.052.79-.024c.327.023.646.081.954.195q.335.122.623.331.389.287.641.699c.141.228.246.471.328.725q.025.078.048.159l.713-.19-.045-.151a3.9 3.9 0 0 0-.526-1.098A3.2 3.2 0 0 0 9.58 4.023a4 4 0 0 0-1.123-.244 4.4 4.4 0 0 0-.607-.012 5 5 0 0 0-.503.05 3.7 3.7 0 0 0-.931.264 3 3 0 0 0-1.026.73 3.4 3.4 0 0 0-.461.64 4 4 0 0 0-.329.781 5 5 0 0 0-.185.867q-.032.284-.05.568a4 4 0 0 0-.011.304z"/>
</svg>