<svg id="strib-social-tiktok-circle" viewBox="0 0 16 16" width="16" height="16" fill="currentcolor" class="strib-icon strib-social-tiktok-circle" xmlns="http://www.w3.org/2000/svg">
  <path d="M8 1c3.863 0 7 3.137 7 7s-3.137 7-7 7-7-3.137-7-7 3.137-7 7-7m1.837 2.655H8.372v5.919c0 .705-.563 1.285-1.264 1.285s-1.264-.58-1.264-1.285c0-.692.55-1.259 1.226-1.284V6.804c-1.489.025-2.691 1.246-2.691 2.77 0 1.537 1.227 2.771 2.741 2.771s2.742-1.247 2.742-2.771V6.539a3.4 3.4 0 0 0 1.94.655V5.708a2.04 2.04 0 0 1-1.965-2.053"/>
</svg>