<svg id="strib-social-threads" viewBox="0 0 16 16" width="16" height="16" fill="currentcolor" class="strib-icon strib-social-threads" xmlns="http://www.w3.org/2000/svg">
  <path fill="var(--social-threads-logo, #000000)" d="m7.903 15-.222-.015a7 7 0 0 1-1.498-.234 5.6 5.6 0 0 1-1.095-.421 5 5 0 0 1-.982-.661A5.3 5.3 0 0 1 3.01 12.35a6.5 6.5 0 0 1-.619-1.415 9.5 9.5 0 0 1-.388-2.265c-.01-.222-.021-.445-.023-.667a7 7 0 0 1 .016-.552c.023-.313.046-.627.084-.939q.09-.729.306-1.432c.138-.448.315-.88.543-1.29q.317-.574.761-1.057a5 5 0 0 1 1.695-1.205 6 6 0 0 1 1.537-.437c.275-.042.552-.065.83-.081.335-.02.669-.008 1.002.019a6.7 6.7 0 0 1 1.855.404 5.23 5.23 0 0 1 2.469 1.927c.39.556.671 1.165.869 1.813l.074.249-1.177.314-.079-.262a5.4 5.4 0 0 0-.542-1.197 4.05 4.05 0 0 0-2.088-1.702 5.7 5.7 0 0 0-1.575-.322 6.6 6.6 0 0 0-1.305.04c-.42.054-.829.15-1.223.304a3.9 3.9 0 0 0-1.257.779 4.2 4.2 0 0 0-.833 1.097 5.5 5.5 0 0 0-.414 1.015 7.6 7.6 0 0 0-.243 1.138 9.4 9.4 0 0 0-.093 1.363q.005.439.039.877c.017.232.05.463.083.693q.068.453.197.892c.1.344.226.677.389.996.206.402.461.768.783 1.087.38.377.823.658 1.319.856.38.152.775.249 1.18.307q.503.072 1.011.064a6.2 6.2 0 0 0 1.456-.177 3.7 3.7 0 0 0 1.264-.582c.304-.22.578-.471.801-.774.27-.365.437-.771.492-1.222a2.4 2.4 0 0 0-.124-1.129 2.04 2.04 0 0 0-.683-.921c-.084-.066-.174-.123-.261-.184l-.027-.015q-.014.098-.03.19a4.4 4.4 0 0 1-.271.971 2.9 2.9 0 0 1-.818 1.135c-.259.216-.553.37-.874.472a3.5 3.5 0 0 1-1.205.151 3.2 3.2 0 0 1-1.026-.219 2.4 2.4 0 0 1-1.039-.768 2.1 2.1 0 0 1-.416-.985 2.24 2.24 0 0 1 .102-1.112c.123-.344.326-.633.598-.875a2.8 2.8 0 0 1 1.019-.57q.417-.135.855-.173a7 7 0 0 1 1.165-.014c.245.017.49.047.737.071L9.9 6.977a2.2 2.2 0 0 0-.295-.798 1.38 1.38 0 0 0-.766-.578 2.4 2.4 0 0 0-.892-.096 2 2 0 0 0-.657.151 1.6 1.6 0 0 0-.706.579l-.022.031-1.007-.69c.069-.091.134-.182.205-.268a2.8 2.8 0 0 1 1.057-.789 3.2 3.2 0 0 1 1.227-.255c.353-.006.7.028 1.041.122a2.56 2.56 0 0 1 1.539 1.124c.235.372.375.78.459 1.209q.061.322.079.649c.002.027.011.041.036.052q.374.16.71.389c.382.259.709.574.966.959q.214.32.344.682.162.448.203.922a3.76 3.76 0 0 1-.799 2.679 5 5 0 0 1-.715.731 4.8 4.8 0 0 1-1.059.677 5.3 5.3 0 0 1-1.262.403c-.368.071-.74.11-1.114.127q-.084.004-.168.011zm2.044-6.69L9.9 8.299a5.6 5.6 0 0 0-.931-.113 7 7 0 0 0-.775.011 2.8 2.8 0 0 0-.726.14 1.4 1.4 0 0 0-.531.306.95.95 0 0 0-.302.909c.053.28.219.483.455.633.244.156.515.226.8.252.217.02.433.005.648-.034.225-.04.435-.119.622-.253.255-.183.422-.433.54-.719q.127-.31.18-.641c.026-.159.045-.318.068-.48z"/>
</svg>