<svg id="strib-social-linkedin-circle" viewBox="0 0 16 16" width="16" height="16" fill="currentcolor" class="strib-icon strib-social-linkedin-circle" xmlns="http://www.w3.org/2000/svg">
  <path d="M1.513 5.366A7.01 7.01 0 0 1 8 1a7.01 7.01 0 0 1 6.487 4.366H6.198l.001-.017a.85.85 0 0 0-1.699 0v.017zm12.974 0A7.004 7.004 0 0 1 8 15a7.004 7.004 0 0 1-6.487-9.634H4.5a.85.85 0 0 0 1.698 0zm-4.45 1.335q-.082-.01-.168-.014a1.71 1.71 0 0 0-1.443.661c-.043.057-.064.091-.064.091v-.624H6.964v4.665h1.462v-2.3c-.003-.284-.005-.578.135-.835a.72.72 0 0 1 .651-.364c.808 0 .825.732.825.799v2.72H11.5V8.457c0-1.042-.529-1.655-1.463-1.756m-3.956.101H4.618v4.664h1.463z"/>
</svg>