<svg id="strib-social-youtube-circle" viewBox="0 0 16 16" width="16" height="16" fill="currentcolor" class="strib-icon strib-social-youtube-circle" xmlns="http://www.w3.org/2000/svg">
  <path d="M7.102 9.127V6.685L9.449 7.91z"/>
  <path d="M14.711 9.996A7.01 7.01 0 0 1 8 15a7.01 7.01 0 0 1-6.711-5.004h2.508c.051.195.142.452.289.601.331.346.766.334.959.371.696.067 2.955.087 2.955.087s1.826-.003 3.041-.09c.17-.02.54-.022.871-.368.148-.149.239-.406.291-.601zm-13.422 0A7.004 7.004 0 0 1 8 1a7.004 7.004 0 0 1 6.711 8.996h-2.508c.039-.149.055-.261.055-.261s.087-.703.087-1.407v-.659c0-.703-.087-1.407-.087-1.407s-.085-.599-.346-.862c-.331-.346-.701-.348-.871-.368-1.215-.089-3.039-.089-3.039-.089h-.004s-1.824 0-3.039.089c-.17.02-.54.022-.871.368-.261.263-.345.862-.345.862s-.088.704-.088 1.407v.659c0 .702.087 1.407.087 1.407s.016.112.055.261z"/>
</svg>