<svg id="strib-social-bluesky-circle" viewBox="0 0 16 16" width="16" height="16" fill="currentcolor" class="strib-icon strib-social-bluesky-circle" xmlns="http://www.w3.org/2000/svg">
  <path d="M8 1a7 7 0 1 1 0 14A7 7 0 0 1 8 1M6.025 5.335c-.577-.434-1.511-.771-1.511.299 0 .214.122 1.795.193 2.051.249.893 1.156 1.12 1.963.982-1.41.241-1.769 1.039-.994 1.836 1.471 1.515 2.115-.38 2.279-.865.049-.143.042-.14.09 0 .164.485.808 2.38 2.279.865.775-.797.416-1.595-.994-1.836.807.138 1.714-.089 1.963-.982.071-.256.193-1.837.193-2.051 0-1.07-.934-.733-1.511-.299C9.176 5.937 8.316 7.158 8 7.813c-.316-.655-1.176-1.876-1.975-2.478"/>
</svg>