<svg id="strib-social-x-circle" viewBox="0 0 16 16" width="16" height="16" fill="currentcolor" class="strib-icon strib-social-x-circle" xmlns="http://www.w3.org/2000/svg">
  <path d="M15 7.969V8c0 3.863-3.137 7-7 7s-7-3.137-7-7v-.031h5.789l.24.313-2.854 3.263h1.222L7.6 9.027l1.925 2.518h2.458L9.278 7.969zm-14 0A7.004 7.004 0 0 1 8 1a7.004 7.004 0 0 1 7 6.969H9.278l-.435-.575 2.669-3.05h-1.221L8.278 6.645l-1.74-2.301H4.017l2.772 3.625z"/>
  <path d="M8.388 7.969h-.702L5.444 5.037h.726zm-.702 0h.702l2.151 2.844h-.677z"/>
</svg>