<svg id="strib-social-spotify-circle" viewBox="0 0 16 16" width="16" height="16" fill="currentcolor" class="strib-icon strib-social-spotify-circle" xmlns="http://www.w3.org/2000/svg">
  <path d="M1 8.041V8c0-3.863 3.137-7 7-7s7 3.137 7 7-3.137 7-7 7a7.003 7.003 0 0 1-7-6.959h2.655a4.333 4.333 0 0 0 8.663-.054 4.332 4.332 0 1 0-8.663.054z"/>
  <path d="M9.973 9.902a.27.27 0 0 1-.371.09c-1.017-.621-2.298-.762-3.805-.418a.27.27 0 1 1-.121-.526c1.651-.377 3.066-.215 4.208.483a.27.27 0 0 1 .089.371m.576-2.407c-1.396-.83-3.7-.906-5.032-.501a.406.406 0 0 1-.236-.776c1.53-.464 4.074-.374 5.681.58a.405.405 0 1 1-.413.697m-.046 1.228a.337.337 0 0 1-.464.111c-1.165-.716-2.939-.923-4.317-.505a.337.337 0 1 1-.196-.646c1.573-.477 3.529-.246 4.866.576a.337.337 0 0 1 .111.464"/>
</svg>