<svg id="strib-social-bluesky" viewBox="0 0 16 16" width="16" height="16" fill="currentcolor" class="strib-icon strib-social-bluesky" xmlns="http://www.w3.org/2000/svg">
    <path fill="var(--social-bluesky-logo, #1184FE)" d="M4.035,2.666C5.64,3.871 7.366,6.315 8,7.626C8.634,6.315 10.36,3.871 11.965,2.666C13.124,1.797 15,1.124 15,3.265C15,3.692 14.755,6.856 14.611,7.37C14.111,9.156 12.29,9.611 10.671,9.336C13.502,9.817 14.222,11.414 12.667,13.01C9.713,16.041 8.421,12.249 8.089,11.278C8.029,11.099 8,11.016 8,11.087C8,11.016 7.971,11.099 7.911,11.278C7.579,12.249 6.288,16.041 3.333,13.01C1.778,11.414 2.498,9.817 5.329,9.336C3.71,9.611 1.889,9.156 1.389,7.37C1.245,6.856 1,3.692 1,3.265C1,1.124 2.877,1.797 4.035,2.666L4.035,2.666Z"/>
</svg>
