<svg id="strib-social-tiktok-color" viewBox="0 0 16 16" width="16" height="16" fill="currentcolor" class="strib-icon strib-social-tiktok-color" xmlns="http://www.w3.org/2000/svg">
  <path fill="var(--social-tiktok-magenta, #ff004f)" d="M10.975 6.054a5.46 5.46 0 0 0 3.194 1.026V4.779a3.2 3.2 0 0 1-.67-.07V6.52a5.46 5.46 0 0 1-3.195-1.026v4.694a4.245 4.245 0 0 1-4.237 4.252 4.2 4.2 0 0 1-2.358-.719A4.22 4.22 0 0 0 6.738 15a4.245 4.245 0 0 0 4.237-4.252zm.828-2.321a3.2 3.2 0 0 1-.828-1.877V1.56h-.636a3.22 3.22 0 0 0 1.464 2.173m-6.614 8.186a1.95 1.95 0 0 1-.396-1.178 1.942 1.942 0 0 1 2.526-1.853V6.536a4 4 0 0 0-.67-.039v1.83a1.94 1.94 0 0 0-2.526 1.854c0 .76.433 1.417 1.066 1.738"/>
  <path fill="var(--social-tiktok-black, #000000)" d="M10.304 5.494a5.46 5.46 0 0 0 3.195 1.026V4.709a3.2 3.2 0 0 1-1.696-.976A3.22 3.22 0 0 1 10.34 1.56H8.67v9.188a1.94 1.94 0 0 1-1.938 1.938c-.63 0-1.189-.301-1.543-.767a1.95 1.95 0 0 1-1.066-1.738 1.94 1.94 0 0 1 2.526-1.853V6.497a4.245 4.245 0 0 0-4.148 4.251c0 1.157.461 2.206 1.208 2.973a4.2 4.2 0 0 0 2.359.719 4.244 4.244 0 0 0 4.236-4.252z"/>
  <path fill="var(--social-tiktok-cyan, #00f2ea)" d="M13.499 4.709v-.49a3.2 3.2 0 0 1-1.696-.486c.45.495 1.043.836 1.696.976M10.34 1.56a3 3 0 0 1-.036-.264V1H7.999v9.188a1.942 1.942 0 0 1-2.81 1.731c.354.466.913.767 1.543.767a1.94 1.94 0 0 0 1.938-1.938V1.56zM6.649 6.497v-.521a4.245 4.245 0 0 0-4.818 4.212c0 1.472.745 2.769 1.878 3.533a4.25 4.25 0 0 1-1.207-2.973 4.245 4.245 0 0 1 4.147-4.251"/>
</svg>