<svg id="strib-social-instagram" viewBox="0 0 16 16" width="16" height="16" fill="currentcolor" class="strib-icon strib-social-instagram" xmlns="http://www.w3.org/2000/svg">
  <path fill="var(--social-instagram-logo, #000000)" d="M8.004 2.261c1.871 0 2.093.008 2.829.041.684.03 1.053.145 1.3.241.325.126.561.279.804.523.246.246.397.478.523.804.095.246.21.618.24 1.3.033.738.041.96.041 2.829 0 1.871-.008 2.093-.041 2.829-.03.684-.145 1.053-.24 1.299a2.2 2.2 0 0 1-.523.805 2.16 2.16 0 0 1-.804.522c-.247.096-.619.211-1.3.241-.739.033-.96.041-2.829.041-1.871 0-2.093-.008-2.829-.041-.684-.03-1.053-.145-1.299-.241a2.2 2.2 0 0 1-.805-.522 2.15 2.15 0 0 1-.522-.805c-.096-.246-.211-.618-.241-1.299-.033-.739-.041-.961-.041-2.829 0-1.872.008-2.093.041-2.829.03-.684.145-1.054.241-1.3.125-.326.279-.561.522-.804.246-.247.479-.397.805-.523.246-.096.618-.211 1.299-.241.736-.033.958-.041 2.829-.041m0-1.261c-1.901 0-2.139.008-2.886.041-.745.033-1.256.153-1.699.326-.463.18-.854.418-1.243.809-.391.389-.629.78-.809 1.24-.173.446-.293.955-.326 1.699-.033.75-.041.988-.041 2.889 0 1.902.008 2.14.041 2.887.033.744.153 1.255.326 1.699.18.462.418.853.809 1.242.389.388.78.629 1.24.807.446.172.955.293 1.699.325.747.033.985.041 2.886.041s2.14-.008 2.887-.041c.744-.032 1.256-.153 1.699-.325.46-.178.851-.419 1.239-.807s.63-.78.807-1.24c.173-.446.293-.955.326-1.699.033-.747.041-.985.041-2.886s-.008-2.14-.041-2.887c-.033-.744-.153-1.255-.326-1.699a3.3 3.3 0 0 0-.801-1.245 3.4 3.4 0 0 0-1.24-.807c-.446-.172-.955-.292-1.699-.325C10.144 1.008 9.906 1 8.004 1"/>
  <path fill="var(--social-instagram-logo, #000000)" d="M8.004 4.406a3.599 3.599 0 1 0 .003 7.197 3.599 3.599 0 0 0-.003-7.197m0 5.932a2.334 2.334 0 1 1 .002-4.668 2.334 2.334 0 0 1-.002 4.668m4.58-6.074a.84.84 0 1 1-1.68 0 .84.84 0 0 1 1.68 0"/>
</svg>