<svg id="strib-social-reddit-color" viewBox="0 0 16 16" width="16" height="16" fill="currentcolor" class="strib-icon strib-social-reddit-color" xmlns="http://www.w3.org/2000/svg">
  <path fill="var(--social-reddit-logo-orange, #ff4500)" d="M8 1a7 7 0 0 0-4.95 11.95l-1.333 1.333a.42.42 0 0 0 .297.717H8A7 7 0 1 0 8 1"/>
  <path fill="var(--social-reddit-logo-white, #efefef)" d="M11.968 9.397a1.635 1.635 0 1 0 0-3.27 1.635 1.635 0 0 0 0 3.27m-7.936 0a1.635 1.635 0 1 0 0-3.27 1.635 1.635 0 0 0 0 3.27"/>
  <path fill="var(--social-reddit-logo-white, #efefef)" d="M8.004 12.666c2.577 0 4.666-1.567 4.666-3.5s-2.089-3.5-4.666-3.5-4.667 1.567-4.667 3.5 2.09 3.5 4.667 3.5"/>
  <path fill="var(--social-reddit-logo-dark-orange, #842123)" d="M6.624 8.826c-.027.593-.421.809-.879.809-.457 0-.807-.304-.78-.897s.421-.985.879-.985.808.481.78 1.073m4.419-.088c.027.593-.322.896-.78.896-.459 0-.852-.215-.879-.808s.322-1.074.78-1.074.852.392.879.986"/>
  <path fill="var(--social-reddit-logo-orange, #ff4500)" d="M9.384 8.878c.025.555.393.756.822.756s.756-.301.73-.856c-.025-.555-.393-.919-.822-.919s-.756.464-.73 1.019m-2.76 0c-.025.555-.393.756-.822.756s-.756-.301-.73-.856.394-.919.822-.919c.429 0 .756.464.73 1.019"/>
  <path fill="var(--social-reddit-logo-light-gray, #bbcfda)" d="M8.004 10.03c-.579 0-1.133.028-1.646.079a.13.13 0 0 0-.11.178 1.9 1.9 0 0 0 1.756 1.146c.791 0 1.468-.473 1.755-1.146a.13.13 0 0 0-.109-.178 17 17 0 0 0-1.646-.079"/>
  <path fill="var(--social-reddit-logo-true-white, #ffffff)" d="M8.004 10.158a16 16 0 0 0-1.641.081.13.13 0 0 0-.109.18 1.897 1.897 0 0 0 3.499 0 .13.13 0 0 0-.108-.18 16 16 0 0 0-1.642-.081z"/>
  <path fill="var(--social-reddit-logo-black, #172E35)" d="M8.004 10.092c-.568 0-1.112.028-1.616.079a.13.13 0 0 0-.107.177 1.869 1.869 0 0 0 3.446 0 .13.13 0 0 0-.108-.177 16 16 0 0 0-1.615-.079"/>
  <path fill="var(--social-reddit-logo-white, #efefef)" d="M10.56 5.191a1.158 1.158 0 1 0 0-2.317 1.158 1.158 0 0 0 0 2.317"/>
  <path fill="var(--social-reddit-logo-black, #172E35)" d="M7.987 5.814c-.138 0-.251-.058-.251-.148 0-1.037.845-1.881 1.882-1.881a.25.25 0 1 1 0 .502c-.76 0-1.38.619-1.38 1.379 0 .09-.112.148-.251.148"/>
  <path fill="var(--social-reddit-logo-light-orange, #ff6101)" d="M6.32 9.152c0 .215-.229.311-.511.311-.281 0-.51-.096-.51-.311s.229-.389.51-.389.511.174.511.389m4.389 0c0 .215-.229.311-.51.311s-.51-.096-.51-.311.228-.389.51-.389c.281 0 .51.174.51.389"/>
  <path fill="var(--social-reddit-logo-peach, #ffc49c)" d="M6.161 8.569c.101 0 .182-.088.182-.198 0-.109-.081-.198-.182-.198s-.181.089-.181.198.081.198.181.198m4.316 0c.1 0 .181-.088.181-.198 0-.109-.081-.198-.181-.198s-.182.089-.182.198.082.198.182.198"/>
</svg>