<svg id="strib-social-linkedin-color" viewBox="0 0 16 16" width="16" height="16" fill="currentcolor" class="strib-icon strib-social-linkedin-color" xmlns="http://www.w3.org/2000/svg">
  <path fill="var(--social-linkedin-background, #0A66C2)" d="M13.967 1H2.033A1.03 1.03 0 0 0 1 2.033v11.934A1.03 1.03 0 0 0 2.033 15h11.934A1.03 1.03 0 0 0 15 13.967V2.033A1.03 1.03 0 0 0 13.967 1M5.173 12.926H3.068V6.24h2.105zM4.119 5.314a1.213 1.213 0 0 1-1.178-1.449 1.22 1.22 0 0 1 .952-.946 1.21 1.21 0 0 1 1.238.516c.133.199.203.432.203.671a1.2 1.2 0 0 1-.351.862 1.2 1.2 0 0 1-.864.346m8.812 7.618h-2.104V9.279c0-1.077-.458-1.409-1.049-1.409-.624 0-1.236.47-1.236 1.437v3.625H6.437V6.245h2.024v.927h.027c.203-.412.915-1.114 2.001-1.114 1.174 0 2.443.697 2.443 2.738z"/>
</svg>