<svg id="strib-social-google" viewBox="0 0 16 16" width="16" height="16" fill="currentcolor" class="strib-icon strib-social-google" xmlns="http://www.w3.org/2000/svg">
  <path fill="var(--social-google-logo-blue, #4285f4)" d="M8.14 6.727v2.711h3.767a3.23 3.23 0 0 1-1.406 2.106l2.272 1.763c1.323-1.222 2.087-3.016 2.087-5.148q-.002-.745-.127-1.432z"/>
  <path fill="var(--social-google-logo-green, #34a853)" d="m4.217 9.332-.512.393-1.814 1.412C3.043 13.422 5.404 15 8.14 15c1.89 0 3.474-.624 4.633-1.693l-2.272-1.762c-.624.42-1.419.674-2.361.674-1.82 0-3.366-1.228-3.92-2.883z"/>
  <path fill="var(--social-google-logo-yellow, #fbbc05)" d="M1.891 4.863A6.9 6.9 0 0 0 1.14 8c0 1.133.274 2.196.751 3.137 0 .007 2.329-1.807 2.329-1.807A4.2 4.2 0 0 1 3.997 8c0-.465.083-.91.223-1.33z"/>
  <path fill="var(--social-google-logo-red, #ea4335)" d="M8.14 3.787c1.031 0 1.947.357 2.679 1.044l2.005-2.005C11.608 1.694 10.03 1 8.14 1a6.99 6.99 0 0 0-6.249 3.863L4.22 6.67c.554-1.655 2.1-2.883 3.92-2.883"/>
</svg>