<svg id="strib-social-reddit-circle" viewBox="0 0 16 16" width="16" height="16" fill="currentcolor" class="strib-icon strib-social-reddit-circle" xmlns="http://www.w3.org/2000/svg">
  <path d="M1.014 8.439A7.004 7.004 0 0 1 8 1c3.863 0 7 3.137 7 7s-3.137 7-7 7a7.003 7.003 0 0 1-6.986-6.561h3.183c.118.192.29.347.496.443.038 1.346 1.505 2.429 3.309 2.429s3.273-1.084 3.309-2.432a1.159 1.159 0 1 0-1.203-1.966c-.532-.33-1.204-.537-1.939-.564v-.004a.98.98 0 0 1 .841-.969.829.829 0 0 0 1.633-.19.828.828 0 0 0-1.638-.168 1.337 1.337 0 0 0-1.192 1.327v.005a3.96 3.96 0 0 0-1.92.565 1.16 1.16 0 0 0-1.696 1.524z"/>
  <path d="M9.148 9.541c.062.006.1.069.077.126a1.326 1.326 0 0 1-2.445 0 .092.092 0 0 1 .077-.126c.356-.036.743-.056 1.145-.056.403 0 .789.02 1.146.056m.386-1.716c.326 0 .605.322.624.742.019.421-.265.592-.59.592s-.567-.152-.587-.573.229-.761.553-.761m-3.687.742c.019-.42.298-.742.623-.742s.573.34.554.761c-.02.42-.262.573-.587.573s-.61-.171-.59-.592"/>
</svg>