<svg id="strib-social-spotify" viewBox="0 0 16 16" width="16" height="16" fill="currentcolor" class="strib-icon strib-social-spotify" xmlns="http://www.w3.org/2000/svg">
  <path fill="var(--social-spotify-green, #1ed760)" d="M8 1a7 7 0 1 0 0 14A7 7 0 0 0 8 1"/>
  <path fill="var(--social-spotify-white, #ffffff)" d="M11.21 11.096a.436.436 0 0 1-.6.145c-1.643-1.004-3.712-1.232-6.149-.675a.436.436 0 1 1-.194-.851c2.666-.609 4.954-.347 6.799.781a.436.436 0 0 1 .144.6m.857-1.906a.546.546 0 0 1-.751.18c-1.881-1.157-4.749-1.492-6.975-.816a.547.547 0 0 1-.317-1.045c2.542-.771 5.703-.397 7.863.931a.545.545 0 0 1 .18.75m.074-1.985c-2.256-1.34-5.979-1.463-8.133-.809a.655.655 0 0 1-.38-1.254c2.473-.75 6.583-.605 9.181.937a.654.654 0 1 1-.668 1.126"/>
</svg>