<svg id="strib-social-reddit" viewBox="0 0 16 16" width="16" height="16" fill="currentcolor" class="strib-icon strib-social-reddit" xmlns="http://www.w3.org/2000/svg">
  <path d="M9.78 3.67a1.458 1.458 0 1 0-.009-.63 2.353 2.353 0 0 0-2.099 2.337v.007c-1.282.054-2.452.419-3.381.995a2.042 2.042 0 1 0-2.115 3.466c.068 2.371 2.651 4.278 5.829 4.278s5.764-1.909 5.829-4.282a2.043 2.043 0 1 0-2.12-3.464c-.937-.581-2.121-.945-3.415-.994v-.005c0-.868.645-1.588 1.481-1.706zM4.209 9.291c.034-.74.526-1.309 1.098-1.309.571 0 1.009.601.975 1.341-.035.741-.462 1.01-1.034 1.01s-1.074-.301-1.039-1.042m6.495-1.309c.572 0 1.064.569 1.098 1.309.034.741-.468 1.042-1.04 1.042-.571 0-.999-.268-1.033-1.01-.035-.74.402-1.341.975-1.341m-.681 3.023a.162.162 0 0 1 .134.222 2.333 2.333 0 0 1-4.304 0 .16.16 0 0 1 .133-.222 20 20 0 0 1 2.019-.098c.71 0 1.389.034 2.018.098"/>
</svg>