<svg id="strib-social-instagram-circle" viewBox="0 0 16 16" width="16" height="16" fill="currentcolor" class="strib-icon strib-social-instagram-circle" xmlns="http://www.w3.org/2000/svg">
  <path d="M6.552 7.994a1.448 1.448 0 0 1 2.896 0zm2.896 0V8a1.449 1.449 0 0 1-2.896 0v-.006z"/>
  <path d="M4.441 7.994c0-1.158.005-1.296.025-1.752.019-.425.09-.654.15-.806.078-.202.173-.348.324-.499.153-.153.297-.247.499-.325.153-.059.384-.13.806-.149.457-.02.594-.025 1.755-.025s1.298.005 1.755.025c.424.019.653.09.806.149.202.078.348.174.499.325.153.152.246.297.324.499.06.152.131.383.15.806.02.458.025.595.025 1.752h-1.327a2.233 2.233 0 0 0-4.464 0zm6.4-2.314a.522.522 0 1 0-1.044.002.522.522 0 0 0 1.044-.002m.718 2.314v.003c0 1.161-.005 1.298-.025 1.755-.019.424-.09.653-.15.806a1.34 1.34 0 0 1-.324.499 1.35 1.35 0 0 1-.499.324c-.153.059-.383.131-.806.149-.458.021-.596.026-1.755.026-1.161 0-1.298-.005-1.755-.026-.424-.018-.653-.09-.806-.149a1.34 1.34 0 0 1-.499-.324 1.3 1.3 0 0 1-.324-.499c-.06-.153-.131-.384-.15-.806-.02-.459-.025-.596-.025-1.755v-.003h1.327V8a2.233 2.233 0 0 0 4.464 0v-.006z"/>
  <path d="M1 7.994A7.003 7.003 0 0 1 8 1a7.003 7.003 0 0 1 7 6.994h-2.66c0-1.172-.005-1.32-.026-1.783-.02-.461-.095-.779-.202-1.054a2 2 0 0 0-.497-.772 2.1 2.1 0 0 0-.769-.501c-.276-.107-.592-.181-1.054-.202C9.327 3.66 9.18 3.655 8 3.655s-1.327.005-1.791.026c-.461.02-.779.095-1.053.202-.287.112-.53.259-.771.502-.243.241-.39.484-.502.769a3.2 3.2 0 0 0-.202 1.054c-.021.464-.026.612-.026 1.786zm14 0V8c0 3.863-3.137 7-7 7s-7-3.137-7-7v-.006h2.655V8c0 1.18.005 1.327.026 1.791.02.461.095.779.202 1.054.112.286.259.529.502.77.241.241.484.39.769.501.276.107.592.181 1.054.202.463.02.611.025 1.79.025s1.328-.005 1.791-.025c.461-.021.779-.095 1.054-.202.285-.111.528-.26.769-.501a2.1 2.1 0 0 0 .5-.769c.107-.276.182-.592.202-1.054s.026-.611.026-1.79v-.008z"/>
</svg>