<svg id="strib-speech" viewBox="0 0 16 16" width="16" height="16" fill="currentcolor" class="strib-icon strib-speech" xmlns="http://www.w3.org/2000/svg">
  <path d="M13.229 5.226c-1.7-2.484-5.337-3.3-8.198-1.769-2.838 1.518-3.707 4.694-2.036 7.136l.129.189-.739 2.219 2.693-.573.137.062c1.942.87 4.199.86 5.972-.124l.006-.004c2.838-1.518 3.707-4.694 2.036-7.136M4.596 2.644c3.239-1.733 7.405-.845 9.394 2.061 2.017 2.948.901 6.723-2.359 8.468-2.013 1.118-4.513 1.132-6.654.219L1 14.239l1.106-3.319c-1.84-2.919-.701-6.569 2.49-8.276m6.354 4.627V8.37c0 .503-.127.964-.416 1.338s-.707.615-1.21.741l-.448.112-.223-.895.447-.111c.348-.088.569-.236.705-.412.137-.176.223-.424.223-.773v-.177H8.857a.46.46 0 0 1-.461-.461V6.1c0-.254.206-.461.461-.461h1.632c.254 0 .461.207.461.461zM7.758 8.37V6.1a.46.46 0 0 0-.461-.461H5.665a.46.46 0 0 0-.461.461v1.632a.46.46 0 0 0 .461.461h1.171v.177c0 .349-.087.597-.223.773s-.357.324-.705.412l-.447.111.223.895.448-.112c.502-.126.921-.367 1.21-.741s.416-.835.416-1.338"/>
</svg>