<svg id="strib-speech-filled" viewBox="0 0 16 16" width="16" height="16" fill="currentcolor" class="strib-icon strib-speech-filled" xmlns="http://www.w3.org/2000/svg">
  <path d="M1.335 9.023c-.505-2.46.735-5.028 3.261-6.379 3.239-1.733 7.405-.845 9.394 2.061.928 1.357 1.193 2.889.89 4.318h-4.011a2.5 2.5 0 0 0 .081-.653V6.1a.46.46 0 0 0-.461-.461H8.857a.46.46 0 0 0-.461.461v1.632a.46.46 0 0 0 .461.461h1.171v.177c0 .276-.054.489-.144.653H7.677a2.5 2.5 0 0 0 .081-.653V6.1a.46.46 0 0 0-.461-.461H5.665a.46.46 0 0 0-.461.461v1.632a.46.46 0 0 0 .461.461h1.171v.177c0 .276-.054.489-.145.653zm13.545 0c-.355 1.675-1.49 3.208-3.249 4.15-2.013 1.118-4.513 1.132-6.654.219L1 14.239l1.106-3.319a5.7 5.7 0 0 1-.771-1.897h5.356a1 1 0 0 1-.078.12c-.136.176-.357.324-.705.412l-.447.111.223.895.448-.112c.502-.126.921-.367 1.21-.741q.236-.309.335-.685h2.207a1 1 0 0 1-.079.12c-.136.176-.357.324-.705.412l-.447.111.223.895.448-.112c.503-.126.921-.367 1.21-.741q.236-.309.335-.685z"/>
</svg>