<svg id="strib-sports-score" viewBox="0 0 16 16" width="16" height="16" fill="currentcolor" class="strib-icon strib-sports-score" xmlns="http://www.w3.org/2000/svg">
  <path d="M15 9.03h-.98V4.149l-1.911.001h-.98l-2.638-.001V9.03h-.98V4.149l-2.634.001h-.98L1.98 4.149V9.03H1V3.66a.49.49 0 0 1 .49-.49h2.407V1.724h.98V3.17h6.252V1.724h.98V3.17h2.401a.49.49 0 0 1 .49.49zm-14 0h.98v4.267h5.531V9.03h.98v4.267h5.529V9.03H15v4.757a.49.49 0 0 1-.49.489H1.49a.49.49 0 0 1-.49-.489z"/>
  <path d="M11.258 6.063a1.573 1.573 0 0 0-1.575 1.575v2.17a1.576 1.576 0 0 0 2.688 1.114c.295-.295.461-.696.461-1.114v-2.17a1.575 1.575 0 0 0-1.574-1.575m-.421 1.154a.596.596 0 0 1 1.016.421v2.17a.596.596 0 0 1-1.191 0v-2.17c0-.158.063-.309.175-.421m-7.204-.692a1.576 1.576 0 0 1 2.688 1.114v2.17a1.57 1.57 0 0 1-1.574 1.574 1.57 1.57 0 0 1-1.575-1.574v-2.17c0-.418.166-.819.461-1.114m1.114.518a.593.593 0 0 0-.596.596v2.17a.595.595 0 0 0 1.191 0v-2.17a.596.596 0 0 0-.595-.596"/>
</svg>