<svg id="strib-sports-score-filled" viewBox="0 0 16 16" width="16" height="16" fill="currentcolor" class="strib-icon strib-sports-score-filled" xmlns="http://www.w3.org/2000/svg">
  <path d="M10.837 7.217a.596.596 0 0 1 1.016.421v2.17a.596.596 0 0 1-1.191 0v-2.17c0-.158.063-.309.175-.421m-6.09-.174a.595.595 0 0 1 .595.596v2.17a.6.6 0 0 1-.595.595.596.596 0 0 1-.596-.595v-2.17a.593.593 0 0 1 .596-.596"/>
  <path d="M8.039 14.276v-.979h.452V4.149h-.452V3.17h3.09V1.724h.98V3.17h2.401a.49.49 0 0 1 .49.49v10.127a.49.49 0 0 1-.49.489zm3.219-8.213a1.573 1.573 0 0 0-1.575 1.575v2.17a1.576 1.576 0 0 0 2.688 1.114c.295-.295.461-.696.461-1.114v-2.17a1.575 1.575 0 0 0-1.574-1.575M8.039 3.17v.979h-.528v9.148h.528v.979H1.49a.49.49 0 0 1-.49-.489V3.66a.49.49 0 0 1 .49-.49h2.407V1.724h.98V3.17zM3.633 6.525a1.58 1.58 0 0 0-.461 1.114v2.17a1.575 1.575 0 0 0 3.149 0v-2.17a1.57 1.57 0 0 0-1.574-1.575c-.418 0-.819.166-1.114.461"/>
</svg>