<svg id="strib-sports-league-nfl-color" viewBox="0 0 16 16" width="16" height="16" fill="currentcolor" class="strib-icon strib-sports-league-nfl-color" xmlns="http://www.w3.org/2000/svg">
  <path fill="var(--sports-nfl-white, #ffffff)" d="M12.753 2.595c-.438.312-1.271.741-2.35.476C8.532 2.612 8.002 1 8.002 1S7.468 2.61 5.6 3.071c-1.079.265-1.914-.164-2.349-.476h-.337v8.676c0 .218.053.651.409 1.087.439.533 1.183.879 2.21 1.027.821.118 1.427.377 1.853.788.315.302.613.827.613.827s.31-.535.614-.828c.428-.41 1.035-.669 1.853-.787 1.027-.149 1.775-.496 2.21-1.027.355-.432.409-.864.41-1.088V2.595h-.338"/>
  <path fill="var(--sports-nfl-blue, #013369)" d="M12.84 2.943s-1.018.794-2.454.435c-1.68-.418-2.332-1.671-2.332-1.671S7.403 2.96 5.731 3.378c-1.436.359-2.463-.435-2.463-.435v8.336c0 .283.118 1.488 2.358 1.81.888.129 1.549.413 2.028.87q.229.22.4.485.172-.266.4-.485c.476-.457 1.14-.741 2.028-.87 2.245-.324 2.358-1.523 2.358-1.81z"/>
  <path fill="var(--sports-nfl-white, #ffffff)" d="M8.054 13.559s.651-.804 2.341-1.062c1.94-.298 1.879-1.209 1.879-1.253V6.876l-8.449.001v4.369c0 .046-.057.957 1.879 1.253 1.688.261 2.341 1.061 2.341 1.061"/>
  <path fill="var(--sports-nfl-red, #d50a0a)" d="M6.052 10.078V7.999l-.26-.147v-.538h1.184v.539l-.248.146v4.237l-.634-.189-.914-2.706v1.783l.291.224v.55l-1.27-.325v-.467l.29-.115V8.007l-.297-.149v-.539h.966l.896 2.759m2.172 1.915.254.303v.539l-1.262-.471v-.457l.279-.114V8.016l-.277-.14V7.33h2.193v1.097h-.481l-.147-.45H8.23v1.27h.419l.164-.241h.335v1.123h-.335l-.159-.228H8.23v2.088m1.39.178v-.54l.312-.256V8.004l-.266-.14v-.546h1.262v.546l-.247.14v3.159l.542-.148.103-.828h.521v1.384z"/>
  <path fill="var(--sports-nfl-white, #ffffff)" d="m4.051 5.989-.382-.288h.467l.154-.442.155.442h.467l-.382.288.141.449-.381-.266-.379.266zm1.653 0-.382-.288h.468l.154-.442.154.442h.466l-.382.288.141.449-.38-.266-.38.266zm-1.652-1.48-.382-.286h.467l.154-.443.155.443h.467l-.382.286.141.45-.381-.268-.379.268zm1.653 0-.382-.286h.468l.154-.443.154.443h.466l-.382.286.141.45-.38-.268-.38.268zm6.441 1.915-.38-.267-.379.267.14-.45-.381-.287h.467l.154-.442.154.442h.467l-.382.287zm-1.655 0-.379-.267-.38.267.14-.45-.382-.287h.467l.155-.442.154.442h.467l-.382.287zm1.653-1.48-.38-.268-.379.268.14-.449-.381-.287h.467l.154-.443.154.443h.467l-.382.287zm-1.655 0-.379-.268-.38.268.14-.449-.382-.287h.467l.155-.443.154.443h.467l-.382.287zM9.098 3.291s-.198.103-.474.374c.062.036.132.085.171.119-.041.035-.083.076-.124.114a1.3 1.3 0 0 0-.511-.259q.073-.051.15-.099a1 1 0 0 1 .153.05c.311-.238.581-.341.581-.341s-.031-.016-.115-.015c-1.227.017-2.358.932-2.141 2.498.024.166.088.469.17.6.027-.261.126-.837.417-1.453a2 2 0 0 0-.186-.051c.03-.062.071-.141.071-.141.208.039.404.129.569.261-.039.064-.066.105-.085.139a1 1 0 0 0-.18-.121 5.1 5.1 0 0 0-.54 1.392c.004.017.039.026.068.022 1.34-.175 1.976-.858 2.167-1.601a2.3 2.3 0 0 0-.083-1.409c-.013-.029-.036-.078-.074-.075m-1.158 1.48a1.3 1.3 0 0 0-.578-.275s.061-.101.096-.151c.214.043.414.139.582.28q-.055.075-.1.146m.221-.309a1.3 1.3 0 0 0-.583-.284c.035-.044.075-.091.114-.133.169.029.388.117.578.276a3 3 0 0 0-.109.141m.246-.297a1.3 1.3 0 0 0-.564-.273c.049-.047.1-.086.144-.123.199.046.384.139.539.272a3 3 0 0 0-.119.125"/>
</svg>