<svg id="strib-sports-team-vikings" viewBox="0 0 16 16" width="16" height="16" fill="currentcolor" class="strib-icon strib-sports-team-vikings" xmlns="http://www.w3.org/2000/svg">
  <path d="M6.429 15q-.018-.008-.038-.011l-.538-.002-.437-.007q-.19-.006-.383-.008a.32.32 0 0 1-.279-.2c-.044-.132-.08-.266-.118-.399l-.158-.552q-.062-.23-.121-.46l-.113-.436-.134-.522q-.061-.246-.119-.492l-.105-.473-.089-.454c-.025-.126-.054-.251-.076-.378-.024-.134-.042-.269-.064-.404-.016-.099-.036-.197-.05-.296-.015-.102-.024-.206-.037-.308l-.038-.269-.032-.252-.032-.252-.029-.257-.033-.286-.019-.172q-.018-.167-.034-.335l-.019-.237-.026-.323c-.002-.03-.018-.03-.041-.03-.104 0-.208.004-.312-.002a1 1 0 0 1-.233-.036c-.108-.032-.212-.075-.317-.117a1.1 1.1 0 0 1-.267-.17 1.4 1.4 0 0 1-.295-.322 1.6 1.6 0 0 1-.241-.6l-.02-.099v-.385q.012-.066.028-.131c.032-.129.061-.259.098-.386q.038-.128.095-.249.083-.186.178-.367.092-.167.199-.325a1 1 0 0 1 .156-.186.315.315 0 0 1 .453.064.3.3 0 0 1 .06.189c-.002.114-.005.228 0 .341.009.184.037.366.115.534a.5.5 0 0 0 .109.147c.033.029.084.05.128.053q.204.01.407.002.15-.006.297-.026.138-.018.276-.044.112-.02.223-.043l.148-.028a31 31 0 0 0 .571-.132q.147-.033.293-.068l.364-.098c.088-.024.176-.053.265-.065a.3.3 0 0 1 .278.104c.081.092.1.197.076.314a1 1 0 0 0-.015.12q-.016.198-.027.397-.017.309-.025.617-.008.45-.009.9 0 .17.008.339l.026.517q.01.179.027.358a36 36 0 0 0 .078.795l.05.371.038.299q.021.147.045.293l.025.153c.001.009.006.018.014.038l.113-.28.188-.44.152-.357.19-.422a19 19 0 0 1 .281-.614q.12-.252.243-.502.13-.257.263-.511.138-.268.281-.533.12-.223.249-.442.154-.269.314-.535.138-.232.286-.458.246-.373.504-.738.19-.264.395-.517a.3.3 0 0 1 .222-.11c.112-.007.223-.026.334-.039q.127-.014.253-.03.116-.014.23-.032l.26-.038a11 11 0 0 0 .673-.136c.145-.036.291-.073.433-.119.161-.052.321-.106.464-.199q.259-.171.409-.438c.069-.121.126-.248.156-.385q.048-.218.087-.437.016-.09.018-.18c.005-.16-.001-.32.012-.479a.3.3 0 0 1 .185-.252L13.884 1h.167q.004.007.011.01a.32.32 0 0 1 .224.254c.015.08.04.158.055.237q.028.152.048.305c.009.067.013.134.02.201q.003.005.009.008v.577c-.003.004-.009.008-.01.012l-.027.254q-.01.092-.029.183c-.021.091-.041.184-.071.273q-.065.195-.145.384a2.3 2.3 0 0 1-.31.516 2.6 2.6 0 0 1-.602.548 3.6 3.6 0 0 1-.736.382 6 6 0 0 1-.435.152c-.138.041-.279.071-.42.103q-.178.037-.358.069c-.024.005-.05.013-.072.008-.058-.011-.072.031-.091.066l-.239.466q-.094.181-.184.364a69 69 0 0 0-.352.727q-.159.331-.313.664a28 28 0 0 0-.272.613q-.089.205-.175.411c-.073.173-.149.345-.219.519q-.13.32-.253.64-.152.394-.301.79l-.17.461-.098.289c-.038.108-.081.213-.119.321l-.126.378-.125.354q-.049.138-.094.28l-.102.309-.134.412-.121.37-.133.412-.115.368-.029.098a.32.32 0 0 1-.205.201q-.009.004-.016.011z"/>
</svg>