<svg id="strib-sports-golf" viewBox="0 0 16 16" width="16" height="16" fill="currentcolor" class="strib-icon strib-sports-golf" xmlns="http://www.w3.org/2000/svg">
  <path d="M6.712 1.049a.36.36 0 0 1 .361-.001l5.163 2.95a.361.361 0 0 1 0 .629l-4.98 2.846v4.952a.362.362 0 1 1-.724 0V1.362c0-.129.068-.248.18-.313m.544 5.59 4.071-2.327-4.071-2.326z"/>
  <path d="M4.994 12a.36.36 0 0 1-.131.495c-.418.243-.557.487-.557.668 0 .194.168.469.666.718.475.237 1.155.395 1.922.395s1.446-.158 1.921-.395c.498-.249.667-.524.667-.718 0-.175-.141-.426-.557-.668a.363.363 0 0 1 .363-.626c.499.289.918.731.918 1.294 0 .617-.495 1.08-1.067 1.366-.594.297-1.389.471-2.245.471s-1.651-.174-2.246-.471c-.572-.286-1.067-.749-1.067-1.366 0-.571.421-1.006.918-1.294a.36.36 0 0 1 .495.131"/>
</svg>