<svg id="strib-sports-college" viewBox="0 0 16 16" width="16" height="16" fill="currentcolor" class="strib-icon strib-sports-college" xmlns="http://www.w3.org/2000/svg">
  <path d="M12.574 7.006v4.113a1.8 1.8 0 0 1-1.802 1.802h-.97v1.663a.415.415 0 0 1-.602.372l-1.2-.6-1.2.6a.415.415 0 0 1-.602-.372v-1.663h-.97a1.8 1.8 0 0 1-1.802-1.802V7.006h.831v4.113a.97.97 0 0 0 .971.97h.97v-.277c0-.099.035-.19.093-.262l-.055-.053a2.496 2.496 0 1 1 3.473.053.42.42 0 0 1 .093.262v.277h.97a.97.97 0 0 0 .971-.97V7.006zm-5.75 1.55A1.665 1.665 0 0 0 8 11.396a1.663 1.663 0 1 0-1.176-2.84m2.146 5.355v-1.88a2.48 2.48 0 0 1-1.94 0v1.88l.784-.392a.42.42 0 0 1 .372 0zM6.614 3.772h2.772a.416.416 0 1 1 0 .832H6.614a.416.416 0 1 1 0-.832"/>
  <path d="M3.426 7.006V2.802A1.8 1.8 0 0 1 5.228 1h5.544a1.8 1.8 0 0 1 1.802 1.802v4.204h-.831V2.802a.97.97 0 0 0-.971-.97H5.228a.97.97 0 0 0-.971.97v4.204z"/>
</svg>