<svg id="strib-sports-league-wnba-color" viewBox="0 0 16 16" width="16" height="16" fill="currentcolor" class="strib-icon strib-sports-league-wnba-color" xmlns="http://www.w3.org/2000/svg">
  <path fill="var(--sports-wnba-white, #ffffff)" d="M6.35 1h3.3c.794 0 1.435.645 1.435 1.435v11.13c0 .794-.645 1.435-1.435 1.435h-3.3a1.436 1.436 0 0 1-1.435-1.435V2.435A1.433 1.433 0 0 1 6.35 1"/>
  <path fill="var(--sports-wnba-orange, #f15623)" d="M10.755 13.569V2.435a1.1 1.1 0 0 0-1.101-1.097H7.731a.785.785 0 0 1-.51 1.388c-.007 0-.019 0-.027-.003-.004.03-.004.115-.007.165a.3.3 0 0 1-.05.138.07.07 0 0 0 0 .057c.03.123.192.687.215.771.065.223.122.492.122.691.027-.203.208-.491.61-.491.066 0 .131.011.154.05.077.011.142.05.192.107.107.108.088.188.111.234.019.035.165.089.165.372 0 .116.023.196.023.234a.1.1 0 0 1-.061.104 1 1 0 0 0-.077.05c-.042.023-.062.042-.062.081q.001.05.02.095c.007.02.027.035.05.039.076-.004.157-.004.234.004a.7.7 0 0 1 .391-.115c.05 0 .138.007.169.011a.4.4 0 0 1 .222-.092c-.123-.265-.123-.495-.234-.783-.061-.146-.126-.318-.146-.364-.011-.023-.023-.05-.038-.069a.5.5 0 0 1-.084-.1.34.34 0 0 1-.058-.169q-.005-.01-.004-.023c-.004-.05-.061-.146-.092-.219-.03-.08-.1-.118-.1-.172 0-.027.027-.042.062-.042a.15.15 0 0 1 .134.107c.042.088.065.157.111.157a.1.1 0 0 0 .062-.015c.03-.023.061-.15.069-.203a1.7 1.7 0 0 1 .096-.434c.019-.038.046-.057.065-.057.015 0 .031.015.031.03a.6.6 0 0 1-.023.108l-.027.145c.027-.065.057-.126.065-.145.015-.039.069-.127.115-.127.035 0 .046.023.046.035-.011.042-.031.08-.05.119a.7.7 0 0 0-.061.168c.023-.026.054-.08.103-.08q.035.002.035.027-.005.024-.015.05c-.004.007-.062.103-.069.13-.012.027-.043.115-.069.173.011-.004.015-.016.038-.016.015 0 .027.012.027.027a.4.4 0 0 1-.065.134 1 1 0 0 1-.016.119.8.8 0 0 0 .004.211q.019.076.054.146c.115.246.36.514.491.767.1.188.18.392.18.572a.13.13 0 0 1-.057.111q-.202.173-.438.3c-.134.061-.449.145-.514.192a1 1 0 0 0-.184.199q.063.209.081.43c.003.115-.058.287-.093.418-.049.199-.149.583-.188.752a2.6 2.6 0 0 0-.069.541q0 .156.027.307c.25.265.783.936.783 1.174a.45.45 0 0 1-.157.295c-.169.123-.388.472-.461.553-.241.284-.483.548-.61.744.039.004.058.027.058.05 0 .08-.069.107-.096.134-.027.023-.016.123 0 .165a.09.09 0 0 1 0 .085c.034.026.011.088.011.088.027.031.023.142.023.142.02.08.05.161.092.234q.019.035.02.069c-.004.065-.066.1-.154.1-.33 0-.66-.419-.625-.461-.376.457-.986 1.025-1.005 1.051-.016.016-.031.039-.05.054.019.012.038.05.038.05.084.031-.038.119-.081.123-.069.004-.042.015-.072.042a1 1 0 0 0-.131.138c-.034.046-.046.157-.08.273-.039.138-.085.222-.085.33l.004.168c0 .265-.069.33-.188.342q.144.041.299.042h3.315a1.1 1.1 0 0 0 1.09-1.101m-2.506.314c0 .177-.111.304-.276.304a.28.28 0 0 1-.199-.073.27.27 0 0 1-.196.073c-.157 0-.276-.116-.276-.304v-1.15h.241v1.162c0 .035.031.058.062.058s.054-.027.057-.058v-1.162h.227v1.162c0 .031.023.054.05.058h.007a.054.054 0 0 0 .058-.054v-1.166h.242v1.15zm.695.281h-.238V12.99c0-.023-.012-.043-.035-.043-.038 0-.069.043-.092.081v1.136h-.241v-1.431h.215v.069a.22.22 0 0 1 .184-.096c.126 0 .203.096.203.249zm.694-.273c0 .204-.13.273-.264.273h-.33v-1.431h.318c.15 0 .276.065.276.268v.234c0 .142-.069.169-.103.188.03.015.103.054.103.188zm.664-.886v1.159h-.169c-.004-.016-.007-.046-.011-.062a.19.19 0 0 1-.169.081c-.146 0-.246-.1-.246-.319v-.103c0-.254.135-.388.361-.522v-.249a.06.06 0 0 0-.061-.058h-.004a.06.06 0 0 0-.058.058v.245h-.241v-.219c0-.184.122-.31.299-.31.172 0 .299.099.299.299m-.234.852v-.349a.25.25 0 0 0-.119.222v.142c0 .054.015.081.058.081q.059-.005.061-.096m-.66.015V13.6q.002-.074-.065-.073h-.062v.418h.066q.059.001.061-.073m0-.61v-.242a.07.07 0 0 0-.065-.076h-.062v.383h.05a.07.07 0 0 0 .077-.065M6.78 5.608c0-.069.034-.1.034-.15 0-.061-.015-.092-.042-.111a.11.11 0 0 1 .092-.081c.031 0 .062.012.081-.007-.054-.035-.038-.077-.042-.112a.16.16 0 0 0 .184-.08c-.069-.134-.257-.476-.253-.948.004-.314.015-.656-.023-.894-.012-.073-.031-.211-.039-.245-.015-.123-.184-.33-.192-.353a1.1 1.1 0 0 1-.061-.334.79.79 0 0 1 .2-.952h-.376a1.1 1.1 0 0 0-1.098 1.098v11.138c0 .452.277.859.699 1.024-.158-.138-.215-.414-.215-.549 0-.138.038-.238.038-.318 0-.192-.08-.265-.103-.399a1 1 0 0 1-.004-.196c0-.172.207-.222.529-.257.027-.004.061-.004.081.015.119-.026.568-1.001.621-1.101.131-.245.284-.437.549-.525.031-.146.115-.614.119-.837-.023-.015-.062-.027-.062-.08 0-.112.073-.269.073-.472a1 1 0 0 0-.023-.169c-.349-.449-.441-.668-.441-.994 0-.514.319-.686.384-.851l.015-.058c0-.019-.011-.027-.011-.05-.004-.038.019-.077.061-.084q.007.002.008-.019c0-.016-.012-.073-.016-.093-.126-.64-.287-.962-.287-1.461a.8.8 0 0 1 .015-.196q-.028.007-.061.008a.17.17 0 0 1-.173-.158c-.027.004-.05.008-.077.004-.115-.004-.184-.065-.184-.153"/>
</svg>