<svg id="strib-sports-roster" viewBox="0 0 16 16" width="16" height="16" fill="currentcolor" class="strib-icon strib-sports-roster" xmlns="http://www.w3.org/2000/svg">
  <path d="M6.295 2.197a.47.47 0 0 0-.195-.383.47.47 0 0 0-.425-.064L1.322 3.2A.47.47 0 0 0 1 3.648v3.627c0 .26.211.471.472.471h1.704v5.332a1.194 1.194 0 0 0 1.197 1.197h7.254a1.194 1.194 0 0 0 1.197-1.197V7.746h1.704A.47.47 0 0 0 15 7.275V3.648a.47.47 0 0 0-.322-.448l-4.353-1.45a.47.47 0 0 0-.62.447c0 .452-.18.886-.5 1.205a1.7 1.7 0 0 1-2.41 0c-.32-.319-.5-.753-.5-1.205M1.943 6.803V3.988l3.485-1.162a2.645 2.645 0 0 0 5.144 0l3.485 1.162v2.815h-1.705a.47.47 0 0 0-.471.472v5.803a.25.25 0 0 1-.075.179.25.25 0 0 1-.179.075H4.373a.25.25 0 0 1-.179-.075.25.25 0 0 1-.075-.179V7.275a.47.47 0 0 0-.471-.472zm6.782 0H6.44v.943h1.652L7.05 11.218l.903.271L9.177 7.41a.47.47 0 0 0-.452-.607"/>
</svg>