<svg id="strib-sports-team-wild" viewBox="0 0 16 16" width="16" height="16" fill="currentcolor" class="strib-icon strib-sports-team-wild" xmlns="http://www.w3.org/2000/svg">
  <path d="m3.36 5.623-.455-.344c.159-.088.309-.174.463-.256.905-.48 1.844-.879 2.836-1.144q.241-.064.486-.114c.049-.01.071-.03.091-.074.253-.562.652-.977 1.255-1.146.628-.175 1.238-.117 1.793.256.278.187.474.445.592.759.021.053.045.067.099.064a12.5 12.5 0 0 1 2.195.077c.503.06 1.003.142 1.505.214l.004.027-.389.304L15 4.573l-3.083 3.509h.789l-3.349 3.467c-.093-.095-.177-.193-.273-.276-.389-.337-.85-.519-1.351-.608-.654-.117-1.304-.072-1.95.055a.66.66 0 0 1-.361-.016c-.293-.102-.587-.203-.851-.37-.086-.055-.162-.124-.255-.196l.224-.133c-.099-.091-.2-.177-.292-.271-.046-.047-.108-.112-.065-.178.044-.067.122-.022.182-.003.444.141.893.15 1.345.049a1 1 0 0 0 .231-.091.4.4 0 0 0 .137-.126c.085-.125.056-.226-.078-.293-.054-.027-.112-.046-.168-.067-.071-.027-.147-.044-.213-.079-.043-.023-.1-.069-.1-.106-.001-.038.051-.098.092-.113.149-.055.3-.106.455-.137.177-.035.36-.046.54-.068l.049-.006v-.028q-.183.002-.365-.001c-.422-.009-.844-.031-1.264.027a2 2 0 0 0-.407.108c-.043.015-.094.075-.096.117-.003.036.053.086.094.112.071.046.155.073.228.118.031.02.047.064.071.097-.032.022-.06.055-.095.064-.212.05-.428.047-.64.009-.23-.041-.456-.107-.684-.159-.029-.007-.068-.008-.091.006a.47.47 0 0 1-.477.015c-.401-.185-.811-.35-1.187-.585a.5.5 0 0 1-.142-.132 4.8 4.8 0 0 1-.582-.999c-.031-.074-.026-.118.046-.174.66-.507 1.343-.978 2.076-1.374.069-.037.139-.071.22-.114m7.636 2.544.53-.809h-.275l.595-.859h-.32l.942-1.298.504.907 1.083-1.333c-.028-.011-.044-.019-.061-.024-1.242-.452-2.529-.668-3.846-.727-.078-.004-.11-.027-.136-.1-.243-.691-.872-1.063-1.592-.949-.576.09-1.032.536-1.165 1.141-.01.047-.029.062-.07.07-.357.07-.715.132-1.068.216a9.7 9.7 0 0 0-2.277.83q-.033.017-.064.036a18 18 0 0 1 1.746-.443c.588-.113 1.18-.206 1.771-.308-.1-.79.527-1.453 1.306-1.496.365-.02.693.082.961.333.334.313.494.7.443 1.168.586.068 1.159.169 1.714.355-.142.013-.284.015-.425.028l-1.396.132a.13.13 0 0 0-.108.068 1.39 1.39 0 0 1-2.032.328.13.13 0 0 0-.094-.025q-1.01.23-2.02.466-.055.013-.109.029l-.098.033c.335.036.665.07 1.003.187a20.4 20.4 0 0 0-3.825 1.238c.088.132.167.255.252.374.031.043.032.069-.003.11-.074.084-.142.174-.216.266.032.008.051.016.071.017q.454.017.908.027a.23.23 0 0 0 .112-.038q.37-.223.736-.451a.15.15 0 0 1 .134-.017q.274.086.551.165c.02.005.055.005.065-.008.065-.082.125-.168.197-.268H5.2l.428-.689.36.69h-.164c.039.086.072.161.108.235.005.011.025.022.035.02q.217-.037.432-.077l.019-.012.204-.257h-.178l.26-.402h-.198l.404-.683.345.708h-.156l.238.427H7.15l.394.717.396-.558h-.262l.398-.601H7.82l.561-.963.487.977h-.207l.34.59h-.238l.336.743.568-.927h-.306l.455-.744h-.279l.598-1.216.632 1.282h-.224l.41.681h-.28zM9.962 4.491c-.009-.133-.017-.27-.032-.407-.002-.019-.035-.047-.057-.05q-.086-.013-.174-.009c-.527.018-1.055.032-1.582.06-.237.013-.472.054-.707.086-.022.003-.059.025-.059.04-.006.104-.003.208-.003.304.446-.021.875-.054 1.304-.058s.858.021 1.311.034zm-4.666.638c-.044.074-.083.129-.112.189-.032.066-.083.099-.149.126q-.514.211-1.027.428c-.061.026-.12.059-.18.088l.004.007 1.197-.369-.155.333q.136-.099.253-.211c.029-.027.052-.03.085-.01.053.031.109.059.174.094l-.028-.261q.037-.013.069-.021.435-.102.87-.201a24 24 0 0 1 2.399-.423c.023-.003.044-.019.065-.028-1.162.031-2.299.21-3.426.493l-.04-.234z"/>
</svg>