<svg id="strib-sports-football" viewBox="0 0 16 16" width="16" height="16" fill="currentcolor" class="strib-icon strib-sports-football" xmlns="http://www.w3.org/2000/svg">
  <path d="M11.679 1h.299l.016.001c.464.029.925.102 1.375.218.37.102.732.25.96.479l.013.013.011.013c.16.186.28.438.371.711q.155.477.212.974c.094.732.092 1.638-.054 2.628l-.002.008c-.216 1.298-.801 3.881-2.877 5.958s-4.66 2.661-5.958 2.877l-.011.002c-1.022.146-1.945.148-2.678.054a5 5 0 0 1-.966-.213c-.255-.088-.498-.208-.674-.376-.29-.245-.455-.667-.553-1.07A6.6 6.6 0 0 1 1 11.75c0-2.123.727-5.358 3.024-7.655C6.316 1.803 9.476 1 11.679 1M2.078 9.986a10 10 0 0 0-.162 1.764c0 .501.051.957.137 1.31.093.381.206.548.255.588l.038.033c.035.035.136.104.344.176.198.068.461.129.783.17.64.082 1.477.084 2.426-.052l.143-.024zm11.851-3.824.047-.264c.134-.912.133-1.731.051-2.373a4.3 4.3 0 0 0-.172-.801 1.4 1.4 0 0 0-.185-.389c-.064-.055-.231-.146-.544-.232a6.3 6.3 0 0 0-1.181-.187h-.266a10 10 0 0 0-1.817.179zM4.672 4.743C3.457 5.958 2.719 7.481 2.317 8.93l4.788 4.787c1.259-.336 2.882-.994 4.25-2.362 1.328-1.328 1.987-2.897 2.332-4.139L8.818 2.347c-1.437.422-2.932 1.182-4.146 2.396"/>
  <path d="m7.957 8.789.762-.762.705.705.647-.648-.704-.705 1.409-1.409-.648-.648-1.409 1.409-.705-.704-.648.647.705.705-.762.762-.705-.705-.648.648.705.705-1.41 1.41.648.648 1.41-1.41.705.705.648-.648z"/>
</svg>