<svg id="strib-sports-swimming" viewBox="0 0 16 16" width="16" height="16" fill="currentcolor" class="strib-icon strib-sports-swimming" xmlns="http://www.w3.org/2000/svg">
  <path d="M15 13h-1a2.46 2.46 0 0 1-2-.994A2.51 2.51 0 0 1 10 13a2.52 2.52 0 0 1-2-.994A2.51 2.51 0 0 1 6 13a2.52 2.52 0 0 1-2-.994A2.47 2.47 0 0 1 2 13H1v-1h1a1.72 1.72 0 0 0 1.527-1.161A.49.49 0 0 1 4 10.5a.5.5 0 0 1 .474.342A1.72 1.72 0 0 0 6 12a1.72 1.72 0 0 0 1.527-1.161.495.495 0 0 1 .765-.244.5.5 0 0 1 .182.247A1.72 1.72 0 0 0 10 12a1.72 1.72 0 0 0 1.527-1.161.497.497 0 0 1 .766-.244.5.5 0 0 1 .181.247A1.72 1.72 0 0 0 14 12h1zm-3.5-4.207L7.146 4.439A1.5 1.5 0 0 0 6.086 4H2v1h4.086a.5.5 0 0 1 .353.147L7.793 6.5 5 9.293l.707.707L8.5 7.207 10.793 9.5zM10 5a2 2 0 0 1 1.235-1.848 2 2 0 0 1 2.179.434c.28.279.47.636.547 1.024a1.99 1.99 0 0 1-.85 2.053A2 2 0 0 1 10 5m1 0c0 .198.059.391.168.556a1.003 1.003 0 0 0 1.539.151 1 1 0 0 0 .217-1.09A1 1 0 0 0 12 4a1.003 1.003 0 0 0-1 1"/>
</svg>