<svg id="strib-sports-team-loons" viewBox="0 0 16 16" width="16" height="16" fill="currentcolor" class="strib-icon strib-sports-team-loons" xmlns="http://www.w3.org/2000/svg">
  <path d="M7.956 1.489v-.155l.004-.08c.123.084.239.151.341.235zm.345 0 .008.007c.309.257.562.56.596.977q.039.481.013.963c-.047.955-.197 1.899-.345 2.842-.076.486-.165.97-.251 1.455-.05.285-.019.562.07.836.113.344.188.694.15 1.06a1.1 1.1 0 0 1-.187.536c-.125.172-.29.273-.509.233-.213-.04-.319-.193-.359-.402-.029.142.04.3.167.388a.524.524 0 0 0 .696-.092c.203-.221.266-.493.277-.782a2.4 2.4 0 0 0-.15-.92c-.121-.335-.111-.667-.052-1.01.273-1.588.649-3.154.967-4.733.02-.099.044-.198.07-.316.269.316.489.639.6 1.022.056.191.011.387-.026.578-.134.688-.376 1.343-.62 1.997-.201.54-.41 1.078-.616 1.618-.004.01-.007.021.005.038L10.57 3.81c.02.024.036.039.047.057.171.278.277.582.306.904.012.132-.032.275-.078.403-.15.424-.371.815-.609 1.195-.385.617-.782 1.228-1.174 1.842-.007.01-.012.02-.005.039l2.3-3.171c.026.082.055.147.067.214q.041.243.069.489c.027.247-.072.454-.209.65-.342.484-.753.907-1.167 1.328q-.457.463-.917.921c-.012.012-.031.016-.046.023l.02.021 2.604-2.349c.039.218.02.417-.002.619-.033.308-.236.499-.451.681-.478.406-1.005.744-1.531 1.082-.191.122-.38.246-.56.388l2.635-1.525.025.011c-.021.113-.038.227-.064.339a.98.98 0 0 1-.52.666c-.511.273-1.048.482-1.587.688l-.558.214.008.021 2.606-.85c0 .022.003.037-.001.049-.119.36-.303.66-.71.746-.447.094-.892.19-1.339.278-.233.045-.469.075-.7.131l2.509-.266c-.046.073-.079.129-.115.184-.181.276-.442.398-.766.393q-.686-.012-1.37-.029c-.162-.004-.324-.014-.486-.009l2.378.244-.175.171c-.214.206-.471.228-.742.165-.49-.113-.979-.234-1.468-.351a.1.1 0 0 0-.061.003l1.943.628c-.214.136-.408.284-.655.191-.325-.121-.641-.266-.958-.405-.116-.051-.226-.115-.339-.173a.1.1 0 0 0-.077-.011l1.469.845c-.226.093-.435.17-.645.03-.243-.16-.479-.333-.714-.505-.113-.083-.218-.175-.341-.248l.37.35c-.098.009-.181.015-.264.026q-.638.085-.743.72a3 3 0 0 0-.035.413q-.004.744-.002 1.488v.128c-.061-.029-.112-.05-.159-.077a.08.08 0 0 1-.032-.055c.024-.683-.298-1.221-.712-1.723-.21-.255-.415-.515-.604-.785-.185-.265-.204-.579-.2-.891.001-.028.038-.063.067-.08.316-.196.635-.387.95-.583a.8.8 0 0 0 .291-.302c.11-.212.08-.386-.108-.533a24 24 0 0 0-.6-.453L5.521 7.6q-.023-.017-.046-.037l.008-.014.392.173q.298.135.598.265A.25.25 0 0 0 6.599 8c.085-.007.169-.025.254-.037a.4.4 0 0 1 .311.064c.144.102.298.191.44.297.325.241.435.57.326.961-.033.118-.086.232-.122.35a1.2 1.2 0 0 0-.056.275c-.006.09.027.176.126.212.08.029.172-.006.242-.088a.74.74 0 0 0 .156-.379c.046-.292.008-.58-.081-.856-.177-.546-.232-1.106-.233-1.674q-.004-2.817-.006-5.636z"/>
  <path d="M3.414 7.04V1.489h4.418q0 1.403.003 2.806c0 .075-.025.108-.089.138-1.213.562-2.425 1.128-3.639 1.689-.39.179-.575.487-.576.903v.015zm1.315-3.307c.191-.037.36-.063.525-.103.075-.018.098.01.118.072.053.161.109.32.172.503l.149-.428c.058-.164.058-.163.228-.128.138.028.277.053.439.083l-.406-.469.405-.471-.609.115-.206-.585-.204.584-.61-.114.405.47zm7.655 3.291v-4.75l-2.232 1.037c-.318-.618-.541-.929-.762-1.065-.119.528-.215 1.06-.352 1.582q-.017-.037-.012-.071c.013-.324.038-.648.039-.972 0-.262-.013-.527-.128-.771a1.9 1.9 0 0 0-.366-.525H12.5v5.535z"/>
  <path d="M12.5 7.024v5.823a.08.08 0 0 1-.046.071l-1.522.711-1.631.767-.848.399-.204.096-.168.079s-.053.03-.124.03a.3.3 0 0 1-.124-.03l-1.22-.574-1.632-.767-1.522-.711a.08.08 0 0 1-.045-.071V7.04h.117c-.004 1.896-.001 3.791-.003 5.687 0 .062.02.092.076.118q2.139.996 4.275 1.998a.17.17 0 0 0 .158-.001q2.129-.998 4.259-1.991c.065-.03.09-.062.09-.136l-.002-5.691z"/>
</svg>