<svg id="strib-sports-league-mls-color" viewBox="0 0 16 16" width="16" height="16" fill="currentcolor" class="strib-icon strib-sports-league-mls-color" xmlns="http://www.w3.org/2000/svg">
  <path fill="var(--sports-mls-white, #ffffff)" d="M14.624 1.813V1H1.446v.813l-.001 4.59a8.85 8.85 0 0 0 1.571 5.048l-1.641 1.64 1.151 1.15 1.537-1.536a8.9 8.9 0 0 0 3.74 2.226l.232.069.232-.069a8.89 8.89 0 0 0 6.358-8.526z"/>
  <path fill="var(--sports-mls-red, #e32726)" d="M13.81 1.8H2.259v4.596a8.05 8.05 0 0 0 1.835 5.13l9.716-9.717z"/>
  <path fill="var(--sports-mls-white, #ffffff)" d="M8.035 14.148a8.09 8.09 0 0 0 5.776-7.752l-.001-4.587-9.717 9.717a8.1 8.1 0 0 0 3.942 2.622"/>
  <path fill="var(--sports-mls-blue, #1a2857)" d="m4.146 10.203-.071.071.196.197-.045.045-.196-.196-.072.071-.036-.037.187-.188zm.306-.048-.102-.229.065-.065.233.233-.042.042-.183-.182-.001.001.113.252-.032.032-.252-.113-.001.001.182.183-.042.042-.233-.233.066-.066z"/>
  <path fill="var(--sports-mls-white, #ffffff)" d="m6.631 6.39.147.453-.386-.28-.386.28.148-.453-.386-.28h.477l.147-.454.148.454h.477zm-2.221 0 .386-.28h-.477l-.147-.454-.148.454h-.477l.386.28-.147.453.386-.28.386.28zm1.02 1.197-.148-.454-.147.454h-.477l.386.28-.148.454.386-.281.386.281-.147-.454.385-.28zM3.986 4.613l-.437-.996h-.014v1.33l-.002.014a.04.04 0 0 1-.019.019l-.014.002h-.392l-.014-.002-.012-.008-.007-.011q-.003-.007-.002-.014V2.655a.02.02 0 0 1 .002-.013l.007-.012.012-.007a.02.02 0 0 1 .014-.002h.413a.05.05 0 0 1 .034.007q.015.01.021.027l.598 1.347h.014l.586-1.347a.06.06 0 0 1 .022-.027.05.05 0 0 1 .034-.007h.406a.02.02 0 0 1 .014.002l.011.007.008.012.002.013v2.292l-.002.014a.04.04 0 0 1-.019.019l-.014.002h-.392L4.83 4.98l-.012-.008-.007-.012q-.003-.006-.002-.013v-1.33h-.014l-.437.996a.07.07 0 0 1-.067.046h-.239a.1.1 0 0 1-.041-.012.1.1 0 0 1-.025-.034m1.637.369h1.538l.014-.002.012-.008.007-.011q.003-.007.002-.014v-.385q0-.008-.002-.014l-.007-.012-.012-.007q-.006-.003-.014-.002H6.12l-.009-.001-.007-.004-.004-.008-.001-.008V2.655l-.002-.013-.008-.012-.011-.007q-.007-.003-.014-.002h-.441a.02.02 0 0 0-.013.002.02.02 0 0 0-.012.007.02.02 0 0 0-.007.012l-.003.013v2.292q0 .007.003.014l.007.011.012.008zm2.854-1.42-.125-.018c-.271-.038-.368-.125-.368-.26 0-.15.108-.257.316-.257a1 1 0 0 1 .561.186l.014-.001.013-.005q.005-.004.009-.01l.212-.316c.017-.024.014-.038-.007-.052-.198-.153-.49-.247-.802-.247-.51 0-.837.289-.837.723 0 .416.267.642.747.708l.125.017c.281.038.364.125.364.264 0 .167-.139.281-.385.281-.25 0-.462-.118-.618-.243l-.012-.008-.015-.002-.014.004-.011.01-.264.302a.04.04 0 0 0-.01.03q0 .017.013.029c.184.177.542.323.91.323.611 0 .927-.316.927-.743s-.257-.649-.743-.715"/>
  <path fill="var(--sports-mls-blue, #1a2857)" d="M14.082 1.8v-.271H1.988v4.867a8.33 8.33 0 0 0 1.69 5.041l.052.067-1.587 1.587.383.383 1.551-1.55c.442.501.943.948 1.491 1.331.73.51 1.537.899 2.39 1.153l.077.023.077-.023a8.3 8.3 0 0 0 2.39-1.153 8.4 8.4 0 0 0 1.89-1.818 8.33 8.33 0 0 0 1.69-5.041zm-9.971 9.309A7.77 7.77 0 0 1 2.53 6.396V2.071h10.633l-9.046 9.046zm9.011-2.184a7.8 7.8 0 0 1-1.162 2.184 7.9 7.9 0 0 1-1.768 1.701 7.8 7.8 0 0 1-2.157 1.054 7.7 7.7 0 0 1-2.156-1.054 7.8 7.8 0 0 1-1.418-1.271l9.079-9.078v3.935c.001.86-.14 1.715-.418 2.529"/>
</svg>