<svg id="strib-sports-team-twins" viewBox="0 0 16 16" width="16" height="16" fill="currentcolor" class="strib-icon strib-sports-team-twins" xmlns="http://www.w3.org/2000/svg">
  <path d="M10.039 15H7.162q-.001-.008.001-.014.092-.284.179-.57a8.5 8.5 0 0 0 .256-1.123q.015-.117.026-.235.015-.137.024-.274c.004-.063.001-.063-.061-.073-.116-.018-.234-.032-.35-.054-.21-.04-.422-.077-.63-.131a7 7 0 0 1-1.193-.434 7 7 0 0 1-.481-.256 6 6 0 0 1-.391-.244 8 8 0 0 1-.431-.316 14 14 0 0 1-.456-.377 5 5 0 0 1-.254-.234 35 35 0 0 1-.466-.472q-.155-.161-.306-.325-.097-.106-.196-.21l-.382-.403q-.144-.147-.289-.291l-.28-.278-.013-.01-.151-.143q.021-.013.036-.027.143-.13.279-.265.244-.247.484-.497.184-.191.365-.384c.15-.158.295-.319.448-.473q.329-.335.671-.657c.148-.139.308-.266.465-.394q.167-.137.342-.261.222-.156.454-.295a7 7 0 0 1 .525-.284q.277-.132.564-.241.227-.088.462-.152.281-.078.567-.137c.155-.032.312-.053.468-.078q.107-.016.21-.029V2.516c-1.761.098-3.366.645-4.837 1.616l.032-.201.056-.352.05-.316.05-.316.045-.267.053-.354q.035-.228.074-.454c.004-.023-.005-.055.03-.067q.148-.051.297-.099.2-.063.401-.118.243-.069.489-.127.308-.07.619-.132.153-.03.306-.056a17 17 0 0 1 .57-.088l.266-.033.263-.031q.114-.012.229-.022l.26-.026q.108-.008.217-.014l.365-.027.278-.013c.152-.006.304-.017.456-.015.267.002.535-.015.802.009.085.008.17.006.255.008l.41.011.135.008.361.026q.095.006.189.014l.311.033.27.028a26 26 0 0 1 .766.106q.227.036.452.08.29.058.58.125.265.06.527.135c.231.067.459.142.688.212.029.009.038.027.042.055l.039.236.049.308.054.347q.024.155.052.311l.052.321.048.308.05.311.018.118c-1.469-.973-3.074-1.519-4.834-1.616v1.837c.074.007.149.011.224.021q.2.026.4.059.262.043.519.1c.16.036.318.081.475.126a6.2 6.2 0 0 1 1.975.964 4.6 4.6 0 0 1 .733.667c.106.12.204.25.296.382.085.121.167.247.235.379.081.156.146.321.216.483.023.054.038.112.06.178h-1.281l-.738.006c-.014 0-.034-.006-.04-.016-.048-.072-.088-.149-.139-.218a4 4 0 0 0-.271-.34 2.2 2.2 0 0 0-.355-.323c-.118-.084-.232-.172-.354-.249a4.7 4.7 0 0 0-1.321-.538c-.174-.041-.35-.072-.526-.106-.036-.007-.074-.008-.11-.012v5.24l.36-.06c.23-.042.456-.104.677-.176q.362-.118.698-.294c.165-.087.327-.18.474-.295q.196-.15.379-.316.124-.114.229-.248.131-.167.247-.345c.022-.033.042-.045.079-.044q.172.005.343.006h.57l.879.005.206.006v.014l-.015.03a3.6 3.6 0 0 1-.281.654q-.176.315-.405.593a5 5 0 0 1-.392.418 5.2 5.2 0 0 1-1.113.797q-.262.135-.531.256a4 4 0 0 1-.361.144q-.304.104-.613.192c-.159.045-.32.08-.481.114q-.186.039-.374.068-.17.026-.34.048l-.231.023.014.159q.015.158.035.317c.017.132.032.264.059.394q.07.329.156.653c.054.199.119.395.18.592zm-2.37-9.078c-.136.023-.27.039-.4.069q-.28.066-.555.145-.312.09-.602.235a6 6 0 0 0-.447.248 2.9 2.9 0 0 0-.837.779q-.167.235-.266.506a1.7 1.7 0 0 0-.105.678q.005.116.02.23c.033.246.124.472.248.684q.184.311.448.559.256.244.556.428c.255.157.525.281.806.381.099.035.2.063.299.094.272.083.551.136.837.178.014-1.738.003-3.474-.003-5.214z"/>
</svg>