<svg id="strib-sports-team-timberwolves" viewBox="0 0 16 16" width="16" height="16" fill="currentcolor" class="strib-icon strib-sports-team-timberwolves" xmlns="http://www.w3.org/2000/svg">
  <path d="M1 8.006C.99 4.045 4.271.957 8.072 1a6.996 6.996 0 0 1 6.924 7.166c-.094 3.924-3.36 6.872-7.066 6.834C3.998 14.959.982 11.737 1 8.006m9.321 1.418c-.178.228-.197.501-.25.779l-.027-.078c-.156-.495-.12-.985.045-1.47.202-.595.545-1.106.967-1.565.163-.176.343-.339.527-.494.058-.049.154-.054.233-.079.015-.005.036-.003.046-.013.054-.054.043-.18-.019-.232a.21.21 0 0 0-.224-.034q-.145.06-.281.139c-.147.085-.29.178-.435.266q-.067.039-.136.07c-.23.102-.4.005-.434-.244a.96.96 0 0 1 .076-.482c.107-.271.234-.535.328-.81.141-.411.248-.831.194-1.274 0-.002.007-.006.026-.021.059.122.124.238.172.36.048.123.078.253.115.379l.025-.003c-.018-.2-.028-.401-.057-.599a1 1 0 0 0-.203-.488c-.043-.052-.098-.093-.158-.148l-.025.262q-.023.008-.038.01a2.2 2.2 0 0 1-.823-.087c-.045-.014-.074-.012-.103.025-.02.027-.046.05-.068.075a17 17 0 0 0-1.326 1.726c-.351.514-.64 1.056-.816 1.654-.039.133-.067.268-.101.402l-.014.001-.078-.419C6.73 7.272 5.968 8.339 6 9.081c.383-.359.787-.677 1.284-.872-.249 1.103.009 2.128.401 3.147.094-.227.175-.441.272-.647.124-.266.281-.512.505-.708.081-.07.174-.126.271-.194l.017.065c.115.556.309 1.08.655 1.534.213.279.453.537.687.8.266.299.498.618.628 1.001l.06.19c.255-.673.151-1.331-.051-2.001l.264.178.023-.008c-.077-.251-.144-.505-.232-.751-.097-.275-.224-.539-.319-.814-.064-.182-.095-.376-.143-.577zm3.164 1.915.021.006c.112-.219.232-.434.335-.657a6.3 6.3 0 0 0 .587-2.538 3.6 3.6 0 0 0-.042-.753c-.093-.486-.299-.931-.567-1.346-.545-.845-1.309-1.424-2.224-1.817-.014-.006-.03-.007-.049-.011q.008.085.012.16c.01.315-.005.629-.066.939-.014.071 0 .114.064.16.184.136.318.313.384.536.008.025.028.047.043.069.051.077.12.147.151.232.107.288.034.567-.061.847-.152-.136-.24-.132-.382.009a.4.4 0 0 0-.049.058c-.087.13-.17.262-.26.39-.032.047-.023.076.011.117.211.259.426.516.626.783.557.746 1.024 1.543 1.338 2.424.046.13.085.261.128.392M2.233 10.094c.246-.183.486-.363.728-.541.056-.04.075-.087.081-.155.034-.395.053-.793.117-1.183a7.5 7.5 0 0 1 1.093-2.841c.087-.138.157-.287.244-.449-.107 0-.197-.005-.287.001-.376.025-.715.161-1.033.357-.589.363-1.051.859-1.463 1.406a.2.2 0 0 0-.027.07 6.4 6.4 0 0 0-.056 2.157q.201 1.368.939 2.537c.026.042.054.082.086.131l.555-.881a3.5 3.5 0 0 1-.977-.608zm8.911-2.006-.029.067a3.7 3.7 0 0 0-.226 1.032c-.037.392-.016.772.134 1.143.197.488.379.983.426 1.514.012.126.019.253.028.393l-.223-.136.169 1.336q.006 0 .014-.003a6.3 6.3 0 0 0 1.708-1.577.12.12 0 0 0 .016-.091c-.09-.304-.166-.613-.281-.907-.311-.8-.766-1.52-1.284-2.201-.144-.189-.295-.373-.452-.57M3.467 9.114c.977-.883 1.772-1.899 2.643-2.845a3.4 3.4 0 0 0-.471-.706 2 2 0 0 0-.515-.426c-.029-.017-.085-.03-.104-.015-.094.076-.196.151-.266.247a6.4 6.4 0 0 0-.685 1.22 7.5 7.5 0 0 0-.561 2.083c-.017.139-.026.279-.041.442m4.126-6.129.005.024q.02.011.039.016c.334.059.667.125 1.003.171.32.044.642.066.964.101.048.005.076-.002.102-.048q.188-.321.503-.522c.213-.134.343-.111.5.089.026.034.044.073.068.107.016.022.033.049.056.06.308.143.489.395.598.706.021.06.055.088.111.111.714.28 1.37.655 1.929 1.185.14.133.269.277.404.417q.001-.01-.001-.017l-.031-.07a6.4 6.4 0 0 0-2.99-3.084.47.47 0 0 0-.268-.057c-.164.016-.329.02-.491.041a7.7 7.7 0 0 0-1.953.525c-.185.077-.366.163-.548.245M4.959 4.106c-.218-.153-.437-.291-.692-.363a2.7 2.7 0 0 0-.969-.068.18.18 0 0 0-.107.05 6.3 6.3 0 0 0-1.183 1.93c-.007.016-.009.034-.01.036.223-.187.444-.392.685-.57.585-.43 1.224-.697 1.973-.579.022.003.059-.011.069-.028.08-.133.155-.269.234-.408m1.514-1.173c-.314-.302-.392-.671-.339-1.092a6.5 6.5 0 0 0-2.475 1.406l.074.003 1.955.011a.2.2 0 0 0 .066-.012zm3.338-1.106a6.3 6.3 0 0 0-1.332-.246 6 6 0 0 0-1.607.085c-.341.066-.3-.026-.341.364a.7.7 0 0 0 .245.623c.089.078.164.093.28.046.673-.274 1.352-.533 2.056-.717.224-.059.452-.101.699-.156zM9.317 3.67c-.097-.011-.185-.024-.274-.029-.597-.037-1.189-.103-1.76-.298-.028-.009-.081.005-.099.027-.09.109-.171.226-.258.338-.036.046-.034.077.01.121.153.155.311.308.449.476.225.273.558.388.818.602zM7.951 5.229c-.186-.119-.362-.236-.544-.345a.9.9 0 0 0-.261-.116c-.301-.065-.604-.119-.907-.175-.086-.015-.186-.052-.258-.023-.184.072-.357.175-.548.274.445.3.741.703.99 1.148l.035-.019c.382-.285.804-.47 1.28-.525.02-.003.046-.012.058-.026.052-.06.099-.123.155-.193m-2.88-.619.014.012q.376-.206.754-.408a.2.2 0 0 1 .111-.023c.168.026.334.059.501.089l.432.081.017-.025-.591-.53.414-.603a.2.2 0 0 0-.091.026l-.721.36a.2.2 0 0 1-.104.028c-.175-.011-.35-.028-.525-.04-.125-.008-.25-.013-.392-.02l.56.421zm.269 4.677c-.706.452-1.447.809-2.294.903.539.099 1.076.218 1.645.077-.043-.037-.067-.057-.089-.078l-.067-.076a3 3 0 0 0 .805-.825zm2.223-3.255c-.35.2-.634.464-.904.716l.803-.234zm3.096-2.967q-.031-.058-.068-.112c-.091-.121-.21-.14-.319-.037-.079.074-.142.166-.212.25l.018.02c.167-.158.353-.212.581-.121m.351 2.807.028.385.19-.118a.45.45 0 0 0-.218-.267m.534-.105-.012.01.033.218.159-.015z"/>
</svg>