<svg id="strib-sports-outdoor" viewBox="0 0 16 16" width="16" height="16" fill="currentcolor" class="strib-icon strib-sports-outdoor" xmlns="http://www.w3.org/2000/svg">
  <path d="M10.361 3.095a.397.397 0 0 1 .561 0l1.981 1.981a.398.398 0 0 1-.103.635l-.829.415 2.253 2.252a.397.397 0 0 1-.155.657l-1.373.457 2.188 2.188a.398.398 0 0 1-.28.677h-4.227v1.585a.396.396 0 1 1-.792 0v-1.585H8.66a.396.396 0 0 1 0-.793h4.987l-1.965-1.965a.397.397 0 0 1 .155-.656l1.373-.458-2.188-2.188a.394.394 0 0 1 .103-.634l.829-.415-1.593-1.592a.397.397 0 0 1 0-.561m-4.06 7.944h-.547v2.903a.396.396 0 1 1-.792 0v-2.903h-.501v-.792h.501V8.823L3.757 7.618a.397.397 0 0 1 .561-.56l.644.644V5.357a.396.396 0 1 1 .792 0v1.685l.645-.645a.397.397 0 0 1 .56.561L5.754 8.162v2.085h.547z"/>
  <path d="M4.461 11.039h-.435l-.116-.003-.012-.001a2.375 2.375 0 0 1-2.217-2.689 2.377 2.377 0 0 1 .135-3.458 2.375 2.375 0 0 1 .732-2.702 2.375 2.375 0 0 1 2.81-.123 2.38 2.38 0 0 1 3.654 1.526c.085.437.044.887-.112 1.299a2.39 2.39 0 0 1 .622 2.733c-.116.27-.281.516-.486.725a2.38 2.38 0 0 1-.491 1.79 2.4 2.4 0 0 1-.829.666 2.4 2.4 0 0 1-1.037.237h-.378v-.792h.378a1.58 1.58 0 0 0 1.244-.603 1.59 1.59 0 0 0 .298-1.349.4.4 0 0 1 .132-.397 1.58 1.58 0 0 0 .351-2.022 1.6 1.6 0 0 0-.512-.531.396.396 0 0 1-.132-.528 1.585 1.585 0 0 0-2.438-1.958.396.396 0 0 1-.528-.001 1.59 1.59 0 0 0-2.05-.054 1.585 1.585 0 0 0-.388 2.013.396.396 0 0 1-.132.528 1.58 1.58 0 0 0-.728 1.236 1.58 1.58 0 0 0 .567 1.317c.116.097.167.25.132.397a1.59 1.59 0 0 0 .789 1.762c.202.109.425.173.655.187l.104.003h.418z"/>
</svg>