<svg id="strib-sports-tennis" viewBox="0 0 16 16" width="16" height="16" fill="currentcolor" class="strib-icon strib-sports-tennis" xmlns="http://www.w3.org/2000/svg">
  <path d="M12.5 2a1 1 0 1 0-2 0 1 1 0 0 0 2 0M6 8a.502.502 0 0 1-.49-.597.5.5 0 0 1 .137-.256l3.5-3.5a.5.5 0 0 1 .355-.153.5.5 0 0 1 .352.86l-3.5 3.5A.52.52 0 0 1 6 8"/>
  <path d="M12.353 12.147a4.2 4.2 0 0 0-2.36-1.105q.15-.123.289-.26a4.62 4.62 0 0 0 .867-4.957l-.938.348c.555 1.49.317 2.949-.636 3.901a3.35 3.35 0 0 1-2.781.903 4.9 4.9 0 0 1-2.885-1.393c-1.487-1.485-2.038-4.114-.491-5.66.954-.953 2.414-1.19 3.905-.636l.349-.937c-1.841-.684-3.742-.353-4.962.866-1.971 1.969-1.338 5.247.49 7.074a5.9 5.9 0 0 0 3.489 1.68c.105.011.207.012.311.017V12h2.498a3.43 3.43 0 0 1 2.148.853L13.793 15l.707-.707z"/>
</svg>