<svg id="strib-sports-league-pwhl-color" viewBox="0 0 16 16" width="16" height="16" fill="currentcolor" class="strib-icon strib-sports-league-pwhl-color" xmlns="http://www.w3.org/2000/svg">
  <path fill="var(--sports-pwhl-blue, #32058d)" d="m1 3.705 3.743 6.958h.529a.29.29 0 0 0 .257-.153l.82-1.526-2.648-4.925a.68.68 0 0 0-.594-.354zm4.214 0 4.337 8.063c.175.325.514.528.883.528h1.848l.594-1.104h-2.447a.49.49 0 0 1-.428-.255l-3.733-6.94a.56.56 0 0 0-.489-.293zm5.008 0a.56.56 0 0 0-.49.292L8.287 6.683l.449.834 2.05-3.812zm2.672 0a.67.67 0 0 0-.594.354L9.651 8.984l.821 1.526a.29.29 0 0 0 .256.153h.529L15 3.705zm-5.63 4.88-1.265 2.352a.49.49 0 0 1-.427.255H3.125l.593 1.103h1.848c.369 0 .709-.202.883-.527l1.264-2.349zm.159 3.015a.147.147 0 0 0-.147.148v.401c0 .081.066.147.147.147h1.154a.147.147 0 0 0 .148-.147v-.401a.15.15 0 0 0-.148-.148z"/>
</svg>