<svg id="strib-sports-team-gophers" viewBox="0 0 16 16" width="16" height="16" fill="currentcolor" class="strib-icon strib-sports-team-gophers" xmlns="http://www.w3.org/2000/svg">
  <path d="M1 10.338q.322-.002.632.001c.054.001.085-.017.115-.063q1.472-2.33 2.947-4.66c.011-.017.02-.035.037-.065h-.958V4.004h3.748v1.541h-.893l1.373 2.297 1.367-2.288h-.887V4.001h3.75v1.544h-.961c.019.036.03.059.043.08q1.47 2.321 2.937 4.644c.034.053.069.072.13.07q.305-.003.62-.001v1.659h-3.709v-1.655h.76l-1.629-2.62-.9 1.403h.628v1.624H5.853V9.131h.63l-.904-1.409-1.626 2.614h.755v1.663H1z"/>
</svg>