<svg id="strib-sports-league-nba-color" viewBox="0 0 16 16" width="16" height="16" fill="currentcolor" class="strib-icon strib-sports-league-nba-color" xmlns="http://www.w3.org/2000/svg">
  <path fill="var(--sports-nba-white, #ffffff)" d="M9.939 1H6.061c-.616 0-1.117.497-1.117 1.108v11.779c0 .614.501 1.113 1.117 1.113h3.916a1.114 1.114 0 0 0 1.079-1.113V2.108c0-.611-.501-1.108-1.117-1.108m.855 6.575v6.313a.856.856 0 0 1-.827.85H6.061a.856.856 0 0 1-.855-.85V2.108c0-.467.385-.845.855-.845h3.878a.85.85 0 0 1 .854.845v5.467z"/>
  <path fill="var(--sports-nba-red, #fa002e)" d="M10.794 8.576v5.311c0 .46-.368.834-.827.85.009-.008.103-.105.115-.113.057-.045.213-.285.213-.37s-.229-.818-.229-.875 0-.183-.041-.24-.058-.142-.07-.195c-.016-.057-.028-.326-.028-.326s.098-.353.069-.508c-.028-.154-.27-.537-.27-.553 0-.012-.172-1.102-.311-1.395-.143-.297-.315-.582-.315-.582s-.126-.622-.241-1.016a10 10 0 0 1-.143-.594c-.033-.163-.053-.281-.053-.281l.086-.142s-.344-1.241-.385-1.298c-.045-.057-.184-.142-.184-.142s-.073-.069-.057-.069c.012 0 .241-.61.282-.708.045-.098.156-.309.287-.366.126-.057.139-.073.167-.057.029.012.131.748.184.919.058.167.242.647.373.846.126.2.183.338.183.338s-.036.049-.065.102a1.03 1.03 0 0 0-.679.963c0 .57.462 1.029 1.035 1.029.389 0 .728-.211.904-.528m-.855-7.313H8.622c.029.012.315.203.368.268.053.069.041.171.012.297a3 3 0 0 1-.086.281s-.041.101-.028.114a.2.2 0 0 1 .028.073s-.167.309-.184.321c-.012.016-.229.399-.298.427-.03.009-.055.09-.029.11l.213.159.086.012.212.142s.017.069.115.126.311.252.442.423c.126.171.155.553.167.846.017.297.131.936.156.976.028.041.229.537.27.663.045.126.073.411.073.411l.197.24c.192.089.351.24.458.423V2.108a.85.85 0 0 0-.855-.845"/>
  <path fill="var(--sports-nba-blue, #003399)" d="M9.452 14.058c.012-.284.057-.606.057-.606s-.069-.158-.11-.268c-.045-.114.001-.091.012-.13 0 0 .016-.139-.07-.269-.085-.126-.286-.549-.298-.549-.017 0 .069-.114.069-.114l-.171-.382s-.978-.732-1.391-1.115c-.409-.382-1.178-1.667-1.248-1.679a.6.6 0 0 0-.212.028s-.045-.126-.102-.313c-.029-.089-.156-.394-.274-.691-.115-.285-.221-.566-.221-.647 0-.171 0-.411.041-.582.044-.166.286-.423.269-.423-.012 0-.057-.085-.057-.085s-.184.122-.409-.061c-.229-.183-.057-.708.352-1.696.413-.989.585-1.18.671-1.249.081-.073.127-.102.139-.102l.425-.012.057-.069.401-.016c-.002 0 .257-.013.155-.663 0 0-.085-.212-.085-.257 0-.04.057-.097.069-.109.138-.137.137-.11.155-.509l.189-.142.11-.085H6.061a.85.85 0 0 0-.855.846v11.779c0 .467.385.85.855.85h3.55s-.172-.216-.159-.68m-2.63-.043h-.487l-.295-1.338v1.338h-.319v-1.708h.569l.208 1.11.005-1.11h.319zm1.085-1.232c0 .162-.045.28-.306.321v.008c.212.016.306.098.306.37v.151c0 .292-.163.382-.482.382h-.479v-1.708h.479c.253 0 .482.085.482.345zm.71 1.232-.045-.464h-.196l-.062.464h-.363l.306-1.708h.54l.246 1.708zm-1.12-.702v.378c0 .069-.028.081-.094.081h-.049v-.541h.049c.066 0 .094.013.094.082m0-.652v.249c0 .081-.028.11-.094.11h-.049v-.468h.049c.066 0 .094.028.094.109m.983-.057.065.704h-.131z"/>
  <path fill="var(--sports-nba-white, #ffffff)" d="M6.503 12.307h.319v1.708h-.487l-.294-1.338v1.338h-.319v-1.708h.568l.209 1.11zm3.833-5.155-.197-.24s-.028-.285-.073-.411a9 9 0 0 0-.27-.663c-.025-.04-.139-.679-.156-.976-.012-.293-.041-.675-.167-.846a2 2 0 0 0-.442-.423c-.098-.057-.115-.126-.115-.126l-.212-.142-.086-.012-.213-.159c-.026-.02-.001-.101.029-.11.069-.028.286-.41.298-.427a5 5 0 0 0 .184-.321s-.012-.057-.028-.073c-.013-.012.028-.114.028-.114s.058-.155.086-.281c.029-.126.041-.228-.012-.297-.053-.065-.339-.256-.368-.268h-.646l-.111.085-.188.142c-.018.399-.018.372-.155.509-.013.012-.07.069-.07.109 0 .045.086.257.086.257.102.65-.157.663-.155.663l-.401.016-.057.069-.426.012c-.012 0-.057.029-.139.102-.086.069-.257.26-.671 1.249-.409.988-.58 1.513-.351 1.696.225.183.409.061.409.061s.045.085.057.085c.016 0-.225.256-.27.423-.041.171-.041.411-.041.582 0 .081.106.362.221.647.119.296.245.601.274.691.057.187.102.313.102.313s.139-.045.213-.028c.069.012.838 1.297 1.247 1.679.413.383 1.391 1.115 1.391 1.115l.172.382s-.086.114-.07.114c.013 0 .213.423.299.549.086.13.069.269.069.269-.011.039-.057.016-.012.13.041.11.111.268.111.268s-.045.322-.058.606c-.012.464.16.679.16.679h.356c.008-.008.102-.105.114-.113.058-.045.213-.285.213-.37s-.229-.818-.229-.875 0-.183-.041-.24-.057-.142-.07-.195c-.016-.057-.028-.326-.028-.326s.098-.353.069-.508-.27-.537-.27-.553c0-.012-.171-1.102-.31-1.395a8 8 0 0 0-.315-.582s-.127-.622-.242-1.016a10 10 0 0 1-.143-.594c-.032-.163-.053-.281-.053-.281l.086-.142s-.344-1.241-.385-1.298a1 1 0 0 0-.183-.142s-.074-.069-.058-.069c.013 0 .242-.61.283-.708.044-.098.155-.309.286-.366.127-.057.139-.073.168-.057.028.012.131.748.184.919.057.167.241.647.372.846.127.2.184.338.184.338s-.037.049-.066.101a1.03 1.03 0 0 0-.679.964c0 .57.463 1.029 1.035 1.029.389 0 .728-.211.904-.528V7.575a1.05 1.05 0 0 0-.458-.423m-1.539 5.155.246 1.708h-.426l-.045-.464h-.196l-.061.464h-.364l.306-1.708zm-.252 1.001-.065-.704-.065.704zm-.638-.656v.131c0 .162-.044.28-.306.321v.008c.212.016.306.098.306.37v.151c0 .292-.163.382-.482.382h-.479v-1.708h.479c.253 0 .482.085.482.345m-.409.661c0-.069-.029-.081-.094-.081h-.05v.541h.05c.065 0 .094-.013.094-.082zm0-.651c0-.082-.029-.11-.094-.11h-.05v.468h.05c.065 0 .094-.029.094-.11z"/>
</svg>