<svg id="strib-sports-roster-filled" viewBox="0 0 16 16" width="16" height="16" fill="currentcolor" class="strib-icon strib-sports-roster-filled" xmlns="http://www.w3.org/2000/svg">
  <path d="M14.637 3.191 10.285 1.74c-.145-.072-.29 0-.435.073a.4.4 0 0 0-.218.363c0 .943-.725 1.741-1.668 1.741a1.765 1.765 0 0 1-1.741-1.741.4.4 0 0 0-.218-.363c-.072-.073-.217-.145-.363-.073L1.29 3.191c-.217.073-.29.218-.29.435v3.627c0 .291.218.436.435.436h1.741v6.093c0 .29.218.508.435.508h8.705c.29 0 .508-.218.508-.508V7.689h1.668c.29 0 .508-.218.508-.436V3.626c0-.217-.145-.362-.363-.435m-5.44 4.207-1.233 4.135-1.016-.29 1.016-3.482H6.368V6.673h2.321c.145 0 .363.073.435.218s.145.362.073.507"/>
</svg>