<svg id="strib-sports-league-wnba-color" viewBox="0 0 16 16" width="16" height="16" fill="currentcolor" class="strib-icon strib-sports-league-wnba-color" xmlns="http://www.w3.org/2000/svg">
  <path fill="var(--sports-wnba-white, #ffffff)" d="M6.35,1L9.65,1C10.444,1 11.085,1.645 11.085,2.435L11.085,13.565C11.085,14.359 10.44,15 9.65,15L6.35,15C5.556,15 4.915,14.355 4.915,13.565L4.915,2.435C4.911,1.645 5.556,1 6.35,1Z"/>
  <path fill="var(--sports-wnba-orange, #f15623)" d="M10.755,13.569L10.755,2.435C10.755,1.829 10.26,1.338 9.654,1.338L7.731,1.338C8.065,1.618 8.107,2.116 7.827,2.446C7.678,2.627 7.455,2.726 7.221,2.726C7.214,2.726 7.202,2.726 7.194,2.723C7.19,2.753 7.19,2.838 7.187,2.888C7.183,2.937 7.164,2.984 7.137,3.026C7.129,3.045 7.129,3.064 7.137,3.083C7.167,3.206 7.329,3.77 7.352,3.854C7.417,4.077 7.474,4.346 7.474,4.545C7.501,4.342 7.682,4.054 8.084,4.054C8.15,4.054 8.215,4.065 8.238,4.104C8.315,4.115 8.38,4.154 8.43,4.211C8.537,4.319 8.518,4.399 8.541,4.445C8.56,4.48 8.706,4.534 8.706,4.817C8.706,4.933 8.729,5.013 8.729,5.051C8.733,5.094 8.71,5.136 8.668,5.155C8.641,5.17 8.618,5.186 8.591,5.205C8.549,5.228 8.529,5.247 8.529,5.286C8.529,5.32 8.537,5.351 8.549,5.381C8.556,5.401 8.576,5.416 8.599,5.42C8.675,5.416 8.756,5.416 8.833,5.424C8.948,5.347 9.086,5.309 9.224,5.309C9.274,5.309 9.362,5.316 9.393,5.32C9.458,5.266 9.535,5.236 9.615,5.228C9.492,4.963 9.492,4.733 9.381,4.445C9.32,4.299 9.255,4.127 9.235,4.081C9.224,4.058 9.212,4.031 9.197,4.012C9.166,3.981 9.136,3.95 9.113,3.912C9.078,3.862 9.059,3.801 9.055,3.743C9.051,3.736 9.051,3.728 9.051,3.72C9.047,3.67 8.99,3.574 8.959,3.501C8.929,3.421 8.859,3.383 8.859,3.329C8.859,3.302 8.886,3.287 8.921,3.287C8.982,3.29 9.036,3.333 9.055,3.394C9.097,3.482 9.12,3.551 9.166,3.551C9.189,3.551 9.209,3.548 9.228,3.536C9.258,3.513 9.289,3.386 9.297,3.333C9.312,3.198 9.343,3.01 9.393,2.899C9.412,2.861 9.439,2.842 9.458,2.842C9.473,2.842 9.489,2.857 9.489,2.872C9.485,2.907 9.477,2.945 9.466,2.98C9.462,3.003 9.45,3.068 9.439,3.125C9.466,3.06 9.496,2.999 9.504,2.98C9.519,2.941 9.573,2.853 9.619,2.853C9.654,2.853 9.665,2.876 9.665,2.888C9.654,2.93 9.634,2.968 9.615,3.007C9.588,3.06 9.565,3.118 9.554,3.175C9.577,3.149 9.608,3.095 9.657,3.095C9.68,3.095 9.692,3.106 9.692,3.122C9.688,3.137 9.684,3.156 9.677,3.172C9.673,3.179 9.615,3.275 9.608,3.302C9.596,3.329 9.565,3.417 9.539,3.475C9.55,3.471 9.554,3.459 9.577,3.459C9.592,3.459 9.604,3.471 9.604,3.486C9.588,3.536 9.569,3.582 9.539,3.62C9.535,3.659 9.531,3.697 9.523,3.739C9.516,3.808 9.516,3.881 9.527,3.95C9.539,4 9.558,4.05 9.581,4.096C9.696,4.342 9.941,4.61 10.072,4.863C10.172,5.051 10.252,5.255 10.252,5.435C10.252,5.477 10.233,5.52 10.195,5.546C10.06,5.662 9.915,5.761 9.757,5.846C9.623,5.907 9.308,5.991 9.243,6.038C9.174,6.08 9.059,6.237 9.059,6.237C9.101,6.375 9.128,6.521 9.14,6.667C9.143,6.782 9.082,6.954 9.047,7.085C8.998,7.284 8.898,7.668 8.859,7.837C8.817,8.013 8.794,8.198 8.79,8.378C8.79,8.481 8.798,8.585 8.817,8.685C9.067,8.95 9.6,9.621 9.6,9.859C9.588,9.974 9.531,10.081 9.443,10.154C9.274,10.277 9.055,10.626 8.982,10.707C8.741,10.991 8.499,11.255 8.372,11.451C8.411,11.455 8.43,11.478 8.43,11.501C8.43,11.581 8.361,11.608 8.334,11.635C8.307,11.658 8.318,11.758 8.334,11.8C8.349,11.827 8.349,11.858 8.334,11.885C8.368,11.911 8.345,11.973 8.345,11.973C8.372,12.004 8.368,12.115 8.368,12.115C8.388,12.195 8.418,12.276 8.46,12.349C8.472,12.372 8.48,12.395 8.48,12.418C8.476,12.483 8.414,12.518 8.326,12.518C7.996,12.518 7.666,12.099 7.701,12.057C7.325,12.514 6.715,13.082 6.696,13.108C6.68,13.124 6.665,13.147 6.646,13.162C6.665,13.174 6.684,13.212 6.684,13.212C6.768,13.243 6.646,13.331 6.603,13.335C6.534,13.339 6.561,13.35 6.531,13.377C6.481,13.419 6.438,13.465 6.4,13.515C6.366,13.561 6.354,13.672 6.32,13.788C6.281,13.926 6.235,14.01 6.235,14.118C6.235,14.133 6.239,14.256 6.239,14.286C6.239,14.551 6.17,14.616 6.051,14.628C6.147,14.655 6.247,14.67 6.35,14.67L9.665,14.67C10.264,14.666 10.755,14.175 10.755,13.569ZM8.249,13.883C8.249,14.06 8.138,14.187 7.973,14.187C7.9,14.19 7.827,14.164 7.774,14.114C7.72,14.164 7.651,14.19 7.578,14.187C7.421,14.187 7.302,14.071 7.302,13.883L7.302,12.733L7.543,12.733L7.543,13.895C7.543,13.93 7.574,13.953 7.605,13.953C7.636,13.953 7.659,13.926 7.662,13.895L7.662,12.733L7.889,12.733L7.889,13.895C7.889,13.926 7.912,13.949 7.939,13.953L7.946,13.953C7.977,13.956 8.004,13.93 8.004,13.899L8.004,12.733L8.246,12.733L8.246,13.883L8.249,13.883ZM8.944,14.164L8.706,14.164L8.706,12.99C8.706,12.967 8.694,12.947 8.671,12.947C8.633,12.947 8.602,12.99 8.579,13.028L8.579,14.164L8.338,14.164L8.338,12.733L8.553,12.733L8.553,12.802C8.595,12.74 8.664,12.706 8.737,12.706C8.863,12.706 8.94,12.802 8.94,12.955L8.944,14.164ZM9.638,13.891C9.638,14.095 9.508,14.164 9.374,14.164L9.044,14.164L9.044,12.733L9.362,12.733C9.512,12.733 9.638,12.798 9.638,13.001L9.638,13.235C9.638,13.377 9.569,13.404 9.535,13.423C9.565,13.438 9.638,13.477 9.638,13.611L9.638,13.891ZM10.302,13.005L10.302,14.164L10.133,14.164C10.129,14.148 10.126,14.118 10.122,14.102C10.083,14.156 10.022,14.19 9.953,14.183C9.807,14.183 9.707,14.083 9.707,13.864L9.707,13.761C9.707,13.507 9.842,13.373 10.068,13.239L10.068,12.99C10.068,12.959 10.041,12.932 10.007,12.932L10.003,12.932C9.972,12.932 9.945,12.959 9.945,12.99L9.945,13.235L9.704,13.235L9.704,13.016C9.704,12.832 9.826,12.706 10.003,12.706C10.175,12.706 10.302,12.805 10.302,13.005ZM10.068,13.857L10.068,13.508C9.991,13.554 9.945,13.638 9.949,13.73L9.949,13.872C9.949,13.926 9.964,13.953 10.007,13.953C10.045,13.949 10.068,13.918 10.068,13.857ZM9.408,13.872L9.408,13.6C9.408,13.55 9.389,13.527 9.343,13.527L9.281,13.527L9.281,13.945L9.347,13.945C9.385,13.945 9.408,13.922 9.408,13.872ZM9.408,13.262L9.408,13.02C9.412,12.982 9.381,12.947 9.343,12.944L9.281,12.944L9.281,13.327L9.331,13.327C9.37,13.331 9.404,13.3 9.408,13.262ZM6.78,5.608C6.78,5.539 6.814,5.508 6.814,5.458C6.814,5.397 6.799,5.366 6.772,5.347C6.784,5.305 6.818,5.274 6.864,5.266C6.895,5.266 6.926,5.278 6.945,5.259C6.891,5.224 6.907,5.182 6.903,5.147C6.976,5.167 7.052,5.132 7.087,5.067C7.018,4.933 6.83,4.591 6.834,4.119C6.838,3.805 6.849,3.463 6.811,3.225C6.799,3.152 6.78,3.014 6.772,2.98C6.757,2.857 6.588,2.65 6.58,2.627C6.542,2.519 6.523,2.408 6.519,2.293C6.465,2.185 6.438,2.067 6.438,1.944C6.438,1.71 6.542,1.491 6.719,1.341L6.343,1.341C5.736,1.341 5.249,1.833 5.245,2.439L5.245,13.577C5.245,14.029 5.522,14.436 5.944,14.601C5.786,14.463 5.729,14.187 5.729,14.052C5.729,13.914 5.767,13.814 5.767,13.734C5.767,13.542 5.687,13.469 5.664,13.335C5.656,13.27 5.656,13.204 5.66,13.139C5.66,12.967 5.867,12.917 6.189,12.882C6.216,12.878 6.25,12.878 6.27,12.897C6.389,12.871 6.838,11.896 6.891,11.796C7.022,11.551 7.175,11.359 7.44,11.271C7.471,11.125 7.555,10.657 7.559,10.434C7.536,10.419 7.497,10.407 7.497,10.354C7.497,10.242 7.57,10.085 7.57,9.882C7.566,9.824 7.559,9.767 7.547,9.713C7.198,9.264 7.106,9.045 7.106,8.719C7.106,8.205 7.425,8.033 7.49,7.868C7.497,7.848 7.501,7.829 7.505,7.81C7.505,7.791 7.494,7.783 7.494,7.76C7.49,7.722 7.513,7.683 7.555,7.676C7.559,7.676 7.563,7.672 7.563,7.657C7.563,7.641 7.551,7.584 7.547,7.564C7.421,6.924 7.26,6.602 7.26,6.103C7.256,6.038 7.263,5.972 7.275,5.907C7.256,5.911 7.237,5.915 7.214,5.915C7.125,5.919 7.049,5.85 7.041,5.757C7.014,5.761 6.991,5.765 6.964,5.761C6.849,5.757 6.78,5.696 6.78,5.608Z"/>
</svg>
