<svg id="strib-sports-outdoor-filled" viewBox="0 0 16 16" width="16" height="16" fill="currentcolor" class="strib-icon strib-sports-outdoor-filled" xmlns="http://www.w3.org/2000/svg" clip-rule="evenodd" fill-rule="evenodd">
  <path d="M4.962 11.039V8.823L3.757 7.618a.397.397 0 0 1 .561-.56l.644.644V5.357a.396.396 0 1 1 .792 0v1.685l.645-.645a.397.397 0 0 1 .56.561L5.754 8.162v2.877m-.792.525v2.378a.396.396 0 1 0 .792 0v-2.378m4.607-8.469a.397.397 0 0 1 .561 0l1.981 1.981a.398.398 0 0 1-.103.635l-.829.415 2.253 2.252a.397.397 0 0 1-.155.657l-1.373.457 2.188 2.188a.398.398 0 0 1-.28.677h-4.227v1.585a.396.396 0 1 1-.792 0v-1.585H8.66a.396.396 0 0 1 0-.793h4.987l-1.965-1.965a.397.397 0 0 1 .155-.656l1.373-.458-2.188-2.188a.394.394 0 0 1 .103-.634l.829-.415-1.593-1.592a.397.397 0 0 1 0-.561m-4.607 7.944h.925a2.4 2.4 0 0 0 1.037-.237 2.38 2.38 0 0 0 1.32-2.456 2.37 2.37 0 0 0 .675-1.815A2.4 2.4 0 0 0 8.9 4.888a2.38 2.38 0 0 0-.733-2.701 2.38 2.38 0 0 0-2.809-.124 2.378 2.378 0 0 0-3.542 2.825 2.37 2.37 0 0 0-.811 1.643 2.37 2.37 0 0 0 .676 1.815 2.36 2.36 0 0 0 .448 1.734 2.38 2.38 0 0 0 1.769.955l.012.001.116.003h.936"/>
</svg>