<svg id="strib-sports-soccer-filled" viewBox="0 0 16 16" width="16" height="16" fill="currentcolor" class="strib-icon strib-sports-soccer-filled" xmlns="http://www.w3.org/2000/svg">
  <path d="M14.416 5.19a7 7 0 0 0-3.737-3.667 7 7 0 0 0-2.153-.513v2.536l3.53 2.56zM7.481 1.01a7 7 0 0 0-5.896 4.178l2.363.917L7.48 3.544zM1.24 6.174a7 7 0 0 0 .293 4.494 7 7 0 0 0 1.762 2.503l1.636-1.886-1.33-4.195zm2.88 7.64a7 7 0 0 0 7.773-.007l-1.626-1.952H5.82zm8.596-.651q.12-.11.234-.224a7 7 0 0 0 1.811-6.763l-2.358.915-1.309 4.125zm-8.08-6.267 1.241 3.915h4.25l1.242-3.915-3.367-2.44z"/>
</svg>