<svg id="strib-sports-running" viewBox="0 0 16 16" width="16" height="16" fill="currentcolor" class="strib-icon strib-sports-running" xmlns="http://www.w3.org/2000/svg">
  <path d="M10.497 9.878 8.309 7.691A.43.43 0 0 0 8 7.563a.43.43 0 0 0-.309.128l-5.816 5.815.619.619L8 8.619l1.569 1.569-2.444 2.443.619.619 2.753-2.753a.44.44 0 0 0 0-.619"/>
  <path d="m13.506 4.938-2.443 2.443-2.626-2.625a.87.87 0 0 0-.622-.256.87.87 0 0 0-.615.256L4.5 7.457l.619.619 2.699-2.701 2.935 2.934a.437.437 0 0 0 .619 0l2.753-2.753z"/>
  <path d="M10.844 4.938a1.533 1.533 0 0 1 0-3.063c.844 0 1.531.687 1.531 1.531 0 .845-.687 1.532-1.531 1.532m0-2.188a.656.656 0 1 0 0 1.313.656.656 0 0 0 0-1.313"/>
</svg>