<svg id="strib-sports-basketball" viewBox="0 0 16 16" width="16" height="16" fill="currentcolor" class="strib-icon strib-sports-basketball" xmlns="http://www.w3.org/2000/svg">
  <path d="M4.816 14.234a7 7 0 0 1-3.023-2.998l.679-.679a6 6 0 0 0 .913 1.418L5.43 9.93a6 6 0 0 0-1.418-.913l.678-.679c.495.258.96.576 1.384.948L7.36 8 6.194 6.834l.643-.643 1.166 1.166 1.283-1.283a7 7 0 0 1-.948-1.384l.679-.679c.236.51.543.988.914 1.419l2.044-2.045a6 6 0 0 0-1.418-.913l.679-.679a7 7 0 0 1 2.998 3.023l-.681.681a6.2 6.2 0 0 0-.935-1.469l-2.044 2.044c.445.383.94.697 1.468.935l-.681.681a7 7 0 0 1-1.432-.971L8.646 8l1.202 1.202-.643.643-1.202-1.202-1.286 1.286c.384.438.71.919.971 1.432l-.681.681a6 6 0 0 0-.935-1.468l-2.044 2.044c.442.38.936.695 1.469.935z"/>
  <path d="M14.234 4.816A7 7 0 0 1 15 7.986v.027a7 7 0 0 1-2.05 4.937 7.005 7.005 0 0 1-8.134 1.284l.681-.681.172.074a6.1 6.1 0 0 0 1.858.446 6.1 6.1 0 0 0-.52-2.031l.681-.681a7 7 0 0 1 .751 2.714 6.1 6.1 0 0 0 3.536-1.46l-2.77-2.77.643-.643 2.77 2.77a6.1 6.1 0 0 0 1.457-3.533 7 7 0 0 1-2.714-.751l.681-.681a6.1 6.1 0 0 0 2.03.52 6 6 0 0 0-.445-1.858l-.074-.172zm-12.441 6.42A7 7 0 0 1 1 8.004v-.008A7.02 7.02 0 0 1 3.05 3.05 7 7 0 0 1 7.989 1h.022a7 7 0 0 1 3.225.793l-.679.679a6 6 0 0 0-2.084-.544 6.1 6.1 0 0 0 .544 2.083l-.679.679a7 7 0 0 1-.777-2.765 6.1 6.1 0 0 0-3.533 1.457l2.809 2.809-.643.643-2.809-2.809a6.1 6.1 0 0 0-1.46 3.536 7 7 0 0 1 2.765.777l-.678.679a6.1 6.1 0 0 0-2.085-.544 6.1 6.1 0 0 0 .545 2.084z"/>
</svg>