<svg id="strib-sports-hockey-filled" viewBox="0 0 16 16" width="16" height="16" fill="currentcolor" class="strib-icon strib-sports-hockey-filled" xmlns="http://www.w3.org/2000/svg">
  <path d="M10.848 8.029h2.862c.704 0 1.289.568 1.289 1.288v.879c0 .704-.569 1.289-1.289 1.289h-2.711c-.344 0-.668-.134-.911-.378L7.999 9.019l-2.088 2.088a1.28 1.28 0 0 1-.911.378H2.289A1.297 1.297 0 0 1 1 10.196v-.879c0-.704.569-1.288 1.289-1.288H5.15a.47.47 0 0 0 .332-.137l.695-.696-4.254-4.253a.41.41 0 0 1 0-.58L3.166 1.12a.41.41 0 0 1 .58 0l4.253 4.254 4.254-4.254a.41.41 0 0 1 .58 0l1.243 1.243c.16.16.16.42 0 .58L9.822 7.196l.695.695a.47.47 0 0 0 .331.138m-4.605 4.394h3.515c.225 0 .41.185.41.41v1.757c0 .225-.185.41-.41.41H6.243a.41.41 0 0 1-.41-.41v-1.757c0-.225.185-.41.41-.41"/>
</svg>