<svg id="strib-sports-soccer" viewBox="0 0 16 16" width="16" height="16" fill="currentcolor" class="strib-icon strib-sports-soccer" xmlns="http://www.w3.org/2000/svg">
  <path d="m4.345 12.003.985-1.135-1.158-3.651-1.149-.445v-.976l1.451.563 3.074-2.228V3.027h.909v1.106L11.53 6.36l1.471-.571v.976l-1.17.453-1.139 3.59 1.02 1.224h-1.183l-.557-.668H6.103l-.555.639zm.727-4.954 1.08 3.406h3.699l1.08-3.406-2.93-2.124z"/>
  <path d="M8 1a7 7 0 0 1 6.564 4.567.5.5 0 0 1 .073.209 6.998 6.998 0 0 1-9.316 8.691 7 7 0 0 1-3.788-3.788 7 7 0 0 1-.161-4.929.4.4 0 0 1 .056-.16q.05-.136.105-.269a7 7 0 0 1 3.788-3.788A7 7 0 0 1 8 1M3.023 6.772l-.906-.351a6.09 6.09 0 0 0 1.789 6.088l.439-.506h1.203l-.925 1.066a6.1 6.1 0 0 0 5.708.558 6 6 0 0 0 1.056-.565l-.858-1.03h1.183l.391.469a6.09 6.09 0 0 0 1.78-6.078l-.882.342v-.976l.582-.225a6.09 6.09 0 0 0-5.126-3.638v1.101h-.909V1.926a6.08 6.08 0 0 0-3.855 1.767 6.1 6.1 0 0 0-1.275 1.869l.605.234z"/>
</svg>