<svg id="strib-sports-swimming" viewBox="0 0 16 16" width="16" height="16" fill="currentcolor" class="strib-icon strib-sports-swimming" xmlns="http://www.w3.org/2000/svg">
  <path d="M15,13L14,13C13.612,13.003 13.229,12.915 12.881,12.743C12.533,12.57 12.232,12.318 12,12.006C11.766,12.315 11.464,12.565 11.117,12.738C10.77,12.91 10.387,13 10,13C9.613,13 9.23,12.91 8.883,12.738C8.536,12.565 8.234,12.315 8,12.006C7.766,12.315 7.464,12.565 7.117,12.738C6.77,12.91 6.387,13 6,13C5.613,13 5.23,12.91 4.883,12.738C4.536,12.565 4.234,12.315 4,12.006C3.768,12.318 3.466,12.57 3.119,12.743C2.771,12.915 2.388,13.003 2,13L1,13L1,12L2,12C2.341,11.98 2.668,11.859 2.94,11.652C3.212,11.445 3.416,11.162 3.527,10.839C3.558,10.739 3.621,10.652 3.707,10.591C3.792,10.53 3.895,10.498 4,10.5C4.105,10.5 4.207,10.534 4.292,10.595C4.377,10.656 4.441,10.743 4.474,10.842C4.585,11.164 4.789,11.447 5.061,11.653C5.333,11.859 5.659,11.98 6,12C6.341,11.98 6.668,11.859 6.94,11.652C7.212,11.445 7.416,11.162 7.527,10.839C7.56,10.74 7.623,10.654 7.708,10.593C7.793,10.532 7.895,10.499 8,10.5C8.105,10.5 8.207,10.534 8.292,10.595C8.377,10.656 8.441,10.743 8.474,10.842C8.585,11.164 8.789,11.447 9.061,11.653C9.333,11.859 9.659,11.98 10,12C10.341,11.98 10.668,11.859 10.94,11.652C11.212,11.445 11.416,11.162 11.527,10.839C11.56,10.74 11.624,10.654 11.709,10.593C11.795,10.532 11.897,10.5 12.001,10.5C12.106,10.5 12.208,10.533 12.293,10.595C12.378,10.656 12.441,10.743 12.474,10.842C12.585,11.164 12.789,11.447 13.061,11.653C13.333,11.859 13.659,11.98 14,12L15,12L15,13Z"/>
  <path d="M11.5,8.793L7.146,4.439C7.008,4.3 6.842,4.189 6.66,4.113C6.478,4.038 6.283,3.999 6.086,4L2,4L2,5L6.086,5C6.151,5 6.216,5.013 6.277,5.038C6.338,5.063 6.393,5.1 6.439,5.147L7.793,6.5L5,9.293L5.707,10L8.5,7.207L10.793,9.5L11.5,8.793Z"/>
  <path d="M10,5C10,4.604 10.117,4.218 10.337,3.889C10.557,3.56 10.869,3.304 11.235,3.152C11.6,3.001 12.002,2.961 12.39,3.038C12.778,3.116 13.134,3.306 13.414,3.586C13.694,3.865 13.884,4.222 13.961,4.61C14.039,4.998 13.999,5.4 13.848,5.765C13.696,6.131 13.44,6.443 13.111,6.663C12.782,6.883 12.395,7 12,7C11.47,6.999 10.961,6.789 10.586,6.414C10.211,6.039 10.001,5.53 10,5ZM11,5C11,5.198 11.059,5.391 11.168,5.556C11.278,5.72 11.435,5.848 11.617,5.924C11.8,6 12.001,6.019 12.195,5.981C12.389,5.942 12.567,5.847 12.707,5.707C12.847,5.567 12.942,5.389 12.981,5.195C13.019,5.001 12.999,4.8 12.924,4.617C12.848,4.435 12.72,4.278 12.555,4.169C12.391,4.059 12.198,4 12,4C11.735,4 11.481,4.106 11.293,4.293C11.106,4.481 11,4.735 11,5Z"/>
</svg>
