<svg id="strib-sports-tennis" viewBox="0 0 16 16" width="16" height="16" fill="currentcolor" class="strib-icon strib-sports-tennis" xmlns="http://www.w3.org/2000/svg">
  <path d="M12.5,2C12.5,1.448 12.052,1 11.5,1C10.948,1 10.5,1.448 10.5,2C10.5,2.552 10.948,3 11.5,3C12.052,3 12.5,2.552 12.5,2Z"/>
  <path d="M6,8C5.901,8 5.805,7.971 5.722,7.916C5.64,7.861 5.576,7.783 5.538,7.691C5.5,7.6 5.491,7.5 5.51,7.403C5.529,7.306 5.577,7.217 5.647,7.147L9.147,3.647C9.193,3.599 9.248,3.561 9.309,3.535C9.37,3.508 9.436,3.495 9.502,3.494C9.568,3.493 9.634,3.506 9.696,3.531C9.757,3.556 9.813,3.594 9.86,3.64C9.907,3.687 9.944,3.743 9.969,3.805C9.994,3.866 10.007,3.932 10.006,3.998C10.006,4.065 9.992,4.13 9.966,4.191C9.939,4.252 9.901,4.308 9.854,4.354L6.354,7.854C6.307,7.9 6.252,7.937 6.192,7.962C6.131,7.987 6.066,8 6,8Z"/>
  <path d="M12.353,12.147C11.704,11.537 10.877,11.151 9.993,11.042C10.093,10.96 10.19,10.874 10.282,10.782C10.89,10.127 11.296,9.311 11.449,8.431C11.603,7.552 11.499,6.646 11.149,5.825L10.211,6.173C10.766,7.663 10.528,9.122 9.575,10.074C9.209,10.425 8.77,10.689 8.288,10.845C7.806,11.001 7.296,11.046 6.794,10.977C5.703,10.85 4.687,10.359 3.909,9.584C2.422,8.099 1.871,5.47 3.418,3.924C4.372,2.971 5.832,2.734 7.323,3.288L7.672,2.351C5.831,1.667 3.93,1.998 2.71,3.217C0.739,5.186 1.372,8.464 3.2,10.291C4.141,11.227 5.37,11.819 6.689,11.971C6.794,11.982 6.896,11.983 7,11.988L7,12L9.498,12C10.291,12.027 11.051,12.329 11.646,12.853L13.793,15L14.5,14.293L12.353,12.147Z"/>
</svg>
