<svg id="strib-sports-league-nhl-color" viewBox="0 0 16 16" width="16" height="16" fill="currentcolor" class="strib-icon strib-sports-league-nhl-color" xmlns="http://www.w3.org/2000/svg">
  <path fill="var(--sports-nhl-white, #ffffff)" d="m14.083 3.759.089-.203-.212-.063-1.068-.315q-.397-.119-.584-.63l-.474-1.289L11.74 1l-.212.175-1.053.872c-.243.2-.486.302-.717.302-.32 0-.699-.163-.943-.406l-.68-.668-.136-.134-.136.134-.679.67c-.245.243-.625.406-.945.406q-.35 0-.718-.303l-1.052-.872L4.259 1l-.094.259-.473 1.291c-.124.34-.322.552-.584.629l-1.068.316-.212.061.089.203.453 1.029c.199.451.3.92.3 1.394 0 .639-.159 1.039-.327 1.461-.188.473-.382.96-.382 1.79 0 2.328 1.796 3.85 3.466 4.279h.003c.414.102.681.155.94.206.236.047.461.092.785.169l.705.759.142.154.143-.154.704-.759c.323-.079.548-.122.784-.169.259-.052.526-.106.94-.206h.004c1.669-.429 3.465-1.951 3.465-4.279 0-.83-.194-1.319-.382-1.791-.168-.423-.326-.821-.326-1.46a3.4 3.4 0 0 1 .297-1.393zm-.945 2.423c0 1.39.708 1.706.708 3.251 0 2.224-1.721 3.68-3.32 4.091-.807.198-1.051.211-1.781.39-.06.063-.744.801-.744.801s-.685-.736-.744-.801c-.73-.179-.974-.192-1.782-.39-1.6-.411-3.32-1.867-3.32-4.091 0-1.544.709-1.861.709-3.251 0-.501-.107-.998-.316-1.472l-.453-1.029 1.068-.316q.49-.144.712-.749l.472-1.291 1.052.872q.422.348.842.348c.372 0 .797-.181 1.08-.463l.678-.669.678.669c.283.282.709.463 1.081.463q.42 0 .841-.348l1.053-.872.473 1.291q.223.605.712.749l1.068.316-.453 1.029a3.6 3.6 0 0 0-.314 1.472"/>
  <path fill="var(--sports-nhl-black, #000000)" d="m13.452 4.71.453-1.029-1.068-.316q-.49-.144-.712-.749l-.472-1.291-1.054.872q-.42.348-.841.348c-.372 0-.798-.181-1.081-.463l-.678-.669-.678.669c-.283.282-.708.463-1.08.463q-.42 0-.842-.348l-1.051-.872-.473 1.291c-.147.402-.387.654-.712.749l-1.068.316.453 1.029c.209.474.316.971.316 1.472 0 1.39-.709 1.707-.709 3.251 0 2.224 1.72 3.68 3.32 4.091.808.198 1.052.211 1.782.39.059.065.744.801.744.801s.684-.738.744-.801c.73-.179.974-.192 1.781-.39 1.599-.411 3.32-1.867 3.32-4.091 0-1.545-.708-1.861-.708-3.251a3.6 3.6 0 0 1 .314-1.472m-.117 3.119c.17.427.335.874.335 1.605 0 2.032-1.513 3.493-3.189 3.924-.828.209-1.213.23-1.831.403-.081.084-.651.7-.651.7l-.65-.7c-.618-.173-1.003-.194-1.832-.403-1.294-.333-2.49-1.28-2.969-2.629a3.9 3.9 0 0 1-.22-1.295c0-1.517.709-1.805.709-3.25 0-.592-.142-1.117-.33-1.544l-.372-.846.877-.259q.575-.171.827-.857l.386-1.06.863.714c.283.234.608.388.953.388.461 0 .919-.23 1.203-.513l.555-.549.555.549c.285.283.743.513 1.204.513.345 0 .668-.154.953-.388l.862-.714.387 1.06q.252.686.827.857l.877.259-.372.846a3.8 3.8 0 0 0-.331 1.544c0 .749.19 1.186.374 1.645m-.22-3.778s-1.354-.118-1.72-1.763c0 0-.812.836-1.634.836-1.061 0-1.759-.901-1.759-.901s-.698.901-1.758.901c-.824 0-1.634-.836-1.634-.836-.368 1.645-1.722 1.763-1.722 1.763s.55.974.55 2.13q0 .227-.021.422c-.116 1.152-.687 1.615-.687 2.831 0 1.492 1.022 3.06 2.889 3.532.887.224 1.5.282 1.95.444.058.053.432.461.432.461s.375-.406.432-.461c.451-.164 1.063-.22 1.949-.444 1.868-.472 2.89-2.038 2.89-3.532 0-1.356-.709-1.775-.709-3.253 0-1.156.552-2.13.552-2.13m-.241 5.383c0 1.725-1.344 2.824-2.59 3.141-.987.25-1.633.28-2.066.488 0 0-.159.144-.217.211-.06-.067-.217-.211-.217-.211-.434-.208-1.079-.238-2.066-.488-1.246-.317-2.59-1.414-2.59-3.141 0-1.234.708-1.687.708-3.253 0-1.057-.399-1.871-.399-1.871s.922-.186 1.351-1.352c0 0 .611.571 1.456.571 1.056 0 1.758-.743 1.758-.743s.703.743 1.759.743c.845 0 1.455-.571 1.455-.571.428 1.166 1.351 1.352 1.351 1.352s-.4.814-.4 1.871c-.002 1.566.707 2.019.707 3.253m-1.162-3.253c0-.67.146-1.249.271-1.623a2.5 2.5 0 0 1-.817-.731L3.581 9.523c.035 1.12.76 1.937 1.587 2.361l6.601-4.958a4.6 4.6 0 0 1-.057-.745m-4.76 3.858-.587.44-.632-.967v1.445l-.555.416V9.329c0-.288-.276-.296-.276-.296l.787-.59.708 1.085V7.91l.555-.417zm2.24-1.681-.544.408v-.932l-.626.471v.932l-.571.429V7.621c0-.288-.275-.296-.275-.296l.846-.636v.941l.626-.471v-.941l.544-.408zm2.05-1.538L9.667 8.002V5.959c0-.29-.275-.296-.275-.296l.846-.636v1.896l1.005-.754a3 3 0 0 0-.001.651m-1.117-2.869L3.663 8.805c.186-.731.626-1.335.626-2.626 0-.67-.145-1.249-.27-1.623.29-.158.655-.441.947-.927.312.175.755.351 1.276.351.79 0 1.406-.344 1.759-.603.353.259.969.603 1.759.603q.188 0 .365-.029m1.765 3.54c.211.733.531 1.214.531 1.943 0 1.465-1.165 2.427-2.249 2.702-.781.199-1.738.301-2.027.466a1.4 1.4 0 0 0-.144.133s-.081-.086-.146-.133c-.289-.165-1.246-.267-2.027-.466l-.089-.024z"/>
  <path fill="var(--sports-nhl-gray, #e4e5e6)" d="M13.335 7.829c-.184-.459-.374-.896-.374-1.645 0-.592.143-1.117.331-1.544l.372-.846-.877-.259q-.575-.171-.827-.857l-.387-1.06-.862.714c-.285.234-.608.388-.953.388-.461 0-.919-.23-1.204-.513l-.555-.549-.555.549c-.284.283-.742.513-1.203.513-.345 0-.67-.154-.953-.388l-.863-.714-.386 1.06q-.252.686-.827.857l-.877.259.372.846c.188.427.33.952.33 1.544 0 1.445-.709 1.733-.709 3.25 0 .463.08.897.22 1.295.479 1.349 1.675 2.296 2.969 2.629.829.209 1.214.23 1.832.403l.65.7s.57-.616.651-.7c.618-.173 1.003-.194 1.831-.403 1.676-.431 3.189-1.892 3.189-3.924 0-.731-.165-1.178-.335-1.605m-2.952 5.137c-.887.224-1.499.28-1.95.444-.057.055-.432.461-.432.461s-.374-.408-.432-.461c-.45-.162-1.063-.22-1.95-.444-1.867-.472-2.889-2.04-2.889-3.532 0-1.216.571-1.679.687-2.831a4 4 0 0 0 .021-.422c0-1.156-.55-2.13-.55-2.13s1.354-.118 1.722-1.763c0 0 .81.836 1.634.836 1.06 0 1.759-.901 1.759-.901s.697.901 1.758.901c.822 0 1.634-.836 1.634-.836.366 1.645 1.72 1.763 1.72 1.763s-.552.974-.552 2.13c0 1.478.709 1.897.709 3.253 0 1.494-1.022 3.06-2.889 3.532M6.398 7.91l.554-.417v2.546l-.587.44-.632-.967v1.445l-.555.416V9.329c0-.288-.275-.296-.275-.296l.786-.59.709 1.085zm6.169-3.6s-.923-.186-1.351-1.352c0 0-.61.571-1.455.571-1.056 0-1.758-.743-1.758-.743s-.703.743-1.759.743c-.845 0-1.456-.571-1.456-.571C4.359 4.124 3.437 4.31 3.437 4.31s.399.814.399 1.871c0 1.566-.708 2.019-.708 3.253 0 1.727 1.344 2.824 2.59 3.141.987.25 1.632.28 2.066.488 0 0 .157.144.217.211.058-.067.217-.211.217-.211.433-.208 1.079-.238 2.066-.488 1.246-.317 2.59-1.416 2.59-3.141 0-1.234-.709-1.687-.707-3.253 0-1.057.4-1.871.4-1.871M4.289 6.179c0-.67-.145-1.249-.27-1.623.29-.158.655-.441.947-.927.312.175.755.351 1.276.351.79 0 1.406-.344 1.759-.603.353.259.969.603 1.759.603q.188 0 .365-.029L3.663 8.805c.186-.731.626-1.335.626-2.626m.879 5.705c-.827-.424-1.552-1.241-1.587-2.361l7.585-5.696c.263.367.567.593.817.731a5.2 5.2 0 0 0-.271 1.623q.002.415.057.745zm7.253-2.45c0 1.465-1.165 2.427-2.249 2.702-.781.199-1.737.301-2.027.466a1.4 1.4 0 0 0-.144.133s-.081-.086-.146-.133c-.289-.165-1.246-.267-2.027-.466l-.089-.024 6.151-4.621c.211.733.531 1.214.531 1.943M8.648 6.218l.544-.408v2.548l-.544.408v-.932l-.626.471v.932l-.571.429V7.621c0-.288-.275-.296-.275-.296l.846-.636v.941l.626-.471zm2.595-.049a3 3 0 0 0-.001.651L9.667 8.002V5.959c0-.29-.275-.296-.275-.296l.847-.636v1.896z"/>
</svg>