<svg id="strib-sports-league-mlb-color" viewBox="0 0 16 16" width="16" height="16" fill="currentcolor" class="strib-icon strib-sports-league-mlb-color" xmlns="http://www.w3.org/2000/svg">
  <path fill="var(--sports-mlb-white, #ffffff)" d="M3.48 9.779a.524.524 0 1 1-1.047 0 .524.524 0 0 1 1.047 0M15 5.38v5.238c0 .632-.511 1.144-1.142 1.144H2.142A1.144 1.144 0 0 1 1 10.618V5.38c0-.631.513-1.142 1.142-1.142h11.717c.632 0 1.143.511 1.141 1.142m-3.169 2.307L9.467 4.619H2.144a.76.76 0 0 0-.539.224.76.76 0 0 0-.224.539v5.238a.76.76 0 0 0 .763.762h4.757c-.121-.198-.254-.425-.296-.493h-.567c-.002-1.407.48-2.19 1.047-2.34.078-.014.042-.401-.058-.517 0 0-.273.008-.329-.006-.072-.022-.022-.094-.022-.094l.265-.575-.036-.158-.983.002c-.014 0 .811-.568.811-.568.043-1.492 1.571-1.608 2.498-.992.545.366.589 1.083.547 1.586-.008.028-.144.008-.144.008s-.092.545.151.545h1.077c.438-.014.861.28.861.28zm2.788-2.307a.76.76 0 0 0-.761-.762h-3.276l1.885 3.144.172.022.1.143v.136l.122.022.107.15v.13l.122.022s.122.129.122.136v.293s.266.244.503.338c.166.064.186.33.28.474.13.2.302.287.266.401-.086.308-.402.825-.696.855h-1.162v.497h1.453c.42 0 .763-.342.763-.763z"/>
  <path fill="var(--sports-mlb-red, #fa012f)" d="M14.397 4.841a.76.76 0 0 0-.539-.223h-3.276l1.885 3.144.172.022.1.143v.136l.122.022.108.15v.13l.121.022s.122.129.122.136v.293s.266.244.504.338c.165.064.185.33.279.474.13.2.302.287.266.401-.086.308-.402.825-.696.855h-1.162v.497h1.453c.42 0 .763-.342.763-.763V5.38a.76.76 0 0 0-.222-.539"/>
  <path fill="var(--sports-mlb-blue, #092668)" d="M9.467 4.619H2.144a.76.76 0 0 0-.539.224.76.76 0 0 0-.224.539v5.238a.76.76 0 0 0 .763.762h4.757c-.121-.198-.253-.425-.296-.493h-.567c-.001-1.407.48-2.19 1.047-2.34.078-.014.042-.401-.058-.517 0 0-.273.008-.329-.006-.072-.022-.022-.094-.022-.094l.265-.575-.036-.158-.983.002c-.014 0 .811-.568.811-.568.043-1.492 1.571-1.608 2.498-.992.545.366.589 1.083.547 1.586-.008.028-.144.008-.144.008s-.092.545.151.545h1.077c.438-.014.861.28.861.28l.108-.373zm-6.511 5.684a.524.524 0 1 1 .001-1.047.524.524 0 0 1-.001 1.047"/>
</svg>