<svg id="strib-sports-baseball" viewBox="0 0 16 16" width="16" height="16" fill="currentcolor" class="strib-icon strib-sports-baseball" xmlns="http://www.w3.org/2000/svg">
  <path d="M1.074 6.987a7 7 0 0 1 5.932-5.916v.92a6.09 6.09 0 0 0-5.012 4.996zm13.854 2.014a7 7 0 0 1-1.978 3.949 7 7 0 0 1-3.936 1.976v-.92a6.1 6.1 0 0 0 4.994-5.005z"/>
  <path d="M9.014 14.926a7 7 0 0 1-3.693-.459 7 7 0 0 1-4.247-7.48h.92q-.077.458-.084.928a6.1 6.1 0 0 0 2.071-.393l-.023-.045a.455.455 0 0 1 .814-.407l.033.067q.53-.298.994-.695l-.302-.302a.454.454 0 1 1 .642-.643l.303.302q.399-.463.697-.995l-.067-.033a.456.456 0 0 1 .407-.814l.044.023a6.1 6.1 0 0 0 .394-2.07 6 6 0 0 0-.911.081v-.92Q7.497 1.001 8 1a7.003 7.003 0 0 1 7 7q0 .504-.072 1.001h-.92q.075-.453.082-.916a6.1 6.1 0 0 0-2.068.395l.022.045a.454.454 0 1 1-.813.406l-.033-.067a6 6 0 0 0-.994.696l.3.301a.453.453 0 0 1 0 .642.453.453 0 0 1-.642 0l-.3-.3a6 6 0 0 0-.696.994l.067.033a.455.455 0 1 1-.406.813l-.045-.022a6 6 0 0 0-.393 2.069q.466-.007.925-.084zM4.389 8.338l-.06.024a7 7 0 0 1-2.364.461 6.095 6.095 0 0 0 5.215 5.213 7 7 0 0 1 .485-2.424l-.593-.296a.455.455 0 0 1 .407-.813l.573.287q.366-.662.865-1.231l-.51-.51a.456.456 0 0 1 .643-.643l.51.51a7 7 0 0 1 1.231-.866l-.287-.573a.455.455 0 0 1 .813-.407l.296.593.064-.025a7 7 0 0 1 2.358-.461 6.086 6.086 0 0 0-5.21-5.212 7 7 0 0 1-.461 2.362l-.024.061.593.297a.455.455 0 1 1-.406.813l-.574-.287c-.243.44-.534.854-.867 1.233l.508.507a.454.454 0 1 1-.643.643l-.508-.508a7 7 0 0 1-1.231.865l.287.574a.455.455 0 1 1-.813.406z"/>
</svg>