<svg id="strib-sports-motorsport-filled" viewBox="0 0 16 16" width="16" height="16" fill="currentcolor" class="strib-icon strib-sports-motorsport-filled" xmlns="http://www.w3.org/2000/svg" clip-rule="evenodd" fill-rule="evenodd">
  <path d="M14.709 10.827s-.151.001-.425-.014c-2.507-.134-5.054-.82-6.376-2.402-.578-.691-.912-1.782-.95-2.033a.32.32 0 0 1 .136-.314c.095-.068.191-.061.191-.061h7.111c.388.866.604 1.824.604 2.828 0 .645-.089 1.287-.265 1.908zm-.866-5.83H7.292c-.158.008-.132-.009-.375.054a1.33 1.33 0 0 0-.816.664c-.224.498-.196.699.077 1.571.527 1.686 2.155 4.054 7.689 4.512.039.004.417.022.417.022l.045.002a7 7 0 0 1-1.796 2.344H3.466A7 7 0 0 1 1 8.833c0-3.84 3.16-6.999 6.999-6.999h.004c2.428 0 4.583 1.263 5.84 3.163"/>
</svg>