<svg id="strib-sports-league-ncaa-color" viewBox="0 0 16 16" width="16" height="16" fill="currentcolor" class="strib-icon strib-sports-league-ncaa-color" xmlns="http://www.w3.org/2000/svg">
  <path fill="var(--sports-ncaa-white, #ffffff)" d="M14.176 7.922h-1.82l-.218.762h.28l-.902 1.416-.125-2.178H9.556l-.202.747h.28l-1.198 1.82H7.44c-.109 0-.498-.094-.498-.591 0-.498.467-1.214.949-1.214h.203a9 9 0 0 1-.109.374h.886l.312-1.152H7.829c-.84 0-1.524.607-1.742 1.229l.358-1.229H5.231l-.217.763h.311l-.311 1.104-.794-1.867H3.085l-.218.778h.311l-.7 2.551h.902s.343-1.26.436-1.586q.324.794.653 1.586H5.48l.467-1.617a2 2 0 0 0 0 .746c.093.529.607.871 1.167.871h1.835l.311-.482h1.291l.031.467h1.151l.296-.467h1.322l.047.482h.809l.171-.357z"/>
  <path fill="var(--sports-ncaa-blue, #009bde)" d="M8 1C4.127 1 1 4.127 1 8s3.127 7 7 7a6.98 6.98 0 0 0 6.191-3.733h-.809v-.032l-.046-.482h-1.322l-.296.467h-1.151l-.031-.467H9.245l-.311.482H7.098c-.56 0-1.089-.342-1.167-.871a2 2 0 0 1 0-.746l-.466 1.617H4.454S3.925 9.944 3.8 9.649c-.077.326-.42 1.586-.42 1.586h-.902l.7-2.551h-.311l.218-.746h1.136l.793 1.867.311-1.105h-.312l.218-.763h1.214l-.358 1.23c.218-.623.902-1.23 1.742-1.23h1.354l-.312 1.152h-.886s.078-.249.109-.373h-.203c-.482 0-.949.715-.949 1.212 0 .498.405.592.498.592h.996L9.633 8.7h-.279l.202-.747h1.835l.125 2.178.902-1.415h-.28l.217-.763h1.821l.202 2.956A7 7 0 0 0 15 8c0-3.873-3.126-7-7-7m2.489 7.901-.705 1.058h.736zm-.705 1.058h-.011v.016zm3.505-1.058-.7 1.058h.731z"/>
</svg>