<svg id="strib-sports-high-school" viewBox="0 0 16 16" width="16" height="16" fill="currentcolor" class="strib-icon strib-sports-high-school" xmlns="http://www.w3.org/2000/svg">
  <path d="M8.147 3.009a.4.4 0 0 0-.294 0L1.249 5.651a.397.397 0 0 0 0 .736l2.393.957v3.298c0 .751.587 1.359 1.379 1.755.811.405 1.882.622 2.979.622s2.168-.217 2.979-.622c.792-.396 1.38-1.004 1.38-1.755V7.344l1.849-.74v3.377a.396.396 0 1 0 .792 0V6.019a.4.4 0 0 0-.249-.368zm3.674 3.696-.011.005L8 8.234 4.179 6.705l-1.716-.686L8 3.804l5.537 2.215zm-7.387.956 3.419 1.367c.094.038.2.038.294 0l3.419-1.367v2.981c0 .299-.247.699-.941 1.046-.676.338-1.62.538-2.625.538s-1.949-.2-2.625-.538c-.694-.347-.941-.747-.941-1.046z"/>
</svg>