<svg id="strib-sports-hockey" viewBox="0 0 16 16" width="16" height="16" fill="currentcolor" class="strib-icon strib-sports-hockey" xmlns="http://www.w3.org/2000/svg">
  <path d="M10.848 8.029h2.862c.704 0 1.289.568 1.289 1.288v.879c0 .704-.569 1.289-1.289 1.289h-2.711c-.344 0-.668-.134-.911-.378L7.999 9.019l-2.088 2.088a1.28 1.28 0 0 1-.911.378H2.289A1.29 1.29 0 0 1 1 10.196v-.879c0-.704.569-1.288 1.289-1.288H5.15a.47.47 0 0 0 .332-.137l.695-.696-4.254-4.253a.41.41 0 0 1 0-.58L3.166 1.12a.41.41 0 0 1 .58 0l4.253 4.254 4.254-4.254a.41.41 0 0 1 .58 0l1.243 1.243c.16.16.16.42 0 .58L9.822 7.196l.695.695a.47.47 0 0 0 .331.138m2.358-5.376-.663-.663-3.964 3.964.663.662zM5 10.664a.46.46 0 0 0 .331-.137l2.088-2.088-.662-.663-.695.695a1.28 1.28 0 0 1-.912.378H2.289a.47.47 0 0 0-.469.468v.879c0 .259.21.468.469.468zm8.71 0c.259 0 .469-.21.469-.468v-.879a.47.47 0 0 0-.469-.468h-2.862c-.344 0-.668-.134-.911-.378L3.456 1.99l-.663.663 7.875 7.874a.46.46 0 0 0 .331.137zm-7.467 1.759h3.514a.41.41 0 0 1 .411.41v1.757a.41.41 0 0 1-.411.41H6.243a.41.41 0 0 1-.41-.41v-1.757a.41.41 0 0 1 .41-.41m.41 1.757h2.694v-.937H6.653z"/>
</svg>