<svg id="strib-sports-motorsport" viewBox="0 0 16 16" width="16" height="16" fill="currentcolor" class="strib-icon strib-sports-motorsport" xmlns="http://www.w3.org/2000/svg">
  <path d="M8 2.604c-3.36 0-6.125 2.765-6.125 6.125 0 1.796.79 3.504 2.158 4.667h7.934a6.14 6.14 0 0 0 2.159-4.669c0-3.359-2.764-6.123-6.123-6.123zm-4.042.41a7 7 0 0 1 4.049-1.29c3.84 0 7 3.16 7 7 0 2.116-.96 4.122-2.607 5.45a.44.44 0 0 1-.275.097h-8.25a.44.44 0 0 1-.275-.097 7.02 7.02 0 0 1-2.2-7.778 7 7 0 0 1 2.558-3.382m9.165 2.358c.506.139.619.453.479.88H7.375s-.084-.006-.167.054a.28.28 0 0 0-.119.275c.033.219.325 1.174.831 1.779 1.157 1.384 3.386 1.984 5.58 2.102.239.013.372.012.372.012.058.316-.044.607-.333.871l-.039-.002s-.331-.016-.365-.019c-4.843-.401-6.268-2.473-6.729-3.949-.239-.763-.263-.939-.067-1.375a1.16 1.16 0 0 1 .714-.581c.212-.055.19-.04.328-.047z"/>
</svg>