<svg id="strib-sports-college-filled" viewBox="0 0 16 16" width="16" height="16" fill="currentcolor" class="strib-icon strib-sports-college-filled" xmlns="http://www.w3.org/2000/svg" clip-rule="evenodd" fill-rule="evenodd">
  <path d="M3.991 1.33c.212-.21.498-.33.796-.33h6.426a1.13 1.13 0 0 1 1.124 1.125v9.639a1.125 1.125 0 0 1-1.124 1.125h-1.125v-.322a.48.48 0 0 0-.107-.303l.064-.061a2.892 2.892 0 1 0-4.09 0l.064.06a.48.48 0 0 0-.108.304v.322H4.787a1.125 1.125 0 0 1-1.125-1.125V2.125c0-.298.119-.584.33-.795M9.123 15v-2.178a2.9 2.9 0 0 1-2.249 0V15l.91-.454a.48.48 0 0 1 .43 0zM6.394 3.25a.482.482 0 0 0 0 .963h3.212a.482.482 0 0 0 0-.964zm.243 5.544a1.929 1.929 0 1 1 2.727 2.728 1.929 1.929 0 0 1-2.727-2.728"/>
</svg>