<svg id="strib-star" viewBox="0 0 16 16" width="16" height="16" fill="currentcolor" class="strib-icon strib-star" xmlns="http://www.w3.org/2000/svg">
  <path d="M8 1.322c.162 0 .312.092.384.239l1.931 3.914 4.318.625a.43.43 0 0 1 .347.291.43.43 0 0 1-.11.439l-3.129 3.046.738 4.302a.427.427 0 0 1-.621.451l-3.853-2.031-3.863 2.031a.43.43 0 0 1-.621-.451l.738-4.302L1.13 6.83a.43.43 0 0 1-.11-.439.43.43 0 0 1 .347-.291l4.318-.625 1.931-3.914A.43.43 0 0 1 8 1.322m0 1.394L6.353 6.055a.43.43 0 0 1-.322.233l-3.683.534 2.669 2.599c.101.098.147.24.123.378l-.629 3.67 3.295-1.733a.43.43 0 0 1 .398 0l3.285 1.731-.629-3.668a.43.43 0 0 1 .123-.378l2.669-2.599-3.683-.534a.43.43 0 0 1-.322-.233z"/>
</svg>