<svg id="strib-steering-wheel" viewBox="0 0 16 16" width="16" height="16" fill="currentcolor" class="strib-icon strib-steering-wheel" xmlns="http://www.w3.org/2000/svg">
  <path d="M7.964 1A6.965 6.965 0 0 0 1 7.964C1 11.808 4.119 15 7.964 15 11.808 15 15 11.881 15 7.964 15 4.119 11.808 1 7.964 1m0 .87c2.756 0 5.005 1.814 5.803 4.28l-3.99 1.161c-.217-.798-.943-1.306-1.813-1.306-.871 0-1.596.58-1.814 1.306L2.161 6.15c.798-2.466 3.046-4.28 5.803-4.28m0 7.037c-.508 0-1.016-.435-1.016-.943s.435-1.016 1.016-1.016c.58 0 .943.435.943 1.016 0 .58-.435.943-.943.943M1.87 7.964c0-.29 0-.581.073-.871l4.135 1.233c.145.726.725 1.306 1.378 1.524v4.207c-3.119-.29-5.586-2.902-5.586-6.093m6.529 6.02V9.777c.725-.217 1.306-.798 1.378-1.523l4.135-1.233c.072.29.072.58.072.87 0 3.264-2.393 5.876-5.585 6.093"/>
</svg>