<svg id="strib-steering-wheel-filled" viewBox="0 0 16 16" width="16" height="16" fill="currentcolor" class="strib-icon strib-steering-wheel-filled" xmlns="http://www.w3.org/2000/svg">
  <path d="M8.042 1c3.166 0 5.75 2.083 6.666 4.917L10.125 7.25c-.25-.917-1.083-1.5-2.083-1.5s-1.834.667-2.084 1.5L1.375 5.917C2.292 3.083 4.875 1 8.042 1m0 8.083c-.584 0-1.167-.5-1.167-1.083s.5-1.167 1.167-1.167c.666 0 1.083.5 1.083 1.167s-.5 1.083-1.083 1.083M1.042 8c0-.333 0-.667.083-1l4.75 1.417c.167.833.833 1.5 1.583 1.75V15c-3.583-.333-6.416-3.333-6.416-7m7.5 6.917v-4.834c.833-.25 1.5-.916 1.583-1.75l4.75-1.416c.083.333.083.666.083 1 0 3.75-2.75 6.75-6.416 7"/>
</svg>