<svg id="strib-thumbs-down" viewBox="0 0 16 16" width="16" height="16" fill="currentcolor" class="strib-icon strib-thumbs-down" xmlns="http://www.w3.org/2000/svg">
  <path d="M15 8.25v-3.5a3.505 3.505 0 0 0-3.5-3.5H1v7h3.232l1.789 2.683.423 2.958a1 1 0 0 0 .99.859H8.5a1.504 1.504 0 0 0 1.5-1.5v-3h3a2.006 2.006 0 0 0 2-2m-11-1H2v-5h2zm10 1a1.004 1.004 0 0 1-1 1H9v4a.5.5 0 0 1-.146.354.5.5 0 0 1-.354.146H7.433l-.454-3.183L5 7.599V2.25h6.5a2.5 2.5 0 0 1 1.767.733c.468.469.732 1.104.733 1.767z"/>
</svg>