<svg id="strib-ticket" viewBox="0 0 16 16" width="16" height="16" fill="currentcolor" class="strib-icon strib-ticket" xmlns="http://www.w3.org/2000/svg">
  <path d="M14.853 6.854A.5.5 0 0 1 14.5 7a1 1 0 0 0-1 1 1 1 0 0 0 1 1 .5.5 0 0 1 .5.5V12a1 1 0 0 1-1 1H1.999A1 1 0 0 1 1 12V9.5a.5.5 0 0 1 .5-.5 1 1 0 1 0 0-2 .5.5 0 0 1-.5-.5V4a1 1 0 0 1 .999-1H14a1 1 0 0 1 1 1v2.5c0 .133-.052.26-.147.354M14 12V9.935a2 2 0 0 1-1.078-.712 2.01 2.01 0 0 1 0-2.446c.271-.35.65-.6 1.078-.712V4h-3.5v1.499h-1V4H1.999v2.065a1.997 1.997 0 0 1 1.078 3.158c-.27.35-.649.6-1.078.712V12H9.5v-1.5h1V12zM9.5 6.5h1v3h-1z"/>
</svg>