<svg id="strib-tombstone" viewBox="0 0 16 16" width="16" height="16" fill="currentcolor" class="strib-icon strib-tombstone" xmlns="http://www.w3.org/2000/svg">
  <path d="M12.322 10v.468c.918.451 1.53 1.388 1.53 2.505v1.53a.497.497 0 0 1-.497.497H2.645a.497.497 0 0 1-.497-.497v-1.53c0-1.117.612-2.054 1.53-2.505V10h.994v.18h6.656V10zM4.94 11.175c-1.026 0-1.798.772-1.798 1.798v1.032h9.716v-1.032c0-1.026-.772-1.798-1.798-1.798zM3.678 10V1.88c0-.228.078-.456.25-.629A.88.88 0 0 1 4.557 1h6.962c.497 0 .803.45.803.88V10h-.994V1.995H4.672V10z"/>
  <path d="M8.497 3.295v1.53h1.53v.995h-1.53v2.295h-.994V5.82h-1.53v-.995h1.53v-1.53z"/>
</svg>