<svg id="strib-trash" viewBox="0 0 16 16" width="16" height="16" fill="currentcolor" class="strib-icon strib-trash" xmlns="http://www.w3.org/2000/svg">
  <path d="M6.553 6.788c.27 0 .488.219.488.489v4.34a.49.49 0 0 1-.488.488.49.49 0 0 1-.488-.488v-4.34c0-.27.218-.489.488-.489m3.382.489v4.34a.49.49 0 0 1-.488.488.49.49 0 0 1-.488-.488v-4.34a.49.49 0 0 1 .488-.488.49.49 0 0 1 .488.488"/>
  <path d="M5.341 3.774h.977v.12h3.364v-.12h.977v.12h3.129c.254.02.452.234.452.489a.49.49 0 0 1-.452.488h-.274l-.684 8.215A1.943 1.943 0 0 1 10.894 15H5.106a1.943 1.943 0 0 1-1.936-1.914l-.684-8.215h-.274a.49.49 0 0 1-.488-.489.49.49 0 0 1 .488-.488h3.129zm7.193 1.097H3.466l.68 8.153.002.041a.964.964 0 0 0 .958.959h5.788a.965.965 0 0 0 .961-.96l-.001-.04zm-1.875-1.097h-.977V2.21a.236.236 0 0 0-.234-.234H6.553a.23.23 0 0 0-.166.069.24.24 0 0 0-.069.167v1.562h-.977V2.21c0-.664.546-1.21 1.21-1.21h2.898c.664 0 1.21.546 1.21 1.21z"/>
</svg>