<svg id="strib-trending" viewBox="0 0 16 16" width="16" height="16" fill="currentcolor" class="strib-icon strib-trending" xmlns="http://www.w3.org/2000/svg">
  <path d="M8.864 3.852a.164.164 0 0 0-.163.164v.981c0 .09.073.163.163.163h3.904L8.641 9.287l-2.39-2.39a.65.65 0 0 0-.924 0l-4.279 4.278a.164.164 0 0 0 0 .232l.693.692a.17.17 0 0 0 .116.049.17.17 0 0 0 .116-.049l3.816-3.816 2.39 2.39a.65.65 0 0 0 .924 0l4.589-4.589v3.904c0 .091.074.163.164.163h.981c.09 0 .163-.072.163-.163V4.507a.654.654 0 0 0-.653-.655z"/>
</svg>