<svg id="strib-user" viewBox="0 0 16 16" width="16" height="16" fill="currentcolor" class="strib-icon strib-user" xmlns="http://www.w3.org/2000/svg">
  <path d="M8 2a2.5 2.5 0 0 1 2.31 1.543 2.51 2.51 0 0 1-.542 2.725 2.495 2.495 0 0 1-2.725.542A2.5 2.5 0 0 1 5.5 4.5c0-.663.264-1.299.732-1.768A2.5 2.5 0 0 1 8 2m0-1c-.692 0-1.369.205-1.944.59a3.495 3.495 0 0 0-1.489 3.593 3.505 3.505 0 0 0 4.772 2.551 3.5 3.5 0 0 0 1.571-1.29A3.502 3.502 0 0 0 8 1m5 14h-1v-2.5a2.5 2.5 0 0 0-.732-1.768A2.52 2.52 0 0 0 9.5 10h-3A2.5 2.5 0 0 0 4 12.5V15H3v-2.5A3.503 3.503 0 0 1 6.5 9h3a3.5 3.5 0 0 1 3.5 3.5z"/>
</svg>