<svg id="strib-video" viewBox="0 0 16 16" width="16" height="16" fill="currentcolor" class="strib-icon strib-video" xmlns="http://www.w3.org/2000/svg">
  <path d="M10.5 13H1.999A1 1 0 0 1 1 12V4a1 1 0 0 1 .999-1H10.5a1 1 0 0 1 1 1v2.03l2.71-1.935a.5.5 0 0 1 .518-.038A.5.5 0 0 1 15 4.5v7a.5.5 0 0 1-.79.405L11.5 9.97V12a1.003 1.003 0 0 1-1 1M1.999 4v8H10.5V9q0-.14.074-.259a.49.49 0 0 1 .462-.237.5.5 0 0 1 .254.091L14 10.53V5.47l-2.71 1.935a.51.51 0 0 1-.518.038.5.5 0 0 1-.198-.183A.5.5 0 0 1 10.5 7V4z"/>
</svg>