<svg id="strib-volume-mute" viewBox="0 0 16 16" width="16" height="16" fill="currentcolor" class="strib-icon strib-volume-mute" xmlns="http://www.w3.org/2000/svg">
  <path d="M8.889 14.901a.5.5 0 0 1-.35-.147l-3.757-3.797H1.493A.49.49 0 0 1 1 10.463V5.532a.494.494 0 0 1 .493-.493h3.289l3.757-3.797a.495.495 0 0 1 .844.345v12.821a.49.49 0 0 1-.494.493M1.987 9.97h2.997q.1 0 .19.039a.5.5 0 0 1 .16.109l3.063 3.092V2.785L5.334 5.878a.5.5 0 0 1-.35.147H1.987zM14.293 5.5l.707.707-1.757 1.758L15 9.723l-.707.707-1.759-1.757-1.757 1.757-.708-.707 1.758-1.758-1.758-1.758.708-.707 1.757 1.757z"/>
</svg>