<svg id="strib-volume" viewBox="0 0 16 16" width="16" height="16" fill="currentcolor" class="strib-icon strib-volume" xmlns="http://www.w3.org/2000/svg">
  <path d="M11.5 8a3 3 0 0 0-.706-2.002l.76-.645a4 4 0 0 1-.115 5.294l-.736-.68A3 3 0 0 0 11.5 8m-2.69 6.957a.49.49 0 0 0 .547-.107.5.5 0 0 0 .146-.354V1.499A.503.503 0 0 0 9 1.003a.5.5 0 0 0-.352.146L4.836 4.998H1.5a.5.5 0 0 0-.5.5v4.999a.496.496 0 0 0 .5.5h3.336l3.812 3.849a.5.5 0 0 0 .162.111M5.041 9.998H2v-4h3.041a.5.5 0 0 0 .355-.15l3.106-3.135v10.569l-3.106-3.135a.5.5 0 0 0-.355-.149m7.778-5.315.765-.645v.02a6 6 0 0 1-.175 7.939l-.736-.7a4.996 4.996 0 0 0 .146-6.614"/>
</svg>