<svg id="strib-weather-day-partly-sunny-thunderstorms" viewBox="0 0 16 16" width="16" height="16" fill="currentcolor" class="strib-icon strib-weather-day-partly-sunny-thunderstorms" xmlns="http://www.w3.org/2000/svg">
  <path d="M12.152 6.284h1.51v.755h-1.51zm-1.51-2.798 1.133-1.132.534.533-1.132 1.133zM7.623 1h.755v1.51h-.755zm-3.931 9.437 1.132-1.133.534.534-1.132 1.133zm-.001-7.55.535-.533 1.132 1.132-.534.534zM2.338 6.284h1.51v.755h-1.51zm9.736 2.017a2.6 2.6 0 0 0-.705-1.233q.027-.202.028-.406a3.39 3.39 0 0 0-3.206-3.401A3.39 3.39 0 0 0 5.227 4.69a3.39 3.39 0 0 0-.362 3.272c.222.531.575.997 1.027 1.355a1.87 1.87 0 0 0 .152 1.783 1.87 1.87 0 0 0 1.578.846h3.775a1.887 1.887 0 0 0 .677-3.645M5.358 6.662a2.64 2.64 0 0 1 2.584-2.653 2.636 2.636 0 0 1 2.694 2.541 2.6 2.6 0 0 0-1.126-.266 2.66 2.66 0 0 0-2.565 2.017 1.9 1.9 0 0 0-.62.395 2.63 2.63 0 0 1-.967-2.034m6.039 4.529H7.622a1.13 1.13 0 0 1-.262-2.23l.248-.059.037-.253a1.89 1.89 0 0 1 1.865-1.61 1.88 1.88 0 0 1 1.864 1.61l.037.253.249.059a1.128 1.128 0 0 1 .491 1.946 1.13 1.13 0 0 1-.754.284"/>
  <path d="M9.703 11.289a.33.33 0 0 0-.321.001.3.3 0 0 0-.106.094l-1.321 1.759a.333.333 0 0 0 .146.508.33.33 0 0 0 .2.013l.854-.215-.758 1.01a.335.335 0 0 0-.031.375.34.34 0 0 0 .209.157.34.34 0 0 0 .352-.135l1.319-1.757a.33.33 0 0 0 .011-.383.33.33 0 0 0-.156-.125.33.33 0 0 0-.2-.013l-.854.215.759-1.011a.34.34 0 0 0 .029-.359.33.33 0 0 0-.132-.134"/>
</svg>