<svg id="strib-weather-night-lg" viewBox="0 0 16 16" width="16" height="16" fill="currentcolor" class="strib-icon strib-weather-night-lg" xmlns="http://www.w3.org/2000/svg">
  <path d="M12.805 2.541h.556v.556c0 .122.101.223.223.223a.225.225 0 0 0 .223-.223v-.556h.556a.225.225 0 0 0 .224-.223.225.225 0 0 0-.224-.223h-.556v-.557a.225.225 0 0 0-.223-.223.225.225 0 0 0-.223.223v.557h-.556a.225.225 0 0 0-.224.223c0 .122.102.223.224.223m2.043 10.513c-.624-.211-.842-.431-1.056-1.056a.22.22 0 0 0-.211-.151.22.22 0 0 0-.211.151c-.214.634-.423.842-1.056 1.056a.225.225 0 0 0-.152.212.22.22 0 0 0 .152.211c.624.211.842.428 1.056 1.056a.22.22 0 0 0 .211.152.225.225 0 0 0 .211-.152c.211-.628.429-.842 1.056-1.056a.224.224 0 0 0 0-.423m-1.267.839a1.5 1.5 0 0 0-.628-.627 1.5 1.5 0 0 0 .628-.628c.155.28.348.473.628.628-.28.154-.473.348-.628.627M6.373 1.321a6.3 6.3 0 0 1 3.349.833h.003a6.305 6.305 0 0 1 2.306 8.601 6.32 6.32 0 0 1-5.456 3.15 6.28 6.28 0 0 1-5.542-3.332.22.22 0 0 1 .038-.261.22.22 0 0 1 .262-.039 4.95 4.95 0 0 0 2.323.583A4.95 4.95 0 0 0 7.931 8.39a4.917 4.917 0 0 0-1.668-6.655.23.23 0 0 1-.099-.247.23.23 0 0 1 .209-.167m.196 12.138a5.87 5.87 0 0 0 5.072-2.927h-.003a5.856 5.856 0 0 0-2.142-7.991 5.8 5.8 0 0 0-2.403-.756 5.36 5.36 0 0 1 1.219 6.828 5.39 5.39 0 0 1-4.661 2.689 5.4 5.4 0 0 1-1.86-.333 5.84 5.84 0 0 0 4.778 2.49m-2.49-5.923h.556v.556c0 .122.101.223.223.223a.225.225 0 0 0 .224-.223v-.556h.556a.225.225 0 0 0 .223-.223.225.225 0 0 0-.223-.223h-.556v-.557a.225.225 0 0 0-.224-.223.225.225 0 0 0-.223.223v.557h-.556a.225.225 0 0 0-.223.223c0 .122.101.223.223.223M2.208 5.552c-.211-.628-.429-.845-1.056-1.057a.223.223 0 0 1 0-.422c.624-.214.842-.431 1.056-1.056a.22.22 0 0 1 .211-.152c.095 0 .182.063.211.152.214.625.429.842 1.056 1.056a.223.223 0 0 1 0 .422c-.627.212-.845.429-1.056 1.057a.22.22 0 0 1-.211.151.22.22 0 0 1-.211-.151m.839-1.268a1.5 1.5 0 0 1-.628-.627 1.5 1.5 0 0 1-.628.627c.28.155.473.348.628.628a1.5 1.5 0 0 1 .628-.628"/>
</svg>