<svg id="strib-weather-day-night-showers" viewBox="0 0 16 16" width="16" height="16" fill="currentcolor" class="strib-icon strib-weather-day-night-showers" xmlns="http://www.w3.org/2000/svg">
  <path d="M11.754 10.996H4.246a3.252 3.252 0 0 1-.65-6.436 4.506 4.506 0 0 1 7.236-2.559 4.5 4.5 0 0 1 1.572 2.559 3.254 3.254 0 0 1-.65 6.436M8 1.988A3.5 3.5 0 0 0 4.527 5.06l-.03.431h-.431a2.256 2.256 0 0 0-2.162 2.342 2.25 2.25 0 0 0 2.342 2.162h7.508A2.251 2.251 0 0 0 13.5 6.214a2.26 2.26 0 0 0-1.566-.723h-.431l-.05-.41A3.505 3.505 0 0 0 8 1.988M6.999 15a.503.503 0 0 1-.445-.726l1.001-2.002a.51.51 0 0 1 .49-.307.5.5 0 0 1 .452.361.5.5 0 0 1-.052.397l-1.001 2.002a.5.5 0 0 1-.445.275m3.003 0a.5.5 0 0 1-.446-.726l1.001-2.002a.501.501 0 1 1 .891.451l-1.001 2.002a.5.5 0 0 1-.184.2.5.5 0 0 1-.261.075m-6.006 0a.503.503 0 0 1-.445-.726l1.001-2.002a.51.51 0 0 1 .49-.307.5.5 0 0 1 .357.181.5.5 0 0 1 .044.577l-1.001 2.002a.51.51 0 0 1-.446.275"/>
</svg>