<svg id="strib-weather-night-snowy-lg-color" viewBox="0 0 16 16" width="16" height="16" fill="currentcolor" class="strib-icon strib-weather-night-snowy-lg-color" xmlns="http://www.w3.org/2000/svg">
  <path fill="var(--weather-moon-highlight, #d3eaea)" d="M4.614 2.755c.116.21.261.355.47.471-.2.106-.364.27-.47.47a1.14 1.14 0 0 0-.471-.47c.21-.116.355-.261.471-.471m5.609-.644a4.58 4.58 0 0 1 .847 3.66 3.2 3.2 0 0 0-.704-.327 3.2 3.2 0 0 0-.889-.155 4.07 4.07 0 0 0-1.359-3.938 4.4 4.4 0 0 1 2.105.76"/>
  <path fill="var(--weather-moon-shadow, #afc2c4)" d="M10.365 5.444q.371.12.705.327a4.58 4.58 0 0 0-.847-3.66 4.42 4.42 0 0 1 1.781 4.556 3.18 3.18 0 0 0-1.639-1.223"/>
  <path fill="var(--weather-cloud-highlight, #afc2c4)" d="M5.034 6.774c.579.316.958.907 1.005 1.565a1.8 1.8 0 0 0-1.042.645 1.78 1.78 0 0 0-1.224-.669 1.78 1.78 0 0 1 1.261-1.541"/>
  <path fill="var(--weather-cloud-highlight, #afc2c4)" d="M7.472 8.667h.003c0-.036.006-.156.006-.192a1.93 1.93 0 0 0-.588-1.391l.022-.029a2.86 2.86 0 0 1 1.766-1.344 3.03 3.03 0 0 1 1.81 2.764 1.64 1.64 0 0 1 1.616 1.618 1.62 1.62 0 0 1-.892 1.446h-7.62a1.457 1.457 0 0 1-1.45-1.449c0-.799.651-1.45 1.45-1.45.517.002.995.279 1.255.725a.17.17 0 0 0 .29 0c.259-.448.74-.725 1.253-.725.516.004.994.28 1.256.725a.168.168 0 0 0 .29-.17 1.8 1.8 0 0 0-.467-.528"/>
  <path fill="var(--weather-cloud-shadow, #839396)" d="M6.893 7.084c.363.352.588.845.588 1.391 0 .036-.006.156-.006.192h-.003a1.8 1.8 0 0 0-1.433-.328 1.94 1.94 0 0 0-1.005-1.565q.242-.074.507-.075c.409 0 .805.142 1.122.4a.17.17 0 0 0 .23-.015m4.322 4.455a1.62 1.62 0 0 0 .892-1.446 1.64 1.64 0 0 0-1.616-1.618 3.03 3.03 0 0 0-1.81-2.764q.343-.088.705-.09a2.87 2.87 0 0 1 2.852 2.852.17.17 0 0 0 .167.167c.801 0 1.45.651 1.45 1.45s-.651 1.449-1.45 1.449z"/>
  <path fill="var(--weather-outline, #231f20)" d="M12.242 7.073c.186.379.302.796.324 1.239l.002.003a1.79 1.79 0 0 1 1.607 1.776c0 .973-.797 1.777-1.77 1.785H9.609l.274.16a.17.17 0 0 1 .058.23.165.165 0 0 1-.23.058l-.459-.27-.921.547.921.546.459-.27a.17.17 0 0 1 .253.145c0 .06-.032.115-.083.145l-.301.178.39.232a.17.17 0 0 1 .058.23.167.167 0 0 1-.23.058l-.381-.225v.35a.17.17 0 0 1-.167.167.17.17 0 0 1-.167-.167v-.549l-.915-.542v1.091l.462.274a.17.17 0 0 1 .058.23.17.17 0 0 1-.145.082.2.2 0 0 1-.085-.024l-.29-.174v.455a.17.17 0 0 1-.167.167.17.17 0 0 1-.167-.167v-.455l-.29.174a.17.17 0 0 1-.246-.149c0-.056.028-.108.074-.139l.462-.274v-1.093l-.917.542v.551a.165.165 0 0 1-.165.165H6.75a.167.167 0 0 1-.167-.167v-.35l-.381.225a.167.167 0 0 1-.254-.144c0-.059.031-.114.082-.144l.39-.232-.301-.178a.168.168 0 0 1 .17-.29l.459.27.921-.547-.921-.544-.459.27a.16.16 0 0 1-.085.022h-.002a.167.167 0 0 1-.083-.312l.274-.16H3.595a1.795 1.795 0 0 1-1.784-1.784c0-.93.713-1.695 1.623-1.778a2.12 2.12 0 0 1 2.103-1.949c.421 0 .834.13 1.182.364a3.2 3.2 0 0 1 2.415-1.43 3.73 3.73 0 0 0-1.641-3.984.17.17 0 0 1-.074-.186.17.17 0 0 1 .156-.124 4.7 4.7 0 0 1 2.511.624 4.75 4.75 0 0 1 2.156 5.446M8.118 1.351a4.07 4.07 0 0 1 1.359 3.938 3.18 3.18 0 0 1 2.527 1.378 4.42 4.42 0 0 0-2.085-4.75 4.4 4.4 0 0 0-1.801-.566m-.286 10.523h-.73l.73.43zm.334 0v.43l.727-.43zm-4.571-.335h8.81c.799 0 1.45-.651 1.45-1.449 0-.799-.649-1.45-1.45-1.45a.17.17 0 0 1-.167-.167 2.87 2.87 0 0 0-2.852-2.852 2.86 2.86 0 0 0-2.471 1.434.168.168 0 0 1-.252.044 1.78 1.78 0 0 0-1.122-.4c-.914 0-1.686.706-1.768 1.616.482.046.926.29 1.224.669.335-.426.85-.681 1.399-.681a1.79 1.79 0 0 1 1.543.892.167.167 0 0 1-.144.252h-.001a.17.17 0 0 1-.145-.082 1.47 1.47 0 0 0-1.256-.725c-.513 0-.994.277-1.253.725a.17.17 0 0 1-.29 0 1.46 1.46 0 0 0-1.255-.725c-.799 0-1.45.651-1.45 1.45a1.457 1.457 0 0 0 1.45 1.449m8.801-9.62h.417v.417c0 .092.076.167.168.167a.17.17 0 0 0 .167-.167v-.417h.417a.17.17 0 0 0 .167-.167.17.17 0 0 0-.167-.167h-.417v-.417A.17.17 0 0 0 12.981 1a.17.17 0 0 0-.168.168v.417h-.417a.17.17 0 0 0-.167.167c0 .091.076.167.167.167M3.664 3.384c.47.159.633.321.791.792a.17.17 0 0 0 .159.114.17.17 0 0 0 .158-.114c.158-.471.321-.633.792-.792a.17.17 0 0 0 .113-.158.17.17 0 0 0-.113-.158c-.471-.161-.631-.324-.792-.792a.168.168 0 0 0-.317 0c-.158.468-.323.631-.791.792a.17.17 0 0 0-.114.158c0 .071.047.136.114.158m.95-.629c.116.21.261.355.47.471-.2.106-.364.27-.47.47a1.14 1.14 0 0 0-.471-.47c.21-.116.355-.261.471-.471m.363 10.028a.17.17 0 0 0-.227-.062l-.259.149a.44.44 0 0 0-.187-.107v-.298a.17.17 0 0 0-.167-.168.17.17 0 0 0-.168.168v.307a.5.5 0 0 0-.18.103l-.263-.152a.17.17 0 0 0-.228.06.17.17 0 0 0 .06.23l.261.152a.5.5 0 0 0 0 .214l-.261.151a.17.17 0 0 0-.083.144q0 .044.023.084a.17.17 0 0 0 .145.085.14.14 0 0 0 .083-.023l.258-.149a.5.5 0 0 0 .188.105v.301c0 .091.075.167.167.167a.17.17 0 0 0 .167-.167v-.301a.5.5 0 0 0 .185-.107l.261.149a.166.166 0 0 0 .228-.062.17.17 0 0 0-.061-.228l-.258-.149a.5.5 0 0 0 0-.214l.258-.15a.164.164 0 0 0 .061-.227zm-.669.587a.206.206 0 0 1-.272.073.2.2 0 0 1-.098-.172c0-.108.088-.198.196-.2q.056 0 .099.027a.2.2 0 0 1 .073.272zm8.169-.647a.165.165 0 0 1 .227.06v-.004c.047.08.02.183-.06.23l-.261.151a.6.6 0 0 1 0 .214l.261.152a.166.166 0 0 1 .06.227.167.167 0 0 1-.227.063l-.259-.15a.4.4 0 0 1-.089.065.5.5 0 0 1-.098.04v.314a.168.168 0 0 1-.336 0l.001-.013v-.301a.5.5 0 0 1-.185-.107l-.261.15a.16.16 0 0 1-.082.022.17.17 0 0 1-.168-.169c0-.059.032-.114.083-.143l.259-.15a.5.5 0 0 1 0-.214l-.259-.149a.168.168 0 0 1 .167-.29l.259.149q.042-.033.087-.062a.4.4 0 0 1 .1-.045v-.298l-.001-.013a.168.168 0 0 1 .336 0v.32a.5.5 0 0 1 .182.103zm-.616.747q.054 0 .1-.027h-.002a.2.2 0 0 0 .098-.172.2.2 0 0 0-.198-.2.2.2 0 0 0 .002.399"/>
</svg>