<svg id="strib-weather-day-partly-sunny-flurries-lg-color" viewBox="0 0 16 16" width="16" height="16" fill="currentcolor" class="strib-icon strib-weather-day-partly-sunny-flurries-lg-color" xmlns="http://www.w3.org/2000/svg">
  <path fill="var(--weather-sun-highlight, #fff3c0)" d="M9.893 4.53a3.2 3.2 0 0 1 .315 1.383 3.2 3.2 0 0 1-2.053 2.974 1.54 1.54 0 0 0-1.176.209 3.2 3.2 0 0 1-1.34-.316 3 3 0 0 1-.667-1.894A3.044 3.044 0 0 1 8 3.858c.714 0 1.373.253 1.893.672"/>
  <path fill="var(--weather-sun-shadow, #ffc783)" d="M5.64 8.78c.418.202.875.31 1.339.316-.17.111-.32.258-.437.437a3 3 0 0 1-.902-.753m2.515.107a3.2 3.2 0 0 0 2.053-2.974 3.2 3.2 0 0 0-.315-1.383 3.03 3.03 0 0 1 1.135 2.356 3 3 0 0 1-.266 1.223 2.27 2.27 0 0 0-2.137.974 1.5 1.5 0 0 0-.47-.196"/>
  <path fill="var(--weather-sun-shadow, #ffc783)" d="M4.09 8.505a3.28 3.28 0 0 0-1.457-1.619 3.24 3.24 0 0 0 1.457-1.62 3.24 3.24 0 0 0 .115-2.175 3.25 3.25 0 0 0 2.176-.115A3.24 3.24 0 0 0 8 1.518a3.25 3.25 0 0 0 1.619 1.458c.69.288 1.459.328 2.176.115a3.24 3.24 0 0 0 .115 2.175 3.28 3.28 0 0 0 1.459 1.62 3.25 3.25 0 0 0-1.481 1.684 2.3 2.3 0 0 0-.805-.397c.172-.41.266-.841.266-1.285a3.367 3.367 0 0 0-3.347-3.347 3.366 3.366 0 0 0-3.346 3.347A3.33 3.33 0 0 0 6.398 9.82a1.5 1.5 0 0 0-.094.395 1.28 1.28 0 0 0-.752.37 3.3 3.3 0 0 0-1.343.1l-.004-.005a3.23 3.23 0 0 0-.115-2.175"/>
  <path fill="var(--weather-cloud-highlight, #afc2c4)" d="M7.555 9.193c.352.218.594.596.621 1.034a1.3 1.3 0 0 0-.745.428 1.3 1.3 0 0 0-.808-.438c.062-.511.446-.917.932-1.024"/>
  <path fill="var(--weather-cloud-highlight, #afc2c4)" d="m9.147 10.438.004-.129c0-.347-.134-.662-.354-.896l.013-.018a1.95 1.95 0 0 1 1.263-.932 2.11 2.11 0 0 1 1.19 1.897h.003c.62 0 1.13.51 1.13 1.13 0 .396-.209.765-.549.969H6.451a.98.98 0 0 1-.914-.646 1 1 0 0 1-.055-.321.98.98 0 0 1 .971-.971.97.97 0 0 1 .839.487.16.16 0 0 0 .139.078.16.16 0 0 0 .138-.078.97.97 0 0 1 .839-.487.97.97 0 0 1 .839.487.16.16 0 0 0 .138.078h.004a.16.16 0 0 0 .157-.157.15.15 0 0 0-.023-.081 1.3 1.3 0 0 0-.376-.41"/>
  <path fill="var(--weather-cloud-shadow, #839396)" d="M8.797 9.413c.22.234.354.549.354.896l-.004.129a1.3 1.3 0 0 0-.971-.211 1.31 1.31 0 0 0-.621-1.034 1.2 1.2 0 0 1 1.014.244.16.16 0 0 0 .228-.024"/>
  <path fill="var(--weather-cloud-shadow, #839396)" d="M5.537 11.813a.98.98 0 0 0 .914.646h5.396c.34-.204.549-.573.549-.969 0-.62-.51-1.13-1.13-1.13h-.003a2.11 2.11 0 0 0-1.19-1.897q.209-.048.428-.048a1.963 1.963 0 0 1 1.95 1.951.16.16 0 0 0 .16.159.976.976 0 0 1 .928.971.976.976 0 0 1-.928.971l-.005-.004H6.453a.97.97 0 0 1-.916-.65"/>
  <path fill="var(--weather-outline, #231f20)" d="M12.141 8.802c.355.372.584.865.621 1.409h-.003a1.295 1.295 0 0 1 1.138 1.281c0 .708-.582 1.29-1.29 1.29H6.453c-.708 0-1.29-.582-1.29-1.29 0-.223.062-.433.162-.616a2.9 2.9 0 0 0-1.322.212.2.2 0 0 1-.061.013.16.16 0 0 1-.113-.047.16.16 0 0 1-.034-.174c.3-.727.302-1.528 0-2.254a2.97 2.97 0 0 0-1.593-1.594.16.16 0 0 1 0-.293 2.93 2.93 0 0 0 1.593-1.594 2.92 2.92 0 0 0 0-2.254.159.159 0 0 1 .208-.208 2.92 2.92 0 0 0 2.255 0 2.93 2.93 0 0 0 1.593-1.594c.051-.119.247-.119.296 0A2.93 2.93 0 0 0 9.74 2.683a2.92 2.92 0 0 0 2.255 0 .16.16 0 0 1 .174.034.16.16 0 0 1 .034.174 2.92 2.92 0 0 0 0 2.254 2.98 2.98 0 0 0 1.595 1.594.158.158 0 0 1 0 .293 2.93 2.93 0 0 0-1.657 1.77M4.09 8.505c.292.699.328 1.459.115 2.175l.004.005c.432-.126.889-.16 1.343-.1.2-.198.459-.336.752-.37q.02-.207.094-.395a3.33 3.33 0 0 1-1.742-2.932 3.366 3.366 0 0 1 3.346-3.347 3.367 3.367 0 0 1 3.347 3.347c0 .444-.094.875-.266 1.285.297.079.569.215.805.397a3.25 3.25 0 0 1 1.481-1.684 3.28 3.28 0 0 1-1.459-1.62 3.24 3.24 0 0 1-.115-2.175 3.25 3.25 0 0 1-2.176-.115A3.25 3.25 0 0 1 8 1.518a3.24 3.24 0 0 1-1.619 1.458 3.25 3.25 0 0 1-2.176.115 3.24 3.24 0 0 1-.115 2.175 3.24 3.24 0 0 1-1.457 1.62c.656.358 1.17.929 1.457 1.619m6.672-.396c.174-.384.264-.801.266-1.223A3.044 3.044 0 0 0 8 3.858a3.044 3.044 0 0 0-3.028 3.028c0 1.113.599 2.114 1.57 2.647a1.52 1.52 0 0 1 2.083-.45 2.27 2.27 0 0 1 2.137-.974m-4.309 4.354h6.153l.005.004a.976.976 0 0 0 .928-.971.976.976 0 0 0-.928-.971.16.16 0 0 1-.16-.159 1.963 1.963 0 0 0-1.95-1.951c-.697 0-1.343.374-1.691.98a.17.17 0 0 1-.111.076.16.16 0 0 1-.13-.034 1.194 1.194 0 0 0-1.946.78c.314.043.601.199.808.438a1.29 1.29 0 0 1 2.092.193.15.15 0 0 1 .023.081.16.16 0 0 1-.157.157h-.004a.16.16 0 0 1-.138-.078.97.97 0 0 0-.839-.487.97.97 0 0 0-.839.487.16.16 0 0 1-.138.078.16.16 0 0 1-.139-.078.97.97 0 0 0-.839-.487.98.98 0 0 0-.971.971c0 .535.436.971.971.971m.604 1.71.246.143.002.002a.16.16 0 0 1 .08.138.16.16 0 0 1-.159.159h-.002a.16.16 0 0 1-.078-.021l-.249-.142a.5.5 0 0 1-.176.102v.287a.16.16 0 0 1-.159.159.16.16 0 0 1-.16-.159v-.287a.4.4 0 0 1-.178-.1l-.247.142a.13.13 0 0 1-.078.022.16.16 0 0 1-.081-.298l.248-.144a.5.5 0 0 1 0-.204l-.248-.145a.16.16 0 0 1-.058-.219.157.157 0 0 1 .217-.057l.251.144a.5.5 0 0 1 .172-.097v-.294a.16.16 0 0 1 .159-.159c.087 0 .159.072.16.159v.285a.5.5 0 0 1 .178.102l.247-.142a.16.16 0 0 1 .238.14c0 .056-.03.108-.079.136l-.246.142a.5.5 0 0 1 0 .206m-.589.062c.09.049.204.018.257-.07l.002-.002a.18.18 0 0 0 .019-.143.18.18 0 0 0-.089-.114.2.2 0 0 0-.093-.026h-.002a.19.19 0 0 0-.19.19c0 .068.037.131.096.165m3.805.081-.246-.143a.5.5 0 0 0 0-.206l.246-.142a.16.16 0 0 0 .058-.217.16.16 0 0 0-.217-.059l-.246.142a.5.5 0 0 0-.179-.102v-.285a.16.16 0 0 0-.159-.159.16.16 0 0 0-.16.159v.294a.5.5 0 0 0-.172.097l-.25-.144a.157.157 0 0 0-.217.057.16.16 0 0 0 .057.219l.249.145a.5.5 0 0 0 0 .204l-.249.144a.16.16 0 0 0 .081.298.15.15 0 0 0 .079-.022l.246-.142a.4.4 0 0 0 .179.1v.287a.16.16 0 0 0 .159.159.16.16 0 0 0 .159-.159v-.287a.5.5 0 0 0 .177-.102l.248.142a.16.16 0 0 0 .16-.276zm-.577-.151a.194.194 0 0 1-.258.07.19.19 0 0 1-.096-.165c0-.104.086-.19.19-.19h.002q.05.002.094.026c.089.052.12.167.07.257zm3.299.008.247.143.002.002c.074.042.102.14.057.217a.156.156 0 0 1-.216.059l-.249-.142a.5.5 0 0 1-.176.102v.287a.16.16 0 0 1-.16.159.16.16 0 0 1-.159-.159v-.287a.45.45 0 0 1-.179-.1l-.246.142a.14.14 0 0 1-.079.022.16.16 0 0 1-.08-.298l.248-.144a.5.5 0 0 1 0-.204l-.248-.145a.165.165 0 0 1-.058-.219.157.157 0 0 1 .217-.057l.251.144a.5.5 0 0 1 .172-.097v-.294a.16.16 0 0 1 .159-.159.16.16 0 0 1 .159.159v.285q.102.03.179.102l.246-.142a.16.16 0 0 1 .217.059.16.16 0 0 1-.057.217l-.247.142a.5.5 0 0 1 0 .206m-.588.062c.09.049.204.018.257-.07l.002-.002a.19.19 0 0 0-.07-.257.19.19 0 0 0-.259.07.19.19 0 0 0 .07.259"/>
</svg>