<svg id="strib-weather-night-wintry-mix" viewBox="0 0 16 16" width="16" height="16" fill="currentcolor" class="strib-icon strib-weather-night-wintry-mix" xmlns="http://www.w3.org/2000/svg">
  <path d="M5.49 13a.3.3 0 0 0-.112.034l-1.743.997a.245.245 0 0 0-.126.249.2.2 0 0 0 .031.093.24.24 0 0 0 .25.124.2.2 0 0 0 .093-.032l1.743-.996a.25.25 0 0 0 .12-.289.25.25 0 0 0-.256-.18"/>
  <path d="M4.627 12.499a.26.26 0 0 0-.176.076.25.25 0 0 0-.07.178v1.994a.26.26 0 0 0 .072.179.3.3 0 0 0 .081.055.26.26 0 0 0 .193 0 .3.3 0 0 0 .082-.055.26.26 0 0 0 .072-.179v-1.994a.26.26 0 0 0-.074-.18.26.26 0 0 0-.18-.074"/>
  <path d="M3.74 13a.251.251 0 0 0-.104.469l1.743.996q.043.026.093.032a.2.2 0 0 0 .098-.006.24.24 0 0 0 .152-.118.25.25 0 0 0-.095-.342l-1.743-.997A.26.26 0 0 0 3.74 13m7.496 0a.3.3 0 0 0-.111.034l-1.743.997a.24.24 0 0 0-.075.063.3.3 0 0 0-.045.088.26.26 0 0 0 .089.265.24.24 0 0 0 .186.05.24.24 0 0 0 .093-.032l1.743-.996a.25.25 0 0 0 .12-.289.25.25 0 0 0-.257-.18"/>
  <path d="M10.373 12.499a.25.25 0 0 0-.246.254v1.994a.26.26 0 0 0 .072.179.3.3 0 0 0 .082.055.26.26 0 0 0 .193 0 .25.25 0 0 0 .153-.234v-1.994a.24.24 0 0 0-.073-.18.25.25 0 0 0-.181-.074"/>
  <path d="M9.486 13a.251.251 0 0 0-.104.469l1.743.996q.043.026.093.032a.2.2 0 0 0 .098-.006.24.24 0 0 0 .152-.118.25.25 0 0 0-.095-.342l-1.743-.997A.26.26 0 0 0 9.486 13m-1.492-1.25a.25.25 0 0 0-.187.096l-.995 1.245a.3.3 0 0 0-.052.087.3.3 0 0 0-.013.101.26.26 0 0 0 .094.176.2.2 0 0 0 .09.046.3.3 0 0 0 .102.007.25.25 0 0 0 .169-.105l.995-1.245a.247.247 0 0 0-.066-.373.24.24 0 0 0-.137-.035m5.746 0a.25.25 0 0 0-.187.096l-.994 1.245a.3.3 0 0 0-.053.087.3.3 0 0 0-.012.101.24.24 0 0 0 .093.176.2.2 0 0 0 .09.046.25.25 0 0 0 .271-.098l.995-1.245a.247.247 0 0 0-.066-.373.24.24 0 0 0-.137-.035m-11.492 0a.3.3 0 0 0-.105.027.3.3 0 0 0-.083.069l-.994 1.245a.25.25 0 0 0 .118.41.25.25 0 0 0 .271-.098l.996-1.245a.26.26 0 0 0 .055-.13.26.26 0 0 0-.121-.243.25.25 0 0 0-.137-.035m7.039-8.458a3.495 3.495 0 0 0-3.634 1.824 2.62 2.62 0 0 0-2.678.696 2.63 2.63 0 0 0-.486 2.907 2.63 2.63 0 0 0 2.522 1.526l3.74.005h.001a3.5 3.5 0 0 0 3.487-3.232 3.5 3.5 0 0 0-2.952-3.726m-.077.494a2.995 2.995 0 0 1 2.53 3.194 2.995 2.995 0 0 1-2.988 2.769l-3.754-.005h-.013a2.12 2.12 0 0 1-2.041-1.235 2.12 2.12 0 0 1 .392-2.353 2.13 2.13 0 0 1 2.115-.579 4 4 0 0 0-.108.369c-.069.311.406.435.486.115A2.997 2.997 0 0 1 9.21 3.785z"/>
  <path d="M12.374 1.002h-.024c-1.739.166-2.586 1.555-2.6 2.744-.006.334.496.341.5.007a2.29 2.29 0 0 1 1.698-2.179 2.8 2.8 0 0 0-.162.925c0 1.393 1.072 2.575 2.476 2.736A2.3 2.3 0 0 1 12.545 6c-.182 0-.327-.013-.503-.056-.338-.102-.464.421-.118.485.216.052.398.07.619.071h.001c.999 0 1.923-.527 2.421-1.381a.25.25 0 0 0-.238-.375 1 1 0 0 1-.147.007c-1.272 0-2.294-1.007-2.294-2.252 0-.393.104-.784.303-1.123A.25.25 0 0 0 12.374 1z"/>
</svg>