<svg id="strib-weather-day-mostly-cloudy-thunderstorms-lg" viewBox="0 0 16 16" width="16" height="16" fill="currentcolor" class="strib-icon strib-weather-day-mostly-cloudy-thunderstorms-lg" xmlns="http://www.w3.org/2000/svg">
  <path d="M12.662 7.957a2.93 2.93 0 0 1 1.176-.883.16.16 0 0 0 0-.296 3 3 0 0 1-1.606-1.604 2.94 2.94 0 0 1 0-2.27.161.161 0 0 0-.21-.21 2.94 2.94 0 0 1-2.27 0A2.94 2.94 0 0 1 8.148 1.09c-.05-.12-.246-.12-.298 0a2.95 2.95 0 0 1-1.604 1.604 2.94 2.94 0 0 1-2.27 0 .16.16 0 0 0-.176.035.16.16 0 0 0-.034.175 2.94 2.94 0 0 1 0 2.27 2.94 2.94 0 0 1-1.604 1.604.16.16 0 0 0 0 .296c.462.192.864.494 1.176.883a1.715 1.715 0 0 0-1.275 1.654c0 .943.768 1.711 1.712 1.711H6.65l-.404 1.006a.17.17 0 0 0 .015.15c.03.045.079.07.132.07h.732l-.575 2.251a.162.162 0 0 0 .154.201.16.16 0 0 0 .126-.062l2.847-3.616h2.542c.943 0 1.711-.768 1.711-1.711 0-.794-.543-1.461-1.275-1.654zM2.596 6.926a3.26 3.26 0 0 0 1.468-1.63 3.27 3.27 0 0 0 .115-2.191A3.27 3.27 0 0 0 6.37 2.99 3.26 3.26 0 0 0 8 1.522 3.27 3.27 0 0 0 9.63 2.99a3.27 3.27 0 0 0 2.191.115 3.27 3.27 0 0 0 .115 2.191 3.3 3.3 0 0 0 1.47 1.63 3.3 3.3 0 0 0-1.033.89 3.05 3.05 0 0 0-1.294-2.255A3.37 3.37 0 0 0 8 3.559a3.356 3.356 0 0 0-3.299 2.712 2.03 2.03 0 0 0-1.07 1.551 3.3 3.3 0 0 0-1.035-.894zm7.956-1.664a3 3 0 0 0-1.223-.259 3.07 3.07 0 0 0-2.555 1.382 2.03 2.03 0 0 0-1.709-.266 3.046 3.046 0 0 1 5.489-.86zm-3.5 8.884.439-1.715a.17.17 0 0 0-.028-.139.16.16 0 0 0-.126-.062h-.702l.858-2.131h1.093l-.404 1.005a.17.17 0 0 0 .015.15c.03.045.079.071.132.071h.946zm5.173-3.142H8.567l.404-1.006a.16.16 0 0 0-.015-.15.16.16 0 0 0-.132-.07h-1.44a.16.16 0 0 0-.15.1l-.453 1.126H3.777a1.393 1.393 0 0 1-1.391-1.391c0-.766.625-1.391 1.391-1.391a1.4 1.4 0 0 1 1.204.696.16.16 0 0 0 .139.079.16.16 0 0 0 .139-.079c.249-.43.711-.696 1.203-.696s.954.268 1.204.696a.16.16 0 0 0 .139.079.16.16 0 0 0 .139-.24 1.707 1.707 0 0 0-2.821-.203 1.7 1.7 0 0 0-1.175-.642 1.704 1.704 0 0 1 2.773-1.166.16.16 0 0 0 .241-.042 2.74 2.74 0 0 1 2.371-1.376 2.74 2.74 0 0 1 2.736 2.736c0 .088.073.161.161.161a1.39 1.39 0 0 1 0 2.781z"/>
</svg>