<svg id="strib-weather-day-mostly-sunny-lg-color" viewBox="0 0 16 16" width="16" height="16" fill="currentcolor" class="strib-icon strib-weather-day-mostly-sunny-lg-color" xmlns="http://www.w3.org/2000/svg">
  <path fill="var(--weather-sun-highlight, #fff3c0)" d="M4.437 8.489A3.614 3.614 0 0 1 8 4.405c.85 0 1.635.302 2.253.803a3.784 3.784 0 0 1-2.062 5.161 1.8 1.8 0 0 0-1.411.248 3.75 3.75 0 0 1-1.585-.377 3.6 3.6 0 0 1-.758-1.751"/>
  <path fill="var(--weather-sun-shadow, #ffc783)" d="M10.253 5.208A3.6 3.6 0 0 1 11.595 8c0 .501-.109.991-.316 1.452a2.71 2.71 0 0 0-2.537 1.156 1.8 1.8 0 0 0-2.473.535 3.57 3.57 0 0 1-1.832-2.654c.09.638.35 1.244.758 1.751.494.24 1.035.369 1.585.377a1.8 1.8 0 0 1 1.411-.248 3.786 3.786 0 0 0 2.062-5.161"/>
  <path fill="var(--weather-sun-shadow, #ffc783)" d="M3.495 12.506a3.85 3.85 0 0 0-.137-2.584A3.9 3.9 0 0 0 1.627 8a3.84 3.84 0 0 0 1.731-1.923 3.85 3.85 0 0 0 .137-2.583 3.86 3.86 0 0 0 2.583-.136A3.84 3.84 0 0 0 8 1.627a3.86 3.86 0 0 0 1.922 1.731c.83.343 1.733.389 2.583.136a3.86 3.86 0 0 0 .137 2.583A3.9 3.9 0 0 0 14.375 8a3.87 3.87 0 0 0-1.759 2.001 2.7 2.7 0 0 0-.955-.472c.203-.487.315-1 .315-1.527-.003-2.179-1.795-3.97-3.974-3.973-2.178.002-3.97 1.794-3.973 3.973 0 1.465.79 2.783 2.069 3.482q-.089.226-.111.469a1.5 1.5 0 0 0-.893.439 3.9 3.9 0 0 0-1.595.118z"/>
  <path fill="var(--weather-cloud-highlight, #afc2c4)" d="M6.366 11.943a1.43 1.43 0 0 1 1.06-1.193c.415.257.706.697.758 1.209-.335.067-.64.245-.863.505a1.53 1.53 0 0 0-.955-.521"/>
  <path fill="var(--weather-cloud-highlight, #afc2c4)" d="M5.041 13.73a1.15 1.15 0 0 1 1.123-1.416c.408 0 .791.222.996.577a.19.19 0 0 0 .328 0c.205-.356.586-.576.997-.577.408 0 .791.222.996.577a.19.19 0 0 0 .259.068.185.185 0 0 0 .089-.209.2.2 0 0 0-.023-.057 1.5 1.5 0 0 0-.427-.473l.003-.102c0-.431-.17-.821-.445-1.11a.2.2 0 0 0 .024-.032c.329-.569.88-.967 1.509-1.107a2.5 2.5 0 0 1 1.405 2.249c.736 0 1.342.606 1.342 1.342 0 .472-.249.911-.655 1.153H6.161a1.16 1.16 0 0 1-1.12-.883"/>
  <path fill="var(--weather-cloud-shadow, #839396)" d="M9.829 12.75a.2.2 0 0 0-.021-.048 1.54 1.54 0 0 0-1.323-.764c-.449 0-.874.199-1.161.534a1.53 1.53 0 0 0-.959-.519l.001-.01c.372.051.711.236.955.521.223-.26.528-.438.863-.505a1.62 1.62 0 0 0-.758-1.209q.169-.044.35-.044c.328 0 .646.113.9.321a.19.19 0 0 0 .261-.019c.275.289.445.679.445 1.11l-.003.102c.175.125.32.287.427.473a.2.2 0 0 1 .023.057"/>
  <path fill="var(--weather-cloud-shadow, #839396)" d="M10.47 9.869q.244-.054.499-.056a2.32 2.32 0 0 1 2.316 2.317.19.19 0 0 0 .189.188 1.16 1.16 0 0 1 1.119 1.153c0 .62-.499 1.134-1.119 1.153l-.005-.005H6.164c-.545 0-1.003-.38-1.123-.889.123.504.581.882 1.12.883h6.401c.406-.242.655-.681.655-1.153 0-.736-.606-1.342-1.342-1.342a2.5 2.5 0 0 0-1.405-2.249"/>
  <path fill="var(--weather-outline, #231f20)" d="M13.653 11.948a2.7 2.7 0 0 0-.737-1.673 3.48 3.48 0 0 1 1.968-2.101A.19.19 0 0 0 15 8a.18.18 0 0 0-.116-.174 3.53 3.53 0 0 1-1.894-1.892 3.48 3.48 0 0 1 0-2.676.2.2 0 0 0-.04-.208.19.19 0 0 0-.207-.04 3.47 3.47 0 0 1-2.677 0 3.48 3.48 0 0 1-1.892-1.892c-.058-.142-.29-.142-.351 0A3.48 3.48 0 0 1 5.931 3.01a3.47 3.47 0 0 1-2.676 0 .19.19 0 0 0-.207.04.18.18 0 0 0-.04.208c.357.856.357 1.82 0 2.676a3.48 3.48 0 0 1-1.892 1.892.189.189 0 0 0 0 .348 3.52 3.52 0 0 1 1.892 1.892 3.48 3.48 0 0 1 0 2.677.19.19 0 0 0 .04.206.19.19 0 0 0 .207.04 3.45 3.45 0 0 1 1.569-.252 1.54 1.54 0 0 0-.192.732c0 .845.686 1.531 1.532 1.531h7.306c.84 0 1.531-.691 1.531-1.531 0-.772-.583-1.43-1.35-1.521zm-10.158.558a3.85 3.85 0 0 0-.137-2.584A3.9 3.9 0 0 0 1.627 8a3.84 3.84 0 0 0 1.731-1.923 3.85 3.85 0 0 0 .137-2.583 3.86 3.86 0 0 0 2.583-.136A3.84 3.84 0 0 0 8 1.627a3.86 3.86 0 0 0 1.922 1.731c.83.343 1.733.389 2.583.136a3.86 3.86 0 0 0 .137 2.583A3.9 3.9 0 0 0 14.375 8a3.87 3.87 0 0 0-1.759 2.001 2.7 2.7 0 0 0-.955-.472c.203-.487.315-1 .315-1.527-.003-2.179-1.795-3.97-3.974-3.973-2.178.002-3.97 1.794-3.973 3.973 0 1.465.79 2.783 2.069 3.482q-.089.226-.111.469a1.5 1.5 0 0 0-.893.439 3.9 3.9 0 0 0-1.595.118zm2.774-1.363A3.57 3.57 0 0 1 4.405 8 3.614 3.614 0 0 1 8 4.405 3.614 3.614 0 0 1 11.595 8c0 .501-.109.991-.316 1.452a2.71 2.71 0 0 0-2.537 1.156 1.8 1.8 0 0 0-2.473.535m7.2 3.476H6.164a1.155 1.155 0 0 1-1.154-1.153c0-.635.518-1.152 1.154-1.152.408 0 .791.222.996.577a.19.19 0 0 0 .328 0c.205-.356.586-.576.997-.577.408 0 .791.222.996.577a.19.19 0 0 0 .259.068.185.185 0 0 0 .068-.257 1.54 1.54 0 0 0-1.323-.764c-.449 0-.874.199-1.161.534a1.53 1.53 0 0 0-.959-.519 1.42 1.42 0 0 1 2.311-.926.19.19 0 0 0 .285-.051 2.33 2.33 0 0 1 2.008-1.163 2.32 2.32 0 0 1 2.316 2.317.19.19 0 0 0 .189.188 1.16 1.16 0 0 1 1.119 1.153c0 .62-.499 1.134-1.119 1.153z"/>
</svg>