<svg id="strib-weather-day-partly-sunny-thunderstorms-lg" viewBox="0 0 16 16" width="16" height="16" fill="currentcolor" class="strib-icon strib-weather-day-partly-sunny-thunderstorms-lg" xmlns="http://www.w3.org/2000/svg">
  <path d="M12.61 9.917a2.18 2.18 0 0 0-.601-1.364 2.83 2.83 0 0 1 1.605-1.713.16.16 0 0 0 .094-.142.15.15 0 0 0-.094-.142 2.88 2.88 0 0 1-1.545-1.543 2.83 2.83 0 0 1 0-2.182.16.16 0 0 0-.033-.169.16.16 0 0 0-.169-.033 2.83 2.83 0 0 1-2.182 0 2.83 2.83 0 0 1-1.543-1.543c-.047-.115-.237-.115-.286 0a2.83 2.83 0 0 1-1.543 1.543 2.83 2.83 0 0 1-2.182 0 .16.16 0 0 0-.169.033.16.16 0 0 0-.033.169 2.83 2.83 0 0 1 0 2.182 2.83 2.83 0 0 1-1.543 1.543.16.16 0 0 0-.094.142c0 .062.037.119.094.142a2.87 2.87 0 0 1 1.543 1.543c.292.703.29 1.479 0 2.182a.16.16 0 0 0 .033.169.16.16 0 0 0 .169.033 2.8 2.8 0 0 1 1.279-.206 1.25 1.25 0 0 0-.156.597c0 .689.559 1.248 1.248 1.248h1.965l-.263.652a.153.153 0 0 0 .142.212h.462l-.392 1.537a.155.155 0 0 0 .08.177q.033.015.068.016c.045 0 .09-.021.121-.06l1.995-2.534h1.773a1.249 1.249 0 0 0 .151-2.489zm-8.284.455a3.13 3.13 0 0 0-.111-2.107 3.2 3.2 0 0 0-1.411-1.567A3.14 3.14 0 0 0 4.215 5.13a3.14 3.14 0 0 0 .111-2.106c.693.206 1.43.169 2.107-.111A3.14 3.14 0 0 0 8 1.502a3.15 3.15 0 0 0 1.567 1.411c.677.28 1.414.317 2.107.111a3.14 3.14 0 0 0 .111 2.106 3.2 3.2 0 0 0 1.413 1.568 3.15 3.15 0 0 0-1.434 1.631 2.2 2.2 0 0 0-.779-.385 3.2 3.2 0 0 0 .257-1.244 3.244 3.244 0 0 0-3.24-3.24 3.244 3.244 0 0 0-3.24 3.24c0 1.195.644 2.269 1.687 2.839a1.4 1.4 0 0 0-.09.382 1.25 1.25 0 0 0-.729.358 3.2 3.2 0 0 0-1.3.097zm6.605-3.674c0 .409-.088.808-.257 1.185a2 2 0 0 0-.257-.017c-.726 0-1.405.364-1.812.959a1.465 1.465 0 0 0-2.016.436 2.91 2.91 0 0 1-1.52-2.563A2.933 2.933 0 0 1 8 3.767a2.933 2.933 0 0 1 2.931 2.931m-2.03 7.479.261-1.022a.16.16 0 0 0-.027-.134.14.14 0 0 0-.121-.059H8.58l.572-1.42h.683l-.263.652a.152.152 0 0 0 .141.212h.583zm3.559-2.079H9.942l.263-.653a.16.16 0 0 0-.014-.144.15.15 0 0 0-.128-.067H9.047a.16.16 0 0 0-.144.096l-.309.768H6.502a.941.941 0 0 1 0-1.881.94.94 0 0 1 .813.472.15.15 0 0 0 .134.076.15.15 0 0 0 .133-.076.94.94 0 0 1 .813-.472.94.94 0 0 1 .812.472.155.155 0 0 0 .212.055.153.153 0 0 0 .056-.21 1.246 1.246 0 0 0-2.026-.187c-.2-.232-.48-.383-.782-.424a1.159 1.159 0 0 1 1.884-.755.15.15 0 0 0 .126.033.16.16 0 0 0 .107-.074 1.89 1.89 0 0 1 1.637-.948 1.89 1.89 0 0 1 1.888 1.888c0 .085.07.155.155.155a.94.94 0 0 1 0 1.88z"/>
</svg>