<svg id="strib-weather-night-partly-cloudy-lg" viewBox="0 0 16 16" width="16" height="16" fill="currentcolor" class="strib-icon strib-weather-night-partly-cloudy-lg" xmlns="http://www.w3.org/2000/svg">
  <path d="M11.594 2.833h-.477a.19.19 0 0 1-.191-.191c0-.105.086-.191.191-.191h.477v-.477c0-.105.086-.191.191-.191.104 0 .191.086.191.191v.477h.477c.104 0 .191.086.191.191a.19.19 0 0 1-.191.191h-.477v.477a.19.19 0 0 1-.191.191.19.19 0 0 1-.191-.191zM4.116 7.111h-.477a.19.19 0 0 1-.191-.191c0-.104.086-.191.191-.191h.477v-.477c0-.104.086-.191.191-.191.104 0 .191.087.191.191v.477h.477c.104 0 .191.087.191.191a.19.19 0 0 1-.191.191h-.477v.477a.19.19 0 0 1-.191.191.19.19 0 0 1-.191-.191zM1.13 4.506c.538.181.724.367.905.905.026.076.1.13.181.13a.19.19 0 0 0 .181-.13c.181-.538.367-.724.905-.905.077-.026.13-.1.13-.181a.19.19 0 0 0-.13-.181c-.538-.184-.721-.37-.905-.905a.19.19 0 0 0-.181-.131.19.19 0 0 0-.181.131c-.181.535-.367.721-.905.905a.19.19 0 0 0-.13.181c0 .081.054.155.13.181m1.086-.719c.133.239.298.405.538.538-.24.132-.405.298-.538.538a1.3 1.3 0 0 0-.538-.538c.24-.133.406-.299.538-.538m8.761 4.806a2.724 2.724 0 0 1 2.656 2.539h.006a1.548 1.548 0 0 1-.187 3.085H6.069a1.55 1.55 0 0 1-1.548-1.547q.002-.13.023-.25a5.3 5.3 0 0 1-1.461-.571 5.4 5.4 0 0 1-2.057-2.132.19.19 0 0 1 .033-.224.19.19 0 0 1 .224-.033 4.21 4.21 0 0 0 5.655-1.614 4.214 4.214 0 0 0-1.43-5.704.192.192 0 0 1 .094-.354 5.37 5.37 0 0 1 2.871.714 5.416 5.416 0 0 1 2.504 6.091m-9.299 1.463a4.95 4.95 0 0 0 1.591 1.461h.003c.426.245.89.423 1.379.536a1.55 1.55 0 0 1 1.232-.921 1.82 1.82 0 0 1 1.81-1.639c.347 0 .686.102.976.285a2.72 2.72 0 0 1 1.905-1.167 5.03 5.03 0 0 0-2.292-5.78 5 5 0 0 0-2.06-.648 4.59 4.59 0 0 1 1.045 5.851 4.59 4.59 0 0 1-5.589 2.022m4.386 3.779h7.391c.642 0 1.165-.523 1.165-1.165 0-.643-.523-1.166-1.165-1.166a.19.19 0 0 1-.191-.191c0-1.29-1.051-2.34-2.341-2.34a2 2 0 0 0-.176.01h-.007a2.35 2.35 0 0 0-1.846 1.165.194.194 0 0 1-.288.051 1.437 1.437 0 0 0-2.336.936c.375.051.722.237.969.525a1.55 1.55 0 0 1 1.173-.541c.548 0 1.06.296 1.338.773a.192.192 0 1 1-.331.194 1.17 1.17 0 0 0-1.01-.584c-.413 0-.8.224-1.007.584a.19.19 0 0 1-.166.097.19.19 0 0 1-.165-.095 1.17 1.17 0 0 0-1.007-.584 1.166 1.166 0 0 0 0 2.331"/>
</svg>