<svg id="strib-weather-night-partly-cloudy-showers-lg-color" viewBox="0 0 16 16" width="16" height="16" fill="currentcolor" class="strib-icon strib-weather-night-partly-cloudy-showers-lg-color" xmlns="http://www.w3.org/2000/svg">
  <path fill="var(--weather-moon-highlight, #d3eaea)" d="M2.812 2.8c.119.215.268.363.483.482a1.17 1.17 0 0 0-.483.483 1.17 1.17 0 0 0-.482-.483c.215-.119.363-.267.482-.482m5.742-.668a4.69 4.69 0 0 1-.19 5.914 1.6 1.6 0 0 0-.64-.131 1.64 1.64 0 0 0-1.623 1.469 1.4 1.4 0 0 0-.568.2 4.66 4.66 0 0 1-2.373-.269 4.5 4.5 0 0 1-.828-.893 4.134 4.134 0 0 0 5.011-1.815 4.134 4.134 0 0 0-.938-5.248 4.5 4.5 0 0 1 2.149.773"/>
  <path fill="var(--weather-moon-shadow, #afc2c4)" d="M2.332 8.422c.234.334.513.634.828.893a4.66 4.66 0 0 0 2.373.269c.173-.107.367-.175.568-.2v.002a1.39 1.39 0 0 0-1.105.825c-.439-.1-.855-.26-1.237-.48h-.002a4.45 4.45 0 0 1-1.425-1.309m5.392-.507c.22 0 .438.045.64.131a4.69 4.69 0 0 0 .191-5.914 4.53 4.53 0 0 1 1.754 4.992A2.44 2.44 0 0 0 8.6 8.171a1.65 1.65 0 0 0-.876-.256"/>
  <path fill="var(--weather-cloud-highlight, #afc2c4)" d="M7.398 8.301c.395.238.652.648.698 1.101-.3.062-.575.221-.779.457a1.4 1.4 0 0 0-.869-.471c.066-.53.453-.955.95-1.087"/>
  <path fill="var(--weather-cloud-highlight, #afc2c4)" d="m9.183 9.64.003-.092c0-.393-.156-.75-.409-1.013a.1.1 0 0 0 .025-.032 2.1 2.1 0 0 1 1.357-1 2.27 2.27 0 0 1 1.286 2.045h.003c.667 0 1.216.549 1.216 1.216 0 .428-.226.825-.593 1.044h.817a1.054 1.054 0 0 0 1-1.045c0-.426-.26-.798-.631-.96.374.161.636.534.636.962a1.05 1.05 0 0 1-1 1.045h-6.63a1.05 1.05 0 0 1-1-1.045 1.05 1.05 0 0 1 1-1.045c.372.002.716.201.903.523a.17.17 0 0 0 .149.085.17.17 0 0 0 .149-.087c.185-.322.533-.524.903-.524.373.003.718.202.906.524a.17.17 0 0 0 .149.085.173.173 0 0 0 .172-.172.2.2 0 0 0-.024-.087 1.4 1.4 0 0 0-.387-.427"/>
  <path fill="var(--weather-cloud-shadow, #839396)" d="M8.096 9.402a1.46 1.46 0 0 0-.698-1.101 1.28 1.28 0 0 1 1.145.248.17.17 0 0 0 .234-.014c.253.263.409.62.409 1.013l-.003.092a1.4 1.4 0 0 0-1.087-.238m5.161.401c.371.162.631.534.631.96a1.054 1.054 0 0 1-1 1.045h-.817c.367-.219.593-.616.593-1.044 0-.667-.549-1.216-1.216-1.216h-.003c0-.9-.525-1.678-1.286-2.045a2 2 0 0 1 .298-.045h.007q.079-.009.158-.009a2.11 2.11 0 0 1 2.099 2.099.175.175 0 0 0 .172.172q.194.01.364.083"/>
  <path fill="var(--weather-outline, #231f20)" d="M11.223 1.942h-.427a.174.174 0 0 1-.172-.171c0-.094.078-.172.172-.172h.427v-.427c0-.094.078-.172.172-.172s.171.078.171.172v.427h.428c.094 0 .171.078.171.172v.001c0 .093-.077.17-.17.17h-.429v.428a.173.173 0 0 1-.171.159.173.173 0 0 1-.172-.159zM4.516 5.779h-.429a.17.17 0 0 1-.17-.17v-.001c0-.094.078-.172.171-.172h.428v-.427c0-.094.078-.172.172-.172s.171.078.171.172v.427h.428c.093 0 .171.078.171.172v.001c0 .093-.077.17-.17.17h-.429v.428a.174.174 0 0 1-.171.172.175.175 0 0 1-.172-.172zM1.838 3.445c.483.162.647.329.812.811a.17.17 0 0 0 .325 0c.162-.482.329-.649.812-.811a.17.17 0 0 0 .116-.163.17.17 0 0 0-.116-.162c-.483-.165-.648-.332-.812-.812a.17.17 0 0 0-.325 0c-.162.48-.329.647-.812.812a.17.17 0 0 0 0 .325m.974-.645c.119.215.268.363.483.482a1.17 1.17 0 0 0-.483.483 1.17 1.17 0 0 0-.482-.483c.215-.119.363-.267.482-.482m7.858 4.308a2.455 2.455 0 0 1 2.383 2.278h.004a1.395 1.395 0 0 1 1.202 1.377c0 .755-.615 1.378-1.369 1.39H6.268A1.397 1.397 0 0 1 4.9 10.541a4.78 4.78 0 0 1-3.156-2.424.17.17 0 0 1 .231-.231 3.797 3.797 0 0 0 5.073-1.448 3.797 3.797 0 0 0-1.283-5.116.171.171 0 0 1 .084-.317 4.8 4.8 0 0 1 2.575.64 4.87 4.87 0 0 1 2.246 5.463M2.33 8.421c.375.537.86.983 1.427 1.31h.002c.382.22.798.38 1.237.48a1.39 1.39 0 0 1 1.105-.825 1.64 1.64 0 0 1 1.623-1.471c.311 0 .616.092.876.256a2.44 2.44 0 0 1 1.709-1.047A4.53 4.53 0 0 0 8.253 1.94a4.5 4.5 0 0 0-1.848-.581 4.134 4.134 0 0 1 .938 5.248A4.13 4.13 0 0 1 2.33 8.421m3.933 3.389h6.63a1.05 1.05 0 0 0 1-1.045 1.05 1.05 0 0 0-1-1.045.175.175 0 0 1-.172-.172 2.11 2.11 0 0 0-2.099-2.099q-.079 0-.158.009h-.007a2.1 2.1 0 0 0-1.655 1.045.17.17 0 0 1-.119.082.17.17 0 0 1-.14-.036 1.3 1.3 0 0 0-.816-.291c-.647 0-1.199.488-1.279 1.13.337.046.648.213.869.471a1.4 1.4 0 0 1 1.052-.485c.492 0 .952.266 1.201.693a.2.2 0 0 1 .024.087.173.173 0 0 1-.172.172.17.17 0 0 1-.149-.085 1.06 1.06 0 0 0-.906-.524c-.37 0-.718.202-.903.524a.17.17 0 0 1-.149.087.17.17 0 0 1-.149-.085 1.05 1.05 0 0 0-.903-.523 1.05 1.05 0 0 0-1 1.045 1.05 1.05 0 0 0 1 1.045m2.413.734c.094 0 .171.078.171.171v.618a.173.173 0 0 1-.172.159.173.173 0 0 1-.171-.159v-.618c0-.093.078-.171.172-.171m.171 1.667a.173.173 0 0 0-.172-.159.173.173 0 0 0-.171.159v.617c0 .094.078.172.172.172h.001c.093 0 .17-.077.17-.17zm3.428-1.667c.094 0 .172.078.172.171v.619c0 .093-.077.17-.17.17h-.003a.17.17 0 0 1-.17-.17v-.619c0-.093.078-.171.171-.171m.172 2.284v-.618a.17.17 0 0 0-.17-.17h-.003a.17.17 0 0 0-.17.17v.618c0 .094.078.172.171.172a.175.175 0 0 0 .172-.172m-1.971-.788h-.002a.17.17 0 0 0-.17.17v.618c0 .094.078.172.172.172a.174.174 0 0 0 .171-.172v-.618a.17.17 0 0 0-.17-.17zm-.172-1.325c0-.093.078-.171.172-.171s.171.078.171.171v.619c0 .093-.077.17-.17.17h-.003a.17.17 0 0 1-.17-.17zM6.878 14.04h-.001a.17.17 0 0 0-.17.17v.618c0 .094.078.172.171.172a.175.175 0 0 0 .172-.172v-.618a.17.17 0 0 0-.17-.17zm-.171-1.325c0-.093.078-.171.171-.171s.172.078.172.171v.619c0 .093-.077.17-.17.17h-.003a.17.17 0 0 1-.17-.17z"/>
</svg>