<svg id="strib-weather-night-lg-color" viewBox="0 0 16 16" width="16" height="16" fill="currentcolor" class="strib-icon strib-weather-night-lg-color" xmlns="http://www.w3.org/2000/svg">
  <path fill="var(--weather-moon-highlight, #d3eaea)" d="M3.047 4.284c-.268.141-.487.36-.628.628a1.5 1.5 0 0 0-.628-.628c.268-.141.487-.359.628-.627.141.268.36.486.628.627m10.534 9.609a1.5 1.5 0 0 0-.628-.627c.268-.141.487-.36.628-.628.155.28.348.473.628.628-.28.154-.473.348-.628.627M9.892 2.792a6.07 6.07 0 0 1 .44 6.724 6.09 6.09 0 0 1-7.461 2.617 5.8 5.8 0 0 1-1.08-1.164 5.4 5.4 0 0 0 1.86.333 5.4 5.4 0 0 0 4.661-2.689 5.38 5.38 0 0 0-1.219-6.828 5.8 5.8 0 0 1 2.799 1.007"/>
  <path fill="var(--weather-moon-shadow, #afc2c4)" d="M2.871 12.133a6.09 6.09 0 0 0 7.461-2.617 6.07 6.07 0 0 0-.44-6.724c2.469 1.708 3.268 5.097 1.746 7.74h.003a5.88 5.88 0 0 1-5.072 2.927 5.84 5.84 0 0 1-3.698-1.326"/>
  <path fill="var(--weather-outline, #231f20)" d="M12.805 2.541h.556v.556c0 .122.101.223.223.223a.226.226 0 0 0 .223-.223v-.556h.556a.227.227 0 0 0 .224-.223.227.227 0 0 0-.224-.223h-.556v-.557a.226.226 0 0 0-.223-.223.226.226 0 0 0-.223.223v.557h-.556a.227.227 0 0 0-.224.223c0 .122.102.223.224.223m2.043 10.513c-.624-.211-.842-.431-1.056-1.056a.22.22 0 0 0-.211-.151.22.22 0 0 0-.211.151c-.214.634-.423.842-1.056 1.056a.225.225 0 0 0-.152.212.22.22 0 0 0 .152.211c.624.211.842.428 1.056 1.056a.22.22 0 0 0 .211.152.23.23 0 0 0 .211-.152c.211-.628.429-.842 1.056-1.056a.223.223 0 0 0 0-.423m-1.267.839a1.5 1.5 0 0 0-.628-.627c.268-.141.487-.36.628-.628.155.28.348.473.628.628-.28.154-.473.348-.628.627M6.373 1.321a6.3 6.3 0 0 1 3.349.833h.003c2.988 1.73 4.028 5.609 2.306 8.601a6.33 6.33 0 0 1-5.456 3.15 6.29 6.29 0 0 1-5.542-3.332.22.22 0 0 1 .038-.261.22.22 0 0 1 .262-.039 4.94 4.94 0 0 0 2.323.583A4.95 4.95 0 0 0 7.931 8.39c1.331-2.289.585-5.264-1.668-6.655a.23.23 0 0 1-.099-.247.23.23 0 0 1 .209-.167m.196 12.138a5.88 5.88 0 0 0 5.072-2.927h-.003c1.601-2.78.635-6.384-2.142-7.991a5.8 5.8 0 0 0-2.403-.756 5.38 5.38 0 0 1 1.219 6.828 5.4 5.4 0 0 1-4.661 2.689 5.4 5.4 0 0 1-1.86-.333 5.84 5.84 0 0 0 4.778 2.49m-2.49-5.923h.556v.556c0 .122.101.223.223.223a.227.227 0 0 0 .224-.223v-.556h.556a.226.226 0 0 0 .223-.223.226.226 0 0 0-.223-.223h-.556v-.557a.227.227 0 0 0-.224-.223.226.226 0 0 0-.223.223v.557h-.556a.226.226 0 0 0-.223.223c0 .122.101.223.223.223M2.208 5.552c-.211-.628-.429-.845-1.056-1.057a.22.22 0 0 1-.151-.211c0-.095.061-.18.151-.211.624-.214.842-.431 1.056-1.056a.22.22 0 0 1 .211-.152c.095 0 .182.063.211.152.214.625.429.842 1.056 1.056.09.031.151.116.151.211s-.061.18-.151.211c-.627.212-.845.429-1.056 1.057a.22.22 0 0 1-.211.151.22.22 0 0 1-.211-.151m.839-1.268a1.5 1.5 0 0 1-.628-.627c-.141.268-.36.486-.628.627.28.155.473.348.628.628.141-.268.36-.487.628-.628"/>
</svg>