<svg id="strib-weather-night-partly-cloudy-thunderstorms-lg" viewBox="0 0 16 16" width="16" height="16" fill="currentcolor" class="strib-icon strib-weather-night-partly-cloudy-thunderstorms-lg" xmlns="http://www.w3.org/2000/svg">
  <path d="M11.216 1.94h-.426a.173.173 0 0 1-.172-.171c0-.094.078-.171.172-.171h.426v-.427c0-.093.078-.171.171-.171s.171.078.171.171v.427h.427c.093 0 .171.077.171.171a.173.173 0 0 1-.171.171h-.427v.426a.17.17 0 0 1-.171.171.17.17 0 0 1-.171-.171zm-6.69 3.829H4.1a.17.17 0 0 1-.171-.171c0-.093.077-.171.171-.171h.426v-.426c0-.094.078-.171.171-.171s.171.077.171.171v.426h.427c.093 0 .171.078.171.171a.17.17 0 0 1-.171.171h-.427v.427a.17.17 0 0 1-.171.171.173.173 0 0 1-.171-.171zM1.855 3.438c.482.162.648.329.81.81a.17.17 0 0 0 .162.116.17.17 0 0 0 .162-.116c.162-.481.328-.648.81-.81a.17.17 0 0 0 .116-.162.17.17 0 0 0-.116-.162c-.482-.164-.646-.33-.81-.809a.17.17 0 0 0-.162-.117.17.17 0 0 0-.162.117c-.162.479-.328.645-.81.809a.17.17 0 0 0-.116.162c0 .073.048.139.116.162m.972-.643c.119.214.267.363.481.481a1.17 1.17 0 0 0-.481.482 1.17 1.17 0 0 0-.481-.482c.214-.118.362-.267.481-.481m7.837 4.297a2.44 2.44 0 0 1 2.377 2.272h.002a1.385 1.385 0 0 1-.166 2.76H10.91l-2.212 2.81a.17.17 0 0 1-.135.066.2.2 0 0 1-.075-.018.174.174 0 0 1-.089-.196l.436-1.704h-.513a.17.17 0 0 1-.16-.235l.292-.723H6.273a1.385 1.385 0 0 1-1.364-1.608 4.9 4.9 0 0 1-1.307-.511 4.8 4.8 0 0 1-1.84-1.907.17.17 0 0 1 .23-.23 3.77 3.77 0 0 0 5.059-1.444 3.77 3.77 0 0 0-1.279-5.102.17.17 0 0 1-.076-.19.17.17 0 0 1 .16-.127c.903-.03 1.79.191 2.568.638a4.845 4.845 0 0 1 2.24 5.449M2.346 8.399a4.45 4.45 0 0 0 1.423 1.307v-.002c.381.219.796.378 1.234.479a1.38 1.38 0 0 1 1.102-.824 1.63 1.63 0 0 1 1.619-1.464c.31 0 .614.091.874.256a2.45 2.45 0 0 1 1.706-1.045 4.5 4.5 0 0 0-2.051-5.171 4.5 4.5 0 0 0-1.843-.579 4.11 4.11 0 0 1 .935 5.234 4.1 4.1 0 0 1-4.999 1.809m6.87 4.553-.29 1.133h.002l1.547-1.963h-.646a.17.17 0 0 1-.141-.076.17.17 0 0 1-.018-.159l.292-.723h-.758l-.634 1.573h.481a.17.17 0 0 1 .135.067c.03.043.043.098.03.148m.866-1.173h2.792l.003.003c.574 0 1.042-.468 1.042-1.043 0-.574-.468-1.042-1.042-1.042a.173.173 0 0 1-.172-.171 2.096 2.096 0 0 0-2.093-2.094q-.058.001-.115.008l-.04.003h-.007a2.1 2.1 0 0 0-1.652 1.043.17.17 0 0 1-.116.082.17.17 0 0 1-.139-.037 1.284 1.284 0 0 0-2.089.838c.335.045.645.212.866.469.26-.303.644-.483 1.05-.483.49 0 .948.264 1.197.691a.169.169 0 0 1-.148.255.17.17 0 0 1-.149-.084 1.042 1.042 0 0 0-1.804-.002.17.17 0 0 1-.148.086.17.17 0 0 1-.148-.084 1.04 1.04 0 0 0-.901-.522c-.575 0-1.043.467-1.043 1.042s.468 1.042 1.043 1.042h2.317l.342-.85a.18.18 0 0 1 .16-.108h1.127c.057 0 .109.028.141.076a.17.17 0 0 1 .018.159z"/>
</svg>