<svg id="strib-weather-day-night-showers-lg-color" viewBox="0 0 16 16" width="16" height="16" fill="currentcolor" class="strib-icon strib-weather-day-night-showers-lg-color" xmlns="http://www.w3.org/2000/svg">
  <path fill="var(--weather-cloud-highlight, #afc2c4)" d="M5.781 5.148a2.02 2.02 0 0 0-1.181.729 2.02 2.02 0 0 0-1.385-.757 2.02 2.02 0 0 1 1.439-1.746 2.19 2.19 0 0 1 1.127 1.774"/>
  <path fill="var(--weather-cloud-highlight, #afc2c4)" d="M1.552 6.387a1.64 1.64 0 0 1 1.464-.901 1.65 1.65 0 0 1 1.42.82.19.19 0 0 0 .164.093.19.19 0 0 0 .164-.093c.293-.507.838-.82 1.418-.82s1.125.315 1.421.82a.193.193 0 0 0 .259.068.19.19 0 0 0 .069-.257 2 2 0 0 0-.54-.607l.015.001c0-.04.007-.177.007-.217 0-.617-.254-1.173-.663-1.571l.02-.028a3.24 3.24 0 0 1 2.009-1.523 3.43 3.43 0 0 1 2.038 3.125 1.84 1.84 0 0 1 1.826 1.83c0 .691-.392 1.326-1.01 1.636H3.018a1.644 1.644 0 0 1-1.466-2.376"/>
  <path fill="var(--weather-cloud-shadow, #839396)" d="M7.767 6.399a.187.187 0 0 0 .161-.282 2.02 2.02 0 0 0-2.147-.969 2.19 2.19 0 0 0-1.127-1.774q.27-.08.562-.081c.462 0 .911.16 1.269.452a.19.19 0 0 0 .265-.022c.409.398.663.954.663 1.571 0 .04-.007.177-.007.217l-.015-.001a2 2 0 0 1 .54.607.19.19 0 0 1-.069.257.2.2 0 0 1-.095.025"/>
  <path fill="var(--weather-cloud-shadow, #839396)" d="M8.779 2.172a3.2 3.2 0 0 1 .787-.1 3.246 3.246 0 0 1 3.226 3.227.19.19 0 0 0 .19.189c.905 0 1.64.737 1.64 1.64 0 .904-.737 1.64-1.64 1.64v-.002H3.016a1.64 1.64 0 0 1-1.638-1.643c0 .903.737 1.64 1.64 1.64h8.615a1.83 1.83 0 0 0 1.01-1.636 1.84 1.84 0 0 0-1.826-1.83 3.43 3.43 0 0 0-2.038-3.125"/>
  <path fill="var(--weather-outline, #231f20)" d="M13.166 5.115a3.625 3.625 0 0 0-3.6-3.424 3.63 3.63 0 0 0-3.013 1.63 2.4 2.4 0 0 0-1.337-.411 2.4 2.4 0 0 0-2.379 2.205A2.027 2.027 0 0 0 1 7.126c0 1.112.906 2.018 2.018 2.018h9.964A2.03 2.03 0 0 0 15 7.126c0-1.038-.8-1.915-1.834-2.011m-.184 3.651H3.016c-.906 0-1.64-.737-1.64-1.64s.737-1.64 1.64-1.64a1.65 1.65 0 0 1 1.42.82.19.19 0 0 0 .164.093.19.19 0 0 0 .164-.093c.293-.507.838-.82 1.418-.82s1.125.315 1.421.82a.188.188 0 0 0 .325-.189 2.02 2.02 0 0 0-1.746-1.01c-.62 0-1.203.288-1.582.77a2.02 2.02 0 0 0-1.385-.757 2.017 2.017 0 0 1 2.001-1.827c.462 0 .911.16 1.269.452a.19.19 0 0 0 .285-.05 3.25 3.25 0 0 1 2.796-1.623 3.246 3.246 0 0 1 3.226 3.227.19.19 0 0 0 .19.189c.905 0 1.64.737 1.64 1.64 0 .904-.737 1.64-1.64 1.64zm-1.199 1.38a.19.19 0 0 0-.189.189v1.262a.19.19 0 0 0 .189.189.19.19 0 0 0 .189-.189v-1.262a.19.19 0 0 0-.189-.189m-2.712 2.712a.19.19 0 0 1 .379 0v1.261l.001.014c0 .104-.086.19-.19.19a.19.19 0 0 1-.19-.19zm2.712-.189a.19.19 0 0 0-.189.189v1.261l-.001.019c0 .105.086.19.19.19a.19.19 0 0 0 .19-.19l-.001-.019v-1.261a.19.19 0 0 0-.189-.189m-7.758.189a.19.19 0 0 1 .379 0v1.261l.001.014c0 .104-.086.19-.19.19a.19.19 0 0 1-.19-.19zm.189-2.712a.19.19 0 0 0-.189.189v1.262a.19.19 0 0 0 .379 0v-1.262a.19.19 0 0 0-.19-.189m2.713.189a.19.19 0 0 0-.19-.189.19.19 0 0 0-.189.189v1.262a.19.19 0 0 0 .189.189c.104 0 .19-.086.19-.189zm2.333-.189c.104 0 .19.086.19.189v1.262a.19.19 0 0 1-.19.189.19.19 0 0 1-.189-.189v-1.262a.19.19 0 0 1 .189-.189m-2.712 2.712a.19.19 0 0 1 .379 0v1.261l.001.014c0 .104-.086.19-.19.19a.19.19 0 0 1-.19-.19z"/>
</svg>