<svg id="strib-weather-day-sunny-lg-color" viewBox="0 0 16 16" width="16" height="16" fill="currentcolor" class="strib-icon strib-weather-day-sunny-lg-color" xmlns="http://www.w3.org/2000/svg">
  <path fill="var(--weather-sun-highlight, #fff3c0)" d="M10.248 5.201c.246.51.373 1.07.373 1.637a3.8 3.8 0 0 1-3.78 3.78 3.8 3.8 0 0 1-1.632-.37 3.58 3.58 0 0 1 .25-4.794A3.6 3.6 0 0 1 8 4.403c.847 0 1.63.3 2.248.798"/>
  <path fill="var(--weather-sun-shadow, #ffc783)" d="M5.209 10.248c.51.244 1.067.37 1.632.37a3.8 3.8 0 0 0 3.78-3.78c0-.567-.127-1.127-.373-1.637a3.6 3.6 0 0 1 1.35 2.796 3.616 3.616 0 0 1-3.595 3.596 3.6 3.6 0 0 1-2.794-1.345"/>
  <path fill="var(--weather-sun-shadow, #ffc783)" d="M12.509 12.502a3.8 3.8 0 0 0-1.1-.159 3.87 3.87 0 0 0-3.406 2.026 3.86 3.86 0 0 0-1.923-1.731 3.8 3.8 0 0 0-1.484-.295 3.8 3.8 0 0 0-1.1.159 3.86 3.86 0 0 0-.137-2.584 3.9 3.9 0 0 0-1.731-1.923 3.84 3.84 0 0 0 1.731-1.923c.344-.83.389-1.734.137-2.584.843.25 1.764.204 2.584-.136a3.86 3.86 0 0 0 1.923-1.731 3.85 3.85 0 0 0 1.922 1.731 3.9 3.9 0 0 0 2.584.136 3.86 3.86 0 0 0 .137 2.584 3.9 3.9 0 0 0 1.731 1.923 3.84 3.84 0 0 0-1.731 1.923 3.86 3.86 0 0 0-.137 2.584M5.191 5.186a3.95 3.95 0 0 0-1.163 2.811 4 4 0 0 0 3.975 3.975c2.179-.003 3.971-1.796 3.974-3.975-.003-2.179-1.795-3.971-3.974-3.974a3.97 3.97 0 0 0-2.812 1.163"/>
  <path fill="var(--weather-outline, #231f20)" d="M12.994 5.928a3.53 3.53 0 0 0 1.895 1.893h-.005a.188.188 0 0 1 0 .348 3.48 3.48 0 0 0-1.893 1.893 3.47 3.47 0 0 0-.015 2.642.2.2 0 0 1 .036.108c0 .106-.081.2-.192.189a.2.2 0 0 1-.076-.015 3.5 3.5 0 0 0-1.343-.269c-1.411 0-2.69.857-3.227 2.162a.188.188 0 0 1-.348 0 3.48 3.48 0 0 0-1.893-1.893 3.53 3.53 0 0 0-2.677 0 .189.189 0 0 1-.247-.247 3.48 3.48 0 0 0 0-2.677 3.52 3.52 0 0 0-1.893-1.893.188.188 0 0 1 0-.348 3.48 3.48 0 0 0 1.893-1.893 3.47 3.47 0 0 0 0-2.677.19.19 0 0 1 .247-.247c.857.352 1.82.352 2.677 0a3.48 3.48 0 0 0 1.893-1.893c.06-.141.293-.141.351 0a3.48 3.48 0 0 0 1.892 1.893 3.52 3.52 0 0 0 2.678 0 .19.19 0 0 1 .206.04c.054.054.07.136.041.207a3.47 3.47 0 0 0 0 2.677m-.485 6.574a3.86 3.86 0 0 1 .137-2.584 3.84 3.84 0 0 1 1.731-1.923 3.9 3.9 0 0 1-1.731-1.923 3.86 3.86 0 0 1-.137-2.584 3.9 3.9 0 0 1-2.584-.136 3.85 3.85 0 0 1-1.922-1.731A3.86 3.86 0 0 1 6.08 3.352c-.82.34-1.741.386-2.584.136.252.85.207 1.754-.137 2.584a3.84 3.84 0 0 1-1.731 1.923 3.9 3.9 0 0 1 1.731 1.923c.344.83.389 1.733.137 2.584.357-.107.728-.16 1.1-.159.512 0 1.012.098 1.484.295.83.346 1.501.951 1.923 1.731a3.87 3.87 0 0 1 3.406-2.026q.566 0 1.1.159M5.191 5.186a3.97 3.97 0 0 1 2.812-1.163c2.179.003 3.971 1.795 3.974 3.974-.003 2.179-1.795 3.972-3.974 3.975a4 4 0 0 1-3.975-3.975c0-1.062.411-2.059 1.163-2.811m-.784 2.811a3.617 3.617 0 0 0 3.596 3.596 3.616 3.616 0 0 0 3.595-3.596A3.615 3.615 0 0 0 8 4.403c-.952 0-1.867.378-2.541 1.051a3.57 3.57 0 0 0-1.052 2.543"/>
</svg>