<svg id="strib-weather-night-mostly-cloudy-lg" viewBox="0 0 16 16" width="16" height="16" fill="currentcolor" class="strib-icon strib-weather-night-mostly-cloudy-lg" xmlns="http://www.w3.org/2000/svg">
  <path d="M12.797 8.713c.212.429.344.903.369 1.408v.002A2.02 2.02 0 0 1 15 12.134a2.02 2.02 0 0 1-2.018 2.018H3.018A2.02 2.02 0 0 1 1 12.134c0-1.052.807-1.917 1.837-2.011a2.39 2.39 0 0 1 2.379-2.205c.477 0 .943.147 1.337.411A3.62 3.62 0 0 1 9.285 6.71a4.16 4.16 0 0 0-1.859-4.509.19.19 0 0 1 .093-.351 5.36 5.36 0 0 1 2.841.707c2.185 1.261 3.131 3.84 2.437 6.156m-2.623-5.828a4.9 4.9 0 0 0-2.039-.641v.003a4.53 4.53 0 0 1 1.547 4.455 3.6 3.6 0 0 1 2.845 1.549c.455-2.056-.436-4.259-2.353-5.366M3.016 13.772h9.966l.002.002c.903 0 1.64-.737 1.64-1.64s-.734-1.64-1.64-1.64a.19.19 0 0 1-.189-.189 3.23 3.23 0 0 0-3.227-3.227c-1.148 0-2.22.621-2.795 1.622a.2.2 0 0 1-.132.091.2.2 0 0 1-.154-.04 2.008 2.008 0 0 0-3.269 1.375 2.02 2.02 0 0 1 1.385.757 2.013 2.013 0 0 1 3.328.239.19.19 0 0 1-.068.26.19.19 0 0 1-.26-.07 1.66 1.66 0 0 0-1.421-.82c-.58 0-1.125.312-1.418.82a.19.19 0 0 1-.328 0 1.65 1.65 0 0 0-1.42-.82 1.641 1.641 0 0 0 0 3.28m9.958-10.885h.472v.472a.19.19 0 0 0 .189.189.19.19 0 0 0 .19-.189v-.472h.471a.19.19 0 0 0 .19-.189.19.19 0 0 0-.19-.189h-.471v-.472a.19.19 0 0 0-.19-.189.19.19 0 0 0-.189.189v.472h-.472a.19.19 0 0 0-.189.189.19.19 0 0 0 .189.189m-9.88 1.655c.532.18.717.364.896.896a.19.19 0 0 0 .179.129.19.19 0 0 0 .179-.129c.179-.532.363-.716.896-.896a.19.19 0 0 0 .128-.179c0-.08-.05-.154-.128-.179-.533-.182-.714-.366-.896-.896a.19.19 0 0 0-.179-.128.19.19 0 0 0-.179.128c-.179.53-.366.714-.896.896a.19.19 0 0 0-.129.179.19.19 0 0 0 .129.179m1.075-.711c.131.237.295.401.532.532a1.3 1.3 0 0 0-.532.533 1.3 1.3 0 0 0-.532-.533c.237-.131.401-.295.532-.532"/>
</svg>