<svg id="strib-weather-day-night-cloudy" viewBox="0 0 16 16" width="16" height="16" fill="currentcolor" class="strib-icon strib-weather-day-night-cloudy" xmlns="http://www.w3.org/2000/svg">
  <path d="M15.001 7.75a3.27 3.27 0 0 0-2.599-3.182 4.5 4.5 0 0 0-7.233-2.564 4.5 4.5 0 0 0-1.568 2.564 3.27 3.27 0 0 0-2.6 3.182c0 .805.301 1.58.844 2.175a2.99 2.99 0 0 0-.607 3.253A2.99 2.99 0 0 0 4.001 15h5.5a2.99 2.99 0 0 0 2.469-1.287 2.99 2.99 0 0 0 .336-2.764 3.25 3.25 0 0 0 2.695-3.199M9.501 14h-5.5a1.998 1.998 0 0 1-1.582-3.22 2 2 0 0 1 1.245-.745l.332-.056.073-.328a2.748 2.748 0 0 1 5.365 0l.073.328.331.056a2 2 0 0 1 1.653 2.137A1.99 1.99 0 0 1 9.501 14m2.25-4h-.027a3 3 0 0 0-1.398-.878 3.75 3.75 0 0 0-3.575-2.623 3.745 3.745 0 0 0-3.575 2.623 3 3 0 0 0-.516.203 2.22 2.22 0 0 1-.659-1.575 2.256 2.256 0 0 1 2.072-2.241l.408-.032.049-.406a3.5 3.5 0 0 1 5.788-2.192 3.5 3.5 0 0 1 1.154 2.192l.05.406.407.032A2.25 2.25 0 0 1 11.751 10"/>
</svg>