<svg id="strib-weather-day-partly-sunny-lg" viewBox="0 0 16 16" width="16" height="16" fill="currentcolor" class="strib-icon strib-weather-day-partly-sunny-lg" xmlns="http://www.w3.org/2000/svg">
  <path d="M13.497 9.211c.365-.457.84-.815 1.387-1.042a.188.188 0 0 0 0-.348 3.53 3.53 0 0 1-1.894-1.892 3.46 3.46 0 0 1 0-2.676.19.19 0 0 0-.041-.207.19.19 0 0 0-.207-.041 3.46 3.46 0 0 1-2.676 0 3.48 3.48 0 0 1-1.892-1.891c-.058-.142-.29-.142-.351 0a3.48 3.48 0 0 1-1.891 1.891 3.46 3.46 0 0 1-2.677 0 .19.19 0 0 0-.207.041.19.19 0 0 0-.04.207 3.47 3.47 0 0 1 0 2.676 3.47 3.47 0 0 1-1.892 1.892.188.188 0 0 0 0 .348 3.5 3.5 0 0 1 1.387 1.042A2.02 2.02 0 0 0 1 11.161c0 1.112.906 2.018 2.018 2.018h3.305a3.5 3.5 0 0 1 1.5 1.697.19.19 0 0 0 .174.116.19.19 0 0 0 .175-.116c.3-.724.819-1.309 1.5-1.697h3.305a2.02 2.02 0 0 0 2.018-2.018 2.02 2.02 0 0 0-1.503-1.95zM1.628 7.995a3.84 3.84 0 0 0 1.731-1.922c.343-.83.388-1.733.136-2.583.85.252 1.753.207 2.583-.136A3.84 3.84 0 0 0 8 1.623a3.85 3.85 0 0 0 1.922 1.731c.83.343 1.733.388 2.583.136a3.86 3.86 0 0 0 .136 2.583 3.9 3.9 0 0 0 1.733 1.922 3.9 3.9 0 0 0-1.218 1.049 3.6 3.6 0 0 0-1.526-2.658A3.97 3.97 0 0 0 8 4.025a3.96 3.96 0 0 0-3.89 3.198 2.39 2.39 0 0 0-1.261 1.829 3.85 3.85 0 0 0-1.221-1.055zm9.381-1.963a3.6 3.6 0 0 0-1.443-.305 3.62 3.62 0 0 0-3.011 1.63 2.4 2.4 0 0 0-2.016-.313 3.59 3.59 0 0 1 6.473-1.014zM8 14.367a3.9 3.9 0 0 0-1.001-1.186h2.002A3.8 3.8 0 0 0 8 14.367m4.982-1.564H3.018c-.906 0-1.64-.737-1.64-1.64s.737-1.639 1.64-1.639c.583 0 1.125.315 1.42.819a.19.19 0 0 0 .328 0 1.64 1.64 0 0 1 1.418-.819c.58 0 1.125.315 1.42.819a.19.19 0 0 0 .164.094.188.188 0 0 0 .164-.283 2.02 2.02 0 0 0-1.746-1.009c-.618 0-1.203.288-1.581.77a2.02 2.02 0 0 0-1.385-.757 2.009 2.009 0 0 1 3.269-1.375.2.2 0 0 0 .154.04.2.2 0 0 0 .131-.09 3.23 3.23 0 0 1 2.795-1.622 3.23 3.23 0 0 1 3.226 3.226c0 .103.086.189.19.189.905 0 1.639.737 1.639 1.64s-.736 1.639-1.639 1.639z"/>
</svg>