<svg id="strib-weather-night" viewBox="0 0 16 16" width="16" height="16" fill="currentcolor" class="strib-icon strib-weather-night" xmlns="http://www.w3.org/2000/svg">
  <path d="M7.166 2.027a6.025 6.025 0 0 0-4.214 9.319 6.03 6.03 0 0 0 8.598 1.498 6 6 0 0 0 1.488-1.591 5.88 5.88 0 0 1-6.069-2.62 5.88 5.88 0 0 1 .197-6.606m.871-.986h.21a.468.468 0 0 1 .319.813A4.94 4.94 0 0 0 7.76 8.13a4.946 4.946 0 0 0 6.027 1.928.468.468 0 0 1 .609.615 6.97 6.97 0 0 1-5.754 4.259A6.97 6.97 0 0 1 1.008 8.34a6.965 6.965 0 0 1 6.955-7.305q.038 0 .074.006m4.007.905a.472.472 0 0 0-.945 0 .79.79 0 0 1-.787.788.472.472 0 1 0 0 .945.8.8 0 0 1 .557.23.8.8 0 0 1 .23.557.472.472 0 0 0 .945 0 .787.787 0 0 1 .787-.787.473.473 0 0 0 0-.945.785.785 0 0 1-.787-.788m1.693 3.353c.19 0 .344.154.344.345a.575.575 0 0 0 .575.574.344.344 0 1 1 0 .689.575.575 0 0 0-.575.574.344.344 0 1 1-.689 0 .574.574 0 0 0-.574-.574.344.344 0 0 1 0-.689.574.574 0 0 0 .574-.574c0-.191.155-.345.345-.345"/>
</svg>