<svg id="strib-weather-day-partly-sunny-showers" viewBox="0 0 16 16" width="16" height="16" fill="currentcolor" class="strib-icon strib-weather-day-partly-sunny-showers" xmlns="http://www.w3.org/2000/svg">
  <path d="M8.034 3.606a3.26 3.26 0 0 0-3.392 1.702 2.44 2.44 0 0 0-2.499.65 2.451 2.451 0 0 0 1.9 4.137l3.491.005h.001a3.27 3.27 0 0 0 3.255-3.016 3.27 3.27 0 0 0-2.756-3.478m-.072.461a2.796 2.796 0 0 1 2.362 2.981 2.796 2.796 0 0 1-2.789 2.585l-3.504-.004h-.012a1.983 1.983 0 0 1-1.539-3.35 1.99 1.99 0 0 1 1.974-.54 4 4 0 0 0-.101.344c-.064.29.379.406.454.108a2.797 2.797 0 0 1 3.155-2.125z"/>
  <path d="M10.53 2.865a2.1 2.1 0 0 0-1.793 1.068.3.3 0 0 0-.032.088.24.24 0 0 0 .117.236.23.23 0 0 0 .181.021.23.23 0 0 0 .14-.116 1.63 1.63 0 0 1 1.961-.74 1.63 1.63 0 0 1 1.075 1.799A1.63 1.63 0 0 1 10.6 6.597a.3.3 0 0 0-.09.019.3.3 0 0 0-.075.052.3.3 0 0 0-.05.077.23.23 0 0 0 .056.255.23.23 0 0 0 .168.064 2.101 2.101 0 0 0-.079-4.199M10.562 1a.233.233 0 0 0-.23.236v.694q0 .046.017.09a.235.235 0 0 0 .307.128.2.2 0 0 0 .076-.051.23.23 0 0 0 .067-.167v-.694a.2.2 0 0 0-.017-.091.24.24 0 0 0-.22-.145m3.041 3.733a.3.3 0 0 0-.091.017.3.3 0 0 0-.077.05.235.235 0 0 0 .077.383.2.2 0 0 0 .091.017h.693a.2.2 0 0 0 .091-.017.23.23 0 0 0 .128-.126.233.233 0 0 0-.219-.324zM7.999 2.167a.23.23 0 0 0-.129.04.234.234 0 0 0-.033.36l.462.462a.234.234 0 1 0 .33-.33l-.462-.462a.24.24 0 0 0-.168-.07m5.126 0a.23.23 0 0 0-.159.07l-.463.462a.23.23 0 0 0-.054.256.24.24 0 0 0 .128.128.2.2 0 0 0 .091.017.23.23 0 0 0 .165-.071l.462-.462a.23.23 0 0 0 .066-.121.233.233 0 0 0-.236-.279m-.459 4.664a.24.24 0 0 0-.217.146.24.24 0 0 0-.012.135q.016.07.066.12l.463.462a.23.23 0 0 0 .165.071.235.235 0 0 0 .219-.145.23.23 0 0 0-.055-.256l-.462-.462a.2.2 0 0 0-.076-.053.2.2 0 0 0-.091-.018M11.143 11.5a.24.24 0 0 0-.161.07l-.694.695a.3.3 0 0 0-.053.076.24.24 0 0 0 .05.257q.034.034.076.051a.24.24 0 0 0 .181-.001.2.2 0 0 0 .076-.053l.695-.695a.23.23 0 0 0 .052-.258.24.24 0 0 0-.089-.105.23.23 0 0 0-.133-.037m-2.917 0a.23.23 0 0 0-.16.07l-.695.695a.3.3 0 0 0-.052.076.2.2 0 0 0-.019.09.23.23 0 0 0 .145.218.23.23 0 0 0 .256-.054l.695-.695a.23.23 0 0 0 .052-.258.23.23 0 0 0-.089-.105.23.23 0 0 0-.133-.037m-2.916 0a.24.24 0 0 0-.161.07l-.694.695a.3.3 0 0 0-.053.076.24.24 0 0 0 .05.257q.034.034.076.051a.24.24 0 0 0 .181-.001.2.2 0 0 0 .076-.053l.695-.695a.23.23 0 0 0 .052-.258.24.24 0 0 0-.089-.105.23.23 0 0 0-.133-.037m-2.917 0a.23.23 0 0 0-.16.07l-.695.695a.3.3 0 0 0-.052.076.2.2 0 0 0-.019.09.23.23 0 0 0 .145.218.23.23 0 0 0 .256-.054l.695-.695a.23.23 0 0 0 .052-.258.23.23 0 0 0-.222-.142m6.766 2.333a.24.24 0 0 0-.16.07l-.695.696a.23.23 0 0 0-.071.165q0 .047.017.091a.24.24 0 0 0 .128.128.24.24 0 0 0 .256-.054l.696-.696a.24.24 0 0 0 .051-.258.23.23 0 0 0-.089-.105.23.23 0 0 0-.133-.037m-2.916 0a.24.24 0 0 0-.161.07l-.694.696a.23.23 0 0 0-.072.165.24.24 0 0 0 .145.219q.044.017.091.017a.23.23 0 0 0 .166-.071l.695-.696a.23.23 0 0 0 .052-.258.23.23 0 0 0-.222-.142m-2.917 0a.24.24 0 0 0-.16.07l-.695.696a.23.23 0 0 0-.071.165q0 .047.017.091a.24.24 0 0 0 .128.128.24.24 0 0 0 .256-.054l.696-.696a.24.24 0 0 0 .051-.258.23.23 0 0 0-.089-.105.23.23 0 0 0-.133-.037"/>
</svg>