<svg id="strib-weather-day-night-flurries-lg" viewBox="0 0 16 16" width="16" height="16" fill="currentcolor" class="strib-icon strib-weather-day-night-flurries-lg" xmlns="http://www.w3.org/2000/svg">
  <path d="m10.229 13.017-.442-.262.341-.202a.19.19 0 0 0 .094-.164.19.19 0 0 0-.286-.164l-.519.305-1.042-.618 1.042-.618.519.308a.2.2 0 0 0 .096.025h.001a.19.19 0 0 0 .098-.353l-.341-.202.441-.263a.19.19 0 0 0 .066-.26.19.19 0 0 0-.26-.065l-.431.255v-.396l.001-.014a.19.19 0 0 0-.19-.19.19.19 0 0 0-.19.19v.634l-1.037.613v-1.233l.523-.311a.19.19 0 0 0 .065-.26.19.19 0 0 0-.26-.065l-.328.194v-.517a.19.19 0 0 0-.189-.189.19.19 0 0 0-.189.189v.517l-.328-.194a.19.19 0 0 0-.26.065.19.19 0 0 0 .066.26l.522.311v1.233l-1.037-.613v-.62a.19.19 0 0 0-.189-.19.19.19 0 0 0-.189.19v.396l-.432-.255a.19.19 0 0 0-.26.065.19.19 0 0 0 .066.26l.441.263-.34.202a.186.186 0 0 0-.066.259.19.19 0 0 0 .26.069l.52-.308 1.042.615-1.042.618-.52-.307a.19.19 0 0 0-.286.164c0 .067.036.13.094.164l.341.202-.442.262a.19.19 0 0 0 .098.353h.001a.2.2 0 0 0 .096-.025l.431-.255v.396c0 .104.083.189.189.189a.19.19 0 0 0 .19-.189v-.62l1.036-.614v1.237l-.522.31a.19.19 0 0 0-.065.26c.035.06.098.093.164.093a.16.16 0 0 0 .095-.028l.328-.196v.514c0 .104.086.19.19.19a.19.19 0 0 0 .189-.19v-.514l.328.196a.2.2 0 0 0 .096.028.2.2 0 0 0 .164-.093.19.19 0 0 0-.066-.26l-.522-.31V12.25l1.037.613v.621a.19.19 0 0 0 .189.189.19.19 0 0 0 .189-.189v-.396l.432.254a.191.191 0 0 0 .194-.328zm-5.75-1.799-.406-.235a.7.7 0 0 0 0-.363l.404-.232a.19.19 0 0 0 .068-.257.187.187 0 0 0-.258-.068l-.406.234a.66.66 0 0 0-.313-.181v-.467a.19.19 0 0 0-.189-.189.19.19 0 0 0-.189.189v.469a.7.7 0 0 0-.31.179l-.407-.234a.19.19 0 0 0-.285.161c0 .068.037.131.096.164l.409.235a.7.7 0 0 0 0 .358l-.406.235a.187.187 0 0 0-.068.257c.035.06.098.096.164.096a.2.2 0 0 0 .093-.025l.406-.235a.7.7 0 0 0 .31.182v.466c0 .104.086.19.19.19a.19.19 0 0 0 .189-.19v-.464a.74.74 0 0 0 .315-.182l.404.233a.2.2 0 0 0 .093.025h.002a.188.188 0 0 0 .094-.351m-1.261-.121a.34.34 0 0 1-.169-.293.34.34 0 0 1 .338-.338.336.336 0 0 1 .287.505.345.345 0 0 1-.459.123zm10.498.121-.406-.235a.7.7 0 0 0 0-.363l.403-.232a.187.187 0 0 0 .068-.257.187.187 0 0 0-.257-.068l-.406.234a.66.66 0 0 0-.313-.181v-.467a.19.19 0 0 0-.189-.189.19.19 0 0 0-.189.189v.469a.7.7 0 0 0-.311.179l-.406-.234a.19.19 0 0 0-.28.164c0 .066.035.127.091.161l.409.235a.7.7 0 0 0 0 .358l-.407.235a.19.19 0 0 0-.068.257c.036.06.099.096.164.096a.2.2 0 0 0 .094-.025l.406-.235a.7.7 0 0 0 .31.182v.466c0 .104.086.19.189.19s.19-.086.19-.19v-.464a.74.74 0 0 0 .315-.182l.404.233a.2.2 0 0 0 .093.025h.002a.188.188 0 0 0 .094-.351m-1.262-.121a.34.34 0 0 1 .336-.585.336.336 0 0 1 .121.459.345.345 0 0 1-.459.123zM2.987 5.165a.19.19 0 0 1-.158-.186.19.19 0 0 1 .189-.189q.099 0 .198.01a2 2 0 0 0-.008.176.19.19 0 0 1-.19.189zm.229-.365a2.03 2.03 0 0 1 1.387.759 2.03 2.03 0 0 1 1.582-.769c.716 0 1.385.386 1.746 1.009a.187.187 0 0 1-.161.282h-.001a.19.19 0 0 1-.164-.093 1.64 1.64 0 0 0-1.42-.82c-.583 0-1.126.315-1.418.82a.19.19 0 0 1-.164.093.19.19 0 0 1-.164-.093 1.65 1.65 0 0 0-1.421-.82l-.031-.003h.031a.19.19 0 0 0 .19-.189q0-.089.008-.176m9.768 4.026H3.018A2.03 2.03 0 0 1 1 6.808c0-.752.414-1.408 1.024-1.756l.278.278c-.562.275-.92.848-.92 1.474a1.65 1.65 0 0 0 1.636 1.641h9.964c.905 0 1.64-.736 1.64-1.64s-.737-1.64-1.64-1.64a.19.19 0 0 1-.19-.189 3.246 3.246 0 0 0-3.226-3.227A3.23 3.23 0 0 0 6.77 3.372a.2.2 0 0 1-.131.09.2.2 0 0 1-.154-.04 2 2 0 0 0-1.272-.454l.003.002a2.02 2.02 0 0 0-2 1.83 2 2 0 0 0-.198-.01.19.19 0 0 0-.189.189.19.19 0 0 0 .158.186c-.238.003-.472.06-.685.165l-.278-.278c.244-.139.52-.228.813-.255a2.4 2.4 0 0 1 2.379-2.205c.477 0 .946.144 1.337.411a3.63 3.63 0 0 1 3.013-1.63 3.625 3.625 0 0 1 3.6 3.424A2.03 2.03 0 0 1 15 6.808a2.03 2.03 0 0 1-2.016 2.018"/>
</svg>