<svg id="strib-weather-night-partly-cloudy-lg-color" viewBox="0 0 16 16" width="16" height="16" fill="currentcolor" class="strib-icon strib-weather-night-partly-cloudy-lg-color" xmlns="http://www.w3.org/2000/svg" clip-rule="evenodd" fill-rule="evenodd">
  <path fill="var(--weather-moon-highlight, #d3eaea)" d="M5.25 11.353a5.2 5.2 0 0 1-2.647-.301 5 5 0 0 1-.925-.998h.003c.51.189 1.05.286 1.593.286A4.62 4.62 0 0 0 7.27 8.035a4.59 4.59 0 0 0-1.046-5.852 5 5 0 0 1 2.39.856 5.2 5.2 0 0 1-.208 6.599 1.82 1.82 0 0 0-2.521 1.492 1.6 1.6 0 0 0-.635.223M1.678 4.325c.24-.133.406-.298.538-.538.133.24.298.405.538.538-.24.132-.405.298-.538.538a1.3 1.3 0 0 0-.538-.538"/>
  <path fill="var(--weather-cloud-highlight, #afc2c4)" d="M12.538 13.832H6.066a1.166 1.166 0 0 1 0-2.33.19.19 0 0 0 .191-.191c0-.666.456-1.229 1.074-1.39.471.285.784.801.785 1.39v.002q-.002.044-.008.087l1.209.072.005-.161c0-.44-.175-.839-.458-1.132a.2.2 0 0 0 .025-.033c.33-.571.883-.973 1.512-1.117a2.53 2.53 0 0 1 1.44 2.282 1.356 1.356 0 0 1 .697 2.521"/>
  <path fill="var(--weather-cloud-shadow, #839396)" d="M8.116 11.313v-.002a1.63 1.63 0 0 0-.785-1.39q.174-.045.362-.046v-.002c.336 0 .65.112.91.324a.2.2 0 0 0 .155.04.2.2 0 0 0 .106-.058c.283.293.458.692.458 1.132l-.005.161-1.209-.072q.006-.043.008-.087m2.285-2.284q.252-.059.517-.059a2.345 2.345 0 0 1 2.341 2.341c0 .104.086.191.191.191a1.166 1.166 0 0 1 0 2.33h-.912a1.357 1.357 0 0 0-.697-2.521 2.53 2.53 0 0 0-1.44-2.282"/>
  <path fill="var(--weather-moon-shadow, #afc2c4)" d="M4.643 12.058a5 5 0 0 1-2.04-1.005 5.2 5.2 0 0 0 2.647.3 1.56 1.56 0 0 0-.607.705m3.763-2.42q.331-.377.592-.828a5.2 5.2 0 0 0-.384-5.771 5.02 5.02 0 0 1 1.967 5.572 2.73 2.73 0 0 0-1.909 1.168 2 2 0 0 0-.266-.141"/>
  <path fill="var(--weather-outline, #231f20)" d="M12.45 2.833h-1.333a.19.19 0 0 1-.191-.191c0-.104.086-.191.191-.191h1.333c.105 0 .192.087.192.191a.19.19 0 0 1-.192.191m-.668.666a.193.193 0 0 1-.191-.191V1.974c0-.104.087-.191.191-.191s.192.087.192.191v1.334a.193.193 0 0 1-.192.191m-6.81 3.613H3.639a.19.19 0 0 1-.191-.192c0-.104.086-.191.191-.191h1.333c.105 0 .191.087.191.191a.19.19 0 0 1-.191.192m-.665.668a.19.19 0 0 1-.191-.192V6.255c0-.105.086-.191.191-.191.104 0 .191.086.191.191v1.333a.193.193 0 0 1-.191.192M2.216 5.541a.19.19 0 0 1-.181-.13c-.181-.538-.367-.724-.905-.905A.19.19 0 0 1 1 4.325c0-.082.051-.156.13-.181.538-.184.724-.37.905-.905.026-.077.1-.13.181-.13.082 0 .156.051.181.13.181.535.367.721.905.905a.19.19 0 0 1 0 .362c-.535.181-.721.367-.905.905a.19.19 0 0 1-.181.13m-.538-1.216c.24.132.406.298.538.538.133-.24.298-.406.538-.538a1.3 1.3 0 0 1-.538-.538c-.132.24-.298.405-.538.538m4.59 6.809c.376.05.722.239.968.526a1.55 1.55 0 0 1 1.563-.489 5 5 0 0 1-.508.337c-.27.028-.52.15-.708.34a5 5 0 0 1-.549.178 1.18 1.18 0 0 0-.968-.524.19.19 0 0 0 .191-.191q0-.09.011-.177m1.315.714q-.104.106-.181.238a.19.19 0 0 1-.166.094.19.19 0 0 1-.165-.094l-.037-.06a5 5 0 0 0 .549-.178m1.279-.254a1.16 1.16 0 0 0-.571-.086 5 5 0 0 0 .508-.337q.213.056.401.167a5 5 0 0 1-.338.256m-2.799-.092a.193.193 0 0 1-.191-.191c0-.105.087-.191.191-.191q.103 0 .205.014a2 2 0 0 0-.011.177.19.19 0 0 1-.191.191zm3.137-.164c.223.133.414.322.548.554a.19.19 0 0 1-.069.26.2.2 0 0 1-.097.026l.002.002a.19.19 0 0 1-.165-.094 1.2 1.2 0 0 0-.557-.492 5 5 0 0 0 .338-.256m1.239-2.318a2.36 2.36 0 0 0-1.55 1.126.2.2 0 0 1-.131.091.2.2 0 0 1-.155-.04 1.42 1.42 0 0 0-.91-.324v.002c-.733 0-1.338.551-1.425 1.259a2 2 0 0 0-.205-.014.19.19 0 0 0-.191.191c0 .104.087.191.191.191a1.17 1.17 0 0 0-1.032.63 5 5 0 0 1-.388-.074 1.56 1.56 0 0 1 1.242-.928 1.82 1.82 0 0 1 2.787-1.351 2.73 2.73 0 0 1 1.909-1.168 5 5 0 0 1-.142.409m-5.902 3.405q.03-.192.106-.367.193.045.388.074a1.2 1.2 0 0 0-.118.368 5 5 0 0 1-.376-.075m6.044-3.814a3 3 0 0 1 .399-.02 6 6 0 0 1-.119.38q-.215.005-.422.049.08-.202.142-.409m.399-.02a2.727 2.727 0 0 1 2.658 2.541 1.548 1.548 0 0 1-.186 3.085l-.002-.002H6.066a1.55 1.55 0 0 1-1.529-1.79q.186.045.376.075-.012.082-.012.167c0 .643.523 1.165 1.165 1.165h7.384a1.166 1.166 0 0 0 0-2.33.19.19 0 0 1-.191-.191 2.345 2.345 0 0 0-2.341-2.341l-.057.001q.066-.19.119-.38m-6.443 3.834a5.4 5.4 0 0 1-3.514-2.71.19.19 0 0 1 .033-.225.19.19 0 0 1 .224-.033c.612.327 1.301.5 1.992.5a4.24 4.24 0 0 0 3.664-2.114A4.21 4.21 0 0 0 5.505 2.14a.19.19 0 0 1-.084-.212.2.2 0 0 1 .178-.143 5.4 5.4 0 0 1 2.871.714 5.41 5.41 0 0 1 2.51 6.092l-.059-.001q-.172 0-.34.021a5.02 5.02 0 0 0-2.297-5.78 5 5 0 0 0-2.06-.648A4.59 4.59 0 0 1 7.27 8.035a4.62 4.62 0 0 1-3.996 2.305 4.6 4.6 0 0 1-1.593-.286h-.003a5.02 5.02 0 0 0 2.965 2.004q-.075.175-.106.367"/>
</svg>