<svg id="strib-weather-night-wintry-mix-lg-color" viewBox="0 0 16 16" width="16" height="16" fill="currentcolor" class="strib-icon strib-weather-night-wintry-mix-lg-color" xmlns="http://www.w3.org/2000/svg">
  <path fill="var(--weather-moon-highlight, #d3eaea)" d="M3.048 2.718c.114.205.256.347.461.46a1.13 1.13 0 0 0-.461.461 1.1 1.1 0 0 0-.46-.461c.205-.113.347-.255.46-.46m5.48-.639a4.484 4.484 0 0 1-.178 5.649 1.6 1.6 0 0 0-.611-.125c-.796 0-1.471.609-1.552 1.401a1.3 1.3 0 0 0-.547.195 4.4 4.4 0 0 1-2.252-.254 4.3 4.3 0 0 1-.8-.862 3.94 3.94 0 0 0 4.784-1.731 3.94 3.94 0 0 0-.894-5.009 4.3 4.3 0 0 1 2.05.736"/>
  <path fill="var(--weather-moon-shadow, #afc2c4)" d="M8.35 7.728a4.48 4.48 0 0 0 .178-5.649 4.32 4.32 0 0 1 1.675 4.766 2.33 2.33 0 0 0-1.63 1 2 2 0 0 0-.223-.117m-5.349.86q.182.19.387.357a4.44 4.44 0 0 0 2.252.254c-.221.14-.4.345-.507.593a4.3 4.3 0 0 1-1.181-.458H3.95a4.2 4.2 0 0 1-.949-.746"/>
  <path fill="var(--weather-cloud-shadow, #839396)" d="M8.092 9.019a1.4 1.4 0 0 0-.664-1.048q.148-.037.309-.039V7.93c.284-.003.561.096.779.278a.17.17 0 0 0 .134.035.2.2 0 0 0 .053-.021.2.2 0 0 0 .037-.028c.242.251.392.592.392.968l-.003.084a1.33 1.33 0 0 0-1.037-.227m3.798 2.299c.347-.211.56-.588.56-.994 0-.637-.524-1.162-1.161-1.162 0-.862-.503-1.605-1.231-1.954q.141-.033.287-.044h.007q.075-.007.151-.009a2.017 2.017 0 0 1 2.003 2.004c.001.09.074.163.164.164.527.029.944.47.944.997 0 .528-.417.969-.944.998z"/>
  <path fill="var(--weather-cloud-highlight, #afc2c4)" d="M8.703 8.222a.2.2 0 0 1-.053.021.17.17 0 0 1-.134-.035 1.2 1.2 0 0 0-.779-.278v.002q-.16.002-.309.039c.372.227.618.615.664 1.048a1.33 1.33 0 0 0-.744.437 1.33 1.33 0 0 0-.829-.45A1.235 1.235 0 0 1 7.74 7.927c.283 0 .558.099.778.278a.17.17 0 0 0 .105.038.16.16 0 0 0 .08-.021"/>
  <path fill="var(--weather-cloud-highlight, #afc2c4)" d="m9.129 9.246.003-.084c0-.376-.15-.717-.392-.968a.1.1 0 0 0 .025-.032 2 2 0 0 1 1.293-.954 2.17 2.17 0 0 1 1.231 1.954c.637 0 1.161.525 1.161 1.162 0 .406-.213.783-.56.994H6.342a1 1 0 0 1-.966-.998c0-.535.431-.98.966-.997a1 1 0 0 1 .862.5.16.16 0 0 0 .142.08.16.16 0 0 0 .142-.083c.178-.307.507-.498.862-.499.356.002.685.192.865.499a.165.165 0 0 0 .306-.082.16.16 0 0 0-.023-.083 1.3 1.3 0 0 0-.369-.409"/>
  <path fill="var(--weather-outline, #231f20)" d="M11.077 1.899h-.409a.166.166 0 0 1-.163-.163c0-.09.074-.164.163-.164h.409v-.408c0-.09.074-.164.163-.164s.164.074.164.164v.408h.408c.09 0 .164.074.164.164a.167.167 0 0 1-.164.163h-.408v.408c0 .09-.074.164-.164.164a.167.167 0 0 1-.163-.164zM4.675 5.564h-.409a.167.167 0 0 1-.163-.164c0-.089.074-.163.163-.163h.409v-.409c0-.089.074-.163.163-.163s.164.074.164.163v.409h.408c.09 0 .164.074.164.163a.165.165 0 0 1-.164.164h-.408v.408c0 .09-.074.164-.164.164a.167.167 0 0 1-.163-.164zM2.119 3.333c.46.155.617.315.774.775a.17.17 0 0 0 .155.112c.07 0 .134-.044.155-.112.155-.46.315-.62.775-.775a.164.164 0 0 0 0-.31c-.46-.157-.617-.316-.775-.774a.164.164 0 0 0-.31 0c-.155.458-.314.617-.774.774a.17.17 0 0 0-.112.155c0 .07.046.134.112.155m.929-.615c.114.205.256.347.461.46a1.13 1.13 0 0 0-.461.461 1.1 1.1 0 0 0-.46-.461c.205-.113.347-.255.46-.46m7.5 4.112c1.2.027 2.193.976 2.275 2.174h.004a1.33 1.33 0 0 1 1.156 1.315c0 .723-.592 1.32-1.315 1.326H6.347a1.33 1.33 0 0 1-1.306-1.539c-.439-.1-.86-.264-1.25-.489a4.6 4.6 0 0 1-1.762-1.824.16.16 0 0 1 .029-.192.16.16 0 0 1 .192-.029 3.62 3.62 0 0 0 4.841-1.381 3.623 3.623 0 0 0-1.225-4.883.17.17 0 0 1-.072-.181c.02-.07.081-.12.153-.123.86-.03 1.712.182 2.458.612a4.645 4.645 0 0 1 2.143 5.214m-7.96 1.253c.358.513.821.939 1.362 1.251h.002c.365.209.762.362 1.181.458a1.32 1.32 0 0 1 1.054-.788 1.566 1.566 0 0 1 1.552-1.401c.295 0 .584.084.834.242a2.33 2.33 0 0 1 1.63-1 4.32 4.32 0 0 0-1.962-4.948 4.3 4.3 0 0 0-1.763-.554 3.94 3.94 0 0 1 .894 5.009 3.94 3.94 0 0 1-4.784 1.731m3.754 3.235h6.328c.527-.029.944-.47.944-.998 0-.527-.417-.968-.944-.997a.166.166 0 0 1-.164-.164 2.017 2.017 0 0 0-2.003-2.004 2 2 0 0 0-.151.009h-.007a2.01 2.01 0 0 0-1.58.998.17.17 0 0 1-.142.081.17.17 0 0 1-.105-.038 1.24 1.24 0 0 0-.778-.278c-.618 0-1.145.466-1.221 1.079.321.044.618.203.829.45.249-.29.616-.463 1.005-.463.469 0 .908.253 1.145.662a.162.162 0 0 1-.14.246h-.001a.16.16 0 0 1-.142-.081 1.01 1.01 0 0 0-.865-.499 1 1 0 0 0-.862.499.16.16 0 0 1-.142.083.16.16 0 0 1-.142-.08 1 1 0 0 0-.862-.5 1 1 0 0 0-.966.997c0 .536.431.981.966.998m1.316 1.274h-.174l-.048-.085.087-.15a.163.163 0 0 0-.059-.223.17.17 0 0 0-.225.059l-.087.153-.063-.001-.031.001-.089-.155a.16.16 0 0 0-.225-.059.16.16 0 0 0-.059.223l.087.15-.012.016-.016.023-.014.031-.003.006-.003.007H6.55a.166.166 0 0 0-.164.164c0 .089.074.164.164.164h.172a.4.4 0 0 0 .048.087l-.085.148a.165.165 0 0 0 .143.244.17.17 0 0 0 .141-.08l.087-.151.022.003.026.004.034-.004.014-.003.087.151a.17.17 0 0 0 .142.083.167.167 0 0 0 .142-.247l-.087-.153.012-.015.016-.022.014-.03.006-.015h.174c.09 0 .164-.075.164-.164a.166.166 0 0 0-.164-.164zm-.478.21a.09.09 0 0 1-.122.033.08.08 0 0 1-.041-.055.1.1 0 0 1 .008-.065.1.1 0 0 1 .079-.046q.024 0 .044.011a.09.09 0 0 1 .032.12zm3.504-.21h.174v-.006c.09 0 .164.074.164.164a.167.167 0 0 1-.164.163h-.174l-.006.016a.1.1 0 0 1-.014.03l-.016.021-.012.016.087.153a.17.17 0 0 1-.061.225.14.14 0 0 1-.081.022.17.17 0 0 1-.142-.083l-.087-.151-.004.001-.011.002-.033.004-.026-.004-.022-.003-.087.151a.16.16 0 0 1-.225.061.166.166 0 0 1-.059-.225l.085-.148a.4.4 0 0 1-.048-.085h-.173a.167.167 0 0 1-.163-.164c0-.09.074-.164.163-.164h.175l.006-.013.014-.031a.2.2 0 0 1 .028-.039l-.087-.15a.165.165 0 0 1 .143-.244c.058 0 .111.031.141.08l.089.155h.017l.014-.001q.031-.001.063.001l.087-.153a.165.165 0 0 1 .223-.059.16.16 0 0 1 .061.223l-.087.15q.026.042.048.085m-.426.243a.09.09 0 0 0 .122-.033l-.002.002a.09.09 0 0 0-.072-.142.09.09 0 0 0-.081.053.1.1 0 0 0-.008.067.1.1 0 0 0 .041.053m1.648.484c.09 0 .164-.072.164-.163v-.801a.166.166 0 0 0-.164-.164.166.166 0 0 0-.164.164v.801c0 .089.075.163.164.163m-1.766.638c0-.09.074-.164.164-.164.092 0 .164.074.164.164v.804a.16.16 0 0 1-.16.16h-.005a.164.164 0 0 1-.163-.163zm-3.036-.164a.166.166 0 0 0-.164.164v.801c0 .089.072.163.164.163h.004a.16.16 0 0 0 .16-.16v-.805a.164.164 0 0 0-.163-.163zm1.98.399h.174l.003-.004c.089 0 .163.074.163.164a.167.167 0 0 1-.163.164h-.175l-.003.007-.003.008a.2.2 0 0 1-.029.052l-.013.015.087.153a.164.164 0 0 1-.142.245.17.17 0 0 1-.141-.083l-.088-.151-.014.003a.1.1 0 0 1-.034.004l-.025-.004-.023-.003-.087.151a.16.16 0 0 1-.142.083.2.2 0 0 1-.083-.022.167.167 0 0 1-.059-.225l.085-.148a.5.5 0 0 1-.048-.085h-.172a.166.166 0 0 1-.164-.164c0-.09.074-.164.164-.164h.172l.006-.013.014-.031a.2.2 0 0 1 .028-.041l-.087-.151a.16.16 0 0 1 .059-.222.167.167 0 0 1 .225.061l.089.155.031-.001q.031-.001.063.001l.087-.153a.165.165 0 0 1 .223-.059.16.16 0 0 1 .061.223l-.087.15q.025.042.048.085m-.426.243a.09.09 0 0 0 .122-.033h-.002a.09.09 0 0 0-.033-.12.09.09 0 0 0-.12.033.1.1 0 0 0-.008.067.1.1 0 0 0 .041.053m3.802-.243h-.174a.5.5 0 0 0-.048-.083l.087-.15a.163.163 0 0 0-.059-.223.17.17 0 0 0-.225.059l-.087.153-.063-.001-.031.001-.089-.155a.16.16 0 0 0-.225-.059.16.16 0 0 0-.059.223l.087.15-.006.009-.006.007-.016.024-.02.043h-.174a.166.166 0 0 0-.164.164c0 .089.074.164.164.164h.172a.4.4 0 0 0 .048.087l-.085.148a.16.16 0 0 0-.023.083c0 .09.074.164.164.164h.001a.16.16 0 0 0 .142-.083l.087-.151q.011 0 .022.004l.026.003a.2.2 0 0 0 .048-.007l.087.151a.17.17 0 0 0 .142.083.167.167 0 0 0 .142-.247l-.087-.152.012-.016.016-.022a.1.1 0 0 0 .014-.03l.006-.015h.174c.09 0 .164-.075.164-.164a.166.166 0 0 0-.164-.164zm-.478.21a.09.09 0 0 1-.12.033.087.087 0 0 1-.032-.12.09.09 0 0 1 .12-.033.09.09 0 0 1 .032.12m-3.114-1.246c0 .09-.074.164-.164.164a.165.165 0 0 1-.164-.164v-.801c0-.09.072-.164.164-.164s.164.074.164.164z"/>
</svg>