<svg id="strib-weather-day-night-cloudy-lg-color" viewBox="0 0 16 16" width="16" height="16" fill="currentcolor" class="strib-icon strib-weather-day-night-cloudy-lg-color" xmlns="http://www.w3.org/2000/svg" clip-rule="evenodd" fill-rule="evenodd">
  <path fill="var(--weather-cloud-shadow, #839396)" d="M10.235 11.313a1.32 1.32 0 0 0-1.011-.212 1.36 1.36 0 0 0-.611-.976q.129-.03.267-.031v-.003c.27 0 .533.094.739.265a.193.193 0 0 0 .257-.013c.224.242.361.565.361.921zm2.732 2.02a1.13 1.13 0 0 0-.628-2.069c0-.824-.472-1.537-1.162-1.884q.192-.04.392-.041c1.06 0 1.923.863 1.923 1.923a.19.19 0 0 0 .189.189.941.941 0 0 1 0 1.882zM5.808 4.052h.242c.449 0 .832.288.974.688a3.6 3.6 0 0 0-.472.579 3 3 0 0 0-.182-.113 1.22 1.22 0 0 0-.562-1.154M4.021 2.669a1.53 1.53 0 0 1 1.6 1.229.2.2 0 0 0 .028.068 1.2 1.2 0 0 0-.497-.105H4.91c-.1-.52-.435-.955-.889-1.192m.623 2.7q.273-.082.571-.083l-.002-.003c.464 0 .916.16 1.271.454a.2.2 0 0 0 .154.041.2.2 0 0 0 .108-.059c.411.398.666.956.666 1.575 0 .04-.007.176-.007.217l-.01-.001a2.02 2.02 0 0 0-1.615-.364 2.2 2.2 0 0 0-1.136-1.777m4.121-1.203a3.222 3.222 0 0 1 4.025 3.125.19.19 0 0 0 .189.189 1.641 1.641 0 0 1 .781 3.082 2.3 2.3 0 0 0-1.119-1.335l.003-.102a1.83 1.83 0 0 0-1.829-1.829 3.42 3.42 0 0 0-2.05-3.13"/>
  <path fill="var(--weather-cloud-highlight, #afc2c4)" d="M9.224 11.101a1.34 1.34 0 0 0-.722.41 1.3 1.3 0 0 0-.777-.42 1.17 1.17 0 0 1 .888-.966c.33.214.562.567.611.976m3.743 2.232H7.523a.942.942 0 0 1-.025-1.882l.025.002c.336 0 .646.182.815.472.068.116.26.116.328 0a.95.95 0 0 1 .815-.472.95.95 0 0 1 .815.472.19.19 0 0 0 .164.093.2.2 0 0 0 .095-.025.186.186 0 0 0 .069-.257 1.3 1.3 0 0 0-.389-.423l.002-.049a1.35 1.35 0 0 0-.361-.921.2.2 0 0 0 .028-.037c.277-.48.745-.814 1.273-.926a2.11 2.11 0 0 1 1.162 1.884 1.13 1.13 0 0 1 .628 2.069M5.649 3.966a.19.19 0 0 0 .159.086 1.22 1.22 0 0 1 .562 1.154 2.383 2.383 0 0 0-3.232.915h-.725c-.57 0-1.035-.464-1.035-1.035 0-.57.465-1.034 1.035-1.034h.03c.329.01.632.179.822.449a.19.19 0 0 0 .157.081v-.003a.187.187 0 0 0 .153-.295 1.43 1.43 0 0 0-.893-.584 1.525 1.525 0 0 1 1.339-1.031c.454.237.789.672.889 1.192h.242c.177 0 .345.038.497.105M3.215 7.114a2.01 2.01 0 0 1 1.429-1.745A2.2 2.2 0 0 1 5.78 7.146a2.03 2.03 0 0 0-1.178.728 2.02 2.02 0 0 0-1.387-.76m3.531-1.395q.013-.015.023-.032a3.25 3.25 0 0 1 1.996-1.521 3.42 3.42 0 0 1 2.05 3.13 1.83 1.83 0 0 1 1.826 1.931 2.3 2.3 0 0 0-1.072-.266c-.749 0-1.453.371-1.881.981a1.55 1.55 0 0 0-2.27.818h-4.4c-.903 0-1.64-.737-1.64-1.64 0-.893.717-1.623 1.609-1.64q.015.003.031.003c.583 0 1.12.318 1.42.82a.19.19 0 0 0 .164.093.19.19 0 0 0 .164-.093 1.64 1.64 0 0 1 1.418-.82c.582 0 1.126.314 1.42.82a.188.188 0 0 0 .325-.189 2.1 2.1 0 0 0-.534-.604l.01.001c0-.041.007-.177.007-.217 0-.619-.255-1.177-.666-1.575"/>
  <path fill="var(--weather-outline, #231f20)" d="M13.681 13.714H7.523a1.32 1.32 0 0 1-.179-2.629 1.55 1.55 0 0 1 2.344-1.143 2.3 2.3 0 0 1 1.881-.981c1.209 0 2.203.938 2.293 2.124a1.32 1.32 0 0 1-.181 2.626zm-4.801-3.62a1.17 1.17 0 0 0-1.168 1.168.19.19 0 0 1-.189.189.941.941 0 0 0 0 1.882h6.158a.942.942 0 0 0 0-1.882.19.19 0 0 1-.189-.189c0-1.06-.863-1.923-1.923-1.923a1.93 1.93 0 0 0-1.665.967.2.2 0 0 1-.131.09.2.2 0 0 1-.154-.04 1.16 1.16 0 0 0-.739-.265zm-1.155.997a1 1 0 0 0-.013.171.19.19 0 0 1-.189.189h-.025a.19.19 0 0 1-.164-.187.19.19 0 0 1 .189-.189q.102 0 .202.016m-4.51-3.977a2 2 0 0 0-.008.177.19.19 0 0 1-.189.189h-.031a.19.19 0 0 1-.158-.186c0-.104.086-.19.189-.19q.1 0 .197.01m-.802-3.062a.19.19 0 0 1-.19-.189c0-.103.086-.189.19-.189q.137 0 .269.026-.032.096-.052.198a.19.19 0 0 1-.187.154zm5.312 7.039c.299.046.575.195.777.42.247-.272.603-.436.979-.436.469 0 .905.252 1.143.661a.186.186 0 0 1-.069.257.2.2 0 0 1-.095.025.19.19 0 0 1-.164-.093.95.95 0 0 0-.815-.472.95.95 0 0 0-.815.472c-.068.116-.26.116-.328 0a.95.95 0 0 0-.84-.474h.025a.19.19 0 0 0 .189-.189q0-.087.013-.171m-4.51-3.977a2.02 2.02 0 0 1 1.387.76c.379-.479.964-.77 1.582-.77a2.02 2.02 0 0 1 1.745 1.01.188.188 0 1 1-.325.189 1.65 1.65 0 0 0-1.42-.82c-.583 0-1.125.315-1.418.82a.19.19 0 0 1-.328 0 1.64 1.64 0 0 0-1.42-.82l-.031-.003h.031a.19.19 0 0 0 .189-.189q0-.09.008-.177m3.89 4.027H3.492v-.381h3.926a1.5 1.5 0 0 0-.074.325q-.123.017-.239.056m.219-6.667a3.6 3.6 0 0 1 2.24-.785 3.61 3.61 0 0 1 3.6 3.423 2.02 2.02 0 0 1 1.834 2.011c0 .802-.471 1.496-1.151 1.822a2 2 0 0 0-.087-.383 1.641 1.641 0 0 0-.781-3.082.19.19 0 0 1-.189-.189 3.23 3.23 0 0 0-3.226-3.226c-1.15 0-2.216.622-2.795 1.622a.19.19 0 0 1-.285.05 2 2 0 0 0-1.271-.454l.002.003a2.01 2.01 0 0 0-2 1.828 2 2 0 0 0-.197-.01.19.19 0 0 0-.189.19.19.19 0 0 0 .158.186 1.64 1.64 0 0 0-1.609 1.64c0 .903.737 1.64 1.64 1.64h.474v.381h-.474A2.02 2.02 0 0 1 1 9.123c0-1.052.81-1.918 1.836-2.011a2.4 2.4 0 0 1 .302-.991 2.39 2.39 0 0 1 2.077-1.214c.477 0 .946.144 1.337.412a3.6 3.6 0 0 1 .772-.845M2.682 3.7c.359.07.681.278.893.584a.187.187 0 0 1-.153.295v.003a.19.19 0 0 1-.157-.081 1.04 1.04 0 0 0-.822-.449.19.19 0 0 0 .187-.154q.02-.102.052-.198m.284 2.799h-.553a1.413 1.413 0 0 1-.119-2.82 1.906 1.906 0 0 1 1.831-1.393c.858 0 1.602.576 1.832 1.388h.093c.561 0 1.045.327 1.274.8a4 4 0 0 0-.3.266 1.035 1.035 0 0 0-.974-.688h-.242a.19.19 0 0 1-.187-.154A1.525 1.525 0 0 0 2.682 3.7a1.4 1.4 0 0 0-.269-.026.19.19 0 0 0-.19.189c0 .103.086.189.19.189-.57 0-1.035.464-1.035 1.034s.465 1.035 1.035 1.035h.725q-.103.18-.172.378m10.161 3.072c.289.267.51.607.633.991q-.166.09-.351.141a1.9 1.9 0 0 0-.503-.821c.065-.087.131-.178.221-.311m.727 1.434.008.08a1.32 1.32 0 0 1-.181 2.626v.003H7.523a1.32 1.32 0 0 1-.179-2.629q.02-.169.074-.325a1.55 1.55 0 0 1 2.27-.818 2.3 2.3 0 0 1 1.881-.981c.6 0 1.148.231 1.558.61-.09.133-.156.224-.221.311a1.9 1.9 0 0 0-1.337-.543c-.683 0-1.324.369-1.665.967a.2.2 0 0 1-.131.09.2.2 0 0 1-.154-.04 1.17 1.17 0 0 0-.739-.265v.003a1.17 1.17 0 0 0-1.155.997 1 1 0 0 0-.202-.016.19.19 0 0 0-.189.189.19.19 0 0 0 .164.187.942.942 0 0 0 .025 1.882h6.158a.942.942 0 0 0 0-1.882.19.19 0 0 1-.189-.189l-.002-.087c.084-.033.21-.099.364-.17m-.007-.06q-.174.083-.364.132a2 2 0 0 0-.074-.374q.185-.051.351-.141.06.185.087.383m0 0 .007.06c-.154.071-.28.137-.364.17q-.002-.049-.007-.098.19-.049.364-.132"/>
</svg>