<svg id="strib-weather-day-sunny-lg" viewBox="0 0 16 16" width="16" height="16" fill="currentcolor" class="strib-icon strib-weather-day-sunny-lg" xmlns="http://www.w3.org/2000/svg">
  <path d="M12.994 5.928a3.53 3.53 0 0 0 1.895 1.893h-.005a.188.188 0 0 1 0 .348 3.48 3.48 0 0 0-1.893 1.893 3.47 3.47 0 0 0-.015 2.642q.035.046.036.108c0 .106-.081.2-.192.189a.2.2 0 0 1-.076-.015 3.49 3.49 0 0 0-4.57 1.893.188.188 0 0 1-.348 0 3.48 3.48 0 0 0-1.893-1.893 3.52 3.52 0 0 0-2.677 0 .185.185 0 0 1-.207-.04.19.19 0 0 1-.04-.207 3.48 3.48 0 0 0 0-2.677 3.52 3.52 0 0 0-1.893-1.893.188.188 0 0 1 0-.348 3.48 3.48 0 0 0 1.893-1.893 3.47 3.47 0 0 0 0-2.677.189.189 0 0 1 .247-.247 3.52 3.52 0 0 0 2.677 0 3.48 3.48 0 0 0 1.893-1.893c.06-.141.293-.141.351 0a3.48 3.48 0 0 0 1.892 1.893 3.52 3.52 0 0 0 2.678 0 .19.19 0 0 1 .206.04.19.19 0 0 1 .041.207 3.47 3.47 0 0 0 0 2.677m-.485 6.574a3.86 3.86 0 0 1 .137-2.584 3.84 3.84 0 0 1 1.731-1.923 3.9 3.9 0 0 1-1.731-1.923 3.86 3.86 0 0 1-.137-2.584 3.9 3.9 0 0 1-2.584-.136 3.85 3.85 0 0 1-1.922-1.731A3.85 3.85 0 0 1 6.08 3.352c-.82.34-1.741.386-2.584.136.252.85.207 1.754-.137 2.584a3.84 3.84 0 0 1-1.731 1.923 3.9 3.9 0 0 1 1.731 1.923c.344.83.389 1.733.137 2.584a3.8 3.8 0 0 1 1.1-.159c.512 0 1.012.098 1.484.295.83.346 1.501.951 1.923 1.731a3.86 3.86 0 0 1 3.406-2.026q.566 0 1.1.159M5.191 5.186a3.96 3.96 0 0 1 2.812-1.163 3.98 3.98 0 0 1 3.974 3.974 3.98 3.98 0 0 1-3.974 3.975 3.98 3.98 0 0 1-3.975-3.975c0-1.062.411-2.059 1.163-2.811m-.784 2.811a3.6 3.6 0 0 0 3.596 3.596 3.6 3.6 0 0 0 3.595-3.596 3.598 3.598 0 0 0-6.139-2.543 3.57 3.57 0 0 0-1.052 2.543"/>
</svg>