<svg id="strib-weather-day-mostly-cloudy-thunderstorms-lg-color" viewBox="0 0 16 16" width="16" height="16" fill="currentcolor" class="strib-icon strib-weather-day-mostly-cloudy-thunderstorms-lg-color" xmlns="http://www.w3.org/2000/svg">
  <path fill="var(--weather-sun-highlight, #fff3c0)" d="m7.052 14.146.439-1.715a.17.17 0 0 0-.028-.139.16.16 0 0 0-.126-.062h-.702l.858-2.131h1.093l-.404 1.005a.17.17 0 0 0 .015.15c.03.045.079.071.132.071h.946zm3.5-8.884a3 3 0 0 0-1.223-.259 3.07 3.07 0 0 0-2.555 1.382 2.03 2.03 0 0 0-1.709-.266 3.054 3.054 0 0 1 2.938-2.242 3.05 3.05 0 0 1 2.551 1.382z"/>
  <path fill="var(--weather-sun-shadow, #ffc783)" d="M2.596 6.926a3.26 3.26 0 0 0 1.468-1.63c.289-.695.33-1.469.115-2.191A3.27 3.27 0 0 0 6.37 2.99 3.26 3.26 0 0 0 8 1.522 3.27 3.27 0 0 0 9.63 2.99c.695.289 1.469.33 2.191.115a3.27 3.27 0 0 0 .115 2.191c.29.695.809 1.27 1.47 1.63a3.3 3.3 0 0 0-1.033.89 3.05 3.05 0 0 0-1.294-2.255 3.366 3.366 0 0 0-6.378.71c-.589.31-.989.89-1.07 1.551a3.3 3.3 0 0 0-1.035-.894z"/>
  <path fill="var(--weather-cloud-highlight, #afc2c4)" d="M5.118 8.548a1.7 1.7 0 0 0-1.17-.636 1.71 1.71 0 0 1 1.217-1.479c.536.298.909.854.952 1.501a1.72 1.72 0 0 0-.999.614"/>
  <path fill="var(--weather-cloud-highlight, #afc2c4)" d="m8.569 10.999.402-1.001a.16.16 0 0 0-.147-.22h-1.44a.16.16 0 0 0-.15.1l-.453 1.126H3.777a1.4 1.4 0 0 1-1.391-1.391c0-.766.625-1.391 1.391-1.391a1.4 1.4 0 0 1 1.204.696.162.162 0 0 0 .278 0c.249-.43.711-.696 1.203-.696s.954.268 1.204.696a.16.16 0 0 0 .278-.161 1.7 1.7 0 0 0-.458-.516l.008.001c0-.034.007-.15.007-.184 0-.52-.214-.991-.558-1.328l.019-.026a2.74 2.74 0 0 1 1.702-1.291 2.9 2.9 0 0 1 1.723 2.647 1.56 1.56 0 0 1 1.548 1.552c0 .586-.332 1.124-.856 1.387z"/>
  <path fill="var(--weather-cloud-shadow, #839396)" d="M7.486 8.241a1.71 1.71 0 0 0-2.363.313l-.005-.006c.251-.316.607-.533.999-.614a1.86 1.86 0 0 0-.952-1.501q.23-.07.48-.07c.392 0 .772.135 1.076.383a.16.16 0 0 0 .222-.016c.344.337.558.808.558 1.328 0 .034-.007.15-.007.184zm1.178-2.828q.325-.084.669-.085a2.753 2.753 0 0 1 2.736 2.736c0 .088.073.161.161.161.763 0 1.391.628 1.391 1.391 0 .762-.628 1.39-1.391 1.39l-.005-.002H8.567l.002-.005h2.51c.524-.263.856-.801.856-1.387 0-.85-.698-1.55-1.548-1.552a2.9 2.9 0 0 0-1.723-2.647"/>
  <path fill="var(--weather-outline, #231f20)" d="M12.662 7.957a2.94 2.94 0 0 1 1.176-.883.16.16 0 0 0 0-.296 3 3 0 0 1-1.606-1.604 2.94 2.94 0 0 1 0-2.27.162.162 0 0 0-.21-.21 2.94 2.94 0 0 1-2.27 0A2.94 2.94 0 0 1 8.148 1.09c-.05-.12-.246-.12-.298 0a2.95 2.95 0 0 1-1.604 1.604 2.94 2.94 0 0 1-2.27 0 .16.16 0 0 0-.21.21 2.94 2.94 0 0 1 0 2.27 2.94 2.94 0 0 1-1.604 1.604.16.16 0 0 0 0 .296c.462.192.864.494 1.176.883a1.72 1.72 0 0 0-1.275 1.654c0 .943.768 1.711 1.712 1.711H6.65l-.404 1.006a.17.17 0 0 0 .015.15c.03.045.079.07.132.07h.732l-.575 2.251a.163.163 0 0 0 .154.201.16.16 0 0 0 .126-.062l2.847-3.616h2.542c.943 0 1.711-.768 1.711-1.711 0-.794-.543-1.461-1.275-1.654zM2.596 6.926a3.26 3.26 0 0 0 1.468-1.63c.289-.695.33-1.469.115-2.191A3.27 3.27 0 0 0 6.37 2.99 3.26 3.26 0 0 0 8 1.522 3.27 3.27 0 0 0 9.63 2.99c.695.289 1.469.33 2.191.115a3.27 3.27 0 0 0 .115 2.191c.29.695.809 1.27 1.47 1.63a3.3 3.3 0 0 0-1.033.89 3.05 3.05 0 0 0-1.294-2.255 3.366 3.366 0 0 0-6.378.71c-.589.31-.989.89-1.07 1.551a3.3 3.3 0 0 0-1.035-.894zm7.956-1.664a3 3 0 0 0-1.223-.259 3.07 3.07 0 0 0-2.555 1.382 2.03 2.03 0 0 0-1.709-.266 3.054 3.054 0 0 1 2.938-2.242 3.05 3.05 0 0 1 2.551 1.382zm-3.5 8.884.439-1.715a.17.17 0 0 0-.028-.139.16.16 0 0 0-.126-.062h-.702l.858-2.131h1.093l-.404 1.005a.17.17 0 0 0 .015.15c.03.045.079.071.132.071h.946zm5.173-3.142H8.567l.404-1.006a.16.16 0 0 0-.147-.22h-1.44a.16.16 0 0 0-.15.1l-.453 1.126H3.777a1.4 1.4 0 0 1-1.391-1.391c0-.766.625-1.391 1.391-1.391a1.4 1.4 0 0 1 1.204.696.162.162 0 0 0 .278 0c.249-.43.711-.696 1.203-.696s.954.268 1.204.696a.16.16 0 0 0 .278-.161 1.71 1.71 0 0 0-2.821-.203 1.7 1.7 0 0 0-1.175-.642 1.71 1.71 0 0 1 1.697-1.549c.392 0 .772.135 1.076.383a.16.16 0 0 0 .241-.042 2.74 2.74 0 0 1 2.371-1.376 2.753 2.753 0 0 1 2.736 2.736c0 .088.073.161.161.161.763 0 1.391.628 1.391 1.391 0 .762-.628 1.39-1.391 1.39z"/>
</svg>