<svg id="strib-weather-day-night-sleet-lg" viewBox="0 0 16 16" width="16" height="16" fill="currentcolor" class="strib-icon strib-weather-day-night-sleet-lg" xmlns="http://www.w3.org/2000/svg">
  <path d="M9.566 1.632a3.624 3.624 0 0 1 3.6 3.424A2.02 2.02 0 0 1 15 7.066a2.03 2.03 0 0 1-2.018 2.018H3.018A2.03 2.03 0 0 1 1 7.066a2.02 2.02 0 0 1 1.837-2.01A2.4 2.4 0 0 1 5.216 2.85a2.4 2.4 0 0 1 1.337.412 3.62 3.62 0 0 1 3.013-1.63m-6.55 7.074h9.966v.006c.902 0 1.64-.737 1.64-1.64 0-.904-.734-1.64-1.64-1.64a.197.197 0 0 1-.19-.19 3.245 3.245 0 0 0-3.226-3.226A3.24 3.24 0 0 0 6.77 3.637a.19.19 0 0 1-.285.051 2 2 0 0 0-1.27-.453 2.016 2.016 0 0 0-2 1.828A2.02 2.02 0 0 1 4.6 5.82a2.017 2.017 0 0 1 3.328.239.19.19 0 0 1-.162.284.2.2 0 0 1-.163-.096 1.66 1.66 0 0 0-1.421-.821c-.58 0-1.125.314-1.418.821a.18.18 0 0 1-.164.096.2.2 0 0 1-.164-.096 1.65 1.65 0 0 0-1.42-.821 1.641 1.641 0 0 0 0 3.28m2.071 2.009h-.323a.6.6 0 0 0-.111-.195l.161-.28a.194.194 0 0 0-.067-.26.187.187 0 0 0-.258.072l-.161.28a.6.6 0 0 0-.22.002l-.164-.286a.19.19 0 0 0-.162-.094.19.19 0 0 0-.163.282l.158.276q-.037.045-.067.094a.5.5 0 0 0-.048.104h-.319a.19.19 0 0 0-.188.189c0 .103.085.19.188.19h.321a.7.7 0 0 0 .113.196l-.158.277a.195.195 0 0 0 .068.26.185.185 0 0 0 .257-.07l.162-.278.006.001a.5.5 0 0 0 .105.014.5.5 0 0 0 .113-.015l.161.278a.2.2 0 0 0 .165.096.188.188 0 0 0 .162-.283l-.162-.28c.025-.027.051-.055.068-.089a.5.5 0 0 0 .047-.105h.319a.19.19 0 0 0 .189-.19.19.19 0 0 0-.189-.189zm-.694.295a.21.21 0 0 1-.285.075.208.208 0 1 1 .207-.36.213.213 0 0 1 .078.285m5.74-.295H9.81a.6.6 0 0 0-.111-.195l.162-.28a.196.196 0 0 0-.068-.26.185.185 0 0 0-.257.072l-.162.28a.6.6 0 0 0-.22.002l-.163-.286a.19.19 0 0 0-.258-.07.19.19 0 0 0-.069.258l.16.276a.5.5 0 0 0-.116.198H8.39a.195.195 0 0 0-.19.189c0 .103.086.19.19.19h.32a.7.7 0 0 0 .114.196l-.16.277a.196.196 0 0 0 .069.26.19.19 0 0 0 .258-.07l.16-.278.008.001a.5.5 0 0 0 .104.014.5.5 0 0 0 .113-.015l.162.278a.2.2 0 0 0 .164.096.2.2 0 0 0 .093-.026.187.187 0 0 0 .068-.257l-.161-.28a.6.6 0 0 0 .116-.194h.318a.19.19 0 0 0 .189-.19.194.194 0 0 0-.189-.189zm-.693.295a.212.212 0 0 1-.392-.107c0-.113.093-.206.206-.206h.004q.057 0 .103.028a.216.216 0 0 1 .079.285m2.533-.737v1.261c0 .104-.086.19-.19.19a.19.19 0 0 1-.189-.19v-1.261a.19.19 0 0 1 .379 0M9.26 12.609a.19.19 0 0 0-.188.19v1.261a.19.19 0 0 0 .189.189.19.19 0 0 0 .189-.189v-1.261a.19.19 0 0 0-.19-.19m-5.235.19a.19.19 0 0 1 .189-.189.19.19 0 0 1 .189.189v1.261a.19.19 0 0 1-.189.189.19.19 0 0 1-.189-.189zm3.585.439h-.323a.6.6 0 0 0-.111-.195l.162-.28a.194.194 0 0 0-.068-.259.2.2 0 0 0-.094-.026.19.19 0 0 0-.164.096l-.161.28a.6.6 0 0 0-.22.003l-.163-.285a.196.196 0 0 0-.258-.072.19.19 0 0 0-.068.258l.159.278a.6.6 0 0 0-.117.197h-.317a.194.194 0 0 0-.19.189.19.19 0 0 0 .19.189h.321q.035.11.113.197l-.159.278a.187.187 0 0 0 .326.186l.161-.278.007.002a1 1 0 0 0 .104.013.5.5 0 0 0 .113-.015l.162.278a.2.2 0 0 0 .163.096h.002a.187.187 0 0 0 .16-.282l-.162-.28a.5.5 0 0 0 .117-.195h.317a.19.19 0 0 0 .19-.189.194.194 0 0 0-.19-.189zm-.693.295a.214.214 0 0 1-.286.076.213.213 0 0 1-.078-.286.21.21 0 0 1 .175-.096.21.21 0 0 1 .185.306zm5.417-.295h.323l.002-.005a.19.19 0 0 1 .189.189.19.19 0 0 1-.189.189h-.318a.5.5 0 0 1-.116.195l.161.28q.025.043.025.093a.187.187 0 0 1-.35.093l-.161-.278a1 1 0 0 1-.115.015.5.5 0 0 1-.104-.013l-.007-.002-.161.278a.18.18 0 0 1-.164.096.2.2 0 0 1-.093-.025.19.19 0 0 1-.068-.257l.159-.278a.7.7 0 0 1-.114-.197h-.32a.19.19 0 0 1-.189-.189.19.19 0 0 1 .189-.189h.318a.7.7 0 0 1 .116-.197l-.159-.278a.19.19 0 0 1 .068-.258.195.195 0 0 1 .257.072l.165.285a.6.6 0 0 1 .218-.003l.162-.28a.19.19 0 0 1 .163-.096q.05 0 .094.026a.193.193 0 0 1 .069.259l-.161.28a.7.7 0 0 1 .111.195m-.656.371a.21.21 0 0 0 .284-.076h-.002a.21.21 0 0 0-.179-.313h-.005a.207.207 0 0 0-.098.389m-4.941-3.525a.19.19 0 0 1 .189.189v1.261a.19.19 0 0 1-.189.19.19.19 0 0 1-.189-.19v-1.261a.19.19 0 0 1 .189-.189"/>
</svg>