<svg id="strib-weather-night-partly-cloudy-flurries-lg-color" viewBox="0 0 16 16" width="16" height="16" fill="currentcolor" class="strib-icon strib-weather-night-partly-cloudy-flurries-lg-color" xmlns="http://www.w3.org/2000/svg" clip-rule="evenodd" fill-rule="evenodd">
  <path fill="var(--weather-moon-shadow, #afc2c4)" d="M4.887 10.528a4.6 4.6 0 0 1-1.891-.931 4.8 4.8 0 0 0 2.453.279 1.45 1.45 0 0 0-.562.652m3.49-2.243a4.82 4.82 0 0 0 .192-6.121 4.66 4.66 0 0 1 1.825 5.169 2.53 2.53 0 0 0-1.771 1.082 2 2 0 0 0-.246-.13"/>
  <path fill="var(--weather-moon-highlight, #d3eaea)" d="M5.449 9.876a4.8 4.8 0 0 1-2.453-.279 4.6 4.6 0 0 1-.859-.927h.003c.473.175.974.265 1.478.265a4.29 4.29 0 0 0 3.705-2.137 4.26 4.26 0 0 0-.97-5.426 4.65 4.65 0 0 1 2.216.792 4.82 4.82 0 0 1-.192 6.121 1.688 1.688 0 0 0-2.338 1.383 1.4 1.4 0 0 0-.59.208M2.137 3.358c.223-.123.376-.277.499-.499.123.222.277.376.499.499a1.2 1.2 0 0 0-.499.499 1.2 1.2 0 0 0-.499-.499"/>
  <path fill="var(--weather-cloud-highlight, #afc2c4)" d="M6.204 10.013h.003c.382.001.738.21.931.542a.18.18 0 0 0 .307 0c.192-.333.549-.542.934-.542.386 0 .743.209.937.542a.18.18 0 0 0 .153.087l-.002-.002a.2.2 0 0 0 .09-.024.175.175 0 0 0 .064-.241 1.44 1.44 0 0 0-1.242-.716c-.42 0-.818.187-1.087.501a1.44 1.44 0 0 0-.898-.488 1.333 1.333 0 0 1 1.321-1.167v-.002c.312 0 .603.104.844.3.04.033.092.047.144.038a.18.18 0 0 0 .121-.085 2.18 2.18 0 0 1 1.882-1.09c1.196 0 2.171.974 2.171 2.17 0 .097.08.177.177.177a1.081 1.081 0 0 1 0 2.162H6.207a1.08 1.08 0 0 1-1.081-1.081c0-.595.483-1.079 1.078-1.081"/>
  <path fill="var(--weather-cloud-shadow, #839396)" d="M8.801 8.787c.263.272.425.642.425 1.049l-.003.098A1.44 1.44 0 0 0 8.1 9.687a1.5 1.5 0 0 0-.72-1.139 1.3 1.3 0 0 1 .335-.043v-.002c.312 0 .603.104.844.3a.177.177 0 0 0 .242-.016m3.405 3.388a1.257 1.257 0 0 0-.644-2.339c0-.933-.545-1.738-1.334-2.116a2.174 2.174 0 0 1 2.649 2.116c0 .097.08.177.177.177a1.081 1.081 0 0 1 0 2.162z"/>
  <path fill="var(--weather-outline, #231f20)" d="M12.127 1.972H10.89a.18.18 0 0 1-.177-.177c0-.097.08-.178.177-.178h1.237c.097 0 .177.081.177.178s-.08.177-.177.177m-.619.62a.18.18 0 0 1-.178-.178V1.178A.18.18 0 0 1 11.508 1c.097 0 .177.081.177.178v1.236c0 .097-.08.178-.177.178m-6.316 3.35H3.956a.18.18 0 0 1-.178-.177.18.18 0 0 1 .178-.178h1.236a.18.18 0 0 1 .178.178.18.18 0 0 1-.178.177m-.617.619a.18.18 0 0 1-.177-.177V5.148c0-.097.08-.178.177-.178s.177.081.177.178v1.236c0 .097-.08.177-.177.177M2.636 4.485a.17.17 0 0 1-.167-.12c-.168-.499-.341-.672-.84-.839a.18.18 0 0 1-.12-.168c0-.076.047-.145.12-.168.499-.17.672-.343.84-.84a.18.18 0 0 1 .167-.12c.076 0 .145.047.168.12.168.497.341.67.84.84a.177.177 0 0 1 0 .336c-.497.167-.67.34-.84.839a.18.18 0 0 1-.168.12m-.499-1.127a1.2 1.2 0 0 1 .499.499c.123-.223.277-.376.499-.499a1.2 1.2 0 0 1-.499-.499 1.2 1.2 0 0 1-.499.499m6.662 6.741a1.1 1.1 0 0 0-.529-.08q.245-.142.471-.313.197.052.372.156a5 5 0 0 1-.314.237m-1.185.235q-.098.1-.169.221a.18.18 0 0 1-.307 0l-.035-.056q.26-.068.511-.165m-2.825.536A5 5 0 0 1 1.53 8.356a.174.174 0 0 1 .031-.208.18.18 0 0 1 .208-.031 3.9 3.9 0 0 0 1.846.464c1.398 0 2.7-.752 3.398-1.96a3.906 3.906 0 0 0-1.327-5.29.18.18 0 0 1-.078-.196.18.18 0 0 1 .166-.132 5 5 0 0 1 2.662.662 5.015 5.015 0 0 1 2.328 5.649l-.056-.001a3 3 0 0 0-.314.02 4.66 4.66 0 0 0-2.13-5.361 4.65 4.65 0 0 0-1.911-.6 4.26 4.26 0 0 1 .97 5.426 4.29 4.29 0 0 1-3.705 2.137c-.504 0-1.005-.09-1.478-.265h-.003a4.63 4.63 0 0 0 2.75 1.858q-.07.162-.098.342m5.975-3.556a2.53 2.53 0 0 1 2.465 2.357 1.436 1.436 0 0 1-.173 2.861l-.002-.003H6.207a1.437 1.437 0 0 1-1.418-1.659q.172.04.348.069a1.082 1.082 0 0 0 1.07 1.236h6.847a1.081 1.081 0 0 0 0-2.162.18.18 0 0 1-.177-.177c0-1.196-.975-2.17-2.171-2.17l-.053.001q.062-.176.111-.353M9.113 9.862c.207.123.384.298.508.513a.175.175 0 0 1-.064.241.2.2 0 0 1-.09.024l.002.002a.18.18 0 0 1-.153-.087 1.1 1.1 0 0 0-.517-.456 5 5 0 0 0 .314-.237m-2.909.151a.18.18 0 0 1-.177-.177c0-.097.08-.177.177-.177q.096 0 .19.013-.01.08-.01.164c0 .097-.08.177-.177.177zm4.19-2.68a2.5 2.5 0 0 1 .37-.019 5 5 0 0 1-.111.353 2 2 0 0 0-.391.046 6 6 0 0 0 .132-.38m-.132.38a2.18 2.18 0 0 0-1.438 1.043.18.18 0 0 1-.121.085.18.18 0 0 1-.144-.038 1.32 1.32 0 0 0-.844-.3v.002c-.679 0-1.24.511-1.321 1.167a1.3 1.3 0 0 0-.19-.013.18.18 0 0 0-.177.177c0 .097.08.177.177.177a1.08 1.08 0 0 0-.957.584 4 4 0 0 1-.36-.069 1.44 1.44 0 0 1 1.152-.86 1.688 1.688 0 0 1 2.584-1.253 2.53 2.53 0 0 1 1.771-1.082 6 6 0 0 1-.132.38M4.789 10.87q.028-.18.098-.342.178.042.36.069a1.1 1.1 0 0 0-.11.342 5 5 0 0 1-.348-.069m1.605-1.198c.349.047.669.222.898.488a1.44 1.44 0 0 1 1.449-.454q-.226.17-.471.313c-.25.025-.482.139-.656.315q-.25.097-.511.165a1.09 1.09 0 0 0-.896-.486c.097 0 .177-.08.177-.177q0-.083.01-.164m.758 4.564-.274-.158a.5.5 0 0 0 0-.229l.274-.159a.18.18 0 0 0 .067-.241.18.18 0 0 0-.244-.064l-.274.159a.54.54 0 0 0-.199-.112v-.316a.18.18 0 0 0-.177-.178.18.18 0 0 0-.177.178v.326a.6.6 0 0 0-.192.109l-.279-.161a.176.176 0 0 0-.241.064.176.176 0 0 0 .064.241l.276.161a.5.5 0 0 0 0 .227l-.276.16a.176.176 0 0 0-.064.242.18.18 0 0 0 .241.066l.274-.159a.5.5 0 0 0 .199.111v.32c0 .097.08.177.177.177s.178-.08.178-.177v-.32a.6.6 0 0 0 .196-.113l.274.158a.2.2 0 0 0 .09.024.18.18 0 0 0 .154-.09.175.175 0 0 0-.067-.241zm-.931-.09a.211.211 0 0 1 .21-.366.207.207 0 0 1 .078.288.214.214 0 0 1-.286.078zm4.237.09-.274-.158a.6.6 0 0 0 0-.229l.274-.159a.176.176 0 0 0 .064-.241.175.175 0 0 0-.241-.064l-.275.159a.5.5 0 0 0-.198-.112v-.316a.18.18 0 0 0-.178-.178.18.18 0 0 0-.177.178v.326a.5.5 0 0 0-.191.109l-.279-.161a.177.177 0 0 0-.178.305l.277.161a.5.5 0 0 0 0 .227l-.277.16a.177.177 0 0 0 .09.331.2.2 0 0 0 .088-.023l.274-.159a.5.5 0 0 0 .198.111v.32c0 .097.081.177.178.177s.177-.08.177-.177v-.32a.5.5 0 0 0 .196-.113l.275.158a.174.174 0 0 0 .241-.066.177.177 0 0 0-.064-.241zm-.932-.09a.213.213 0 0 1-.078-.288.213.213 0 0 1 .289-.078.2.2 0 0 1 .099.128.2.2 0 0 1-.021.16.214.214 0 0 1-.286.078zm4.235.09-.274-.158a.6.6 0 0 0 0-.229l.274-.159a.176.176 0 0 0 .064-.241.175.175 0 0 0-.241-.064l-.275.159a.5.5 0 0 0-.198-.112v-.316a.18.18 0 0 0-.178-.178.18.18 0 0 0-.177.178v.326a.5.5 0 0 0-.191.109l-.279-.161a.177.177 0 0 0-.178.305l.277.161a.5.5 0 0 0 0 .227l-.277.16a.177.177 0 0 0 .09.331.2.2 0 0 0 .088-.023l.274-.159a.5.5 0 0 0 .198.111v.32c0 .097.081.177.178.177s.177-.08.177-.177v-.32a.5.5 0 0 0 .196-.113l.277.158a.174.174 0 0 0 .241-.066.176.176 0 0 0-.064-.241zm-.932-.09a.213.213 0 0 1-.078-.288.213.213 0 0 1 .289-.078.2.2 0 0 1 .099.128.2.2 0 0 1-.021.16.214.214 0 0 1-.286.078z"/>
</svg>