<svg id="strib-weather-day-partly-sunny-thunderstorms-lg-color" viewBox="0 0 16 16" width="16" height="16" fill="currentcolor" class="strib-icon strib-weather-day-partly-sunny-thunderstorms-lg-color" xmlns="http://www.w3.org/2000/svg">
  <path fill="var(--weather-sun-highlight, #fff3c0)" d="m8.901 14.177.261-1.022a.16.16 0 0 0-.027-.134.14.14 0 0 0-.121-.059H8.58l.572-1.42h.683l-.263.652a.153.153 0 0 0 .14.212h.584zM5.716 8.534a2.9 2.9 0 0 1-.647-1.836A2.947 2.947 0 0 1 8 3.767c.691 0 1.33.245 1.833.652.201.417.305.874.305 1.336 0 1.275-.79 2.424-1.979 2.881a1.46 1.46 0 0 0-1.157.204 3.1 3.1 0 0 1-1.286-.306"/>
  <path fill="var(--weather-sun-shadow, #ffc783)" d="M8.159 8.636a1.47 1.47 0 0 0-1.57.625 2.9 2.9 0 0 1-.873-.727c.402.193.84.297 1.286.306a1.46 1.46 0 0 1 1.157-.204m1.674-4.217a2.93 2.93 0 0 1 1.098 2.279c0 .409-.088.808-.257 1.185a2 2 0 0 0-.257-.017c-.726 0-1.405.364-1.812.959a1.5 1.5 0 0 0-.446-.189 3.09 3.09 0 0 0 1.979-2.881c0-.462-.104-.919-.305-1.336"/>
  <path fill="var(--weather-sun-shadow, #ffc783)" d="M4.326 10.372a3.13 3.13 0 0 0-.111-2.107 3.2 3.2 0 0 0-1.411-1.567A3.14 3.14 0 0 0 4.215 5.13a3.14 3.14 0 0 0 .111-2.106c.693.206 1.43.169 2.107-.111A3.14 3.14 0 0 0 8 1.502a3.15 3.15 0 0 0 1.567 1.411c.677.28 1.414.317 2.107.111a3.14 3.14 0 0 0 .111 2.106c.28.667.778 1.22 1.413 1.568a3.15 3.15 0 0 0-1.434 1.631 2.2 2.2 0 0 0-.779-.385c.168-.393.255-.816.257-1.244a3.26 3.26 0 0 0-3.24-3.24 3.26 3.26 0 0 0-3.24 3.24c0 1.195.644 2.269 1.687 2.839a1.4 1.4 0 0 0-.09.382 1.25 1.25 0 0 0-.729.358 3.2 3.2 0 0 0-1.3.097z"/>
  <path fill="var(--weather-cloud-highlight, #afc2c4)" d="M8.15 9.936a1.24 1.24 0 0 0-.701.411c-.2-.232-.48-.383-.782-.424.059-.478.409-.861.858-.979.343.208.583.571.625.992"/>
  <path fill="var(--weather-cloud-highlight, #afc2c4)" d="M11.724 12.098H9.942l.263-.653a.16.16 0 0 0-.014-.144.15.15 0 0 0-.128-.067H9.047a.16.16 0 0 0-.144.096l-.309.768H6.502a.945.945 0 0 1-.91-.941c0-.504.406-.924.91-.94a.94.94 0 0 1 .813.472.15.15 0 0 0 .134.076.15.15 0 0 0 .133-.076.94.94 0 0 1 .813-.472.94.94 0 0 1 .812.472.156.156 0 0 0 .289-.078.15.15 0 0 0-.021-.077 1.2 1.2 0 0 0-.35-.387l.003-.083c0-.352-.14-.673-.366-.908q.012-.013.022-.029a1.9 1.9 0 0 1 1.221-.901 2.04 2.04 0 0 1 1.155 1.838h.003a1.1 1.1 0 0 1 1.094 1.094c0 .384-.203.742-.533.94"/>
  <path fill="var(--weather-cloud-shadow, #839396)" d="M7.525 8.944q.142-.038.292-.038c.268 0 .527.093.734.262.035.03.081.042.126.033a.16.16 0 0 0 .085-.045c.226.235.366.556.366.908l-.003.083a1.24 1.24 0 0 0-.975-.211 1.31 1.31 0 0 0-.625-.992m2.48-.718q.203-.047.416-.047a1.9 1.9 0 0 1 1.888 1.888c0 .085.07.155.155.155.516 0 .94.424.94.94s-.424.94-.94.94l-.004-.004h-.736c.33-.198.533-.556.533-.94a1.1 1.1 0 0 0-1.094-1.094h-.003c0-.783-.45-1.499-1.155-1.838"/>
  <path fill="var(--weather-outline, #231f20)" d="M12.61 9.917a2.18 2.18 0 0 0-.601-1.364 2.83 2.83 0 0 1 1.605-1.713.16.16 0 0 0 .094-.142.15.15 0 0 0-.094-.142 2.88 2.88 0 0 1-1.545-1.543 2.83 2.83 0 0 1 0-2.182.16.16 0 0 0-.033-.169.16.16 0 0 0-.169-.033 2.83 2.83 0 0 1-2.182 0 2.83 2.83 0 0 1-1.543-1.543c-.047-.115-.237-.115-.286 0a2.83 2.83 0 0 1-1.543 1.543 2.83 2.83 0 0 1-2.182 0 .16.16 0 0 0-.169.033.16.16 0 0 0-.033.169 2.83 2.83 0 0 1 0 2.182 2.83 2.83 0 0 1-1.543 1.543.16.16 0 0 0-.094.142c0 .062.037.119.094.142a2.87 2.87 0 0 1 1.543 1.543c.292.703.29 1.479 0 2.182a.16.16 0 0 0 .033.169.16.16 0 0 0 .169.033 2.8 2.8 0 0 1 1.279-.206 1.25 1.25 0 0 0-.156.597c0 .689.559 1.248 1.248 1.248h1.965l-.263.652a.154.154 0 0 0 .141.212h.463l-.392 1.537a.155.155 0 0 0 .08.177q.033.015.068.016c.045 0 .09-.021.121-.06l1.995-2.534h1.774c.686 0 1.249-.564 1.249-1.249 0-.629-.475-1.165-1.099-1.24zm-8.284.455a3.13 3.13 0 0 0-.111-2.107 3.2 3.2 0 0 0-1.411-1.567A3.14 3.14 0 0 0 4.215 5.13a3.14 3.14 0 0 0 .111-2.106c.693.206 1.43.169 2.107-.111A3.14 3.14 0 0 0 8 1.502a3.15 3.15 0 0 0 1.567 1.411c.677.28 1.414.317 2.107.111a3.14 3.14 0 0 0 .111 2.106c.28.667.778 1.22 1.413 1.568a3.15 3.15 0 0 0-1.434 1.631 2.2 2.2 0 0 0-.779-.385c.168-.393.255-.816.257-1.244a3.26 3.26 0 0 0-3.24-3.24 3.26 3.26 0 0 0-3.24 3.24c0 1.195.644 2.269 1.687 2.839a1.4 1.4 0 0 0-.09.382 1.25 1.25 0 0 0-.729.358 3.2 3.2 0 0 0-1.3.097zm6.605-3.674c0 .409-.088.808-.257 1.185a2 2 0 0 0-.257-.017c-.726 0-1.405.364-1.812.959a1.47 1.47 0 0 0-2.016.436 2.91 2.91 0 0 1-1.52-2.563A2.947 2.947 0 0 1 8 3.767a2.947 2.947 0 0 1 2.931 2.931m-2.03 7.479.261-1.022a.16.16 0 0 0-.027-.134.14.14 0 0 0-.121-.059H8.58l.572-1.42h.683l-.263.652a.153.153 0 0 0 .14.212h.584zm3.559-2.079H9.942l.263-.653a.16.16 0 0 0-.014-.144.15.15 0 0 0-.128-.067H9.047a.16.16 0 0 0-.144.096l-.309.768H6.502a.945.945 0 0 1-.91-.941c0-.504.406-.924.91-.94a.94.94 0 0 1 .813.472.15.15 0 0 0 .134.076.15.15 0 0 0 .133-.076.94.94 0 0 1 .813-.472.94.94 0 0 1 .812.472.156.156 0 0 0 .289-.078.15.15 0 0 0-.021-.077 1.246 1.246 0 0 0-2.026-.187c-.2-.232-.48-.383-.782-.424a1.16 1.16 0 0 1 1.884-.755c.035.03.081.042.126.033a.16.16 0 0 0 .107-.074 1.89 1.89 0 0 1 1.637-.948 1.9 1.9 0 0 1 1.888 1.888c0 .085.07.155.155.155.516 0 .94.424.94.94s-.424.94-.94.94z"/>
</svg>