<svg id="strib-weather-day-partly-sunny-lg-color" viewBox="0 0 16 16" width="16" height="16" fill="currentcolor" class="strib-icon strib-weather-day-partly-sunny-lg-color" xmlns="http://www.w3.org/2000/svg">
  <path fill="var(--weather-sun-highlight, #fff3c0)" d="M11.009 6.032a3.6 3.6 0 0 0-1.443-.305 3.62 3.62 0 0 0-3.011 1.63 2.4 2.4 0 0 0-2.016-.313 3.6 3.6 0 0 1 3.464-2.646c1.213 0 2.347.615 3.009 1.632z"/>
  <path fill="var(--weather-sun-shadow, #ffc783)" d="M8 14.367a3.9 3.9 0 0 0-1.001-1.186h2.002A3.8 3.8 0 0 0 8 14.367M1.628 7.995a3.84 3.84 0 0 0 1.731-1.922c.343-.83.388-1.733.136-2.583.85.252 1.753.207 2.583-.136A3.84 3.84 0 0 0 8 1.623a3.85 3.85 0 0 0 1.922 1.731c.83.343 1.733.388 2.583.136a3.86 3.86 0 0 0 .136 2.583 3.9 3.9 0 0 0 1.733 1.922 3.9 3.9 0 0 0-1.218 1.049 3.6 3.6 0 0 0-1.526-2.658A3.98 3.98 0 0 0 8 4.025a3.97 3.97 0 0 0-3.89 3.198 2.39 2.39 0 0 0-1.261 1.829 3.8 3.8 0 0 0-1.221-1.055z"/>
  <path fill="var(--weather-cloud-highlight, #afc2c4)" d="M4.601 9.91a2.02 2.02 0 0 0-1.381-.752 2.02 2.02 0 0 1 1.438-1.745 2.19 2.19 0 0 1 1.121 1.77 2.03 2.03 0 0 0-1.178.727"/>
  <path fill="var(--weather-cloud-highlight, #afc2c4)" d="M1.378 11.163c0-.903.737-1.639 1.64-1.639.583 0 1.125.315 1.42.819a.19.19 0 0 0 .328 0 1.64 1.64 0 0 1 1.418-.819c.58 0 1.125.315 1.42.819a.19.19 0 0 0 .164.094h.002a.19.19 0 0 0 .162-.283 2 2 0 0 0-.542-.609l.014.001c0-.04.007-.177.007-.217 0-.615-.253-1.17-.659-1.567l.022-.029A3.23 3.23 0 0 1 8.783 6.21a3.42 3.42 0 0 1 2.03 3.119 1.84 1.84 0 0 1 1.829 1.829 1.83 1.83 0 0 1-1.019 1.639H3.018a1.643 1.643 0 0 1-1.64-1.634"/>
  <path fill="var(--weather-cloud-shadow, #839396)" d="M8.783 6.21q.382-.098.786-.099a3.245 3.245 0 0 1 3.226 3.226c0 .103.086.189.19.189.905 0 1.639.737 1.639 1.64s-.736 1.639-1.639 1.639l-.003-.002H3.018c-.906 0-1.64-.737-1.64-1.64a1.643 1.643 0 0 0 1.64 1.634h8.605a1.83 1.83 0 0 0 1.019-1.639 1.84 1.84 0 0 0-1.829-1.829 3.42 3.42 0 0 0-2.03-3.119"/>
  <path fill="var(--weather-cloud-shadow, #839396)" d="M7.39 9.545a2.03 2.03 0 0 0-1.204-.4c-.618 0-1.203.288-1.581.77l-.004-.005c.295-.373.712-.63 1.178-.727a2.19 2.19 0 0 0-1.121-1.77 2 2 0 0 1 1.831.37.2.2 0 0 0 .154.04.2.2 0 0 0 .109-.061c.406.397.659.952.659 1.567 0 .04-.007.177-.007.217z"/>
  <path fill="var(--weather-outline, #231f20)" d="M13.497 9.211c.365-.457.84-.815 1.387-1.042a.188.188 0 0 0 0-.348 3.53 3.53 0 0 1-1.894-1.892 3.46 3.46 0 0 1 0-2.676.19.19 0 0 0-.041-.207.19.19 0 0 0-.207-.041 3.46 3.46 0 0 1-2.676 0 3.48 3.48 0 0 1-1.892-1.891c-.058-.142-.29-.142-.351 0a3.48 3.48 0 0 1-1.891 1.891 3.46 3.46 0 0 1-2.677 0 .189.189 0 0 0-.247.248c.358.856.358 1.82 0 2.676a3.47 3.47 0 0 1-1.892 1.892.188.188 0 0 0 0 .348 3.5 3.5 0 0 1 1.387 1.042A2.025 2.025 0 0 0 1 11.161c0 1.112.906 2.018 2.018 2.018h3.305a3.5 3.5 0 0 1 1.5 1.697.19.19 0 0 0 .349 0c.3-.724.819-1.309 1.5-1.697h3.305a2.03 2.03 0 0 0 2.018-2.018 2.025 2.025 0 0 0-1.503-1.95zM1.628 7.995a3.84 3.84 0 0 0 1.731-1.922c.343-.83.388-1.733.136-2.583.85.252 1.753.207 2.583-.136A3.84 3.84 0 0 0 8 1.623a3.85 3.85 0 0 0 1.922 1.731c.83.343 1.733.388 2.583.136a3.86 3.86 0 0 0 .136 2.583 3.9 3.9 0 0 0 1.733 1.922 3.9 3.9 0 0 0-1.218 1.049 3.6 3.6 0 0 0-1.526-2.658A3.98 3.98 0 0 0 8 4.025a3.97 3.97 0 0 0-3.89 3.198 2.39 2.39 0 0 0-1.261 1.829 3.8 3.8 0 0 0-1.221-1.055zm9.381-1.963a3.6 3.6 0 0 0-1.443-.305 3.62 3.62 0 0 0-3.011 1.63 2.4 2.4 0 0 0-2.016-.313 3.6 3.6 0 0 1 3.464-2.646c1.213 0 2.347.615 3.009 1.632zM8 14.367a3.9 3.9 0 0 0-1.001-1.186h2.002A3.8 3.8 0 0 0 8 14.367m4.982-1.564H3.018c-.906 0-1.64-.737-1.64-1.64s.737-1.639 1.64-1.639c.583 0 1.125.315 1.42.819a.19.19 0 0 0 .328 0 1.64 1.64 0 0 1 1.418-.819c.58 0 1.125.315 1.42.819a.19.19 0 0 0 .164.094h.002a.19.19 0 0 0 .162-.283 2.02 2.02 0 0 0-1.746-1.009c-.618 0-1.203.288-1.581.77a2.02 2.02 0 0 0-1.385-.757 2.016 2.016 0 0 1 2.001-1.826c.462 0 .91.159 1.268.451a.2.2 0 0 0 .154.04.2.2 0 0 0 .131-.09c.574-1 1.642-1.62 2.795-1.622a3.245 3.245 0 0 1 3.226 3.226c0 .103.086.189.19.189.905 0 1.639.737 1.639 1.64s-.736 1.639-1.639 1.639z"/>
</svg>