<svg id="strib-weather-night-partly-cloudy" viewBox="0 0 16 16" width="16" height="16" fill="currentcolor" class="strib-icon strib-weather-night-partly-cloudy" xmlns="http://www.w3.org/2000/svg">
  <path d="M15 9.5a2.49 2.49 0 0 0-1.603-2.329 3.488 3.488 0 0 0-6.519-.721 6.57 6.57 0 0 1 .066-4.261.52.52 0 0 0-.05-.462.51.51 0 0 0-.405-.228l-.088.008a6.552 6.552 0 0 0-3.403 11.157 6.55 6.55 0 0 0 4.316 1.835c.082.003.164 0 .245 0a6.52 6.52 0 0 0 5.146-2.519A2.494 2.494 0 0 0 15 9.5m-7.649 4A5.55 5.55 0 0 1 2.06 8.769a5.55 5.55 0 0 1 3.69-6.063 7.6 7.6 0 0 0 .422 4.685 2.49 2.49 0 0 0-1.076 2.805 2.496 2.496 0 0 0 2.403 1.805h3.839A5.55 5.55 0 0 1 7.56 13.5q-.104.002-.209 0M12.5 11H7.499a1.495 1.495 0 0 1-1.231-2.356c.211-.301.525-.514.883-.598l.329-.078.05-.335a2.5 2.5 0 0 1 .837-1.527 2.5 2.5 0 0 1 3.264 0c.454.392.751.934.838 1.527l.05.335.329.078a1.493 1.493 0 0 1 1.143 1.632A1.5 1.5 0 0 1 12.5 11"/>
</svg>