<svg id="strib-weather-day-partly-sunny-showers-lg" viewBox="0 0 16 16" width="16" height="16" fill="currentcolor" class="strib-icon strib-weather-day-partly-sunny-showers-lg" xmlns="http://www.w3.org/2000/svg">
  <path d="M12.018 8.57c.344.361.567.839.602 1.367h-.002a1.252 1.252 0 0 1-.151 2.494H6.499c-.69 0-1.251-.56-1.251-1.251 0-.217.06-.421.157-.598a2.8 2.8 0 0 0-1.283.206.2.2 0 0 1-.06.013.156.156 0 0 1-.142-.215 2.84 2.84 0 0 0 0-2.187 2.87 2.87 0 0 0-1.546-1.546.15.15 0 0 1-.095-.143c0-.061.037-.117.095-.142A2.83 2.83 0 0 0 3.92 5.022a2.83 2.83 0 0 0 0-2.187.154.154 0 0 1 .202-.202 2.84 2.84 0 0 0 2.188 0 2.84 2.84 0 0 0 1.546-1.546c.049-.116.239-.116.286 0a2.84 2.84 0 0 0 1.546 1.546 2.84 2.84 0 0 0 2.188 0 .154.154 0 0 1 .202.202 2.83 2.83 0 0 0 0 2.187 2.88 2.88 0 0 0 1.548 1.546.15.15 0 0 1 .095.142.16.16 0 0 1-.095.143 2.84 2.84 0 0 0-1.608 1.717m-7.811-.289c.282.679.317 1.417.111 2.111l.004.005a3.2 3.2 0 0 1 1.303-.097 1.24 1.24 0 0 1 .73-.359q.018-.201.091-.383a3.23 3.23 0 0 1-1.691-2.845 3.25 3.25 0 0 1 3.247-3.247 3.25 3.25 0 0 1 3.247 3.247c0 .43-.091.849-.258 1.247.289.076.553.208.782.385A3.15 3.15 0 0 1 13.21 6.71a3.2 3.2 0 0 1-1.417-1.57 3.16 3.16 0 0 1-.111-2.111 3.15 3.15 0 0 1-2.111-.112A3.15 3.15 0 0 1 8 1.503a3.14 3.14 0 0 1-1.571 1.414 3.15 3.15 0 0 1-2.111.112 3.16 3.16 0 0 1-.111 2.111 3.14 3.14 0 0 1-1.414 1.57c.63.345 1.137.903 1.414 1.571m.855-1.571c0 1.081.582 2.052 1.524 2.569a1.47 1.47 0 0 1 2.02-.437 2.21 2.21 0 0 1 1.816-.961q.132.001.258.017a2.9 2.9 0 0 0 .258-1.188A2.94 2.94 0 0 0 8 3.773 2.94 2.94 0 0 0 5.062 6.71m1.437 5.41h5.97l.005.004a.943.943 0 0 0 0-1.884.156.156 0 0 1-.155-.155 1.895 1.895 0 0 0-1.893-1.892c-.676 0-1.302.363-1.641.95a.156.156 0 0 1-.233.041 1.164 1.164 0 0 0-1.888.757c.303.041.584.192.784.425a1.248 1.248 0 0 1 2.03.187.154.154 0 0 1-.134.231.16.16 0 0 1-.134-.076.94.94 0 0 0-.814-.472.94.94 0 0 0-.814.472.16.16 0 0 1-.134.076.15.15 0 0 1-.134-.076.94.94 0 0 0-.815-.472.943.943 0 0 0 0 1.884m2.175 1.532a.156.156 0 0 1-.154-.155v-.556c0-.085.07-.155.154-.155.085 0 .155.07.155.155v.556c0 .085-.07.155-.155.155m0 1.348a.156.156 0 0 1-.154-.155v-.556c0-.085.07-.155.154-.155.085 0 .155.07.155.155v.556c0 .085-.07.155-.155.155m3.088-1.503c0 .085.07.155.155.155s.155-.07.155-.155v-.556a.156.156 0 0 0-.155-.155.156.156 0 0 0-.155.155zM11.917 15a.156.156 0 0 1-.155-.155v-.556c0-.085.07-.155.155-.155s.155.07.155.155v.556a.156.156 0 0 1-.155.155m-1.777-.155c0 .085.07.155.154.155.085 0 .155-.07.155-.155v-.556a.156.156 0 0 0-.155-.155.156.156 0 0 0-.154.155zm.154-1.193a.156.156 0 0 1-.154-.155v-.556c0-.085.07-.155.154-.155.085 0 .155.07.155.155v.556c0 .085-.07.155-.155.155m-3.397 1.193c0 .085.07.155.155.155s.154-.07.154-.155v-.556a.156.156 0 0 0-.154-.155.156.156 0 0 0-.155.155zm.155-1.193a.156.156 0 0 1-.155-.155v-.556c0-.085.07-.155.155-.155s.154.07.154.155v.556c0 .085-.07.155-.154.155"/>
</svg>