<svg id="strib-weather-day-night-flurries" viewBox="0 0 16 16" width="16" height="16" fill="currentcolor" class="strib-icon strib-weather-day-night-flurries" xmlns="http://www.w3.org/2000/svg">
  <path d="M4.747 10.692a.3.3 0 0 0-.12.037l-1.866 1.074a.28.28 0 0 0-.135.163.26.26 0 0 0 .025.21.27.27 0 0 0 .275.133.3.3 0 0 0 .1-.039l1.867-1.073a.266.266 0 0 0 .128-.311.27.27 0 0 0-.274-.194"/>
  <path d="M3.823 10.154a.26.26 0 0 0-.245.169.3.3 0 0 0-.019.103v2.147a.26.26 0 0 0 .077.193.265.265 0 0 0 .381 0 .26.26 0 0 0 .077-.193v-2.147a.3.3 0 0 0-.02-.104.3.3 0 0 0-.058-.089.3.3 0 0 0-.088-.059.3.3 0 0 0-.105-.02"/>
  <path d="M2.872 10.692a.27.27 0 0 0-.226.38.27.27 0 0 0 .115.125l1.866 1.073a.266.266 0 0 0 .376-.093.27.27 0 0 0-.026-.306.3.3 0 0 0-.084-.068l-1.867-1.074a.3.3 0 0 0-.154-.037m10.221 0a.3.3 0 0 0-.119.037l-1.867 1.074a.26.26 0 0 0-.134.163.26.26 0 0 0 .024.21.267.267 0 0 0 .376.094l1.866-1.073a.266.266 0 0 0 .128-.311.27.27 0 0 0-.274-.194"/>
  <path d="M12.169 10.154a.26.26 0 0 0-.245.169.3.3 0 0 0-.019.103v2.147a.26.26 0 0 0 .077.193.265.265 0 0 0 .381 0 .26.26 0 0 0 .077-.193v-2.147a.26.26 0 0 0-.078-.193.3.3 0 0 0-.088-.059.3.3 0 0 0-.105-.02"/>
  <path d="M11.218 10.692a.27.27 0 0 0-.226.38.27.27 0 0 0 .115.125l1.866 1.073a.266.266 0 0 0 .376-.093.27.27 0 0 0-.026-.306.3.3 0 0 0-.084-.068l-1.866-1.074a.3.3 0 0 0-.155-.037M8.92 12.846a.3.3 0 0 0-.119.037l-1.867 1.074a.26.26 0 0 0-.134.163.3.3 0 0 0-.009.107.265.265 0 0 0 .308.235.3.3 0 0 0 .101-.038l1.867-1.073a.269.269 0 0 0-.147-.505"/>
  <path d="M7.996 12.308a.3.3 0 0 0-.102.021.3.3 0 0 0-.086.06.26.26 0 0 0-.076.191v2.147a.26.26 0 0 0 .077.193.265.265 0 0 0 .381 0 .26.26 0 0 0 .077-.193V12.58a.3.3 0 0 0-.019-.105.28.28 0 0 0-.147-.147.3.3 0 0 0-.105-.02"/>
  <path d="M7.045 12.846a.27.27 0 0 0-.226.38.27.27 0 0 0 .115.125l1.867 1.073q.046.03.1.038a.26.26 0 0 0 .275-.132.26.26 0 0 0 .025-.21.27.27 0 0 0-.134-.163L7.2 12.883a.3.3 0 0 0-.155-.037m3.149-11.8A3.76 3.76 0 0 0 6.28 3.01a2.83 2.83 0 0 0-3.407 3.881 2.83 2.83 0 0 0 2.716 1.642l4.028.006h.001a3.77 3.77 0 0 0 3.755-3.48 3.77 3.77 0 0 0-3.179-4.013m-.083.532a3.227 3.227 0 0 1 2.725 3.44A3.227 3.227 0 0 1 9.618 8l-4.043-.005H5.56a2.288 2.288 0 1 1 .503-4.489 4 4 0 0 0-.117.398c-.074.335.437.468.524.124a3.227 3.227 0 0 1 3.641-2.451z"/>
</svg>