<svg id="strib-weather-day-night-ice-lg-color" viewBox="0 0 16 16" width="16" height="16" fill="currentcolor" class="strib-icon strib-weather-day-night-ice-lg-color" xmlns="http://www.w3.org/2000/svg">
  <path fill="var(--weather-cloud-highlight, #afc2c4)" d="M4.654 3.374a2.2 2.2 0 0 1 1.127 1.774 2.02 2.02 0 0 0-1.181.729 2.02 2.02 0 0 0-1.385-.757 2.02 2.02 0 0 1 1.439-1.746"/>
  <path fill="var(--weather-cloud-highlight, #afc2c4)" d="M7.862 6.374a.19.19 0 0 0 .069-.257 2 2 0 0 0-.54-.607l.015.001c0-.04.007-.177.007-.217 0-.617-.254-1.173-.663-1.571l.02-.028a3.24 3.24 0 0 1 2.009-1.523 3.43 3.43 0 0 1 2.038 3.125 1.84 1.84 0 0 1 1.826 1.83c0 .691-.392 1.326-1.01 1.636H3.018a1.644 1.644 0 0 1-1.466-2.376 1.64 1.64 0 0 1 1.464-.901 1.65 1.65 0 0 1 1.42.82.19.19 0 0 0 .164.096.19.19 0 0 0 .164-.096c.293-.507.838-.82 1.418-.82a1.66 1.66 0 0 1 1.421.82.19.19 0 0 0 .164.096.2.2 0 0 0 .095-.028m.868.399h-.449l.868.893v.567h.354v-.567l.867-.893h-.449l-.595.61zm-1.829.375a.6.6 0 0 1 .192-.1.8.8 0 0 1 .25-.036.84.84 0 0 1 .356.073q.157.071.282.192l.323-.116a1.16 1.16 0 0 0-.406-.325 1.2 1.2 0 0 0-.525-.106q-.22 0-.409.063-.19.062-.33.176a.68.68 0 0 0-.252.533q0 .185.088.34a.7.7 0 0 0 .234.248q.16.098.326.141.167.045.363.045.143 0 .268-.022.124-.023.234-.071a1 1 0 0 0 .207-.124 1.3 1.3 0 0 0 .189-.176l-.3-.162a.9.9 0 0 1-.277.207.8.8 0 0 1-.336.066 1 1 0 0 1-.262-.036.6.6 0 0 1-.202-.101.43.43 0 0 1-.174-.355c0-.073.015-.134.045-.195a.5.5 0 0 1 .124-.156zm-1.274-.375v1.46h.356v-1.46z"/>
  <path fill="var(--weather-cloud-shadow, #839396)" d="M5.781 5.148a2.2 2.2 0 0 0-1.127-1.774q.269-.08.562-.081c.462 0 .911.16 1.269.452a.19.19 0 0 0 .265-.022c.409.398.663.954.663 1.571 0 .04-.007.177-.007.217l-.015-.001a2 2 0 0 1 .54.607.19.19 0 0 1-.069.257.19.19 0 0 0 .066-.257 2.02 2.02 0 0 0-2.147-.969"/>
  <path fill="var(--weather-cloud-shadow, #839396)" d="M1.552 6.387a1.642 1.642 0 0 0 1.466 2.376h8.615a1.83 1.83 0 0 0 1.01-1.636 1.84 1.84 0 0 0-1.826-1.83 3.43 3.43 0 0 0-2.038-3.125 3.2 3.2 0 0 1 .787-.1 3.246 3.246 0 0 1 3.226 3.227.19.19 0 0 0 .19.189c.905 0 1.64.736 1.64 1.64s-.737 1.64-1.64 1.64v-.002H3.016a1.642 1.642 0 0 1-1.464-2.379"/>
  <path fill="var(--weather-outline, #231f20)" d="M9.566 1.691a3.625 3.625 0 0 1 3.6 3.424A2.03 2.03 0 0 1 15 7.126a2.03 2.03 0 0 1-2.018 2.018H3.018A2.03 2.03 0 0 1 1 7.126c0-1.052.807-1.918 1.837-2.011A2.4 2.4 0 0 1 5.216 2.91c.477.001.942.144 1.337.411a3.63 3.63 0 0 1 3.013-1.63m-6.55 7.075h9.966v.002c.903 0 1.64-.736 1.64-1.64s-.735-1.64-1.64-1.64a.19.19 0 0 1-.19-.189 3.246 3.246 0 0 0-3.226-3.227A3.25 3.25 0 0 0 6.77 3.695a.19.19 0 0 1-.285.05 2 2 0 0 0-1.269-.452A2.017 2.017 0 0 0 3.215 5.12a2.02 2.02 0 0 1 1.385.757c.379-.482.962-.77 1.582-.77.717 0 1.385.386 1.746 1.01a.19.19 0 0 1-.161.285.19.19 0 0 1-.164-.096 1.66 1.66 0 0 0-1.421-.82c-.58 0-1.125.313-1.418.82a.19.19 0 0 1-.164.096.19.19 0 0 1-.164-.096 1.65 1.65 0 0 0-1.42-.82c-.903 0-1.64.737-1.64 1.64s.734 1.64 1.64 1.64m8.578 1.569a.19.19 0 0 1 .189-.189.19.19 0 0 1 .189.189v1.262a.19.19 0 0 1-.189.189.19.19 0 0 1-.189-.189zM9.26 12.669a.19.19 0 0 0-.189.189v1.275c0 .104.085.19.19.19.104 0 .19-.086.19-.19l-.001-.014v-1.261a.19.19 0 0 0-.19-.189m2.334.189a.19.19 0 0 1 .189-.189.19.19 0 0 1 .189.189v1.261l.001.019a.19.19 0 0 1-.19.19.19.19 0 0 1-.19-.19l.001-.019zm-7.38-.189a.19.19 0 0 0-.189.189v1.261l-.001.014c0 .104.086.19.19.19a.19.19 0 0 0 .191-.19l-.001-.014v-1.261a.19.19 0 0 0-.19-.189m-.189-2.334a.19.19 0 0 1 .379 0v1.262a.19.19 0 0 1-.379 0zm2.712-.189c.104 0 .19.086.19.189v1.262a.19.19 0 0 1-.19.189.19.19 0 0 1-.189-.189v-1.262a.19.19 0 0 1 .189-.189m2.713.189a.19.19 0 0 0-.19-.189.19.19 0 0 0-.189.189v1.262a.19.19 0 0 0 .189.189c.104 0 .19-.086.19-.189zm-2.713 2.334a.19.19 0 0 0-.189.189v1.261l-.001.014c0 .104.086.19.19.19a.19.19 0 0 0 .19-.19v-1.275a.19.19 0 0 0-.19-.189m-1.11-5.896h.356v1.46h-.356zm1.274.375a.6.6 0 0 1 .192-.1.8.8 0 0 1 .25-.036.84.84 0 0 1 .356.073q.157.071.282.192l.323-.116a1.16 1.16 0 0 0-.406-.325 1.2 1.2 0 0 0-.525-.106q-.22 0-.409.063-.19.062-.33.176a.68.68 0 0 0-.252.533q0 .185.088.34a.7.7 0 0 0 .234.248q.16.098.326.141.167.045.363.045.143 0 .268-.022.124-.023.234-.071a1 1 0 0 0 .207-.124 1.3 1.3 0 0 0 .189-.176l-.3-.162a.9.9 0 0 1-.277.207.8.8 0 0 1-.336.066 1 1 0 0 1-.262-.036.6.6 0 0 1-.202-.101.43.43 0 0 1-.174-.355c0-.073.015-.134.045-.195a.5.5 0 0 1 .124-.156zm1.829-.375.596.61.595-.61h.449l-.867.893v.567h-.354v-.567l-.868-.893z"/>
</svg>