<svg id="strib-weather-day-partly-sunny-lg-color" viewBox="0 0 16 16" width="16" height="16" fill="currentcolor" class="strib-icon strib-weather-day-partly-sunny-lg-color" xmlns="http://www.w3.org/2000/svg" clip-rule="evenodd" fill-rule="evenodd">
  <path fill="var(--weather-cloud-shadow, #839396)" d="M8.767 6.204q.387-.1.795-.101a3.23 3.23 0 0 1 3.226 3.226.19.19 0 0 0 .189.189c.903 0 1.64.737 1.64 1.64a1.64 1.64 0 0 1-1.64 1.639h-1.354a1.83 1.83 0 0 0 1.019-1.639 1.83 1.83 0 0 0-1.829-1.829 3.41 3.41 0 0 0-2.046-3.125m-1.38 3.341a2.02 2.02 0 0 0-1.608-.362 2.19 2.19 0 0 0-1.134-1.777q.272-.08.569-.082l-.002-.002c.464 0 .915.161 1.271.454.043.035.098.05.154.04a.2.2 0 0 0 .109-.06c.41.398.665.955.665 1.573 0 .04-.007.177-.007.217z"/>
  <path fill="var(--weather-cloud-highlight, #afc2c4)" d="m7.387 9.545.017.001c0-.04.007-.177.007-.217 0-.618-.255-1.175-.665-1.573q.012-.015.022-.031a3.24 3.24 0 0 1 1.999-1.522 3.41 3.41 0 0 1 2.046 3.126 1.83 1.83 0 0 1 1.829 1.829 1.83 1.83 0 0 1-1.019 1.639H3.018c-.903 0-1.64-.736-1.64-1.639 0-.892.717-1.623 1.608-1.64l.032.003c.582 0 1.127.313 1.42.819a.19.19 0 0 0 .327 0 1.65 1.65 0 0 1 1.418-.819c.582 0 1.127.313 1.42.819a.19.19 0 0 0 .159.094h.005a.188.188 0 0 0 .159-.283 2 2 0 0 0-.539-.606M4.646 7.406a2.19 2.19 0 0 1 1.133 1.777 2.03 2.03 0 0 0-1.18.729 2.02 2.02 0 0 0-1.384-.76 2.01 2.01 0 0 1 1.431-1.746"/>
  <path fill="var(--weather-sun-highlight, #fff3c0)" d="M4.53 7.046a3.57 3.57 0 0 1 .927-1.596 3.594 3.594 0 0 1 5.553.582 3.6 3.6 0 0 0-1.448-.304 3.61 3.61 0 0 0-3.011 1.629 2.38 2.38 0 0 0-2.021-.311"/>
  <path fill="var(--weather-sun-shadow, #ffc783)" d="M8.989 13.18c-.4.319-.739.719-.99 1.183a3.8 3.8 0 0 0-.991-1.183zM2.848 9.034a3.9 3.9 0 0 0-1.22-1.042 3.84 3.84 0 0 0 1.73-1.921c.343-.83.388-1.733.136-2.583.843.25 1.763.205 2.583-.136a3.85 3.85 0 0 0 1.922-1.73 3.85 3.85 0 0 0 1.922 1.73c.819.339 1.74.386 2.582.136a3.86 3.86 0 0 0 .136 2.583c.338.817.956 1.5 1.73 1.921a3.8 3.8 0 0 0-1.216 1.033 3.6 3.6 0 0 0-1.524-2.644 3.98 3.98 0 0 0-3.63-2.361 3.94 3.94 0 0 0-2.81 1.163A3.95 3.95 0 0 0 4.1 7.223a2.39 2.39 0 0 0-1.252 1.811"/>
  <path fill="var(--weather-outline, #231f20)" d="M7.767 10.434a.19.19 0 0 1-.164-.094 1.65 1.65 0 0 0-1.42-.819c-.583 0-1.125.315-1.418.819a.19.19 0 0 1-.327 0 1.65 1.65 0 0 0-1.42-.819.19.19 0 0 1-.189-.189.19.19 0 0 1 .189-.19c.618 0 1.203.288 1.581.77.378-.479.963-.77 1.581-.77.717 0 1.385.386 1.746 1.009a.188.188 0 0 1-.164.283zM2.503 9.209a3.5 3.5 0 0 0-1.385-1.04.19.19 0 0 1-.116-.174c0-.076.046-.146.116-.174A3.47 3.47 0 0 0 3.01 5.929a3.47 3.47 0 0 0 0-2.676.19.19 0 0 1 .04-.206.19.19 0 0 1 .207-.041 3.5 3.5 0 0 0 2.676 0 3.47 3.47 0 0 0 1.892-1.891c.058-.142.29-.142.35 0a3.48 3.48 0 0 0 1.892 1.891 3.5 3.5 0 0 0 2.676 0 .19.19 0 0 1 .207.041.19.19 0 0 1 .04.206 3.47 3.47 0 0 0 0 2.676 3.52 3.52 0 0 0 1.894 1.892.188.188 0 0 1 0 .348 3.5 3.5 0 0 0-1.389 1.04 2 2 0 0 0-.334-.059l-.008-.125a3.8 3.8 0 0 1 1.216-1.033 3.9 3.9 0 0 1-1.73-1.921 3.86 3.86 0 0 1-.136-2.583 3.9 3.9 0 0 1-2.582-.136 3.84 3.84 0 0 1-1.922-1.73 3.86 3.86 0 0 1-1.922 1.73c-.82.34-1.74.386-2.583.136.252.85.207 1.753-.136 2.583a3.84 3.84 0 0 1-1.73 1.921 3.9 3.9 0 0 1 1.22 1.042l-.012.116q-.171.015-.333.059m7.164 3.969a3.48 3.48 0 0 0-1.489 1.697.19.19 0 0 1-.174.116h-.005a.185.185 0 0 1-.174-.116 3.47 3.47 0 0 0-1.494-1.697h.675c.407.322.743.724.993 1.185.252-.465.591-.865.992-1.185zM4.101 7.223a3.96 3.96 0 0 1 1.088-2.04 3.95 3.95 0 0 1 2.81-1.163c1.617 0 3.011.972 3.63 2.361a3.5 3.5 0 0 0-.619-.349 3.594 3.594 0 0 0-6.48 1.014q-.226.068-.429.177M2.986 9.518a.19.19 0 0 1 .032-.376q.1 0 .197.01a2 2 0 0 0-.008.177.19.19 0 0 1-.189.189zm9.994 3.66H3.018A2.02 2.02 0 0 1 1 11.16c0-1.052.81-1.917 1.836-2.01a2.39 2.39 0 0 1 2.378-2.204c.477 0 .946.144 1.337.411a3.61 3.61 0 0 1 3.011-1.629 3.607 3.607 0 0 1 3.599 3.422 2.02 2.02 0 0 1 1.834 2.01 2.02 2.02 0 0 1-2.018 2.018zM5.214 7.324c-1.107 0-2.007.9-2.007 2.005a.19.19 0 0 1-.189.189c-.906 0-1.64.737-1.64 1.64s.737 1.639 1.64 1.639h9.959a1.64 1.64 0 0 0 1.64-1.639c0-.903-.737-1.64-1.64-1.64a.19.19 0 0 1-.189-.189 3.23 3.23 0 0 0-3.226-3.226 3.23 3.23 0 0 0-2.794 1.622.19.19 0 0 1-.285.051 2 2 0 0 0-1.271-.454zm2.553 3.11a.19.19 0 0 1-.164-.094 1.65 1.65 0 0 0-1.42-.819c-.583 0-1.125.315-1.418.819a.19.19 0 0 1-.327 0 1.65 1.65 0 0 0-1.42-.819.19.19 0 0 1-.189-.189.19.19 0 0 1 .189-.19c.618 0 1.203.288 1.581.77.378-.479.963-.77 1.581-.77.717 0 1.385.386 1.746 1.009a.188.188 0 0 1-.164.283z"/>
</svg>