<svg id="strib-weather-night-partly-cloudy-showers-lg" viewBox="0 0 16 16" width="16" height="16" fill="currentcolor" class="strib-icon strib-weather-night-partly-cloudy-showers-lg" xmlns="http://www.w3.org/2000/svg">
  <path d="M11.223 1.942h-.427a.173.173 0 0 1-.172-.171c0-.094.078-.172.172-.172h.427v-.427c0-.094.078-.172.172-.172s.171.078.171.172v.427h.428c.094 0 .171.078.171.172a.17.17 0 0 1-.171.171h-.428v.428a.172.172 0 0 1-.343 0zM4.516 5.779h-.428a.17.17 0 0 1-.171-.171c0-.094.078-.172.171-.172h.428v-.427c0-.094.078-.172.172-.172s.171.078.171.172v.427h.428c.093 0 .171.078.171.172a.17.17 0 0 1-.171.171h-.428v.428a.173.173 0 0 1-.171.172.173.173 0 0 1-.172-.172zM1.838 3.445c.483.162.647.329.812.811a.17.17 0 0 0 .325 0c.162-.482.329-.649.812-.811a.17.17 0 0 0 .116-.163.17.17 0 0 0-.116-.162c-.483-.165-.648-.332-.812-.812a.17.17 0 0 0-.163-.117.17.17 0 0 0-.162.117c-.162.48-.329.647-.812.812a.17.17 0 0 0-.117.162c0 .073.049.14.117.163m.974-.645c.119.215.268.363.483.482a1.17 1.17 0 0 0-.483.483 1.17 1.17 0 0 0-.482-.483c.215-.119.363-.267.482-.482m7.858 4.308a2.446 2.446 0 0 1 2.383 2.278h.004a1.39 1.39 0 0 1-.167 2.767H6.268A1.39 1.39 0 0 1 4.9 10.541a4.78 4.78 0 0 1-3.156-2.424.17.17 0 0 1 .03-.202.17.17 0 0 1 .201-.029 3.78 3.78 0 0 0 5.073-1.448 3.78 3.78 0 0 0-1.283-5.116.17.17 0 0 1-.076-.189.17.17 0 0 1 .16-.128 4.8 4.8 0 0 1 2.575.64 4.86 4.86 0 0 1 2.246 5.463M2.33 8.421c.375.537.86.983 1.427 1.31h.002c.382.22.798.38 1.237.48a1.39 1.39 0 0 1 1.105-.825 1.635 1.635 0 0 1 1.623-1.471c.311 0 .616.092.876.256a2.44 2.44 0 0 1 1.709-1.047A4.515 4.515 0 0 0 8.253 1.94a4.5 4.5 0 0 0-1.848-.581 4.12 4.12 0 0 1 .938 5.248A4.12 4.12 0 0 1 2.33 8.421m3.933 3.389h6.63a1.046 1.046 0 0 0 0-2.09.173.173 0 0 1-.172-.172 2.1 2.1 0 0 0-2.099-2.099q-.079 0-.158.009h-.007a2.1 2.1 0 0 0-1.655 1.045.17.17 0 0 1-.119.082.17.17 0 0 1-.14-.036 1.289 1.289 0 0 0-2.095.839c.337.046.648.213.869.471a1.4 1.4 0 0 1 1.052-.485c.492 0 .952.266 1.201.693a.172.172 0 1 1-.297.174 1.06 1.06 0 0 0-.906-.524c-.37 0-.718.202-.903.524a.17.17 0 0 1-.149.087.17.17 0 0 1-.149-.085 1.05 1.05 0 0 0-.903-.523 1.046 1.046 0 0 0 0 2.09m2.413.734c.094 0 .171.078.171.171v.618a.172.172 0 0 1-.343 0v-.618c0-.093.078-.171.172-.171m.171 1.667a.172.172 0 0 0-.343 0v.617c0 .094.078.172.172.172a.17.17 0 0 0 .171-.172zm3.428-1.667c.094 0 .172.078.172.171v.618a.17.17 0 0 1-.172.171.17.17 0 0 1-.171-.171v-.618c0-.093.078-.171.171-.171m.172 1.667a.17.17 0 0 0-.172-.171.17.17 0 0 0-.171.171v.617c0 .094.078.172.171.172a.173.173 0 0 0 .172-.172zm-1.971-.171a.17.17 0 0 0-.172.171v.617c0 .094.078.172.172.172a.173.173 0 0 0 .171-.172v-.617a.17.17 0 0 0-.171-.171m-.172-1.325c0-.093.078-.171.172-.171s.171.078.171.171v.618a.17.17 0 0 1-.171.171.17.17 0 0 1-.172-.171zM6.878 14.04a.17.17 0 0 0-.171.171v.617c0 .094.078.172.171.172a.173.173 0 0 0 .172-.172v-.617a.17.17 0 0 0-.172-.171m-.171-1.325c0-.093.078-.171.171-.171s.172.078.172.171v.618a.17.17 0 0 1-.172.171.17.17 0 0 1-.171-.171z"/>
</svg>