<svg id="strib-weather-night-snowy-lg" viewBox="0 0 16 16" width="16" height="16" fill="currentcolor" class="strib-icon strib-weather-night-snowy-lg" xmlns="http://www.w3.org/2000/svg">
  <path d="M12.242 7.073c.186.379.302.796.324 1.239l.002.003a1.785 1.785 0 0 1-.163 3.561H9.609l.274.16a.17.17 0 0 1 .058.23.166.166 0 0 1-.23.058l-.459-.27-.921.547.921.546.459-.27a.168.168 0 1 1 .17.29l-.301.178.39.232a.17.17 0 0 1 .058.23.167.167 0 0 1-.23.058l-.381-.225v.35a.17.17 0 0 1-.167.167.17.17 0 0 1-.167-.167v-.549l-.915-.542v1.091l.462.274a.17.17 0 0 1 .058.23.17.17 0 0 1-.145.082.2.2 0 0 1-.085-.024l-.29-.174v.455a.17.17 0 0 1-.167.167.17.17 0 0 1-.167-.167v-.455l-.29.174a.168.168 0 0 1-.172-.288l.462-.274v-1.093l-.917.542v.549a.165.165 0 0 1-.167.167.167.167 0 0 1-.167-.167v-.35l-.381.225a.167.167 0 0 1-.23-.058.167.167 0 0 1 .058-.23l.39-.232-.301-.178a.168.168 0 0 1 .17-.29l.459.27.921-.547-.921-.544-.459.27a.16.16 0 0 1-.085.022.167.167 0 0 1-.085-.312l.274-.16H3.595a1.786 1.786 0 0 1-1.784-1.784c0-.93.713-1.695 1.623-1.778a2.114 2.114 0 0 1 2.103-1.949c.421 0 .834.13 1.182.364a3.2 3.2 0 0 1 2.415-1.43 3.72 3.72 0 0 0-1.641-3.984.17.17 0 0 1-.074-.186.17.17 0 0 1 .156-.124 4.7 4.7 0 0 1 2.511.624 4.74 4.74 0 0 1 2.156 5.446M8.118 1.351a4.07 4.07 0 0 1 1.359 3.938 3.18 3.18 0 0 1 2.527 1.378 4.41 4.41 0 0 0-2.085-4.75 4.4 4.4 0 0 0-1.801-.566m-.286 10.523h-.73l.73.43zm.334 0v.43l.727-.43zm-4.571-.335h8.81c.799 0 1.45-.651 1.45-1.449 0-.799-.649-1.45-1.45-1.45a.17.17 0 0 1-.167-.167 2.856 2.856 0 0 0-2.852-2.852 2.86 2.86 0 0 0-2.471 1.434.168.168 0 0 1-.252.044 1.775 1.775 0 0 0-2.89 1.216c.482.046.926.29 1.224.669.335-.426.85-.681 1.399-.681a1.79 1.79 0 0 1 1.543.892.167.167 0 0 1-.145.252.17.17 0 0 1-.145-.082 1.47 1.47 0 0 0-1.256-.725c-.513 0-.994.277-1.253.725a.17.17 0 0 1-.145.082.17.17 0 0 1-.145-.082 1.46 1.46 0 0 0-1.255-.725c-.799 0-1.45.651-1.45 1.45a1.45 1.45 0 0 0 1.45 1.449m8.801-9.62h.417v.417c0 .092.076.167.168.167a.17.17 0 0 0 .167-.167v-.417h.417a.17.17 0 0 0 .167-.167.17.17 0 0 0-.167-.167h-.417v-.417A.17.17 0 0 0 12.981 1a.17.17 0 0 0-.168.168v.417h-.417a.17.17 0 0 0-.167.167c0 .091.076.167.167.167M3.664 3.384c.47.159.633.321.791.792a.17.17 0 0 0 .159.114.165.165 0 0 0 .158-.114c.158-.471.321-.633.792-.792a.167.167 0 0 0 0-.316c-.471-.161-.631-.324-.792-.792a.167.167 0 0 0-.317 0c-.158.468-.323.631-.791.792a.17.17 0 0 0-.114.158c0 .071.047.136.114.158m.95-.629c.116.21.261.355.47.471a1.14 1.14 0 0 0-.47.47 1.14 1.14 0 0 0-.471-.47c.21-.116.355-.261.471-.471m.363 10.028a.167.167 0 0 0-.227-.062l-.259.149a.44.44 0 0 0-.187-.107v-.298a.17.17 0 0 0-.167-.168.17.17 0 0 0-.168.168v.307a.5.5 0 0 0-.18.103l-.263-.152a.167.167 0 0 0-.228.06.17.17 0 0 0 .06.23l.261.152a.5.5 0 0 0 0 .214l-.261.151a.166.166 0 0 0-.06.228.17.17 0 0 0 .145.085.15.15 0 0 0 .083-.023l.258-.149a.46.46 0 0 0 .188.105v.301c0 .091.075.167.167.167a.17.17 0 0 0 .167-.167v-.301a.5.5 0 0 0 .185-.107l.261.149a.166.166 0 0 0 .228-.062.17.17 0 0 0-.061-.228l-.258-.149a.5.5 0 0 0 0-.214l.258-.15a.165.165 0 0 0 .061-.227zm-.669.587a.206.206 0 0 1-.272.073.2.2 0 0 1 .098-.372q.055 0 .099.027a.2.2 0 0 1 .073.272zm8.169-.647a.165.165 0 0 1 .227.06v-.004c.047.08.02.183-.06.23l-.261.151a.6.6 0 0 1 0 .214l.261.152a.166.166 0 0 1 .06.227.166.166 0 0 1-.227.063l-.259-.15a.4.4 0 0 1-.089.065q-.047.025-.098.04v.301a.168.168 0 1 1-.335 0v-.301a.5.5 0 0 1-.185-.107l-.261.15a.16.16 0 0 1-.082.022.17.17 0 0 1-.145-.085.165.165 0 0 1 .06-.227l.259-.15a.5.5 0 0 1 0-.214l-.259-.149a.167.167 0 0 1-.06-.228.165.165 0 0 1 .227-.062l.259.149a1 1 0 0 1 .087-.062.4.4 0 0 1 .1-.045v-.298a.168.168 0 1 1 .335 0v.307a.5.5 0 0 1 .182.103zm-.616.747a.2.2 0 0 0 .1-.027h-.002a.2.2 0 0 0-.1-.372.2.2 0 0 0 .002.399"/>
</svg>