<svg id="strib-weather-day-night-sleet" viewBox="0 0 16 16" width="16" height="16" fill="currentcolor" class="strib-icon strib-weather-day-night-sleet" xmlns="http://www.w3.org/2000/svg">
  <path d="M6.36 3.215c-.979-.352-2.419-.347-3.368.61H2.99a3.32 3.32 0 0 0-.772 3.538A3.31 3.31 0 0 0 5.14 9.498h4.865c2.277-.062 3.708-1.945 3.944-3.6.308-2.025-.824-3.996-2.702-4.682a4 4 0 0 0-1.058-.213C8.496.937 7.062 2.031 6.36 3.215m3.78-1.711c.301.04.642.074.932.182h.002c1.651.602 2.656 2.342 2.381 4.142-.203 1.425-1.458 3.113-3.46 3.17H5.163a2.81 2.81 0 0 1-2.477-1.812 2.82 2.82 0 0 1 .658-3.007h.002c.827-.837 2.009-.792 3.051-.449a.25.25 0 0 0 .296-.116c.713-1.286 2.102-2.157 3.447-2.11M5.986 13.001a.24.24 0 0 0-.111.034l-1.743.996a.3.3 0 0 0-.075.063.26.26 0 0 0-.051.186.2.2 0 0 0 .031.093.24.24 0 0 0 .25.124.2.2 0 0 0 .093-.032l1.743-.996a.25.25 0 0 0 .12-.289.25.25 0 0 0-.257-.179"/>
  <path d="M5.124 12.5a.24.24 0 0 0-.095.02.3.3 0 0 0-.081.055.26.26 0 0 0-.071.178v1.994a.26.26 0 0 0 .072.179.3.3 0 0 0 .082.055.26.26 0 0 0 .193 0 .3.3 0 0 0 .081-.055.24.24 0 0 0 .054-.083.2.2 0 0 0 .018-.096v-1.994a.2.2 0 0 0-.018-.097.24.24 0 0 0-.055-.083.24.24 0 0 0-.18-.073"/>
  <path d="M4.236 13.001a.25.25 0 0 0-.147.059.25.25 0 0 0 .043.409l1.743.996a.24.24 0 0 0 .093.032.2.2 0 0 0 .098-.006.24.24 0 0 0 .153-.118.25.25 0 0 0-.096-.342l-1.743-.996a.24.24 0 0 0-.144-.034m7.499 0a.24.24 0 0 0-.111.034l-1.743.996a.3.3 0 0 0-.075.063.26.26 0 0 0-.052.186.25.25 0 0 0 .375.185l1.743-.996a.24.24 0 0 0 .11-.123.26.26 0 0 0 .01-.166.25.25 0 0 0-.257-.179"/>
  <path d="M10.873 12.5a.25.25 0 0 0-.229.157.3.3 0 0 0-.018.096v1.994a.26.26 0 0 0 .072.179.26.26 0 0 0 .178.074.3.3 0 0 0 .097-.019.25.25 0 0 0 .153-.234v-1.994a.25.25 0 0 0-.253-.253"/>
  <path d="M9.984 13.001a.248.248 0 0 0-.211.352q.036.076.108.116l1.743.996q.043.026.093.032a.2.2 0 0 0 .098-.006.24.24 0 0 0 .152-.118.25.25 0 0 0-.095-.342l-1.743-.996a.25.25 0 0 0-.145-.034m-1.492-1.25a.24.24 0 0 0-.105.027.3.3 0 0 0-.083.068l-.995 1.245a.24.24 0 0 0-.059.187.3.3 0 0 0 .028.096.3.3 0 0 0 .065.076.24.24 0 0 0 .188.053.25.25 0 0 0 .169-.1l.995-1.244a.249.249 0 0 0-.203-.408m5.748 0a.25.25 0 0 0-.187.095l-.995 1.245a.25.25 0 1 0 .391.312l.994-1.244a.25.25 0 0 0 .055-.131.248.248 0 0 0-.258-.277m-11.497 0a.24.24 0 0 0-.104.027.24.24 0 0 0-.083.068l-.995 1.245a.25.25 0 1 0 .39.312l.995-1.244a.25.25 0 0 0 .03-.27.25.25 0 0 0-.233-.138"/>
</svg>