<svg id="strib-weather-night-partly-cloudy-thunderstorms-lg-color" viewBox="0 0 16 16" width="16" height="16" fill="currentcolor" class="strib-icon strib-weather-night-partly-cloudy-thunderstorms-lg-color" xmlns="http://www.w3.org/2000/svg" clip-rule="evenodd" fill-rule="evenodd">
  <path fill="var(--weather-moon-shadow, #afc2c4)" d="M8.363 8.029q.296-.339.53-.742a4.65 4.65 0 0 0-.342-5.162 4.495 4.495 0 0 1 1.758 4.985 2.45 2.45 0 0 0-1.708 1.044 1.6 1.6 0 0 0-.238-.125m-3.366 2.164a4.5 4.5 0 0 1-1.824-.898c.769.3 1.585.383 2.367.268-.24.149-.43.369-.543.63"/>
  <path fill="var(--weather-moon-highlight, #d3eaea)" d="M5.54 9.563a4.65 4.65 0 0 1-2.367-.268 4.5 4.5 0 0 1-.829-.894h.002a4.134 4.134 0 0 0 5-1.807 4.11 4.11 0 0 0-.935-5.236 4.5 4.5 0 0 1 2.14.767 4.65 4.65 0 0 1-.188 5.904 1.626 1.626 0 0 0-2.255 1.334c-.207.025-.4.095-.568.2M2.344 3.275c.214-.119.363-.267.481-.482.119.215.267.363.481.482a1.17 1.17 0 0 0-.481.481 1.16 1.16 0 0 0-.481-.481"/>
  <path fill="var(--weather-cloud-highlight, #afc2c4)" d="M12.058 11.781h-1.972l.292-.723a.173.173 0 0 0-.159-.235H9.092a.17.17 0 0 0-.16.107l-.342.851H6.27a1.043 1.043 0 0 1 0-2.085.17.17 0 0 0 .171-.171c0-.596.408-1.099.961-1.243.421.255.701.716.702 1.243v.002c0 .027-.005.052-.007.078l1.081.064.005-.144c0-.393-.156-.75-.41-1.012l.022-.03a2.1 2.1 0 0 1 1.353-1 2.26 2.26 0 0 1 1.289 2.042 1.213 1.213 0 0 1 .621 2.256"/>
  <path fill="var(--weather-cloud-shadow, #839396)" d="M10.148 7.483a2.097 2.097 0 0 1 2.557 2.042c0 .094.077.171.171.171a1.043 1.043 0 0 1 0 2.085h-.818a1.213 1.213 0 0 0-.621-2.256c0-.901-.527-1.677-1.289-2.042M8.104 9.527v-.002a1.45 1.45 0 0 0-.702-1.243q.155-.04.323-.041v-.002c.301 0 .582.1.814.289a.17.17 0 0 0 .14.037.17.17 0 0 0 .094-.052c.254.262.41.619.41 1.012l-.005.144-1.081-.064q.005-.038.007-.078"/>
  <path fill="var(--weather-sun-highlight, #fff3c0)" d="m8.569 12.742.634-1.574h.758l-.292.723a.17.17 0 0 0 .018.159.17.17 0 0 0 .142.076h.645L8.927 14.09l.29-1.134a.17.17 0 0 0-.164-.214z"/>
  <path fill="var(--weather-outline, #231f20)" d="M11.982 1.938h-1.193a.17.17 0 0 1-.171-.171c0-.094.077-.171.171-.171h1.193c.093 0 .171.077.171.171a.173.173 0 0 1-.171.171m-.598.598a.173.173 0 0 1-.171-.171V1.171c0-.093.078-.171.171-.171s.171.078.171.171v1.194a.17.17 0 0 1-.171.171M5.291 5.768H4.098a.17.17 0 0 1-.171-.171c0-.094.077-.171.171-.171h1.193c.094 0 .171.077.171.171a.17.17 0 0 1-.171.171m-.595.598a.17.17 0 0 1-.171-.171V5.002c0-.094.077-.172.171-.172.093 0 .171.078.171.172v1.193a.173.173 0 0 1-.171.171M2.825 4.363a.17.17 0 0 1-.162-.117c-.162-.481-.328-.647-.81-.809a.17.17 0 0 1-.116-.162.17.17 0 0 1 .116-.162c.482-.165.648-.331.81-.81a.171.171 0 0 1 .324 0c.162.479.329.645.81.81a.17.17 0 0 1 .116.162.17.17 0 0 1-.116.162c-.479.162-.646.328-.81.809a.17.17 0 0 1-.162.117m-.481-1.088c.214.118.363.267.481.481.119-.214.267-.363.481-.481a1.17 1.17 0 0 1-.481-.482 1.16 1.16 0 0 1-.481.482m2.558 7.247q.027-.173.095-.329.172.04.347.067a1 1 0 0 0-.106.329 4 4 0 0 1-.336-.067m2.725-.516a1 1 0 0 0-.162.213.174.174 0 0 1-.297 0l-.033-.054q.25-.065.492-.159m1.447-.456c.199.119.37.288.49.495a.17.17 0 0 1-.062.233.2.2 0 0 1-.087.023l.003.002a.17.17 0 0 1-.149-.084 1.06 1.06 0 0 0-.498-.44 5 5 0 0 0 .303-.229m1.836 2.573-2.213 2.811a.17.17 0 0 1-.135.066.17.17 0 0 1-.164-.214l.436-1.704h-.513a.17.17 0 0 1-.142-.076.17.17 0 0 1-.018-.159l.291-.724h.366l-.249.619h.484a.17.17 0 0 1 .164.214l-.29 1.134 1.547-1.964h-.645l-.032-.003zM6.267 9.696a.17.17 0 0 1-.171-.171c0-.093.078-.171.171-.171q.093 0 .184.012a1 1 0 0 0-.01.159.17.17 0 0 1-.171.171zm.184-.33c.336.046.646.214.866.472a1.38 1.38 0 0 1 1.398-.439q-.218.165-.454.302a1.04 1.04 0 0 0-.634.305 5 5 0 0 1-.492.159 1.05 1.05 0 0 0-.865-.469.17.17 0 0 0 .171-.171q0-.081.01-.159m2.367 2.757h-.366l.138-.342h.366zm1.491-5.013a2.4 2.4 0 0 1 .357-.018 5 5 0 0 1-.106.34 2 2 0 0 0-.378.044q.072-.181.127-.366m-5.407 3.412a4.82 4.82 0 0 1-3.144-2.425.17.17 0 0 1 .23-.23 3.8 3.8 0 0 0 1.782.447 3.8 3.8 0 0 0 3.278-1.891 3.77 3.77 0 0 0-1.28-5.103.172.172 0 0 1 .084-.317 4.83 4.83 0 0 1 2.569.638 4.84 4.84 0 0 1 2.245 5.451l-.053-.001q-.154 0-.304.019a4.49 4.49 0 0 0-2.055-5.172 4.5 4.5 0 0 0-1.843-.58 4.11 4.11 0 0 1 .935 5.236 4.134 4.134 0 0 1-5 1.807h-.002a4.48 4.48 0 0 0 2.653 1.792 1.4 1.4 0 0 0-.095.329m5.764-3.43a2.44 2.44 0 0 1 2.379 2.273 1.386 1.386 0 0 1-.167 2.761l-.002-.003H10.91l.052-.066a.17.17 0 0 0 .021-.18.17.17 0 0 0-.153-.096h2.046a1.043 1.043 0 0 0 0-2.085.17.17 0 0 1-.171-.171 2.097 2.097 0 0 0-2.145-2.093q.06-.17.106-.34M8.771 9.779a1 1 0 0 0-.51-.078q.236-.137.454-.302.19.052.359.151a5 5 0 0 1-.303.229m1.411-2.303a2.1 2.1 0 0 0-1.387 1.007.17.17 0 0 1-.116.082.17.17 0 0 1-.14-.037 1.27 1.27 0 0 0-.814-.289v.002c-.655 0-1.196.493-1.274 1.125a1.4 1.4 0 0 0-.184-.012.173.173 0 0 0-.171.171c0 .094.078.171.171.171-.401.001-.75.23-.923.564a5 5 0 0 1-.347-.067c.192-.444.611-.77 1.111-.83a1.628 1.628 0 0 1 2.493-1.209 2.45 2.45 0 0 1 1.708-1.044 4 4 0 0 1-.127.366m-.096 4.305h-.373l.248-.613h-.758l-.247.613H8.59l.342-.851a.17.17 0 0 1 .16-.107h1.127a.173.173 0 0 1 .159.235zm-1.634.342H6.27a1.385 1.385 0 0 1-1.368-1.601q.167.04.336.067a1.043 1.043 0 0 0 1.032 1.192h2.32zm2.458 0H9.797a.17.17 0 0 1-.11-.073.17.17 0 0 1-.018-.159l.044-.11h1.117c.066 0 .125.037.153.096s.02.13-.021.18z"/>
</svg>