<svg id="strib-weather-night-partly-cloudy-thunderstorms-lg-color" viewBox="0 0 16 16" width="16" height="16" fill="currentcolor" class="strib-icon strib-weather-night-partly-cloudy-thunderstorms-lg-color" xmlns="http://www.w3.org/2000/svg">
  <path fill="var(--weather-sun-highlight, #fff3c0)" d="M9.216 12.952a.18.18 0 0 0-.03-.148.17.17 0 0 0-.135-.067H8.57l.634-1.573h.758l-.292.723a.17.17 0 0 0 .018.159.17.17 0 0 0 .141.076h.646l-1.547 1.963h-.002z"/>
  <path fill="var(--weather-moon-highlight, #d3eaea)" d="M2.827 2.795c.119.214.267.363.481.481a1.16 1.16 0 0 0-.481.482 1.16 1.16 0 0 0-.481-.482c.214-.118.362-.267.481-.481m5.724-.67a4.68 4.68 0 0 1-.187 5.903 1.6 1.6 0 0 0-.64-.133 1.636 1.636 0 0 0-1.619 1.464 1.4 1.4 0 0 0-.574.205 4.65 4.65 0 0 1-2.354-.267 4.5 4.5 0 0 1-.831-.898A4.11 4.11 0 0 0 7.345 6.59a4.124 4.124 0 0 0-.935-5.234 4.5 4.5 0 0 1 1.843.579q.154.09.298.19"/>
  <path fill="var(--weather-moon-shadow, #afc2c4)" d="M8.364 8.028a4.68 4.68 0 0 0 .187-5.903 4.51 4.51 0 0 1 1.753 4.981c-.691.09-1.312.47-1.706 1.045a2 2 0 0 0-.234-.123M3.177 9.297c.748.29 1.559.383 2.354.267-.23.146-.417.36-.528.619a4.5 4.5 0 0 1-1.234-.479v.002a4.5 4.5 0 0 1-.592-.409"/>
  <path fill="var(--weather-cloud-highlight, #afc2c4)" d="M7.402 8.282c.383.232.649.634.695 1.1a1.4 1.4 0 0 0-.777.456 1.4 1.4 0 0 0-.866-.469 1.29 1.29 0 0 1 .948-1.087"/>
  <path fill="var(--weather-cloud-highlight, #afc2c4)" d="m9.18 9.619.003-.094c0-.391-.155-.747-.407-1.009l.022-.03a2.1 2.1 0 0 1 1.359-.999 2.27 2.27 0 0 1 1.28 2.038h.002c.663.007 1.206.55 1.213 1.213 0 .427-.225.823-.591 1.041h-1.979l.292-.723a.17.17 0 0 0-.018-.159.17.17 0 0 0-.141-.076H9.088a.18.18 0 0 0-.16.108l-.342.85H6.269a1.043 1.043 0 0 1-1.043-1.042 1.04 1.04 0 0 1 1.944-.52.172.172 0 0 0 .296-.002 1.042 1.042 0 0 1 1.804.002.17.17 0 0 0 .149.084h.003a.17.17 0 0 0 .169-.169q0-.046-.024-.086a1.4 1.4 0 0 0-.387-.427"/>
  <path fill="var(--weather-cloud-shadow, #839396)" d="M8.097 9.382a1.45 1.45 0 0 0-.695-1.1q.158-.042.327-.042c.297 0 .584.103.814.291.039.032.09.046.139.037a.17.17 0 0 0 .094-.052c.252.262.407.618.407 1.009l-.003.094a1.38 1.38 0 0 0-1.083-.237m3.964 2.397c.366-.218.591-.614.591-1.041a1.23 1.23 0 0 0-1.213-1.213h-.002a2.27 2.27 0 0 0-1.28-2.038q.144-.032.293-.044h.007l.04-.003q.057-.007.115-.008a2.106 2.106 0 0 1 2.093 2.094c.001.094.078.17.172.171.574 0 1.042.468 1.042 1.042s-.468 1.043-1.042 1.043l-.003-.003z"/>
  <path fill="var(--weather-outline, #231f20)" d="M11.216 1.94h-.426a.174.174 0 0 1-.172-.171c0-.094.078-.171.172-.171h.426v-.427c0-.093.078-.171.171-.171s.171.078.171.171v.427h.427c.093 0 .171.077.171.171a.174.174 0 0 1-.171.171h-.427v.427c0 .093-.077.17-.17.17h-.002a.17.17 0 0 1-.17-.17zm-6.69 3.829h-.427a.17.17 0 0 1-.17-.17v-.001c0-.093.077-.171.171-.171h.426v-.426c0-.094.078-.171.171-.171s.171.077.171.171v.426h.427c.093 0 .171.078.171.171v.001c0 .093-.077.17-.17.17h-.428v.428c0 .093-.077.17-.17.17h-.001a.174.174 0 0 1-.171-.171zM1.855 3.438c.482.162.648.329.81.81a.171.171 0 0 0 .324 0c.162-.481.328-.648.81-.81a.171.171 0 0 0 0-.324c-.482-.164-.646-.33-.81-.809a.17.17 0 0 0-.324 0c-.162.479-.328.645-.81.809a.171.171 0 0 0 0 .324m.972-.643c.119.214.267.363.481.481a1.16 1.16 0 0 0-.481.482 1.16 1.16 0 0 0-.481-.482c.214-.118.362-.267.481-.481m7.837 4.297a2.45 2.45 0 0 1 2.377 2.272h.002a1.39 1.39 0 0 1 1.219 1.375c0 .76-.625 1.385-1.385 1.385H10.91l-2.212 2.81a.17.17 0 0 1-.21.048.175.175 0 0 1-.089-.196l.436-1.704h-.516a.17.17 0 0 1-.157-.235l.292-.723H6.273a1.39 1.39 0 0 1-1.364-1.608 5 5 0 0 1-1.307-.511 4.8 4.8 0 0 1-1.84-1.907.171.171 0 0 1 .23-.23 3.787 3.787 0 0 0 5.059-1.444 3.79 3.79 0 0 0-1.279-5.102.17.17 0 0 1 .084-.317c.903-.03 1.79.191 2.568.638a4.86 4.86 0 0 1 2.24 5.449M2.346 8.399c.373.535.859.981 1.423 1.307v-.002c.381.219.796.378 1.234.479a1.38 1.38 0 0 1 1.102-.824 1.636 1.636 0 0 1 1.619-1.464c.31 0 .614.091.874.256a2.45 2.45 0 0 1 1.706-1.045 4.51 4.51 0 0 0-2.051-5.171 4.5 4.5 0 0 0-1.843-.579 4.124 4.124 0 0 1 .935 5.234 4.11 4.11 0 0 1-4.999 1.809m6.87 4.553-.29 1.133h.002l1.547-1.963h-.646a.17.17 0 0 1-.141-.076.17.17 0 0 1-.018-.159l.292-.723h-.758l-.634 1.573h.481a.17.17 0 0 1 .135.067c.03.043.043.098.03.148m.866-1.173h2.792l.003.003c.574 0 1.042-.468 1.042-1.043 0-.574-.468-1.042-1.042-1.042a.174.174 0 0 1-.172-.171 2.106 2.106 0 0 0-2.093-2.094 1 1 0 0 0-.115.008l-.04.003h-.007a2.1 2.1 0 0 0-1.652 1.043.17.17 0 0 1-.255.045 1.285 1.285 0 0 0-2.089.838c.335.045.645.212.866.469.26-.303.644-.483 1.05-.483.49 0 .948.264 1.197.691a.2.2 0 0 1 .024.086.17.17 0 0 1-.169.169h-.003a.17.17 0 0 1-.149-.084 1.044 1.044 0 0 0-1.804-.002.17.17 0 0 1-.296.002 1.04 1.04 0 0 0-1.944.52c0 .575.468 1.042 1.043 1.042h2.317l.342-.85a.18.18 0 0 1 .16-.108h1.127c.057 0 .109.028.141.076a.17.17 0 0 1 .018.159z"/>
</svg>