<svg id="strib-weather-day-night-showers-lg" viewBox="0 0 16 16" width="16" height="16" fill="currentcolor" class="strib-icon strib-weather-day-night-showers-lg" xmlns="http://www.w3.org/2000/svg">
  <path d="M13.166 5.115a3.61 3.61 0 0 0-3.6-3.424 3.62 3.62 0 0 0-3.013 1.63 2.4 2.4 0 0 0-1.337-.411 2.39 2.39 0 0 0-2.379 2.205A2.02 2.02 0 0 0 1 7.126c0 1.112.906 2.018 2.018 2.018h9.964A2.02 2.02 0 0 0 15 7.126a2.02 2.02 0 0 0-1.834-2.011m-.184 3.651H3.016c-.906 0-1.64-.737-1.64-1.64s.737-1.64 1.64-1.64a1.65 1.65 0 0 1 1.42.82.19.19 0 0 0 .164.093.19.19 0 0 0 .164-.093c.293-.507.838-.82 1.418-.82s1.125.315 1.421.82c.035.06.098.093.164.093a.187.187 0 0 0 .161-.282 2.02 2.02 0 0 0-1.746-1.01c-.62 0-1.203.288-1.582.77a2.02 2.02 0 0 0-1.385-.757 2.009 2.009 0 0 1 3.27-1.375.192.192 0 0 0 .285-.05 3.24 3.24 0 0 1 2.796-1.623 3.23 3.23 0 0 1 3.226 3.227.19.19 0 0 0 .19.189c.905 0 1.64.737 1.64 1.64 0 .904-.737 1.64-1.64 1.64zm-1.199 1.38a.19.19 0 0 0-.189.189v1.262a.189.189 0 1 0 .378 0v-1.262a.19.19 0 0 0-.189-.189m-2.712 2.712a.19.19 0 0 1 .379 0v1.261a.19.19 0 1 1-.379 0zm2.712-.189a.19.19 0 0 0-.189.189v1.261a.19.19 0 1 0 .378 0v-1.261a.19.19 0 0 0-.189-.189m-7.758.189a.19.19 0 0 1 .379 0v1.261a.19.19 0 1 1-.379 0zm.189-2.712a.19.19 0 0 0-.189.189v1.262a.19.19 0 0 0 .379 0v-1.262a.19.19 0 0 0-.19-.189m2.713.189a.19.19 0 0 0-.19-.189.19.19 0 0 0-.189.189v1.262a.19.19 0 0 0 .189.189c.104 0 .19-.086.19-.189zm2.333-.189c.104 0 .19.086.19.189v1.262a.19.19 0 0 1-.19.189.19.19 0 0 1-.189-.189v-1.262a.19.19 0 0 1 .189-.189m-2.712 2.712a.19.19 0 0 1 .379 0v1.261a.19.19 0 1 1-.379 0z"/>
</svg>