<svg id="strib-weather-day-night-ice-lg-color" viewBox="0 0 16 16" width="16" height="16" fill="currentcolor" class="strib-icon strib-weather-day-night-ice-lg-color" xmlns="http://www.w3.org/2000/svg" clip-rule="evenodd" fill-rule="evenodd">
  <path fill="var(--weather-cloud-highlight, #afc2c4)" d="M11.633 8.763H3.018c-.903 0-1.64-.737-1.64-1.64 0-.893.718-1.623 1.609-1.64q.015.003.031.003c.583 0 1.128.313 1.421.82a.19.19 0 0 0 .164.093.19.19 0 0 0 .164-.093c.292-.505.835-.82 1.418-.82s1.127.313 1.42.82a.19.19 0 0 0 .257.068.19.19 0 0 0 .069-.257 2 2 0 0 0-.54-.607l.015.001c0-.04.007-.177.007-.217 0-.618-.255-1.175-.666-1.574l.023-.031a3.23 3.23 0 0 1 2-1.521 3.42 3.42 0 0 1 2.047 3.129 1.83 1.83 0 0 1 .816 3.466M5.781 5.149a2.03 2.03 0 0 0-1.178.728 2.03 2.03 0 0 0-1.387-.76 2.01 2.01 0 0 1 1.43-1.747 2.19 2.19 0 0 1 1.135 1.779m.205 1.624v1.461H5.63V6.773zm1.995.502a1 1 0 0 0-.283-.192.85.85 0 0 0-.355-.071 1 1 0 0 0-.25.036.7.7 0 0 0-.192.1.46.46 0 0 0-.123.551q.045.09.128.156a.6.6 0 0 0 .202.101.95.95 0 0 0 .598-.03.9.9 0 0 0 .278-.207l.3.161a1.3 1.3 0 0 1-.189.177 1 1 0 0 1-.442.194 1.5 1.5 0 0 1-.631-.023 1.3 1.3 0 0 1-.325-.141.69.69 0 0 1-.323-.588.66.66 0 0 1 .252-.53 1 1 0 0 1 .331-.176q.189-.062.408-.063.3 0 .525.106.23.106.406.325l-.323.116zm1.524.391v.57h-.356v-.57l-.868-.893h.449l.596.61.595-.61h.449l-.868.893z"/>
  <path fill="var(--weather-cloud-shadow, #839396)" d="M7.391 5.51a2.02 2.02 0 0 0-1.61-.361A2.19 2.19 0 0 0 4.646 3.37q.272-.08.57-.082l-.003-.002c.465 0 .916.161 1.272.454a.19.19 0 0 0 .262-.02c.411.399.666.956.666 1.574 0 .04-.007.177-.007.217zm4.242 3.253a1.83 1.83 0 0 0-.816-3.466c0-1.4-.843-2.601-2.047-3.129q.387-.1.796-.101a3.23 3.23 0 0 1 3.226 3.227.19.19 0 0 0 .19.189c.903 0 1.64.737 1.64 1.64s-.735 1.64-1.64 1.64z"/>
  <path fill="var(--weather-outline, #231f20)" d="M12.984 9.144H3.018A2.02 2.02 0 0 1 1 7.126c0-1.052.81-1.918 1.837-2.011A2.39 2.39 0 0 1 5.216 2.91c.477 0 .946.144 1.337.411a3.61 3.61 0 0 1 3.013-1.63 3.61 3.61 0 0 1 3.6 3.424A2.02 2.02 0 0 1 15 7.126a2.02 2.02 0 0 1-2.018 2.018zM5.216 3.288a2.01 2.01 0 0 0-2.008 2.006.19.19 0 0 1-.19.189c-.905 0-1.64.737-1.64 1.64s.737 1.64 1.64 1.64h9.964c.905 0 1.64-.737 1.64-1.64s-.737-1.64-1.64-1.64a.19.19 0 0 1-.19-.189 3.23 3.23 0 0 0-3.226-3.227A3.23 3.23 0 0 0 6.77 3.689a.19.19 0 0 1-.285.051 2 2 0 0 0-1.272-.454zm2.553 3.111a.19.19 0 0 1-.164-.093 1.64 1.64 0 0 0-1.42-.82c-.583 0-1.126.315-1.418.82a.19.19 0 0 1-.164.093.19.19 0 0 1-.164-.093 1.65 1.65 0 0 0-1.421-.82.19.19 0 0 1-.189-.189c0-.104.086-.19.189-.19.621 0 1.204.288 1.585.77.378-.479.964-.77 1.582-.77.716 0 1.385.386 1.746 1.01a.188.188 0 0 1-.162.282m4.017 5.387a.19.19 0 0 1-.189-.189v-1.262a.19.19 0 0 1 .189-.189.19.19 0 0 1 .189.189v1.262a.19.19 0 0 1-.189.189m-2.523 2.523a.19.19 0 0 1-.189-.19v-1.261a.19.19 0 0 1 .189-.189.19.19 0 0 1 .189.189v1.261c0 .104-.086.19-.189.19m2.523 0a.19.19 0 0 1-.189-.19v-1.261a.19.19 0 0 1 .189-.189.19.19 0 0 1 .189.189v1.261c0 .104-.086.19-.189.19m-7.569 0a.19.19 0 0 1-.189-.19v-1.261a.19.19 0 0 1 .189-.189.19.19 0 0 1 .189.189v1.261c0 .104-.086.19-.189.19m0-2.523a.19.19 0 0 1-.189-.189v-1.262a.19.19 0 0 1 .189-.189.19.19 0 0 1 .189.189v1.262a.19.19 0 0 1-.189.189m2.523-1.64a.19.19 0 0 1 .189.189v1.262a.19.19 0 0 1-.189.189.19.19 0 0 1-.189-.189v-1.262a.19.19 0 0 1 .189-.189m2.523 0a.19.19 0 0 1 .189.189v1.262a.19.19 0 0 1-.189.189.19.19 0 0 1-.189-.189v-1.262a.19.19 0 0 1 .189-.189M6.74 14.309a.19.19 0 0 1-.189-.19v-1.261a.19.19 0 0 1 .189-.189.19.19 0 0 1 .189.189v1.261c0 .104-.086.19-.189.19m-.754-7.536v1.461H5.63V6.773zm1.995.502a1 1 0 0 0-.283-.192.85.85 0 0 0-.355-.071 1 1 0 0 0-.25.036.7.7 0 0 0-.192.1.46.46 0 0 0-.123.551q.045.09.128.156a.6.6 0 0 0 .202.101.95.95 0 0 0 .598-.03.9.9 0 0 0 .278-.207l.3.161a1.3 1.3 0 0 1-.189.177 1 1 0 0 1-.442.194 1.5 1.5 0 0 1-.631-.023 1.3 1.3 0 0 1-.325-.141.69.69 0 0 1-.323-.588.66.66 0 0 1 .252-.53 1 1 0 0 1 .331-.176q.189-.062.408-.063.3 0 .525.106.23.106.406.325l-.323.116zm1.524.391v.57h-.356v-.57l-.868-.893h.449l.596.61.595-.61h.449l-.868.893z"/>
</svg>