<svg id="strib-weather-day-night-cloudy-lg" viewBox="0 0 16 16" width="16" height="16" fill="currentcolor" class="strib-icon strib-weather-day-night-cloudy-lg" xmlns="http://www.w3.org/2000/svg">
  <path d="M13.862 11.087c-.002-.051-.012-.099-.018-.146A2.03 2.03 0 0 0 15 9.124a2.02 2.02 0 0 0-1.834-2.011 3.61 3.61 0 0 0-3.6-3.424 3.6 3.6 0 0 0-2.246.79 1.4 1.4 0 0 0-1.269-.805h-.093a1.904 1.904 0 0 0-3.664.005A1.413 1.413 0 0 0 2.413 6.5h.555a2.4 2.4 0 0 0-.131.613A2.02 2.02 0 0 0 1 9.124a2.02 2.02 0 0 0 2.018 2.018h4.088a1.32 1.32 0 0 0 .416 2.571h6.158a1.32 1.32 0 0 0 .182-2.626M2.41 6.119a1.035 1.035 0 1 1 .853-1.62.19.19 0 0 0 .263.048.187.187 0 0 0 .047-.262 1.42 1.42 0 0 0-.89-.583 1.523 1.523 0 0 1 2.937.197.19.19 0 0 0 .186.154h.242c.445 0 .828.282.972.696a3.6 3.6 0 0 0-.469.573 2.4 2.4 0 0 0-1.338-.411c-.888 0-1.662.489-2.074 1.211H2.41zM1.376 9.121c0-.905.737-1.639 1.64-1.639.583 0 1.125.315 1.42.819a.19.19 0 0 0 .164.094.19.19 0 0 0 .164-.094 1.64 1.64 0 0 1 1.418-.819c.58 0 1.125.315 1.421.819a.187.187 0 0 0 .257.069.19.19 0 0 0 .068-.258 2.02 2.02 0 0 0-1.746-1.009c-.62 0-1.203.288-1.582.77a2.02 2.02 0 0 0-1.385-.757 2.008 2.008 0 0 1 3.27-1.375.19.19 0 0 0 .285-.051 3.24 3.24 0 0 1 2.796-1.622 3.23 3.23 0 0 1 3.226 3.227c0 .103.086.189.19.189.905 0 1.64.737 1.64 1.64a1.65 1.65 0 0 1-.863 1.441 2.305 2.305 0 0 0-2.19-1.6c-.752 0-1.453.371-1.882.981a1.548 1.548 0 0 0-2.269.82H3.016a1.64 1.64 0 0 1-1.64-1.639zm12.304 4.214H7.522a.941.941 0 1 1 .815-1.411c.068.117.26.117.328 0a.95.95 0 0 1 .815-.471c.335 0 .646.181.815.471a.19.19 0 0 0 .164.094.2.2 0 0 0 .096-.025.19.19 0 0 0 .068-.26 1.318 1.318 0 0 0-2.122-.225 1.33 1.33 0 0 0-.772-.416 1.165 1.165 0 0 1 1.889-.732.19.19 0 0 0 .286-.05 1.93 1.93 0 0 1 1.665-.967c1.059 0 1.922.863 1.922 1.923a.19.19 0 0 0 .189.189.942.942 0 0 1 0 1.882z"/>
</svg>