<svg id="strib-weather-day-night-ice" viewBox="0 0 16 16" width="16" height="16" fill="currentcolor" class="strib-icon strib-weather-day-night-ice" xmlns="http://www.w3.org/2000/svg">
  <path d="M12.444 4.722a2.6 2.6 0 0 0-.647.084A3.864 3.864 0 0 0 8 1.683a3.864 3.864 0 0 0-3.797 3.123A2.56 2.56 0 0 0 1 7.278a2.56 2.56 0 0 0 2.556 2.556h8.888A2.56 2.56 0 0 0 15 7.278a2.56 2.56 0 0 0-2.556-2.556m0 4.283H3.556a1.73 1.73 0 0 1-1.727-1.727 1.73 1.73 0 0 1 2.528-1.529.416.416 0 0 0 .607-.347A3.035 3.035 0 0 1 8 2.512a3.035 3.035 0 0 1 3.036 2.89.416.416 0 0 0 .607.347q.375-.197.801-.198a1.73 1.73 0 0 1 1.727 1.727c0 .953-.775 1.727-1.727 1.727m-8.382 1.467a.414.414 0 0 0-.414.415v1.247a.414.414 0 1 0 .829 0v-1.247a.415.415 0 0 0-.415-.415m2.626 0a.415.415 0 0 0-.415.415v1.247a.415.415 0 0 0 .829 0v-1.247a.414.414 0 0 0-.414-.415m2.624 0a.414.414 0 0 0-.414.415v1.247a.414.414 0 1 0 .829 0v-1.247a.415.415 0 0 0-.415-.415M5.375 12.24a.414.414 0 0 0-.414.415v1.248a.414.414 0 1 0 .828 0v-1.248a.414.414 0 0 0-.414-.415m2.625 0a.414.414 0 0 0-.414.415v1.248a.414.414 0 1 0 .829 0v-1.248A.415.415 0 0 0 8 12.24m2.625 0a.414.414 0 0 0-.414.415v1.248a.414.414 0 1 0 .829 0v-1.248a.415.415 0 0 0-.415-.415m1.312-1.768a.414.414 0 0 0-.414.415v1.247a.414.414 0 1 0 .829 0v-1.247a.415.415 0 0 0-.415-.415"/>
</svg>