<svg id="strib-weather-day-mostly-cloudy-thunderstorms" viewBox="0 0 16 16" width="16" height="16" fill="currentcolor" class="strib-icon strib-weather-day-mostly-cloudy-thunderstorms" xmlns="http://www.w3.org/2000/svg">
  <path d="M6.234 10.618a.26.26 0 0 0-.184.103l-1.5 1.998a.25.25 0 0 0 .261.392l1.315-.331-1.076 1.435a.2.2 0 0 0-.047.089.24.24 0 0 0-.009.1.3.3 0 0 0 .031.096.25.25 0 0 0 .259.122.25.25 0 0 0 .166-.107l1.499-1.998a.25.25 0 0 0-.26-.393l-1.316.331 1.077-1.434a.26.26 0 0 0 .051-.133.25.25 0 0 0-.029-.138.24.24 0 0 0-.1-.101.25.25 0 0 0-.138-.031"/>
  <path d="M8.037 4.167a3.5 3.5 0 0 0-3.635 1.824 2.62 2.62 0 0 0-2.678.696 2.627 2.627 0 0 0 2.037 4.433l3.74.005h.001a3.5 3.5 0 0 0 3.487-3.231 3.503 3.503 0 0 0-2.952-3.727m-.077.494a2.997 2.997 0 0 1 2.53 3.194 2.997 2.997 0 0 1-2.988 2.77l-3.754-.005h-.014a2.124 2.124 0 0 1-1.648-3.589 2.14 2.14 0 0 1 2.115-.579 4 4 0 0 0-.108.369c-.069.311.406.435.486.115A2.997 2.997 0 0 1 7.96 4.66z"/>
  <path d="M10.71 3.373a2.26 2.26 0 0 0-1.921 1.145.3.3 0 0 0-.034.093.26.26 0 0 0 .05.189q.03.04.075.065a.25.25 0 0 0 .282-.025.3.3 0 0 0 .063-.077 1.75 1.75 0 0 1 2.1-.793 1.75 1.75 0 0 1 1.152 1.928 1.745 1.745 0 0 1-1.692 1.474.26.26 0 0 0-.175.077.24.24 0 0 0-.049.273.24.24 0 0 0 .138.133.24.24 0 0 0 .096.017 2.25 2.25 0 0 0 2.177-1.896 2.254 2.254 0 0 0-2.262-2.603m.035-1.998a.25.25 0 0 0-.175.076.25.25 0 0 0-.071.177v.743a.25.25 0 0 0 .428.179.24.24 0 0 0 .054-.082.3.3 0 0 0 .018-.097v-.743a.26.26 0 0 0-.074-.18.24.24 0 0 0-.18-.073m3.258 4a.3.3 0 0 0-.097.018.24.24 0 0 0-.082.054.24.24 0 0 0-.075.178.3.3 0 0 0 .019.097.25.25 0 0 0 .138.135.2.2 0 0 0 .097.018h.743a.2.2 0 0 0 .097-.018.25.25 0 0 0 .138-.135.26.26 0 0 0 0-.193.24.24 0 0 0-.056-.082.24.24 0 0 0-.082-.054.3.3 0 0 0-.097-.018zm-6.004-2.75a.25.25 0 0 0-.23.156.25.25 0 0 0 .056.273l.495.495a.24.24 0 0 0 .082.056q.046.021.096.021a.25.25 0 0 0 .18-.073.3.3 0 0 0 .055-.083.3.3 0 0 0 .018-.097.25.25 0 0 0-.077-.178L8.179 2.7a.25.25 0 0 0-.18-.075m5.492 0a.25.25 0 0 0-.171.075l-.495.495a.25.25 0 1 0 .354.354l.495-.495a.25.25 0 0 0 .07-.13.25.25 0 0 0-.253-.299m-.492 4.997a.25.25 0 0 0-.232.156.25.25 0 0 0 .058.274l.495.495a.3.3 0 0 0 .081.057.251.251 0 0 0 .329-.329.24.24 0 0 0-.056-.081l-.495-.496a.26.26 0 0 0-.18-.076"/>
</svg>