<svg id="strib-weather-night-partly-cloudy-thunderstorms" viewBox="0 0 16 16" width="16" height="16" fill="currentcolor" class="strib-icon strib-weather-night-partly-cloudy-thunderstorms" xmlns="http://www.w3.org/2000/svg">
  <path d="M8.727 3.52a3.84 3.84 0 0 0-3.991 2.003 2.883 2.883 0 1 0-.704 5.631l4.106.006h.002a3.846 3.846 0 0 0 3.829-3.548A3.847 3.847 0 0 0 8.727 3.52m-.085.542a3.29 3.29 0 0 1 2.779 3.508 3.29 3.29 0 0 1-3.281 3.041l-4.122-.006h-.015a2.332 2.332 0 0 1-1.81-3.94 2.34 2.34 0 0 1 2.322-.636c-.041.12-.089.279-.119.405-.075.341.446.478.534.127a3.29 3.29 0 0 1 3.712-2.5z"/>
  <path d="M12.116 1.002h-.025c-1.91.182-2.84 1.708-2.856 3.014-.006.366.545.374.549.007a2.52 2.52 0 0 1 1.865-2.393 3 3 0 0 0-.178 1.016c0 1.529 1.177 2.828 2.719 3.004-.472.53-1.151.84-1.885.84-.2 0-.359-.014-.553-.062-.37-.111-.509.463-.129.533.236.057.437.077.68.078h.001a3.07 3.07 0 0 0 2.658-1.516.275.275 0 0 0-.262-.412 2 2 0 0 1-.16.008c-1.398 0-2.52-1.106-2.52-2.473 0-.432.115-.86.333-1.233A.274.274 0 0 0 12.116 1zm-5.643 9.607a.27.27 0 0 0-.203.113l-1.647 2.195a.28.28 0 0 0-.009.317.28.28 0 0 0 .295.114l1.445-.364-1.182 1.576a.276.276 0 0 0 .055.385.276.276 0 0 0 .385-.055l1.646-2.195a.274.274 0 0 0-.286-.432l-1.444.364 1.182-1.576a.27.27 0 0 0 .024-.298.3.3 0 0 0-.109-.111.3.3 0 0 0-.152-.033"/>
</svg>