<svg id="strib-weather-night-mostly-cloudy-lg-color" viewBox="0 0 16 16" width="16" height="16" fill="currentcolor" class="strib-icon strib-weather-night-mostly-cloudy-lg-color" xmlns="http://www.w3.org/2000/svg">
  <path fill="var(--weather-moon-highlight, #d3eaea)" d="M4.169 3.831c.131.237.295.401.532.532a1.3 1.3 0 0 0-.532.533 1.3 1.3 0 0 0-.532-.533c.237-.131.401-.295.532-.532m6.335-.738a5.16 5.16 0 0 1 .968 4.152 3.6 3.6 0 0 0-1.79-.543 4.54 4.54 0 0 0-1.547-4.455v-.003a4.9 4.9 0 0 1 2.369.849"/>
  <path fill="var(--weather-moon-shadow, #afc2c4)" d="M11.472 7.245a5.16 5.16 0 0 0-.968-4.152 4.965 4.965 0 0 1 2.023 5.158 3.6 3.6 0 0 0-1.055-1.006"/>
  <path fill="var(--weather-cloud-highlight, #afc2c4)" d="M4.65 8.382a2.19 2.19 0 0 1 1.131 1.772 2 2 0 0 0-1.178.729 2.02 2.02 0 0 0-1.385-.757A2.02 2.02 0 0 1 4.65 8.382"/>
  <path fill="var(--weather-cloud-highlight, #afc2c4)" d="M7.4 10.521h.006c0-.041.007-.177.007-.217 0-.618-.255-1.175-.664-1.572l.024-.032a3.24 3.24 0 0 1 2-1.521 3.42 3.42 0 0 1 2.044 3.125 1.84 1.84 0 0 1 1.826 1.83c0 .691-.392 1.326-1.01 1.636H3.018l-.061-.001a1.65 1.65 0 0 1-1.525-1.637c0-.879.706-1.609 1.584-1.64a1.65 1.65 0 0 1 1.42.82.19.19 0 0 0 .328 0c.293-.508.838-.82 1.418-.82a1.66 1.66 0 0 1 1.421.82.19.19 0 0 0 .26.07.19.19 0 0 0 .068-.26 2 2 0 0 0-.531-.601"/>
  <path fill="var(--weather-cloud-shadow, #839396)" d="M6.749 8.732c.409.397.664.954.664 1.572 0 .04-.007.176-.007.217H7.4a2 2 0 0 0-1.619-.367A2.19 2.19 0 0 0 4.65 8.382q.273-.082.568-.083c.462 0 .911.16 1.269.452a.2.2 0 0 0 .154.04.2.2 0 0 0 .108-.059"/>
  <path fill="var(--weather-cloud-shadow, #839396)" d="m2.957 13.769.061.001h8.615a1.83 1.83 0 0 0 1.01-1.636 1.84 1.84 0 0 0-1.826-1.83 3.42 3.42 0 0 0-2.044-3.125q.387-.1.795-.101a3.245 3.245 0 0 1 3.227 3.227.19.19 0 0 0 .189.189c.906 0 1.64.737 1.64 1.64s-.737 1.64-1.64 1.64l-.002-.002H3.016z"/>
  <path fill="var(--weather-outline, #231f20)" d="M12.797 8.713c.212.429.344.903.369 1.408v.002A2.03 2.03 0 0 1 15 12.134a2.03 2.03 0 0 1-2.018 2.018H3.018A2.03 2.03 0 0 1 1 12.134c0-1.052.807-1.917 1.837-2.011a2.4 2.4 0 0 1 2.379-2.205c.477 0 .943.147 1.337.411A3.62 3.62 0 0 1 9.285 6.71a4.17 4.17 0 0 0-1.859-4.509.19.19 0 0 1 .093-.351 5.35 5.35 0 0 1 2.841.707c2.185 1.261 3.131 3.84 2.437 6.156m-2.623-5.828a4.9 4.9 0 0 0-2.039-.641v.003a4.54 4.54 0 0 1 1.547 4.455 3.6 3.6 0 0 1 2.845 1.549c.455-2.056-.436-4.259-2.353-5.366M3.016 13.772h9.966l.002.002c.903 0 1.64-.737 1.64-1.64s-.734-1.64-1.64-1.64a.19.19 0 0 1-.189-.189 3.245 3.245 0 0 0-3.227-3.227c-1.148 0-2.22.621-2.795 1.622a.2.2 0 0 1-.132.091.2.2 0 0 1-.154-.04 2 2 0 0 0-1.269-.452 2.016 2.016 0 0 0-2 1.827 2.02 2.02 0 0 1 1.385.757 2.013 2.013 0 0 1 3.328.239.19.19 0 1 1-.328.19 1.66 1.66 0 0 0-1.421-.82c-.58 0-1.125.312-1.418.82a.19.19 0 0 1-.328 0 1.65 1.65 0 0 0-1.42-.82 1.65 1.65 0 0 0-1.584 1.64c0 .879.706 1.609 1.584 1.64m9.958-10.885h.472v.472a.19.19 0 0 0 .189.189.19.19 0 0 0 .19-.189v-.472h.471a.19.19 0 0 0 .19-.189.19.19 0 0 0-.19-.189h-.471v-.472a.19.19 0 0 0-.19-.189.19.19 0 0 0-.189.189v.472h-.472a.19.19 0 0 0-.189.189.19.19 0 0 0 .189.189m-9.88 1.655c.532.18.717.364.896.896a.19.19 0 0 0 .358 0c.179-.532.363-.716.896-.896a.19.19 0 0 0 0-.358c-.533-.182-.714-.366-.896-.896a.19.19 0 0 0-.358 0c-.179.53-.366.714-.896.896a.19.19 0 0 0 0 .358m1.075-.711c.131.237.295.401.532.532a1.3 1.3 0 0 0-.532.533 1.3 1.3 0 0 0-.532-.533c.237-.131.401-.295.532-.532"/>
</svg>