<svg id="strib-weather-day-night-cloudy-lg-color" viewBox="0 0 16 16" width="16" height="16" fill="currentcolor" class="strib-icon strib-weather-day-night-cloudy-lg-color" xmlns="http://www.w3.org/2000/svg">
  <path fill="var(--weather-cloud-highlight, #afc2c4)" d="M5.213 4.911c-.888 0-1.662.489-2.074 1.211H2.41v-.003a1.04 1.04 0 0 1-1.036-1.035 1.04 1.04 0 0 1 1.035-1.035c.341 0 .661.169.854.45a.19.19 0 0 0 .263.048.187.187 0 0 0 .047-.262 1.42 1.42 0 0 0-.89-.583c.198-.585.733-.99 1.343-1.031.451.238.784.672.884 1.19h.242c.176 0 .343.038.494.104a.19.19 0 0 0 .16.088h.002c.39.246.608.694.562 1.153a2.35 2.35 0 0 0-1.157-.295"/>
  <path fill="var(--weather-cloud-highlight, #afc2c4)" d="M5.78 7.144a2.02 2.02 0 0 0-1.18.729 2.02 2.02 0 0 0-1.385-.757 2.02 2.02 0 0 1 1.432-1.745A2.2 2.2 0 0 1 5.78 7.144"/>
  <path fill="var(--weather-cloud-highlight, #afc2c4)" d="M1.791 8.033c.3-.338.739-.551 1.225-.551.583 0 1.125.315 1.42.819a.19.19 0 0 0 .328 0 1.64 1.64 0 0 1 1.418-.819c.58 0 1.125.315 1.421.819a.19.19 0 0 0 .257.069.19.19 0 0 0 .068-.258 2 2 0 0 0-.533-.602l.01.001c0-.041.007-.177.007-.217 0-.618-.254-1.175-.664-1.573l.022-.031a3.25 3.25 0 0 1 2.003-1.52 3.42 3.42 0 0 1 2.042 3.126 1.84 1.84 0 0 1 1.826 1.931 2.3 2.3 0 0 0-1.072-.266c-.749 0-1.453.371-1.881.981a1.553 1.553 0 0 0-2.27.818h-4.4c-.903 0-1.64-.737-1.64-1.64 0-.416.156-.797.413-1.087"/>
  <path fill="var(--weather-cloud-highlight, #afc2c4)" d="M9.224 11.097a1.32 1.32 0 0 0-.723.411 1.33 1.33 0 0 0-.772-.416c.071-.479.433-.857.889-.964.326.214.556.564.606.969"/>
  <path fill="var(--weather-cloud-highlight, #afc2c4)" d="M7.425 11.458q.048-.005.097-.005c.336 0 .647.18.815.471.068.117.26.117.328 0a.95.95 0 0 1 .815-.471c.335 0 .646.181.815.471a.19.19 0 0 0 .26.069.19.19 0 0 0 .068-.26 1.3 1.3 0 0 0-.388-.423l.002-.046a1.35 1.35 0 0 0-.359-.919.2.2 0 0 0 .026-.035 1.94 1.94 0 0 1 1.28-.927 2.11 2.11 0 0 1 1.155 1.881 1.13 1.13 0 0 1 .628 2.069H7.523a.946.946 0 0 1-.913-.942c0-.471.354-.87.815-.933"/>
  <path fill="var(--weather-cloud-shadow, #839396)" d="m4.026 2.671.099-.003c.726 0 1.356.519 1.495 1.231a.2.2 0 0 0 .026.066 1.2 1.2 0 0 0-.494-.104H4.91a1.72 1.72 0 0 0-.884-1.19m1.782 1.382h.24c.445 0 .828.282.972.696a3.5 3.5 0 0 0-.469.573 2.4 2.4 0 0 0-1.338-.411 2.35 2.35 0 0 1 1.157.295 1.22 1.22 0 0 0-.562-1.153M7.395 7.51a2.03 2.03 0 0 0-1.615-.366 2.2 2.2 0 0 0-1.133-1.773 2 2 0 0 1 1.838.37.19.19 0 0 0 .263-.02c.41.398.664.955.664 1.573 0 .04-.007.176-.007.217z"/>
  <path fill="var(--weather-cloud-shadow, #839396)" d="M8.773 4.17q.385-.1.793-.102a3.246 3.246 0 0 1 3.226 3.227c0 .103.086.189.19.189.905 0 1.64.737 1.64 1.64a1.65 1.65 0 0 1-.863 1.441 2.31 2.31 0 0 0-2.19-1.6c-.752 0-1.453.371-1.882.981a1.552 1.552 0 0 0-2.269.82H3.016c-.899 0-1.639-.74-1.64-1.639v-.006l.002-.001c0 .903.737 1.64 1.64 1.64h4.4a1.553 1.553 0 0 1 2.27-.818 2.3 2.3 0 0 1 1.881-.981 2.3 2.3 0 0 1 1.072.266q.003-.05.003-.101a1.84 1.84 0 0 0-1.829-1.83A3.42 3.42 0 0 0 8.773 4.17"/>
  <path fill="var(--weather-cloud-shadow, #839396)" d="M10.235 11.31a1.32 1.32 0 0 0-1.011-.213 1.36 1.36 0 0 0-.606-.969q.128-.03.263-.03c.269 0 .529.092.737.262a.19.19 0 0 0 .26-.015c.231.25.36.578.359.919z"/>
  <path fill="var(--weather-cloud-shadow, #839396)" d="M11.184 9.383q.188-.039.385-.04c1.059 0 1.922.863 1.922 1.923a.19.19 0 0 0 .189.189c.5.023.899.441.899.941s-.399.918-.899.941v-.002H7.522a.946.946 0 0 1-.941-.941c0-.483.373-.886.844-.936a.946.946 0 0 0-.815.933c0 .506.407.926.913.942h5.444a1.13 1.13 0 0 0-.628-2.069c0-.793-.448-1.522-1.155-1.881"/>
  <path fill="var(--weather-outline, #231f20)" d="M13.862 11.087c-.002-.051-.012-.099-.018-.146A2.03 2.03 0 0 0 15 9.124c0-1.038-.8-1.915-1.834-2.011a3.625 3.625 0 0 0-3.6-3.424 3.6 3.6 0 0 0-2.246.79 1.4 1.4 0 0 0-1.269-.805h-.093a1.91 1.91 0 0 0-1.831-1.383c-.851 0-1.603.57-1.833 1.388A1.42 1.42 0 0 0 1 5.087 1.42 1.42 0 0 0 2.413 6.5h.555a2.4 2.4 0 0 0-.131.613A2.027 2.027 0 0 0 1 9.124a2.03 2.03 0 0 0 2.018 2.018h4.088c-.536.18-.899.686-.899 1.251 0 .722.593 1.317 1.315 1.32h6.158a1.325 1.325 0 0 0 1.31-1.32c0-.652-.483-1.211-1.128-1.306M2.41 6.119a1.04 1.04 0 0 1-1.035-1.035A1.04 1.04 0 0 1 2.41 4.049c.341 0 .661.169.854.45a.19.19 0 0 0 .263.048.187.187 0 0 0 .047-.262 1.42 1.42 0 0 0-.89-.583 1.53 1.53 0 0 1 1.442-1.034c.726 0 1.356.519 1.495 1.231a.19.19 0 0 0 .186.154h.242c.445 0 .828.282.972.696a3.5 3.5 0 0 0-.469.573 2.4 2.4 0 0 0-1.338-.411c-.888 0-1.662.489-2.074 1.211h-.73zM1.376 9.121c0-.905.737-1.639 1.64-1.639.583 0 1.125.315 1.42.819a.19.19 0 0 0 .328 0 1.64 1.64 0 0 1 1.418-.819c.58 0 1.125.315 1.421.819a.19.19 0 0 0 .257.069.19.19 0 0 0 .068-.258 2.02 2.02 0 0 0-1.746-1.009c-.62 0-1.203.288-1.582.77a2.02 2.02 0 0 0-1.385-.757 2.016 2.016 0 0 1 2-1.828c.463 0 .912.16 1.27.453a.19.19 0 0 0 .285-.051 3.24 3.24 0 0 1 2.796-1.622 3.246 3.246 0 0 1 3.226 3.227c0 .103.086.189.19.189.905 0 1.64.737 1.64 1.64a1.65 1.65 0 0 1-.863 1.441 2.31 2.31 0 0 0-2.19-1.6c-.752 0-1.453.371-1.882.981a1.552 1.552 0 0 0-2.269.82H3.016c-.899 0-1.639-.74-1.64-1.639zm12.304 4.214H7.522a.946.946 0 0 1-.941-.941c0-.516.425-.941.941-.941.336 0 .647.18.815.471.068.117.26.117.328 0a.95.95 0 0 1 .815-.471c.335 0 .646.181.815.471a.19.19 0 0 0 .26.069.19.19 0 0 0 .068-.26 1.32 1.32 0 0 0-2.122-.225 1.33 1.33 0 0 0-.772-.416 1.168 1.168 0 0 1 1.889-.732.19.19 0 0 0 .286-.05 1.93 1.93 0 0 1 1.665-.967c1.059 0 1.922.863 1.922 1.923a.19.19 0 0 0 .189.189c.5.023.899.441.899.941s-.399.918-.899.941z"/>
</svg>