<svg id="strib-weather-day-partly-sunny-flurries" viewBox="0 0 16 16" width="16" height="16" fill="currentcolor" class="strib-icon strib-weather-day-partly-sunny-flurries" xmlns="http://www.w3.org/2000/svg">
  <path d="M8.035 3.628A3.25 3.25 0 0 0 4.66 5.322a2.44 2.44 0 0 0-2.938 3.346 2.44 2.44 0 0 0 2.342 1.417l3.473.004h.001a3.25 3.25 0 0 0 3.239-3 3.254 3.254 0 0 0-2.742-3.461m-.071.459a2.78 2.78 0 0 1 2.349 2.966 2.78 2.78 0 0 1-2.775 2.572L4.052 9.62h-.013a1.972 1.972 0 0 1-1.53-3.332 1.98 1.98 0 0 1 1.964-.538 4 4 0 0 0-.101.343c-.063.288.377.404.452.107a2.785 2.785 0 0 1 3.14-2.114z"/>
  <path d="M10.518 2.891a2.1 2.1 0 0 0-1.784 1.063.23.23 0 0 0-.026.179.2.2 0 0 0 .041.083.23.23 0 0 0 .158.089.2.2 0 0 0 .092-.008.2.2 0 0 0 .081-.043.3.3 0 0 0 .059-.072 1.624 1.624 0 0 1 3.02 1.053 1.62 1.62 0 0 1-1.571 1.37.2.2 0 0 0-.089.019.23.23 0 0 0-.124.128.23.23 0 0 0 .132.302.2.2 0 0 0 .09.015 2.09 2.09 0 0 0 2.021-1.761 2.092 2.092 0 0 0-2.1-2.417m.033-1.855a.23.23 0 0 0-.229.235v.69a.232.232 0 1 0 .464 0v-.69a.24.24 0 0 0-.068-.168.23.23 0 0 0-.167-.067m3.025 3.714a.22.22 0 0 0-.165.068.23.23 0 0 0-.069.164.233.233 0 0 0 .234.233h.69a.2.2 0 0 0 .089-.018.23.23 0 0 0 .145-.215.23.23 0 0 0-.069-.164.22.22 0 0 0-.165-.068zM8 2.197a.24.24 0 0 0-.129.039.233.233 0 0 0-.032.359l.46.459a.23.23 0 0 0 .255.055.24.24 0 0 0 .127-.127.23.23 0 0 0-.002-.18.2.2 0 0 0-.052-.076l-.46-.46A.24.24 0 0 0 8 2.197m5.101 0a.24.24 0 0 0-.159.069l-.46.46a.234.234 0 0 0 .073.383.24.24 0 0 0 .256-.055l.459-.459a.23.23 0 0 0 .052-.257.24.24 0 0 0-.089-.105.23.23 0 0 0-.132-.036m-.457 4.64a.23.23 0 0 0-.215.145.22.22 0 0 0-.012.135.23.23 0 0 0 .065.119l.46.46a.2.2 0 0 0 .075.052.23.23 0 0 0 .18.001.235.235 0 0 0 .126-.306.2.2 0 0 0-.053-.076l-.459-.459a.23.23 0 0 0-.167-.071M5.223 11.25a.23.23 0 0 0-.127.033l-1.619.925a.23.23 0 0 0-.087.317.23.23 0 0 0 .141.109.23.23 0 0 0 .176-.023l1.619-.926a.23.23 0 0 0 .1-.109.23.23 0 0 0-.065-.273.23.23 0 0 0-.138-.053"/>
  <path d="M4.398 10.786q-.045 0-.088.019a.2.2 0 0 0-.075.051.24.24 0 0 0-.065.165v1.851q0 .046.017.089a.2.2 0 0 0 .05.077.2.2 0 0 0 .076.051.23.23 0 0 0 .179 0 .24.24 0 0 0 .126-.128.2.2 0 0 0 .016-.089v-1.851a.2.2 0 0 0-.017-.09.2.2 0 0 0-.051-.077.2.2 0 0 0-.077-.051.2.2 0 0 0-.091-.017"/>
  <path d="M3.597 11.25a.234.234 0 0 0-.222.322.23.23 0 0 0 .102.113l1.619.926a.234.234 0 0 0 .318-.086.23.23 0 0 0-.019-.258.2.2 0 0 0-.069-.059l-1.619-.925a.2.2 0 0 0-.11-.033m8.823 0a.23.23 0 0 0-.127.033l-1.619.925a.23.23 0 0 0-.088.317.23.23 0 0 0 .232.115.2.2 0 0 0 .086-.029l1.619-.926a.235.235 0 0 0 .114-.257.234.234 0 0 0-.217-.178"/>
  <path d="M11.595 10.786q-.045 0-.088.019a.23.23 0 0 0-.14.216v1.851a.23.23 0 0 0 .067.166.23.23 0 0 0 .165.069.2.2 0 0 0 .089-.018.2.2 0 0 0 .076-.051.2.2 0 0 0 .05-.077.2.2 0 0 0 .017-.089v-1.851a.23.23 0 0 0-.236-.235"/>
  <path d="M10.793 11.25a.23.23 0 0 0-.231.171.23.23 0 0 0 .112.264l1.618.926a.2.2 0 0 0 .087.029q.046.006.09-.006a.22.22 0 0 0 .141-.109.23.23 0 0 0-.018-.258.2.2 0 0 0-.069-.059l-1.619-.925a.2.2 0 0 0-.111-.033m-1.972 1.857a.24.24 0 0 0-.127.033l-1.618.925a.23.23 0 0 0-.028.385.23.23 0 0 0 .258.019l1.619-.926a.232.232 0 0 0 .035-.383.23.23 0 0 0-.139-.053"/>
  <path d="M7.997 12.643a.235.235 0 0 0-.229.236v1.85q0 .047.017.09a.3.3 0 0 0 .05.076.24.24 0 0 0 .166.069.23.23 0 0 0 .165-.069.2.2 0 0 0 .05-.076.3.3 0 0 0 .017-.09v-1.85a.235.235 0 0 0-.145-.219.2.2 0 0 0-.091-.017"/>
  <path d="M7.195 13.107a.236.236 0 0 0-.231.171.23.23 0 0 0 .112.265l1.618.926a.2.2 0 0 0 .086.029.25.25 0 0 0 .172-.047.24.24 0 0 0 .082-.245.2.2 0 0 0-.041-.081.2.2 0 0 0-.068-.06l-1.619-.925a.24.24 0 0 0-.111-.033"/>
</svg>