<svg id="strib-weather-night-partly-cloudy-flurries" viewBox="0 0 16 16" width="16" height="16" fill="currentcolor" class="strib-icon strib-weather-night-partly-cloudy-flurries" xmlns="http://www.w3.org/2000/svg">
  <path d="M8.568 3.139a3.26 3.26 0 0 0-3.392 1.703 2.44 2.44 0 0 0-2.5.65 2.45 2.45 0 0 0-.453 2.713 2.45 2.45 0 0 0 2.354 1.424l3.491.004h.001a3.27 3.27 0 0 0 3.255-3.016 3.27 3.27 0 0 0-2.756-3.478m-.072.461a2.8 2.8 0 0 1 2.362 2.982 2.8 2.8 0 0 1-2.789 2.585l-3.504-.005h-.013a1.982 1.982 0 0 1-1.538-3.35 2 2 0 0 1 1.974-.54 4 4 0 0 0-.101.344c-.064.29.379.406.454.108a2.8 2.8 0 0 1 3.155-2.125z"/>
  <path d="M11.449 1.001h-.022C9.804 1.157 9.014 2.453 9 3.563c-.005.312.463.318.467.007a2.14 2.14 0 0 1 1.585-2.034 2.6 2.6 0 0 0-.152.863c0 1.3 1.001 2.404 2.312 2.554a2.14 2.14 0 0 1-2.073.661c-.315-.094-.432.393-.109.453.201.049.371.066.578.066h.001c.932 0 1.794-.491 2.259-1.289a.234.234 0 0 0-.222-.35 1 1 0 0 1-.137.007c-1.188 0-2.142-.94-2.142-2.102 0-.367.098-.731.283-1.048A.233.233 0 0 0 11.449 1zM5.135 11.267a.23.23 0 0 0-.104.032l-1.628.93a.23.23 0 0 0-.125.235.3.3 0 0 0 .029.089.2.2 0 0 0 .062.07.2.2 0 0 0 .085.04q.046.012.093.004a.2.2 0 0 0 .088-.033l1.628-.93a.23.23 0 0 0 .103-.115.23.23 0 0 0-.082-.281.24.24 0 0 0-.149-.041"/>
  <path d="M4.329 10.8a.235.235 0 0 0-.229.236v1.861a.2.2 0 0 0 .017.09.2.2 0 0 0 .05.077.24.24 0 0 0 .166.069.23.23 0 0 0 .166-.069.23.23 0 0 0 .067-.167v-1.861a.2.2 0 0 0-.017-.091.3.3 0 0 0-.051-.077.24.24 0 0 0-.169-.068"/>
  <path d="M3.501 11.267a.235.235 0 0 0-.198.329.24.24 0 0 0 .101.109l1.627.929a.24.24 0 0 0 .182.03.2.2 0 0 0 .084-.04.2.2 0 0 0 .062-.071.23.23 0 0 0-.023-.265.2.2 0 0 0-.073-.058l-1.628-.931a.23.23 0 0 0-.134-.032m8.868 0a.2.2 0 0 0-.104.032l-1.628.93a.23.23 0 0 0-.125.235.2.2 0 0 0 .029.089.2.2 0 0 0 .062.07.23.23 0 0 0 .265.011l1.628-.93a.233.233 0 0 0-.127-.437"/>
  <path d="M11.563 10.8a.235.235 0 0 0-.23.236v1.861a.23.23 0 0 0 .233.236.24.24 0 0 0 .167-.069.23.23 0 0 0 .067-.167v-1.861a.24.24 0 0 0-.146-.219.3.3 0 0 0-.091-.017"/>
  <path d="M10.735 11.267a.23.23 0 0 0-.137.056.23.23 0 0 0-.061.273q.032.07.1.109l1.628.929a.23.23 0 0 0 .181.03.236.236 0 0 0 .124-.376.2.2 0 0 0-.074-.058l-1.627-.931a.24.24 0 0 0-.134-.032m-1.983 1.867a.2.2 0 0 0-.104.032l-1.628.93a.233.233 0 0 0 .144.438.2.2 0 0 0 .088-.033l1.627-.93a.23.23 0 0 0 .104-.115.236.236 0 0 0-.082-.281.23.23 0 0 0-.149-.041"/>
  <path d="M7.946 12.667a.233.233 0 0 0-.23.236v1.86q0 .047.017.091a.3.3 0 0 0 .051.077.23.23 0 0 0 .256.051.23.23 0 0 0 .126-.128.2.2 0 0 0 .017-.091v-1.86a.22.22 0 0 0-.069-.168.24.24 0 0 0-.168-.068"/>
  <path d="M7.118 13.134a.233.233 0 0 0-.198.329.23.23 0 0 0 .1.108l1.628.93a.235.235 0 0 0 .328-.081.2.2 0 0 0 .029-.089.23.23 0 0 0-.125-.235l-1.628-.93a.23.23 0 0 0-.134-.032"/>
</svg>