<svg id="strib-weather-night-partly-cloudy-flurries-lg-color" viewBox="0 0 16 16" width="16" height="16" fill="currentcolor" class="strib-icon strib-weather-night-partly-cloudy-flurries-lg-color" xmlns="http://www.w3.org/2000/svg">
  <path fill="var(--weather-moon-highlight, #d3eaea)" d="M3.127 3.36a1.2 1.2 0 0 0-.499.499 1.2 1.2 0 0 0-.499-.499 1.2 1.2 0 0 0 .499-.499 1.2 1.2 0 0 0 .499.499m-.983 5.319a4.27 4.27 0 0 0 5.169-1.88 4.27 4.27 0 0 0-.97-5.428 4.6 4.6 0 0 1 2.241.812 4.845 4.845 0 0 1-.207 6.102 1.7 1.7 0 0 0-.659-.134h-.01a1.696 1.696 0 0 0-1.679 1.521c-.21.025-.408.096-.583.204a4.8 4.8 0 0 1-2.45-.279 4.6 4.6 0 0 1-.852-.918"/>
  <path fill="var(--weather-moon-shadow, #afc2c4)" d="M5.446 9.876a1.43 1.43 0 0 0-.56.65 4.6 4.6 0 0 1-1.279-.497h-.002a4.6 4.6 0 0 1-1.476-1.355l.015.005q.363.518.852.918a4.8 4.8 0 0 0 2.45.279m3.138-7.693a4.68 4.68 0 0 1 1.796 5.15c-.712.09-1.36.485-1.766 1.083a1.7 1.7 0 0 0-.896-.265c.226 0 .45.046.659.134a4.845 4.845 0 0 0 .207-6.102"/>
  <path fill="var(--weather-cloud-highlight, #afc2c4)" d="M8.1 9.687c-.316.062-.604.23-.813.474a1.45 1.45 0 0 0-.899-.487c.069-.551.473-.992.992-1.126a1.5 1.5 0 0 1 .72 1.139"/>
  <path fill="var(--weather-cloud-highlight, #afc2c4)" d="M14.079 11.435a1.08 1.08 0 0 1-1.027.744H6.196c-.592 0-1.08-.488-1.08-1.08 0-.596.485-1.082 1.081-1.082.383 0 .742.208.934.542.03.054.09.087.153.087a.17.17 0 0 0 .154-.09c.192-.333.551-.541.934-.541s.743.208.937.541a.18.18 0 0 0 .153.088h.002a.177.177 0 0 0 .152-.267 1.44 1.44 0 0 0-1.241-.717c.302-.001.6.094.848.274l.003-.098c0-.407-.162-.777-.425-1.049l.021-.028a2.18 2.18 0 0 1 1.413-1.036 2.35 2.35 0 0 1 1.327 2.113h.004c.69 0 1.257.567 1.257 1.257 0 .444-.235.856-.617 1.082h.848c.474 0 .881-.312 1.025-.74"/>
  <path fill="var(--weather-cloud-shadow, #839396)" d="M8.375 9.66q-.14 0-.275.027a1.5 1.5 0 0 0-.72-1.139q.16-.043.331-.043c.307 0 .605.107.843.301a.18.18 0 0 0 .247-.019c.263.272.425.642.425 1.049l-.003.098a1.44 1.44 0 0 0-.848-.274m1.86-1.937q.147-.033.299-.045h.007q.082-.008.163-.009c1.197 0 2.171.974 2.171 2.171 0 .097.08.177.177.177a1.082 1.082 0 0 1 1.027 1.418c-.144.428-.551.74-1.025.74h-.848c.382-.226.617-.638.617-1.082 0-.69-.567-1.257-1.257-1.257h-.004c0-.93-.542-1.733-1.327-2.113"/>
  <path fill="var(--weather-outline, #231f20)" d="M10.884 1.974h.442v.443c0 .097.08.177.177.177s.178-.08.178-.177v-.443h.442c.097 0 .177-.08.177-.177a.18.18 0 0 0-.177-.177h-.442v-.443A.18.18 0 0 0 11.503 1a.18.18 0 0 0-.177.177v.443h-.442a.18.18 0 0 0-.178.177c0 .097.081.177.178.177M3.948 5.945h.442v.442c0 .097.08.178.177.178a.18.18 0 0 0 .178-.178v-.442h.442c.097 0 .177-.08.177-.177a.18.18 0 0 0-.177-.178h-.442v-.442a.18.18 0 0 0-.178-.177.18.18 0 0 0-.177.177v.442h-.442a.18.18 0 0 0-.178.178c0 .097.081.177.178.177M2.46 4.368c-.17-.499-.34-.672-.839-.84A.18.18 0 0 1 1.5 3.36c0-.076.05-.144.121-.168.499-.17.671-.343.839-.839a.18.18 0 0 1 .168-.121c.076 0 .144.05.168.121.17.496.34.669.839.839a.18.18 0 0 1 .121.168c0 .076-.05.144-.121.168-.499.168-.671.341-.839.84a.18.18 0 0 1-.168.119.18.18 0 0 1-.168-.119m.667-1.008a1.2 1.2 0 0 1-.499-.499 1.2 1.2 0 0 1-.499.499c.222.123.376.277.499.499.123-.222.277-.376.499-.499m10.091 6.312a2.537 2.537 0 0 0-2.464-2.355 5.04 5.04 0 0 0-2.323-5.65 5 5 0 0 0-2.662-.662.18.18 0 0 0-.166.132.18.18 0 0 0 .078.196 3.93 3.93 0 0 1 1.327 5.291 3.925 3.925 0 0 1-5.245 1.497.176.176 0 0 0-.239.238 5 5 0 0 0 1.908 1.977 5 5 0 0 0 1.355.53 1.443 1.443 0 0 0 1.414 1.667h6.849a1.443 1.443 0 0 0 1.432-1.436c0-.721-.543-1.336-1.259-1.425zm-9.613.357a4.6 4.6 0 0 1-1.476-1.355 4.27 4.27 0 0 0 5.184-1.875 4.27 4.27 0 0 0-.97-5.428 4.6 4.6 0 0 1 1.911.601 4.68 4.68 0 0 1 2.126 5.361c-.712.09-1.36.485-1.766 1.083a1.7 1.7 0 0 0-.906-.265 1.696 1.696 0 0 0-1.679 1.521 1.43 1.43 0 0 0-1.143.854 4.6 4.6 0 0 1-1.279-.497zm9.447 2.15H6.196c-.592 0-1.08-.488-1.08-1.08v-.001c0-.596.485-1.081 1.081-1.081.383 0 .742.208.934.542.03.054.09.087.153.087a.17.17 0 0 0 .154-.09c.192-.333.551-.541.934-.541s.743.208.937.541a.18.18 0 0 0 .153.088h.002a.177.177 0 0 0 .152-.267 1.44 1.44 0 0 0-1.241-.717c-.421 0-.819.187-1.088.501a1.45 1.45 0 0 0-.899-.487 1.34 1.34 0 0 1 1.323-1.169c.307 0 .605.107.843.301a.18.18 0 0 0 .268-.047 2.18 2.18 0 0 1 1.712-1.081h.007q.082-.008.163-.009c1.197 0 2.171.974 2.171 2.171 0 .097.08.177.177.177.596 0 1.081.485 1.081 1.081s-.485 1.081-1.081 1.081m-6.087 1.208a.18.18 0 0 1 .244.066.18.18 0 0 1-.066.242l-.275.158a.5.5 0 0 1 0 .229l.275.159a.176.176 0 0 1 .066.241.17.17 0 0 1-.154.09.2.2 0 0 1-.09-.024l-.274-.158a.6.6 0 0 1-.196.113v.32a.18.18 0 0 1-.178.177.18.18 0 0 1-.177-.177v-.32a.5.5 0 0 1-.199-.111l-.274.159a.18.18 0 0 1-.266-.157c0-.063.034-.121.089-.151l.276-.161a.5.5 0 0 1 0-.227l-.276-.16a.18.18 0 0 1-.064-.244.175.175 0 0 1 .241-.064l.279.161a.6.6 0 0 1 .192-.109v-.326c0-.097.08-.178.177-.178s.177.081.177.178v.317a.6.6 0 0 1 .107.047 1 1 0 0 1 .092.069zm-.752.764c.097.057.23.019.286-.078l.003-.002a.21.21 0 0 0-.182-.315.212.212 0 0 0-.107.395m4.302-.698a.18.18 0 0 0-.241-.066l-.275.159a1 1 0 0 0-.092-.069.6.6 0 0 0-.106-.047v-.317a.18.18 0 0 0-.178-.178.18.18 0 0 0-.177.178v.326a.6.6 0 0 0-.192.109l-.279-.161a.175.175 0 0 0-.241.064.184.184 0 0 0 .064.244l.277.16a.5.5 0 0 0 0 .227l-.277.161a.174.174 0 0 0-.064.241.18.18 0 0 0 .241.067l.275-.159q.086.079.198.111v.32c0 .097.081.177.178.177s.177-.08.177-.177v-.32a.5.5 0 0 0 .196-.113l.277.158a.173.173 0 0 0 .241-.066.177.177 0 0 0-.064-.241l-.274-.159a.5.5 0 0 0 0-.229l.274-.158a.175.175 0 0 0 .064-.242zm-.71.62a.215.215 0 0 1-.286.078.212.212 0 0 1 .107-.395.21.21 0 0 1 .182.315zm3.775-.686a.18.18 0 0 1 .241.066h.002a.175.175 0 0 1-.064.242l-.274.158a.5.5 0 0 1 0 .229l.274.159a.177.177 0 0 1 .064.241.173.173 0 0 1-.241.066l-.277-.158a.5.5 0 0 1-.196.113v.32c0 .097-.08.177-.177.177a.18.18 0 0 1-.178-.177v-.32a.5.5 0 0 1-.198-.111l-.275.159a.18.18 0 0 1-.241-.067.175.175 0 0 1 .064-.241l.277-.161a.5.5 0 0 1 0-.227l-.277-.16a.18.18 0 0 1-.064-.244.175.175 0 0 1 .241-.064l.279.161a.6.6 0 0 1 .192-.109v-.326c0-.097.08-.178.177-.178a.18.18 0 0 1 .178.178v.317a.6.6 0 0 1 .106.047 1 1 0 0 1 .092.069zm-.755.764c.097.057.23.019.286-.078l.003-.002a.21.21 0 0 0-.182-.315.212.212 0 0 0-.107.395"/>
</svg>