<svg id="strib-weather-day-night-ice-lg" viewBox="0 0 16 16" width="16" height="16" fill="currentcolor" class="strib-icon strib-weather-day-night-ice-lg" xmlns="http://www.w3.org/2000/svg">
  <path d="M9.566 1.691a3.61 3.61 0 0 1 3.6 3.424A2.02 2.02 0 0 1 15 7.126a2.02 2.02 0 0 1-2.018 2.018H3.018A2.02 2.02 0 0 1 1 7.126c0-1.052.807-1.918 1.837-2.011A2.39 2.39 0 0 1 5.216 2.91a2.4 2.4 0 0 1 1.337.411 3.62 3.62 0 0 1 3.013-1.63m-6.55 7.075h9.966v.002c.903 0 1.64-.736 1.64-1.64s-.735-1.64-1.64-1.64a.19.19 0 0 1-.19-.189 3.23 3.23 0 0 0-3.226-3.227A3.24 3.24 0 0 0 6.77 3.695a.192.192 0 0 1-.285.05 2.009 2.009 0 0 0-3.27 1.375 2.02 2.02 0 0 1 1.385.757c.379-.482.962-.77 1.582-.77.717 0 1.385.386 1.746 1.01a.19.19 0 0 1-.161.285.19.19 0 0 1-.164-.096 1.66 1.66 0 0 0-1.421-.82c-.58 0-1.125.313-1.418.82a.19.19 0 0 1-.164.096.19.19 0 0 1-.164-.096 1.65 1.65 0 0 0-1.42-.82c-.903 0-1.64.737-1.64 1.64s.734 1.64 1.64 1.64m8.578 1.569a.189.189 0 1 1 .378 0v1.262a.189.189 0 1 1-.378 0zM9.26 12.669a.19.19 0 0 0-.189.189v1.261a.19.19 0 1 0 .379 0v-1.261a.19.19 0 0 0-.19-.189m2.334.189a.189.189 0 1 1 .378 0v1.261a.19.19 0 1 1-.378 0zm-7.38-.189a.19.19 0 0 0-.189.189v1.261a.19.19 0 1 0 .379 0v-1.261a.19.19 0 0 0-.19-.189m-.189-2.334a.19.19 0 0 1 .379 0v1.262a.19.19 0 0 1-.379 0zm2.712-.189c.104 0 .19.086.19.189v1.262a.19.19 0 0 1-.19.189.19.19 0 0 1-.189-.189v-1.262a.19.19 0 0 1 .189-.189m2.713.189a.19.19 0 0 0-.19-.189.19.19 0 0 0-.189.189v1.262a.19.19 0 0 0 .189.189c.104 0 .19-.086.19-.189zm-2.713 2.334a.19.19 0 0 0-.189.189v1.261a.19.19 0 1 0 .379 0v-1.261a.19.19 0 0 0-.19-.189m-1.11-5.896h.356v1.46h-.356zm1.274.375a.6.6 0 0 1 .192-.1.8.8 0 0 1 .25-.036q.197 0 .356.073a1 1 0 0 1 .282.192l.323-.116a1.15 1.15 0 0 0-.406-.325 1.2 1.2 0 0 0-.525-.106q-.22 0-.409.063-.19.062-.33.176a.68.68 0 0 0-.252.533q0 .185.088.34a.7.7 0 0 0 .234.248q.16.097.326.141.167.045.363.045.143 0 .268-.022.124-.023.234-.071a1 1 0 0 0 .207-.124 1.3 1.3 0 0 0 .189-.176l-.3-.162a.9.9 0 0 1-.277.207.8.8 0 0 1-.336.066 1 1 0 0 1-.262-.036.6.6 0 0 1-.202-.101.43.43 0 0 1-.174-.355c0-.073.015-.134.045-.195a.5.5 0 0 1 .124-.156zm1.829-.375.596.61.595-.61h.449l-.867.893v.567h-.354v-.567l-.868-.893z"/>
</svg>