<svg id="strib-weather-day-mostly-sunny-lg" viewBox="0 0 16 16" width="16" height="16" fill="currentcolor" class="strib-icon strib-weather-day-mostly-sunny-lg" xmlns="http://www.w3.org/2000/svg">
  <path d="M13.653 11.948a2.7 2.7 0 0 0-.737-1.673 3.48 3.48 0 0 1 1.968-2.101A.19.19 0 0 0 15 8a.18.18 0 0 0-.116-.174 3.53 3.53 0 0 1-1.894-1.892 3.48 3.48 0 0 1 0-2.676.2.2 0 0 0-.04-.208.19.19 0 0 0-.207-.04 3.47 3.47 0 0 1-2.677 0 3.48 3.48 0 0 1-1.892-1.892c-.058-.142-.29-.142-.351 0A3.48 3.48 0 0 1 5.931 3.01a3.47 3.47 0 0 1-2.676 0 .19.19 0 0 0-.207.04.18.18 0 0 0-.04.208c.357.856.357 1.82 0 2.676a3.48 3.48 0 0 1-1.892 1.892.189.189 0 0 0 0 .348 3.52 3.52 0 0 1 1.892 1.892 3.48 3.48 0 0 1 0 2.677.19.19 0 0 0 .04.206.19.19 0 0 0 .207.04 3.45 3.45 0 0 1 1.569-.252 1.54 1.54 0 0 0-.192.732c0 .845.686 1.531 1.532 1.531h7.306c.84 0 1.531-.691 1.531-1.531 0-.772-.583-1.43-1.35-1.521zm-10.158.558a3.85 3.85 0 0 0-.137-2.584A3.9 3.9 0 0 0 1.627 8a3.84 3.84 0 0 0 1.731-1.923 3.85 3.85 0 0 0 .137-2.583 3.86 3.86 0 0 0 2.583-.136A3.84 3.84 0 0 0 8 1.627a3.86 3.86 0 0 0 1.922 1.731c.83.343 1.733.389 2.583.136a3.86 3.86 0 0 0 .137 2.583A3.9 3.9 0 0 0 14.375 8a3.87 3.87 0 0 0-1.759 2.001 2.7 2.7 0 0 0-.955-.472c.203-.487.315-1 .315-1.527-.003-2.179-1.795-3.97-3.974-3.973-2.178.002-3.97 1.794-3.973 3.973 0 1.465.79 2.783 2.069 3.482q-.089.226-.111.469a1.5 1.5 0 0 0-.893.439 3.9 3.9 0 0 0-1.595.118zm2.774-1.363A3.57 3.57 0 0 1 4.405 8 3.614 3.614 0 0 1 8 4.405 3.614 3.614 0 0 1 11.595 8c0 .501-.109.991-.316 1.452a2.71 2.71 0 0 0-2.537 1.156 1.8 1.8 0 0 0-2.473.535m7.2 3.476H6.164a1.155 1.155 0 0 1-1.154-1.153c0-.635.518-1.152 1.154-1.152.408 0 .791.222.996.577a.19.19 0 0 0 .328 0c.205-.356.586-.576.997-.577.408 0 .791.222.996.577a.19.19 0 0 0 .259.068.185.185 0 0 0 .068-.257 1.54 1.54 0 0 0-1.323-.764c-.449 0-.874.199-1.161.534a1.53 1.53 0 0 0-.959-.519 1.42 1.42 0 0 1 2.311-.926.19.19 0 0 0 .285-.051 2.33 2.33 0 0 1 2.008-1.163 2.32 2.32 0 0 1 2.316 2.317.19.19 0 0 0 .189.188 1.16 1.16 0 0 1 1.119 1.153c0 .62-.499 1.134-1.119 1.153z"/>
</svg>