<svg id="strib-weather-day-partly-sunny" viewBox="0 0 16 16" width="16" height="16" fill="currentcolor" class="strib-icon strib-weather-day-partly-sunny" xmlns="http://www.w3.org/2000/svg">
  <path d="M10.869 9.343q.298-.238.529-.543a3 3 0 0 0 .495-2.592 2.99 2.99 0 0 0-1.745-1.98 2.99 2.99 0 0 0-2.634.166 2.99 2.99 0 0 0-1.483 2.184 3.77 3.77 0 0 0-1.775.884 3.76 3.76 0 0 0-1.083 1.66 3 3 0 0 0-2.144 3.298A2.996 2.996 0 0 0 3.998 15h5.5a2.992 2.992 0 0 0 1.371-5.657M8.998 5a2.003 2.003 0 0 1 1.6 3.2 2 2 0 0 1-.47.445 3.78 3.78 0 0 0-3.067-2.12A1.996 1.996 0 0 1 8.998 5m.5 9h-5.5a1.998 1.998 0 0 1-1.582-3.219 2 2 0 0 1 1.245-.746l.332-.056.073-.328a2.749 2.749 0 0 1 5.364 0l.073.328.331.056a2 2 0 0 1 1.656 2.137A1.993 1.993 0 0 1 9.498 14m3.5-7.5h2v1h-2zm-1.525-2.683 1.414-1.413.707.707-1.414 1.414zM8.498 1h1v2h-1zM4.402 3.111l.707-.707 1.414 1.414-.707.707z"/>
</svg>