<svg id="strib-weather-day-mostly-sunny-lg-color" viewBox="0 0 16 16" width="16" height="16" fill="currentcolor" class="strib-icon strib-weather-day-mostly-sunny-lg-color" xmlns="http://www.w3.org/2000/svg" clip-rule="evenodd" fill-rule="evenodd">
  <path fill="var(--weather-sun-shadow, #ffc783)" d="M5.195 10.24c.48.233 1.016.368 1.585.377a1.8 1.8 0 0 0-.518.521 3.6 3.6 0 0 1-1.067-.898m6.09-.794a2.7 2.7 0 0 0-2.548 1.156 1.8 1.8 0 0 0-.537-.231v-.005a3.784 3.784 0 0 0 2.042-5.181 3.59 3.59 0 0 1 1.043 4.261m-5.195 2.03a1.7 1.7 0 0 0-.11.463 1.53 1.53 0 0 0-.891.43 3.9 3.9 0 0 0-1.597.127 3.85 3.85 0 0 0-.136-2.583 3.9 3.9 0 0 0-1.73-1.922 3.84 3.84 0 0 0 1.73-1.922c.343-.83.389-1.733.136-2.583.843.25 1.764.204 2.583-.136a3.85 3.85 0 0 0 1.922-1.731A3.85 3.85 0 0 0 9.92 3.35c.819.34 1.743.386 2.583.136a3.85 3.85 0 0 0 .136 2.583 3.9 3.9 0 0 0 1.73 1.922 3.84 3.84 0 0 0-1.761 2 2.7 2.7 0 0 0-.943-.471 3.978 3.978 0 0 0-3.667-5.502 3.95 3.95 0 0 0-2.811 1.163 3.974 3.974 0 0 0 .903 6.295"/>
  <path fill="var(--weather-cloud-highlight, #afc2c4)" d="M6.161 12.307c.409 0 .79.222.996.578a.19.19 0 0 0 .164.093.19.19 0 0 0 .164-.093c.205-.356.588-.578.997-.578.408 0 .789.222.996.578a.19.19 0 0 0 .164.093v-.002a.2.2 0 0 0 .096-.026.185.185 0 0 0 .068-.257 1.5 1.5 0 0 0-.427-.473l.003-.102c0-.435-.173-.829-.453-1.119a.2.2 0 0 0 .025-.034 2.33 2.33 0 0 1 1.497-1.105 2.5 2.5 0 0 1 1.424 2.258 1.342 1.342 0 0 1 .687 2.495H6.161a1.155 1.155 0 0 1-1.153-1.153c0-.636.518-1.153 1.153-1.153m1.254-1.564c.421.256.717.7.769 1.216-.335.067-.64.245-.863.505a1.53 1.53 0 0 0-.96-.522 1.42 1.42 0 0 1 1.054-1.199"/>
  <path fill="var(--weather-cloud-shadow, #839396)" d="M10.45 9.86q.25-.058.512-.058a2.32 2.32 0 0 1 2.315 2.316.19.19 0 0 0 .189.189 1.154 1.154 0 0 1 0 2.306h-.904a1.342 1.342 0 0 0-.687-2.495c0-.996-.582-1.854-1.425-2.258m-1.071 2.36a1.54 1.54 0 0 0-1.195-.261 1.62 1.62 0 0 0-.769-1.216 1.4 1.4 0 0 1 .356-.045l-.003-.003c.328 0 .648.114.901.321a.193.193 0 0 0 .26-.017c.28.29.453.684.453 1.119z"/>
  <path fill="var(--weather-sun-highlight, #fff3c0)" d="M6.78 10.617a3.75 3.75 0 0 1-1.585-.377 3.58 3.58 0 0 1-.792-2.249c0-.961.373-1.864 1.052-2.543a3.57 3.57 0 0 1 2.543-1.051 3.58 3.58 0 0 1 2.244.788 3.78 3.78 0 0 1-2.051 5.184 1.8 1.8 0 0 0-1.411.248"/>
  <path fill="var(--weather-outline, #231f20)" d="M9.642 12.978a.19.19 0 0 1-.164-.093 1.16 1.16 0 0 0-.996-.578c-.409 0-.792.222-.997.578a.19.19 0 0 1-.164.093.19.19 0 0 1-.164-.093 1.16 1.16 0 0 0-.996-.578.19.19 0 0 1-.189-.189.19.19 0 0 1 .189-.189c.449 0 .873.199 1.16.535a1.53 1.53 0 0 1 1.161-.535c.542 0 1.052.292 1.324.764a.185.185 0 0 1-.068.257.2.2 0 0 1-.096.026zm-4.824-.253a3.5 3.5 0 0 0-1.563.258.19.19 0 0 1-.207-.04.19.19 0 0 1-.04-.207 3.47 3.47 0 0 0 0-2.676 3.52 3.52 0 0 0-1.892-1.892A.19.19 0 0 1 1 7.994c0-.076.045-.147.116-.174a3.48 3.48 0 0 0 1.892-1.892 3.47 3.47 0 0 0 0-2.677.19.19 0 0 1 .04-.206.19.19 0 0 1 .207-.041 3.52 3.52 0 0 0 2.677 0 3.47 3.47 0 0 0 1.891-1.892c.058-.141.291-.141.351 0a3.48 3.48 0 0 0 1.892 1.892 3.5 3.5 0 0 0 2.676 0 .19.19 0 0 1 .248.247 3.46 3.46 0 0 0 0 2.677 3.5 3.5 0 0 0 1.894 1.892.188.188 0 0 1 0 .348 3.47 3.47 0 0 0-1.971 2.1 2.6 2.6 0 0 0-.305-.277l.031-.078a3.84 3.84 0 0 1 1.73-1.922 3.9 3.9 0 0 1-1.73-1.922 3.85 3.85 0 0 1-.136-2.583c-.84.25-1.764.204-2.583-.136a3.85 3.85 0 0 1-1.923-1.731A3.85 3.85 0 0 1 6.075 3.35c-.819.34-1.74.386-2.583.136.253.85.207 1.753-.136 2.583a3.84 3.84 0 0 1-1.73 1.922 3.9 3.9 0 0 1 1.73 1.922c.343.83.389 1.733.136 2.583a3.8 3.8 0 0 1 1.597-.127 1.5 1.5 0 0 0-.271.356m1.343-.418a.19.19 0 0 1-.189-.189.19.19 0 0 1 .189-.189q.1 0 .2.013a2 2 0 0 0-.011.176.19.19 0 0 1-.189.189m-.071-.831a3.974 3.974 0 0 1 1.908-7.458 3.978 3.978 0 0 1 3.667 5.502 2.5 2.5 0 0 0-.38-.074 3.597 3.597 0 0 0-5.83-3.998 3.595 3.595 0 0 0 .807 5.69 1.8 1.8 0 0 0-.172.338m7.376 3.515H6.161a1.532 1.532 0 0 1-.181-3.052 1.8 1.8 0 0 1 2.757-1.337 2.7 2.7 0 0 1 2.222-1.176 2.7 2.7 0 0 1 2.689 2.515 1.532 1.532 0 0 1-.184 3.053zm-5.695-4.293c-.785 0-1.421.638-1.421 1.42a.19.19 0 0 1-.189.189c-.635 0-1.153.517-1.153 1.153s.518 1.153 1.153 1.153h7.305a1.154 1.154 0 0 0 0-2.306.19.19 0 0 1-.189-.189 2.32 2.32 0 0 0-2.315-2.316c-.825 0-1.595.447-2.008 1.163a.19.19 0 0 1-.285.051 1.43 1.43 0 0 0-.901-.321zm1.871 2.28a.19.19 0 0 1-.164-.093 1.16 1.16 0 0 0-.996-.578c-.409 0-.792.222-.997.578a.19.19 0 0 1-.164.093.19.19 0 0 1-.164-.093 1.16 1.16 0 0 0-.996-.578.19.19 0 0 1-.189-.189.19.19 0 0 1 .189-.189c.449 0 .873.199 1.16.535a1.53 1.53 0 0 1 1.161-.535c.542 0 1.052.292 1.324.764a.185.185 0 0 1-.068.257.2.2 0 0 1-.096.026zm0 0a.19.19 0 0 1-.164-.093 1.16 1.16 0 0 0-.996-.578c-.409 0-.792.222-.997.578a.19.19 0 0 1-.164.093.19.19 0 0 1-.164-.093 1.16 1.16 0 0 0-.996-.578.19.19 0 0 1-.189-.189.19.19 0 0 1 .189-.189c.449 0 .873.199 1.16.535a1.53 1.53 0 0 1 1.161-.535c.542 0 1.052.292 1.324.764a.185.185 0 0 1-.068.257.2.2 0 0 1-.096.026z"/>
</svg>