<svg id="strib-weather-day-mostly-sunny" viewBox="0 0 16 16" width="16" height="16" fill="currentcolor" class="strib-icon strib-weather-day-mostly-sunny" xmlns="http://www.w3.org/2000/svg">
  <path d="M13.133 7.767H15V8.7h-1.867zm-1.866-3.46 1.4-1.4.66.66-1.4 1.4zM7.534 1.234h.933V3.1h-.933zM2.674 12.9l1.4-1.4.66.66-1.4 1.4zm-.001-9.333.661-.66 1.4 1.4-.66.661z"/>
  <path d="M1 7.767h1.867V8.7H1zm12.037 2.493a3.25 3.25 0 0 0-.872-1.525q.033-.25.035-.502a4.2 4.2 0 0 0-1.962-3.565 4.2 4.2 0 0 0-4.844 6.847 2.32 2.32 0 0 0 2.139 3.251H12.2a2.33 2.33 0 0 0 2.035-3.469 2.33 2.33 0 0 0-1.198-1.037M4.733 8.233a3.266 3.266 0 0 1 6.526-.138 3.2 3.2 0 0 0-1.393-.328 3.286 3.286 0 0 0-3.17 2.493 2.3 2.3 0 0 0-.767.489 3.26 3.26 0 0 1-1.196-2.516m7.467 5.6H7.533a1.396 1.396 0 0 1-1.148-2.198c.196-.281.49-.48.823-.559l.307-.073.047-.313a2.325 2.325 0 0 1 3.827-1.424c.423.365.701.871.782 1.424l.046.313.307.073a1.398 1.398 0 0 1 .608 2.406 1.4 1.4 0 0 1-.932.351"/>
</svg>