<svg id="strib-weather-day-partly-sunny-showers-lg-color" viewBox="0 0 16 16" width="16" height="16" fill="currentcolor" class="strib-icon strib-weather-day-partly-sunny-showers-lg-color" xmlns="http://www.w3.org/2000/svg">
  <path fill="var(--weather-sun-highlight, #fff3c0)" d="M9.839 4.428a3.095 3.095 0 0 1-1.682 4.225 1.46 1.46 0 0 0-1.155.203 3.1 3.1 0 0 1-1.294-.309 2.9 2.9 0 0 1-.646-1.837A2.954 2.954 0 0 1 8 3.773c.694 0 1.334.246 1.839.655"/>
  <path fill="var(--weather-sun-shadow, #ffc783)" d="M5.708 8.547c.404.195.846.301 1.294.309.34-.226.759-.3 1.155-.203a1.48 1.48 0 0 0-1.571.626 3 3 0 0 1-.878-.732m2.449.106a3.095 3.095 0 0 0 1.682-4.225 2.94 2.94 0 0 1 1.099 2.282c-.001.41-.089.815-.258 1.188a2 2 0 0 0-.258-.017 2.21 2.21 0 0 0-1.816.961 1.4 1.4 0 0 0-.449-.189"/>
  <path fill="var(--weather-sun-shadow, #ffc783)" d="M4.207 8.281A3.2 3.2 0 0 0 2.793 6.71a3.164 3.164 0 0 0 1.525-3.681 3.15 3.15 0 0 0 2.111-.112A3.14 3.14 0 0 0 8 1.503c.345.638.9 1.138 1.571 1.414.67.279 1.416.319 2.111.112a3.16 3.16 0 0 0 .111 2.111 3.2 3.2 0 0 0 1.417 1.57 3.15 3.15 0 0 0-1.437 1.635 2.2 2.2 0 0 0-.782-.385c.167-.398.258-.817.258-1.247a3.265 3.265 0 0 0-3.247-3.247 3.265 3.265 0 0 0-3.247 3.247 3.24 3.24 0 0 0 1.691 2.845 1.3 1.3 0 0 0-.091.383 1.24 1.24 0 0 0-.73.359 3.2 3.2 0 0 0-1.303.097l-.004-.005a3.14 3.14 0 0 0-.111-2.111"/>
  <path fill="var(--weather-cloud-highlight, #afc2c4)" d="M7.526 8.962c.342.209.582.57.624.99-.274.055-.521.2-.704.412-.2-.232-.48-.382-.782-.423.061-.479.412-.862.862-.979"/>
  <path fill="var(--weather-cloud-highlight, #afc2c4)" d="m9.127 10.165.003-.083c0-.353-.14-.673-.367-.91l.022-.029a1.9 1.9 0 0 1 1.224-.903 2.05 2.05 0 0 1 1.158 1.842c.602 0 1.098.495 1.098 1.097 0 .385-.203.743-.534.941H6.499a.95.95 0 0 1-.9-.942c0-.501.4-.919.9-.942a.94.94 0 0 1 .815.472.15.15 0 0 0 .134.076.16.16 0 0 0 .134-.076.94.94 0 0 1 1.628 0 .16.16 0 0 0 .134.076c.085 0 .155-.07.155-.154a.15.15 0 0 0-.021-.077 1.25 1.25 0 0 0-.351-.388"/>
  <path fill="var(--weather-cloud-shadow, #839396)" d="M7.446 10.364c.183-.212.43-.357.704-.412a1.32 1.32 0 0 0-.624-.99q.141-.038.293-.038c.267 0 .526.092.733.26a.16.16 0 0 0 .099.035.16.16 0 0 0 .112-.047c.227.237.367.557.367.91l-.003.083a1.247 1.247 0 0 0-1.679.201zm4.285 1.756c.331-.198.534-.556.534-.941 0-.602-.496-1.097-1.098-1.097a2.05 2.05 0 0 0-1.158-1.842 2 2 0 0 1 .417-.047 1.904 1.904 0 0 1 1.893 1.892c.001.085.07.154.155.155.5.023.9.441.9.942s-.4.919-.9.942l-.005-.004z"/>
  <path fill="var(--weather-outline, #231f20)" d="M12.018 8.57c.344.361.567.839.602 1.367h-.002a1.26 1.26 0 0 1 1.094 1.242c0 .684-.561 1.248-1.245 1.252H6.499c-.69 0-1.251-.56-1.251-1.251 0-.217.06-.421.157-.598a2.8 2.8 0 0 0-1.283.206.2.2 0 0 1-.06.013.156.156 0 0 1-.142-.215 2.84 2.84 0 0 0 0-2.187 2.87 2.87 0 0 0-1.546-1.546.15.15 0 0 1-.095-.143c0-.061.037-.117.095-.142A2.83 2.83 0 0 0 3.92 5.022a2.83 2.83 0 0 0 0-2.187.154.154 0 0 1 .202-.202c.7.292 1.488.292 2.188 0a2.84 2.84 0 0 0 1.546-1.546c.049-.116.239-.116.286 0a2.84 2.84 0 0 0 1.546 1.546c.7.292 1.488.292 2.188 0a.154.154 0 0 1 .202.202 2.83 2.83 0 0 0 0 2.187 2.88 2.88 0 0 0 1.548 1.546.15.15 0 0 1 .095.142.16.16 0 0 1-.095.143 2.84 2.84 0 0 0-1.608 1.717m-7.811-.289c.282.679.317 1.417.111 2.111l.004.005a3.2 3.2 0 0 1 1.303-.097 1.24 1.24 0 0 1 .73-.359q.018-.201.091-.383a3.24 3.24 0 0 1-1.691-2.845 3.265 3.265 0 0 1 3.247-3.247 3.265 3.265 0 0 1 3.247 3.247c0 .43-.091.849-.258 1.247.289.076.553.208.782.385A3.15 3.15 0 0 1 13.21 6.71a3.2 3.2 0 0 1-1.417-1.57 3.16 3.16 0 0 1-.111-2.111 3.15 3.15 0 0 1-2.111-.112A3.15 3.15 0 0 1 8 1.503a3.14 3.14 0 0 1-1.571 1.414 3.15 3.15 0 0 1-2.111.112A3.164 3.164 0 0 1 2.793 6.71c.63.345 1.137.903 1.414 1.571m.855-1.571c0 1.081.582 2.052 1.524 2.569a1.477 1.477 0 0 1 2.02-.437 2.21 2.21 0 0 1 1.816-.961q.132.001.258.017c.169-.373.257-.778.258-1.188A2.954 2.954 0 0 0 8 3.773 2.954 2.954 0 0 0 5.062 6.71m1.437 5.41h5.97l.005.004c.5-.023.9-.441.9-.942s-.4-.919-.9-.942a.157.157 0 0 1-.155-.155 1.904 1.904 0 0 0-1.893-1.892c-.676 0-1.302.363-1.641.95a.156.156 0 0 1-.233.041 1.164 1.164 0 0 0-1.888.757c.303.041.584.192.784.425a1.25 1.25 0 0 1 2.03.187q.021.035.021.077c0 .084-.07.154-.154.154h-.001a.16.16 0 0 1-.134-.076.94.94 0 0 0-1.628 0 .16.16 0 0 1-.134.076.15.15 0 0 1-.134-.076.94.94 0 0 0-.815-.472c-.5.023-.9.441-.9.942s.4.919.9.942m2.175 1.532a.16.16 0 0 1-.154-.155v-.556c0-.085.07-.155.154-.155.085 0 .155.07.155.155v.556c0 .085-.07.155-.155.155m0 1.348a.16.16 0 0 1-.154-.155v-.556c0-.085.07-.155.154-.155.085 0 .155.07.155.155v.556c0 .085-.07.155-.155.155m3.088-1.503c0 .085.07.155.155.155s.155-.07.155-.155v-.556a.157.157 0 0 0-.155-.155.157.157 0 0 0-.155.155zM11.917 15a.157.157 0 0 1-.155-.155v-.556c0-.085.07-.155.155-.155s.155.07.155.155v.556a.157.157 0 0 1-.155.155m-1.777-.155c0 .085.07.155.154.155.085 0 .155-.07.155-.155v-.556a.157.157 0 0 0-.155-.155.16.16 0 0 0-.154.155zm.154-1.193a.16.16 0 0 1-.154-.155v-.556c0-.085.07-.155.154-.155.085 0 .155.07.155.155v.556c0 .085-.07.155-.155.155m-3.397 1.193c0 .085.07.155.155.155s.154-.07.154-.155v-.556a.16.16 0 0 0-.154-.155.157.157 0 0 0-.155.155zm.155-1.193a.157.157 0 0 1-.155-.155v-.556c0-.085.07-.155.155-.155s.154.07.154.155v.556c0 .085-.07.155-.154.155"/>
</svg>