<svg id="strib-weather-night-partly-cloudy-showers" viewBox="0 0 16 16" width="16" height="16" fill="currentcolor" class="strib-icon strib-weather-night-partly-cloudy-showers" xmlns="http://www.w3.org/2000/svg">
  <path d="m4.888 11.76-.619.618a.292.292 0 0 0 .412.411l.618-.618a.29.29 0 0 0 0-.411.29.29 0 0 0-.411 0m2.452 0-.618.618a.29.29 0 0 0 .207.496.28.28 0 0 0 .204-.085l.619-.618a.292.292 0 0 0-.412-.411m2.433.003-.595.618a.287.287 0 0 0 .006.411.293.293 0 0 0 .411-.006l.595-.618a.287.287 0 0 0-.006-.411.287.287 0 0 0-.411.006m-7.338 0-.595.618a.287.287 0 0 0 .006.411.293.293 0 0 0 .411-.006l.595-.618a.287.287 0 0 0-.006-.411.287.287 0 0 0-.411.006m3.669 2.126-.595.618a.287.287 0 0 0 .006.411.287.287 0 0 0 .411-.008l.595-.616a.287.287 0 0 0-.006-.411.287.287 0 0 0-.411.006m2.453-.003-.619.618a.292.292 0 0 0 .412.411l.618-.618a.29.29 0 0 0 0-.411.29.29 0 0 0-.411 0m-4.883 0-.618.618a.29.29 0 0 0 .207.496.3.3 0 0 0 .204-.085l.619-.618a.292.292 0 0 0-.412-.411m10.83-9.132a.29.29 0 0 0-.292-.114c-.088.018-.184.018-.286.018a2.158 2.158 0 0 1-1.878-3.223.293.293 0 0 0-.298-.432c-.656.1-1.254.426-1.685.922a2.73 2.73 0 0 0-.648 1.447 3.655 3.655 0 0 0-4.486 1.697 3 3 0 0 0-.746-.093 2.75 2.75 0 0 0-1.94.79 2.68 2.68 0 0 0-.805 1.925 2.744 2.744 0 0 0 2.745 2.736h3.966A3.663 3.663 0 0 0 11.8 6.446c.111.014.224.026.341.026a2.7 2.7 0 0 0 2.386-1.406.3.3 0 0 0-.023-.312M8.146 9.846H4.179a2.16 2.16 0 0 1-2.161-2.152c0-1.175.968-2.132 2.161-2.132.292 0 .569.05.782.137a.29.29 0 0 0 .376-.149 3.09 3.09 0 0 1 2.806-1.817c1.697 0 3.079 1.365 3.079 3.045a3.073 3.073 0 0 1-3.076 3.068m3.989-3.954c-.151 0-.306-.024-.452-.053a3.65 3.65 0 0 0-1.709-2.205 2.15 2.15 0 0 1 1.313-1.901 2.7 2.7 0 0 0-.111.77 2.744 2.744 0 0 0 2.505 2.727 2.1 2.1 0 0 1-1.546.662"/>
</svg>