<svg id="strib-weather-day-partly-sunny-flurries-lg" viewBox="0 0 16 16" width="16" height="16" fill="currentcolor" class="strib-icon strib-weather-day-partly-sunny-flurries-lg" xmlns="http://www.w3.org/2000/svg">
  <path d="M12.141 8.802c.355.372.584.865.621 1.409h-.003a1.29 1.29 0 0 1-.155 2.571H6.453a1.29 1.29 0 0 1-1.29-1.29c0-.223.062-.433.162-.616a2.9 2.9 0 0 0-1.322.212.2.2 0 0 1-.061.013.16.16 0 0 1-.113-.047.16.16 0 0 1-.034-.174c.3-.727.302-1.528 0-2.254a2.97 2.97 0 0 0-1.593-1.594.159.159 0 0 1 0-.293 2.93 2.93 0 0 0 1.593-1.594 2.92 2.92 0 0 0 0-2.254.159.159 0 0 1 .208-.208 2.92 2.92 0 0 0 2.255 0 2.93 2.93 0 0 0 1.593-1.594c.051-.119.247-.119.296 0A2.93 2.93 0 0 0 9.74 2.683a2.92 2.92 0 0 0 2.255 0 .16.16 0 0 1 .174.034.16.16 0 0 1 .034.174 2.92 2.92 0 0 0 0 2.254 2.98 2.98 0 0 0 1.595 1.594.158.158 0 0 1 0 .293 2.93 2.93 0 0 0-1.657 1.77M4.09 8.505c.292.699.328 1.459.115 2.175l.004.005c.432-.126.889-.16 1.343-.1.2-.198.459-.336.752-.37q.02-.207.094-.395a3.32 3.32 0 0 1-1.742-2.932 3.35 3.35 0 0 1 3.346-3.347 3.35 3.35 0 0 1 3.347 3.347c0 .444-.094.875-.266 1.285.297.079.569.215.805.397a3.25 3.25 0 0 1 1.481-1.684 3.28 3.28 0 0 1-1.459-1.62 3.24 3.24 0 0 1-.115-2.175 3.25 3.25 0 0 1-2.176-.115A3.25 3.25 0 0 1 8 1.518a3.24 3.24 0 0 1-1.619 1.458 3.25 3.25 0 0 1-2.176.115 3.24 3.24 0 0 1-.115 2.175 3.24 3.24 0 0 1-1.457 1.62A3.28 3.28 0 0 1 4.09 8.505m6.672-.396a3 3 0 0 0 .266-1.223A3.03 3.03 0 0 0 8 3.858a3.03 3.03 0 0 0-3.028 3.028c0 1.113.599 2.114 1.57 2.647a1.516 1.516 0 0 1 2.083-.45 2.27 2.27 0 0 1 2.137-.974m-4.309 4.354h6.153l.005.004a.972.972 0 0 0 0-1.942.16.16 0 0 1-.16-.159 1.953 1.953 0 0 0-1.95-1.951c-.697 0-1.343.374-1.691.98a.17.17 0 0 1-.111.076.16.16 0 0 1-.13-.034 1.196 1.196 0 0 0-1.946.78 1.3 1.3 0 0 1 .808.438 1.288 1.288 0 0 1 2.092.193.157.157 0 0 1-.138.238.16.16 0 0 1-.138-.078.97.97 0 0 0-.839-.487.97.97 0 0 0-.839.487.16.16 0 0 1-.138.078.16.16 0 0 1-.139-.078.97.97 0 0 0-.839-.487.973.973 0 0 0-.971.971c0 .535.436.971.971.971m.604 1.71.246.143.002.002a.159.159 0 0 1-.081.297.15.15 0 0 1-.078-.021l-.249-.142a.5.5 0 0 1-.176.102v.287a.16.16 0 0 1-.159.159.16.16 0 0 1-.16-.159v-.287q-.049-.014-.093-.038a.4.4 0 0 1-.085-.062l-.247.142a.14.14 0 0 1-.078.022.16.16 0 0 1-.139-.081.16.16 0 0 1 .058-.217l.248-.144a.5.5 0 0 1 0-.204l-.248-.145a.16.16 0 0 1-.058-.219.157.157 0 0 1 .217-.057l.251.144a.5.5 0 0 1 .172-.097v-.294a.16.16 0 0 1 .159-.159.16.16 0 0 1 .16.159v.285a.4.4 0 0 1 .095.041q.045.027.083.061l.247-.142a.16.16 0 0 1 .216.059.157.157 0 0 1-.057.217l-.246.142a.5.5 0 0 1 0 .206m-.589.062a.193.193 0 0 0 .257-.07l.002-.002a.18.18 0 0 0 .019-.143.18.18 0 0 0-.089-.114.2.2 0 0 0-.093-.026.19.19 0 0 0-.096.355m3.805.081-.246-.143a.5.5 0 0 0 0-.206l.246-.142a.16.16 0 0 0 .058-.217.16.16 0 0 0-.217-.059l-.246.142a.45.45 0 0 0-.179-.102v-.285a.16.16 0 0 0-.159-.159.16.16 0 0 0-.16.159v.294a.5.5 0 0 0-.172.097l-.25-.144a.157.157 0 0 0-.217.057.16.16 0 0 0 .057.219l.249.145a.5.5 0 0 0 0 .204l-.249.144a.16.16 0 0 0-.057.217c.03.051.083.081.138.081a.15.15 0 0 0 .079-.022l.246-.142a.4.4 0 0 0 .085.062q.045.024.094.038v.287a.16.16 0 0 0 .159.159.16.16 0 0 0 .159-.159v-.287a.5.5 0 0 0 .177-.102l.248.142a.16.16 0 0 0 .079.021.16.16 0 0 0 .138-.08.16.16 0 0 0-.057-.217zm-.577-.151a.194.194 0 0 1-.258.07.19.19 0 0 1 .096-.355.2.2 0 0 1 .094.026.19.19 0 0 1 .07.257zm3.299.008.247.143.002.002c.074.042.102.14.057.217a.156.156 0 0 1-.216.059l-.249-.142a.5.5 0 0 1-.176.102v.287a.16.16 0 0 1-.16.159.16.16 0 0 1-.159-.159v-.287q-.049-.014-.094-.038a.4.4 0 0 1-.085-.062l-.246.142a.14.14 0 0 1-.079.022.16.16 0 0 1-.138-.081.16.16 0 0 1 .058-.217l.248-.144a.5.5 0 0 1 0-.204l-.248-.145a.164.164 0 0 1-.058-.219.157.157 0 0 1 .217-.057l.251.144a.5.5 0 0 1 .172-.097v-.294a.16.16 0 0 1 .159-.159.16.16 0 0 1 .159.159v.285a.45.45 0 0 1 .179.102l.246-.142a.16.16 0 0 1 .217.059.16.16 0 0 1-.057.217l-.247.142a.5.5 0 0 1 0 .206m-.588.062a.193.193 0 0 0 .257-.07l.002-.002a.19.19 0 0 0-.07-.257.19.19 0 0 0-.259.07.19.19 0 0 0 .07.259"/>
</svg>