<svg id="strib-weather-day-mostly-sunny-lg" viewBox="0 0 16 16" width="16" height="16" fill="currentcolor" class="strib-icon strib-weather-day-mostly-sunny-lg" xmlns="http://www.w3.org/2000/svg" clip-rule="evenodd" fill-rule="evenodd">
  <path d="M13.249 11.66a2.5 2.5 0 0 0-.684-1.553 3.23 3.23 0 0 1 1.827-1.951.18.18 0 0 0 .108-.162.17.17 0 0 0-.108-.161 3.28 3.28 0 0 1-1.759-1.757 3.23 3.23 0 0 1 0-2.485.18.18 0 0 0-.037-.193.18.18 0 0 0-.192-.037 3.22 3.22 0 0 1-2.486 0 3.23 3.23 0 0 1-1.756-1.757c-.054-.131-.27-.131-.326 0a3.23 3.23 0 0 1-1.757 1.757 3.22 3.22 0 0 1-2.485 0 .18.18 0 0 0-.192.037.17.17 0 0 0-.037.193 3.23 3.23 0 0 1 0 2.485 3.23 3.23 0 0 1-1.757 1.757.175.175 0 0 0 0 .323 3.27 3.27 0 0 1 1.757 1.757c.332.801.33 1.684 0 2.485a.18.18 0 0 0 .037.192.18.18 0 0 0 .124.051.2.2 0 0 0 .068-.014 3.2 3.2 0 0 1 1.457-.234c-.11.202-.178.433-.178.679 0 .785.637 1.422 1.422 1.422h6.781a1.422 1.422 0 0 0 .171-2.834zm-9.432.518a3.57 3.57 0 0 0-.127-2.399 3.63 3.63 0 0 0-1.607-1.785A3.56 3.56 0 0 0 3.69 6.209c.319-.77.361-1.609.127-2.398a3.58 3.58 0 0 0 2.398-.127A3.56 3.56 0 0 0 8 2.077a3.58 3.58 0 0 0 1.785 1.607c.77.319 1.609.361 2.398.127a3.58 3.58 0 0 0 .127 2.398 3.62 3.62 0 0 0 1.609 1.785 3.6 3.6 0 0 0-1.633 1.858 2.5 2.5 0 0 0-.887-.438c.189-.452.293-.928.293-1.418a3.695 3.695 0 0 0-3.69-3.689 3.693 3.693 0 0 0-3.689 3.689c0 1.361.733 2.584 1.921 3.233a1.6 1.6 0 0 0-.103.436 1.4 1.4 0 0 0-.829.407 3.6 3.6 0 0 0-1.481.11zm2.576-1.265a3.31 3.31 0 0 1-1.731-2.919A3.34 3.34 0 0 1 8 4.656a3.34 3.34 0 0 1 3.338 3.338c0 .466-.101.921-.293 1.349a2.51 2.51 0 0 0-2.356 1.073 1.665 1.665 0 0 0-2.296.497m6.685 3.227H6.295c-.59 0-1.071-.48-1.071-1.07S5.705 12 6.295 12c.379 0 .735.206.925.536.03.054.089.087.152.087a.18.18 0 0 0 .153-.087A1.07 1.07 0 0 1 8.45 12c.379 0 .735.206.925.536a.175.175 0 0 0 .241.063.173.173 0 0 0 .063-.239 1.43 1.43 0 0 0-1.229-.709c-.417 0-.811.185-1.078.496a1.42 1.42 0 0 0-.89-.482 1.32 1.32 0 0 1 2.146-.86.177.177 0 0 0 .264-.047 2.16 2.16 0 0 1 1.865-1.08c1.185 0 2.15.965 2.15 2.151 0 .096.08.175.176.175a1.071 1.071 0 0 1 0 2.141z"/>
</svg>