<svg id="strib-weather-night-wintry-mix-lg" viewBox="0 0 16 16" width="16" height="16" fill="currentcolor" class="strib-icon strib-weather-night-wintry-mix-lg" xmlns="http://www.w3.org/2000/svg">
  <path d="M11.077 1.899h-.409a.164.164 0 0 1-.163-.163c0-.09.074-.164.163-.164h.409v-.408c0-.09.074-.164.163-.164s.164.074.164.164v.408h.408c.09 0 .164.074.164.164a.165.165 0 0 1-.164.163h-.408v.408c0 .09-.074.164-.164.164a.165.165 0 0 1-.163-.164zM4.675 5.564h-.409a.165.165 0 0 1-.163-.164c0-.089.074-.163.163-.163h.409v-.409c0-.089.074-.163.163-.163s.164.074.164.163v.409h.408c.09 0 .164.074.164.163s-.074.164-.164.164h-.408v.408c0 .09-.074.164-.164.164a.165.165 0 0 1-.163-.164zM2.119 3.333c.46.155.617.315.774.775a.17.17 0 0 0 .155.112c.07 0 .134-.044.155-.112.155-.46.315-.62.775-.775a.164.164 0 0 0 0-.31c-.46-.157-.617-.316-.775-.774a.164.164 0 0 0-.31 0c-.155.458-.314.617-.774.774a.17.17 0 0 0-.112.155c0 .07.046.134.112.155m.929-.615c.114.205.256.347.461.46a1.13 1.13 0 0 0-.461.461 1.1 1.1 0 0 0-.46-.461c.205-.113.347-.255.46-.46m7.5 4.112a2.333 2.333 0 0 1 2.275 2.174h.004a1.326 1.326 0 0 1-.159 2.641H6.347a1.325 1.325 0 0 1-1.306-1.539 4.5 4.5 0 0 1-1.25-.489 4.6 4.6 0 0 1-1.762-1.824.16.16 0 0 1 .029-.192.16.16 0 0 1 .192-.029 3.605 3.605 0 0 0 4.841-1.381 3.607 3.607 0 0 0-1.225-4.883.17.17 0 0 1-.072-.181c.02-.07.081-.12.153-.123a4.6 4.6 0 0 1 2.458.612 4.634 4.634 0 0 1 2.143 5.214m-7.96 1.253c.358.513.821.939 1.362 1.251h.002c.365.209.762.362 1.181.458a1.32 1.32 0 0 1 1.054-.788 1.56 1.56 0 0 1 2.386-1.159 2.33 2.33 0 0 1 1.63-1 4.31 4.31 0 0 0-1.962-4.948 4.3 4.3 0 0 0-1.763-.554 3.93 3.93 0 0 1 .894 5.009 3.93 3.93 0 0 1-4.784 1.731m3.754 3.235h6.328a.999.999 0 0 0 0-1.995.165.165 0 0 1-.164-.164 2.007 2.007 0 0 0-2.003-2.004q-.076.001-.151.009h-.007a2.01 2.01 0 0 0-1.58.998.165.165 0 0 1-.247.043 1.23 1.23 0 0 0-1.999.801c.321.044.618.203.829.45.249-.29.616-.463 1.005-.463.469 0 .908.253 1.145.662a.163.163 0 0 1-.141.246.16.16 0 0 1-.142-.081 1.01 1.01 0 0 0-.865-.499 1 1 0 0 0-.862.499.16.16 0 0 1-.142.083.16.16 0 0 1-.142-.08 1 1 0 0 0-.862-.5.998.998 0 0 0 0 1.995m1.316 1.274h-.174a1 1 0 0 0-.048-.085l.087-.15a.163.163 0 0 0-.059-.223.167.167 0 0 0-.225.059l-.087.153q-.03-.002-.063-.001l-.031.001-.089-.155a.163.163 0 0 0-.225-.059.16.16 0 0 0-.059.223l.087.15-.012.016-.016.023-.014.031-.003.006-.003.007H6.55a.165.165 0 0 0-.164.164c0 .089.074.164.164.164h.172a.4.4 0 0 0 .048.087l-.085.148a.164.164 0 0 0 .284.164l.087-.151.022.003q.013.004.026.004l.034-.004.01-.002.004-.001.087.151a.17.17 0 0 0 .142.083.166.166 0 0 0 .142-.247l-.087-.153.012-.015.016-.022.014-.03.006-.015h.174c.09 0 .164-.075.164-.164a.165.165 0 0 0-.164-.164zm-.478.21a.09.09 0 0 1-.122.033.08.08 0 0 1-.041-.055.1.1 0 0 1 .008-.065.1.1 0 0 1 .079-.046q.024 0 .044.011a.09.09 0 0 1 .032.12zm3.504-.21h.174v-.006c.09 0 .164.074.164.164a.165.165 0 0 1-.164.163h-.174l-.006.016q-.005.015-.014.03l-.016.021-.012.016.087.153a.167.167 0 0 1-.061.225.15.15 0 0 1-.081.022.17.17 0 0 1-.142-.083l-.087-.151-.004.001-.011.002-.033.004-.026-.004-.022-.003-.087.151a.163.163 0 0 1-.225.061.165.165 0 0 1-.059-.225l.085-.148a.4.4 0 0 1-.048-.085h-.173a.165.165 0 0 1-.163-.164c0-.09.074-.164.163-.164h.175l.006-.013.014-.031q.01-.02.028-.039l-.087-.15a.164.164 0 0 1 .284-.164l.089.155h.017l.014-.001q.032-.001.063.001l.087-.153a.164.164 0 0 1 .223-.059.16.16 0 0 1 .061.223l-.087.15a1 1 0 0 1 .048.085m-.426.243a.09.09 0 0 0 .122-.033l-.002.002a.089.089 0 1 0-.153-.089.1.1 0 0 0-.008.067.1.1 0 0 0 .041.053m1.648.484c.09 0 .164-.072.164-.163v-.801a.165.165 0 0 0-.164-.164.165.165 0 0 0-.164.164v.801c0 .089.075.163.164.163m-1.766.638c0-.09.074-.164.164-.164.092 0 .164.074.164.164v.801a.16.16 0 0 1-.164.163.163.163 0 0 1-.164-.163zm-3.036-.164a.165.165 0 0 0-.164.164v.801c0 .089.072.163.164.163a.16.16 0 0 0 .164-.163v-.801a.163.163 0 0 0-.164-.164m1.98.399h.174l.003-.004c.089 0 .163.074.163.164a.165.165 0 0 1-.163.164h-.175l-.003.007-.003.008a.2.2 0 0 1-.029.052l-.013.015.087.153a.164.164 0 0 1-.142.245.17.17 0 0 1-.141-.083l-.088-.151-.014.003q-.016.004-.034.004-.013 0-.025-.004l-.023-.003-.087.151a.16.16 0 0 1-.142.083.2.2 0 0 1-.083-.022.166.166 0 0 1-.059-.225l.085-.148a.5.5 0 0 1-.048-.085h-.172a.165.165 0 0 1-.164-.164c0-.09.074-.164.164-.164h.172l.006-.013.014-.031q.01-.022.028-.041l-.087-.151a.16.16 0 0 1 .059-.222.166.166 0 0 1 .225.061l.089.155.031-.001q.032-.001.063.001l.087-.153a.164.164 0 0 1 .223-.059.16.16 0 0 1 .061.223l-.087.15a1 1 0 0 1 .048.085m-.426.243a.09.09 0 0 0 .122-.033h-.002a.09.09 0 0 0-.033-.12.1.1 0 0 0-.043-.011.09.09 0 0 0-.077.044.1.1 0 0 0-.008.067.1.1 0 0 0 .041.053m3.802-.243h-.174a.4.4 0 0 0-.048-.083l.087-.15a.163.163 0 0 0-.059-.223.167.167 0 0 0-.225.059l-.087.153q-.03-.002-.063-.001l-.031.001-.089-.155a.163.163 0 0 0-.225-.059.16.16 0 0 0-.059.223l.087.15-.006.009-.006.007-.016.024-.014.03-.006.013h-.174a.165.165 0 0 0-.164.164c0 .089.074.164.164.164h.172a.4.4 0 0 0 .048.087l-.085.148a.164.164 0 0 0 .142.247.16.16 0 0 0 .142-.083l.087-.151q.011 0 .022.004l.026.003a.2.2 0 0 0 .048-.007l.087.151a.17.17 0 0 0 .142.083.166.166 0 0 0 .142-.247l-.087-.152.012-.016q.01-.01.016-.022.009-.015.014-.03l.006-.015h.174c.09 0 .164-.075.164-.164a.165.165 0 0 0-.164-.164zm-.478.21a.09.09 0 0 1-.12.033.087.087 0 0 1-.032-.12.09.09 0 0 1 .076-.044q.024 0 .044.011a.09.09 0 0 1 .032.12m-3.114-1.246a.164.164 0 0 1-.328 0v-.801c0-.09.072-.164.164-.164s.164.074.164.164z"/>
</svg>