<svg id="strib-weather-night-partly-cloudy-lg-color" viewBox="0 0 16 16" width="16" height="16" fill="currentcolor" class="strib-icon strib-weather-night-partly-cloudy-lg-color" xmlns="http://www.w3.org/2000/svg">
  <path fill="var(--weather-moon-highlight, #d3eaea)" d="M2.216 3.787c.133.239.298.405.538.538-.24.132-.405.298-.538.538a1.3 1.3 0 0 0-.538-.538c.24-.133.406-.299.538-.538m6.402-.742a5.23 5.23 0 0 1-.212 6.593 1.8 1.8 0 0 0-.71-.145h-.003c-.929 0-1.717.713-1.81 1.637a1.6 1.6 0 0 0-.633.223 5.2 5.2 0 0 1-2.647-.301 5 5 0 0 1-.923-.995 4.62 4.62 0 0 0 5.587-2.023 4.62 4.62 0 0 0-1.045-5.851c.86.076 1.685.373 2.396.862"/>
  <path fill="var(--weather-moon-shadow, #afc2c4)" d="M1.68 10.057c.261.372.571.707.923.995a5.2 5.2 0 0 0 2.647.301 1.6 1.6 0 0 1 .633-.223v.002a1.55 1.55 0 0 0-1.232.921 5 5 0 0 1-1.379-.536h-.003a4.9 4.9 0 0 1-1.589-1.46m6.016-.564c.244 0 .485.05.71.145a5.23 5.23 0 0 0 .212-6.593 5.05 5.05 0 0 1 1.956 5.566 2.72 2.72 0 0 0-1.905 1.167 1.8 1.8 0 0 0-.973-.285"/>
  <path fill="var(--weather-cloud-highlight, #afc2c4)" d="M7.331 9.922c.428.258.725.707.777 1.228a1.55 1.55 0 0 0-.869.51 1.55 1.55 0 0 0-.969-.525 1.44 1.44 0 0 1 1.061-1.213"/>
  <path fill="var(--weather-cloud-highlight, #afc2c4)" d="m9.319 11.415.003-.104c0-.438-.174-.836-.455-1.128a.2.2 0 0 0 .027-.035c.33-.57.883-.972 1.516-1.115a2.53 2.53 0 0 1 1.431 2.278h.003c.744 0 1.356.612 1.356 1.356 0 .477-.252.921-.662 1.165H6.066a1.175 1.175 0 0 1-1.118-1.165c0-.576.428-1.064.985-1.152a1 1 0 0 1 .131-.011c.415.002.799.225 1.007.584a.19.19 0 0 0 .331-.002c.207-.36.594-.584 1.007-.584.416.001.802.224 1.01.584a.192.192 0 1 0 .331-.194 1.6 1.6 0 0 0-.431-.477"/>
  <path fill="var(--weather-cloud-shadow, #839396)" d="M8.867 10.183c.281.292.455.69.455 1.128l-.003.104a1.55 1.55 0 0 0-1.211-.265 1.63 1.63 0 0 0-.777-1.229q.176-.047.365-.047c.332 0 .653.115.91.325a.194.194 0 0 0 .261-.016"/>
  <path fill="var(--weather-cloud-shadow, #839396)" d="M5.933 11.515a1.17 1.17 0 0 0-.985 1.152 1.175 1.175 0 0 0 1.118 1.165h6.472c.41-.244.662-.688.662-1.165 0-.744-.612-1.356-1.356-1.356h-.003c0-.969-.558-1.857-1.431-2.278a2.4 2.4 0 0 1 .33-.05h.007q.087-.009.176-.01a2.345 2.345 0 0 1 2.341 2.341c0 .104.086.19.191.19a1.166 1.166 0 0 1 0 2.331H6.064a1.17 1.17 0 0 1-1.132-1.166 1.18 1.18 0 0 1 1.001-1.154"/>
  <path fill="var(--weather-outline, #231f20)" d="M11.594 2.833h-.478a.19.19 0 0 1-.19-.19v-.001c0-.105.086-.191.191-.191h.477v-.477c0-.105.086-.191.191-.191.104 0 .191.086.191.191v.477h.477c.104 0 .191.086.191.191v.001c0 .104-.086.19-.19.19h-.478v.478c0 .104-.086.19-.19.19h-.002a.19.19 0 0 1-.19-.19zM4.116 7.111h-.478a.19.19 0 0 1-.19-.19V6.92c0-.104.086-.191.191-.191h.477v-.477c0-.104.086-.191.191-.191.104 0 .191.087.191.191v.477h.477c.104 0 .191.087.191.191v.001c0 .104-.086.19-.19.19h-.478v.478c0 .104-.086.19-.19.19h-.002a.19.19 0 0 1-.19-.19zM1.13 4.506c.538.181.724.367.905.905a.19.19 0 0 0 .362 0c.181-.538.367-.724.905-.905a.19.19 0 0 0 0-.362c-.538-.184-.721-.37-.905-.905a.19.19 0 0 0-.181-.131.19.19 0 0 0-.181.131c-.181.535-.367.721-.905.905a.19.19 0 0 0 0 .362m1.086-.719c.133.239.298.405.538.538-.24.132-.405.298-.538.538a1.3 1.3 0 0 0-.538-.538c.24-.133.406-.299.538-.538m8.761 4.806a2.746 2.746 0 0 1 2.656 2.539h.006a1.56 1.56 0 0 1 1.364 1.537c0 .849-.699 1.548-1.548 1.548H6.069a1.567 1.567 0 0 1-1.548-1.547q.002-.13.023-.25a5.3 5.3 0 0 1-1.461-.571 5.4 5.4 0 0 1-2.057-2.132.19.19 0 0 1 .033-.224.19.19 0 0 1 .224-.033c1.998 1.079 4.528.357 5.655-1.614a4.25 4.25 0 0 0-1.43-5.704.19.19 0 0 1-.089-.162c0-.102.081-.187.183-.192 1.005-.036 2 .212 2.871.714a5.44 5.44 0 0 1 2.504 6.091m-9.299 1.463c.416.598.96 1.097 1.591 1.461h.003c.426.245.89.423 1.379.536a1.55 1.55 0 0 1 1.232-.921 1.833 1.833 0 0 1 1.81-1.639c.347 0 .686.102.976.285a2.72 2.72 0 0 1 1.905-1.167 5.054 5.054 0 0 0-2.292-5.78 5 5 0 0 0-2.06-.648 4.62 4.62 0 0 1 1.045 5.851 4.62 4.62 0 0 1-5.589 2.022m4.386 3.779h7.391c.642 0 1.165-.523 1.165-1.165 0-.643-.523-1.166-1.165-1.166h-.001a.19.19 0 0 1-.19-.19v-.001c0-1.29-1.051-2.34-2.341-2.34a2 2 0 0 0-.176.01h-.007a2.35 2.35 0 0 0-1.846 1.165.194.194 0 0 1-.288.051 1.44 1.44 0 0 0-.909-.324c-.722 0-1.338.544-1.427 1.26.375.051.722.237.969.525a1.55 1.55 0 0 1 1.173-.541c.548 0 1.06.296 1.338.773a.192.192 0 1 1-.331.194 1.17 1.17 0 0 0-1.01-.584c-.413 0-.8.224-1.007.584a.19.19 0 0 1-.331.002 1.17 1.17 0 0 0-1.007-.584c-.626.02-1.13.539-1.132 1.165 0 .627.506 1.148 1.132 1.166"/>
</svg>