<svg id="strib-weather-night-mostly-cloudy" viewBox="0 0 16 16" width="16" height="16" fill="currentcolor" class="strib-icon strib-weather-night-mostly-cloudy" xmlns="http://www.w3.org/2000/svg">
  <path d="M14.922 7.517a.76.76 0 0 0-.615-.433 2.67 2.67 0 0 1-1.705-.858 3.23 3.23 0 0 1-.643-3.196.8.8 0 0 0-.15-.773.7.7 0 0 0-.307-.213.7.7 0 0 0-.373-.033l-.009.001a3.96 3.96 0 0 0-3.11 3.716A3.7 3.7 0 0 0 6.75 5.5a3.77 3.77 0 0 0-3.575 2.622A2.99 2.99 0 0 0 1.03 11.42 2.99 2.99 0 0 0 4 14h5.5a2.987 2.987 0 0 0 2.807-4.044 3.76 3.76 0 0 0 2.566-1.679.76.76 0 0 0 .049-.76M9.5 13H4a1.998 1.998 0 0 1-1.582-3.219 2 2 0 0 1 1.245-.746l.332-.056.072-.328A2.75 2.75 0 0 1 6.75 6.499c.625 0 1.232.213 1.719.605.488.391.828.937.963 1.547l.073.328.331.056A1.997 1.997 0 0 1 9.5 13m2.232-4.001h-.01a3 3 0 0 0-1.398-.877 3.75 3.75 0 0 0-1.3-1.839c-.005-.05-.018-.098-.02-.15a3.04 3.04 0 0 1 1.895-3.025 4.23 4.23 0 0 0 .97 3.798A3.7 3.7 0 0 0 13.82 8.02a2.72 2.72 0 0 1-2.088.979"/>
</svg>