<svg id="strib-weather-night-snowy" viewBox="0 0 16 16" width="16" height="16" fill="currentcolor" class="strib-icon strib-weather-night-snowy" xmlns="http://www.w3.org/2000/svg">
  <path d="M8.618 3.139a3.26 3.26 0 0 0-3.392 1.703 2.44 2.44 0 0 0-2.5.65 2.45 2.45 0 0 0-.453 2.713 2.45 2.45 0 0 0 2.354 1.424l3.491.004h.001a3.27 3.27 0 0 0 3.255-3.016 3.27 3.27 0 0 0-2.756-3.478m-.072.461a2.8 2.8 0 0 1 2.362 2.982 2.795 2.795 0 0 1-2.789 2.584l-3.504-.004h-.013a1.982 1.982 0 0 1-1.538-3.35 2 2 0 0 1 1.974-.54 4 4 0 0 0-.101.344c-.064.29.379.406.454.108a2.797 2.797 0 0 1 3.155-2.125z"/>
  <path d="M11.499 1.001h-.022c-1.623.156-2.413 1.452-2.427 2.562-.005.312.463.318.467.007a2.14 2.14 0 0 1 1.584-2.034c-.097.274-.15.571-.151.863 0 1.3 1.001 2.404 2.311 2.554a2.14 2.14 0 0 1-2.072.661c-.315-.094-.433.393-.109.453.2.049.371.066.577.066h.001c.933 0 1.795-.491 2.26-1.289a.234.234 0 0 0-.223-.35 1 1 0 0 1-.136.007c-1.188 0-2.142-.94-2.142-2.102 0-.367.097-.731.283-1.048A.233.233 0 0 0 11.499 1zM5.185 11.267a.23.23 0 0 0-.104.032l-1.627.93a.25.25 0 0 0-.118.142.2.2 0 0 0-.008.093.24.24 0 0 0 .091.159.2.2 0 0 0 .085.04.23.23 0 0 0 .181-.029l1.628-.93a.23.23 0 0 0 .103-.115.23.23 0 0 0 .009-.155.24.24 0 0 0-.09-.126.24.24 0 0 0-.15-.041"/>
  <path d="M4.38 10.8a.235.235 0 0 0-.23.236v1.861a.23.23 0 0 0 .233.236.23.23 0 0 0 .166-.069.24.24 0 0 0 .068-.167v-1.861a.24.24 0 0 0-.146-.219.3.3 0 0 0-.091-.017"/>
  <path d="M3.551 11.267a.233.233 0 0 0-.198.329.24.24 0 0 0 .1.109l1.628.929a.2.2 0 0 0 .088.034.2.2 0 0 0 .093-.004.2.2 0 0 0 .085-.041.2.2 0 0 0 .062-.07.2.2 0 0 0 .029-.089.24.24 0 0 0-.052-.176.2.2 0 0 0-.073-.058l-1.628-.931a.23.23 0 0 0-.134-.032m8.868 0a.2.2 0 0 0-.104.032l-1.628.93a.23.23 0 0 0-.125.235.3.3 0 0 0 .029.089.2.2 0 0 0 .062.07.2.2 0 0 0 .085.04q.046.012.093.004a.2.2 0 0 0 .088-.033l1.628-.93a.23.23 0 0 0 .111-.27.23.23 0 0 0-.09-.126.24.24 0 0 0-.149-.041"/>
  <path d="M11.613 10.8a.233.233 0 0 0-.229.236v1.861a.23.23 0 0 0 .323.218.2.2 0 0 0 .076-.051.2.2 0 0 0 .05-.077.2.2 0 0 0 .017-.09v-1.861a.2.2 0 0 0-.017-.091.3.3 0 0 0-.051-.077.3.3 0 0 0-.078-.051.3.3 0 0 0-.091-.017"/>
  <path d="M10.784 11.267a.24.24 0 0 0-.137.055.24.24 0 0 0-.076.127.24.24 0 0 0 .015.147.24.24 0 0 0 .101.109l1.628.929a.23.23 0 0 0 .181.03.2.2 0 0 0 .085-.041.2.2 0 0 0 .062-.07.3.3 0 0 0 .029-.089.22.22 0 0 0-.053-.176.2.2 0 0 0-.073-.058l-1.628-.931a.23.23 0 0 0-.134-.032m-1.982 1.867a.2.2 0 0 0-.104.032l-1.628.93a.23.23 0 0 0-.117.141.23.23 0 0 0 .021.183.2.2 0 0 0 .062.07.2.2 0 0 0 .085.04q.046.012.093.004a.2.2 0 0 0 .088-.033l1.628-.93a.23.23 0 0 0 .111-.27.23.23 0 0 0-.239-.167"/>
  <path d="M7.996 12.667a.23.23 0 0 0-.163.071.23.23 0 0 0-.066.165v1.86a.2.2 0 0 0 .016.091.3.3 0 0 0 .051.077.23.23 0 0 0 .256.051.23.23 0 0 0 .126-.128.2.2 0 0 0 .017-.091v-1.86a.235.235 0 0 0-.146-.219.2.2 0 0 0-.091-.017"/>
  <path d="M7.168 13.134a.233.233 0 0 0-.198.329.23.23 0 0 0 .1.108l1.628.93a.235.235 0 0 0 .328-.081.23.23 0 0 0-.023-.265.3.3 0 0 0-.073-.059l-1.628-.93a.23.23 0 0 0-.134-.032"/>
</svg>