<svg id="strib-world" viewBox="0 0 16 16" width="16" height="16" fill="currentcolor" class="strib-icon strib-world" xmlns="http://www.w3.org/2000/svg">
  <path d="M1 8.011V8c0-3.863 3.137-7 7-7s7 3.137 7 7v.011h-.943V8a6 6 0 0 0-.245-1.705H10.59q.114.846.114 1.705v.011h-.943V8q0-.86-.123-1.705H6.362A12 12 0 0 0 6.239 8v.011h-.943V8q0-.86.114-1.705H2.188A6 6 0 0 0 1.943 8v.011zm9.427-2.659h3.021A6.07 6.07 0 0 0 9.25 2.073c.541 1.037.937 2.14 1.177 3.279M8.098 1.944 8 1.943l-.099.001a11.9 11.9 0 0 0-1.363 3.408h2.924a11.9 11.9 0 0 0-1.364-3.408M3.717 3.717a6 6 0 0 0-1.165 1.635h3.02A12.8 12.8 0 0 1 6.75 2.073a6.06 6.06 0 0 0-3.033 1.644M15 8.011A7.004 7.004 0 0 1 8 15a7.004 7.004 0 0 1-7-6.989h.943c.001.574.084 1.144.245 1.694H5.41a13 13 0 0 1-.114-1.694h.943q.001.854.123 1.694h3.276q.121-.84.123-1.694h.943q0 .853-.114 1.694h3.222c.161-.55.244-1.12.245-1.694zm-5.75 5.916a6.08 6.08 0 0 0 4.198-3.279h-3.021a12.8 12.8 0 0 1-1.177 3.279m.212-3.279H6.538a11.9 11.9 0 0 0 1.363 3.408l.099.001.098-.001a11.9 11.9 0 0 0 1.364-3.408m-6.91 0a6.07 6.07 0 0 0 4.198 3.278 12.8 12.8 0 0 1-1.178-3.278z"/>
</svg>