<svg id="strib-world-filled" viewBox="0 0 16 16" width="16" height="16" fill="currentcolor" class="strib-icon strib-world-filled" xmlns="http://www.w3.org/2000/svg">
  <path d="M9.643 6.25H6.357c-.071.571-.143 1.071-.143 1.714 0 .572.072 1.143.143 1.643h3.357c.072-.571.143-1.071.143-1.643zm1.071 1.714c0 .572-.071 1.143-.071 1.643h4.143A6.5 6.5 0 0 0 15 7.964q0-.857-.214-1.714h-4.143c0 .571.071 1.143.071 1.714M9.5 10.607h-3c.286 1.429.857 2.714 1.5 3.643q1.071-1.5 1.5-3.643m.929-5.214h4c-.929-2.357-3.215-4.072-5.857-4.357.928 1.143 1.571 2.643 1.857 4.357m-3.929 0h3.072c-.286-1.429-.858-2.714-1.5-3.643-.786.929-1.286 2.143-1.572 3.643m3.929 5.214c-.358 1.714-1 3.214-1.857 4.357 2.642-.214 4.857-1.928 5.857-4.357zm-4.858 0h-4c.929 2.357 3.215 4.072 5.857 4.357-.928-1.214-1.571-2.714-1.857-4.357m-.285-2.643c0-.571.071-1.143.071-1.714H1.214A6.6 6.6 0 0 0 1 7.964c0 .572.071 1.143.214 1.643h4.143c0-.5-.071-1.071-.071-1.643m.285-2.571c.286-1.714.929-3.214 1.786-4.357C4.714 1.25 2.5 2.964 1.571 5.393z"/>
</svg>