<svg id="strib-zoom-out" viewBox="0 0 16 16" width="16" height="16" fill="currentcolor" class="strib-icon strib-zoom-out" xmlns="http://www.w3.org/2000/svg">
  <path d="M4.111 6.186h5.186v1.037H4.111z"/>
  <path d="M11.084 10.333a5.62 5.62 0 0 0 1.323-3.629 5.7 5.7 0 0 0-3.52-5.27 5.7 5.7 0 0 0-6.216 1.237 5.7 5.7 0 0 0 .864 8.775 5.7 5.7 0 0 0 3.169.961 5.62 5.62 0 0 0 3.629-1.323L14.267 15l.733-.734zm-4.38 1.037a4.66 4.66 0 0 1-2.593-.787A4.66 4.66 0 0 1 2.393 8.49a4.664 4.664 0 0 1 3.401-6.364 4.67 4.67 0 0 1 5.576 4.578 4.67 4.67 0 0 1-4.666 4.666"/>
</svg>