<svg id="arrow-right-filled" xmlns="http://www.w3.org/2000/svg" width="12.003" height="11.979" viewBox="0 0 12.003 11.979" fill="currentColor">
  <path d="M6.369,10.948c-0.058,0.057-0.17,0.057-0.226,0c-0.057-0.059-0.112-0.113-0.112-0.227V7.909h-5.01 c-0.111,0-0.225-0.111-0.225-0.227V4.251c0-0.111,0.113-0.225,0.225-0.225h5.009V1.214c0-0.057,0.057-0.17,0.112-0.225 c0.056,0,0.168,0,0.226,0.055l4.78,4.783c0.058,0.055,0.058,0.111,0.058,0.168s0,0.113-0.058,0.168 C11.092,6.165,6.313,10.948,6.369,10.948L6.369,10.948z" />
</svg>