<svg id="arrow-up" xmlns="http://www.w3.org/2000/svg" width="12.003" height="11.979" viewBox="0 0 12.003 11.979" fill="currentColor">
  <g>
    <path d="M6.012,1.094C6.28,1.415,7.075,2.22,9.432,4.558c0.582,0.577,0.918,0.91,1.123,1.103H7.92H7.62v0.3v4.933H4.338V5.96v-0.3 H4.04L1.439,5.664L6.012,1.094 M6.008,0.784c-0.057,0-0.113,0-0.168,0.058l-4.783,4.78C1,5.68,1,5.792,1,5.848 C1.057,5.905,1.168,5.96,1.225,5.96H4.04v5.009c0,0.111,0.111,0.225,0.225,0.225h3.432c0.113,0,0.225-0.113,0.225-0.225V5.96h2.814 c0.111,0,0.168-0.057,0.225-0.112s0.057-0.168,0-0.226l0,0c-0.057,0-4.783-4.725-4.783-4.78C6.122,0.784,6.065,0.784,6.008,0.784 L6.008,0.784z" />
  </g>
</svg>