<svg id="arrow-left" xmlns="http://www.w3.org/2000/svg" width="12.003" height="11.979" viewBox="0 0 12.003 11.979" fill="currentColor">
  <g>
    <path d="M1.106,5.978c0.321-0.268,1.126-1.063,3.463-3.42C5.147,1.976,5.48,1.64,5.672,1.435V4.07V4.37h0.3h4.934v3.282H5.973h-0.3 v0.299l0.004,2.601L1.106,5.978 M0.797,5.982c0,0.057,0,0.113,0.058,0.168l4.78,4.783c0.058,0.057,0.17,0.057,0.226,0.057 c0.057-0.057,0.112-0.168,0.112-0.225V7.951h5.009c0.111,0,0.225-0.111,0.225-0.225V4.294c0-0.113-0.113-0.225-0.225-0.225h-5.01 V1.256c0-0.111-0.057-0.168-0.112-0.225s-0.168-0.057-0.226,0l0,0c0,0.057-4.724,4.783-4.78,4.783 C0.797,5.869,0.797,5.926,0.797,5.982L0.797,5.982z"/>
  </g>
</svg>