<svg id="arrow-down-filled" xmlns="http://www.w3.org/2000/svg" width="12.003" height="11.979" viewBox="0 0 12.003 11.979" fill="currentColor">
  <path d="M10.959,6.355c0.057-0.057,0.057-0.17,0-0.225c-0.059-0.058-0.113-0.113-0.227-0.113H7.92V1.01 c0-0.113-0.111-0.226-0.227-0.226H4.262c-0.111,0-0.225,0.112-0.225,0.226v5.007H1.225c-0.057,0-0.17,0.057-0.225,0.113 c0,0.055,0,0.168,0.055,0.225l4.783,4.781c0.055,0.057,0.111,0.057,0.168,0.057s0.113,0,0.168-0.057 C6.176,11.08,10.959,6.299,10.959,6.355L10.959,6.355z" />
</svg>