<svg id="arrow-up-filled" xmlns="http://www.w3.org/2000/svg" width="12.003" height="11.979" viewBox="0 0 12.003 11.979" fill="currentColor">
  <path d="M10.959,5.622c0.057,0.058,0.057,0.17,0,0.226c-0.059,0.057-0.113,0.112-0.227,0.112H7.92v5.009 c0,0.111-0.111,0.225-0.227,0.225H4.262c-0.111,0-0.225-0.113-0.225-0.225V5.96H1.225C1.168,5.96,1.055,5.904,1,5.848 C1,5.792,1,5.68,1.055,5.622l4.783-4.78C5.893,0.784,5.95,0.784,6.006,0.784s0.113,0,0.168,0.058 C6.176,0.899,10.959,5.679,10.959,5.622L10.959,5.622z" />
</svg>