<svg id="arrow-down" xmlns="http://www.w3.org/2000/svg" width="12.003" height="11.979" viewBox="0 0 12.003 11.979" fill="currentColor">
  <g>
    <path d="M7.62,1.084v4.933v0.3h0.3l2.701-0.009c-1.002,0.875-3.886,3.759-4.59,4.597L1.441,6.317h2.596h0.3v-0.3V1.084H7.62 M7.693,0.784H4.262c-0.111,0-0.225,0.111-0.225,0.226v5.007H1.225C1.168,6.017,1.055,6.074,1,6.13c0,0.055,0,0.168,0.055,0.225 l4.783,4.781c0.055,0.057,0.111,0.057,0.168,0.057c0.057,0,0.113,0,0.168-0.057c0.002-0.056,4.729-4.782,4.785-4.782c0,0,0,0,0,0 c0.058-0.057,0.058-0.17,0-0.225c-0.059-0.058-0.112-0.113-0.227-0.113H7.919V1.01C7.919,0.897,7.809,0.784,7.693,0.784 L7.693,0.784z" />
  </g>
</svg>