<?xml version="1.0" encoding="utf-8"?>
<!-- Generator: Adobe Illustrator 21.1.0, SVG Export Plug-In . SVG Version: 6.00 Build 0)  -->
<svg version="1.1" id="Layer_1" xmlns="http://www.w3.org/2000/svg" xmlns:xlink="http://www.w3.org/1999/xlink" x="0px" y="0px"
	 viewBox="0 0 20 21" style="enable-background:new 0 0 20 21;" xml:space="preserve">
<style type="text/css">
	.st0{fill:#231F20;}
</style>
<path class="st0" d="M18.8,11.2c0.1-0.1,0.1-0.3,0-0.4c-0.1-0.1-0.2-0.2-0.4-0.2h-5V1.7c0-0.2-0.2-0.4-0.4-0.4H6.9
	c-0.2,0-0.4,0.2-0.4,0.4v8.9h-5c-0.1,0-0.3,0.1-0.4,0.2c0,0.1,0,0.3,0.1,0.4l8.5,8.5c0.1,0.1,0.2,0.1,0.3,0.1s0.2,0,0.3-0.1
	C10.3,19.6,18.8,11.1,18.8,11.2z"/>
</svg>
