<svg id="arrow-left-filled" xmlns="http://www.w3.org/2000/svg" width="12.003" height="11.979" viewBox="0 0 12.003 11.979" fill="currentColor">
  <path d="M5.634,1.031c0.058-0.057,0.17-0.057,0.226,0C5.917,1.09,5.972,1.144,5.972,1.258V4.07h5.01 c0.111,0,0.225,0.111,0.225,0.227v3.432c0,0.111-0.113,0.225-0.225,0.225H5.973v2.813c0,0.057-0.057,0.17-0.112,0.225 c-0.056,0-0.168,0-0.226-0.055l-4.78-4.783C0.797,6.097,0.797,6.041,0.797,5.984s0-0.113,0.058-0.168 C0.911,5.814,5.691,1.031,5.634,1.031L5.634,1.031z" />
</svg>