<svg id="arrow-right" xmlns="http://www.w3.org/2000/svg" width="12.003" height="11.979" viewBox="0 0 12.003 11.979" fill="currentColor">
  <g>
    <path d="M10.897,6.001c-0.321,0.268-1.126,1.063-3.464,3.42c-0.576,0.582-0.91,0.918-1.102,1.123V7.909V7.608h-0.3H1.098V4.327 h4.933h0.3V4.028L6.327,1.427L10.897,6.001 M11.207,5.997c0-0.057,0-0.113-0.058-0.168l-4.78-4.783 c-0.058-0.057-0.17-0.057-0.226-0.057C6.086,1.046,6.031,1.157,6.031,1.214v2.814H1.021c-0.111,0-0.225,0.111-0.225,0.225v3.432 c0,0.113,0.113,0.225,0.225,0.225h5.01v2.814c0,0.111,0.057,0.168,0.112,0.225s0.168,0.057,0.226,0l0,0 c0-0.057,4.724-4.783,4.78-4.783C11.207,6.11,11.207,6.053,11.207,5.997L11.207,5.997z" />
  </g>
</svg>