<svg id="audio-waves" viewBox="0 0 16 16" xmlns="http://www.w3.org/2000/svg">
  <path fill="var(--strib-icon-color, #0d0d0d)" fill-rule="evenodd" clip-rule="evenodd" d="M6.821,1.718L6.821,14.282C6.821,14.769 6.379,15.164 5.834,15.164C5.289,15.164 4.848,14.769 4.848,14.282L4.848,1.718C4.848,1.231 5.289,0.836 5.834,0.836C6.379,0.836 6.821,1.231 6.821,1.718ZM2.473,6.496L2.473,14.282C2.473,14.769 2.032,15.164 1.487,15.164C0.942,15.164 0.5,14.769 0.5,14.282L0.5,6.496C0.5,6.009 0.942,5.614 1.487,5.614C2.032,5.614 2.473,6.009 2.473,6.496ZM11.161,14.282L11.161,10.075C11.161,9.588 10.719,9.193 10.174,9.193C9.629,9.193 9.187,9.588 9.187,10.075L9.187,14.282C9.187,14.769 9.629,15.164 10.174,15.164C10.719,15.164 11.161,14.769 11.161,14.282ZM15.5,7.689L15.5,14.282C15.5,14.769 15.058,15.164 14.513,15.164C13.968,15.164 13.527,14.769 13.527,14.282L13.527,7.689C13.527,7.202 13.968,6.807 14.513,6.807C15.058,6.807 15.5,7.202 15.5,7.689Z"/>
</svg>
