<svg id="avatar-filled" viewBox="0 0 16 16" version="1.1" xmlns="http://www.w3.org/2000/svg" xmlns:xlink="http://www.w3.org/1999/xlink" xml:space="preserve" xmlns:serif="http://www.serif.com/" style="fill-rule:evenodd;clip-rule:evenodd;stroke-linejoin:round;stroke-miterlimit:2;">
  <path fill="var(--strib-icon-color, #0d0d0d)" fill-rule="evenodd" clip-rule="evenodd" d="M13.768,12.794C14.538,11.868 15.073,10.769 15.329,9.592C15.585,8.415 15.553,7.194 15.237,6.032C14.921,4.87 14.33,3.8 13.513,2.915C12.696,2.03 11.679,1.354 10.546,0.945C9.413,0.536 8.198,0.406 7.004,0.566C5.81,0.726 4.672,1.172 3.687,1.864C2.702,2.557 1.897,3.477 1.343,4.546C0.788,5.615 0.499,6.802 0.5,8.007C0.5,9.758 1.117,11.452 2.243,12.794L2.232,12.803C2.27,12.848 2.313,12.887 2.351,12.931C2.399,12.986 2.451,13.038 2.501,13.092C2.651,13.255 2.806,13.412 2.968,13.558C3.017,13.603 3.068,13.645 3.118,13.688C3.289,13.836 3.466,13.977 3.649,14.107C3.672,14.123 3.694,14.144 3.717,14.161L3.717,14.155C4.973,15.038 6.471,15.512 8.006,15.512C9.541,15.512 11.039,15.038 12.295,14.155L12.295,14.161C12.318,14.144 12.339,14.123 12.363,14.107C12.546,13.976 12.723,13.836 12.894,13.688C12.944,13.645 12.995,13.603 13.044,13.558C13.206,13.411 13.36,13.255 13.511,13.092C13.56,13.038 13.612,12.986 13.661,12.931C13.699,12.887 13.742,12.848 13.78,12.803L13.768,12.794ZM8.005,3.718C8.482,3.718 8.949,3.859 9.346,4.124C9.742,4.389 10.052,4.766 10.234,5.207C10.417,5.648 10.465,6.133 10.371,6.601C10.278,7.069 10.049,7.499 9.711,7.836C9.374,8.173 8.944,8.403 8.476,8.496C8.008,8.589 7.523,8.542 7.082,8.359C6.641,8.176 6.265,7.867 5.999,7.47C5.734,7.074 5.593,6.607 5.593,6.13C5.593,5.49 5.847,4.877 6.3,4.424C6.752,3.972 7.366,3.718 8.005,3.718ZM3.72,12.794C3.73,12.09 4.016,11.418 4.517,10.923C5.018,10.429 5.693,10.151 6.397,10.151L9.614,10.151C10.318,10.151 10.993,10.429 11.494,10.923C11.995,11.418 12.281,12.09 12.29,12.794C11.115,13.853 9.588,14.44 8.005,14.44C6.423,14.44 4.896,13.853 3.72,12.794Z"/>
</svg>
