<svg id="avatar" viewBox="0 0 16 16" xmlns="http://www.w3.org/2000/svg">
  <path fill="var(--strib-icon-color, #0d0d0d)" fill-rule="evenodd" clip-rule="evenodd" d="M8,3.714C7.47,3.714 6.952,3.871 6.512,4.166C6.071,4.46 5.728,4.878 5.525,5.368C5.323,5.857 5.27,6.396 5.373,6.915C5.476,7.435 5.731,7.912 6.106,8.287C6.481,8.661 6.958,8.917 7.477,9.02C7.997,9.123 8.536,9.07 9.025,8.867C9.515,8.665 9.933,8.321 10.227,7.881C10.522,7.44 10.679,6.923 10.679,6.393C10.679,5.682 10.396,5.001 9.894,4.499C9.392,3.996 8.71,3.714 8,3.714ZM8,8C7.682,8 7.371,7.906 7.107,7.729C6.843,7.553 6.637,7.302 6.515,7.008C6.394,6.714 6.362,6.391 6.424,6.079C6.486,5.768 6.639,5.481 6.864,5.256C7.088,5.032 7.375,4.879 7.686,4.817C7.998,4.755 8.321,4.786 8.615,4.908C8.909,5.03 9.16,5.236 9.336,5.5C9.513,5.764 9.607,6.075 9.607,6.393C9.607,6.819 9.437,7.227 9.136,7.529C8.835,7.83 8.426,8 8,8Z"/>
  <path fill="var(--strib-icon-color, #0d0d0d)" fill-rule="evenodd" clip-rule="evenodd" d="M8,0.5C6.517,0.5 5.067,0.94 3.833,1.764C2.6,2.588 1.639,3.759 1.071,5.13C0.503,6.5 0.355,8.008 0.644,9.463C0.934,10.918 1.648,12.254 2.697,13.303C3.746,14.352 5.082,15.066 6.537,15.356C7.992,15.645 9.5,15.497 10.87,14.929C12.241,14.361 13.412,13.4 14.236,12.167C15.06,10.933 15.5,9.483 15.5,8C15.498,6.012 14.707,4.105 13.301,2.699C11.895,1.293 9.988,0.502 8,0.5ZM4.786,13.559L4.786,12.821C4.786,12.395 4.956,11.987 5.257,11.685C5.558,11.384 5.967,11.215 6.393,11.214L9.607,11.214C10.033,11.215 10.442,11.384 10.743,11.685C11.044,11.987 11.214,12.395 11.214,12.821L11.214,13.559C10.239,14.129 9.13,14.429 8,14.429C6.87,14.429 5.761,14.129 4.786,13.559ZM12.281,12.782C12.271,12.079 11.984,11.409 11.484,10.915C10.984,10.421 10.31,10.144 9.607,10.143L6.393,10.143C5.69,10.144 5.016,10.421 4.516,10.915C4.016,11.409 3.729,12.079 3.719,12.782C2.747,11.914 2.062,10.772 1.754,9.507C1.446,8.241 1.53,6.912 1.994,5.695C2.458,4.478 3.281,3.431 4.354,2.692C5.426,1.954 6.698,1.558 8,1.558C9.303,1.558 10.574,1.954 11.647,2.692C12.72,3.431 13.542,4.478 14.007,5.695C14.471,6.912 14.555,8.241 14.247,9.507C13.939,10.772 13.253,11.914 12.281,12.782Z"/>
</svg>
