<svg id="bookmark" viewBox="0 0 16 16" xmlns="http://www.w3.org/2000/svg">
  <path fill="var(--strib-icon-color, #0d0d0d)" fill-rule="evenodd" clip-rule="evenodd" d="M2.832,1.005C2.832,0.726 3.058,0.5 3.337,0.5L12.663,0.5C12.942,0.5 13.168,0.726 13.168,1.005L13.168,14.995C13.168,15.181 13.066,15.352 12.902,15.44C12.737,15.528 12.538,15.518 12.383,15.415L8,12.493L3.617,15.415C3.462,15.518 3.263,15.528 3.098,15.44C2.934,15.352 2.832,15.181 2.832,14.995L2.832,1.005ZM3.842,1.51L3.842,14.051L7.72,11.466C7.889,11.353 8.111,11.353 8.28,11.466L12.158,14.051L12.158,1.51L3.842,1.51Z"/>
</svg>
