<svg id="branded-name" viewBox="0 0 128 32" xmlns="http://www.w3.org/2000/svg">
  <path fill="var(--strib-icon-color, #0d0d0d)" d="M74.727,15.984L73.436,15.247C72.878,14.963 72.533,14.644 72.533,13.931L72.533,13.698C72.533,13.026 72.823,12.575 73.565,12.575C75.037,12.575 74.79,14.649 74.79,14.649L76.417,14.649L76.417,14.03C76.417,12.269 75.409,11.299 73.577,11.299C71.769,11.299 70.774,12.234 70.774,13.931C70.774,15.404 71.586,16.094 72.464,16.621L73.756,17.359C74.431,17.702 74.733,17.997 74.733,18.834L74.733,19.177C74.733,19.938 74.439,20.41 73.651,20.41C72.064,20.41 72.291,18.068 72.291,18.068L70.651,18.068L70.651,18.613C70.651,20.652 71.652,21.686 73.627,21.686C75.555,21.686 76.492,20.761 76.492,18.859C76.492,17.29 75.844,16.617 74.727,15.984ZM98.076,11.386L92.553,11.386L92.553,12.721L94.46,12.721L94.46,21.564L96.158,21.564L96.158,12.721L98.076,12.721L98.076,11.386ZM89.337,15.86L89.337,13.579L87.737,13.579L87.737,21.569L89.337,21.569L89.337,17.014C89.337,15.8 89.825,15.37 91.068,15.37L91.749,15.37L91.749,13.579L91.35,13.579C89.413,13.579 89.337,15.86 89.337,15.86Z"/>
  <path fill="var(--strib-icon-color, #0d0d0d)" d="M98.823,15.86L98.823,13.579L97.224,13.579L97.224,21.569L98.823,21.569L98.823,17.014C98.823,15.8 99.311,15.37 100.554,15.37L101.236,15.37L101.236,13.579L100.836,13.579C98.899,13.579 98.823,15.86 98.823,15.86ZM113.928,19.005C113.928,20.063 113.375,20.319 112.911,20.319C112.307,20.319 112.049,19.927 112.049,19.088L112.049,13.579L110.421,13.579L110.421,19.196C110.421,20.332 110.747,21.686 112.302,21.686C113.107,21.686 113.816,20.919 113.928,19.766L113.94,21.567L115.557,21.567L115.557,13.579L113.928,13.579L113.928,19.005ZM86.449,15.864C86.449,14.244 85.642,13.457 83.982,13.457C82.635,13.457 81.46,14.276 81.367,15.828C81.362,15.894 81.359,15.962 81.359,16.032L81.359,16.43L82.968,16.43L82.949,15.828C82.949,15.141 83.291,14.544 83.995,14.544C84.584,14.544 84.871,15.05 84.871,15.551L84.871,15.878C84.871,16.35 84.502,16.502 83.992,16.712C83.848,16.772 83.7,16.832 83.551,16.904L83.008,17.145C81.785,17.712 81.19,18.525 81.19,19.628C81.19,20.936 81.88,21.689 83.081,21.689C84.069,21.689 84.657,21.002 84.908,19.765L84.908,20.343C84.908,21.018 85.454,21.566 86.129,21.566L86.449,21.566L86.449,21.564L87.125,21.564L87.125,20.158L86.449,20.158L86.449,15.864ZM84.871,18.536C84.871,19.731 84.479,20.264 83.598,20.264C83.011,20.264 82.54,19.776 82.688,19.059C82.767,18.68 83.031,18.429 83.59,18.118L84.048,17.876C84.393,17.685 84.686,17.608 84.871,17.388L84.871,18.536ZM107.697,13.46C106.731,13.515 106.186,14.563 106.056,15.377L106.056,10.5L104.504,11.302L104.504,21.567L106.044,21.567L106.056,19.766C106.165,20.911 106.782,21.653 107.697,21.686C109.073,21.735 109.718,20.782 109.718,19.269L109.718,16.048C109.718,14.452 109.347,13.365 107.697,13.459L107.697,13.46ZM108.132,19.042C108.132,19.923 107.805,20.349 107.136,20.349C106.145,20.349 106.068,19.341 106.068,19.032L106.068,16.192C106.068,15.554 106.348,14.524 107.136,14.524C107.805,14.524 108.132,15.302 108.132,16.18L108.132,19.042ZM79.505,14.655L80.863,14.655L80.863,13.495L79.505,13.495L79.505,11.614L77.868,12.459L77.868,13.495L76.988,13.495L76.988,14.655L77.867,14.655L77.867,20.049C77.867,20.455 78.025,20.837 78.313,21.124C78.597,21.41 78.984,21.571 79.388,21.569L80.863,21.569L80.863,20.16L79.505,20.16L79.505,14.655ZM33.06,13.457C32.162,13.457 31.491,14.224 31.378,15.377L31.466,13.576L29.75,13.576L29.75,21.564L31.378,21.564L31.378,16.139C31.378,15.081 31.931,14.563 32.395,14.563C33,14.563 33.257,15.217 33.257,16.055L33.257,21.564L34.874,21.564L34.886,15.947C34.886,15.131 34.816,13.458 33.06,13.457L33.06,13.457ZM38.918,13.457C38.02,13.457 37.349,14.224 37.236,15.377L37.324,13.576L35.608,13.576L35.608,21.564L37.236,21.564L37.236,16.139C37.236,15.081 37.79,14.563 38.254,14.563C38.858,14.563 39.116,15.217 39.116,16.055L39.116,21.564L40.732,21.564L40.744,15.947C40.744,15.131 40.674,13.458 38.918,13.457L38.918,13.457ZM51.07,17.198L49.702,16.43C49.169,16.146 48.998,15.926 48.998,15.524C48.998,15.185 49.154,14.519 49.896,14.519C50.576,14.519 50.854,15.066 50.854,15.764L50.854,16.221L52.44,16.221L52.44,15.751C52.44,14.252 51.321,13.459 49.908,13.459C47.905,13.459 47.411,14.945 47.411,15.584C47.411,16.517 47.855,17.143 48.853,17.615L50.039,18.262C50.782,18.701 50.914,18.947 50.914,19.422C50.914,20.069 50.645,20.67 49.956,20.67C49.207,20.67 48.902,20.005 48.902,19.23L48.902,18.677L47.316,18.677L47.316,19.254C47.316,20.817 48.362,21.689 49.944,21.689C50.965,21.689 52.5,21.243 52.5,19.338C52.5,18.338 52.099,17.738 51.07,17.198ZM68.02,15.864C68.02,14.244 67.213,13.457 65.553,13.457C64.206,13.457 63.031,14.276 62.938,15.828C62.932,15.894 62.93,15.962 62.93,16.032L62.93,16.43L64.539,16.43L64.52,15.828C64.52,15.141 64.862,14.544 65.566,14.544C66.155,14.544 66.442,15.05 66.442,15.551L66.442,15.878C66.442,16.35 66.073,16.502 65.563,16.712C65.419,16.772 65.271,16.832 65.121,16.904L64.579,17.145C63.356,17.712 62.761,18.525 62.761,19.628C62.761,20.936 63.45,21.689 64.652,21.689C65.64,21.689 66.228,21.002 66.479,19.765L66.479,20.343C66.479,21.018 67.025,21.566 67.7,21.566L68.02,21.566L68.02,21.564L68.696,21.564L68.696,20.158L68.02,20.158L68.02,15.864ZM66.442,18.536C66.442,19.731 66.05,20.264 65.169,20.264C64.582,20.264 64.111,19.776 64.259,19.059C64.338,18.68 64.602,18.429 65.16,18.118L65.619,17.876C65.964,17.685 66.257,17.608 66.442,17.388L66.442,18.536ZM55.699,13.458C53.951,13.458 53.028,14.498 53.028,16.466L53.028,18.721C53.028,20.689 53.951,21.689 55.699,21.689C57.439,21.689 58.358,20.689 58.358,18.721L58.358,16.466C58.358,14.498 57.439,13.458 55.699,13.458ZM56.686,18.95C56.686,20.157 56.186,20.584 55.699,20.584C55.205,20.584 54.7,20.157 54.7,18.95L54.7,16.237C54.7,15.277 54.998,14.564 55.699,14.564C56.568,14.564 56.686,15.56 56.686,16.237L56.686,18.95ZM28.911,11.948L28.911,13.576L27.282,13.576L27.282,11.948L28.911,11.948ZM27.282,21.564L28.911,21.564L28.911,13.576L27.282,14.417L27.282,21.564ZM103.617,11.948L103.617,13.576L101.989,13.576L101.989,11.948L103.617,11.948ZM101.989,21.564L103.617,21.564L103.617,13.576L101.989,14.417L101.989,21.564ZM14.154,13.457C12.629,13.457 11.454,14.499 11.454,16.472L11.454,18.732C11.454,20.704 12.573,21.68 14.155,21.68C15.704,21.68 16.722,20.825 16.773,19.008L16.773,18.677L15.088,18.677L15.073,19.246C15.055,19.899 14.894,20.617 14.168,20.617C13.655,20.617 13.131,20.172 13.131,18.972L13.131,17.719L16.798,17.719L16.798,16.46C16.798,14.467 15.569,13.457 14.155,13.457L14.154,13.457ZM15.12,16.878L13.131,16.878L13.131,16.243C13.131,15.281 13.436,14.52 14.154,14.52C14.809,14.52 15.088,15.224 15.12,16.086L15.12,16.878ZM9.014,13.457C9.009,13.457 9.004,13.457 8.998,13.458C8.222,13.465 7.618,14.047 7.401,14.955C7.399,14.965 7.396,14.976 7.394,14.986C7.365,15.115 7.344,15.246 7.332,15.377L7.332,10.5L5.616,11.386L5.618,11.386L0.5,11.386L0.5,12.721L2.407,12.721L2.407,21.564L4.105,21.564L4.105,12.721L5.704,12.721L5.704,13.153L5.703,13.154L5.703,21.564L7.332,21.564L7.332,16.139C7.332,16.073 7.333,16.009 7.338,15.947C7.401,15.018 7.914,14.563 8.35,14.563C8.954,14.563 9.211,15.216 9.211,16.055L9.211,21.564L10.828,21.564L10.84,15.947C10.84,15.131 10.769,13.458 9.014,13.457ZM61.066,14.655L62.425,14.655L62.425,13.495L61.067,13.495L61.067,11.614L59.43,12.459L59.43,13.495L58.55,13.495L58.55,14.655L59.428,14.655L59.428,20.049C59.428,20.455 59.587,20.837 59.874,21.124C60.158,21.41 60.546,21.571 60.949,21.569L62.425,21.569L62.425,20.16L61.066,20.16L61.066,14.655ZM44.146,13.457C42.62,13.457 41.445,14.499 41.445,16.472L41.445,18.732C41.445,20.704 42.564,21.68 44.146,21.68C45.696,21.68 46.713,20.825 46.764,19.008L46.764,18.677L45.079,18.677L45.064,19.246C45.046,19.899 44.885,20.617 44.159,20.617C43.646,20.617 43.122,20.172 43.122,18.972L43.122,17.719L46.789,17.719L46.789,16.46C46.789,14.467 45.56,13.457 44.146,13.457L44.146,13.457ZM45.111,16.878L43.122,16.878L43.122,16.243C43.122,15.281 43.428,14.52 44.146,14.52C44.8,14.52 45.079,15.224 45.111,16.086L45.111,16.878ZM124.857,13.457C123.331,13.457 122.156,14.499 122.156,16.472L122.156,18.732C122.156,20.704 123.275,21.68 124.857,21.68C126.406,21.68 127.424,20.825 127.475,19.008L127.475,18.677L125.79,18.677L125.775,19.246C125.757,19.899 125.596,20.617 124.87,20.617C124.357,20.617 123.833,20.172 123.833,18.972L123.833,17.719L127.5,17.719L127.5,16.46C127.5,14.467 126.271,13.457 124.857,13.457L124.857,13.457ZM125.822,16.878L123.833,16.878L123.833,16.243C123.833,15.281 124.138,14.52 124.857,14.52C125.511,14.52 125.79,15.224 125.822,16.086L125.822,16.878ZM26.412,11.386L24.448,11.386L22.815,17.658L21.182,11.386L19.219,11.386L19.219,21.564L20.724,21.564L20.724,14.813L22.412,21.564L23.218,21.564L24.906,14.813L24.906,21.564L26.412,21.564L26.412,11.386ZM119.656,13.457C118.758,13.457 118.086,14.224 117.974,15.377L118.061,13.576L116.346,13.576L116.346,21.564L117.974,21.564L117.974,16.139C117.974,15.081 118.527,14.563 118.991,14.563C119.595,14.563 119.853,15.217 119.853,16.055L119.853,21.564L121.47,21.564L121.482,15.947C121.482,15.131 121.411,13.458 119.656,13.457L119.656,13.457Z"/>
</svg>
