<svg xmlns="http://www.w3.org/2000/svg" width="674" height="60">
  <g>
    <g fill="var(--strib-icon-color, #0d0d0d)">
      <path d="m393.755 29.593-6.848-3.913c-2.957-1.506-4.789-3.199-4.789-6.978v-1.237c0-3.565 1.537-5.956 5.477-5.956 7.809 0 6.496 11.003 6.496 11.003h8.634v-3.287c0-9.341-5.351-14.487-15.067-14.487-9.591 0-14.872 4.958-14.872 13.964 0 7.813 4.307 11.472 8.966 14.268l6.853 3.914c3.582 1.822 5.182 3.386 5.182 7.826v1.818c0 4.038-1.555 6.541-5.736 6.541-8.422 0-7.215-12.424-7.215-12.424h-8.702v2.89c0 10.82 5.312 16.305 15.787 16.305 10.226 0 15.198-4.91 15.198-15 0-8.318-3.436-11.892-9.364-15.247ZM517.621 5.202h-29.302v7.081h10.117v46.909h9.007V12.283h10.178v-7.08ZM471.258 28.931V16.835h-8.484v42.386h8.484V35.053c0-6.437 2.59-8.717 9.185-8.717h3.613v-9.501h-2.117c-10.276 0-10.681 12.096-10.681 12.096Z"/>
      <path d="M521.58 28.931V16.835h-8.483v42.386h8.483V35.053c0-6.437 2.591-8.717 9.185-8.717h3.614v-9.501h-2.117c-10.277 0-10.682 12.096-10.682 12.096ZM601.711 45.615c0 5.612-2.935 6.97-5.397 6.97-3.205 0-4.573-2.078-4.573-6.527V16.835h-8.637V46.63c0 6.026 1.731 13.21 9.982 13.21 4.268 0 8.029-4.069 8.625-10.186l.062 9.553h8.576V16.835h-8.638v28.78ZM455.941 28.953c0-8.592-4.282-12.765-13.086-12.765-7.145 0-13.381 4.342-13.876 12.575-.027.353-.038.712-.038 1.082v2.112h8.532l-.098-3.194c0-3.646 1.812-6.808 5.545-6.808 3.129 0 4.647 2.683 4.647 5.338v1.736c0 2.503-1.954 3.309-4.663 4.424-.762.316-1.546.637-2.34 1.018l-2.879 1.278c-6.486 3.01-9.642 7.32-9.642 13.174 0 6.938 3.657 10.934 10.029 10.934 5.245 0 8.363-3.648 9.691-10.21v3.069c0 3.58 2.9 6.486 6.48 6.486h1.698v-.011h3.586v-7.46h-3.586V28.953Zm-8.374 14.175c0 6.34-2.079 9.169-6.753 9.169-3.113 0-5.61-2.59-4.827-6.394.419-2.008 1.823-3.341 4.784-4.99l2.432-1.284c1.828-1.012 3.384-1.425 4.364-2.59v6.089ZM568.654 16.2c-5.122.293-8.015 5.854-8.706 10.174V.5l-8.228 4.255v54.453h8.168l.06-9.556c.582 6.078 3.855 10.014 8.706 10.187 7.303.26 10.725-4.794 10.725-12.82V29.933c0-8.467-1.971-14.236-10.725-13.734Zm2.307 29.616c0 4.669-1.73 6.932-5.284 6.932-5.256 0-5.664-5.348-5.664-6.986V30.694c0-3.384 1.485-8.847 5.664-8.847 3.554 0 5.284 4.124 5.284 8.782v15.187ZM419.102 22.54h7.207v-6.15h-7.203V6.407l-8.684 4.484v5.499h-4.668v6.15h4.661v28.615c0 2.154.839 4.18 2.363 5.703a8.011 8.011 0 0 0 5.704 2.363h7.828v-7.478h-7.208V22.54ZM172.724 16.186c-4.763 0-8.326 4.07-8.922 10.187l.463-9.553h-9.101v42.372h8.638v-28.78c0-5.612 2.934-8.36 5.396-8.36 3.206 0 4.573 3.468 4.573 7.917v29.223h8.575l.063-29.795c0-4.332-.372-13.208-9.685-13.21ZM203.801 16.186c-4.764 0-8.327 4.07-8.923 10.187l.463-9.553h-9.101v42.372h8.638v-28.78c0-5.612 2.935-8.36 5.397-8.36 3.205 0 4.573 3.468 4.573 7.917v29.223h8.575l.062-29.795c0-4.332-.372-13.208-9.684-13.21ZM268.263 36.033l-7.255-4.074c-2.829-1.508-3.738-2.676-3.738-4.809 0-1.797.827-5.328 4.764-5.328 3.609 0 5.082 2.9 5.082 6.602v2.422h8.412v-2.488c0-7.954-5.932-12.159-13.429-12.159-10.625 0-13.245 7.881-13.245 11.27 0 4.95 2.355 8.272 7.649 10.777l6.289 3.43c3.941 2.328 4.642 3.636 4.642 6.153 0 3.43-1.425 6.622-5.082 6.622-3.971 0-5.592-3.53-5.592-7.639v-2.936h-8.412v3.063c0 8.289 5.549 12.918 13.939 12.918 5.42 0 13.56-2.37 13.56-12.473 0-5.305-2.125-8.487-7.584-11.351ZM358.179 28.953c0-8.592-4.282-12.765-13.086-12.765-7.145 0-13.381 4.342-13.876 12.575-.027.353-.038.712-.038 1.082v2.112h8.532l-.098-3.194c0-3.646 1.812-6.808 5.545-6.808 3.129 0 4.647 2.683 4.647 5.338v1.736c0 2.503-1.953 3.309-4.663 4.424-.762.316-1.545.637-2.34 1.018l-2.878 1.278c-6.487 3.01-9.643 7.32-9.643 13.174 0 6.938 3.657 10.934 10.029 10.934 5.245 0 8.363-3.648 9.691-10.21v3.069c0 3.58 2.9 6.486 6.481 6.486h1.697v-.011h3.586v-7.46h-3.586V28.953Zm-8.374 14.175c0 6.34-2.079 9.169-6.753 9.169-3.112 0-5.61-2.59-4.826-6.394.419-2.008 1.823-3.341 4.783-4.99l2.432-1.284c1.828-1.012 3.385-1.425 4.364-2.59v6.089ZM292.817 16.19c-9.272 0-14.169 5.517-14.169 15.96v11.96c0 10.441 4.897 15.747 14.169 15.747 9.229 0 14.105-5.306 14.105-15.748V32.15c0-10.442-4.876-15.96-14.105-15.96Zm5.235 29.133c0 6.404-2.65 8.668-5.235 8.668-2.617 0-5.3-2.264-5.3-8.668V30.936c0-5.093 1.584-8.88 5.3-8.88 4.609 0 5.235 5.288 5.235 8.88v14.387ZM150.713 16.79v.03h-8.638V8.183h8.638v8.606Zm-8.638 42.402h8.638V16.82l-8.638 4.46v37.912ZM547.014 16.79v.03h-8.638V8.183h8.638v8.606Zm-8.638 42.402h8.638V16.82l-8.638 4.46v37.912ZM72.434 16.188c-8.091 0-14.327 5.528-14.327 15.992v11.987c0 10.464 5.937 15.642 14.328 15.642 8.221 0 13.62-4.536 13.891-14.178v-1.754h-8.94l-.081 3.016c-.093 3.467-.947 7.274-4.8 7.274-2.72 0-5.501-2.36-5.501-8.726v-6.644h19.453v-6.682c0-10.573-6.519-15.928-14.022-15.928Zm5.12 18.147h-10.55v-3.369c0-5.104 1.621-9.141 5.43-9.141 3.472 0 4.952 3.733 5.12 8.309v4.2ZM45.165 16.184c-.027 0-.055 0-.083.005-4.118.037-7.323 3.126-8.472 7.943-.013.056-.027.112-.037.167a16.073 16.073 0 0 0-.333 2.075V.502l-9.1 4.7h.009H0v7.082h10.117v46.908h9.006V12.284h8.483v2.288l-.004.005V59.19h8.638V30.413c0-.352.01-.69.032-1.019.334-4.928 3.057-7.341 5.368-7.341 3.206 0 4.572 3.464 4.572 7.915V59.19h8.576l.063-29.796c0-4.33-.376-13.205-9.686-13.21ZM321.289 22.54h7.207v-6.15h-7.203V6.407l-8.684 4.484v5.499h-4.668v6.15h4.661v28.615c0 2.154.839 4.18 2.363 5.703a8.011 8.011 0 0 0 5.704 2.363h7.828v-7.478h-7.208V22.54ZM231.53 16.188c-8.091 0-14.327 5.528-14.327 15.992v11.987c0 10.464 5.937 15.642 14.327 15.642 8.222 0 13.62-4.536 13.892-14.178v-1.754h-8.94l-.082 3.016c-.092 3.467-.946 7.274-4.799 7.274-2.721 0-5.501-2.36-5.501-8.726v-6.644h19.453v-6.682c0-10.573-6.519-15.928-14.023-15.928Zm5.121 18.147H226.1v-3.369c0-5.104 1.621-9.141 5.43-9.141 3.472 0 4.952 3.733 5.121 8.309v4.2ZM659.683 16.188c-8.091 0-14.327 5.528-14.327 15.992v11.987c0 10.464 5.937 15.642 14.327 15.642 8.222 0 13.62-4.536 13.892-14.178v-1.754h-8.94l-.082 3.016c-.092 3.467-.946 7.274-4.799 7.274-2.721 0-5.501-2.36-5.501-8.726v-6.644h19.453v-6.682c0-10.573-6.519-15.928-14.023-15.928Zm5.121 18.147h-10.551v-3.369c0-5.104 1.621-9.141 5.43-9.141 3.472 0 4.952 3.733 5.121 8.309v4.2ZM136.886 5.202h-9.847l-8.662 33.268-8.662-33.268H99.298v53.99h7.987V23.377l8.954 35.815h4.276l8.954-35.815v35.815h7.987V5.202h-.57ZM632.095 16.186c-4.763 0-8.327 4.07-8.923 10.187l.463-9.553h-9.1v42.372h8.637v-28.78c0-5.612 2.935-8.36 5.397-8.36 3.205 0 4.573 3.468 4.573 7.917v29.223h8.575l.063-29.795c0-4.332-.373-13.208-9.685-13.21Z"/>
    </g>
  </g>
</svg>
