<svg id="calendar" viewBox="0 0 16 16" xmlns="http://www.w3.org/2000/svg">
  <path fill="var(--strib-icon-color, #0d0d0d)" fill-rule="evenodd" clip-rule="evenodd" d="M13.769,1.654L11.462,1.654L11.462,0.5L10.308,0.5L10.308,1.654L5.692,1.654L5.692,0.5L4.538,0.5L4.538,1.654L2.231,1.654C1.596,1.654 1.077,2.173 1.077,2.808L1.077,14.346C1.077,14.981 1.596,15.5 2.231,15.5L13.769,15.5C14.404,15.5 14.923,14.981 14.923,14.346L14.923,2.808C14.923,2.173 14.404,1.654 13.769,1.654ZM13.769,14.346L2.231,14.346L2.231,6.269L13.769,6.269L13.769,14.346ZM13.769,5.115L2.231,5.115L2.231,2.808L4.538,2.808L4.538,3.962L5.692,3.962L5.692,2.808L10.308,2.808L10.308,3.962L11.462,3.962L11.462,2.808L13.769,2.808L13.769,5.115Z"/>
</svg>
