<svg id="camera-filled" viewBox="0 0 16 16" xmlns="http://www.w3.org/2000/svg">
  <path fill="var(--strib-icon-color, #0d0d0d)" fill-rule="evenodd" clip-rule="evenodd" d="M1.036,13.893L14.964,13.893C15.106,13.893 15.243,13.836 15.343,13.736C15.444,13.636 15.5,13.499 15.5,13.357L15.5,4.25C15.5,4.108 15.444,3.972 15.343,3.871C15.243,3.771 15.106,3.714 14.964,3.714L11.504,3.714L10.588,2.348C10.539,2.275 10.473,2.214 10.395,2.172C10.318,2.13 10.231,2.108 10.143,2.107L5.857,2.107C5.769,2.108 5.682,2.13 5.605,2.172C5.527,2.214 5.461,2.275 5.412,2.348L4.496,3.714L1.036,3.714C0.894,3.714 0.757,3.771 0.657,3.871C0.556,3.972 0.5,4.108 0.5,4.25L0.5,13.357C0.5,13.499 0.556,13.636 0.657,13.736C0.757,13.836 0.894,13.893 1.036,13.893ZM8,11.75C7.364,11.75 6.743,11.562 6.214,11.208C5.686,10.855 5.274,10.353 5.03,9.766C4.787,9.178 4.723,8.532 4.847,7.909C4.972,7.285 5.278,6.712 5.727,6.263C6.177,5.813 6.749,5.507 7.373,5.383C7.996,5.259 8.643,5.323 9.23,5.566C9.817,5.809 10.319,6.221 10.673,6.75C11.026,7.279 11.214,7.9 11.214,8.536C11.214,9.388 10.876,10.206 10.273,10.809C9.67,11.411 8.853,11.75 8,11.75ZM8,6.393C7.576,6.393 7.162,6.519 6.81,6.754C6.457,6.989 6.182,7.324 6.02,7.716C5.858,8.107 5.816,8.538 5.898,8.954C5.981,9.369 6.185,9.751 6.485,10.051C6.784,10.351 7.166,10.555 7.582,10.637C7.998,10.72 8.429,10.678 8.82,10.515C9.212,10.353 9.546,10.079 9.782,9.726C10.017,9.374 10.143,8.959 10.143,8.536C10.143,7.967 9.917,7.422 9.515,7.02C9.113,6.619 8.568,6.393 8,6.393Z"/>
</svg>
