<svg id="camera-filled" xmlns="http://www.w3.org/2000/svg" width="15.979" height="12" viewBox="0 0 15.979 12" fill="currentColor">
  <g>
    <ellipse cx="7.982" cy="6.627" rx="2.467" ry="2.48" />
  </g>
  <g>
    <path d="M14.156,1.654H9.829v-0.62c0-0.337-0.283-0.62-0.62-0.62H6.756c-0.337,0-0.62,0.283-0.62,0.62v0.62H1.81 c-0.687,0-1.239,0.553-1.239,1.239v7.452c0,0.688,0.553,1.24,1.239,1.24h12.358c0.688,0,1.24-0.553,1.24-1.24V2.908 C15.408,2.221,14.842,1.654,14.156,1.654L14.156,1.654z M7.982,10.347c-2.048,0-3.706-1.671-3.706-3.72 c0-2.048,1.658-3.732,3.706-3.732c2.05,0,3.707,1.657,3.707,3.732C11.689,8.703,10.044,10.347,7.982,10.347z" />
  </g>
</svg>