<svg id="camera" xmlns="http://www.w3.org/2000/svg" width="15.979" height="12" viewBox="0 0 15.979 12" fill="currentColor">
  <g>
    <path d="M7.982,4.447c1.194,0,2.167,0.978,2.167,2.18S9.177,8.808,7.982,8.808c-1.194,0-2.167-0.979-2.167-2.181 S6.788,4.447,7.982,4.447 M7.982,4.147c-1.361,0-2.466,1.109-2.466,2.479c0,1.37,1.104,2.48,2.466,2.48 c1.362,0,2.467-1.11,2.467-2.48C10.449,5.258,9.345,4.147,7.982,4.147L7.982,4.147z" />
  </g>
  <g>
    <path d="M9.209,0.714c0.17,0,0.32,0.15,0.32,0.32v0.62v0.3h0.3h4.326c0.524,0,0.952,0.428,0.952,0.954v7.438 c0,0.52-0.422,0.94-0.939,0.94H1.81c-0.518,0-0.939-0.422-0.939-0.94V2.894c0-0.519,0.422-0.939,0.939-0.939h4.326h0.3v-0.3v-0.62 c0-0.17,0.15-0.32,0.32-0.32H9.209 M7.982,10.646c2.247,0,4.007-1.767,4.007-4.021c0-2.224-1.798-4.032-4.007-4.032 s-4.006,1.81-4.006,4.032C3.976,8.844,5.773,10.646,7.982,10.646 M9.209,0.414H6.756c-0.337,0-0.62,0.283-0.62,0.62v0.62H1.81 c-0.687,0-1.239,0.553-1.239,1.239v7.452c0,0.688,0.553,1.24,1.239,1.24h12.358c0.688,0,1.24-0.553,1.24-1.24V2.908 c0-0.688-0.566-1.254-1.253-1.254H9.829v-0.62C9.829,0.697,9.546,0.414,9.209,0.414L9.209,0.414z M7.982,10.347 c-2.048,0-3.706-1.671-3.706-3.72c0-2.048,1.658-3.732,3.706-3.732c2.05,0,3.707,1.657,3.707,3.732 C11.689,8.703,10.044,10.347,7.982,10.347L7.982,10.347z" />
  </g>
</svg>