<svg id="chart" viewBox="0 0 16 16" xmlns="http://www.w3.org/2000/svg">
  <path fill="var(--strib-icon-color, #0d0d0d)" fill-rule="evenodd" clip-rule="evenodd" d="M1.93,14.429L5.354,8L9.264,11.477C9.387,11.586 9.533,11.665 9.69,11.708C9.848,11.752 10.014,11.759 10.175,11.729C10.337,11.698 10.491,11.631 10.623,11.531C10.755,11.432 10.862,11.303 10.936,11.155L13.893,5.268L12.918,4.786L9.977,10.679L6.066,7.202C5.947,7.091 5.804,7.008 5.648,6.961C5.492,6.914 5.327,6.903 5.166,6.929C5.007,6.955 4.856,7.017 4.725,7.11C4.593,7.202 4.484,7.324 4.405,7.464L1.571,12.821L1.571,0.5L0.5,0.5L0.5,14.429C0.5,14.713 0.613,14.985 0.814,15.186C1.015,15.387 1.287,15.5 1.571,15.5L15.5,15.5L15.5,14.429L1.93,14.429Z"/>
</svg>
