<svg width="19" height="14" viewBox="0 0 19 14" fill="none" xmlns="http://www.w3.org/2000/svg">
  <path fill="var(--strib-icon-color, #0d0d0d)" fill-rule="evenodd" clip-rule="evenodd" d="M17.1769 0.409039C17.13 0.362155 17.0665 0.335815 17.0002 0.335815C16.9338 0.335815 16.8703 0.362155 16.8234 0.409039L7.00015 10.2323L2.17693 5.40904C2.13004 5.36215 2.06646 5.33581 2.00015 5.33581C1.93385 5.33581 1.87026 5.36215 1.82337 5.40904L0.409161 6.82325C0.362277 6.87014 0.335938 6.93372 0.335938 7.00003C0.335938 7.06633 0.362277 7.12992 0.409161 7.17681L6.11627 12.8839C6.60442 13.3721 7.39588 13.3721 7.88403 12.8839L18.5911 2.17681C18.6888 2.07917 18.6888 1.92088 18.5911 1.82325L17.1769 0.409039Z"/>
</svg>
