<svg id="check" viewBox="0 0 16 16" xmlns="http://www.w3.org/2000/svg">
  <path fill="var(--strib-icon-color, #0d0d0d)" fill-rule="evenodd" clip-rule="evenodd" d="M14.283,2.775C14.244,2.737 14.192,2.715 14.138,2.715C14.084,2.715 14.032,2.737 13.993,2.775L5.954,10.815L2.007,6.867C1.968,6.829 1.916,6.807 1.862,6.807C1.808,6.807 1.756,6.829 1.717,6.867L0.56,8.025C0.522,8.063 0.5,8.115 0.5,8.169C0.5,8.224 0.522,8.276 0.56,8.314L5.231,12.985C5.63,13.384 6.278,13.384 6.677,12.985L15.44,4.222C15.52,4.142 15.52,4.013 15.44,3.933L14.283,2.775Z"/>
</svg>
