<svg id="clock" viewBox="0 0 16 16" xmlns="http://www.w3.org/2000/svg">
  <path fill="var(--strib-icon-color, #0d0d0d)" fill-rule="evenodd" clip-rule="evenodd" d="M8,15.5C6.517,15.5 5.067,15.06 3.833,14.236C2.6,13.412 1.639,12.241 1.071,10.87C0.503,9.5 0.355,7.992 0.644,6.537C0.934,5.082 1.648,3.746 2.697,2.697C3.746,1.648 5.082,0.934 6.537,0.644C7.992,0.355 9.5,0.503 10.87,1.071C12.241,1.639 13.412,2.6 14.236,3.833C15.06,5.067 15.5,6.517 15.5,8C15.5,9.989 14.71,11.897 13.303,13.303C11.897,14.71 9.989,15.5 8,15.5ZM8,1.571C6.729,1.571 5.486,1.948 4.428,2.655C3.371,3.361 2.547,4.365 2.061,5.54C1.574,6.715 1.447,8.007 1.695,9.254C1.943,10.501 2.555,11.647 3.454,12.546C4.353,13.445 5.499,14.057 6.746,14.305C7.993,14.553 9.285,14.426 10.46,13.939C11.635,13.453 12.639,12.629 13.345,11.572C14.052,10.514 14.429,9.271 14.429,8C14.429,6.295 13.751,4.66 12.546,3.454C11.34,2.249 9.705,1.571 8,1.571Z"/>
  <path fill="var(--strib-icon-color, #0d0d0d)" fill-rule="evenodd" clip-rule="evenodd" d="M10.459,11.214L7.464,8.22L7.464,3.179L8.536,3.179L8.536,7.775L11.214,10.459L10.459,11.214Z"/>
</svg>
