<svg id="close" xmlns="http://www.w3.org/2000/svg" width="17" height="17" viewBox="0 0 17 17" fill="currentColor">
  <path d="M10.212,8.509l5.138-5.137c0.475-0.474,0.475-1.237,0-1.712c-0.476-0.475-1.238-0.475-1.713,0L8.5,6.797L3.363,1.64 c-0.475-0.475-1.237-0.475-1.713,0c-0.475,0.475-0.475,1.238,0,1.712l5.138,5.137L1.65,13.646c-0.475,0.475-0.475,1.236,0,1.711 c0.476,0.477,1.238,0.477,1.713,0L8.5,10.221l5.137,5.137c0.475,0.477,1.237,0.477,1.713,0c0.475-0.475,0.475-1.236,0-1.711 L10.212,8.509z" />
</svg>