<?xml version="1.0" encoding="utf-8"?>
<!-- Generator: Adobe Illustrator 21.1.0, SVG Export Plug-In . SVG Version: 6.00 Build 0)  -->
<svg version="1.1" id="Layer_1" xmlns="http://www.w3.org/2000/svg" xmlns:xlink="http://www.w3.org/1999/xlink" x="0px" y="0px"
	 viewBox="0 0 73 73" style="enable-background:new 0 0 73 73;" xml:space="preserve">
<path d="M44.8,36.5l24.9-24.9c2.3-2.3,2.3-6,0-8.3s-6-2.3-8.3,0L36.5,28.2l-24.9-25c-2.3-2.3-6-2.3-8.3,0s-2.3,6,0,8.3l24.9,24.9
	l-24.9,25c-2.3,2.3-2.3,6,0,8.3s6,2.3,8.3,0l24.9-24.9l24.9,24.9c2.3,2.3,6,2.3,8.3,0s2.3-6,0-8.3L44.8,36.5z"/>
</svg>
