<svg id="comment" viewBox="0 0 16 16" xmlns="http://www.w3.org/2000/svg">
  <path fill="var(--strib-icon-color, #0d0d0d)" fill-rule="evenodd" clip-rule="evenodd" d="M4.302,1C2.172,1 0.442,2.73 0.442,4.86L0.442,8.324C0.442,10.453 2.172,12.184 4.302,12.184L4.374,12.184L4.374,14.464C4.374,14.66 4.482,14.841 4.655,14.935C4.827,15.029 5.038,15.021 5.203,14.913L9.407,12.184L11.698,12.184C13.828,12.184 15.558,10.453 15.558,8.324L15.558,4.86C15.558,2.73 13.828,1 11.698,1L4.302,1ZM1.515,4.86C1.515,3.323 2.765,2.073 4.302,2.073L11.698,2.073C13.235,2.073 14.485,3.323 14.485,4.86L14.485,8.324C14.485,9.861 13.235,11.111 11.698,11.111L9.248,11.111C9.145,11.111 9.043,11.141 8.956,11.197L5.447,13.476L5.447,11.647C5.447,11.351 5.207,11.111 4.911,11.111L4.302,11.111C2.765,11.111 1.515,9.861 1.515,8.324L1.515,4.86Z"/>
</svg>
