<svg id="comment-disabled" viewBox="0 0 16 16" xmlns="http://www.w3.org/2000/svg">
  <path fill="var(--strib-icon-color, #0d0d0d)" fill-rule="evenodd" clip-rule="evenodd" d="M15.337,14.129L1.709,0.5L0.925,1.283L14.554,14.912L15.337,14.129ZM13.793,11.18C14.236,10.626 14.568,9.961 14.568,9.297L14.568,5.863C14.568,4.312 13.239,2.983 11.688,2.983L5.485,2.983L4.599,1.986L11.688,1.986C13.793,1.986 15.565,3.758 15.565,5.863L15.565,9.297C15.565,10.294 15.233,11.18 14.457,11.955L13.793,11.18ZM4.931,15.389C5.152,15.5 5.263,15.5 5.485,15.5C5.706,15.5 5.928,15.389 6.149,15.278L9.472,13.174L11.577,13.174L10.58,12.177L9.251,12.177C9.195,12.177 9.168,12.205 9.14,12.232C9.112,12.26 9.085,12.288 9.029,12.288L5.374,14.614L5.374,12.62C5.374,12.398 5.152,12.177 4.931,12.177L4.377,12.177C2.826,12.177 1.497,10.848 1.497,9.297L1.497,5.863C1.497,5.198 1.829,4.423 2.272,3.869L1.608,3.205C0.832,3.98 0.5,4.866 0.5,5.863L0.5,9.297C0.5,11.402 2.162,13.174 4.266,13.174L4.377,13.174L4.377,14.392C4.377,14.835 4.598,15.168 4.931,15.389Z"/>
</svg>
