<svg id="comment-disabled-filled" viewBox="0 0 16 16" xmlns="http://www.w3.org/2000/svg">
  <path fill="var(--strib-icon-color, #0d0d0d)" fill-rule="evenodd" clip-rule="evenodd" d="M15.337,14.129L1.709,0.5L0.925,1.283L14.554,14.912L15.337,14.129ZM14.457,11.955L4.599,1.986L11.688,1.986C13.793,1.986 15.565,3.758 15.565,5.863L15.565,9.297C15.565,10.294 15.233,11.18 14.457,11.955ZM4.931,15.389C5.152,15.5 5.263,15.5 5.485,15.5C5.706,15.5 5.928,15.389 6.149,15.278L9.472,13.174L11.577,13.174L1.608,3.205C0.832,3.98 0.5,4.866 0.5,5.863L0.5,9.297C0.5,11.402 2.162,13.174 4.266,13.174L4.377,13.174L4.377,14.392C4.377,14.835 4.598,15.168 4.931,15.389Z"/>
</svg>
