<svg id="connect" viewBox="0 0 16 16" xmlns="http://www.w3.org/2000/svg">
  <path fill="var(--strib-icon-color, #0d0d0d)" fill-rule="evenodd" clip-rule="evenodd" d="M10.576,1.345C11.117,0.804 11.85,0.5 12.615,0.5C13.38,0.5 14.114,0.804 14.655,1.345C15.196,1.886 15.5,2.62 15.5,3.385C15.5,4.15 15.196,4.883 14.655,5.424C14.114,5.965 13.38,6.269 12.615,6.269C11.85,6.269 11.117,5.965 10.576,5.424C10.487,5.335 10.404,5.241 10.328,5.142L6.178,7.28C6.238,7.513 6.269,7.755 6.269,8C6.269,8.245 6.238,8.487 6.178,8.72L10.328,10.858C10.404,10.759 10.487,10.665 10.576,10.576C11.117,10.035 11.85,9.731 12.615,9.731C13.38,9.731 14.114,10.035 14.655,10.576C15.196,11.117 15.5,11.85 15.5,12.615C15.5,13.38 15.196,14.114 14.655,14.655C14.114,15.196 13.38,15.5 12.615,15.5C11.85,15.5 11.117,15.196 10.576,14.655C10.035,14.114 9.731,13.38 9.731,12.615C9.731,12.37 9.762,12.129 9.822,11.895L5.672,9.757C5.596,9.856 5.513,9.951 5.424,10.04C4.883,10.581 4.15,10.885 3.385,10.885C2.62,10.885 1.886,10.581 1.345,10.04C0.804,9.499 0.5,8.765 0.5,8C0.5,7.235 0.804,6.501 1.345,5.96C1.886,5.419 2.62,5.115 3.385,5.115C4.15,5.115 4.883,5.419 5.424,5.96C5.513,6.049 5.596,6.144 5.672,6.243L9.822,4.105C9.762,3.871 9.731,3.63 9.731,3.385C9.731,2.62 10.035,1.886 10.576,1.345ZM4.964,8.708C4.959,8.717 4.954,8.726 4.949,8.736C4.939,8.755 4.93,8.774 4.923,8.794C4.842,8.951 4.736,9.096 4.608,9.224C4.284,9.548 3.844,9.731 3.385,9.731C2.926,9.731 2.485,9.548 2.161,9.224C1.836,8.899 1.654,8.459 1.654,8C1.654,7.541 1.836,7.101 2.161,6.776C2.485,6.452 2.926,6.269 3.385,6.269C3.844,6.269 4.284,6.452 4.608,6.776C4.736,6.904 4.842,7.049 4.923,7.207C4.93,7.226 4.939,7.245 4.949,7.264C4.954,7.274 4.959,7.283 4.964,7.292C5.063,7.513 5.115,7.754 5.115,8C5.115,8.246 5.063,8.487 4.964,8.708ZM11.036,11.907C10.937,12.128 10.885,12.369 10.885,12.615C10.885,13.074 11.067,13.515 11.392,13.839C11.716,14.164 12.156,14.346 12.615,14.346C13.074,14.346 13.515,14.164 13.839,13.839C14.164,13.515 14.346,13.074 14.346,12.615C14.346,12.156 14.164,11.716 13.839,11.392C13.515,11.067 13.074,10.885 12.615,10.885C12.156,10.885 11.716,11.067 11.392,11.392C11.264,11.519 11.158,11.665 11.077,11.822C11.07,11.841 11.061,11.861 11.051,11.88C11.046,11.889 11.041,11.898 11.036,11.907ZM11.392,4.608C11.264,4.481 11.158,4.335 11.077,4.178C11.07,4.159 11.061,4.139 11.051,4.12C11.046,4.111 11.041,4.102 11.036,4.093C10.937,3.872 10.885,3.631 10.885,3.385C10.885,2.926 11.067,2.485 11.392,2.161C11.716,1.836 12.156,1.654 12.615,1.654C13.074,1.654 13.515,1.836 13.839,2.161C14.164,2.485 14.346,2.926 14.346,3.385C14.346,3.844 14.164,4.284 13.839,4.608C13.515,4.933 13.074,5.115 12.615,5.115C12.156,5.115 11.716,4.933 11.392,4.608Z"/>
</svg>
