<svg id="strib-connect-filled" viewBox="0 0 16 16" width="16" height="16" fill="currentColor" class="strib-icon strib-connect-filled" xmlns="http://www.w3.org/2000/svg" fill-rule="evenodd" clip-rule="evenodd">
  <path d="M10.404 1.789a2.69 2.69 0 1 1 1.903 4.595 2.69 2.69 0 0 1-2.134-1.051L6.299 7.328a2.7 2.7 0 0 1 0 1.344l3.874 1.995q.106-.138.231-.263a2.69 2.69 0 0 1 3.807 0 2.69 2.69 0 1 1-4.595 1.903q0-.343.085-.672L5.827 9.64A2.69 2.69 0 0 1 1 8a2.693 2.693 0 0 1 4.827-1.64l3.874-1.995a2.69 2.69 0 0 1 .703-2.576"/>
</svg>