<svg id="connect-filled" viewBox="0 0 16 16" xmlns="http://www.w3.org/2000/svg">
  <path fill="var(--strib-icon-color, #0d0d0d)" fill-rule="evenodd" clip-rule="evenodd" d="M10.576,1.345C11.117,0.804 11.85,0.5 12.615,0.5C13.38,0.5 14.114,0.804 14.655,1.345C15.196,1.886 15.5,2.62 15.5,3.385C15.5,4.15 15.196,4.883 14.655,5.424C14.114,5.965 13.38,6.269 12.615,6.269C11.85,6.269 11.117,5.965 10.576,5.424C10.487,5.335 10.404,5.241 10.328,5.142L6.178,7.28C6.238,7.513 6.269,7.755 6.269,8C6.269,8.245 6.238,8.487 6.178,8.72L10.328,10.858C10.404,10.759 10.487,10.665 10.576,10.576C11.117,10.035 11.85,9.731 12.615,9.731C13.38,9.731 14.114,10.035 14.655,10.576C15.196,11.117 15.5,11.85 15.5,12.615C15.5,13.38 15.196,14.114 14.655,14.655C14.114,15.196 13.38,15.5 12.615,15.5C11.85,15.5 11.117,15.196 10.576,14.655C10.035,14.114 9.731,13.38 9.731,12.615C9.731,12.37 9.762,12.129 9.822,11.895L5.672,9.757C5.596,9.856 5.513,9.951 5.424,10.04C4.883,10.581 4.15,10.885 3.385,10.885C2.62,10.885 1.886,10.581 1.345,10.04C0.804,9.499 0.5,8.765 0.5,8C0.5,7.235 0.804,6.501 1.345,5.96C1.886,5.419 2.62,5.115 3.385,5.115C4.15,5.115 4.883,5.419 5.424,5.96C5.513,6.049 5.596,6.144 5.672,6.243L9.822,4.105C9.762,3.871 9.731,3.63 9.731,3.385C9.731,2.62 10.035,1.886 10.576,1.345Z"/>
</svg>
