<svg xmlns="http://www.w3.org/2000/svg" viewBox="0 0 90 90">
  <path fill="var(--strib-data-drop-background, #000000)" d="M0 0h90v90H0z"/>
  <path fill="var(--strib-data-drop-right, #FCB947)" d="M58.1 21.7c10.2 16 16.7 41.4 31.9 44.9v-7.7c-8.5-16.7-15.1-37.2-31.4-37.2h-1.2.7z"/>
  <path fill="var(--strib-data-drop-middle, #ED257A)" d="M90 66.6c-15.2-3.5-21.7-28.9-31.9-44.9C30.8 22 31 80 3.5 80H0v10h90V66.6z"/>
  <path fill="var(--strib-data-drop-left, #6AAEA1)" d="M38.7 8.7C17.6 8.7 14.2 43.2 0 59.1V80h3.5C31 80 30.8 22 58.1 21.7c-4.8-7.6-10.9-13-19.4-13z"/>
  <path fill="var(--strib-data-drop-bottom, #7A3170)" d="M80 90c-7.9-16.3-14.6-35.3-30.2-35.3-15.5 0-22.2 19-30.2 35.3H80z"/>
</svg>
