<svg id="device-mobile" viewBox="0 0 16 16" version="1.1" xmlns="http://www.w3.org/2000/svg" xmlns:xlink="http://www.w3.org/1999/xlink">
  <path fill="var(--strib-icon-color, #0d0d0d)" fill-rule="evenodd" clip-rule="evenodd" d="M4.081,0.5C3.825,0.5 3.617,0.726 3.617,1.005L3.617,14.995C3.617,15.274 3.825,15.5 4.081,15.5L11.919,15.5C12.175,15.5 12.383,15.274 12.383,14.995L12.383,1.005C12.383,0.726 12.175,0.5 11.919,0.5L4.081,0.5ZM11.456,11.769L11.456,1.51L4.544,1.51L4.544,11.769L11.456,11.769ZM8,12.857C8.394,12.857 8.713,13.205 8.713,13.635L8.713,13.642C8.713,14.072 8.394,14.42 8,14.42C7.606,14.42 7.287,14.072 7.287,13.642L7.287,13.635C7.287,13.205 7.606,12.857 8,12.857Z"/>
</svg>
