<svg id="devices" viewBox="0 0 16 16" xmlns="http://www.w3.org/2000/svg">
  <path fill="var(--strib-icon-color, #0d0d0d)" fill-rule="evenodd" clip-rule="evenodd" d="M4.786,14.964L1.571,14.964C1.287,14.964 1.015,14.851 0.814,14.651C0.613,14.45 0.5,14.177 0.5,13.893L0.5,7.464C0.5,7.18 0.613,6.908 0.814,6.707C1.015,6.506 1.287,6.393 1.571,6.393L4.786,6.393C5.07,6.393 5.342,6.506 5.543,6.707C5.744,6.908 5.857,7.18 5.857,7.464L5.857,13.893C5.857,14.177 5.744,14.45 5.543,14.651C5.342,14.851 5.07,14.964 4.786,14.964ZM1.571,7.464L1.571,13.893L4.786,13.893L4.786,7.464L1.571,7.464Z"/>
  <path fill="var(--strib-icon-color, #0d0d0d)" fill-rule="evenodd" clip-rule="evenodd" d="M14.429,1.036L2.643,1.036C2.359,1.036 2.086,1.149 1.885,1.35C1.684,1.55 1.571,1.823 1.571,2.107L1.571,5.321L2.643,5.321L2.643,2.107L14.429,2.107L14.429,9.607L6.929,9.607L6.929,10.679L8,10.679L8,12.821L6.929,12.821L6.929,13.893L11.75,13.893L11.75,12.821L9.071,12.821L9.071,10.679L14.429,10.679C14.713,10.679 14.985,10.566 15.186,10.365C15.387,10.164 15.5,9.891 15.5,9.607L15.5,2.107C15.5,1.823 15.387,1.55 15.186,1.35C14.985,1.149 14.713,1.036 14.429,1.036Z"/>
</svg>
