<svg id="diamond" viewBox="0 0 16 16" xmlns="http://www.w3.org/2000/svg">
  <path fill="var(--strib-icon-color, #0d0d0d)" fill-rule="evenodd" clip-rule="evenodd" d="M14.115,7.001L9.231,12.29L11.427,7.001L14.115,7.001ZM15.497,6.556C15.515,6.32 15.455,6.078 15.315,5.871L12.648,1.959C12.449,1.667 12.118,1.492 11.765,1.492L8.917,1.492C8.909,1.492 8.901,1.492 8.893,1.492L7.107,1.492C7.099,1.492 7.091,1.492 7.083,1.492L4.235,1.492C3.882,1.492 3.551,1.667 3.352,1.959L0.685,5.871C0.542,6.083 0.482,6.332 0.505,6.574C0.526,6.8 0.619,7.02 0.783,7.198L7.214,14.163C7.374,14.336 7.577,14.444 7.79,14.487L7.792,14.487C7.929,14.514 8.071,14.514 8.208,14.487L8.211,14.487C8.423,14.444 8.626,14.337 8.785,14.164L8.786,14.163L15.216,7.198C15.376,7.026 15.469,6.812 15.493,6.592C15.495,6.58 15.496,6.568 15.497,6.556ZM14.299,6.057L11.408,6.057L9.657,2.436L11.765,2.436C11.806,2.436 11.845,2.457 11.868,2.49L14.299,6.057ZM10.36,6.057L8.609,2.436L7.391,2.436L5.64,6.057L10.36,6.057ZM5.595,7.001L8,12.794L10.405,7.001L5.595,7.001ZM4.573,7.001L6.769,12.29L1.885,7.001L4.573,7.001ZM4.592,6.057L6.343,2.436L4.235,2.436C4.194,2.436 4.155,2.457 4.132,2.491L1.701,6.057L4.592,6.057Z"/>
</svg>
