<svg id="document" viewBox="0 0 16 16" xmlns="http://www.w3.org/2000/svg">
  <path fill="var(--strib-icon-color, #0d0d0d)" fill-rule="evenodd" clip-rule="evenodd" d="M13.196,4.411L9.446,0.661C9.399,0.609 9.341,0.567 9.276,0.539C9.212,0.512 9.142,0.498 9.071,0.5L3.714,0.5C3.43,0.501 3.158,0.614 2.958,0.815C2.757,1.016 2.644,1.288 2.643,1.572L2.643,14.429C2.644,14.713 2.757,14.985 2.958,15.185C3.158,15.386 3.43,15.499 3.714,15.5L12.286,15.5C12.569,15.499 12.841,15.386 13.042,15.185C13.243,14.985 13.356,14.713 13.357,14.429L13.357,4.786C13.359,4.715 13.346,4.645 13.318,4.581C13.29,4.516 13.249,4.458 13.196,4.411ZM9.071,1.786L12.071,4.786L9.071,4.786L9.071,1.786ZM12.286,14.429L3.714,14.429L3.714,1.572L8,1.572L8,4.786C8.001,5.07 8.114,5.342 8.315,5.543C8.515,5.743 8.787,5.856 9.071,5.857L12.286,5.857L12.286,14.429Z"/>
</svg>
