<svg id="download" viewBox="0 0 16 16" xmlns="http://www.w3.org/2000/svg">
  <path fill="var(--strib-icon-color, #0d0d0d)" fill-rule="evenodd" clip-rule="evenodd" d="M13.357,12.286L13.357,14.429L2.643,14.429L2.643,12.286L1.571,12.286L1.571,14.429C1.571,14.713 1.684,14.985 1.885,15.186C2.086,15.387 2.359,15.5 2.643,15.5L13.357,15.5C13.641,15.5 13.914,15.387 14.115,15.186C14.316,14.985 14.429,14.713 14.429,14.429L14.429,12.286L13.357,12.286ZM13.357,6.929L12.602,6.173L8.536,10.234L8.536,0.5L7.464,0.5L7.464,10.234L3.398,6.173L2.643,6.929L8,12.286L13.357,6.929Z"/>
</svg>
