<svg id="edit" viewBox="0 0 16 16" xmlns="http://www.w3.org/2000/svg">
  <path fill="var(--strib-icon-color, #0d0d0d)" fill-rule="evenodd" clip-rule="evenodd" d="M13.232,0.5C12.63,0.5 12.053,0.739 11.628,1.164L4.749,8.018C4.646,8.121 4.587,8.262 4.587,8.409L4.587,10.861C4.587,11.166 4.834,11.413 5.139,11.413L7.591,11.413C7.738,11.413 7.879,11.354 7.982,11.251L14.836,4.372C15.261,3.947 15.5,3.37 15.5,2.768C15.5,2.167 15.261,1.59 14.836,1.164C14.41,0.739 13.833,0.5 13.232,0.5ZM12.408,1.945C12.626,1.726 12.923,1.604 13.232,1.604C13.541,1.604 13.837,1.726 14.055,1.945C14.274,2.163 14.396,2.46 14.396,2.768C14.396,3.077 14.274,3.374 14.055,3.592L7.362,10.309L5.691,10.309L5.691,8.638L12.407,1.945L12.408,1.945ZM2.687,3.77C2.107,3.77 1.551,4 1.14,4.41C0.73,4.82 0.5,5.377 0.5,5.956L0.5,13.313C0.5,13.893 0.73,14.45 1.14,14.86C1.551,15.27 2.107,15.5 2.687,15.5L10.044,15.5C10.624,15.5 11.18,15.27 11.59,14.86C12,14.45 12.23,13.893 12.23,13.313L12.23,12.496C12.23,12.191 11.983,11.944 11.678,11.944C11.374,11.944 11.127,12.191 11.127,12.496L11.127,13.313C11.127,13.601 11.013,13.876 10.809,14.079C10.606,14.282 10.331,14.396 10.044,14.396L2.687,14.396C2.399,14.396 2.124,14.282 1.921,14.079C1.718,13.876 1.604,13.601 1.604,13.313L1.604,5.956C1.604,5.669 1.718,5.394 1.921,5.191C2.124,4.987 2.399,4.873 2.687,4.873L3.504,4.873C3.809,4.873 4.056,4.626 4.056,4.322C4.056,4.017 3.809,3.77 3.504,3.77L2.687,3.77Z"/>
</svg>
