<svg id="error-filled" viewBox="0 0 16 16" xmlns="http://www.w3.org/2000/svg">
  <path fill="var(--strib-icon-color, #0d0d0d)" fill-rule="evenodd" clip-rule="evenodd" d="M8,0.5C3.875,0.5 0.5,3.875 0.5,8C0.5,12.125 3.875,15.5 8,15.5C12.125,15.5 15.5,12.125 15.5,8C15.5,3.875 12.125,0.5 8,0.5ZM7.411,3.714L8.589,3.714L8.589,9.607L7.411,9.607L7.411,3.714ZM8,12.821C7.571,12.821 7.196,12.446 7.196,12.018C7.196,11.589 7.571,11.214 8,11.214C8.429,11.214 8.804,11.589 8.804,12.018C8.804,12.446 8.429,12.821 8,12.821Z"/>
</svg>
