<svg id="error" viewBox="0 0 16 16" xmlns="http://www.w3.org/2000/svg">
  <path fill="var(--strib-icon-color, #0d0d0d)" fill-rule="evenodd" clip-rule="evenodd" d="M8,12.286C8.159,12.286 8.314,12.239 8.446,12.15C8.579,12.062 8.682,11.936 8.742,11.79C8.803,11.643 8.819,11.481 8.788,11.325C8.757,11.169 8.681,11.026 8.568,10.914C8.456,10.802 8.313,10.725 8.157,10.694C8.001,10.663 7.839,10.679 7.693,10.74C7.546,10.801 7.42,10.904 7.332,11.036C7.244,11.168 7.196,11.323 7.196,11.482C7.196,11.695 7.281,11.9 7.432,12.05C7.583,12.201 7.787,12.286 8,12.286Z"/>
  <rect fill="var(--strib-icon-color, #0d0d0d)" fill-rule="evenodd" clip-rule="evenodd" x="7.286" y="3.714" width="1.429" height="5.357"/>
  <path fill="var(--strib-icon-color, #0d0d0d)" fill-rule="evenodd" clip-rule="evenodd" d="M8,15.5C6.517,15.5 5.067,15.06 3.833,14.236C2.6,13.412 1.639,12.241 1.071,10.87C0.503,9.5 0.355,7.992 0.644,6.537C0.934,5.082 1.648,3.746 2.697,2.697C3.746,1.648 5.082,0.933 6.537,0.644C7.992,0.355 9.5,0.503 10.87,1.071C12.241,1.639 13.412,2.6 14.236,3.833C15.06,5.067 15.5,6.517 15.5,8C15.5,9.989 14.71,11.897 13.303,13.303C11.897,14.71 9.989,15.5 8,15.5ZM8,1.571C6.729,1.571 5.486,1.948 4.428,2.655C3.371,3.361 2.547,4.365 2.061,5.54C1.574,6.715 1.447,8.007 1.695,9.254C1.943,10.501 2.555,11.647 3.454,12.546C4.353,13.445 5.499,14.057 6.746,14.305C7.993,14.553 9.285,14.426 10.46,13.939C11.635,13.453 12.639,12.629 13.345,11.571C14.052,10.514 14.429,9.271 14.429,8C14.429,6.295 13.751,4.66 12.546,3.454C11.34,2.249 9.705,1.571 8,1.571Z"/>
</svg>
