<svg id="event" viewBox="0 0 16 16" xmlns="http://www.w3.org/2000/svg">
  <path fill="var(--strib-icon-color, #0d0d0d)" fill-rule="evenodd" clip-rule="evenodd" d="M13.847,1.885C14.048,2.086 14.161,2.359 14.161,2.643L14.161,5.857L13.089,5.857L13.089,2.643L10.946,2.643L10.946,3.714L9.875,3.714L9.875,2.643L5.589,2.643L5.589,3.714L4.518,3.714L4.518,2.643L2.375,2.643L2.375,13.357L4.518,13.357L4.518,14.429L2.375,14.429C2.091,14.429 1.818,14.316 1.617,14.115C1.416,13.914 1.304,13.641 1.304,13.357L1.304,2.643C1.304,2.359 1.416,2.086 1.617,1.885C1.818,1.684 2.091,1.571 2.375,1.571L4.518,1.571L4.518,0.5L5.589,0.5L5.589,1.571L9.875,1.571L9.875,0.5L10.946,0.5L10.946,1.571L13.089,1.571C13.373,1.571 13.646,1.684 13.847,1.885ZM11.776,10.11L10.411,7.464L9.125,10.11L6.125,10.533L8.268,12.593L7.732,15.5L10.411,14.127L13.089,15.5L12.554,12.593L14.696,10.533L11.776,10.11Z"/>
</svg>
