<svg id="strib-faq-filled" viewBox="0 0 16 16" width="16" height="16" fill="currentcolor" class="strib-icon strib-faq-filled" xmlns="http://www.w3.org/2000/svg" clip-rule="evenodd" fill-rule="evenodd">
  <path d="M9.933 8.724v2.172a1.21 1.21 0 0 1-1.209 1.209H3.858l-2.03 2.029A.483.483 0 0 1 1 13.791V6.552a1.21 1.21 0 0 1 1.209-1.209h2.843v2.172c0 .32.128.628.354.855.227.226.535.354.855.354z"/>
  <path d="M6.067 6.552V2.209A1.21 1.21 0 0 1 7.276 1h6.515A1.21 1.21 0 0 1 15 2.209v7.239a.484.484 0 0 1-.828.343l-2.03-2.03H7.276a1.21 1.21 0 0 1-1.209-1.209"/>
</svg>