<svg id="faq" viewBox="0 0 16 16" xmlns="http://www.w3.org/2000/svg">
  <path fill="var(--strib-icon-color, #0d0d0d)" fill-rule="evenodd" clip-rule="evenodd" d="M7.057,2.012C7.105,1.964 7.17,1.937 7.238,1.937L14.207,1.937C14.274,1.937 14.339,1.964 14.387,2.012C14.435,2.06 14.462,2.125 14.462,2.193L14.462,8.683L13.025,7.246C12.928,7.148 12.796,7.094 12.658,7.094L7.238,7.094C7.17,7.094 7.105,7.067 7.057,7.019C7.009,6.971 6.982,6.906 6.982,6.839L6.982,6.074C6.982,6.071 6.983,6.068 6.983,6.064C6.983,6.061 6.982,6.058 6.982,6.054L6.982,2.193C6.982,2.125 7.009,2.06 7.057,2.012ZM5.944,5.545L5.944,2.193C5.944,1.85 6.081,1.521 6.323,1.278C6.566,1.035 6.895,0.899 7.238,0.899L14.207,0.899C14.55,0.899 14.879,1.035 15.121,1.278C15.364,1.521 15.5,1.85 15.5,2.193L15.5,9.936C15.5,10.146 15.374,10.335 15.18,10.415C14.986,10.496 14.762,10.451 14.614,10.303L12.443,8.132L10.08,8.132L10.08,11.484C10.08,11.828 9.944,12.156 9.701,12.399C9.458,12.642 9.129,12.778 8.786,12.778L3.581,12.778L1.41,14.949C1.262,15.097 1.039,15.142 0.845,15.061C0.651,14.981 0.524,14.792 0.524,14.582L0.524,6.839C0.524,6.495 0.66,6.167 0.903,5.924C1.146,5.681 1.475,5.545 1.818,5.545L5.944,5.545ZM5.944,6.583L1.818,6.583C1.75,6.583 1.685,6.61 1.637,6.658C1.589,6.706 1.562,6.771 1.562,6.839L1.562,13.329L2.999,11.892C3.097,11.794 3.229,11.74 3.366,11.74L8.786,11.74C8.854,11.74 8.919,11.713 8.967,11.665C9.015,11.617 9.042,11.552 9.042,11.484L9.042,8.132L7.238,8.132C6.895,8.132 6.566,7.996 6.323,7.753C6.081,7.51 5.944,7.182 5.944,6.839L5.944,6.583Z"/>
</svg>
