<svg id="fast-forward-15" viewBox="0 0 16 16" xmlns="http://www.w3.org/2000/svg">
  <path fill="var(--strib-icon-color, #0d0d0d)" fill-rule="evenodd" clip-rule="evenodd" d="M15.324,3.33L12.494,0.5L11.643,1.35L13.447,3.154L6.08,3.154C3.103,3.154 0.669,5.588 0.669,8.565C0.669,11.543 3.103,13.977 6.08,13.977L6.681,13.977L6.681,12.774L6.08,12.774C3.767,12.774 1.871,10.879 1.871,8.565C1.871,6.252 3.767,4.357 6.08,4.357L13.447,4.357L11.643,6.16L12.494,7.011L15.324,4.181C15.559,3.946 15.559,3.565 15.324,3.33ZM9.808,9.648L9.808,15.5L8.766,15.5L8.766,9.648L9.808,9.648ZM11.692,9.648C11.404,9.648 11.171,9.881 11.171,10.169L11.171,12.574C11.171,12.862 11.404,13.095 11.692,13.095L12.894,13.095C13.248,13.095 13.576,13.423 13.576,13.776C13.576,14.13 13.248,14.458 12.894,14.458L11.131,14.458L11.131,15.5L12.894,15.5C13.823,15.5 14.618,14.706 14.618,13.776C14.618,12.847 13.823,12.053 12.894,12.053L12.213,12.053L12.213,10.69L14.418,10.69L14.418,9.648L11.692,9.648Z"/>
</svg>
