<svg id="filter-filled" viewBox="0 0 16 16" xmlns="http://www.w3.org/2000/svg">
  <path fill="var(--strib-icon-color, #0d0d0d)" fill-rule="evenodd" clip-rule="evenodd" d="M9.25,15.5L6.75,15.5C6.419,15.5 6.101,15.368 5.866,15.134C5.632,14.9 5.5,14.582 5.5,14.25L5.5,9.506L0.869,4.875C0.634,4.642 0.501,4.325 0.5,3.994L0.5,1.75C0.5,1.418 0.632,1.101 0.866,0.866C1.101,0.632 1.418,0.5 1.75,0.5L14.25,0.5C14.582,0.5 14.9,0.632 15.134,0.866C15.368,1.101 15.5,1.418 15.5,1.75L15.5,3.994C15.499,4.325 15.366,4.642 15.131,4.875L10.5,9.506L10.5,14.25C10.5,14.582 10.368,14.9 10.134,15.134C9.9,15.368 9.582,15.5 9.25,15.5Z"/>
</svg>
