<svg id="fire" viewBox="0 0 16 16" xmlns="http://www.w3.org/2000/svg">
  <path fill="var(--strib-icon-color, #0d0d0d)" fill-rule="evenodd" clip-rule="evenodd" d="M8.345,0.625L8,1.039C8.345,0.625 8.345,0.625 8.345,0.625L8.353,0.631L8.373,0.648C8.39,0.663 8.414,0.684 8.446,0.711C8.509,0.766 8.601,0.846 8.715,0.948C8.943,1.154 9.262,1.45 9.63,1.819C10.635,2.823 10.635,4.452 9.63,5.457C9.37,5.717 9.37,6.138 9.63,6.398C9.89,6.658 10.312,6.658 10.572,6.398L11.684,5.287C11.8,5.17 11.964,5.113 12.128,5.133C12.292,5.152 12.438,5.245 12.524,5.386C13.262,6.585 13.841,7.949 13.841,9.3C13.841,11.336 13.21,12.902 12.125,13.958C11.045,15.01 9.574,15.5 8,15.5C6.426,15.5 4.955,15.01 3.875,13.958C2.79,12.902 2.159,11.336 2.159,9.3C2.159,9.11 2.17,8.92 2.192,8.732C2.215,8.526 2.354,8.352 2.55,8.284C2.745,8.216 2.962,8.265 3.109,8.412L4.049,9.352C4.317,9.62 4.751,9.62 5.019,9.352C5.287,9.084 5.287,8.649 5.019,8.381C5.019,8.381 5.019,8.381 5.019,8.381L4.305,7.667C3.475,6.837 3.343,5.521 4.029,4.553C4.551,3.815 5.303,3.539 5.905,3.357C6.015,3.324 6.115,3.295 6.21,3.268C6.395,3.215 6.556,3.169 6.715,3.111C6.945,3.027 7.093,2.944 7.19,2.849C7.253,2.787 7.322,2.671 7.378,2.484C7.432,2.301 7.462,2.088 7.477,1.875C7.49,1.664 7.487,1.468 7.48,1.323C7.477,1.251 7.473,1.193 7.469,1.154C7.468,1.135 7.466,1.12 7.466,1.111L7.464,1.101C7.464,1.101 7.464,1.101 7.464,1.101M7.464,1.101C7.439,0.882 7.55,0.67 7.744,0.565C7.938,0.46 8.176,0.484 8.345,0.625M8.524,2.244C8.501,2.423 8.465,2.609 8.411,2.791C8.328,3.071 8.189,3.38 7.944,3.62C7.687,3.871 7.373,4.019 7.084,4.124C6.889,4.195 6.666,4.259 6.461,4.318C6.376,4.343 6.293,4.366 6.216,4.389C5.652,4.56 5.209,4.752 4.909,5.176C4.534,5.704 4.6,6.437 5.067,6.904C5.067,6.904 5.067,6.904 5.067,6.904L5.782,7.619C6.471,8.308 6.471,9.425 5.782,10.114C5.093,10.803 3.975,10.803 3.286,10.114L3.276,10.104C3.416,11.49 3.922,12.499 4.627,13.186C5.466,14.003 6.646,14.422 8,14.422C9.354,14.422 10.534,14.003 11.373,13.186C12.208,12.372 12.763,11.108 12.763,9.3C12.763,8.425 12.448,7.483 11.948,6.547L11.335,7.161C10.653,7.842 9.549,7.842 8.868,7.161C8.187,6.48 8.187,5.375 8.868,4.694C9.451,4.111 9.451,3.165 8.868,2.582C8.747,2.461 8.632,2.348 8.524,2.244Z"/>
</svg>
