<svg id="strib-fire-filled" viewBox="0 0 16 16" width="16" height="16" fill="currentColor" class="strib-icon strib-fire-filled" xmlns="http://www.w3.org/2000/svg" fill-rule="evenodd" clip-rule="evenodd">
  <path d="M8.322 1.117 8 1.503zl.007.005.019.016.068.059a19 19 0 0 1 1.105 1.034 2.4 2.4 0 0 1 0 3.395.623.623 0 0 0 .88.879l1.037-1.037a.5.5 0 0 1 .784.092c.689 1.119 1.23 2.392 1.23 3.653 0 1.901-.589 3.362-1.602 4.348C10.842 14.543 9.469 15 8 15s-2.842-.457-3.85-1.439c-1.013-.986-1.602-2.447-1.602-4.348q0-.266.031-.53a.503.503 0 0 1 .856-.298l.877.877a.641.641 0 0 0 .906-.906l-.667-.667a2.26 2.26 0 0 1-.257-2.906c.487-.689 1.189-.947 1.751-1.117l.284-.083a7 7 0 0 0 .472-.146c.214-.079.352-.156.443-.245.059-.058.123-.166.175-.34.051-.171.079-.37.093-.569a5 5 0 0 0-.008-.673l-.002-.04-.002-.009m0 0a.502.502 0 0 1 .822-.444"/>
</svg>