<svg id="flag-filled" viewBox="0 0 16 16" xmlns="http://www.w3.org/2000/svg">
  <path fill="var(--strib-icon-color, #0d0d0d)" fill-rule="evenodd" clip-rule="evenodd" d="M5.224,0.5C4.032,0.5 2.888,0.967 2.036,1.802L1.882,1.953C1.868,1.967 1.86,1.986 1.86,2.005L1.86,15.427C1.86,15.468 1.892,15.5 1.933,15.5L2.964,15.5C3.004,15.5 3.036,15.468 3.036,15.427L3.036,9.619C3.645,9.101 4.42,8.815 5.224,8.815C6.108,8.815 6.957,9.161 7.588,9.78C8.439,10.614 9.584,11.082 10.776,11.082C11.968,11.082 13.112,10.614 13.964,9.78C14.076,9.669 14.14,9.518 14.14,9.36L14.14,1.561C14.14,1.286 13.809,1.147 13.612,1.339L13.14,1.802C12.509,2.421 11.66,2.767 10.776,2.767C9.892,2.767 9.043,2.421 8.412,1.802C7.561,0.967 6.416,0.5 5.224,0.5Z"/>
</svg>
