<svg id="flag" viewBox="0 0 16 16" xmlns="http://www.w3.org/2000/svg">
  <path fill="var(--strib-icon-color, #0d0d0d)" fill-rule="evenodd" clip-rule="evenodd" d="M5.224,0.5C4.032,0.5 2.888,0.967 2.036,1.802C1.924,1.912 1.86,2.064 1.86,2.222L1.86,15.427C1.86,15.467 1.892,15.5 1.933,15.5L2.964,15.5C3.004,15.5 3.036,15.467 3.036,15.427L3.036,9.619C3.645,9.101 4.42,8.815 5.224,8.815C6.108,8.815 6.957,9.161 7.588,9.78C8.439,10.614 9.584,11.082 10.776,11.082C11.968,11.082 13.112,10.614 13.964,9.78C14.077,9.669 14.14,9.518 14.14,9.36L14.14,2.222C14.14,1.985 13.998,1.771 13.78,1.68C13.561,1.588 13.309,1.636 13.14,1.802C12.509,2.421 11.66,2.767 10.776,2.767C9.892,2.767 9.043,2.421 8.412,1.802C7.561,0.967 6.416,0.5 5.224,0.5ZM3.036,8.198L3.036,2.481C3.645,1.963 4.42,1.676 5.224,1.676C6.108,1.676 6.957,2.023 7.588,2.642C8.439,3.476 9.584,3.944 10.776,3.944C11.547,3.944 12.299,3.748 12.964,3.384L12.964,9.101C12.355,9.619 11.58,9.905 10.776,9.905C9.892,9.905 9.043,9.559 8.412,8.94C7.561,8.105 6.416,7.638 5.224,7.638C4.453,7.638 3.701,7.834 3.036,8.198Z"/>
</svg>
