<svg id="forward" viewBox="0 0 16 16" xmlns="http://www.w3.org/2000/svg">
  <path fill="var(--strib-icon-color, #0d0d0d)" fill-rule="evenodd" clip-rule="evenodd" d="M8.575,1.299C8.769,1.21 8.997,1.244 9.157,1.384L15.362,6.814C15.48,6.917 15.548,7.066 15.548,7.222C15.548,7.379 15.48,7.528 15.362,7.631L9.157,13.06C8.997,13.201 8.769,13.234 8.575,13.146C8.381,13.058 8.257,12.865 8.257,12.652L8.257,10.137C7.633,10.23 6.977,10.465 6.317,10.797C5.463,11.225 4.635,11.797 3.904,12.373C3.175,12.949 2.554,13.52 2.115,13.94C1.962,14.086 1.834,14.211 1.728,14.314C1.681,14.361 1.638,14.403 1.599,14.44C1.541,14.496 1.486,14.549 1.443,14.587L1.442,14.588C1.427,14.6 1.385,14.638 1.334,14.669C1.318,14.678 1.288,14.695 1.249,14.711C1.221,14.722 1.128,14.758 1.004,14.748C0.837,14.736 0.642,14.639 0.548,14.428C0.48,14.276 0.502,14.143 0.509,14.107L0.509,14.103L0.51,14.103C1.255,10.137 3.135,5.488 8.257,4.442L8.257,1.793C8.257,1.58 8.381,1.387 8.575,1.299ZM9.342,2.989L9.342,4.896C9.342,5.163 9.148,5.391 8.883,5.432C4.829,6.066 2.91,9.19 1.97,12.591C2.334,12.261 2.761,11.893 3.232,11.521C3.996,10.918 4.888,10.298 5.83,9.826C6.767,9.356 7.786,9.015 8.795,9.006C8.94,9.005 9.079,9.062 9.182,9.164C9.285,9.266 9.342,9.405 9.342,9.549L9.342,11.455L14.18,7.222L9.342,2.989ZM0.723,13.773C0.723,13.773 0.725,13.772 0.728,13.77C0.725,13.772 0.723,13.773 0.723,13.773Z"/>
</svg>
