<svg xmlns="http://www.w3.org/2000/svg" viewBox="0 0 36 36">
  <path d="M25.9 26.7v6.7c0 .4.3.7.7.7h6.7c.4 0 .7-.3.7-.7v-6.7c0-.4-.3-.7-.7-.7h-6.7c-.4.1-.7.4-.7.7m-12 0v6.7c0 .4.3.7.7.7h6.7c.4 0 .7-.3.7-.7v-6.7c0-.4-.3-.7-.7-.7h-6.7c-.4.1-.7.4-.7.7m-12 0v6.7c0 .4.3.7.7.7h6.7c.4 0 .7-.3.7-.7v-6.7c0-.4-.3-.7-.7-.7H2.6c-.4.1-.7.4-.7.7m24-12v6.7c0 .4.3.7.7.7h6.7c.4 0 .7-.3.7-.7v-6.7c0-.4-.3-.7-.7-.7h-6.7c-.4.1-.7.4-.7.7m-12 0v6.7c0 .4.3.7.7.7h6.7c.4 0 .7-.3.7-.7v-6.7c0-.4-.3-.7-.7-.7h-6.7c-.4.1-.7.4-.7.7m-12 0v6.7c0 .4.3.7.7.7h6.7c.4 0 .7-.3.7-.7v-6.7c0-.4-.3-.7-.7-.7H2.6c-.4.1-.7.4-.7.7m24-12v6.7c0 .4.3.7.7.7h6.7c.4 0 .7-.3.7-.7V2.7c0-.4-.3-.7-.7-.7h-6.7c-.4.1-.7.4-.7.7m-12 0v6.7c0 .4.3.7.7.7h6.7c.4 0 .7-.3.7-.7V2.7c0-.4-.3-.7-.7-.7h-6.7c-.4.1-.7.4-.7.7m-12 0v6.7c0 .4.3.7.7.7h6.7c.4 0 .7-.3.7-.7V2.7c0-.4-.3-.7-.7-.7H2.6c-.4.1-.7.4-.7.7"/>
</svg>
