<svg xmlns="http://www.w3.org/2000/svg" viewBox="0 0 26.1 25">
  <path d="M23.8 5.3h-2.5c.3-.5.4-1.1.4-1.7 0-2-1.6-3.6-3.5-3.6-2.6 0-4.2 1.9-5.1 3.6C12.2 1.9 10.5 0 8 0 6 0 4.4 1.7 4.4 3.6c0 .6.1 1.2.4 1.7H2.3C1 5.3 0 6.4 0 7.7v2.6c0 1 .7 1.9 1.7 2.2V22c0 1.6 1.3 3 3 3h16.7c1.6 0 3-1.3 3-3v-9.5c1-.3 1.7-1.2 1.7-2.2V7.7c0-1.3-1.1-2.3-2.3-2.4zm.3 2.4v2.6c0 .2-.1.3-.3.3H14V7.3h9.7c.3 0 .4.2.4.4zm-5.9-5.8c.9 0 1.6.8 1.6 1.7 0 .9-.7 1.7-1.6 1.7h-3.7c.5-1.3 1.6-3.4 3.7-3.4zM6.4 3.6c0-.9.7-1.6 1.6-1.7 2 0 3.2 2 3.7 3.4H8c-.9 0-1.6-.8-1.6-1.7zM2 7.7c0-.2.1-.3.3-.3H12v3.3H2.3c-.2 0-.3-.1-.3-.3V7.7zM3.7 22v-9.4h8.4V23H4.7c-.6 0-1-.4-1-1zm17.7 1H14V12.6h8.4V22c0 .6-.5 1-1 1z"/>
</svg>
