<?xml version="1.0" encoding="utf-8"?>
<!-- Generator: Adobe Illustrator 26.4.1, SVG Export Plug-In . SVG Version: 6.00 Build 0)  -->
<svg version="1.1" id="Layer_1" xmlns="http://www.w3.org/2000/svg" xmlns:xlink="http://www.w3.org/1999/xlink" x="0px" y="0px"
	 viewBox="0 0 26.1 25" style="enable-background:new 0 0 26.1 25;" xml:space="preserve">
<path id="Compound_Path" d="M23.8,5.3h-2.5c0.3-0.5,0.4-1.1,0.4-1.7c0-2-1.6-3.6-3.5-3.6c-2.6,0-4.2,1.9-5.1,3.6
	C12.2,1.9,10.5,0,8,0C6,0,4.4,1.7,4.4,3.6c0,0.6,0.1,1.2,0.4,1.7H2.3C1,5.3,0,6.4,0,7.7c0,0,0,0,0,0v2.6c0,1,0.7,1.9,1.7,2.2V22
	c0,1.6,1.3,3,3,3c0,0,0,0,0,0h16.7c1.6,0,3-1.3,3-3v-9.5c1-0.3,1.7-1.2,1.7-2.2V7.7C26.1,6.4,25,5.4,23.8,5.3z M24.1,7.7v2.6
	c0,0.2-0.1,0.3-0.3,0.3l0,0H14V7.3h9.7C24,7.3,24.1,7.5,24.1,7.7C24.1,7.7,24.1,7.7,24.1,7.7z M18.2,1.9c0.9,0,1.6,0.8,1.6,1.7
	c0,0.9-0.7,1.7-1.6,1.7h-3.7C15,4,16.1,1.9,18.2,1.9L18.2,1.9z M6.4,3.6C6.4,2.7,7.1,2,8,1.9c2,0,3.2,2,3.7,3.4H8
	C7.1,5.3,6.4,4.5,6.4,3.6L6.4,3.6z M2,7.7c0-0.2,0.1-0.3,0.3-0.3h9.7v3.3H2.3c-0.2,0-0.3-0.1-0.3-0.3L2,7.7z M3.7,22v-9.4h8.4V23
	H4.7C4.1,23,3.7,22.6,3.7,22L3.7,22L3.7,22z M21.4,23H14V12.6h8.4V22C22.4,22.6,21.9,23,21.4,23L21.4,23L21.4,23z"/>
</svg>
