<svg id="gift" viewBox="0 0 16 16" xmlns="http://www.w3.org/2000/svg">
  <path fill="var(--strib-icon-color, #0d0d0d)" fill-rule="evenodd" clip-rule="evenodd" d="M13.558,4.384L12.023,4.384C12.382,3.85 12.52,3.197 12.409,2.562C12.297,1.928 11.945,1.361 11.425,0.981C10.905,0.601 10.258,0.436 9.619,0.522C8.981,0.608 8.401,0.938 8,1.443C7.599,0.938 7.019,0.608 6.381,0.522C5.742,0.436 5.095,0.601 4.575,0.981C4.055,1.361 3.703,1.928 3.591,2.562C3.48,3.197 3.618,3.85 3.977,4.384L2.442,4.384C2.147,4.385 1.865,4.502 1.657,4.71C1.448,4.919 1.331,5.201 1.331,5.496L1.331,7.719C1.331,8.014 1.448,8.296 1.657,8.505C1.865,8.713 2.147,8.83 2.442,8.831L2.442,14.388C2.442,14.683 2.56,14.966 2.768,15.174C2.976,15.382 3.259,15.5 3.554,15.5L12.446,15.5C12.741,15.5 13.024,15.382 13.232,15.174C13.44,14.966 13.558,14.683 13.558,14.388L13.558,8.831C13.853,8.83 14.135,8.713 14.343,8.505C14.552,8.296 14.669,8.014 14.669,7.719L14.669,5.496C14.669,5.201 14.552,4.919 14.343,4.71C14.135,4.502 13.853,4.385 13.558,4.384ZM8.556,2.995C8.556,2.72 8.637,2.451 8.79,2.223C8.943,1.994 9.16,1.816 9.414,1.711C9.667,1.606 9.947,1.579 10.216,1.632C10.486,1.686 10.733,1.818 10.928,2.012C11.122,2.207 11.254,2.454 11.308,2.724C11.362,2.993 11.334,3.273 11.229,3.527C11.124,3.781 10.946,3.998 10.717,4.15C10.489,4.303 10.22,4.384 9.945,4.384L8.556,4.384L8.556,2.995ZM6.055,1.605C6.423,1.606 6.776,1.752 7.037,2.013C7.297,2.273 7.444,2.627 7.444,2.995L7.444,4.384L6.055,4.384C5.686,4.384 5.333,4.238 5.072,3.977C4.812,3.717 4.665,3.363 4.665,2.995C4.665,2.626 4.812,2.273 5.072,2.012C5.333,1.752 5.686,1.605 6.055,1.605ZM2.442,5.496L7.444,5.496L7.444,7.719L2.442,7.719L2.442,5.496ZM3.554,8.831L7.444,8.831L7.444,14.388L3.554,14.388L3.554,8.831ZM12.447,14.388L8.556,14.388L8.556,8.831L12.446,8.831L12.447,14.388ZM8.556,7.719L8.556,5.496L13.558,5.496L13.558,7.719L8.556,7.719Z"/>
</svg>
