<?xml version="1.0" encoding="utf-8"?>
<!-- Generator: Adobe Illustrator 22.0.1, SVG Export Plug-In . SVG Version: 6.00 Build 0)  -->
<svg version="1.1" id="Layer_1" xmlns="http://www.w3.org/2000/svg" xmlns:xlink="http://www.w3.org/1999/xlink" x="0px" y="0px"
	 viewBox="0 0 100 100" style="enable-background:new 0 0 100 100;" xml:space="preserve">
<style type="text/css">
	.st0{fill:#FFFFFF;}
</style>
<path class="st0" d="M91.1,44.1H8.9C5.6,44.1,3,46.8,3,50s2.6,5.9,5.9,5.9h82.2c3.2,0,5.9-2.6,5.9-5.9S94.4,44.1,91.1,44.1z"/>
<path class="st0" d="M91.1,71.5H8.9c-3.2,0-5.9,2.6-5.9,5.9c0,3.2,2.6,5.9,5.9,5.9h82.2c3.2,0,5.9-2.6,5.9-5.9
	C97,74.2,94.4,71.5,91.1,71.5z"/>
<path class="st0" d="M8.9,28.5h82.2c3.2,0,5.9-2.6,5.9-5.9s-2.6-5.9-5.9-5.9H8.9c-3.2,0-5.9,2.6-5.9,5.9C3,25.8,5.6,28.5,8.9,28.5z"
	/>
</svg>
