<?xml version="1.0" encoding="utf-8"?>
<!-- Generator: Adobe Illustrator 21.1.0, SVG Export Plug-In . SVG Version: 6.00 Build 0)  -->
<svg version="1.1" id="Layer_1" xmlns="http://www.w3.org/2000/svg" xmlns:xlink="http://www.w3.org/1999/xlink" x="0px" y="0px"
	 viewBox="0 0 97 70" style="enable-background:new 0 0 97 70;" xml:space="preserve">
<style type="text/css">
	.st0{fill:#231F20;}
</style>
<path class="st0" d="M89.6,29.1H7.4c-3.3,0-5.9,2.7-5.9,5.9s2.6,5.9,5.9,5.9h82.2c3.2,0,5.9-2.6,5.9-5.9S92.9,29.1,89.6,29.1z
	 M89.6,56.5H7.4c-3.2,0-5.9,2.6-5.9,5.9c0,3.2,2.6,5.9,5.9,5.9h82.2c3.2,0,5.9-2.6,5.9-5.9C95.5,59.2,92.9,56.5,89.6,56.5z
	 M7.4,13.5h82.2c3.2,0,5.9-2.6,5.9-5.9s-2.6-5.9-5.9-5.9H7.4c-3.2,0-5.9,2.6-5.9,5.9C1.5,10.8,4.1,13.5,7.4,13.5z"/>
</svg>
