<svg id="headphones" viewBox="0 0 16 16" xmlns="http://www.w3.org/2000/svg">
  <path fill="var(--strib-icon-color, #0d0d0d)" fill-rule="evenodd" clip-rule="evenodd" d="M0.697,11.613L0.697,11.651L0.697,11.69C0.717,13.753 2.292,15.419 4.232,15.419L4.582,15.419C4.661,15.419 4.738,15.409 4.812,15.391C4.738,15.409 4.661,15.419 4.582,15.419L4.232,15.419C2.28,15.419 0.697,13.732 0.697,11.651L0.697,11.613L0.697,11.613ZM0.697,9.48L0.697,7.883C0.697,4.467 3.044,1.598 6.213,0.801C3.044,1.598 0.697,4.467 0.697,7.883L0.697,9.48ZM15.303,11.69L15.303,11.69C15.292,12.867 14.774,13.915 13.971,14.598C14.774,13.915 15.292,12.867 15.303,11.69ZM12.476,15.344C12.247,15.393 12.011,15.419 11.768,15.419L11.418,15.419C10.904,15.419 10.486,15.002 10.486,14.487L10.486,8.816C10.486,8.38 10.785,8.015 11.188,7.912C10.785,8.015 10.486,8.38 10.486,8.816L10.486,14.487C10.486,15.002 10.903,15.419 11.418,15.419L11.768,15.419C12.01,15.419 12.247,15.393 12.476,15.344ZM14.371,9.102C14.371,9.102 14.371,9.102 14.371,9.102L14.371,7.883C14.371,4.365 11.518,1.513 8,1.513C7.462,1.513 6.94,1.58 6.441,1.705C6.94,1.58 7.462,1.513 8,1.513C11.518,1.513 14.371,4.365 14.371,7.883L14.371,9.102ZM1.63,9.102L1.63,9.102C2.045,8.621 2.576,8.255 3.175,8.055C2.614,8.242 2.112,8.575 1.71,9.011C1.683,9.041 1.656,9.071 1.63,9.102ZM4.232,15.5C2.244,15.5 0.638,13.795 0.617,11.693L0.617,7.883C0.617,3.806 3.922,0.5 8,0.5C12.078,0.5 15.383,3.806 15.383,7.883L15.383,11.771L15.382,11.771C15.323,13.837 13.732,15.5 11.768,15.5L11.418,15.5C10.859,15.5 10.405,15.047 10.405,14.487L10.405,8.816C10.405,8.256 10.859,7.803 11.418,7.803L11.768,7.803C12.75,7.803 13.639,8.219 14.29,8.894L14.29,7.883C14.29,4.41 11.474,1.594 8,1.594C4.526,1.594 1.71,4.41 1.71,7.883L1.71,8.894C2.361,8.219 3.25,7.803 4.232,7.803L4.582,7.803C5.141,7.803 5.595,8.256 5.595,8.816L5.595,14.487C5.595,15.047 5.141,15.5 4.582,15.5L4.232,15.5ZM11.768,8.896C13.101,8.896 14.29,10.068 14.29,11.651C14.29,13.234 13.101,14.406 11.768,14.406L11.499,14.406L11.499,8.896L11.768,8.896ZM4.232,14.406C2.899,14.406 1.71,13.234 1.71,11.651C1.71,10.068 2.899,8.896 4.232,8.896L4.501,8.896L4.501,14.406L4.232,14.406ZM14.371,11.651C14.371,10.028 13.15,8.816 11.768,8.816L11.418,8.816L11.768,8.816C13.15,8.816 14.371,10.028 14.371,11.651C14.371,12.894 13.655,13.896 12.699,14.298C13.655,13.896 14.371,12.894 14.371,11.651ZM4.582,14.487L4.582,14.487L4.582,8.816L4.232,8.816C4.034,8.816 3.839,8.841 3.65,8.888C3.839,8.841 4.034,8.816 4.232,8.816L4.582,8.816L4.582,14.487Z"/>
</svg>
