<svg id="strib-headphones-filled" viewBox="0 0 16 16" width="16" height="16" fill="currentColor" class="strib-icon strib-headphones-filled" xmlns="http://www.w3.org/2000/svg" fill-rule="evenodd" clip-rule="evenodd">
  <path d="M11.852 14.907q-.165.018-.335.017h-.327a.87.87 0 0 1-.87-.869V8.762v5.293c0 .48.389.869.87.869h.327q.17 0 .335-.017m2.094-5.878V7.891zm-9.004 5.886a1 1 0 0 1-.132.009h-.327c-1.822 0-3.299-1.574-3.299-3.516v-.036.073c.019 1.925 1.489 3.479 3.299 3.479h.327a1 1 0 0 0 .132-.009M1.184 9.337V7.891zm13.707 2.183c-.055 1.928-1.54 3.48-3.373 3.48h-.327a.945.945 0 0 1-.945-.945V8.762c0-.523.423-.946.945-.946h.327c.916 0 1.746.388 2.354 1.018v-.943a5.87 5.87 0 0 0-11.742 0v.943a3.26 3.26 0 0 1 2.354-1.018h.327c.522 0 .945.423.945.946v5.293A.945.945 0 0 1 4.81 15h-.327c-1.855 0-3.354-1.591-3.374-3.553V7.891a6.891 6.891 0 0 1 13.782 0z"/>
</svg>