<svg id="headphones-filled" viewBox="0 0 16 16" xmlns="http://www.w3.org/2000/svg">
  <path fill="var(--strib-icon-color, #0d0d0d)" fill-rule="evenodd" clip-rule="evenodd" d="M12.127,15.4C12.009,15.413 11.889,15.419 11.768,15.419L11.418,15.419C10.903,15.419 10.486,15.002 10.486,14.487L10.486,8.816C10.486,8.38 10.785,8.015 11.188,7.912C10.785,8.015 10.486,8.38 10.486,8.816L10.486,14.487C10.486,15.002 10.903,15.419 11.418,15.419L11.768,15.419C11.889,15.419 12.009,15.413 12.127,15.4ZM14.371,9.102C14.371,9.102 14.371,9.102 14.371,9.102L14.371,7.883C14.371,4.365 11.518,1.513 8,1.513C7.538,1.513 7.087,1.562 6.653,1.656C7.087,1.562 7.538,1.513 8,1.513C11.518,1.513 14.371,4.365 14.371,7.883L14.371,9.102ZM1.63,9.102L1.63,9.102C2.047,8.618 2.581,8.251 3.185,8.052C2.619,8.238 2.115,8.572 1.71,9.011C1.683,9.041 1.656,9.071 1.63,9.102ZM4.724,15.409C4.677,15.416 4.63,15.419 4.582,15.419L4.232,15.419C2.28,15.419 0.697,13.732 0.697,11.651L0.697,11.631L0.697,11.613L0.697,11.613L0.697,11.635L0.697,11.651L0.697,11.691C0.717,13.754 2.292,15.419 4.232,15.419L4.582,15.419C4.63,15.419 4.677,15.416 4.724,15.409ZM0.697,9.432L0.697,7.883C0.697,4.467 3.044,1.598 6.213,0.801C3.044,1.598 0.697,4.467 0.697,7.883L0.697,9.432ZM15.383,11.771L15.382,11.771C15.323,13.837 13.732,15.5 11.768,15.5L11.418,15.5C10.859,15.5 10.405,15.047 10.405,14.487L10.405,8.816C10.405,8.256 10.859,7.803 11.418,7.803L11.768,7.803C12.75,7.803 13.639,8.219 14.29,8.894L14.29,7.883C14.29,4.41 11.474,1.594 8,1.594C4.526,1.594 1.71,4.41 1.71,7.883L1.71,8.894C2.361,8.219 3.25,7.803 4.232,7.803L4.582,7.803C5.141,7.803 5.595,8.256 5.595,8.816L5.595,14.487C5.595,15.047 5.141,15.5 4.582,15.5L4.232,15.5C2.244,15.5 0.638,13.795 0.617,11.693L0.617,7.883C0.617,3.806 3.922,0.5 8,0.5C12.078,0.5 15.383,3.806 15.383,7.883L15.383,11.771Z"/>
</svg>
