<svg id="help" viewBox="0 0 16 16" xmlns="http://www.w3.org/2000/svg">
  <path fill="var(--strib-icon-color, #0d0d0d)" fill-rule="evenodd" clip-rule="evenodd" d="M8,0.5C6.517,0.5 5.067,0.94 3.833,1.764C2.6,2.588 1.639,3.759 1.071,5.13C0.503,6.5 0.355,8.008 0.644,9.463C0.934,10.918 1.648,12.254 2.697,13.303C3.746,14.352 5.082,15.066 6.537,15.356C7.992,15.645 9.5,15.497 10.87,14.929C12.241,14.361 13.412,13.4 14.236,12.167C15.06,10.933 15.5,9.483 15.5,8C15.5,6.011 14.71,4.103 13.303,2.697C11.897,1.29 9.989,0.5 8,0.5ZM8,14.429C6.729,14.429 5.486,14.052 4.428,13.345C3.371,12.639 2.547,11.635 2.061,10.46C1.574,9.285 1.447,7.993 1.695,6.746C1.943,5.499 2.555,4.353 3.454,3.454C4.353,2.555 5.499,1.943 6.746,1.695C7.993,1.447 9.285,1.574 10.46,2.061C11.635,2.547 12.639,3.371 13.345,4.428C14.052,5.486 14.429,6.729 14.429,8C14.429,9.705 13.751,11.34 12.546,12.546C11.34,13.751 9.705,14.429 8,14.429Z"/>
  <path fill="var(--strib-icon-color, #0d0d0d)" fill-rule="evenodd" clip-rule="evenodd" d="M8,12.821C8.444,12.821 8.804,12.462 8.804,12.018C8.804,11.574 8.444,11.214 8,11.214C7.556,11.214 7.196,11.574 7.196,12.018C7.196,12.462 7.556,12.821 8,12.821Z"/>
  <path fill="var(--strib-icon-color, #0d0d0d)" fill-rule="evenodd" clip-rule="evenodd" d="M8.536,3.714L7.732,3.714C7.415,3.714 7.102,3.775 6.809,3.896C6.516,4.017 6.25,4.195 6.026,4.419C5.802,4.643 5.624,4.909 5.504,5.202C5.383,5.494 5.321,5.808 5.321,6.125L5.321,6.393L6.393,6.393L6.393,6.125C6.393,5.77 6.534,5.429 6.785,5.178C7.036,4.927 7.377,4.786 7.732,4.786L8.536,4.786C8.891,4.786 9.232,4.927 9.483,5.178C9.734,5.429 9.875,5.77 9.875,6.125C9.875,6.48 9.734,6.821 9.483,7.072C9.232,7.323 8.891,7.464 8.536,7.464L7.464,7.464L7.464,9.875L8.536,9.875L8.536,8.536C9.175,8.536 9.788,8.282 10.24,7.83C10.692,7.378 10.946,6.764 10.946,6.125C10.946,5.486 10.692,4.872 10.24,4.42C9.788,3.968 9.175,3.714 8.536,3.714Z"/>
</svg>
