<svg id="help-filled" viewBox="0 0 16 16" xmlns="http://www.w3.org/2000/svg">
  <path fill="var(--strib-icon-color, #0d0d0d)" fill-rule="evenodd" clip-rule="evenodd" d="M8,0.5C6.517,0.5 5.067,0.94 3.833,1.764C2.6,2.588 1.639,3.759 1.071,5.13C0.503,6.5 0.355,8.008 0.644,9.463C0.934,10.918 1.648,12.254 2.697,13.303C3.746,14.352 5.082,15.066 6.537,15.356C7.992,15.645 9.5,15.497 10.87,14.929C12.241,14.361 13.412,13.4 14.236,12.167C15.06,10.933 15.5,9.483 15.5,8C15.5,6.011 14.71,4.103 13.303,2.697C11.897,1.29 9.989,0.5 8,0.5ZM8,12.821C7.841,12.821 7.686,12.774 7.554,12.686C7.421,12.598 7.318,12.472 7.258,12.325C7.197,12.179 7.181,12.017 7.212,11.861C7.243,11.705 7.319,11.562 7.432,11.45C7.544,11.337 7.687,11.261 7.843,11.23C7.999,11.199 8.161,11.215 8.308,11.275C8.454,11.336 8.58,11.439 8.668,11.571C8.756,11.704 8.804,11.859 8.804,12.018C8.804,12.231 8.719,12.435 8.568,12.586C8.418,12.737 8.213,12.821 8,12.821ZM8.612,8.667L8.612,10.007L7.406,10.007L7.406,7.464L8.545,7.464C8.883,7.464 9.206,7.33 9.445,7.091C9.684,6.853 9.818,6.529 9.818,6.191C9.818,5.854 9.684,5.53 9.445,5.291C9.206,5.052 8.883,4.918 8.545,4.918L7.741,4.918C7.404,4.918 7.081,5.053 6.842,5.291C6.604,5.53 6.469,5.853 6.469,6.19L6.469,6.532L5.264,6.532L5.264,6.19C5.264,5.534 5.526,4.904 5.99,4.44C6.455,3.976 7.085,3.715 7.741,3.714L8.545,3.714C9.195,3.716 9.819,3.973 10.281,4.43C10.743,4.887 11.007,5.508 11.016,6.158C11.025,6.808 10.778,7.436 10.328,7.905C9.878,8.375 9.262,8.648 8.612,8.667Z"/>
</svg>
