<?xml version="1.0" encoding="utf-8"?>
<!-- Generator: Adobe Illustrator 21.1.0, SVG Export Plug-In . SVG Version: 6.00 Build 0)  -->
<svg version="1.1" id="Layer_1" xmlns="http://www.w3.org/2000/svg" xmlns:xlink="http://www.w3.org/1999/xlink" x="0px" y="0px"
	 viewBox="0 0 11.8 11.8" style="enable-background:new 0 0 11.8 11.8;" xml:space="preserve">
<path d="M11.4,6c0-0.1,0-0.2-0.1-0.3L6.1,0.5C6,0.4,5.9,0.4,5.8,0.5L0.5,5.7C0.4,5.8,0.4,5.9,0.4,6c0,0.1,0.1,0.1,0.2,0.1h1.1v5
	c0,0.1,0.1,0.2,0.2,0.2h2.3c0.1,0,0.2-0.1,0.2-0.2V7.2h2.7v3.9c0,0.1,0.1,0.2,0.2,0.2h2.3c0.1,0,0.2-0.1,0.2-0.2v-5h1.1
	C11.2,6.1,11.3,6,11.4,6"/>
</svg>
