<?xml version="1.0" encoding="utf-8"?>
<!-- Generator: Adobe Illustrator 18.1.1, SVG Export Plug-In . SVG Version: 6.00 Build 0)  -->
<!DOCTYPE svg PUBLIC "-//W3C//DTD SVG 1.1//EN" "http://www.w3.org/Graphics/SVG/1.1/DTD/svg11.dtd">
<svg version="1.1" id="Layer_1" xmlns="http://www.w3.org/2000/svg" xmlns:xlink="http://www.w3.org/1999/xlink" x="0px" y="0px"
	 viewBox="0 0 12 12" height="12" width="12" style="enable-background:new 0 0 12 12;" xml:space="preserve">
<path style="clip-path:url(#SVGID_2_);" d="M11.5,6.3c0-0.1,0-0.2-0.1-0.3L6.2,0.8c-0.1-0.1-0.2-0.1-0.3,0L0.6,6
		C0.5,6.1,0.5,6.2,0.5,6.3c0,0.1,0.1,0.1,0.2,0.1h1.1v5c0,0.1,0.1,0.2,0.2,0.2h2.3c0.1,0,0.2-0.1,0.2-0.2V7.5h2.7v3.9
		c0,0.1,0.1,0.2,0.2,0.2h2.3c0.1,0,0.2-0.1,0.2-0.2v-5h1.1C11.3,6.4,11.4,6.3,11.5,6.3"/>
</svg>
