<svg width="22" height="19" viewBox="0 0 22 19" fill="none" xmlns="http://www.w3.org/2000/svg">
  <path fill="var(--strib-icon-color, #0d0d0d)" fill-rule="evenodd" clip-rule="evenodd" d="M11.4259 0.5762L11.4184 0.570253C11.2957 0.473435 11.1479 0.425033 11 0.425049C10.8537 0.425033 10.7074 0.472429 10.5855 0.567236L0.685547 8.26724L1.51437 9.33286L2.7251 8.39118V17.6C2.7251 17.9728 3.02731 18.275 3.4001 18.275H8.7001C9.07289 18.275 9.3751 17.9728 9.3751 17.6V11.275H12.6251V17.6C12.6251 17.9728 12.9273 18.275 13.3001 18.275H18.6001C18.9729 18.275 19.2751 17.9728 19.2751 17.6V8.3914L20.4855 9.33286L21.3144 8.26724L11.4259 0.5762Z"/>
</svg>
