<svg id="home-filled" viewBox="0 0 16 16" xmlns="http://www.w3.org/2000/svg">
  <path fill="var(--strib-icon-color, #0d0d0d)" fill-rule="evenodd" clip-rule="evenodd" d="M8.31,1.631L8.304,1.626C8.215,1.556 8.108,1.521 8,1.521C7.894,1.521 7.787,1.555 7.699,1.624L0.5,7.223L1.103,7.998L1.983,7.313L1.983,14.009C1.983,14.28 2.203,14.5 2.474,14.5L6.328,14.5C6.599,14.5 6.818,14.28 6.818,14.009L6.818,9.41L9.182,9.41L9.182,14.009C9.182,14.28 9.401,14.5 9.673,14.5L13.526,14.5C13.797,14.5 14.017,14.28 14.017,14.009L14.017,7.313L14.897,7.998L15.5,7.223L8.31,1.631Z"/>
</svg>
