<svg id="strib-image-filled" viewBox="0 0 16 16" width="16" height="16" fill="currentcolor" class="strib-icon strib-image-filled" xmlns="http://www.w3.org/2000/svg" clip-rule="evenodd" fill-rule="evenodd">
  <path d="M9.75 4.5a.585.585 0 0 1 .413.996.59.59 0 0 1-.636.126.586.586 0 0 1-.19-.951.6.6 0 0 1 .413-.171"/>
  <path d="M13.834 1C14.474 1 15 1.527 15 2.167v11.666c0 .64-.527 1.167-1.167 1.167H2.167C1.527 15 1 14.474 1 13.834V2.167C1 1.527 1.527 1 2.167 1zM4.261 6.589 2.167 8.682v1.651l2.916-2.916 3.261 3.261a1.175 1.175 0 0 0 1.645 0l.928-.928 2.916 2.917v-1.651l-2.094-2.094a1.173 1.173 0 0 0-1.645 0l-.927.927-3.261-3.26a1.173 1.173 0 0 0-1.645 0m5.489.244c.961 0 1.751-.79 1.751-1.75s-.79-1.75-1.75-1.75C8.79 3.333 8 4.123 8 5.083s.79 1.75 1.75 1.75"/>
</svg>