<svg id="image" viewBox="0 0 16 16" xmlns="http://www.w3.org/2000/svg">
  <path fill="var(--strib-icon-color, #0d0d0d)" fill-rule="evenodd" clip-rule="evenodd" d="M9.875,6.75C10.246,6.75 10.608,6.64 10.917,6.434C11.225,6.228 11.465,5.935 11.607,5.593C11.749,5.25 11.786,4.873 11.714,4.509C11.642,4.145 11.463,3.811 11.201,3.549C10.939,3.287 10.604,3.108 10.241,3.036C9.877,2.964 9.5,3.001 9.157,3.143C8.815,3.285 8.522,3.525 8.316,3.833C8.11,4.142 8,4.504 8,4.875C8,5.372 8.198,5.849 8.549,6.201C8.901,6.552 9.378,6.75 9.875,6.75ZM9.875,4.25C9.999,4.25 10.119,4.287 10.222,4.355C10.325,4.424 10.405,4.522 10.452,4.636C10.5,4.75 10.512,4.876 10.488,4.997C10.464,5.118 10.404,5.23 10.317,5.317C10.229,5.404 10.118,5.464 9.997,5.488C9.876,5.512 9.75,5.5 9.636,5.452C9.522,5.405 9.424,5.325 9.355,5.222C9.287,5.119 9.25,4.999 9.25,4.875C9.25,4.709 9.316,4.55 9.433,4.433C9.55,4.316 9.709,4.25 9.875,4.25Z"/>
  <path fill="var(--strib-icon-color, #0d0d0d)" fill-rule="evenodd" clip-rule="evenodd" d="M14.25,0.5L1.75,0.5C1.418,0.5 1.101,0.632 0.866,0.866C0.632,1.101 0.5,1.418 0.5,1.75L0.5,14.25C0.5,14.581 0.632,14.9 0.866,15.134C1.101,15.368 1.418,15.5 1.75,15.5L14.25,15.5C14.581,15.5 14.899,15.368 15.134,15.134C15.368,14.9 15.5,14.581 15.5,14.25L15.5,1.75C15.5,1.418 15.368,1.101 15.134,0.866C14.899,0.632 14.581,0.5 14.25,0.5ZM14.25,14.25L1.75,14.25L1.75,10.5L4.875,7.375L8.369,10.869C8.603,11.102 8.92,11.232 9.25,11.232C9.58,11.232 9.897,11.102 10.131,10.869L11.125,9.875L14.25,13L14.25,14.25ZM14.25,11.231L12.006,8.988C11.772,8.755 11.455,8.624 11.125,8.624C10.795,8.624 10.478,8.755 10.244,8.988L9.25,9.981L5.756,6.488C5.522,6.255 5.205,6.124 4.875,6.124C4.545,6.124 4.228,6.255 3.994,6.488L1.75,8.731L1.75,1.75L14.25,1.75L14.25,11.231Z"/>
</svg>
