<svg id="information-filled" viewBox="0 0 16 16" xmlns="http://www.w3.org/2000/svg">
  <path fill="var(--strib-icon-color, #0d0d0d)" fill-rule="evenodd" clip-rule="evenodd" d="M8,0.5C6.517,0.5 5.067,0.94 3.833,1.764C2.6,2.588 1.639,3.759 1.071,5.13C0.503,6.5 0.355,8.008 0.644,9.463C0.934,10.918 1.648,12.254 2.697,13.303C3.746,14.352 5.082,15.066 6.537,15.356C7.992,15.645 9.5,15.497 10.87,14.929C12.241,14.361 13.412,13.4 14.236,12.167C15.06,10.933 15.5,9.483 15.5,8C15.5,6.011 14.71,4.103 13.303,2.697C11.897,1.29 9.989,0.5 8,0.5ZM8,3.714C8.159,3.714 8.314,3.761 8.446,3.85C8.579,3.938 8.682,4.064 8.742,4.21C8.803,4.357 8.819,4.519 8.788,4.675C8.757,4.831 8.681,4.974 8.568,5.086C8.456,5.198 8.313,5.275 8.157,5.306C8.001,5.337 7.839,5.321 7.692,5.26C7.546,5.199 7.42,5.096 7.332,4.964C7.244,4.832 7.196,4.677 7.196,4.518C7.196,4.305 7.281,4.1 7.432,3.95C7.582,3.799 7.787,3.714 8,3.714ZM10.143,12.353L5.857,12.353L5.857,11.147L7.397,11.147L7.397,8.067L6.393,8.067L6.393,6.862L8.603,6.862L8.603,11.147L10.143,11.147L10.143,12.353Z"/>
</svg>
