<svg id="information" viewBox="0 0 16 16" xmlns="http://www.w3.org/2000/svg">
  <path fill="var(--strib-icon-color, #0d0d0d)" fill-rule="evenodd" clip-rule="evenodd" d="M8.536,11.214L8.536,6.929L6.393,6.929L6.393,8L7.464,8L7.464,11.214L5.857,11.214L5.857,12.286L10.143,12.286L10.143,11.214L8.536,11.214ZM8,3.714C7.841,3.714 7.686,3.761 7.554,3.85C7.421,3.938 7.318,4.064 7.258,4.21C7.197,4.357 7.181,4.519 7.212,4.675C7.243,4.831 7.319,4.974 7.432,5.086C7.544,5.198 7.687,5.275 7.843,5.306C7.999,5.337 8.161,5.321 8.307,5.26C8.454,5.199 8.58,5.096 8.668,4.964C8.756,4.832 8.804,4.677 8.804,4.518C8.804,4.305 8.719,4.1 8.568,3.95C8.417,3.799 8.213,3.714 8,3.714Z"/>
  <path fill="var(--strib-icon-color, #0d0d0d)" fill-rule="evenodd" clip-rule="evenodd" d="M8,15.5C6.517,15.5 5.067,15.06 3.833,14.236C2.6,13.412 1.639,12.241 1.071,10.87C0.503,9.5 0.355,7.992 0.644,6.537C0.933,5.082 1.648,3.746 2.697,2.697C3.746,1.648 5.082,0.933 6.537,0.644C7.992,0.355 9.5,0.503 10.87,1.071C12.241,1.639 13.412,2.6 14.236,3.833C15.06,5.067 15.5,6.517 15.5,8C15.5,9.989 14.71,11.897 13.303,13.303C11.897,14.71 9.989,15.5 8,15.5ZM8,1.571C6.729,1.571 5.486,1.948 4.428,2.655C3.371,3.361 2.547,4.365 2.061,5.54C1.574,6.715 1.447,8.007 1.695,9.254C1.943,10.501 2.555,11.647 3.454,12.546C4.353,13.445 5.499,14.057 6.746,14.305C7.993,14.553 9.285,14.426 10.46,13.939C11.635,13.453 12.639,12.629 13.345,11.571C14.052,10.514 14.429,9.271 14.429,8C14.429,6.295 13.751,4.66 12.546,3.454C11.34,2.249 9.705,1.571 8,1.571Z"/>
</svg>
