<svg id="latest" viewBox="0 0 16 16" xmlns="http://www.w3.org/2000/svg">
  <path fill="var(--strib-icon-color, #0d0d0d)" fill-rule="evenodd" clip-rule="evenodd" d="M3.29,13.504C3.197,13.613 3.21,13.776 3.321,13.865C3.491,14.001 3.666,14.129 3.847,14.249C3.966,14.328 4.125,14.29 4.2,14.168L4.541,13.615C4.616,13.494 4.578,13.335 4.46,13.255C4.33,13.167 4.203,13.075 4.08,12.978C3.968,12.89 3.805,12.902 3.712,13.01L3.29,13.504ZM1.829,11.798C1.708,11.873 1.67,12.033 1.749,12.152C1.869,12.332 1.997,12.508 2.133,12.677C2.222,12.789 2.385,12.801 2.493,12.708L2.987,12.285C3.095,12.193 3.108,12.03 3.019,11.918C2.922,11.795 2.83,11.668 2.742,11.538C2.663,11.42 2.504,11.382 2.382,11.457L1.829,11.798ZM0.961,9.726C0.823,9.76 0.737,9.9 0.776,10.037C0.835,10.247 0.903,10.453 0.98,10.657C1.031,10.79 1.183,10.852 1.314,10.797L1.914,10.545C2.045,10.49 2.107,10.339 2.057,10.205C2.002,10.059 1.954,9.91 1.91,9.76C1.871,9.623 1.731,9.538 1.593,9.572L0.961,9.726ZM5.793,13.94C5.66,13.89 5.508,13.952 5.453,14.083L5.202,14.683C5.147,14.815 5.209,14.967 5.343,15.017C5.546,15.094 5.752,15.162 5.962,15.221C6.099,15.259 6.239,15.174 6.273,15.035L6.427,14.404C6.461,14.265 6.376,14.126 6.239,14.087C6.088,14.043 5.94,13.994 5.793,13.94ZM1.427,8.556C1.569,8.544 1.674,8.419 1.668,8.277C1.668,8.271 1.668,8.264 1.668,8.258C1.662,8.116 1.547,8 1.404,8L0.754,8C0.611,8 0.495,8.116 0.5,8.258C0.501,8.297 0.503,8.336 0.505,8.374C0.512,8.517 0.637,8.622 0.779,8.61L1.427,8.556ZM7.996,0.5C6.899,0.498 5.816,0.738 4.822,1.202C3.828,1.666 2.949,2.342 2.246,3.184L2.246,0.5L1.079,0.5L1.079,4.222C1.079,4.698 1.465,5.083 1.94,5.083L5.662,5.083L5.662,3.917L3.155,3.917C3.841,3.103 4.721,2.476 5.714,2.092C6.706,1.709 7.78,1.582 8.835,1.723C9.889,1.864 10.892,2.268 11.749,2.899C12.606,3.529 13.291,4.366 13.739,5.331C14.188,6.296 14.386,7.359 14.315,8.42C14.245,9.482 13.907,10.509 13.335,11.406C12.763,12.304 11.973,13.042 11.04,13.554C10.107,14.065 9.06,14.333 7.996,14.333C7.817,14.333 7.637,14.326 7.461,14.311L7.364,15.474C7.572,15.491 7.785,15.5 7.996,15.5C9.985,15.5 11.893,14.71 13.299,13.303C14.706,11.897 15.496,9.989 15.496,8C15.496,6.011 14.706,4.103 13.299,2.697C11.893,1.29 9.985,0.5 7.996,0.5Z"/>
  <path fill="var(--strib-icon-color, #0d0d0d)" fill-rule="evenodd" clip-rule="evenodd" d="M8.558,3.694L7.438,3.694L7.438,7.823C7.438,8.136 7.608,8.424 7.881,8.576L11.442,10.583L11.986,9.605L8.558,7.671L8.558,3.694Z"/>
</svg>
