<svg xmlns="http://www.w3.org/2000/svg" viewBox="0 0 22 22">
  <path class="st0" d="M20 12c.7-.3 1-.9 1-1.7 0-.5-.2-1-.5-1.3-.4-.4-.8-.5-1.3-.5h-4.4c-.2 0-.3-.1-.3-.2-.1-.1-.1-.3 0-.4 0 0 .1-.2.2-.5.1-.4.3-.8.4-1.4s.2-1.1.2-1.6c0-.9-.2-1.7-.7-2.4-.5-.7-1-1-1.5-1-.3 0-.6.1-.9.4-.2.2-.4.5-.4.9 0 1.3-.4 2.5-1.1 3.6-.8 1-2.3 2.3-4.7 3.9v8.7l4.3 2c.8.3 1.5.5 2.4.5h4.4c.5 0 1-.2 1.3-.5.4-.4.5-.8.5-1.3 0-.3-.1-.5-.2-.7.4-.1.8-.4 1-.8.3-.4.4-.8.4-1.2 0-.4-.1-.7-.3-1 .7-.3 1.1-.9 1.1-1.7.1-.8-.2-1.4-.9-1.8M4.4 8.9c0-.1 0-.2-.1-.3-.1-.1-.2-.1-.4-.1H1.4c-.1 0-.2 0-.3.1 0 .1-.1.2-.1.3v11.7c0 .1 0 .2.1.3.1.1.2.1.3.1h2.5c.1 0 .2 0 .3-.1s.2-.2.2-.3V8.9z"/>
</svg>
