<?xml version="1.0" encoding="utf-8"?>
<!-- Generator: Adobe Illustrator 26.3.1, SVG Export Plug-In . SVG Version: 6.00 Build 0)  -->
<svg version="1.1" id="noun-link-1880307" xmlns="http://www.w3.org/2000/svg" xmlns:xlink="http://www.w3.org/1999/xlink" x="0px"
	 y="0px" viewBox="0 0 24.5 24.6" style="enable-background:new 0 0 24.5 24.6;" xml:space="preserve">
<path id="Path_18" d="M22.4,2.2c-2.5-2.5-6.6-2.5-9.1,0c0,0,0,0,0,0L9.8,5.8c0.3,0,0.6,0,0.9,0c0.9,0,1.8,0.1,2.6,0.4l2-2
	c1.5-1.4,3.8-1.3,5.2,0.2c1.3,1.4,1.3,3.6,0,5l-4,4c-1.4,1.4-3.8,1.4-5.2,0c-0.3-0.3-0.6-0.7-0.8-1.2c-0.5,0-0.9,0.2-1.2,0.5l-1,1.1
	c1.7,3.1,5.6,4.3,8.7,2.6c0.5-0.3,1.1-0.7,1.5-1.1l4-4C24.9,8.8,24.9,4.7,22.4,2.2z"/>
<path id="Path_19" d="M13.9,18.9c-0.9,0-1.8-0.1-2.6-0.4l-2,2c-1.5,1.4-3.8,1.3-5.2-0.2c-1.3-1.4-1.3-3.6,0-5l4-4
	c1.4-1.4,3.8-1.4,5.2,0c0.3,0.3,0.6,0.7,0.8,1.2c0.5,0,0.9-0.2,1.2-0.5l1-1.1c-1.7-3.1-5.6-4.3-8.7-2.6C7,8.6,6.5,9,6.1,9.4l-4,4
	c-2.5,2.5-2.4,6.6,0.1,9.1c2.5,2.4,6.5,2.4,9,0l3.6-3.6C14.5,18.9,14.2,18.9,13.9,18.9L13.9,18.9z"/>
</svg>
