<svg xmlns="http://www.w3.org/2000/svg" viewBox="0 0 24.5 24.6">
  <path d="M22.4 2.2c-2.5-2.5-6.6-2.5-9.1 0L9.8 5.8h.9c.9 0 1.8.1 2.6.4l2-2c1.5-1.4 3.8-1.3 5.2.2 1.3 1.4 1.3 3.6 0 5l-4 4c-1.4 1.4-3.8 1.4-5.2 0-.3-.3-.6-.7-.8-1.2-.5 0-.9.2-1.2.5l-1 1.1c1.7 3.1 5.6 4.3 8.7 2.6.5-.3 1.1-.7 1.5-1.1l4-4c2.4-2.5 2.4-6.6-.1-9.1z"/>
  <path d="M13.9 18.9c-.9 0-1.8-.1-2.6-.4l-2 2c-1.5 1.4-3.8 1.3-5.2-.2-1.3-1.4-1.3-3.6 0-5l4-4c1.4-1.4 3.8-1.4 5.2 0 .3.3.6.7.8 1.2.5 0 .9-.2 1.2-.5l1-1.1c-1.7-3.1-5.6-4.3-8.7-2.6-.6.3-1.1.7-1.5 1.1l-4 4c-2.5 2.5-2.4 6.6.1 9.1 2.5 2.4 6.5 2.4 9 0l3.6-3.6h-.9z"/>
</svg>
