<svg id="link" viewBox="0 0 16 16" xmlns="http://www.w3.org/2000/svg">
  <path fill="var(--strib-icon-color, #0d0d0d)" fill-rule="evenodd" clip-rule="evenodd" d="M14.659,3.607C14.393,3.321 14.078,3.094 13.73,2.939C13.383,2.784 13.01,2.705 12.634,2.705C12.257,2.705 11.885,2.784 11.537,2.939C11.189,3.094 10.874,3.321 10.608,3.607L11.285,4.333C11.462,4.142 11.673,3.991 11.905,3.888C12.137,3.785 12.385,3.732 12.636,3.732C12.887,3.732 13.135,3.785 13.367,3.888C13.599,3.991 13.81,4.142 13.987,4.333C14.164,4.523 14.305,4.749 14.401,4.998C14.497,5.246 14.547,5.513 14.547,5.782C14.547,6.051 14.497,6.318 14.401,6.566C14.305,6.815 14.164,7.041 13.987,7.231L10.175,11.321C9.817,11.706 9.331,11.922 8.825,11.922C8.319,11.923 7.833,11.708 7.475,11.324C7.116,10.94 6.915,10.419 6.914,9.876C6.914,9.333 7.115,8.812 7.472,8.428L8.144,7.702L7.472,6.976L6.796,7.702C6.529,7.987 6.318,8.325 6.173,8.698C6.029,9.071 5.955,9.471 5.955,9.874C5.955,10.278 6.029,10.678 6.173,11.051C6.318,11.424 6.529,11.762 6.796,12.047C7.335,12.618 8.063,12.936 8.821,12.932C9.199,12.933 9.573,12.855 9.922,12.7C10.272,12.546 10.589,12.319 10.856,12.032L14.669,7.942C15.203,7.366 15.502,6.585 15.5,5.772C15.498,4.959 15.196,4.181 14.659,3.607Z"/>
  <path fill="var(--strib-icon-color, #0d0d0d)" fill-rule="evenodd" clip-rule="evenodd" d="M2.033,12.667C1.856,12.477 1.714,12.25 1.618,12.001C1.522,11.752 1.472,11.485 1.472,11.215C1.472,10.945 1.522,10.678 1.618,10.429C1.714,10.18 1.856,9.954 2.033,9.764L5.844,5.667C6.021,5.476 6.231,5.324 6.463,5.221C6.694,5.117 6.943,5.064 7.194,5.064C7.445,5.064 7.693,5.117 7.925,5.221C8.157,5.324 8.367,5.476 8.544,5.667C8.721,5.859 8.86,6.087 8.953,6.338C9.046,6.588 9.092,6.857 9.087,7.126C9.088,7.397 9.04,7.666 8.944,7.916C8.849,8.167 8.708,8.394 8.53,8.586L7.52,9.687L8.196,10.414L9.206,9.328C9.743,8.75 10.045,7.967 10.045,7.149C10.045,6.332 9.743,5.549 9.206,4.971C8.669,4.393 7.94,4.068 7.179,4.068C6.419,4.068 5.69,4.393 5.153,4.971L1.343,9.067C1.076,9.353 0.864,9.692 0.719,10.066C0.574,10.44 0.5,10.841 0.5,11.246C0.5,11.651 0.574,12.052 0.719,12.426C0.864,12.8 1.076,13.139 1.343,13.425C1.885,13.992 2.615,14.305 3.372,14.295C4.135,14.296 4.868,13.972 5.41,13.394L4.734,12.667C4.557,12.858 4.346,13.01 4.115,13.113C3.883,13.217 3.635,13.27 3.384,13.27C3.133,13.27 2.884,13.217 2.653,13.113C2.421,13.01 2.21,12.858 2.033,12.667Z"/>
</svg>
