<svg id="location" viewBox="0 0 16 16" xmlns="http://www.w3.org/2000/svg">
  <path fill="var(--strib-icon-color, #0d0d0d)" fill-rule="evenodd" clip-rule="evenodd" d="M8,9.071C7.47,9.071 6.952,8.914 6.512,8.62C6.071,8.326 5.728,7.907 5.525,7.418C5.323,6.928 5.27,6.39 5.373,5.87C5.476,5.351 5.731,4.873 6.106,4.499C6.481,4.124 6.958,3.869 7.477,3.766C7.997,3.662 8.536,3.715 9.025,3.918C9.514,4.121 9.933,4.464 10.227,4.905C10.521,5.345 10.679,5.863 10.679,6.393C10.678,7.103 10.395,7.784 9.893,8.286C9.391,8.788 8.71,9.071 8,9.071ZM8,4.786C7.682,4.786 7.371,4.88 7.107,5.057C6.843,5.233 6.637,5.484 6.515,5.778C6.394,6.071 6.362,6.395 6.424,6.706C6.486,7.018 6.639,7.305 6.864,7.529C7.088,7.754 7.375,7.907 7.686,7.969C7.998,8.031 8.321,7.999 8.615,7.878C8.909,7.756 9.16,7.55 9.336,7.286C9.513,7.021 9.607,6.711 9.607,6.393C9.607,5.967 9.437,5.558 9.136,5.257C8.835,4.956 8.426,4.786 8,4.786Z"/>
  <path fill="var(--strib-icon-color, #0d0d0d)" fill-rule="evenodd" clip-rule="evenodd" d="M8,15.5L3.481,10.17C3.418,10.09 3.356,10.01 3.294,9.929C2.522,8.912 2.105,7.67 2.107,6.393C2.107,4.83 2.728,3.331 3.833,2.226C4.938,1.121 6.437,0.5 8,0.5C9.563,0.5 11.062,1.121 12.167,2.226C13.272,3.331 13.893,4.83 13.893,6.393C13.895,7.669 13.478,8.91 12.706,9.927L12.706,9.929C12.706,9.929 12.545,10.14 12.521,10.168L8,15.5ZM4.149,9.283C4.15,9.283 4.275,9.448 4.303,9.483L8,13.844L11.702,9.477C11.725,9.448 11.851,9.282 11.851,9.281C12.482,8.451 12.823,7.436 12.821,6.393C12.821,5.114 12.313,3.888 11.409,2.984C10.505,2.079 9.279,1.571 8,1.571C6.721,1.571 5.495,2.079 4.591,2.984C3.687,3.888 3.179,5.114 3.179,6.393C3.177,7.437 3.518,8.452 4.149,9.283Z"/>
</svg>
