<svg id="location-filled" viewBox="0 0 16 16" xmlns="http://www.w3.org/2000/svg">
  <path fill="var(--strib-icon-color, #0d0d0d)" fill-rule="evenodd" clip-rule="evenodd" d="M7.5,0.5C5.938,0.502 4.44,1.123 3.335,2.228C2.23,3.333 1.609,4.831 1.607,6.393C1.605,7.67 2.022,8.912 2.794,9.929C2.794,9.929 2.955,10.14 2.981,10.171L7.5,15.5L12.021,10.168C12.044,10.14 12.206,9.929 12.206,9.929L12.206,9.927C12.978,8.91 13.395,7.669 13.393,6.393C13.391,4.831 12.77,3.333 11.665,2.228C10.56,1.123 9.062,0.502 7.5,0.5ZM7.5,8.536C7.076,8.536 6.662,8.41 6.309,8.175C5.957,7.939 5.682,7.604 5.52,7.213C5.358,6.821 5.316,6.39 5.398,5.975C5.481,5.559 5.685,5.177 5.985,4.878C6.284,4.578 6.666,4.374 7.082,4.291C7.498,4.208 7.928,4.251 8.32,4.413C8.712,4.575 9.046,4.85 9.282,5.202C9.517,5.555 9.643,5.969 9.643,6.393C9.642,6.961 9.416,7.506 9.014,7.907C8.613,8.309 8.068,8.535 7.5,8.536Z"/>
</svg>
