<svg id="lock-filled" viewBox="0 0 16 16" xmlns="http://www.w3.org/2000/svg">
  <path fill="var(--strib-icon-color, #0d0d0d)" fill-rule="evenodd" clip-rule="evenodd" d="M6.232,2.386C6.701,1.917 7.337,1.654 8,1.654C8.663,1.654 9.299,1.917 9.768,2.386C10.237,2.855 10.5,3.491 10.5,4.154L10.5,6.654L5.5,6.654L5.5,4.154C5.5,3.491 5.763,2.855 6.232,2.386ZM4.346,6.654L4.346,4.154C4.346,3.185 4.731,2.255 5.416,1.57C6.102,0.885 7.031,0.5 8,0.5C8.969,0.5 9.898,0.885 10.584,1.57C11.269,2.255 11.654,3.185 11.654,4.154L11.654,6.654L11.846,6.654C12.407,6.654 12.945,6.877 13.342,7.273C13.739,7.67 13.962,8.208 13.962,8.769L13.962,13.385C13.962,13.946 13.739,14.484 13.342,14.88C12.945,15.277 12.407,15.5 11.846,15.5L4.154,15.5C3.593,15.5 3.055,15.277 2.658,14.88C2.261,14.484 2.038,13.946 2.038,13.385L2.038,8.769C2.038,8.208 2.261,7.67 2.658,7.273C3.055,6.877 3.593,6.654 4.154,6.654L4.346,6.654ZM7.184,11.124C6.968,10.907 6.846,10.614 6.846,10.308C6.846,10.002 6.968,9.708 7.184,9.492C7.4,9.275 7.694,9.154 8,9.154C8.306,9.154 8.6,9.275 8.816,9.492C9.032,9.708 9.154,10.002 9.154,10.308C9.154,10.614 9.032,10.907 8.816,11.124C8.744,11.196 8.664,11.257 8.577,11.307L8.577,13L7.423,13L7.423,11.307C7.336,11.257 7.256,11.196 7.184,11.124Z"/>
</svg>
