<svg id="log-out" viewBox="0 0 16 16" xmlns="http://www.w3.org/2000/svg">
  <path fill="var(--strib-icon-color, #0d0d0d)" fill-rule="evenodd" clip-rule="evenodd" d="M12.882,5.106C12.871,5.095 12.855,5.089 12.839,5.089C12.823,5.089 12.808,5.095 12.797,5.106L11.94,5.963C11.916,5.987 11.916,6.025 11.94,6.049L13.225,7.334L5.143,7.334C5.11,7.334 5.083,7.361 5.083,7.394L5.083,8.606C5.083,8.639 5.11,8.666 5.143,8.666L13.225,8.666L11.94,9.952C11.916,9.975 11.916,10.014 11.94,10.037L12.797,10.894C12.808,10.905 12.823,10.912 12.839,10.912C12.856,10.912 12.871,10.905 12.882,10.894L15.306,8.47C15.366,8.41 15.415,8.337 15.449,8.255C15.552,8.006 15.495,7.72 15.305,7.529L12.882,5.106Z"/>
  <path fill="var(--strib-icon-color, #0d0d0d)" fill-rule="evenodd" clip-rule="evenodd" d="M1.106,0.934C0.771,0.934 0.5,1.205 0.5,1.54L0.5,14.46C0.5,14.795 0.771,15.066 1.106,15.066L9.989,15.066C10.323,15.066 10.594,14.795 10.594,14.46L10.594,11.028L9.383,11.028L9.383,13.855L1.711,13.855L1.711,2.145L9.383,2.145L9.383,4.972L10.594,4.972L10.594,1.54C10.594,1.205 10.323,0.934 9.989,0.934L1.106,0.934Z"/>
</svg>
