<svg id="log-in" viewBox="0 0 16 16" xmlns="http://www.w3.org/2000/svg">
  <path fill="var(--strib-icon-color, #0d0d0d)" fill-rule="evenodd" clip-rule="evenodd" d="M7.701,5.106C7.712,5.095 7.728,5.089 7.744,5.089C7.76,5.089 7.775,5.095 7.786,5.106L8.643,5.963C8.667,5.987 8.667,6.025 8.643,6.049L7.358,7.334L15.44,7.334C15.473,7.334 15.5,7.361 15.5,7.394L15.5,8.606C15.5,8.639 15.473,8.666 15.44,8.666L7.358,8.666L8.643,9.952C8.667,9.975 8.667,10.014 8.643,10.037L7.786,10.894C7.775,10.905 7.76,10.912 7.744,10.912C7.727,10.912 7.712,10.905 7.701,10.894L5.277,8.47C5.217,8.41 5.168,8.337 5.134,8.255C5.031,8.006 5.088,7.72 5.278,7.529L7.701,5.106Z"/>
  <path fill="var(--strib-icon-color, #0d0d0d)" fill-rule="evenodd" clip-rule="evenodd" d="M1.106,0.934C0.771,0.934 0.5,1.205 0.5,1.54L0.5,14.46C0.5,14.795 0.771,15.066 1.106,15.066L9.989,15.066C10.323,15.066 10.594,14.795 10.594,14.46L10.594,11.028L9.383,11.028L9.383,13.855L1.711,13.855L1.711,2.145L9.383,2.145L9.383,4.972L10.594,4.972L10.594,1.54C10.594,1.205 10.323,0.934 9.989,0.934L1.106,0.934Z"/>
</svg>
