<svg id="strib-log-out-left" viewBox="0 0 16 16" width="16" height="16" fill="currentcolor" class="strib-icon strib-log-out-left" xmlns="http://www.w3.org/2000/svg" clip-rule="evenodd" fill-rule="evenodd">
  <path d="M3.443 5.299a.06.06 0 0 1 .08 0l.799.8a.055.055 0 0 1 0 .08L3.123 7.378h7.543c.031 0 .056.026.056.056v1.132c0 .03-.025.056-.056.056H3.123l1.199 1.2a.054.054 0 0 1 0 .079l-.799.8a.06.06 0 0 1-.04.017.06.06 0 0 1-.04-.017L1.181 8.439a.62.62 0 0 1 .001-.879z"/>
  <path d="M14.434 1.405c.313 0 .566.253.566.566v12.058a.565.565 0 0 1-.566.566H6.143a.565.565 0 0 1-.564-.566v-3.203h1.13v2.639h7.161V2.535H6.709v2.639h-1.13V1.971c0-.313.253-.566.564-.566z"/>
</svg>