<svg id="mail" viewBox="0 0 16 16" xmlns="http://www.w3.org/2000/svg">
  <path fill="var(--strib-icon-color, #0d0d0d)" fill-rule="evenodd" clip-rule="evenodd" d="M14.429,2.643L1.571,2.643C1.287,2.643 1.015,2.756 0.814,2.957C0.613,3.158 0.5,3.43 0.5,3.714L0.5,12.286C0.5,12.57 0.613,12.842 0.814,13.043C1.015,13.244 1.287,13.357 1.571,13.357L14.429,13.357C14.713,13.357 14.985,13.244 15.186,13.043C15.387,12.842 15.5,12.57 15.5,12.286L15.5,3.714C15.5,3.43 15.387,3.158 15.186,2.957C14.985,2.756 14.713,2.643 14.429,2.643ZM13.25,3.714L8,7.346L2.75,3.714L13.25,3.714ZM1.571,12.286L1.571,4.202L7.695,8.439C7.784,8.502 7.891,8.535 8,8.535C8.109,8.535 8.216,8.502 8.305,8.439L14.429,4.202L14.429,12.286L1.571,12.286Z"/>
</svg>
