<svg id="strib-mail-filled" viewBox="0 0 16 16" width="16" height="16" fill="currentcolor" class="strib-icon strib-mail-filled" xmlns="http://www.w3.org/2000/svg" clip-rule="evenodd" fill-rule="evenodd">
  <path d="M8 8.499a.5.5 0 0 1-.285-.089M8 8.499l.285-.089M14 3H1.999A1.005 1.005 0 0 0 1 4v8c0 .548.451.999.999 1H14c.549 0 1-.451 1-1V4c0-.549-.451-1-1-1M7.715 8.41A.5.5 0 0 0 8 8.499m.285-.089L14 4.455m-1.758 0L8 7.39m.284 1.02a.5.5 0 0 1-.285.089m-.285-.089L1.999 4.455m1.758 0L7.999 7.39m-6-2.935h1.758m10.243 0h-1.758m-8.485 0L8 7.39l4.242-2.935H14L8.285 8.41l-.286.089-.285-.089-5.715-3.955z"/>
</svg>