<svg id="maximize" viewBox="0 0 16 16" xmlns="http://www.w3.org/2000/svg">
  <path fill="var(--strib-icon-color, #0d0d0d)" fill-rule="evenodd" clip-rule="evenodd" d="M1.064,0.5C0.752,0.5 0.5,0.752 0.5,1.064L0.5,5.095L1.627,5.095L1.627,1.627L5.095,1.627L5.095,0.5L1.064,0.5ZM14.936,0.5L10.905,0.5L10.905,1.627L14.373,1.627L14.373,5.095L15.5,5.095L15.5,1.064C15.5,0.752 15.248,0.5 14.936,0.5ZM15.5,10.905L15.5,14.936C15.5,15.248 15.248,15.5 14.936,15.5L10.905,15.5L10.905,14.373L14.373,14.373L14.373,10.905L15.5,10.905ZM1.627,14.373L1.627,10.905L0.5,10.905L0.5,14.936C0.5,15.248 0.752,15.5 1.064,15.5L5.095,15.5L5.095,14.373L1.627,14.373Z"/>
</svg>
