<?xml version="1.0" encoding="utf-8"?>
<!-- Generator: Adobe Illustrator 21.1.0, SVG Export Plug-In . SVG Version: 6.00 Build 0)  -->
<svg version="1.1" id="Layer_1" xmlns="http://www.w3.org/2000/svg" xmlns:xlink="http://www.w3.org/1999/xlink" x="0px" y="0px"
	 viewBox="0 0 22 16" style="enable-background:new 0 0 22 16;" xml:space="preserve">
<style type="text/css">
	.st0{fill:#231F20;}
</style>
<path class="st0" d="M21,1.6c0-0.2-0.1-0.4-0.3-0.4c-0.2-0.1-0.3,0-0.5,0.1L16,6V2.5c0-0.8-0.6-1.4-1.2-1.4H2.3C1.6,1.2,1,1.8,1,2.5
	v11c0,0.8,0.6,1.4,1.2,1.4h12.5c0.7,0,1.2-0.6,1.2-1.4V10l4.3,4.7c0.1,0.1,0.2,0.1,0.3,0.1h0.2c0.2-0.1,0.3-0.3,0.3-0.4V1.6z"/>
</svg>
