<svg id="menu-vertical" viewBox="0 0 16 16" xmlns="http://www.w3.org/2000/svg">
  <path fill="var(--strib-icon-color, #0d0d0d)" fill-rule="evenodd" clip-rule="evenodd" d="M8,3.5C8.828,3.5 9.5,2.828 9.5,2C9.5,1.172 8.828,0.5 8,0.5C7.172,0.5 6.5,1.172 6.5,2C6.5,2.828 7.172,3.5 8,3.5Z"/>
  <path fill="var(--strib-icon-color, #0d0d0d)" fill-rule="evenodd" clip-rule="evenodd" d="M8,9.5C8.828,9.5 9.5,8.828 9.5,8C9.5,7.172 8.828,6.5 8,6.5C7.172,6.5 6.5,7.172 6.5,8C6.5,8.828 7.172,9.5 8,9.5Z"/>
  <path fill="var(--strib-icon-color, #0d0d0d)" fill-rule="evenodd" clip-rule="evenodd" d="M8,15.5C8.828,15.5 9.5,14.828 9.5,14C9.5,13.172 8.828,12.5 8,12.5C7.172,12.5 6.5,13.172 6.5,14C6.5,14.828 7.172,15.5 8,15.5Z"/>
</svg>
