<svg id="microphone" viewBox="0 0 16 16" xmlns="http://www.w3.org/2000/svg">
  <path fill="var(--strib-icon-color, #0d0d0d)" fill-rule="evenodd" clip-rule="evenodd" d="M11.75,6.929L11.75,8.536C11.75,9.53 11.355,10.484 10.652,11.187C9.948,11.891 8.995,12.286 8,12.286C7.005,12.286 6.052,11.891 5.348,11.187C4.645,10.484 4.25,9.53 4.25,8.536L4.25,6.929L3.179,6.929L3.179,8.536C3.179,9.721 3.616,10.865 4.407,11.749C5.198,12.632 6.286,13.193 7.464,13.325L7.464,14.429L5.321,14.429L5.321,15.5L10.679,15.5L10.679,14.429L8.536,14.429L8.536,13.325C9.714,13.193 10.802,12.632 11.593,11.749C12.383,10.865 12.821,9.721 12.821,8.536L12.821,6.929L11.75,6.929Z"/>
  <path fill="var(--strib-icon-color, #0d0d0d)" fill-rule="evenodd" clip-rule="evenodd" d="M8,11.214C8.71,11.214 9.392,10.932 9.894,10.43C10.396,9.927 10.679,9.246 10.679,8.536L10.679,3.179C10.679,2.468 10.396,1.787 9.894,1.285C9.392,0.782 8.71,0.5 8,0.5C7.29,0.5 6.608,0.782 6.106,1.285C5.604,1.787 5.321,2.468 5.321,3.179L5.321,8.536C5.321,9.246 5.604,9.927 6.106,10.43C6.608,10.932 7.29,11.214 8,11.214ZM6.393,3.179C6.393,2.752 6.562,2.344 6.864,2.042C7.165,1.741 7.574,1.571 8,1.571C8.426,1.571 8.835,1.741 9.136,2.042C9.438,2.344 9.607,2.752 9.607,3.179L9.607,8.536C9.607,8.962 9.438,9.371 9.136,9.672C8.835,9.973 8.426,10.143 8,10.143C7.574,10.143 7.165,9.973 6.864,9.672C6.562,9.371 6.393,8.962 6.393,8.536L6.393,3.179Z"/>
</svg>
