<svg id="strib-microphone-mute-filled" viewBox="0 0 16 16" width="16" height="16" fill="currentColor" class="strib-icon strib-microphone-mute-filled" xmlns="http://www.w3.org/2000/svg" fill-rule="evenodd" clip-rule="evenodd">
  <path d="M11.5 8.5A3.517 3.517 0 0 1 8 11.99c-.875 0-1.72-.329-2.365-.92l.71-.705A2.5 2.5 0 0 0 8 10.991 2.51 2.51 0 0 0 10.5 8.5V6.21l4.5-4.5-.705-.71L1 14.295l.705.705 3.22-3.22A4.45 4.45 0 0 0 7.5 12.97V14h-2v1h5v-1h-2v-1.03a4.517 4.517 0 0 0 4-4.47V7h-1zm-7 .16V7h-1v1.5q0 .53.125 1.045zm5.88-5.87a2.51 2.51 0 0 0-2.381-1.737A2.51 2.51 0 0 0 5.5 3.5v4.17z"/>
</svg>