<svg id="strib-microphone-mute" viewBox="0 0 16 16" width="16" height="16" fill="currentColor" class="strib-icon strib-microphone-mute" xmlns="http://www.w3.org/2000/svg" fill-rule="evenodd" clip-rule="evenodd">
  <path d="M4.605 9.311a3.7 3.7 0 0 1-.089-.781V7.036h-.995V8.53c-.002.54.095 1.076.288 1.582zm1.902-1.777V3.551A1.5 1.5 0 0 1 8 2.058a1.5 1.5 0 0 1 1.493 1.493v.872l.996-.996A2.5 2.5 0 0 0 8 1a2.5 2.5 0 0 0-2.489 2.489v4.045zm4.977.996A3.5 3.5 0 0 1 8 12.004a3.48 3.48 0 0 1-2.354-.917l.707-.701c.454.401 1.04.623 1.647.623a2.5 2.5 0 0 0 2.489-2.479V6.25l4.479-4.48-.701-.707L1.032 14.298l.701.702 3.206-3.205a4.43 4.43 0 0 0 2.563 1.184v1.025H5.511V15h4.978v-.996H8.498v-1.025a4.496 4.496 0 0 0 3.981-4.449V7.036h-.995zm-1.991 0A1.5 1.5 0 0 1 8 10.016c-.345 0-.679-.119-.946-.337l2.439-2.434z"/>
</svg>