<svg id="minimize" viewBox="0 0 16 16" xmlns="http://www.w3.org/2000/svg">
  <path fill="var(--strib-icon-color, #0d0d0d)" fill-rule="evenodd" clip-rule="evenodd" d="M5.626,5.038L5.626,0.5L4.45,0.5L4.45,4.45L0.5,4.45L0.5,5.626L5.038,5.626C5.363,5.626 5.626,5.363 5.626,5.038ZM5.038,10.374L0.5,10.374L0.5,11.551L4.45,11.551L4.45,15.5L5.626,15.5L5.626,10.962C5.626,10.637 5.363,10.374 5.038,10.374ZM10.374,10.962C10.374,10.637 10.637,10.374 10.962,10.374L15.5,10.374L15.5,11.551L11.55,11.551L11.55,15.5L10.374,15.5L10.374,10.962ZM11.55,4.45L11.55,0.5L10.374,0.5L10.374,5.038C10.374,5.363 10.637,5.626 10.962,5.626L15.5,5.626L15.5,4.45L11.55,4.45Z"/>
</svg>
