<svg id="news" viewBox="0 0 16 16" xmlns="http://www.w3.org/2000/svg">
  <path fill="var(--strib-icon-color, #0d0d0d)" fill-rule="evenodd" clip-rule="evenodd" d="M0.5,1.064C0.5,0.752 0.752,0.5 1.064,0.5L11.468,0.5C11.779,0.5 12.032,0.752 12.032,1.064L12.032,2.234L14.763,2.234C14.976,2.234 15.134,2.332 15.195,2.372C15.234,2.398 15.266,2.424 15.288,2.443C15.3,2.453 15.309,2.461 15.317,2.469L15.327,2.478L15.334,2.485C15.334,2.485 15.335,2.486 14.936,2.884L15.335,2.486C15.441,2.592 15.5,2.735 15.5,2.884L15.5,14.763C15.5,14.976 15.402,15.134 15.362,15.195C15.336,15.234 15.31,15.266 15.291,15.288L15.281,15.3C15.275,15.306 15.27,15.312 15.265,15.317L15.249,15.334C15.249,15.334 15.248,15.335 14.85,14.936L15.248,15.335C15.143,15.441 14.999,15.5 14.85,15.5L2.971,15.5C1.619,15.5 0.5,14.381 0.5,13.029L0.5,1.064ZM12.032,12.595L12.032,3.361L14.373,3.361L14.373,14.373L13.809,14.373C12.82,14.373 12.032,13.585 12.032,12.595ZM10.905,1.627L10.905,12.595C10.905,13.267 11.129,13.883 11.507,14.373L2.971,14.373C2.242,14.373 1.627,13.758 1.627,13.029L1.627,1.627L10.905,1.627ZM8.564,3.968L3.968,3.968L3.968,5.095L8.564,5.095L8.564,3.968ZM3.968,7.436L8.564,7.436L8.564,8.564L3.968,8.564L3.968,7.436ZM8.564,10.905L3.968,10.905L3.968,12.032L8.564,12.032L8.564,10.905Z"/>
</svg>
