<svg id="notification-off" viewBox="0 0 16 16" xmlns="http://www.w3.org/2000/svg">
  <path fill="var(--strib-icon-color, #0d0d0d)" fill-rule="evenodd" clip-rule="evenodd" d="M13.129,8.62L13.129,6.78C13.129,5.977 12.939,5.186 12.574,4.471L15.181,1.863L14.456,1.138L0.819,14.775L1.544,15.5L4.622,12.422L5.435,12.422L5.435,12.935C5.435,13.616 5.706,14.268 6.187,14.749C6.667,15.23 7.32,15.5 8,15.5C8.68,15.5 9.333,15.23 9.814,14.749C10.294,14.268 10.565,13.616 10.565,12.935L10.565,12.422L14.155,12.422C14.291,12.422 14.422,12.368 14.518,12.272C14.614,12.176 14.668,12.046 14.668,11.909L14.668,10.371C14.668,10.235 14.614,10.104 14.518,10.008L13.129,8.62ZM9.539,12.935C9.539,13.343 9.377,13.735 9.088,14.023C8.799,14.312 8.408,14.474 8,14.474C7.592,14.474 7.201,14.312 6.912,14.023C6.623,13.735 6.461,13.343 6.461,12.935L6.461,12.422L9.539,12.422L9.539,12.935ZM13.642,11.397L5.648,11.397L11.802,5.242C12.001,5.731 12.103,6.253 12.103,6.78L12.103,8.832C12.103,8.968 12.158,9.098 12.254,9.195L13.642,10.583L13.642,11.397ZM3.746,9.195C3.842,9.098 3.897,8.968 3.897,8.832L3.897,6.78C3.898,5.692 4.331,4.649 5.1,3.88C5.869,3.111 6.912,2.678 8,2.677C8.931,2.677 9.834,2.997 10.557,3.584L11.289,2.852C10.503,2.189 9.536,1.779 8.513,1.677L8.513,0.625L7.487,0.625L7.487,1.677C6.222,1.805 5.051,2.398 4.198,3.341C3.345,4.284 2.872,5.509 2.871,6.78L2.871,8.62L1.332,10.158L2.057,10.884L3.746,9.195Z"/>
</svg>
