<svg id="notification-filled" viewBox="0 0 16 16" xmlns="http://www.w3.org/2000/svg">
  <path fill="var(--strib-icon-color, #0d0d0d)" fill-rule="evenodd" clip-rule="evenodd" d="M14.573,9.962L13.172,8.562L13.172,6.707C13.171,5.425 12.694,4.189 11.834,3.239C10.974,2.288 9.792,1.69 8.517,1.56L8.517,0.5L7.483,0.5L7.483,1.56C6.208,1.69 5.026,2.288 4.166,3.239C3.306,4.189 2.829,5.425 2.828,6.707L2.828,8.562L1.427,9.962C1.33,10.059 1.276,10.19 1.276,10.328L1.276,11.879C1.276,12.016 1.33,12.148 1.427,12.245C1.524,12.342 1.656,12.397 1.793,12.397L5.414,12.397L5.414,12.914C5.414,13.6 5.686,14.258 6.171,14.742C6.656,15.228 7.314,15.5 8,15.5C8.686,15.5 9.344,15.228 9.829,14.742C10.314,14.258 10.586,13.6 10.586,12.914L10.586,12.397L14.207,12.397C14.344,12.397 14.476,12.342 14.573,12.245C14.67,12.148 14.724,12.016 14.724,11.879L14.724,10.328C14.724,10.19 14.67,10.059 14.573,9.962ZM9.552,12.914C9.552,13.325 9.388,13.72 9.097,14.011C8.806,14.302 8.412,14.466 8,14.466C7.588,14.466 7.194,14.302 6.903,14.011C6.612,13.72 6.448,13.325 6.448,12.914L6.448,12.397L9.552,12.397L9.552,12.914Z"/>
</svg>
