<svg id="notification-off-filled" viewBox="0 0 16 16" xmlns="http://www.w3.org/2000/svg">
  <path fill="var(--strib-icon-color, #0d0d0d)" fill-rule="evenodd" clip-rule="evenodd" d="M13.179,8.562L13.179,6.705C13.178,5.895 12.985,5.097 12.616,4.376L15.25,1.741L14.518,1.009L0.75,14.777L1.482,15.509L4.589,12.402L5.411,12.402L5.411,12.92C5.411,14.34 6.58,15.509 8,15.509C9.42,15.509 10.589,14.34 10.589,12.92L10.589,12.402L14.214,12.402C14.498,12.402 14.732,12.168 14.732,11.884L14.732,10.33C14.732,10.193 14.678,10.061 14.58,9.964L13.179,8.562ZM9.554,12.92C9.554,13.772 8.852,14.473 8,14.473C7.148,14.473 6.446,13.772 6.446,12.92L6.446,12.402L9.554,12.402L9.554,12.92Z"/>
  <path fill="var(--strib-icon-color, #0d0d0d)" fill-rule="evenodd" clip-rule="evenodd" d="M10.905,2.427C10.195,1.94 9.374,1.64 8.518,1.553L8.518,0.491L7.482,0.491L7.482,1.553C4.851,1.821 2.825,4.061 2.821,6.705L2.821,8.562L1.42,9.964C1.322,10.061 1.268,10.193 1.268,10.33L1.268,11.884C1.27,11.935 1.28,11.986 1.298,12.034L10.905,2.427Z"/>
</svg>
