<svg id="notification-new" viewBox="0 0 16 16" xmlns="http://www.w3.org/2000/svg">
  <path fill="var(--strib-icon-color, #0d0d0d)" fill-rule="evenodd" clip-rule="evenodd" d="M12.914,8.562L12.914,7.224L11.879,7.224L11.879,8.776C11.879,8.913 11.934,9.045 12.031,9.142L13.431,10.542L13.431,11.362L2.052,11.362L2.052,10.542L3.452,9.142C3.549,9.045 3.603,8.913 3.603,8.776L3.603,6.707C3.602,5.98 3.792,5.266 4.155,4.636C4.518,4.006 5.041,3.484 5.671,3.121C6.3,2.758 7.015,2.567 7.742,2.569C8.468,2.57 9.182,2.763 9.81,3.129L9.81,1.973C9.318,1.755 8.794,1.616 8.259,1.561L8.259,0.5L7.224,0.5L7.224,1.56C5.949,1.69 4.767,2.288 3.907,3.239C3.047,4.189 2.571,5.425 2.569,6.707L2.569,8.562L1.169,9.962C1.072,10.059 1.017,10.19 1.017,10.328L1.017,11.879C1.017,12.016 1.072,12.148 1.169,12.245C1.266,12.342 1.397,12.397 1.534,12.397L5.155,12.397L5.155,12.914C5.155,13.6 5.428,14.258 5.913,14.742C6.398,15.228 7.055,15.5 7.741,15.5C8.427,15.5 9.085,15.228 9.57,14.742C10.055,14.258 10.328,13.6 10.328,12.914L10.328,12.397L13.948,12.397C14.085,12.397 14.217,12.342 14.314,12.245C14.411,12.148 14.466,12.016 14.466,11.879L14.466,10.328C14.466,10.19 14.411,10.059 14.314,9.962L12.914,8.562ZM9.293,12.914C9.293,13.325 9.13,13.72 8.839,14.011C8.548,14.302 8.153,14.466 7.741,14.466C7.33,14.466 6.935,14.302 6.644,14.011C6.353,13.72 6.19,13.325 6.19,12.914L6.19,12.397L9.293,12.397L9.293,12.914Z"/>
  <path fill="var(--strib-icon-color, #0d0d0d)" fill-rule="evenodd" clip-rule="evenodd" d="M12.914,6.19C14.056,6.19 14.983,5.263 14.983,4.121C14.983,2.978 14.056,2.052 12.914,2.052C11.771,2.052 10.845,2.978 10.845,4.121C10.845,5.263 11.771,6.19 12.914,6.19Z"/>
</svg>
