<svg id="notification" viewBox="0 0 16 16" xmlns="http://www.w3.org/2000/svg">
  <path fill="var(--strib-icon-color, #0d0d0d)" fill-rule="evenodd" clip-rule="evenodd" d="M14.598,9.998L13.192,8.593L13.192,6.731C13.191,5.444 12.712,4.204 11.849,3.249C10.986,2.295 9.799,1.695 8.519,1.564L8.519,0.5L7.481,0.5L7.481,1.564C6.201,1.695 5.014,2.295 4.151,3.249C3.288,4.204 2.809,5.444 2.808,6.731L2.808,8.593L1.402,9.998C1.305,10.096 1.25,10.228 1.25,10.365L1.25,11.923C1.25,12.061 1.305,12.193 1.402,12.29C1.499,12.388 1.632,12.442 1.769,12.442L5.404,12.442L5.404,12.846C5.393,13.504 5.625,14.144 6.056,14.642C6.487,15.14 7.087,15.462 7.74,15.545C8.101,15.581 8.466,15.541 8.81,15.427C9.155,15.314 9.472,15.13 9.741,14.886C10.01,14.643 10.225,14.346 10.372,14.014C10.519,13.683 10.596,13.324 10.596,12.962L10.596,12.442L14.231,12.442C14.368,12.442 14.501,12.388 14.598,12.29C14.695,12.193 14.75,12.061 14.75,11.923L14.75,10.365C14.75,10.228 14.695,10.096 14.598,9.998ZM9.558,12.962C9.558,13.375 9.394,13.771 9.101,14.063C8.809,14.355 8.413,14.519 8,14.519C7.587,14.519 7.191,14.355 6.899,14.063C6.606,13.771 6.442,13.375 6.442,12.962L6.442,12.442L9.558,12.442L9.558,12.962ZM13.712,11.404L2.288,11.404L2.288,10.58L3.694,9.175C3.791,9.077 3.846,8.945 3.846,8.808L3.846,6.731C3.846,5.629 4.284,4.573 5.063,3.794C5.842,3.015 6.898,2.577 8,2.577C9.102,2.577 10.158,3.015 10.937,3.794C11.716,4.573 12.154,5.629 12.154,6.731L12.154,8.808C12.154,8.945 12.209,9.077 12.306,9.175L13.712,10.58L13.712,11.404Z"/>
</svg>
