<svg id="pause" viewBox="0 0 16 16" xmlns="http://www.w3.org/2000/svg">
  <path fill="var(--strib-icon-color, #0d0d0d)" fill-rule="evenodd" clip-rule="evenodd" d="M2,0.35C1.641,0.35 1.35,0.641 1.35,1L1.35,15C1.35,15.359 1.641,15.65 2,15.65L6,15.65C6.359,15.65 6.65,15.359 6.65,15L6.65,1C6.65,0.641 6.359,0.35 6,0.35L2,0.35ZM2.65,14.35L2.65,1.65L5.35,1.65L5.35,14.35L2.65,14.35ZM10,0.35C9.641,0.35 9.35,0.641 9.35,1L9.35,15C9.35,15.359 9.641,15.65 10,15.65L14,15.65C14.359,15.65 14.65,15.359 14.65,15L14.65,1C14.65,0.641 14.359,0.35 14,0.35L10,0.35ZM10.65,14.35L10.65,1.65L13.35,1.65L13.35,14.35L10.65,14.35Z"/>
</svg>
