<svg id="pause-filled" viewBox="0 0 16 16" xmlns="http://www.w3.org/2000/svg">
  <path fill="var(--strib-icon-color, #0d0d0d)" fill-rule="evenodd" clip-rule="evenodd" d="M1.95,0.35L5.95,0.35C6.35,0.35 6.55,0.55 6.55,0.95L6.55,14.95C6.55,15.35 6.35,15.65 5.95,15.65L1.95,15.65C1.65,15.65 1.35,15.35 1.35,14.95L1.35,0.95C1.35,0.55 1.55,0.35 1.95,0.35ZM9.95,0.35L13.95,0.35C14.35,0.35 14.65,0.55 14.65,0.95L14.65,14.95C14.65,15.35 14.35,15.65 13.95,15.65L9.95,15.65C9.55,15.65 9.25,15.35 9.25,14.95L9.25,0.95C9.25,0.65 9.55,0.35 9.95,0.35Z"/>
</svg>
