<?xml version="1.0" encoding="utf-8"?>
<!-- Generator: Adobe Illustrator 21.1.0, SVG Export Plug-In . SVG Version: 6.00 Build 0)  -->
<svg version="1.1" id="Layer_1" xmlns="http://www.w3.org/2000/svg" xmlns:xlink="http://www.w3.org/1999/xlink" x="0px" y="0px"
	 viewBox="0 0 27.3 27.3" style="enable-background:new 0 0 27.3 27.3;" xml:space="preserve">
<path class="st2" d="M24.9,4c0-0.1-0.1-0.2-0.2-0.3l-5.9-2.4c-0.3-0.1-0.5,0-0.6,0.3l-3.3,6.6c-0.1,0.2-0.1,0.4,0.1,0.6l3.2,3.2
					c-1.7,2.7-3.9,4.9-6.5,6.5l-3.2-3.2c-0.2-0.2-0.4-0.2-0.6-0.1l-6.6,3.3C1,18.6,1,18.8,1,19.1L3.4,25c0.1,0.1,0.2,0.2,0.3,0.3
					c0,0,0.1,0,0.2,0s0.1,0,0.2,0c5.4-0.7,10.1-3,14-6.9s6.2-8.6,6.9-14c0-0.1,0-0.1,0-0.2C24.9,4.2,24.9,4.1,24.9,4"/>
</svg>
