<svg id="phone-filled" viewBox="0 0 16 16" xmlns="http://www.w3.org/2000/svg">
  <path fill="var(--strib-icon-color, #0d0d0d)" fill-rule="evenodd" clip-rule="evenodd" d="M13.77,15.494L13.672,15.494C2.339,14.843 0.73,5.281 0.505,2.363C0.487,2.136 0.514,1.908 0.584,1.691C0.655,1.475 0.767,1.274 0.915,1.101C1.063,0.928 1.243,0.786 1.446,0.683C1.649,0.58 1.87,0.517 2.097,0.5L5.275,0.5C5.506,0.5 5.732,0.569 5.923,0.698C6.114,0.828 6.262,1.012 6.348,1.227L7.224,3.384C7.309,3.593 7.33,3.823 7.284,4.045C7.239,4.266 7.13,4.469 6.97,4.629L5.742,5.869C5.934,6.96 6.456,7.965 7.238,8.749C8.02,9.533 9.024,10.057 10.113,10.252L11.365,9.012C11.527,8.854 11.733,8.748 11.955,8.706C12.178,8.664 12.408,8.688 12.616,8.776L14.791,9.647C15.002,9.735 15.182,9.884 15.309,10.075C15.435,10.266 15.502,10.49 15.5,10.719L15.5,13.764C15.5,14.223 15.318,14.663 14.993,14.988C14.669,15.312 14.229,15.494 13.77,15.494Z"/>
</svg>
