<?xml version="1.0" encoding="utf-8"?>
<!-- Generator: Adobe Illustrator 21.1.0, SVG Export Plug-In . SVG Version: 6.00 Build 0)  -->
<svg version="1.1" id="Layer_1" xmlns="http://www.w3.org/2000/svg" xmlns:xlink="http://www.w3.org/1999/xlink" x="0px" y="0px"
	 viewBox="0 0 26 26" style="enable-background:new 0 0 26 26;" xml:space="preserve">
<path d="M24.9,3.7c0-0.1-0.1-0.2-0.2-0.3L18.8,1c-0.3-0.1-0.5,0-0.6,0.3l-3.3,6.6c-0.1,0.2-0.1,0.4,0.1,0.6l3.2,3.2
	c-1.7,2.7-3.9,4.9-6.5,6.5L8.5,15c-0.2-0.2-0.4-0.2-0.6-0.1l-6.6,3.3C1,18.3,1,18.5,1,18.8l2.4,5.9L3.7,25h0.4
	c5.4-0.7,10.1-3,14-6.9s6.2-8.6,6.9-14V3.9C24.9,3.9,24.9,3.8,24.9,3.7"/>
</svg>
