<?xml version="1.0" encoding="utf-8"?>
<!-- Generator: Adobe Illustrator 21.1.0, SVG Export Plug-In . SVG Version: 6.00 Build 0)  -->
<svg version="1.1" id="Layer_1" xmlns="http://www.w3.org/2000/svg" xmlns:xlink="http://www.w3.org/1999/xlink" x="0px" y="0px"
	 viewBox="0 0 8 12" style="enable-background:new 0 0 8 12;" xml:space="preserve">
<path d="M6.3,8.8H1.8V2.3h4.6V8.8z M4,10.8c-0.4,0-0.7-0.3-0.7-0.7S3.7,9.4,4,9.4s0.7,0.3,0.7,0.7C4.8,10.5,4.4,10.8,4,10.8
	 M6.7,0.5H1.3c-0.4,0-0.7,0.3-0.7,0.7v9.6c0,0.4,0.3,0.7,0.7,0.7h5.5c0.4,0,0.7-0.3,0.7-0.7V1.2C7.5,0.8,7.2,0.5,6.7,0.5"/>
</svg>
