<svg id="photo" viewBox="0 0 16 16" xmlns="http://www.w3.org/2000/svg">
  <path fill="var(--strib-icon-color, #0d0d0d)" fill-rule="evenodd" clip-rule="evenodd" d="M10.293,5.94C10.894,5.94 11.381,5.453 11.381,4.852C11.381,4.251 10.894,3.764 10.293,3.764C9.692,3.764 9.205,4.251 9.205,4.852C9.205,5.453 9.692,5.94 10.293,5.94Z"/>
  <path fill="var(--strib-icon-color, #0d0d0d)" fill-rule="evenodd" clip-rule="evenodd" d="M14.956,0.5L0.966,0.5C0.655,0.5 0.5,0.655 0.5,0.966L0.5,14.956C0.5,15.267 0.733,15.5 0.966,15.5L14.956,15.5C15.267,15.5 15.5,15.267 15.5,14.956L15.5,0.966C15.5,0.655 15.267,0.5 14.956,0.5ZM14.412,1.433L14.412,9.826L12.935,8.35C12.003,7.495 10.837,7.495 9.904,8.35L9.516,8.816L7.573,6.873C6.64,6.018 5.474,6.018 4.541,6.873L1.51,9.904L1.51,1.433L14.412,1.433ZM1.433,14.49L1.433,11.225L5.163,7.495C5.707,6.951 6.251,7.028 6.795,7.495L10.681,11.381L11.381,10.681L10.215,9.516L10.604,9.127C11.148,8.583 11.692,8.583 12.236,9.127L14.412,11.303L14.412,14.49L1.433,14.49Z"/>
</svg>
