<svg id="strib-photo-filled" viewBox="0 0 16 16" width="16" height="16" fill="currentcolor" class="strib-icon strib-photo-filled" xmlns="http://www.w3.org/2000/svg" clip-rule="evenodd" fill-rule="evenodd">
  <path d="M1 5.058h8.125v.004a1.02 1.02 0 0 0 1.016 1.015 1.02 1.02 0 0 0 1.015-1.015v-.004H15v9.447a.497.497 0 0 1-.495.495H1.435C1.217 15 1 14.783 1 14.492zm9.067 4.357.363-.363q.762-.762 1.524 0L14 11.098V9.719l-1.394-1.392c-.87-.798-1.958-.798-2.829 0l-.362.435-1.814-1.814c-.87-.798-1.959-.798-2.829 0L2 9.72v1.161l3.352-3.352c.508-.508 1.016-.436 1.523 0l3.625 3.625.656-.652zM15 5.058h-3.844a1.02 1.02 0 0 0-1.015-1.011 1.02 1.02 0 0 0-1.016 1.011H1V1.435Q1 1 1.435 1h13.057c.291 0 .508.145.508.435z"/>
</svg>