<svg id="pinned" viewBox="0 0 16 16" xmlns="http://www.w3.org/2000/svg">
  <path fill="var(--strib-icon-color, #0d0d0d)" fill-rule="evenodd" clip-rule="evenodd" d="M15.063,4.624L11.375,0.937C10.793,0.354 9.845,0.354 9.262,0.937C8.452,1.747 8.024,2.841 8.064,3.978L7.044,4.998C5.388,4.513 3.586,4.782 2.15,5.745C1.788,5.988 1.557,6.378 1.514,6.817C1.47,7.267 1.628,7.709 1.948,8.029L4.543,10.624L0.683,14.484C0.439,14.728 0.439,15.124 0.683,15.368C0.805,15.49 0.965,15.551 1.125,15.551C1.285,15.551 1.445,15.49 1.567,15.368L5.427,11.508L7.971,14.052C8.256,14.336 8.637,14.493 9.035,14.493C9.084,14.493 9.134,14.49 9.184,14.486C9.622,14.443 10.012,14.211 10.254,13.85C11.217,12.413 11.486,10.611 11.002,8.955L12.022,7.935C13.164,7.976 14.253,7.548 15.063,6.738C15.645,6.155 15.646,5.208 15.063,4.624L15.063,4.624ZM14.179,5.854C13.565,6.468 12.715,6.765 11.85,6.67C11.662,6.649 11.474,6.715 11.34,6.849L9.845,8.343C9.673,8.516 9.617,8.773 9.701,9.002C10.213,10.385 10.032,11.936 9.216,13.153C9.173,13.217 9.108,13.237 9.062,13.241C9.025,13.247 8.933,13.245 8.855,13.168L2.832,7.145C2.755,7.068 2.754,6.974 2.758,6.938C2.763,6.892 2.782,6.827 2.847,6.784C3.607,6.274 4.497,6.012 5.396,6.012C5.936,6.012 6.479,6.107 6.997,6.299C7.226,6.383 7.483,6.327 7.656,6.154L9.15,4.66C9.284,4.526 9.35,4.339 9.329,4.15C9.234,3.284 9.532,2.435 10.145,1.821C10.24,1.726 10.395,1.725 10.49,1.821L14.178,5.509C14.274,5.604 14.274,5.759 14.178,5.854L14.179,5.854Z"/>
</svg>
