<svg id="strib-pinned-filled" viewBox="0 0 16 16" width="16" height="16" fill="currentColor" class="strib-icon strib-pinned-filled" xmlns="http://www.w3.org/2000/svg" fill-rule="evenodd" clip-rule="evenodd">
  <path d="m14.57 4.836-3.431-3.429a1.39 1.39 0 0 0-1.965 0A3.8 3.8 0 0 0 8.06 4.235l-.949.949a5.44 5.44 0 0 0-4.552.695 1.35 1.35 0 0 0-.592.997c-.041.419.106.83.404 1.127l2.414 2.414-3.591 3.591a.581.581 0 1 0 .822.822l3.591-3.591 2.366 2.367a1.4 1.4 0 0 0 1.128.403 1.35 1.35 0 0 0 .996-.591 5.45 5.45 0 0 0 .695-4.553l.949-.949a3.8 3.8 0 0 0 2.829-1.113 1.394 1.394 0 0 0 0-1.967"/>
</svg>