<svg id="pinned-filled" viewBox="0 0 16 16" xmlns="http://www.w3.org/2000/svg">
  <path fill="var(--strib-icon-color, #0d0d0d)" fill-rule="evenodd" clip-rule="evenodd" d="M15.063,4.624L11.375,0.937C10.793,0.354 9.845,0.354 9.262,0.937C8.452,1.747 8.024,2.841 8.064,3.978L7.044,4.998C5.388,4.513 3.586,4.782 2.15,5.745C1.788,5.988 1.557,6.378 1.514,6.817C1.47,7.267 1.628,7.709 1.948,8.029L4.543,10.624L0.683,14.484C0.439,14.728 0.439,15.124 0.683,15.368C0.805,15.49 0.965,15.551 1.125,15.551C1.285,15.551 1.445,15.49 1.567,15.368L5.427,11.508L7.971,14.052C8.256,14.336 8.637,14.493 9.035,14.493C9.084,14.493 9.134,14.49 9.184,14.486C9.622,14.443 10.012,14.211 10.254,13.85C11.217,12.413 11.486,10.611 11.002,8.955L12.022,7.935C13.164,7.976 14.253,7.548 15.063,6.738C15.645,6.155 15.646,5.208 15.063,4.624L15.063,4.624Z"/>
</svg>
