<svg id="play-filled" viewBox="0 0 16 16" xmlns="http://www.w3.org/2000/svg">
  <path fill="var(--strib-icon-color, #0d0d0d)" fill-rule="evenodd" clip-rule="evenodd" d="M1.75,15.5C1.584,15.5 1.425,15.434 1.308,15.317C1.191,15.2 1.125,15.041 1.125,14.875L1.125,1.125C1.125,1.016 1.153,0.91 1.207,0.815C1.261,0.721 1.339,0.642 1.432,0.587C1.526,0.532 1.632,0.502 1.74,0.5C1.849,0.499 1.956,0.525 2.051,0.578L14.551,7.453C14.649,7.506 14.731,7.586 14.788,7.682C14.845,7.778 14.875,7.888 14.875,8C14.875,8.112 14.845,8.222 14.788,8.318C14.731,8.414 14.649,8.494 14.551,8.548L2.051,15.423C1.959,15.473 1.855,15.5 1.75,15.5Z"/>
</svg>
