<svg xmlns="http://www.w3.org/2000/svg" viewBox="0 0 30 30">
  <path d="M12.5 3.3c-.2-.1-.5 0-.6.1L5.8 9.5H1.5c-.1 0-.2 0-.4.1-.1.1-.1.2-.1.4v9c0 .1 0 .2.1.4.1.1.2.1.4.1h4.3l6.1 6.1c.1.1.4.2.6.1.2-.1.4-.2.4-.5V3.8c0-.3-.2-.4-.4-.5m9.9 14.6c.6-2.2.6-4.3 0-6.5s-1.7-4.1-3.3-5.7c-.2-.2-.5-.2-.7 0l-1.6 1.6c-.2.2-.2.5 0 .7 1.9 1.9 2.7 4.1 2.7 6.5s-.9 4.8-2.7 6.5c-.2.2-.2.5 0 .9l1.6 1.6c.2.2.5.2.7 0 1.5-1.6 2.7-3.5 3.3-5.6"/>
  <path d="M23.5 28c2.5-2.5 4.1-5.3 4.9-8.5.9-3.2.9-6.5 0-9.8-.9-3.2-2.5-6.1-4.9-8.5-.2-.2-.5-.2-.7 0l-1.6 1.6c-.2.2-.2.5 0 .7 2 2 3.3 4.3 4.1 7 .7 2.7.7 5.3 0 8s-2.1 5.1-4.1 7c-.2.2-.2.5 0 .9l1.6 1.6c.1.2.4.2.7 0"/>
</svg>
