<?xml version="1.0" encoding="utf-8"?>
<!-- Generator: Adobe Illustrator 22.1.0, SVG Export Plug-In . SVG Version: 6.00 Build 0)  -->
<svg version="1.1" id="Layer_1" xmlns="http://www.w3.org/2000/svg" xmlns:xlink="http://www.w3.org/1999/xlink" x="0px" y="0px"
	 viewBox="0 0 30 30" style="enable-background:new 0 0 30 30;" xml:space="preserve">
<path d="M12.5,3.3c-0.2-0.1-0.5,0-0.6,0.1L5.8,9.5H1.5c-0.1,0-0.2,0-0.4,0.1C1,9.7,1,9.8,1,10v9c0,0.1,0,0.2,0.1,0.4
	c0.1,0.1,0.2,0.1,0.4,0.1h4.3l6.1,6.1c0.1,0.1,0.4,0.2,0.6,0.1c0.2-0.1,0.4-0.2,0.4-0.5V3.8C12.9,3.5,12.7,3.4,12.5,3.3"/>
<path d="M22.4,17.9c0.6-2.2,0.6-4.3,0-6.5c-0.6-2.2-1.7-4.1-3.3-5.7c-0.2-0.2-0.5-0.2-0.7,0l-1.6,1.6c-0.2,0.2-0.2,0.5,0,0.7
	c1.9,1.9,2.7,4.1,2.7,6.5s-0.9,4.8-2.7,6.5c-0.2,0.2-0.2,0.5,0,0.9l1.6,1.6c0.2,0.2,0.5,0.2,0.7,0C20.6,21.9,21.8,20,22.4,17.9"/>
<path d="M23.5,28c2.5-2.5,4.1-5.3,4.9-8.5c0.9-3.2,0.9-6.5,0-9.8c-0.9-3.2-2.5-6.1-4.9-8.5c-0.2-0.2-0.5-0.2-0.7,0l-1.6,1.6
	c-0.2,0.2-0.2,0.5,0,0.7c2,2,3.3,4.3,4.1,7c0.7,2.7,0.7,5.3,0,8c-0.7,2.7-2.1,5.1-4.1,7c-0.2,0.2-0.2,0.5,0,0.9l1.6,1.6
	C22.9,28.2,23.2,28.2,23.5,28"/>
</svg>
