<?xml version="1.0" encoding="utf-8"?>
<!-- Generator: Adobe Illustrator 21.1.0, SVG Export Plug-In . SVG Version: 6.00 Build 0)  -->
<svg version="1.1" id="Layer_1" xmlns="http://www.w3.org/2000/svg" xmlns:xlink="http://www.w3.org/1999/xlink" x="0px" y="0px"
	 viewBox="0 0 35 31" style="enable-background:new 0 0 35 31;" xml:space="preserve">
<style type="text/css">
	.st0{fill:#231F20;}
</style>
<path class="st0" d="M9.3,15.5h16.4v13.3c0,0.3-0.3,0.6-0.7,0.6H10c-0.4,0-0.7-0.3-0.7-0.6C9.3,28.8,9.3,15.5,9.3,15.5z M27.7,8.5
	c-1.1,0-2-0.8-2-1.7s0.9-1.7,2-1.7s2,0.8,2,1.7C29.7,7.7,28.9,8.5,27.7,8.5 M31.8,1.6H3.2c-1.1,0-2,0.8-2,1.7v13.9
	c0,1,0.9,1.7,2,1.7h3.4v-5.8h21.8V19h3.4c1.1,0,2-0.8,2-1.7v-14C33.9,2.4,33,1.6,31.8,1.6"/>
</svg>
