<svg id="print" viewBox="0 0 16 16" xmlns="http://www.w3.org/2000/svg">
  <path fill="var(--strib-icon-color, #0d0d0d)" fill-rule="evenodd" clip-rule="evenodd" d="M0.5,4.512L4.011,4.512L4.011,0.5L11.99,0.5L11.99,4.512L15.5,4.512L15.5,12.992L11.99,12.992L11.99,15.5L4.011,15.5L4.011,12.992L0.5,12.992L0.5,4.512ZM14.542,12.035L11.99,12.035L11.99,10.485L13.517,10.485L13.517,9.527L2.484,9.527L2.484,10.485L4.011,10.485L4.011,12.035L1.458,12.035L1.458,5.47L14.542,5.47L14.542,12.035ZM4.969,10.485L11.032,10.485L11.032,14.542L4.969,14.542L4.969,10.485ZM4.969,1.458L11.032,1.458L11.032,4.512L4.969,4.512L4.969,1.458Z"/>
</svg>
