<svg id="recently-viewed" viewBox="0 0 22 22" xmlns="http://www.w3.org/2000/svg">
  <path fill="var(--strib-icon-color, #0d0d0d)" d="M14.443,15.5L10.25,11.307L10.25,4.25L11.75,4.25L11.75,10.685L15.5,14.443L14.443,15.5Z"/>
  <path fill="var(--strib-icon-color, #0d0d0d)" d="M11,0.5C8.175,0.501 5.468,1.646 3.5,3.673L3.5,0.5L2,0.5L2,6.5L8,6.5L8,5L4.31,5C6.016,3.104 8.45,2.02 11,2.02C15.937,2.02 20,6.083 20,11.02C20,15.958 15.937,20.02 11,20.02C6.063,20.02 2,15.958 2,11.02C2,11.014 2,11.007 2,11L0.5,11C0.5,16.76 5.24,21.5 11,21.5C16.76,21.5 21.5,16.76 21.5,11C21.5,5.24 16.76,0.5 11,0.5Z"/>
</svg>
