<svg id="recently-viewed" viewBox="0 0 16 16" xmlns="http://www.w3.org/2000/svg">
    <path fill="var(--strib-icon-color, #0d0d0d)" d="M10.152,10.812L7.531,8.192L7.531,3.781L8.469,3.781L8.469,7.803L10.812,10.152L10.152,10.812Z"/>
    <path fill="var(--strib-icon-color, #0d0d0d)" d="M8,1.438C6.234,1.438 4.542,2.154 3.312,3.42L3.312,1.438L2.375,1.438L2.375,5.187L6.125,5.187L6.125,4.25L3.819,4.25C4.885,3.065 6.406,2.388 8,2.388C11.086,2.388 13.625,4.927 13.625,8.013C13.625,11.098 11.086,13.638 8,13.638C4.914,13.638 2.375,11.098 2.375,8.013C2.375,8.008 2.375,8.004 2.375,8L1.438,8C1.438,11.6 4.4,14.562 8,14.562C11.6,14.562 14.562,11.6 14.562,8C14.562,4.4 11.6,1.438 8,1.438Z"/>
</svg>
