<svg id="redo" viewBox="0 0 16 16" xmlns="http://www.w3.org/2000/svg">
  <path fill="var(--strib-icon-color, #0d0d0d)" fill-rule="evenodd" clip-rule="evenodd" d="M5.5,4.563L13.116,4.563L10.874,2.321L11.75,1.438L15.5,5.188L11.75,8.938L10.874,8.053L13.114,5.813L5.5,5.813C4.505,5.813 3.552,6.208 2.848,6.911C2.145,7.614 1.75,8.568 1.75,9.563C1.75,10.557 2.145,11.511 2.848,12.214C3.552,12.917 4.505,13.313 5.5,13.313L10.5,13.313L10.5,14.563L5.5,14.563C4.174,14.563 2.902,14.036 1.964,13.098C1.027,12.16 0.5,10.889 0.5,9.563C0.5,8.236 1.027,6.965 1.964,6.027C2.902,5.089 4.174,4.563 5.5,4.563Z"/>
</svg>
