<svg id="refresh" viewBox="0 0 20 20" xmlns="http://www.w3.org/2000/svg">
  <path fill="var(--strib-icon-color, #0d0d0d)" d="M7 5.50003H3.08501C4.05502 4.00927 5.48082 2.8719 7.14987 2.25746C8.81892 1.64302 10.6419 1.58441 12.3469 2.09037C14.052 2.59633 15.5479 3.63976 16.6117 5.06512C17.6755 6.49049 18.2501 8.22147 18.25 10H19.75C19.7521 7.99415 19.1354 6.03644 17.9841 4.39386C16.8328 2.75128 15.2029 1.50377 13.3166 0.821432C11.4304 0.139096 9.37956 0.0551479 7.44384 0.581033C5.50812 1.10692 3.78171 2.21704 2.50001 3.76003V1.00003H1.00001V7.00003H7V5.50003ZM13 14.5H16.915C15.945 15.9908 14.5192 17.1282 12.8501 17.7426C11.1811 18.357 9.35816 18.4156 7.65308 17.9097C5.948 17.4037 4.45209 16.3603 3.38832 14.9349C2.32455 13.5096 1.74989 11.7786 1.75001 10H0.250005C0.24794 12.0059 0.864601 13.9636 2.0159 15.6062C3.1672 17.2488 4.79711 18.4963 6.68337 19.1786C8.56964 19.861 10.6204 19.9449 12.5562 19.419C14.4919 18.8931 16.2183 17.783 17.5 16.24V19H19V13H13V14.5Z"/>
</svg>
