<svg id="refresh" viewBox="0 0 16 16" xmlns="http://www.w3.org/2000/svg">
    <path fill="var(--strib-icon-color, #0d0d0d)" d="M5.695,4.542L2.686,4.542C3.855,2.746 5.857,1.66 8,1.66C11.478,1.66 14.34,4.522 14.34,8C14.34,8 14.34,8 14.34,8L15.492,8C15.492,7.997 15.492,7.995 15.492,7.992C15.492,3.882 12.11,0.5 8,0.5C5.774,0.5 3.659,1.492 2.237,3.205L2.237,1.084L1.084,1.084L1.084,5.695L5.695,5.695L5.695,4.542Z"/>
    <path fill="var(--strib-icon-color, #0d0d0d)" d="M10.305,11.458L13.314,11.458C12.145,13.254 10.143,14.34 8,14.34C4.522,14.34 1.66,11.478 1.66,8C1.66,8 1.66,8 1.66,8L0.508,8C0.508,8.003 0.508,8.005 0.508,8.008C0.508,12.118 3.89,15.5 8,15.5C10.226,15.5 12.341,14.508 13.763,12.795L13.763,14.916L14.916,14.916L14.916,10.305L10.305,10.305L10.305,11.458Z"/>
</svg>
