<svg id="reply" viewBox="0 0 16 16" xmlns="http://www.w3.org/2000/svg">
  <path fill="var(--strib-icon-color, #0d0d0d)" fill-rule="evenodd" clip-rule="evenodd" d="M14.919,15C14.827,15.001 14.736,14.978 14.656,14.932C14.576,14.887 14.509,14.821 14.463,14.741C13.772,13.564 12.788,12.587 11.606,11.905C10.425,11.224 9.086,10.861 7.722,10.852L7.722,13.963C7.721,14.065 7.69,14.165 7.633,14.25C7.576,14.335 7.495,14.401 7.4,14.44C7.306,14.48 7.202,14.49 7.101,14.471C7.001,14.452 6.908,14.403 6.835,14.331L0.612,8.108C0.564,8.06 0.525,8.003 0.499,7.94C0.473,7.876 0.459,7.809 0.459,7.74C0.459,7.672 0.473,7.604 0.499,7.541C0.525,7.478 0.564,7.42 0.612,7.372L6.835,1.149C6.908,1.077 7.001,1.029 7.101,1.009C7.202,0.99 7.306,1.001 7.4,1.041C7.495,1.079 7.576,1.146 7.633,1.23C7.69,1.315 7.721,1.415 7.722,1.518L7.722,4.686C9.867,4.962 11.839,6.008 13.27,7.63C14.701,9.251 15.494,11.338 15.5,13.501C15.499,13.848 15.476,14.194 15.433,14.538C15.42,14.646 15.373,14.747 15.3,14.827C15.226,14.907 15.129,14.962 15.023,14.984L14.919,15ZM7.463,9.814C8.785,9.795 10.096,10.064 11.305,10.601C12.513,11.138 13.591,11.931 14.463,12.926C14.307,11.045 13.486,9.281 12.147,7.95C10.808,6.62 9.039,5.81 7.157,5.666C7.027,5.654 6.907,5.595 6.82,5.499C6.732,5.403 6.684,5.277 6.685,5.147L6.685,2.767L1.712,7.74L6.685,12.713L6.685,10.333C6.685,10.195 6.739,10.064 6.837,9.966C6.934,9.869 7.066,9.814 7.203,9.814L7.483,9.814L7.463,9.814Z"/>
</svg>
