<svg id="strib-reply-filled" viewBox="0 0 16 16" width="16" height="16" fill="currentcolor" class="strib-icon strib-reply-filled" xmlns="http://www.w3.org/2000/svg" clip-rule="evenodd" fill-rule="evenodd">
  <path d="M14.459 14.516a.49.49 0 0 1-.424-.242 7.34 7.34 0 0 0-6.275-3.619v2.895a.48.48 0 0 1-.299.444.48.48 0 0 1-.526-.101L1.142 8.101A.5.5 0 0 1 1 7.758a.5.5 0 0 1 .142-.343l5.793-5.792a.482.482 0 0 1 .742.076.5.5 0 0 1 .083.268v2.948A8.3 8.3 0 0 1 15 13.12a8 8 0 0 1-.062.966.49.49 0 0 1-.382.415z"/>
</svg>