<svg id="reply-all" viewBox="0 0 16 16" xmlns="http://www.w3.org/2000/svg">
  <path fill="var(--strib-icon-color, #0d0d0d)" fill-rule="evenodd" clip-rule="evenodd" d="M9.5,14.5C9.427,14.5 9.354,14.484 9.288,14.452C9.222,14.421 9.163,14.376 9.116,14.32L4.116,8.32C4.041,8.23 4,8.117 4,8C4,7.883 4.041,7.77 4.116,7.68L9.116,1.68C9.182,1.601 9.27,1.544 9.37,1.517C9.469,1.491 9.574,1.495 9.67,1.53C9.767,1.565 9.85,1.629 9.909,1.713C9.968,1.797 10,1.897 10,2L10,5.516C13.504,5.747 15.5,8.446 15.5,13C15.5,13.105 15.467,13.207 15.406,13.292C15.344,13.377 15.258,13.441 15.158,13.474C15.059,13.507 14.951,13.508 14.851,13.477C14.751,13.446 14.663,13.384 14.6,13.3C13.189,11.419 11.905,10.627 10,10.514L10,14C10,14.132 9.947,14.259 9.854,14.353C9.76,14.447 9.633,14.5 9.5,14.5ZM5.151,8L9,12.619L9,10C9,9.867 9.053,9.74 9.147,9.646C9.24,9.552 9.367,9.5 9.5,9.5C10.419,9.464 11.335,9.629 12.185,9.982C13.034,10.335 13.797,10.868 14.421,11.545C14.043,8.278 12.33,6.5 9.5,6.5C9.367,6.5 9.24,6.447 9.147,6.353C9.053,6.26 9,6.132 9,6L9,3.381L5.151,8Z"/>
  <path fill="var(--strib-icon-color, #0d0d0d)" fill-rule="evenodd" clip-rule="evenodd" d="M5.732,14.459L0.616,8.32C0.541,8.23 0.5,8.117 0.5,8C0.5,7.883 0.541,7.77 0.616,7.68L5.732,1.54L6.5,2.18L1.651,8L6.5,13.819L5.732,14.459Z"/>
</svg>
