<?xml version="1.0" encoding="utf-8"?>
<!-- Generator: Adobe Illustrator 21.1.0, SVG Export Plug-In . SVG Version: 6.00 Build 0)  -->
<svg version="1.1" id="Layer_1" xmlns="http://www.w3.org/2000/svg" xmlns:xlink="http://www.w3.org/1999/xlink" x="0px" y="0px"
	 viewBox="0 0 25 22" style="enable-background:new 0 0 25 22;" xml:space="preserve">
<style type="text/css">
	.st0{fill:#231F20;}
</style>
<path class="st0" d="M12.5,5.3H21v4.2h-8.5V5.3z M5.9,1.1c-0.1,0-0.3,0-0.3,0.1C5.5,1.3,5.4,1.4,5.4,1.6v16c0,0.3-0.1,0.5-0.3,0.7
	c-0.2,0.2-0.4,0.3-0.7,0.3c-0.3,0-0.5-0.1-0.7-0.3c-0.1-0.2-0.2-0.4-0.2-0.7V3.9H1.7C1.5,3.9,1.4,4,1.3,4.1c-0.1,0-0.1,0.2-0.1,0.3
	v13.7c0,0.8,0.3,1.5,0.8,2c0.6,0.6,1.2,0.8,2,0.8h17c0.8,0,1.5-0.3,2-0.8c0.6-0.5,0.8-1.2,0.8-2V1.6c0-0.1,0-0.3-0.1-0.3
	c-0.1-0.1-0.2-0.1-0.3-0.1L5.9,1.1L5.9,1.1z"/>
</svg>
