<svg id="rewind-15" viewBox="0 0 16 16" xmlns="http://www.w3.org/2000/svg">
  <path fill="var(--strib-icon-color, #0d0d0d)" fill-rule="evenodd" clip-rule="evenodd" d="M4.3,1.243L2.401,3.141L10.019,3.141C12.975,3.141 15.391,5.557 15.391,8.513C15.391,11.468 12.975,13.884 10.019,13.884L9.494,13.884L9.494,12.834L10.019,12.834C12.395,12.834 14.341,10.888 14.341,8.513C14.341,6.137 12.395,4.191 10.019,4.191L2.401,4.191L4.3,6.089L3.557,6.832L0.763,4.037C0.557,3.832 0.557,3.5 0.763,3.295L3.557,0.5L4.3,1.243ZM2.467,15.5L2.467,9.603L1.417,9.603L1.417,15.5L2.467,15.5ZM4.365,9.603C4.075,9.603 3.84,9.838 3.84,10.128L3.84,12.552C3.84,12.842 4.075,13.077 4.365,13.077L5.576,13.077C5.933,13.077 6.263,13.407 6.263,13.763C6.263,14.119 5.933,14.45 5.576,14.45L3.799,14.45L3.799,15.5L5.576,15.5C6.513,15.5 7.313,14.699 7.313,13.763C7.313,12.827 6.513,12.027 5.576,12.027L4.89,12.027L4.89,10.653L7.111,10.653L7.111,9.603L4.365,9.603Z"/>
</svg>
