<?xml version="1.0" encoding="utf-8"?>
<!-- Generator: Adobe Illustrator 26.1.0, SVG Export Plug-In . SVG Version: 6.00 Build 0)  -->
<svg version="1.1" id="Layer_1" xmlns="http://www.w3.org/2000/svg" xmlns:xlink="http://www.w3.org/1999/xlink" x="0px" y="0px"
	 viewBox="0 0 54.9 72.4" style="enable-background:new 0 0 54.9 72.4;" xml:space="preserve">
<g id="Layer_2_00000031179638768932111190000011118707435273303211_">
	<g id="Layer_1-2">
		<path d="M48.3,6.4v57.1L30.5,48.7L27.3,46l-3.2,2.7L6.3,63.5V6.4H48.3 M50.8,1.4h-47c-1.4,0-2.5,1.1-2.5,2.5v64.9
			c0,1.4,1.1,2.5,2.5,2.5c0.6,0,1.2-0.2,1.6-0.6l21.9-18.3l21.9,18.3c1.1,0.9,2.6,0.7,3.5-0.3c0.4-0.4,0.6-1,0.6-1.6V3.9
			C53.3,2.6,52.2,1.4,50.8,1.4z"/>
	</g>
</g>
</svg>
