<svg id="search-menu" viewBox="0 0 16 16" xmlns="http://www.w3.org/2000/svg">
  <path fill="var(--strib-icon-color, #0d0d0d)" fill-rule="evenodd" clip-rule="evenodd" d="M9.809,2.554C7.777,2.554 6.13,4.202 6.13,6.234C6.13,8.266 7.777,9.913 9.809,9.913C10.639,9.913 11.405,9.639 12.02,9.176L14.769,11.924L15.5,11.193L12.751,8.445C13.214,7.829 13.489,7.063 13.489,6.234C13.489,4.202 11.842,2.554 9.809,2.554ZM7.003,6.234C7.003,4.684 8.26,3.428 9.809,3.428C11.359,3.428 12.615,4.684 12.615,6.234C12.615,7.783 11.359,9.04 9.809,9.04C8.26,9.04 7.003,7.783 7.003,6.234ZM4.547,3.663L0.5,3.663L0.5,4.697L4.547,4.697L4.547,3.663ZM4.547,6.655L0.5,6.655L0.5,7.689L4.547,7.689L4.547,6.655ZM4.547,9.456L0.5,9.456L0.5,10.49L4.547,10.49L4.547,9.456ZM10.509,12.412L0.5,12.412L0.5,13.446L10.509,13.446L10.509,12.412Z"/>
</svg>
