<?xml version="1.0" encoding="utf-8"?>
<!-- Generator: Adobe Illustrator 21.1.0, SVG Export Plug-In . SVG Version: 6.00 Build 0)  -->
<svg version="1.1" id="Layer_1" xmlns="http://www.w3.org/2000/svg" xmlns:xlink="http://www.w3.org/1999/xlink" x="0px" y="0px"
	 viewBox="0 0 12.8 12.8" style="enable-background:new 0 0 12.8 12.8;" xml:space="preserve">
<path d="M7.9,7.9c-1.6,0-3-1.3-3-3s1.3-3,3-3s3,1.3,3,3S9.5,7.9,7.9,7.9 M7.9,0.4c-2.5,0-4.4,2-4.4,4.5c0,0.9,0.2,1.7,0.7,2.4
	l-3.4,3.4c-0.4,0.4-0.4,1,0,1.4c0.2,0.2,0.4,0.3,0.7,0.3c0.2,0,0.5-0.1,0.7-0.3l3.3-3.4C6.2,9.1,7,9.4,7.9,9.4c2.5,0,4.4-2,4.4-4.5
	S10.4,0.4,7.9,0.4"/>
</svg>
