<svg id="search" viewBox="0 0 16 16" xmlns="http://www.w3.org/2000/svg">
  <path fill="var(--strib-icon-color, #0d0d0d)" fill-rule="evenodd" clip-rule="evenodd" d="M15.5,14.716L11.31,10.525C12.317,9.317 12.819,7.766 12.712,6.197C12.605,4.627 11.897,3.159 10.735,2.099C9.573,1.038 8.047,0.466 6.474,0.502C4.901,0.537 3.403,1.178 2.29,2.29C1.178,3.403 0.537,4.901 0.502,6.474C0.466,8.047 1.038,9.573 2.099,10.735C3.159,11.897 4.627,12.605 6.197,12.712C7.766,12.819 9.317,12.317 10.525,11.31L14.716,15.5L15.5,14.716ZM1.629,6.623C1.629,5.635 1.922,4.67 2.471,3.849C3.02,3.028 3.8,2.388 4.712,2.01C5.624,1.632 6.628,1.533 7.597,1.725C8.566,1.918 9.455,2.394 10.154,3.092C10.852,3.79 11.328,4.68 11.52,5.649C11.713,6.617 11.614,7.621 11.236,8.534C10.858,9.446 10.218,10.226 9.397,10.775C8.576,11.323 7.61,11.616 6.623,11.616C5.299,11.615 4.03,11.088 3.094,10.152C2.158,9.216 1.631,7.947 1.629,6.623Z"/>
</svg>
