<svg id="section" viewBox="0 0 16 16" xmlns="http://www.w3.org/2000/svg">
  <path fill="var(--strib-icon-color, #0d0d0d)" fill-rule="evenodd" clip-rule="evenodd" d="M1.5,6.167L1.5,1.5L6.167,1.5L6.167,6.167L1.5,6.167ZM0.5,1.333C0.5,0.873 0.873,0.5 1.333,0.5L6.333,0.5C6.794,0.5 7.167,0.873 7.167,1.333L7.167,6.333C7.167,6.794 6.794,7.167 6.333,7.167L1.333,7.167C0.873,7.167 0.5,6.794 0.5,6.333L0.5,1.333ZM9.833,6.167L9.833,1.5L14.5,1.5L14.5,6.167L9.833,6.167ZM8.833,1.333C8.833,0.873 9.206,0.5 9.667,0.5L14.667,0.5C15.127,0.5 15.5,0.873 15.5,1.333L15.5,6.333C15.5,6.794 15.127,7.167 14.667,7.167L9.667,7.167C9.206,7.167 8.833,6.794 8.833,6.333L8.833,1.333ZM1.5,9.833L1.5,14.5L6.167,14.5L6.167,9.833L1.5,9.833ZM1.333,8.833C0.873,8.833 0.5,9.206 0.5,9.667L0.5,14.667C0.5,15.127 0.873,15.5 1.333,15.5L6.333,15.5C6.794,15.5 7.167,15.127 7.167,14.667L7.167,9.667C7.167,9.206 6.794,8.833 6.333,8.833L1.333,8.833ZM9.833,14.5L9.833,9.833L14.5,9.833L14.5,14.5L9.833,14.5ZM8.833,9.667C8.833,9.206 9.206,8.833 9.667,8.833L14.667,8.833C15.127,8.833 15.5,9.206 15.5,9.667L15.5,14.667C15.5,15.127 15.127,15.5 14.667,15.5L9.667,15.5C9.206,15.5 8.833,15.127 8.833,14.667L8.833,9.667Z"/>
</svg>
