<svg id="send" viewBox="0 0 16 16" xmlns="http://www.w3.org/2000/svg">
  <path fill="var(--strib-icon-color, #0d0d0d)" fill-rule="evenodd" clip-rule="evenodd" d="M15.327,0.681C15.243,0.597 15.136,0.539 15.02,0.514C14.904,0.488 14.783,0.496 14.671,0.537L0.924,5.536C0.806,5.581 0.703,5.661 0.631,5.766C0.559,5.87 0.521,5.994 0.521,6.12C0.521,6.247 0.559,6.371 0.631,6.475C0.703,6.58 0.806,6.66 0.924,6.705L6.923,9.104L9.322,15.103C9.367,15.216 9.445,15.314 9.544,15.384C9.644,15.454 9.763,15.493 9.885,15.496C10.011,15.494 10.133,15.453 10.236,15.379C10.339,15.306 10.416,15.203 10.459,15.084L15.458,1.337C15.501,1.227 15.511,1.106 15.488,0.99C15.465,0.874 15.409,0.767 15.327,0.681ZM9.885,13.122L8.141,8.748L11.134,5.755L10.253,4.874L7.235,7.892L2.886,6.124L13.84,2.168L9.885,13.122Z"/>
</svg>
