<svg id="send-filled" viewBox="0 0 16 16" xmlns="http://www.w3.org/2000/svg">
  <path fill="var(--strib-icon-color, #0d0d0d)" fill-rule="evenodd" clip-rule="evenodd" d="M15.32,0.681C15.236,0.597 15.129,0.539 15.013,0.514C14.897,0.488 14.776,0.496 14.664,0.537L0.914,5.537C0.795,5.582 0.693,5.662 0.621,5.767C0.549,5.871 0.51,5.995 0.51,6.122C0.51,6.249 0.549,6.372 0.621,6.477C0.693,6.581 0.795,6.661 0.914,6.706L6.283,8.85L10.245,4.875L11.126,5.756L7.145,9.737L9.295,15.106C9.341,15.223 9.422,15.322 9.525,15.392C9.629,15.463 9.751,15.5 9.876,15.5C10.003,15.497 10.125,15.457 10.228,15.383C10.33,15.309 10.408,15.206 10.451,15.087L15.451,1.337C15.494,1.227 15.504,1.106 15.481,0.99C15.458,0.874 15.402,0.767 15.32,0.681Z"/>
</svg>
