<svg id="settings-filled" viewBox="0 0 16 16" xmlns="http://www.w3.org/2000/svg">
  <path fill="var(--strib-icon-color, #0d0d0d)" fill-rule="evenodd" clip-rule="evenodd" d="M13.907,7.586L13.907,8.408L14.922,9.338C15.11,9.502 15.234,9.726 15.274,9.972C15.314,10.218 15.268,10.471 15.142,10.686L13.918,12.835C13.823,12.998 13.688,13.134 13.525,13.228C13.362,13.322 13.177,13.372 12.988,13.372C12.871,13.373 12.755,13.355 12.644,13.319L11.344,12.878C11.117,13.028 10.88,13.162 10.635,13.281L10.361,14.635C10.312,14.882 10.177,15.104 9.981,15.262C9.785,15.421 9.539,15.505 9.287,15.5L6.751,15.5C6.499,15.505 6.253,15.421 6.056,15.262C5.86,15.104 5.725,14.882 5.676,14.635L5.402,13.281C5.159,13.162 4.924,13.028 4.699,12.878L3.393,13.319C3.282,13.355 3.166,13.373 3.049,13.372C2.861,13.372 2.676,13.322 2.513,13.228C2.35,13.134 2.214,12.998 2.12,12.835L0.852,10.686C0.721,10.469 0.671,10.212 0.711,9.961C0.752,9.71 0.88,9.482 1.072,9.316L2.088,8.414L2.088,7.592L1.072,6.662C0.885,6.498 0.76,6.274 0.72,6.028C0.68,5.782 0.727,5.529 0.852,5.314L2.12,3.165C2.214,3.002 2.35,2.866 2.513,2.772C2.676,2.678 2.861,2.628 3.049,2.628C3.165,2.62 3.281,2.631 3.393,2.66L4.672,3.122C4.899,2.972 5.136,2.837 5.381,2.719L5.655,1.365C5.704,1.118 5.839,0.896 6.035,0.737C6.231,0.579 6.477,0.495 6.729,0.5L9.244,0.5C9.496,0.495 9.742,0.579 9.938,0.737C10.134,0.896 10.269,1.118 10.318,1.365L10.592,2.719C10.835,2.838 11.07,2.972 11.296,3.122L12.601,2.681C12.712,2.645 12.828,2.627 12.945,2.628C13.134,2.628 13.319,2.678 13.482,2.772C13.645,2.866 13.78,3.002 13.875,3.165L15.142,5.314C15.275,5.53 15.328,5.785 15.291,6.036C15.253,6.287 15.128,6.516 14.938,6.684L13.907,7.586ZM7.167,6.001C7.431,5.895 7.713,5.844 7.997,5.851C8.281,5.844 8.564,5.895 8.827,6.001C9.091,6.107 9.331,6.265 9.532,6.466C9.732,6.667 9.89,6.906 9.996,7.17C10.102,7.434 10.153,7.716 10.146,8C10.153,8.284 10.102,8.566 9.996,8.83C9.89,9.094 9.732,9.333 9.532,9.534C9.331,9.735 9.091,9.893 8.827,9.999C8.564,10.104 8.281,10.155 7.997,10.149C7.713,10.155 7.431,10.104 7.167,9.999C6.903,9.893 6.664,9.735 6.463,9.534C6.262,9.333 6.104,9.094 5.998,8.83C5.893,8.566 5.842,8.284 5.848,8C5.842,7.716 5.893,7.434 5.998,7.17C6.104,6.906 6.262,6.667 6.463,6.466C6.664,6.265 6.903,6.107 7.167,6.001Z"/>
</svg>
