<svg id="strib-settings-filled" viewBox="0 0 16 16" width="16" height="16" fill="currentColor" class="strib-icon strib-settings-filled" xmlns="http://www.w3.org/2000/svg" fill-rule="evenodd" clip-rule="evenodd">
  <path d="M13.513 7.963v.418l.948.868c.36.314.447.845.205 1.258l-1.143 2.005a1.01 1.01 0 0 1-1.189.452l-1.213-.411q-.318.21-.662.376l-.255 1.263c-.096.474-.52.815-1.003.808H6.835a1 1 0 0 1-1.004-.808l-.255-1.263a6 6 0 0 1-.657-.376l-1.218.411c-.452.149-.95-.04-1.189-.452l-1.183-2.005c-.25-.418-.163-.96.205-1.279l.949-.842v-.423h3.508L5.992 8l-.001.044c0 1.076.886 1.963 1.963 1.963l.043-.001h.047a1.97 1.97 0 0 0 1.96-1.96L10.003 8l.001-.037zm-11.03 0v-.344l-.949-.868a1.006 1.006 0 0 1-.205-1.258l1.183-2.005c.179-.31.51-.502.867-.502q.163-.01.322.03l1.193.431q.318-.21.662-.376l.256-1.263A1 1 0 0 1 6.814 1h2.347c.485-.011.91.333 1.003.808l.255 1.263q.34.166.657.376l1.218-.411a1.02 1.02 0 0 1 1.189.452l1.183 2.005c.253.415.172.956-.191 1.279l-.962.842v.349h-3.509v-.009a1.97 1.97 0 0 0-1.96-1.96h-.09a1.97 1.97 0 0 0-1.963 1.964v.005z"/>
</svg>