<?xml version="1.0" encoding="utf-8"?>
<!-- Generator: Adobe Illustrator 26.3.1, SVG Export Plug-In . SVG Version: 6.00 Build 0)  -->
<svg version="1.1" id="noun-share-1058858" xmlns="http://www.w3.org/2000/svg" xmlns:xlink="http://www.w3.org/1999/xlink" x="0px"
	 y="0px" viewBox="0 0 14.4 18.1" style="enable-background:new 0 0 14.4 18.1;" xml:space="preserve">
<g>
	<g>
		<path d="M12.6,5.5h-2.3v1.6h2.3v9.3H1.7V7.1H4V5.5H1.7l0,0c-0.9,0-1.5,0.7-1.5,1.6v9.3l0,0c0,0.9,0.7,1.6,1.6,1.6h10.9l0,0
			c0.9,0,1.6-0.7,1.6-1.6V7.1l0,0C14.1,6.2,13.4,5.5,12.6,5.5z"/>
	</g>
</g>
<g>
	<g>
		<path d="M9.9,2.5L7.7,0.3C7.5,0.2,7.3,0.1,7.1,0.1c-0.2,0-0.4,0.1-0.5,0.2L4.4,2.5c-0.3,0.3-0.3,0.8,0,1.1s0.8,0.3,1.1,0l0.9-0.9
			V7l0,0v3.1c0,0.4,0.3,0.8,0.8,0.8c0.4,0,0.8-0.3,0.8-0.8v-3l0,0V2.7l0.9,0.9c0.3,0.3,0.8,0.3,1.1,0C10.2,3.3,10.2,2.8,9.9,2.5z"/>
	</g>
</g>
</svg>
