<svg id="share" viewBox="0 0 16 16" xmlns="http://www.w3.org/2000/svg">
  <path fill="var(--strib-icon-color, #0d0d0d)" fill-rule="evenodd" clip-rule="evenodd" d="M8.408,0.669C8.183,0.444 7.817,0.444 7.592,0.669L4.876,3.385L5.692,4.201L7.423,2.47L7.423,10.115L8.577,10.115L8.577,2.47L10.308,4.201L11.124,3.385L8.408,0.669ZM3.192,6.269L5.115,6.269L5.115,5.115L3,5.115C2.469,5.115 2.038,5.546 2.038,6.077L2.038,14.538C2.038,15.07 2.469,15.5 3,15.5L13,15.5C13.531,15.5 13.962,15.07 13.962,14.538L13.962,6.077C13.962,5.546 13.531,5.115 13,5.115L10.885,5.115L10.885,6.269L12.808,6.269L12.808,14.346L3.192,14.346L3.192,6.269Z"/>
</svg>
