<?xml version="1.0" encoding="utf-8"?>
<!-- Generator: Adobe Illustrator 26.3.1, SVG Export Plug-In . SVG Version: 6.00 Build 0)  -->
<svg version="1.1" id="SMS_text_icon" xmlns="http://www.w3.org/2000/svg" xmlns:xlink="http://www.w3.org/1999/xlink" x="0px"
	 y="0px" viewBox="0 0 25.1 24.3" style="enable-background:new 0 0 25.1 24.3;" xml:space="preserve">
<path id="SMS_text_icon-2" d="M15.1,17.4c1.9,0,3.7-0.5,5.3-1.4c1.1,0.6,2.5,0.9,3.7,0.7c0.1,0,0.2-0.2,0.2-0.3
	c0-0.1-0.1-0.2-0.1-0.2c-0.7-0.5-1.3-1.2-1.5-2c1.4-1.5,2.2-3.4,2.2-5.4c0-4.8-4.4-8.6-9.8-8.6S5.3,4,5.3,8.8
	C5.3,13.6,9.6,17.4,15.1,17.4z M17.7,7.8h2.1v2.1h-2.1V7.8z M14,7.8h2.1v2.1H14L14,7.8z M10.3,7.8h2.1v2.1h-2.1L10.3,7.8z M2.1,21.5
	c-1.2-1.2-1.8-2.8-1.8-4.5c0.1-2.5,1.4-4.7,3.6-5.9c1.1,4.6,5.7,8.1,11.2,8.1c0.4,0,0.8,0,1.1-0.1c-1.3,3.2-4.4,5.2-7.8,5.1
	c-1.6,0-3.1-0.4-4.4-1.2c-0.9,0.5-2,0.7-3.1,0.6c-0.1,0-0.2-0.1-0.2-0.3c0-0.1,0.1-0.1,0.1-0.2C1.4,22.8,1.8,22.2,2.1,21.5z"/>
</svg>
