<svg xmlns="http://www.w3.org/2000/svg" viewBox="0 0 25.1 24.3">
  <path d="M15.1 17.4c1.9 0 3.7-.5 5.3-1.4 1.1.6 2.5.9 3.7.7.1 0 .2-.2.2-.3 0-.1-.1-.2-.1-.2-.7-.5-1.3-1.2-1.5-2 1.4-1.5 2.2-3.4 2.2-5.4C24.9 4 20.5.2 15.1.2S5.3 4 5.3 8.8s4.3 8.6 9.8 8.6zm2.6-9.6h2.1v2.1h-2.1V7.8zm-3.7 0h2.1v2.1H14V7.8zm-3.7 0h2.1v2.1h-2.1V7.8zM2.1 21.5C.9 20.3.3 18.7.3 17c.1-2.5 1.4-4.7 3.6-5.9 1.1 4.6 5.7 8.1 11.2 8.1.4 0 .8 0 1.1-.1-1.3 3.2-4.4 5.2-7.8 5.1-1.6 0-3.1-.4-4.4-1.2-.9.5-2 .7-3.1.6-.1 0-.2-.1-.2-.3 0-.1.1-.1.1-.2.6-.3 1-.9 1.3-1.6z"/>
</svg>
