<svg xmlns="http://www.w3.org/2000/svg" viewBox="0 0 32 32"><path d="M7.8 21.3c0 .8.4 1.6 1.1 2.4H7.5c-1.3 0-2.6.2-3.8.7-1.6-2.5-2.4-5.3-2.4-8.3v-.8c.4 1.3 1.1 2.4 2.2 3.2s2.4 1.2 4 1.2h.7c-.3.6-.4 1.1-.4 1.6zM16 .9c2 0 3.9.4 5.7 1.2 1.8.8 3.4 1.9 4.7 3.2 1.3 1.4 2.4 3 3.1 4.8.8 1.9 1.2 3.8 1.2 5.9s-.4 4-1.2 5.9c-.8 1.9-1.8 3.5-3.1 4.8-1.3 1.4-2.9 2.4-4.7 3.2-1.8.8-3.7 1.2-5.7 1.2h-.6c.4-.9.6-1.7.6-2.5 0-1.3-.2-2.3-.7-3.1-.4-.8-1.2-1.6-2.3-2.4-.5-.4-1-.8-1.5-1.4-.5-.5-.7-1-.7-1.4 0-.5.1-.9.3-1.2.2-.3.6-.7 1.3-1.3.7-.6 1.3-1.3 1.7-2 .4-.8.6-1.6.6-2.5 0-1.1-.2-2.2-.7-3.1-.5-.9-1.1-1.6-2-1.9h2.7l2-1.2H8.3c-1 0-2 .2-3 .7-1 .4-1.8 1-2.6 1.8 1.2-2.6 3-4.7 5.4-6.3S13.1.9 16 .9zm-4.1 12.8c.2 1.5 0 2.7-.7 3.7-.6 1-1.5 1.5-2.6 1.5s-2.1-.6-3-1.6C4.7 16.2 4.2 15 4 13.5c-.2-1.5 0-2.7.7-3.7.6-1 1.5-1.5 2.5-1.4 1.1 0 2.1.6 3 1.6 1 1 1.5 2.2 1.7 3.7zm1.9 14.5c.1.3.1.6.1.9 0 .7-.1 1.4-.4 1.9-1.8-.3-3.5-.9-5-1.9-1.6-.9-2.9-2.1-4-3.6 1.2-.7 2.5-1.1 3.9-1.1.7 0 1.4.1 2.1.4.1.1.4.3.7.5s.6.4.7.5c.1.1.3.2.5.4s.4.3.5.5.2.3.4.4c.1.2.3.3.3.5.1.2.2.4.2.6zm9.6-15.9h3.7v-1.9h-3.7V6.6h-1.8v3.8h-3.7v1.9h3.7v3.8h1.8v-3.8z"/></svg>