<?xml version="1.0" encoding="utf-8"?>
<!-- Generator: Adobe Illustrator 21.1.0, SVG Export Plug-In . SVG Version: 6.00 Build 0)  -->
<svg version="1.1" id="Layer_1" xmlns="http://www.w3.org/2000/svg" xmlns:xlink="http://www.w3.org/1999/xlink" x="0px" y="0px"
	 viewBox="0 0 28 23.1" style="enable-background:new 0 0 28 23.1;" xml:space="preserve">
<path class="st2" d="M26,4.1c-0.9,0.4-1.8,0.7-2.8,0.8c1-0.6,1.8-1.6,2.2-2.7c-0.9,0.6-2,1-3.1,1.2c-0.9-0.9-2.2-1.5-3.6-1.5
						c-2.7,0-4.9,2.2-4.9,4.9c0,0.4,0,0.8,0.1,1.1C9.7,7.6,6.1,5.8,3.7,2.8C3.3,3.5,3,4.3,3,5.2c0,1.7,0.9,3.2,2.2,4.1
						C4.4,9.2,3.6,9,3,8.7v0.1c0,2.4,1.7,4.4,4,4.8c-0.4,0.1-0.9,0.2-1.3,0.2c-0.3,0-0.6,0-0.9-0.1c0.6,1.9,2.5,3.4,4.6,3.4
						c-1.7,1.3-3.8,2.3-6.1,2.3c-0.4,0-0.8,0-1.2-0.1c2.2,1.4,4.8,2,7.6,2c9,0,14-7.5,14-14V6.7C24.5,6,25.3,5.1,26,4.1"/>
</svg>
