<?xml version="1.0" encoding="utf-8"?>
<!-- Generator: Adobe Illustrator 21.1.0, SVG Export Plug-In . SVG Version: 6.00 Build 0)  -->
<svg version="1.1" id="Layer_1" xmlns="http://www.w3.org/2000/svg" xmlns:xlink="http://www.w3.org/1999/xlink" x="0px" y="0px"
	 viewBox="0 0 32 32" style="enable-background:new 0 0 32 32;" xml:space="preserve">
<style type="text/css">
	.st0{fill:#64BC46;}
</style>
<path class="st0" d="M8.1,21.2c0,0.8,0.4,1.6,1.1,2.4H7.8c-1.3,0-2.6,0.2-3.8,0.7C2.4,21.8,1.6,19,1.6,16c0-0.4,0-0.6,0-0.8
	c0.4,1.3,1.1,2.4,2.2,3.2s2.4,1.2,4,1.2h0.7C8.2,20.2,8.1,20.7,8.1,21.2L8.1,21.2z M16.3,0.8c2,0,3.9,0.4,5.7,1.2
	c1.8,0.8,3.4,1.9,4.7,3.2c1.3,1.4,2.4,3,3.1,4.8c0.8,1.9,1.2,3.8,1.2,5.9s-0.4,4-1.2,5.9c-0.8,1.9-1.8,3.5-3.1,4.8
	C25.4,28,23.8,29,22,29.8c-1.8,0.8-3.7,1.2-5.7,1.2h-0.6c0.4-0.9,0.6-1.7,0.6-2.5c0-1.3-0.2-2.3-0.7-3.1c-0.4-0.8-1.2-1.6-2.3-2.4
	c-0.5-0.4-1-0.8-1.5-1.4c-0.5-0.5-0.7-1-0.7-1.4c0-0.5,0.1-0.9,0.3-1.2c0.2-0.3,0.6-0.7,1.3-1.3c0.7-0.6,1.3-1.3,1.7-2
	c0.4-0.8,0.6-1.6,0.6-2.5c0-1.1-0.2-2.2-0.7-3.1c-0.5-0.9-1.1-1.6-2-1.9H15L17,7H8.6c-1,0-2,0.2-3,0.7c-1,0.4-1.8,1-2.6,1.8
	c1.2-2.6,3-4.7,5.4-6.3S13.4,0.8,16.3,0.8z M12.2,13.6c0.2,1.5,0,2.7-0.7,3.7c-0.6,1-1.5,1.5-2.6,1.5s-2.1-0.6-3-1.6
	c-0.9-1.1-1.4-2.3-1.6-3.8s0-2.7,0.7-3.7c0.6-1,1.5-1.5,2.5-1.4c1.1,0,2.1,0.6,3,1.6C11.5,10.9,12,12.1,12.2,13.6L12.2,13.6z
	 M14.1,28.1c0.1,0.3,0.1,0.6,0.1,0.9c0,0.7-0.1,1.4-0.4,1.9c-1.8-0.3-3.5-0.9-5-1.9c-1.6-0.9-2.9-2.1-4-3.6c1.2-0.7,2.5-1.1,3.9-1.1
	c0.7,0,1.4,0.1,2.1,0.4c0.1,0.1,0.4,0.3,0.7,0.5s0.6,0.4,0.7,0.5c0.1,0.1,0.3,0.2,0.5,0.4c0.2,0.2,0.4,0.3,0.5,0.5s0.2,0.3,0.4,0.4
	c0.1,0.2,0.3,0.3,0.3,0.5C14,27.7,14.1,27.9,14.1,28.1z M23.7,12.2h3.7v-1.9h-3.7V6.5h-1.8v3.8h-3.7v1.9h3.7V16h1.8V12.2z"/>
</svg>
