<svg xmlns="http://www.w3.org/2000/svg" viewBox="0 0 32 32"><path d="M10.2 2C12 1.2 13.9.8 15.9.8s3.9.4 5.8 1.2c1.8.8 3.4 1.9 4.7 3.2 1.3 1.4 2.4 3 3.2 4.9.8 1.9 1.2 3.8 1.2 5.9 0 2.3-.5 4.5-1.4 6.6-1 2.1-2.3 3.8-4 5.2-1.7 1.4-3.6 2.4-5.7 3V19.1H23l.5-3.8h-3.7V12c0-1.1.5-1.7 1.6-1.7h2.4V6.7c-.7-.2-1.6-.3-2.7-.3-1.7 0-3.1.5-4 1.4s-1.4 2.1-1.4 3.7v3.8h-3.4v3.8h3.4v12.1c-2 0-3.9-.5-5.6-1.3-1.8-.8-3.3-1.9-4.6-3.3-1.3-1.4-2.3-3-3.1-4.8S1.1 18 1.1 16c0-2.1.4-4 1.2-5.9.8-1.9 1.8-3.5 3.1-4.9C6.8 3.9 8.3 2.8 10.2 2z"/></svg>