<?xml version="1.0" encoding="utf-8"?>
<!-- Generator: Adobe Illustrator 21.1.0, SVG Export Plug-In . SVG Version: 6.00 Build 0)  -->
<svg version="1.1" id="Layer_1" xmlns="http://www.w3.org/2000/svg" xmlns:xlink="http://www.w3.org/1999/xlink" x="0px" y="0px"
	 viewBox="0 0 32 32" style="enable-background:new 0 0 32 32;" xml:space="preserve">
<path d="M10.2,2c1.8-0.8,3.7-1.2,5.7-1.2s3.9,0.4,5.8,1.2c1.8,0.8,3.4,1.9,4.7,3.2c1.3,1.4,2.4,3,3.2,4.9c0.8,1.9,1.2,3.8,1.2,5.9
	c0,2.3-0.5,4.5-1.4,6.6c-1,2.1-2.3,3.8-4,5.2c-1.7,1.4-3.6,2.4-5.7,3V19.1H23l0.5-3.8h-3.7V12c0-1.1,0.5-1.7,1.6-1.7h2.4V6.7
	c-0.7-0.2-1.6-0.3-2.7-0.3c-1.7,0-3.1,0.5-4,1.4s-1.4,2.1-1.4,3.7v3.8h-3.4v3.8h3.4v12.1c-2,0-3.9-0.5-5.6-1.3
	c-1.8-0.8-3.3-1.9-4.6-3.3c-1.3-1.4-2.3-3-3.1-4.8S1.1,18,1.1,16c0-2.1,0.4-4,1.2-5.9c0.8-1.9,1.8-3.5,3.1-4.9
	C6.8,3.9,8.3,2.8,10.2,2z"/>
</svg>
