<svg xmlns="http://www.w3.org/2000/svg" viewBox="0 0 32 32"><path d="M10.7 2c1.8-.8 3.7-1.2 5.8-1.2 2 0 3.9.4 5.8 1.2 1.8.8 3.4 1.9 4.7 3.2 1.3 1.4 2.4 3 3.2 4.9.8 1.9 1.2 3.8 1.2 5.9s-.4 4-1.2 5.9c-.8 1.9-1.8 3.5-3.2 4.9-1.3 1.4-2.9 2.4-4.7 3.2-1.8.8-3.7 1.2-5.8 1.2-2 0-3.9-.4-5.8-1.2-1.8-.8-3.4-1.9-4.7-3.2-1.3-1.4-2.4-3-3.2-4.9S1.6 18.1 1.6 16s.4-4 1.2-5.9S4.6 6.6 6 5.2C7.3 3.9 8.8 2.8 10.7 2zM25 22.3V9.7c0-.7-.2-1.3-.7-1.8s-1.1-.7-1.7-.7H10.2c-.7-.1-1.2.2-1.7.7S7.8 9 7.8 9.7v12.7c0 .7.2 1.3.7 1.8s1.1.7 1.7.7h12.4c.7 0 1.3-.2 1.7-.7s.7-1.2.7-1.9zM21.3 16c0-.5 0-.9-.1-1.3h2v7.6c0 .2-.1.3-.2.4s-.3.2-.4.2H10.2c-.2 0-.3-.1-.4-.2-.1-.1-.2-.3-.2-.4v-7.6h2c-.1.4-.1.8-.1 1.3 0 1.4.5 2.6 1.4 3.6 1 1 2.1 1.5 3.5 1.5s2.5-.5 3.5-1.5 1.4-2.2 1.4-3.6zm-2.7 2.2c-.6.6-1.3.9-2.2.9-.8 0-1.6-.3-2.2-.9-.6-.6-.9-1.4-.9-2.2 0-.9.3-1.6.9-2.2.6-.6 1.3-.9 2.2-.9.8 0 1.6.3 2.2.9.6.6.9 1.4.9 2.2 0 .9-.3 1.6-.9 2.2zm4-9.2c.2 0 .3.1.4.2.1.1.2.3.2.4v1.9c0 .2-.1.3-.2.5-.1.1-.3.2-.4.2h-1.9c-.2 0-.3-.1-.4-.2-.1-.1-.2-.3-.2-.5V9.7c0-.2.1-.3.2-.4.1-.2.3-.3.4-.3h1.9z" fill="#64bc46"/></svg>