<svg xmlns="http://www.w3.org/2000/svg" viewBox="0 0 32 32"><path d="M10.2 2C12 1.2 14 .8 16 .8s3.9.4 5.8 1.2c1.8.8 3.4 1.9 4.7 3.2 1.3 1.4 2.4 3 3.2 4.9.8 1.9 1.2 3.9 1.2 5.9 0 2.1-.4 4-1.2 5.9-.8 1.9-1.8 3.5-3.2 4.9-1.3 1.4-2.9 2.4-4.7 3.2-1.8.8-3.7 1.2-5.8 1.2-1.5 0-2.9-.2-4.2-.6.7-1.1 1.2-2.2 1.5-3.2l1-4.2c.3.5.7 1 1.4 1.3.7.4 1.4.6 2.2.6 1.6 0 3-.5 4.2-1.4 1.2-.9 2.2-2.1 2.8-3.7.7-1.6 1-3.4 1-5.3 0-1.1-.2-2.2-.7-3.3-.5-1-1.1-2-1.9-2.8s-1.8-1.5-3-1.9c-1.2-.5-2.5-.7-3.8-.7-1.4 0-2.6.2-3.8.6s-2.2.9-3 1.5-1.5 1.4-2.1 2.2-1 1.7-1.3 2.6c-.2.7-.3 1.6-.3 2.5 0 1.4.2 2.6.7 3.6s1.3 1.8 2.2 2.2c.4.1.6 0 .8-.4 0-.1.1-.5.3-1.2v-.4c0-.1-.1-.2-.3-.4-.6-.8-1-1.8-1-3 0-1 .2-1.9.5-2.8.3-.9.8-1.7 1.4-2.3.6-.7 1.4-1.2 2.3-1.6.9-.4 1.9-.6 3-.6 1.9 0 3.4.5 4.5 1.6s1.6 2.5 1.6 4.2c0 1.5-.2 2.8-.6 4-.4 1.2-.9 2.2-1.7 2.9-.7.7-1.5 1.1-2.5 1.1-.8 0-1.4-.3-1.9-.9s-.6-1.3-.4-2.1c.1-.5.3-1.1.5-1.9s.4-1.5.6-2c.1-.6.2-1.1.2-1.5 0-.7-.2-1.2-.5-1.6-.3-.4-.8-.6-1.5-.6-.8 0-1.5.4-2 1.1-.6.8-.8 1.7-.8 2.8 0 .4 0 .9.1 1.3s.2.7.2.9l.1.3c-1.1 4.7-1.7 7.5-1.9 8.3.1 1.1.1 2.3.1 3.6-2.7-1.2-4.8-3.1-6.4-5.6S1.2 19.1 1.2 16c0-2.1.4-4 1.2-5.9s1.8-3.5 3.2-4.9C6.8 3.9 8.4 2.8 10.2 2z" fill="#64bc46"/></svg>