<?xml version="1.0" encoding="utf-8"?>
<!-- Generator: Adobe Illustrator 21.1.0, SVG Export Plug-In . SVG Version: 6.00 Build 0)  -->
<svg version="1.1" id="Layer_1" xmlns="http://www.w3.org/2000/svg" xmlns:xlink="http://www.w3.org/1999/xlink" x="0px" y="0px"
	 viewBox="0 0 32 32" style="enable-background:new 0 0 32 32;" xml:space="preserve">
<style type="text/css">
	.st0{fill:#231F20;}
</style>
<path class="st0" d="M7.8,21.3c0,0.8,0.4,1.6,1.1,2.4H7.5c-1.3,0-2.6,0.2-3.8,0.7c-1.6-2.5-2.4-5.3-2.4-8.3v-0.8
	c0.4,1.3,1.1,2.4,2.2,3.2s2.4,1.2,4,1.2h0.7C7.9,20.3,7.8,20.8,7.8,21.3z M16,0.9c2,0,3.9,0.4,5.7,1.2c1.8,0.8,3.4,1.9,4.7,3.2
	c1.3,1.4,2.4,3,3.1,4.8c0.8,1.9,1.2,3.8,1.2,5.9s-0.4,4-1.2,5.9c-0.8,1.9-1.8,3.5-3.1,4.8c-1.3,1.4-2.9,2.4-4.7,3.2
	c-1.8,0.8-3.7,1.2-5.7,1.2h-0.6c0.4-0.9,0.6-1.7,0.6-2.5c0-1.3-0.2-2.3-0.7-3.1c-0.4-0.8-1.2-1.6-2.3-2.4c-0.5-0.4-1-0.8-1.5-1.4
	c-0.5-0.5-0.7-1-0.7-1.4c0-0.5,0.1-0.9,0.3-1.2c0.2-0.3,0.6-0.7,1.3-1.3c0.7-0.6,1.3-1.3,1.7-2c0.4-0.8,0.6-1.6,0.6-2.5
	c0-1.1-0.2-2.2-0.7-3.1c-0.5-0.9-1.1-1.6-2-1.9h2.7l2-1.2H8.3c-1,0-2,0.2-3,0.7c-1,0.4-1.8,1-2.6,1.8c1.2-2.6,3-4.7,5.4-6.3
	S13.1,0.9,16,0.9z M11.9,13.7c0.2,1.5,0,2.7-0.7,3.7c-0.6,1-1.5,1.5-2.6,1.5s-2.1-0.6-3-1.6C4.7,16.2,4.2,15,4,13.5
	C3.8,12,4,10.8,4.7,9.8c0.6-1,1.5-1.5,2.5-1.4c1.1,0,2.1,0.6,3,1.6C11.2,11,11.7,12.2,11.9,13.7z M13.8,28.2
	c0.1,0.3,0.1,0.6,0.1,0.9c0,0.7-0.1,1.4-0.4,1.9c-1.8-0.3-3.5-0.9-5-1.9c-1.6-0.9-2.9-2.1-4-3.6c1.2-0.7,2.5-1.1,3.9-1.1
	c0.7,0,1.4,0.1,2.1,0.4c0.1,0.1,0.4,0.3,0.7,0.5s0.6,0.4,0.7,0.5c0.1,0.1,0.3,0.2,0.5,0.4s0.4,0.3,0.5,0.5s0.2,0.3,0.4,0.4
	c0.1,0.2,0.3,0.3,0.3,0.5C13.7,27.8,13.8,28,13.8,28.2z M23.4,12.3h3.7v-1.9h-3.7V6.6h-1.8v3.8h-3.7v1.9h3.7v3.8h1.8
	C23.4,16.1,23.4,12.3,23.4,12.3z"/>
</svg>
