<?xml version="1.0" encoding="utf-8"?>
<!-- Generator: Adobe Illustrator 21.1.0, SVG Export Plug-In . SVG Version: 6.00 Build 0)  -->
<svg version="1.1" id="Layer_1" xmlns="http://www.w3.org/2000/svg" xmlns:xlink="http://www.w3.org/1999/xlink" x="0px" y="0px"
	 viewBox="0 0 32 32" style="enable-background:new 0 0 32 32;" xml:space="preserve">
<style type="text/css">
	.st0{fill:#231F20;}
</style>
<path class="st0" d="M10.1,2c1.9-0.8,3.8-1.2,5.8-1.2s3.9,0.4,5.8,1.2c1.8,0.8,3.4,1.9,4.7,3.2c1.3,1.4,2.4,3,3.2,4.9
	c0.8,1.9,1.2,3.9,1.2,5.9c0,2.1-0.4,4-1.2,5.9c-0.8,1.9-1.8,3.5-3.2,4.9c-1.3,1.4-2.9,2.4-4.7,3.2c-1.8,0.8-3.7,1.2-5.8,1.2
	c-2,0-3.9-0.4-5.8-1.2c-1.8-0.8-3.4-1.9-4.7-3.2c-1.3-1.4-2.4-3-3.2-4.9C1.5,20,1.1,18.1,1.1,16s0.4-4,1.2-5.9s1.8-3.5,3.2-4.9
	C6.8,3.9,8.3,2.8,10.1,2z M24.9,12.7c0.8-0.5,1.5-1.3,2.1-2.2c-0.8,0.3-1.6,0.6-2.4,0.7c0.9-0.5,1.5-1.3,1.8-2.4
	c-0.8,0.5-1.7,0.8-2.6,1.1c-0.9-1.1-1.9-1.5-3.1-1.5s-2.2,0.4-3,1.3c-0.8,0.8-1.2,1.9-1.2,3.1c0,0.4,0,0.7,0.1,1
	c-1.7-0.1-3.3-0.5-4.9-1.3c-1.5-0.8-2.8-1.9-3.9-3.2c-0.4,0.7-0.5,1.4-0.5,2.2c0,0.7,0.2,1.4,0.5,2.1c0.3,0.6,0.8,1.1,1.4,1.5
	c-0.7,0-1.3-0.2-1.9-0.5c0,1,0.3,2,1,2.7c0.6,0.8,1.4,1.3,2.4,1.5c-0.3,0.1-0.7,0.1-1.1,0.1c-0.3,0-0.5,0-0.8-0.1
	c0.3,0.9,0.7,1.6,1.5,2.1c0.7,0.5,1.5,0.8,2.5,0.8c-1.6,1.3-3.4,2-5.2,2c-0.1,0-0.5,0-1-0.1c1.9,1.3,4,1.9,6.4,1.9
	c1.5,0,2.9-0.2,4.2-0.7s2.4-1.1,3.4-2C21.5,22,22.3,21,23,20c0.7-1.1,1.2-2.2,1.5-3.3c0.3-1.2,0.5-2.3,0.5-3.5
	C25,13.2,24.9,12.7,24.9,12.7z"/>
</svg>
