<svg xmlns="http://www.w3.org/2000/svg" viewBox="0 0 56.5 56.5">
  <path d="M17.7 30.3h1.8v8.9h1.7v-8.9H23v-1.5h-5.3zM28.3 23c.2 0 .4-.1.6-.2.1-.1.2-.3.2-.5v-4.6c0-.2-.1-.3-.2-.4-.1-.1-.3-.2-.6-.2-.2 0-.4.1-.5.2-.1.1-.2.3-.2.4v4.6c0 .2.1.4.2.5.1.1.3.2.5.2zm3.8 8.4c-.2 0-.5.1-.7.2-.2.1-.4.3-.7.5v-3.3h-1.5v10.4h1.5v-.6c.2.2.4.4.7.5.2.1.5.2.8.2.5 0 .8-.1 1-.4.2-.3.4-.7.4-1.2v-4.2c0-.6-.1-1.1-.4-1.4-.2-.5-.6-.7-1.1-.7zm-.1 6c0 .2 0 .4-.1.5-.1.1-.2.2-.4.2-.1 0-.2 0-.4-.1-.1-.1-.2-.1-.4-.3V33c.1-.1.2-.2.3-.2.1-.1.2-.1.3-.1.2 0 .4.1.5.2.2.1.2.3.2.5v4zm-5.5-.1c-.1.2-.3.3-.5.4-.2.1-.3.2-.4.2-.1 0-.2 0-.3-.1-.1-.1-.1-.2-.1-.4v-5.9h-1.5v6.4c0 .5.1.8.3 1 .2.2.4.3.8.3.3 0 .6-.1.9-.2.3-.2.6-.4.9-.7v.8h1.5v-7.6h-1.5l-.1 5.8z"/>
  <path d="M28.3 3.6c-13.6 0-24.6 11-24.6 24.6 0 13.6 11 24.6 24.6 24.6s24.6-11 24.6-24.6c0-13.5-11.1-24.6-24.6-24.6zm3.9 12.2h1.7v6.5c0 .2 0 .3.1.4.1.1.2.1.3.1.1 0 .3-.1.5-.2s.4-.3.5-.5v-6.4H37v8.4h-1.7v-.9c-.3.3-.6.6-1 .8-.3.2-.7.3-1 .3-.4 0-.7-.1-.9-.4-.2-.2-.3-.6-.3-1.1.1 0 .1-7 .1-7zm-6.4 1.9c0-.6.2-1.2.7-1.6.5-.4 1.1-.6 1.9-.6.7 0 1.3.2 1.8.6.5.4.7.9.7 1.6v4.4c0 .7-.2 1.3-.7 1.7-.4.4-1.1.6-1.8.6-.8 0-1.4-.2-1.8-.6-.5-.4-.7-1-.7-1.7l-.1-4.4zm-4.6-4.9l1.3 4.6h.1l1.2-4.6h2l-2.3 6.7v4.7h-1.9v-4.5l-2.3-6.9h1.9zm22.5 24c0 3-2.5 5.5-5.5 5.5H19c-3 0-5.5-2.5-5.5-5.5v-4.4c0-3 2.5-5.5 5.5-5.5h19.2c3 0 5.5 2.5 5.5 5.5v4.4z"/>
  <path d="M36.7 31.3c-.7 0-1.2.2-1.7.6-.4.4-.7 1-.7 1.6V37c0 .7.2 1.3.6 1.7.4.4.9.6 1.6.6.8 0 1.3-.2 1.7-.6.4-.4.6-1 .6-1.8v-.4h-1.6v.5c0 .5-.1.7-.2.9s-.3.2-.5.2-.4-.1-.5-.2v-2.3h2.9v-2c0-.7-.2-1.3-.6-1.7-.3-.4-.9-.6-1.6-.6zm.6 3.1H36v-.8c0-.3 0-.6.2-.7.1-.1.3-.2.5-.2s.4.1.5.2c.1.1.2.4.2.7l-.1.8z"/>
</svg>
