<?xml version="1.0" encoding="utf-8"?>
<!-- Generator: Adobe Illustrator 21.1.0, SVG Export Plug-In . SVG Version: 6.00 Build 0)  -->
<svg version="1.1" id="Layer_1" xmlns="http://www.w3.org/2000/svg" xmlns:xlink="http://www.w3.org/1999/xlink" x="0" y="0"
	 viewBox="0 0 32 32" xml:space="preserve">
<path d="M10.1,2.2C11.9,1.4,13.8,1,15.8,1s3.9,0.4,5.8,1.2C23.4,3,25,4.1,26.3,5.4c1.3,1.4,2.4,3,3.2,4.9
	c0.8,1.9,1.2,3.8,1.2,5.9c0,2.3-0.5,4.5-1.4,6.6c-1,2.1-2.3,3.8-4,5.2s-3.6,2.4-5.7,3V19.3h3.2l0.5-3.8h-3.7v-3.3
	c0-1.1,0.5-1.7,1.6-1.7h2.4V6.9c-0.7-0.2-1.6-0.3-2.7-0.3c-1.7,0-3.1,0.5-4,1.4s-1.4,2.1-1.4,3.7v3.8h-3.4v3.8h3.4v12.1
	c-2,0-3.9-0.5-5.6-1.3c-1.8-0.8-3.3-1.9-4.6-3.3S3,23.8,2.2,22C1.4,20.2,1,18.2,1,16.2c0-2.1,0.4-4,1.2-5.9C3,8.4,4,6.8,5.3,5.4
	C6.7,4.1,8.2,3,10.1,2.2z"/>
</svg>
