<?xml version="1.0" encoding="utf-8"?>
<!-- Generator: Adobe Illustrator 21.1.0, SVG Export Plug-In . SVG Version: 6.00 Build 0)  -->
<svg version="1.1" id="Layer_1" xmlns="http://www.w3.org/2000/svg" xmlns:xlink="http://www.w3.org/1999/xlink" x="0px" y="0px"
	 viewBox="0 0 43 43" style="enable-background:new 0 0 43 43;" xml:space="preserve">
<style type="text/css">
	.st0{fill:#231F20;}
</style>
<path class="st0" d="M34.2,31.7h-5v-7.6c0-2.6-1-3.4-2.6-3.4s-2.5,1.3-2.5,3.4v7.6H19v-11c0,0-0.1-2.8-0.1-3.4H24l0.2,2.2
	c0.7-1.8,2.2-3.1,4.2-3.1c3.6,0,6,3,6,7.6v7.7H34.2z M13,14.7c-2.1,0-3.4-1.3-3.4-3s1.4-3,3.4-3c2.1,0,3.4,1.3,3.4,3
	S15.1,14.7,13,14.7 M15.6,31.7h-5.1V17.3h5.1C15.6,17.3,15.6,31.7,15.6,31.7z M21.5,1.1c-11.3,0-20.4,9.1-20.4,20.4
	s9.1,20.4,20.4,20.4s20.4-9.1,20.4-20.4S32.8,1.1,21.5,1.1"/>
</svg>
