<?xml version="1.0" encoding="iso-8859-1"?>
<!-- Generator: Adobe Illustrator 27.2.0, SVG Export Plug-In . SVG Version: 6.00 Build 0)  -->
<svg version="1.1" id="Layer_1" xmlns="http://www.w3.org/2000/svg" xmlns:xlink="http://www.w3.org/1999/xlink" x="0px" y="0px"
	 viewBox="0 0 32 32" style="enable-background:new 0 0 32 32;" xml:space="preserve">
<g>
	<path d="M16,1C7.716,1,1,7.716,1,16c0,8.284,6.716,15,15,15c8.284,0,15-6.716,15-15C31,7.716,24.284,1,16,1z M17.4,25.3
		c-4.1,0.1-5.7-3.1-5.7-5.3v-6.5H9.8v-2.6c2.9-1.1,3.6-3.8,3.8-5.4c0-0.1,0.1-0.1,0.1-0.1h2.8v5h3.8v3h-3.8v6.2c0,0.9,0.3,2,1.8,2
		c0.5,0,1.1-0.1,1.5-0.3l0.9,2.8C20.4,24.7,18.8,25.3,17.4,25.3z"/>
</g>
</svg>
