<?xml version="1.0" encoding="utf-8"?>
<!-- Generator: Adobe Illustrator 21.1.0, SVG Export Plug-In . SVG Version: 6.00 Build 0)  -->
<svg version="1.1" id="Layer_1" xmlns="http://www.w3.org/2000/svg" xmlns:xlink="http://www.w3.org/1999/xlink" x="0px" y="0px"
	 viewBox="0 0 25 21" style="enable-background:new 0 0 25 21;" xml:space="preserve">
<path d="M24.4,3c-0.9,0.4-1.8,0.7-2.8,0.8c1-0.6,1.8-1.6,2.2-2.7c-0.9,0.6-2,1-3.1,1.2c-0.9-0.9-2.2-1.5-3.6-1.5
	c-2.7,0-4.9,2.2-4.9,4.9c0,0.4,0,0.8,0.1,1.1C8.2,6.5,4.6,4.7,2.2,1.7C1.8,2.4,1.5,3.2,1.5,4.1c0,1.7,0.9,3.2,2.2,4.1
	C2.9,8.1,2.1,7.9,1.5,7.6v0.1c0,2.4,1.7,4.4,4,4.8c-0.4,0.1-0.9,0.2-1.3,0.2c-0.3,0-0.6,0-0.9-0.1C3.9,14.5,5.8,16,7.9,16
	c-1.7,1.3-3.8,2.3-6.1,2.3c-0.4,0-0.8,0-1.2-0.1c2.2,1.4,4.8,2,7.6,2c9,0,14-7.5,14-14V5.6C22.9,4.9,23.8,4,24.4,3"/>
</svg>
