<?xml version="1.0" encoding="utf-8"?>
<!-- Generator: Adobe Illustrator 21.1.0, SVG Export Plug-In . SVG Version: 6.00 Build 0)  -->
<svg version="1.1" id="Layer_1" xmlns="http://www.w3.org/2000/svg" xmlns:xlink="http://www.w3.org/1999/xlink" x="0px" y="0px"
	 viewBox="0 0 32 32" style="enable-background:new 0 0 32 32;" xml:space="preserve">
<style type="text/css">
	.st0{fill:#231F20;}
</style>
<path class="st0" d="M10.2,2C12,1.2,13.9,0.8,16,0.8c2,0,3.9,0.4,5.8,1.2c1.8,0.8,3.4,1.9,4.7,3.2c1.3,1.4,2.4,3,3.2,4.9
	c0.8,1.9,1.2,3.8,1.2,5.9s-0.4,4-1.2,5.9c-0.8,1.9-1.8,3.5-3.2,4.9c-1.3,1.4-2.9,2.4-4.7,3.2c-1.8,0.8-3.7,1.2-5.8,1.2
	c-2,0-3.9-0.4-5.8-1.2c-1.8-0.8-3.4-1.9-4.7-3.2c-1.3-1.4-2.4-3-3.2-4.9S1.1,18.1,1.1,16s0.4-4,1.2-5.9s1.8-3.5,3.2-4.9
	C6.8,3.9,8.3,2.8,10.2,2z M24.5,22.3V9.7c0-0.7-0.2-1.3-0.7-1.8s-1.1-0.7-1.7-0.7H9.7C9,7.1,8.5,7.4,8,7.9S7.3,9,7.3,9.7v12.7
	c0,0.7,0.2,1.3,0.7,1.8s1.1,0.7,1.7,0.7h12.4c0.7,0,1.3-0.2,1.7-0.7S24.5,23,24.5,22.3z M20.8,16c0-0.5,0-0.9-0.1-1.3h2v7.6
	c0,0.2-0.1,0.3-0.2,0.4s-0.3,0.2-0.4,0.2H9.7c-0.2,0-0.3-0.1-0.4-0.2c-0.1-0.1-0.2-0.3-0.2-0.4v-7.6h2C11,15.1,11,15.5,11,16
	c0,1.4,0.5,2.6,1.4,3.6c1,1,2.1,1.5,3.5,1.5s2.5-0.5,3.5-1.5S20.8,17.4,20.8,16z M18.1,18.2c-0.6,0.6-1.3,0.9-2.2,0.9
	c-0.8,0-1.6-0.3-2.2-0.9c-0.6-0.6-0.9-1.4-0.9-2.2c0-0.9,0.3-1.6,0.9-2.2c0.6-0.6,1.3-0.9,2.2-0.9c0.8,0,1.6,0.3,2.2,0.9
	c0.6,0.6,0.9,1.4,0.9,2.2C19,16.9,18.7,17.6,18.1,18.2z M22.1,9c0.2,0,0.3,0.1,0.4,0.2c0.1,0.1,0.2,0.3,0.2,0.4v1.9
	c0,0.2-0.1,0.3-0.2,0.5c-0.1,0.1-0.3,0.2-0.4,0.2h-1.9c-0.2,0-0.3-0.1-0.4-0.2c-0.1-0.1-0.2-0.3-0.2-0.5V9.7c0-0.2,0.1-0.3,0.2-0.4
	C19.9,9.1,20.1,9,20.2,9C20.2,9,22.1,9,22.1,9z"/>
</svg>
