<svg height="56.693" width="56.693" xmlns="http://www.w3.org/2000/svg">
  <path d="M52.218 25.852h-7.512v-7.51c0-.573-.465-1.039-1.037-1.039H41.53a1.04 1.04 0 0 0-1.041 1.039v7.51h-7.512c-.572 0-1.039.467-1.039 1.041v2.139a1.04 1.04 0 0 0 1.039 1.039h7.512v7.514a1.04 1.04 0 0 0 1.041 1.039h2.139c.572 0 1.037-.465 1.037-1.039V30.07h7.512a1.04 1.04 0 0 0 1.039-1.039v-2.139a1.04 1.04 0 0 0-1.039-1.04z"/>
  <path d="M26.974 32.438c-1.58-1.119-3.016-2.76-3.041-3.264 0-.918.082-1.357 2.141-2.961 2.662-2.084 4.128-4.824 4.128-7.719 0-2.625-.802-4.957-2.167-6.595h1.059c.219 0 .434-.068.609-.196l2.955-2.141c.367-.263.521-.732.381-1.161a1.042 1.042 0 0 0-.988-.72H18.835c-1.446 0-2.915.255-4.357.751-4.816 1.661-8.184 5.765-8.184 9.978 0 5.969 4.624 10.493 10.805 10.635a5.623 5.623 0 0 0-.182 1.396c0 .92.233 1.791.713 2.633h-.17c-5.892 0-11.21 2.891-13.229 7.193-.526 1.119-.794 2.25-.794 3.367a6.33 6.33 0 0 0 .826 3.113c1.269 2.27 3.994 4.031 7.677 4.961 1.901.48 3.944.725 6.065.725 1.906 0 3.723-.246 5.403-.732 5.238-1.521 8.625-5.377 8.625-9.828-.001-4.271-1.374-6.828-5.059-9.435zm-16.691 9.777c0-3.107 3.947-5.832 8.446-5.832h.121c.979.012 1.934.156 2.834.432.309.213.607.416.893.611 2.084 1.42 3.461 2.357 3.844 3.861.09.379.135.758.135 1.125 0 3.869-2.885 5.83-8.578 5.83-4.315 0-7.695-2.646-7.695-6.027zm4.094-29.357c.703-.803 1.624-1.227 2.658-1.227l.117.002c2.921.086 5.716 3.341 6.23 7.256.289 2.192-.199 4.253-1.301 5.509-.705.805-1.613 1.229-2.689 1.229h-.049c-2.861-.088-5.716-3.467-6.227-7.377-.287-2.186.173-4.151 1.261-5.392z"/>
</svg>
