<?xml version="1.0" encoding="utf-8"?>
<!-- Generator: Adobe Illustrator 21.1.0, SVG Export Plug-In . SVG Version: 6.00 Build 0)  -->
<svg version="1.1" id="Layer_1" xmlns="http://www.w3.org/2000/svg" xmlns:xlink="http://www.w3.org/1999/xlink" x="0px" y="0px"
	 viewBox="0 0 32 32" style="enable-background:new 0 0 32 32;" xml:space="preserve">
<style type="text/css">
	.st0{fill:#64BC46;}
</style>
<path class="st0" d="M10.2,2C12,1.2,14,0.8,16,0.8s3.9,0.4,5.8,1.2c1.8,0.8,3.4,1.9,4.7,3.2c1.3,1.4,2.4,3,3.2,4.9
	c0.8,1.9,1.2,3.9,1.2,5.9c0,2.1-0.4,4-1.2,5.9c-0.8,1.9-1.8,3.5-3.2,4.9c-1.3,1.4-2.9,2.4-4.7,3.2c-1.8,0.8-3.7,1.2-5.8,1.2
	c-1.5,0-2.9-0.2-4.2-0.6c0.7-1.1,1.2-2.2,1.5-3.2l1-4.2c0.3,0.5,0.7,1,1.4,1.3c0.7,0.4,1.4,0.6,2.2,0.6c1.6,0,3-0.5,4.2-1.4
	c1.2-0.9,2.2-2.1,2.8-3.7c0.7-1.6,1-3.4,1-5.3c0-1.1-0.2-2.2-0.7-3.3c-0.5-1-1.1-2-1.9-2.8s-1.8-1.5-3-1.9C19.1,6.2,17.8,6,16.5,6
	c-1.4,0-2.6,0.2-3.8,0.6s-2.2,0.9-3,1.5s-1.5,1.4-2.1,2.2s-1,1.7-1.3,2.6C6.1,13.6,6,14.5,6,15.4C6,16.8,6.2,18,6.7,19
	s1.3,1.8,2.2,2.2c0.4,0.1,0.6,0,0.8-0.4c0-0.1,0.1-0.5,0.3-1.2c0-0.2,0-0.3,0-0.4S9.9,19,9.7,18.8c-0.6-0.8-1-1.8-1-3
	c0-1,0.2-1.9,0.5-2.8c0.3-0.9,0.8-1.7,1.4-2.3c0.6-0.7,1.4-1.2,2.3-1.6c0.9-0.4,1.9-0.6,3-0.6c1.9,0,3.4,0.5,4.5,1.6
	s1.6,2.5,1.6,4.2c0,1.5-0.2,2.8-0.6,4c-0.4,1.2-0.9,2.2-1.7,2.9c-0.7,0.7-1.5,1.1-2.5,1.1c-0.8,0-1.4-0.3-1.9-0.9s-0.6-1.3-0.4-2.1
	c0.1-0.5,0.3-1.1,0.5-1.9s0.4-1.5,0.6-2c0.1-0.6,0.2-1.1,0.2-1.5c0-0.7-0.2-1.2-0.5-1.6c-0.3-0.4-0.8-0.6-1.5-0.6
	c-0.8,0-1.5,0.4-2,1.1c-0.6,0.8-0.8,1.7-0.8,2.8c0,0.4,0,0.9,0.1,1.3s0.2,0.7,0.2,0.9l0.1,0.3c-1.1,4.7-1.7,7.5-1.9,8.3
	C10,27.5,10,28.7,10,30c-2.7-1.2-4.8-3.1-6.4-5.6S1.2,19.1,1.2,16c0-2.1,0.4-4,1.2-5.9s1.8-3.5,3.2-4.9C6.8,3.9,8.4,2.8,10.2,2z"/>
</svg>
