<svg id="strib-sports-motorsport" viewBox="0 0 16 16" width="16" height="16" fill="currentcolor" class="strib-icon strib-sports-motorsport" xmlns="http://www.w3.org/2000/svg" clip-rule="evenodd" fill-rule="evenodd">
  <path d="M8 2.604a6.125 6.125 0 0 0-3.967 10.792h7.934a6.13 6.13 0 0 0 1.927-2.999A6.123 6.123 0 0 0 8 2.604m-4.042.41a7 7 0 0 1 8.442 11.16.44.44 0 0 1-.275.097h-8.25a.44.44 0 0 1-.275-.097 7.005 7.005 0 0 1-2.2-7.778 7 7 0 0 1 2.558-3.382"/>
  <path d="M13.123 5.372c.506.139.619.453.479.88H7.375s-.084-.006-.167.054a.28.28 0 0 0-.119.275c.033.219.325 1.174.831 1.779 1.157 1.384 3.386 1.984 5.58 2.102.239.013.372.012.372.012.058.316-.044.607-.333.871l-.039-.002s-.331-.016-.365-.019c-4.843-.401-6.268-2.473-6.729-3.949-.239-.763-.263-.939-.067-1.375a1.16 1.16 0 0 1 .714-.581c.212-.055.19-.04.328-.047z"/>
</svg>