<svg id="strib-sports-high-school-filled" viewBox="0 0 16 16" width="16" height="16" fill="currentcolor" class="strib-icon strib-sports-high-school-filled" xmlns="http://www.w3.org/2000/svg" clip-rule="evenodd" fill-rule="evenodd">
  <path d="M8.147 3.009a.4.4 0 0 0-.294 0L1.249 5.651a.398.398 0 0 0 0 .736l2.393.957v3.298c0 .751.587 1.359 1.379 1.755.811.405 1.882.622 2.979.622s2.168-.217 2.979-.622c.792-.396 1.38-1.004 1.38-1.755V7.344l1.849-.74v3.377c0 .217.179.396.396.396A.4.4 0 0 0 15 9.981V6.019a.4.4 0 0 0-.249-.368zM8 8.234l3.566-1.426v.853L8.147 9.028h-.294L4.434 7.661v-.854z"/>
</svg>