<svg id="strib-sports-basketball-filled" viewBox="0 0 16 16" width="16" height="16" fill="currentcolor" class="strib-icon strib-sports-basketball-filled" xmlns="http://www.w3.org/2000/svg" clip-rule="evenodd" fill-rule="evenodd">
  <path d="M1.003 8.545a7.03 7.03 0 0 0 1.68 4.035l2.356-2.356a7 7 0 0 0-4.036-1.68m4.778.938A8.07 8.07 0 0 0 1 7.494 7 7 0 0 1 2.683 3.42L7.263 8zm-.002 1.483L3.423 13.32a7 7 0 0 0 1.891 1.164 7 7 0 0 0 2.141.513 7 7 0 0 0-1.676-4.032M8.505 15a8.07 8.07 0 0 0-1.984-4.778l1.483-1.481 4.577 4.577A7.03 7.03 0 0 1 8.505 15M5.315 1.516A7 7 0 0 1 7.494 1a8.07 8.07 0 0 0 1.987 4.78L8.004 7.26l-4.58-4.58a7 7 0 0 1 1.89-1.163m3.231-.513a7 7 0 0 0 1.68 4.035l2.355-2.356a7 7 0 0 0-4.035-1.68M8.745 8l1.478-1.478A8.07 8.07 0 0 0 15 8.505a7 7 0 0 1-1.68 4.071zm2.22-2.22a7 7 0 0 0 4.032 1.675 7 7 0 0 0-1.676-4.03z"/>
</svg>