<svg id="strib-sports-baseball-filled" viewBox="0 0 16 16" width="16" height="16" fill="currentcolor" class="strib-icon strib-sports-baseball-filled" xmlns="http://www.w3.org/2000/svg" clip-rule="evenodd" fill-rule="evenodd">
  <path d="M3.05 3.05A7 7 0 0 1 7.904 1a7 7 0 0 1-.452 2.379l-.051-.025a.522.522 0 1 0-.467.934l.076.039c-.228.406-.496.79-.801 1.143l-.347-.347a.523.523 0 0 0-.739.739l.347.347a7 7 0 0 1-1.142.8l-.039-.078a.522.522 0 1 0-.934.468l.026.051A7 7 0 0 1 1 7.902 7 7 0 0 1 3.05 3.05m.8 5.339-.069.027a8 8 0 0 1-2.717.53 7 7 0 0 0 5.994 5.991 8 8 0 0 1 .53-2.715l.027-.07-.681-.341a.522.522 0 1 1 .467-.934l.659.329q.42-.76.994-1.414l-.586-.586a.523.523 0 0 1 .739-.739l.586.586a8 8 0 0 1 1.415-.995l-.33-.659a.522.522 0 1 1 .935-.468l.34.681.073-.028a8 8 0 0 1 2.711-.53A7 7 0 0 0 12.95 3.05a7 7 0 0 0-4.002-1.986 8 8 0 0 1-.53 2.714l-.027.071.682.341a.522.522 0 1 1-.468.934l-.659-.33c-.28.507-.614.982-.996 1.417l.583.584a.521.521 0 1 1-.738.738l-.584-.583a8 8 0 0 1-1.415.994l.329.659a.522.522 0 1 1-.934.467zm4.704 4.232.051.026a.522.522 0 1 0 .468-.934l-.077-.039q.342-.61.799-1.141l.345.344a.521.521 0 1 0 .739-.738l-.346-.346a7 7 0 0 1 1.142-.8l.039.077a.522.522 0 1 0 .934-.467l-.026-.052A7 7 0 0 1 15 8.098 7 7 0 0 1 8.102 15a7 7 0 0 1 .452-2.379"/>
</svg>