<svg id="strib-sports-football-filled" viewBox="0 0 16 16" width="16" height="16" fill="currentcolor" class="strib-icon strib-sports-football-filled" xmlns="http://www.w3.org/2000/svg" clip-rule="evenodd" fill-rule="evenodd">
  <path d="m7.951 8.908.811.811-.746.746-.811-.812-1.622 1.623-.746-.746 1.622-1.622-.811-.811.746-.746.811.811.877-.876-.811-.812.745-.744.811.81 1.622-1.621.745.745-1.621 1.622.81.811-.744.745-.812-.811zm-6.446 5.638c.048.042.165.116.386.193.227.078.53.148.9.196.737.094 1.7.096 2.793-.06l.163-.028-4.561-4.562A12 12 0 0 0 1 12.315c0 .576.059 1.101.158 1.507.107.438.237.631.293.677l.023.017.021.021zM4.171 4.253c-1.398 1.398-2.247 3.15-2.71 4.817l5.509 5.508c1.449-.387 3.316-1.144 4.89-2.718 1.528-1.528 2.286-3.333 2.683-4.762L8.941 1.496c-1.653.485-3.373 1.36-4.77 2.757m10.651 1.632.054-.303c.155-1.05.153-1.992.059-2.731a5 5 0 0 0-.198-.921 1.6 1.6 0 0 0-.213-.448c-.074-.063-.265-.168-.626-.267A7.3 7.3 0 0 0 12.539 1h-.306c-.635 0-1.345.064-2.091.206z"/>
</svg>