<svg id="strib-sports-score" viewBox="0 0 16 16" width="16" height="16" fill="currentcolor" class="strib-icon strib-sports-score" xmlns="http://www.w3.org/2000/svg" clip-rule="evenodd" fill-rule="evenodd">
  <path d="M11.258 6.063a1.57 1.57 0 0 1 1.574 1.575v2.17a1.576 1.576 0 0 1-2.688 1.114 1.58 1.58 0 0 1-.461-1.114v-2.17a1.575 1.575 0 0 1 1.575-1.575m-.421 1.154a.6.6 0 0 0-.175.421v2.17a.593.593 0 0 0 .596.596.597.597 0 0 0 .595-.596v-2.17a.6.6 0 0 0-.595-.595.6.6 0 0 0-.421.174m-7.204-.692a1.576 1.576 0 0 1 2.688 1.114v2.17a1.57 1.57 0 0 1-1.574 1.574 1.57 1.57 0 0 1-1.575-1.574v-2.17c0-.418.166-.819.461-1.114m1.114.518a.593.593 0 0 0-.596.596v2.17a.595.595 0 0 0 1.191 0v-2.17a.596.596 0 0 0-.595-.596"/>
  <path d="M4.877 3.17h6.252V1.724h.98V3.17h2.401a.49.49 0 0 1 .49.49v10.127a.49.49 0 0 1-.49.489H1.49a.49.49 0 0 1-.49-.489V3.66a.49.49 0 0 1 .49-.49h2.407V1.724h.98zm2.634 1.849h.98v8.278h5.529V4.149l-1.911.001h-.98l-2.638-.001v.87zv-.87l-2.634.001h-.98L1.98 4.149v9.148h5.531z"/>
</svg>