<svg id="star-filled" viewBox="0 0 16 16" xmlns="http://www.w3.org/2000/svg">
  <path fill="var(--strib-icon-color, #0d0d0d)" fill-rule="evenodd" clip-rule="evenodd" d="M8.411,1.101C8.334,0.944 8.174,0.845 8,0.845C7.826,0.845 7.666,0.944 7.589,1.101L5.52,5.294L0.893,5.964C0.72,5.989 0.576,6.11 0.522,6.276C0.469,6.442 0.514,6.625 0.639,6.746L3.992,10.01L3.201,14.619C3.171,14.791 3.242,14.965 3.383,15.067C3.524,15.17 3.712,15.183 3.866,15.102L8.005,12.926L12.134,15.102C12.288,15.183 12.475,15.17 12.617,15.067C12.758,14.965 12.828,14.791 12.799,14.619L12.008,10.01L15.361,6.746C15.486,6.625 15.531,6.442 15.478,6.276C15.424,6.11 15.28,5.989 15.107,5.964L10.48,5.294L8.411,1.101Z"/>
</svg>
