<svg id="star" viewBox="0 0 16 16" xmlns="http://www.w3.org/2000/svg">
  <path fill="var(--strib-icon-color, #0d0d0d)" fill-rule="evenodd" clip-rule="evenodd" d="M8,0.845C8.174,0.845 8.334,0.944 8.411,1.101L10.48,5.294L15.107,5.964C15.28,5.989 15.424,6.11 15.478,6.276C15.531,6.442 15.486,6.625 15.361,6.746L12.008,10.01L12.799,14.619C12.828,14.791 12.758,14.965 12.617,15.067C12.475,15.17 12.288,15.183 12.134,15.102L8.005,12.926L3.866,15.102C3.712,15.183 3.524,15.17 3.383,15.067C3.242,14.965 3.171,14.791 3.201,14.619L3.992,10.01L0.639,6.746C0.514,6.625 0.469,6.442 0.522,6.276C0.576,6.11 0.72,5.989 0.893,5.964L5.52,5.294L7.589,1.101C7.666,0.944 7.826,0.845 8,0.845ZM8,2.339L6.235,5.916C6.168,6.051 6.039,6.145 5.89,6.166L1.944,6.738L4.804,9.522C4.912,9.627 4.961,9.779 4.936,9.927L4.262,13.859L7.792,12.003C7.925,11.932 8.085,11.932 8.219,12.003L11.738,13.857L11.064,9.927C11.039,9.779 11.088,9.627 11.196,9.522L14.056,6.738L10.11,6.166C9.961,6.145 9.832,6.051 9.765,5.916L8,2.339Z"/>
</svg>
