<?xml version="1.0" encoding="utf-8"?>
<!-- Generator: Adobe Illustrator 18.1.1, SVG Export Plug-In . SVG Version: 6.00 Build 0)  -->
<!DOCTYPE svg PUBLIC "-//W3C//DTD SVG 1.1//EN" "http://www.w3.org/Graphics/SVG/1.1/DTD/svg11.dtd">
<svg version="1.1" id="Layer_1" xmlns="http://www.w3.org/2000/svg" xmlns:xlink="http://www.w3.org/1999/xlink" x="0px" y="0px"
	 viewBox="0 0 160 25" style="enable-background:new 0 0 160 25;" xml:space="preserve">
<polygon class="st0" points="13.9,0.9 11.1,10.1 0.9,10.1 9.3,15.1 16.6,10 	"/>
<polygon class="st1" points="16.8,10.1 5.9,24.1 13.9,18.3 21.9,24.1 18.4,15.2 26.8,10.1 	"/>
<path class="st2" d="M63.5,20c-0.6,0.8-1.6,1.6-3,1.6c-1.1,0-1.7-0.4-1.7-1.4c0-1.2,1.2-2,3.2-2.3c0.4-0.1,0.9-0.1,1.4-0.2
				L63.5,20L63.5,20z M67.6,21.5v-5.9c0-2.8-1.3-4.6-5.9-4.6c-4,0-6.2,1.3-6.9,3.9l3.9,0.3c0.3-1.1,1-1.6,2.6-1.6
				c1.5,0,2.1,0.6,2.2,1.6c0,0.1,0,0.5,0,0.6c-0.6,0-1.1,0.1-1.6,0.1c-4.7,0.4-7.4,1.9-7.4,4.7c0,2.2,1.7,3.5,4.2,3.5
				c2.4,0,3.8-0.7,5-1.8c0,0.7,0.1,1.4,0.2,1.6h4C67.7,23.5,67.6,22.2,67.6,21.5"/>
	<path class="st3" d="M45,11.1h1.6l0.3-3.9h3.8v3.9h2.8v2.7h-2.8v5.5c0,1,0.4,1.6,1.4,1.7c0.5,0.1,1,0.1,1.6,0v3
				c-0.7,0.1-1.6,0.2-2.5,0.2c-3.1,0-4.7-1.4-4.7-4.1v-6.2H45V11.1z"/>
	<path class="st4" d="M69.4,11.1h4.1v2.8c0.6-1.5,2.2-2.9,4.2-2.9c0.4,0,0.8,0,1,0.1v3.2c-0.3-0.1-0.9-0.1-1.2-0.1
				c-1.6,0-3,0.8-3.7,2.1v7.5h-4.3L69.4,11.1L69.4,11.1z"/>
	<path class="st5" d="M29.3,19.5l3.6-1.3c0.7,1.7,1.9,2.7,4.4,2.7c1.8,0,3-0.7,3-1.9c0-1.6-2-2-4.2-2.5C33.3,15.8,30,14.9,30,11
				c0-3,2.7-5.1,7.1-5.1c3.9,0,6.1,1.6,7.2,4.3l-3.8,1.1c-0.5-1.5-1.7-2.1-3.4-2.1c-1.5,0-2.5,0.6-2.5,1.6c0,1.6,1.8,1.8,4.3,2.4
				c3,0.7,5.9,1.8,5.9,5.4c0,3.1-2.4,5.4-7.3,5.4C32.5,24.1,30.3,22.1,29.3,19.5"/>
	<polygon points="75.7,6.2 75.7,9.5 80.4,9.5 80.4,23.9 84.7,23.9 84.7,9.5 89.4,9.5 89.4,6.2 	"/>
	<path class="st6" d="M86.5,11.1h4v2.8c0.6-1.5,2.2-2.9,4.2-2.9c0.4,0,0.8,0,1,0.1v3.2c-0.3-0.1-0.9-0.1-1.2-0.1
				c-1.6,0-3,0.8-3.7,2.1v7.5h-4.3V11.1z"/>
	<path class="st7" d="M110,22c-1.4,0-2.3-1.2-2.3-3v-3.4c0.3-1.2,1.1-1.9,2.3-1.9c1.6,0,2.2,1.3,2.2,4C112.2,20.5,111.6,22,110,22
				 M111.8,10.9c-2.1,0-3.3,1.1-4.1,2.2V6.2h-4.2v17.7h2.6l0.6-1.9c1,1.3,2.3,2.1,4.5,2.1c3.2,0,5.4-2.2,5.4-6.6
				C116.6,13.2,114.9,10.9,111.8,10.9"/>
	<path class="st8" d="M117.8,20v-8.9h4.2v8.7c0,1.2,0.5,1.7,1.7,1.7c1,0,1.7-0.6,2.2-1.5v-8.9h4.2v12.8H126V22
				c-0.9,1.4-2.4,2-4.3,2C119.5,24.1,117.8,22.9,117.8,20"/>
	<path class="st9" d="M131.9,11.1h4.1v2.1c0.8-1.1,2.1-2.3,4.4-2.3c2.8,0,3.9,1.6,3.9,4v9H140V15c0-0.8-0.4-1.4-1.5-1.4
				s-1.9,0.7-2.4,1.5v8.8h-4.2L131.9,11.1L131.9,11.1z"/>
	<path class="st10" d="M154.8,16.2c-0.1-1.7-0.9-2.8-2.5-2.8c-1.4,0-2.4,1-2.6,2.8H154.8z M145.3,17.7c0-4.1,3.2-6.8,7-6.8
				c4.2,0,6.7,2.6,6.8,6.6c0,0.3,0,0.5,0,0.8h-9.3c0.1,2.3,1.3,3.3,3,3.3c1.4,0,2.2-0.6,2.7-1.9l3.5,0.4c-0.9,2.4-3.1,4-6.6,4
				C148.2,24.1,145.3,21.6,145.3,17.7"/>
	<polygon points="97.5,6.2 101.7,6.2 101.7,9.5 97.5,9.5 	"/>
	<rect x="97.5" y="11.1" width="4.3" height="12.8"/>
</svg>
