<?xml version="1.0" encoding="utf-8"?>
<!-- Generator: Adobe Illustrator 18.1.1, SVG Export Plug-In . SVG Version: 6.00 Build 0)  -->
<!DOCTYPE svg PUBLIC "-//W3C//DTD SVG 1.1//EN" "http://www.w3.org/Graphics/SVG/1.1/DTD/svg11.dtd">
<svg version="1.1" id="Layer_1" xmlns="http://www.w3.org/2000/svg" xmlns:xlink="http://www.w3.org/1999/xlink" x="0px" y="0px"
	 width="420px" height="60px" viewBox="0 0 420 60" style="enable-background:new 0 0 420 60;" xml:space="preserve">
<style type="text/css">
	.st0{fill:#353535;}
	.st1{fill:#8DC63F;}
	.st2{fill:#005826;}
	.st3{fill:none;stroke:#A2B7A9;stroke-width:2;stroke-miterlimit:10;}
	.st4{fill:none;}
	.st5{opacity:0.5;}
	.st6{fill:#0C0608;}
	.st7{fill:#63BC46;}
	.st8{fill:#00834B;}
</style>
<path class="st6" d="M111.2,46.1c-1.8,2.7-5.1,5.2-9.6,5.2c-3.4,0-5.5-1.4-5.5-4.5c0-3.9,3.8-6.3,10.5-7.4c1.4-0.2,3-0.4,4.7-0.5
	V46.1z M124.3,50.7V31.7c0-8.9-4.2-14.9-18.9-14.9c-12.8,0-20.1,4.2-22.2,12.5l12.5,1.1c0.9-3.5,3.3-5.2,8.4-5.2c4.8,0,6.8,2,7,5.2
	c0,0.3,0.1,1.6,0.1,2c-1.8,0.1-3.6,0.3-5.3,0.4C90.7,34.2,82,38.8,82,48c0,7,5.4,11.3,13.4,11.3c7.7,0,12.3-2.2,16.1-5.8
	c0,2.3,0.2,4.4,0.7,5.3h13C124.5,57.1,124.3,53.1,124.3,50.7"/>
<path class="st6" d="M51.4,17.4h5.2l0.9-12.6h12.3v12.6h9v8.7h-9v17.9c0,3.2,1.4,5.1,4.7,5.5c1.7,0.2,3.3,0.2,5.2,0v9.2
	c-2.1,0.2-5.2,0.5-7.9,0.5c-9.9,0-15.2-4.4-15.2-13.1v-20h-5.1V17.4z"/>
<path class="st6" d="M130,17.4h13.1v9c2-4.9,7.2-9.4,13.6-9.4c1.3,0,2.5,0.1,3.2,0.3v10.4c-0.9-0.2-2.8-0.3-4-0.3
	c-5.2,0-9.6,2.5-12,6.9v24.3H130V17.4z"/>
<path class="st6" d="M0.6,44.3L12.1,40c2.4,5.5,6.2,8.8,14.2,8.8c5.8,0,9.6-2.3,9.6-6c0-5.2-6.5-6.4-13.6-8.1
	c-9.1-2.1-19.6-5.1-19.6-17.6c0-9.6,8.6-16.4,22.8-16.4c12.5,0,19.7,5.3,23.1,14l-12.3,3.6c-1.7-4.7-5.6-6.8-11-6.8
	c-4.9,0-8.1,2-8.1,5.3c0,5,5.8,6,13.9,7.8c9.8,2.2,19,5.7,19,17.5c0,10-7.7,17.3-23.5,17.3C11,59.3,4.1,52.8,0.6,44.3"/>
<polygon class="st6" points="150.5,1.5 150.5,12 165.6,12 165.6,58.7 179.4,58.7 179.4,12 194.7,12 194.7,1.5 "/>
<path class="st6" d="M185.2,17.4h13v9c2-4.9,7.2-9.4,13.6-9.4c1.3,0,2.5,0.1,3.2,0.3v10.4c-0.9-0.2-2.8-0.3-4-0.3
	c-5.2,0-9.6,2.5-12,6.9v24.3h-13.8V17.4z"/>
<path class="st6" d="M261,52.3c-4.6,0-7.3-3.8-7.3-9.8V31.7c1-4,3.4-6.2,7.4-6.2c5.3,0,7.2,4.2,7.2,12.9
	C268.2,47.7,266.3,52.3,261,52.3 M266.8,16.7c-6.8,0-10.8,3.5-13.3,7.1V1.5h-13.4v57.2h8.3l1.9-6.1c3.3,4.2,7.3,6.7,14.4,6.7
	c10.4,0,17.6-7.2,17.6-21.3C282.3,23.9,276.9,16.7,266.8,16.7"/>
<path class="st6" d="M286.3,46.2V17.4H300v28.1c0,3.9,1.8,5.4,5.4,5.4c3.2,0,5.6-2.1,7-4.8V17.4h13.7v41.3h-13.2l0.1-6
	c-3,4.4-7.7,6.6-14,6.6C291.6,59.3,286.3,55.3,286.3,46.2"/>
<path class="st6" d="M331.8,17.4H345l0,6.8c2.5-3.4,6.7-7.6,14-7.6c9,0,12.6,5.1,12.6,13v29h-13.6V30.1c0-2.6-1.4-4.5-4.7-4.5
	c-3.6,0-6,2.3-7.7,4.8v28.3h-13.6V17.4z"/>
<path class="st6" d="M405.7,33.7c-0.4-5.6-3-9-8.1-9c-4.4,0-7.9,3.3-8.3,9H405.7z M374.9,38.6c0-13.3,10.4-22,22.5-22
	c13.6,0,21.6,8.5,22,21.3c0,0.9,0,1.6-0.1,2.5h-30.1c0.2,7.4,4.2,10.6,9.6,10.6c4.4,0,7.2-2.1,8.8-6.2l11.3,1.4
	c-2.9,7.8-10.1,13-21.3,13C384.4,59.3,374.9,51.2,374.9,38.6"/>
<polygon class="st6" points="220.7,1.5 234.4,1.5 234.4,12 220.7,12 "/>
<rect x="220.7" y="17.4" class="st6" width="13.7" height="41.3"/>
</svg>
