<svg id="Layer_1" xmlns="http://www.w3.org/2000/svg" width="420" height="60"><style>.st6{fill:#0c0608}</style><path class="st6" d="M111.2 46.1c-1.8 2.7-5.1 5.2-9.6 5.2-3.4 0-5.5-1.4-5.5-4.5 0-3.9 3.8-6.3 10.5-7.4 1.4-.2 3-.4 4.7-.5v7.2zm13.1 4.6v-19c0-8.9-4.2-14.9-18.9-14.9-12.8 0-20.1 4.2-22.2 12.5l12.5 1.1c.9-3.5 3.3-5.2 8.4-5.2 4.8 0 6.8 2 7 5.2 0 .3.1 1.6.1 2-1.8.1-3.6.3-5.3.4C90.7 34.2 82 38.8 82 48c0 7 5.4 11.3 13.4 11.3 7.7 0 12.3-2.2 16.1-5.8 0 2.3.2 4.4.7 5.3h13c-.7-1.7-.9-5.7-.9-8.1M51.4 17.4h5.2l.9-12.6h12.3v12.6h9v8.7h-9V44c0 3.2 1.4 5.1 4.7 5.5 1.7.2 3.3.2 5.2 0v9.2c-2.1.2-5.2.5-7.9.5-9.9 0-15.2-4.4-15.2-13.1v-20h-5.1v-8.7zm78.6 0h13.1v9c2-4.9 7.2-9.4 13.6-9.4 1.3 0 2.5.1 3.2.3v10.4c-.9-.2-2.8-.3-4-.3-5.2 0-9.6 2.5-12 6.9v24.3H130V17.4zM.6 44.3L12.1 40c2.4 5.5 6.2 8.8 14.2 8.8 5.8 0 9.6-2.3 9.6-6 0-5.2-6.5-6.4-13.6-8.1-9.1-2.1-19.6-5.1-19.6-17.6C2.7 7.5 11.3.7 25.5.7 38 .7 45.2 6 48.6 14.7l-12.3 3.6c-1.7-4.7-5.6-6.8-11-6.8-4.9 0-8.1 2-8.1 5.3 0 5 5.8 6 13.9 7.8 9.8 2.2 19 5.7 19 17.5 0 10-7.7 17.3-23.5 17.3C11 59.3 4.1 52.8.6 44.3"/><path class="st6" d="M150.5 1.5V12h15.1v46.7h13.8V12h15.3V1.5z"/><path class="st6" d="M185.2 17.4h13v9c2-4.9 7.2-9.4 13.6-9.4 1.3 0 2.5.1 3.2.3v10.4c-.9-.2-2.8-.3-4-.3-5.2 0-9.6 2.5-12 6.9v24.3h-13.8V17.4zM261 52.3c-4.6 0-7.3-3.8-7.3-9.8V31.7c1-4 3.4-6.2 7.4-6.2 5.3 0 7.2 4.2 7.2 12.9-.1 9.3-2 13.9-7.3 13.9m5.8-35.6c-6.8 0-10.8 3.5-13.3 7.1V1.5h-13.4v57.2h8.3l1.9-6.1c3.3 4.2 7.3 6.7 14.4 6.7 10.4 0 17.6-7.2 17.6-21.3 0-14.1-5.4-21.3-15.5-21.3m19.5 29.5V17.4H300v28.1c0 3.9 1.8 5.4 5.4 5.4 3.2 0 5.6-2.1 7-4.8V17.4h13.7v41.3h-13.2l.1-6c-3 4.4-7.7 6.6-14 6.6-7.4 0-12.7-4-12.7-13.1m45.5-28.8H345v6.8c2.5-3.4 6.7-7.6 14-7.6 9 0 12.6 5.1 12.6 13v29H358V30.1c0-2.6-1.4-4.5-4.7-4.5-3.6 0-6 2.3-7.7 4.8v28.3H332V17.4zm73.9 16.3c-.4-5.6-3-9-8.1-9-4.4 0-7.9 3.3-8.3 9h16.4zm-30.8 4.9c0-13.3 10.4-22 22.5-22 13.6 0 21.6 8.5 22 21.3 0 .9 0 1.6-.1 2.5h-30.1c.2 7.4 4.2 10.6 9.6 10.6 4.4 0 7.2-2.1 8.8-6.2l11.3 1.4c-2.9 7.8-10.1 13-21.3 13-13.2.1-22.7-8-22.7-20.6M220.7 1.5h13.7V12h-13.7zm0 15.9h13.7v41.3h-13.7z"/></svg>