<svg id="text-size" viewBox="0 0 16 16" xmlns="http://www.w3.org/2000/svg">
  <path fill="var(--strib-icon-color, #0d0d0d)" fill-rule="evenodd" clip-rule="evenodd" d="M1.041,2.046C0.742,2.046 0.5,2.289 0.5,2.588L0.5,4.675L1.582,4.675L1.582,3.129L5.526,3.129L5.526,12.871L3.979,12.871L3.979,13.954L8.155,13.954L8.155,12.871L6.608,12.871L6.608,3.129L10.552,3.129L10.552,4.675L11.634,4.675L11.634,2.588C11.634,2.289 11.392,2.046 11.093,2.046L1.041,2.046ZM10.32,7.459C10.021,7.459 9.778,7.701 9.778,8L9.778,9.314L10.861,9.314L10.861,8.541L12.098,8.541L12.098,12.871L11.325,12.871L11.325,13.954L13.954,13.954L13.954,12.871L13.18,12.871L13.18,8.541L14.418,8.541L14.418,9.314L15.5,9.314L15.5,8C15.5,7.701 15.258,7.459 14.959,7.459L10.32,7.459Z"/>
</svg>
