<svg id="thumbs-up" viewBox="0 0 16 16" xmlns="http://www.w3.org/2000/svg">
  <path fill="var(--strib-icon-color, #0d0d0d)" fill-rule="evenodd" clip-rule="evenodd" d="M13.389,5.583L10.167,5.583L10.167,2.361C10.166,1.934 9.996,1.524 9.694,1.222C9.392,0.92 8.983,0.75 8.556,0.75L7.41,0.75C7.152,0.751 6.903,0.845 6.707,1.014C6.512,1.183 6.384,1.417 6.347,1.672L5.893,4.85L3.972,7.731L0.5,7.731L0.5,15.25L11.778,15.25C12.774,15.249 13.73,14.852 14.435,14.148C15.139,13.443 15.536,12.487 15.537,11.491L15.537,7.731C15.536,7.162 15.31,6.616 14.907,6.213C14.504,5.811 13.958,5.584 13.389,5.583ZM3.722,14.176L1.574,14.176L1.574,8.806L3.722,8.806L3.722,14.176ZM14.463,11.491C14.462,12.203 14.179,12.885 13.676,13.389C13.172,13.892 12.49,14.175 11.778,14.176L4.796,14.176L4.796,8.431L6.922,5.243L7.411,1.824L8.556,1.824C8.698,1.824 8.835,1.881 8.935,1.981C9.036,2.082 9.093,2.219 9.093,2.361L9.093,6.657L13.389,6.657C13.674,6.658 13.947,6.771 14.148,6.972C14.349,7.174 14.463,7.447 14.463,7.731L14.463,11.491Z"/>
</svg>
