<svg id="thumbs-down" viewBox="0 0 16 16" xmlns="http://www.w3.org/2000/svg">
  <path fill="var(--strib-icon-color, #0d0d0d)" fill-rule="evenodd" clip-rule="evenodd" d="M15.5,8.268L15.5,4.518C15.499,3.524 15.103,2.57 14.4,1.867C13.697,1.164 12.744,0.769 11.75,0.768L0.5,0.768L0.5,8.268L3.963,8.268L5.88,11.143L6.333,14.312C6.37,14.567 6.498,14.8 6.693,14.969C6.887,15.138 7.136,15.231 7.394,15.232L8.536,15.232C8.962,15.232 9.37,15.062 9.672,14.761C9.973,14.46 10.142,14.051 10.143,13.625L10.143,10.411L13.357,10.411C13.925,10.41 14.47,10.184 14.872,9.782C15.273,9.381 15.499,8.836 15.5,8.268ZM3.714,7.196L1.571,7.196L1.571,1.839L3.714,1.839L3.714,7.196ZM14.429,8.268C14.428,8.552 14.315,8.824 14.114,9.025C13.914,9.226 13.641,9.339 13.357,9.339L9.071,9.339L9.071,13.625C9.071,13.767 9.015,13.903 8.915,14.004C8.814,14.104 8.678,14.161 8.536,14.161L7.393,14.161L6.906,10.75L4.786,7.57L4.786,1.839L11.75,1.839C12.46,1.84 13.141,2.123 13.643,2.625C14.145,3.127 14.428,3.808 14.429,4.518L14.429,8.268Z"/>
</svg>
