<svg id="thumbs-down-filled" viewBox="0 0 16 16" xmlns="http://www.w3.org/2000/svg">
  <path fill="var(--strib-icon-color, #0d0d0d)" fill-rule="evenodd" clip-rule="evenodd" d="M0.5,0.75L3.185,0.75L3.185,8.269L0.5,8.269L0.5,0.75ZM11.778,0.75L4.259,0.75L4.259,8.7L5.893,11.15L6.347,14.328C6.384,14.583 6.512,14.817 6.707,14.986C6.903,15.155 7.152,15.249 7.41,15.25L7.481,15.25C7.909,15.25 8.318,15.08 8.62,14.778C8.922,14.476 9.092,14.066 9.093,13.639L9.093,10.417L13.389,10.417C13.958,10.416 14.504,10.189 14.907,9.787C15.31,9.384 15.536,8.838 15.537,8.269L15.537,4.509C15.536,3.513 15.139,2.557 14.435,1.852C13.73,1.148 12.774,0.751 11.778,0.75Z"/>
</svg>
