<svg id="thumbs-up-filled" viewBox="0 0 16 16" xmlns="http://www.w3.org/2000/svg">
  <path fill="var(--strib-icon-color, #0d0d0d)" fill-rule="evenodd" clip-rule="evenodd" d="M0.5,7.731L3.185,7.731L3.185,15.25L0.5,15.25L0.5,7.731ZM11.778,15.25L4.259,15.25L4.259,7.3L5.893,4.85L6.347,1.672C6.384,1.417 6.512,1.183 6.707,1.014C6.903,0.845 7.152,0.751 7.41,0.75L7.481,0.75C7.909,0.75 8.318,0.92 8.62,1.222C8.922,1.524 9.092,1.934 9.093,2.361L9.093,5.583L13.389,5.583C13.958,5.584 14.504,5.811 14.907,6.213C15.31,6.616 15.536,7.162 15.537,7.731L15.537,11.491C15.536,12.487 15.139,13.443 14.435,14.148C13.73,14.852 12.774,15.249 11.778,15.25Z"/>
</svg>
