<svg id="ticket" viewBox="0 0 16 16" xmlns="http://www.w3.org/2000/svg">
  <path fill="var(--strib-icon-color, #0d0d0d)" fill-rule="evenodd" clip-rule="evenodd" d="M15.343,6.772C15.243,6.872 15.106,6.929 14.964,6.929C14.68,6.929 14.408,7.041 14.207,7.242C14.006,7.443 13.893,7.716 13.893,8C13.893,8.284 14.006,8.557 14.207,8.758C14.408,8.959 14.68,9.071 14.964,9.071C15.106,9.071 15.243,9.128 15.343,9.228C15.444,9.329 15.5,9.465 15.5,9.607L15.5,12.286C15.5,12.57 15.387,12.842 15.186,13.043C14.985,13.244 14.713,13.357 14.429,13.357L1.571,13.357C1.287,13.357 1.015,13.244 0.814,13.043C0.613,12.842 0.5,12.57 0.5,12.286L0.5,9.607C0.5,9.465 0.556,9.329 0.657,9.228C0.757,9.128 0.894,9.071 1.036,9.071C1.32,9.071 1.592,8.959 1.793,8.758C1.994,8.557 2.107,8.284 2.107,8C2.107,7.716 1.994,7.443 1.793,7.242C1.592,7.041 1.32,6.929 1.036,6.929C0.894,6.929 0.757,6.872 0.657,6.772C0.556,6.671 0.5,6.535 0.5,6.393L0.5,3.714C0.5,3.43 0.613,3.158 0.814,2.957C1.015,2.756 1.287,2.643 1.571,2.643L14.429,2.643C14.713,2.643 14.985,2.756 15.186,2.957C15.387,3.158 15.5,3.43 15.5,3.714L15.5,6.393C15.5,6.535 15.444,6.671 15.343,6.772ZM14.429,12.286L14.429,10.073C13.97,9.953 13.564,9.685 13.274,9.31C12.985,8.935 12.828,8.474 12.828,8C12.828,7.526 12.985,7.065 13.274,6.69C13.564,6.315 13.97,6.047 14.429,5.927L14.429,3.714L10.679,3.714L10.679,5.321L9.607,5.321L9.607,3.714L1.571,3.714L1.571,5.927C2.03,6.047 2.436,6.315 2.726,6.69C3.015,7.065 3.172,7.526 3.172,8C3.172,8.474 3.015,8.935 2.726,9.31C2.436,9.685 2.03,9.953 1.571,10.073L1.571,12.286L9.607,12.286L9.607,10.679L10.679,10.679L10.679,12.286L14.429,12.286ZM9.607,6.393L10.679,6.393L10.679,9.607L9.607,9.607L9.607,6.393Z"/>
</svg>
