<svg id="strib-trash-filled" viewBox="0 0 16 16" width="16" height="16" fill="currentcolor" class="strib-icon strib-trash-filled" xmlns="http://www.w3.org/2000/svg" clip-rule="evenodd" fill-rule="evenodd">
  <path d="m2.828 8.984-.342-4.113h-.274a.49.49 0 0 1-.488-.489.493.493 0 0 1 .488-.488h3.129v-.12h.977v.12h3.364v-.12h.977v.12h3.129c.254.02.452.234.452.489a.49.49 0 0 1-.452.488h-.274l-.342 4.113H9.935V7.277a.493.493 0 0 0-.488-.488.493.493 0 0 0-.488.488v1.707H7.041V7.277a.488.488 0 1 0-.976 0v1.707z"/>
  <path d="M5.341 3.774V2.21c0-.664.546-1.21 1.21-1.21h2.898c.664 0 1.21.546 1.21 1.21v1.564h-.977V2.21a.237.237 0 0 0-.234-.234H6.553a.23.23 0 0 0-.166.069.24.24 0 0 0-.069.167v1.562zm7.831 5.21-.342 4.102A1.953 1.953 0 0 1 10.894 15H5.106a1.953 1.953 0 0 1-1.936-1.914l-.342-4.102h3.237v2.633a.493.493 0 0 0 .488.488.493.493 0 0 0 .488-.488V8.984h1.918v2.633a.493.493 0 0 0 .488.488.493.493 0 0 0 .488-.488V8.984z"/>
</svg>