<svg id="strib-trash" viewBox="0 0 16 16" width="16" height="16" fill="currentColor" class="strib-icon strib-trash" xmlns="http://www.w3.org/2000/svg" fill-rule="evenodd" clip-rule="evenodd">
  <path d="M6.387 2.045a.23.23 0 0 1 .166-.069h2.894a.234.234 0 0 1 .235.236v1.682H6.318V2.212c0-.063.025-.122.069-.167m6.147 2.826H3.466l.68 8.153.002.041a.96.96 0 0 0 .958.959h5.788a.96.96 0 0 0 .96-1zm-1.875-.977V2.212A1.21 1.21 0 0 0 9.447 1H6.553a1.21 1.21 0 0 0-1.212 1.212v1.682H2.212a.488.488 0 1 0 0 .977h.274l.684 8.215A1.935 1.935 0 0 0 5.106 15h5.788a1.935 1.935 0 0 0 1.936-1.914l.684-8.215h.274a.49.49 0 0 0 0-.977zM6.553 6.788c.27 0 .488.219.488.489v4.34a.488.488 0 1 1-.976 0v-4.34c0-.27.218-.489.488-.489m3.382.489a.488.488 0 1 0-.976 0v4.34a.488.488 0 1 0 .976 0z"/>
</svg>