<svg id="trash" viewBox="0 0 16 16" xmlns="http://www.w3.org/2000/svg">
  <path fill="var(--strib-icon-color, #0d0d0d)" fill-rule="evenodd" clip-rule="evenodd" d="M6.265,1.568C6.312,1.521 6.377,1.494 6.444,1.494L9.556,1.494C9.623,1.494 9.688,1.521 9.735,1.568C9.782,1.616 9.809,1.68 9.809,1.747L9.809,3.556L6.191,3.556L6.191,1.747C6.191,1.68 6.218,1.616 6.265,1.568ZM12.876,4.607L3.124,4.607L3.855,13.375C3.856,13.389 3.857,13.404 3.857,13.419C3.857,13.692 3.965,13.954 4.159,14.148C4.352,14.341 4.614,14.45 4.888,14.45L11.112,14.45C11.386,14.45 11.648,14.341 11.841,14.148C12.035,13.954 12.143,13.692 12.143,13.419C12.143,13.404 12.144,13.389 12.145,13.375L12.876,4.607ZM10.86,3.556L10.86,1.747C10.86,1.401 10.722,1.07 10.478,0.826C10.233,0.581 9.902,0.444 9.556,0.444L6.444,0.444C6.098,0.444 5.767,0.581 5.522,0.826C5.278,1.07 5.14,1.401 5.14,1.747L5.14,3.556L1.775,3.556C1.485,3.556 1.25,3.791 1.25,4.081C1.25,4.372 1.485,4.607 1.775,4.607L2.07,4.607L2.806,13.442C2.812,13.986 3.031,14.506 3.416,14.89C3.806,15.281 4.336,15.5 4.888,15.5L11.112,15.5C11.664,15.5 12.194,15.281 12.584,14.89C12.969,14.506 13.188,13.986 13.194,13.442L13.93,4.607L14.225,4.607C14.515,4.607 14.75,4.372 14.75,4.081C14.75,3.791 14.515,3.556 14.225,3.556L10.86,3.556ZM6.444,6.669C6.734,6.669 6.969,6.904 6.969,7.194L6.969,11.862C6.969,12.152 6.734,12.388 6.444,12.388C6.154,12.388 5.919,12.152 5.919,11.862L5.919,7.194C5.919,6.904 6.154,6.669 6.444,6.669ZM10.081,7.194C10.081,6.904 9.846,6.669 9.556,6.669C9.266,6.669 9.031,6.904 9.031,7.194L9.031,11.862C9.031,12.152 9.266,12.388 9.556,12.388C9.846,12.388 10.081,12.152 10.081,11.862L10.081,7.194Z"/>
</svg>
