<svg id="trending" viewBox="0 0 16 16" xmlns="http://www.w3.org/2000/svg">
  <path fill="var(--strib-icon-color, #0d0d0d)" fill-rule="evenodd" clip-rule="evenodd" d="M8.926,3.556C8.829,3.556 8.751,3.635 8.751,3.731L8.751,4.782C8.751,4.879 8.829,4.957 8.926,4.957L13.109,4.957L8.687,9.379L6.126,6.818C5.853,6.544 5.409,6.544 5.136,6.818L0.551,11.402C0.483,11.47 0.483,11.581 0.551,11.65L1.294,12.392C1.327,12.425 1.372,12.444 1.418,12.444C1.464,12.444 1.509,12.425 1.542,12.392L5.631,8.303L8.192,10.864C8.465,11.138 8.909,11.138 9.182,10.864L14.099,5.947L14.099,10.13C14.099,10.227 14.178,10.305 14.274,10.305L15.325,10.305C15.422,10.305 15.5,10.227 15.5,10.13L15.5,4.257C15.5,3.87 15.186,3.556 14.8,3.556L8.926,3.556Z"/>
</svg>
