<svg id="undo" viewBox="0 0 16 16" xmlns="http://www.w3.org/2000/svg">
  <path fill="var(--strib-icon-color, #0d0d0d)" fill-rule="evenodd" clip-rule="evenodd" d="M10.5,4.563L2.884,4.563L5.126,2.321L4.25,1.438L0.5,5.188L4.25,8.938L5.126,8.053L2.886,5.813L10.5,5.813C11.495,5.813 12.448,6.208 13.152,6.911C13.855,7.614 14.25,8.568 14.25,9.563C14.25,10.557 13.855,11.511 13.152,12.214C12.448,12.917 11.495,13.313 10.5,13.313L5.5,13.313L5.5,14.563L10.5,14.563C11.826,14.563 13.098,14.036 14.036,13.098C14.973,12.16 15.5,10.889 15.5,9.563C15.5,8.236 14.973,6.965 14.036,6.027C13.098,5.089 11.826,4.563 10.5,4.563Z"/>
</svg>
