<svg id="user" viewBox="0 0 16 16" xmlns="http://www.w3.org/2000/svg">
  <path fill="var(--strib-icon-color, #0d0d0d)" fill-rule="evenodd" clip-rule="evenodd" d="M7.5,1.571C8.03,1.571 8.548,1.729 8.988,2.023C9.429,2.317 9.772,2.736 9.975,3.225C10.177,3.714 10.23,4.253 10.127,4.773C10.024,5.292 9.769,5.769 9.394,6.144C9.019,6.519 8.542,6.774 8.023,6.877C7.503,6.98 6.964,6.927 6.475,6.725C5.986,6.522 5.567,6.179 5.273,5.738C4.979,5.298 4.821,4.78 4.821,4.25C4.821,3.54 5.104,2.858 5.606,2.356C6.108,1.854 6.79,1.571 7.5,1.571ZM7.5,0.5C6.758,0.5 6.033,0.72 5.417,1.132C4.8,1.544 4.319,2.13 4.035,2.815C3.752,3.5 3.677,4.254 3.822,4.982C3.967,5.709 4.324,6.377 4.848,6.902C5.373,7.426 6.041,7.783 6.768,7.928C7.496,8.073 8.25,7.998 8.935,7.715C9.62,7.431 10.206,6.95 10.618,6.333C11.03,5.717 11.25,4.992 11.25,4.25C11.25,3.255 10.855,2.302 10.152,1.598C9.448,0.895 8.495,0.5 7.5,0.5ZM12.857,15.5L11.786,15.5L11.786,12.821C11.786,12.47 11.716,12.121 11.582,11.796C11.447,11.471 11.25,11.176 11.001,10.927C10.752,10.679 10.457,10.481 10.132,10.347C9.807,10.212 9.459,10.143 9.107,10.143L5.893,10.143C5.182,10.143 4.501,10.425 3.999,10.927C3.496,11.43 3.214,12.111 3.214,12.821L3.214,15.5L2.143,15.5L2.143,12.821C2.143,11.827 2.538,10.873 3.241,10.17C3.944,9.467 4.898,9.071 5.893,9.071L9.107,9.071C10.102,9.071 11.055,9.467 11.759,10.17C12.462,10.873 12.857,11.827 12.857,12.821L12.857,15.5Z"/>
</svg>
