<?xml version="1.0" encoding="utf-8"?>
<!-- Generator: Adobe Illustrator 22.1.0, SVG Export Plug-In . SVG Version: 6.00 Build 0)  -->
<svg version="1.1" id="Layer_1" xmlns="http://www.w3.org/2000/svg" xmlns:xlink="http://www.w3.org/1999/xlink" x="0px" y="0px"
	 viewBox="0 0 16 16" style="enable-background:new 0 0 16 16;" xml:space="preserve">
<path d="M15.3,2.5c0-0.2-0.1-0.3-0.3-0.3c-0.2-0.1-0.3,0-0.4,0.1L11,6.3v-3C11,2.6,10.5,2,10,2H1.8C1.2,2.1,0.7,2.6,0.7,3.2v9.5
	c0,0.7,0.5,1.2,1,1.2h8.2c0.6,0,1-0.5,1-1.2v-3l3.7,4.1c0.1,0.1,0.2,0.1,0.3,0.1h0.2c0.2-0.1,0.3-0.3,0.3-0.3V2.5z"/>
</svg>
