<svg id="video" viewBox="0 0 16 16" xmlns="http://www.w3.org/2000/svg">
  <path fill="var(--strib-icon-color, #0d0d0d)" fill-rule="evenodd" clip-rule="evenodd" d="M10.679,13.357L1.571,13.357C1.287,13.357 1.015,13.244 0.814,13.043C0.613,12.842 0.5,12.57 0.5,12.286L0.5,3.714C0.5,3.43 0.613,3.158 0.814,2.957C1.015,2.756 1.287,2.643 1.571,2.643L10.679,2.643C10.963,2.643 11.235,2.756 11.436,2.957C11.637,3.158 11.75,3.43 11.75,3.714L11.75,5.889L14.654,3.816C14.733,3.759 14.828,3.725 14.925,3.718C15.023,3.711 15.121,3.731 15.209,3.776C15.296,3.821 15.369,3.888 15.421,3.972C15.472,4.056 15.5,4.152 15.5,4.25L15.5,11.75C15.5,11.848 15.472,11.944 15.421,12.028C15.369,12.112 15.296,12.179 15.209,12.224C15.121,12.269 15.023,12.289 14.925,12.282C14.828,12.275 14.733,12.241 14.654,12.184L11.75,10.111L11.75,12.286C11.75,12.57 11.637,12.842 11.436,13.043C11.235,13.244 10.963,13.357 10.679,13.357ZM1.571,3.714L1.571,12.286L10.679,12.286L10.679,9.071C10.679,8.973 10.706,8.877 10.758,8.794C10.809,8.71 10.883,8.642 10.97,8.597C11.057,8.552 11.155,8.533 11.253,8.54C11.351,8.547 11.445,8.581 11.525,8.638L14.429,10.711L14.429,5.289L11.525,7.363C11.445,7.419 11.351,7.453 11.253,7.46C11.155,7.468 11.057,7.448 10.97,7.403C10.883,7.358 10.809,7.29 10.758,7.207C10.706,7.123 10.679,7.027 10.679,6.929L10.679,3.714L1.571,3.714Z"/>
</svg>
