<svg id="view-next" viewBox="0 0 16 16" xmlns="http://www.w3.org/2000/svg">
    <path fill="var(--strib-icon-color, #0d0d0d)" d="M10.152,10.812L7.531,8.192L7.531,3.781L8.469,3.781L8.469,7.803L10.812,10.152L10.152,10.812Z"/>
    <path fill="var(--strib-icon-color, #0d0d0d)" d="M8,1.438C9.766,1.438 11.458,2.154 12.688,3.42L12.687,1.438L13.625,1.438L13.625,5.187L9.875,5.187L9.875,4.25L12.181,4.25C11.115,3.065 9.594,2.388 8,2.388C4.914,2.388 2.375,4.927 2.375,8.013C2.375,11.098 4.914,13.638 8,13.638C11.086,13.638 13.625,11.098 13.625,8.013C13.625,8.008 13.625,8.004 13.625,8L14.562,8C14.562,11.6 11.6,14.562 8,14.562C4.4,14.562 1.438,11.6 1.438,8C1.438,4.4 4.4,1.438 8,1.438Z"/>
</svg>
