<svg id="view-next" viewBox="0 0 22 22" xmlns="http://www.w3.org/2000/svg">
  <path fill="var(--strib-icon-color, #0d0d0d)" d="M14.443,15.5L10.25,11.307L10.25,4.25L11.75,4.25L11.75,10.685L15.5,14.443L14.443,15.5Z"/>
  <path fill="var(--strib-icon-color, #0d0d0d)" d="M11,0.5C13.825,0.501 16.532,1.646 18.5,3.673L18.5,0.5L20,0.5L20,6.5L14,6.5L14,5L17.69,5C15.984,3.104 13.55,2.02 11,2.02C6.063,2.02 2,6.083 2,11.02C2,15.958 6.063,20.02 11,20.02C15.937,20.02 20,15.958 20,11.02L20,11L21.5,11C21.5,16.76 16.76,21.5 11,21.5C5.24,21.5 0.5,16.76 0.5,11C0.5,5.24 5.24,0.5 11,0.5Z"/>
</svg>
