<svg id="volume-filled" viewBox="0 0 16 16" xmlns="http://www.w3.org/2000/svg">
  <path fill="var(--strib-icon-color, #0d0d0d)" fill-rule="evenodd" clip-rule="evenodd" d="M13.99,3.753L13.17,4.445C14.012,5.442 14.461,6.713 14.432,8.019C14.404,9.324 13.899,10.574 13.014,11.534L13.802,12.285C14.865,11.133 15.471,9.632 15.505,8.065C15.54,6.498 15.001,4.972 13.99,3.775L13.99,3.753Z"/>
  <path fill="var(--strib-icon-color, #0d0d0d)" fill-rule="evenodd" clip-rule="evenodd" d="M10.999,5.854C11.505,6.453 11.774,7.216 11.756,8C11.738,8.783 11.435,9.533 10.903,10.109L11.691,10.838C12.4,10.069 12.803,9.069 12.826,8.023C12.849,6.978 12.489,5.961 11.814,5.163L10.999,5.854ZM9.081,15.5C9.01,15.5 8.94,15.485 8.874,15.458C8.809,15.43 8.75,15.39 8.7,15.339L4.617,11.213L1.043,11.213C0.9,11.213 0.764,11.156 0.664,11.056C0.563,10.955 0.507,10.819 0.507,10.677L0.507,5.318C0.507,5.176 0.563,5.04 0.664,4.939C0.764,4.839 0.9,4.782 1.043,4.782L4.617,4.782L8.7,0.656C8.801,0.556 8.937,0.5 9.078,0.5C9.22,0.5 9.356,0.556 9.456,0.656C9.557,0.755 9.615,0.89 9.617,1.031L9.617,14.964C9.617,15.106 9.56,15.242 9.46,15.343C9.359,15.443 9.223,15.5 9.081,15.5Z"/>
</svg>
