<svg id="volume-mute-filled" viewBox="0 0 16 16" xmlns="http://www.w3.org/2000/svg">
  <path fill="var(--strib-icon-color, #0d0d0d)" fill-rule="evenodd" clip-rule="evenodd" d="M8.75,15.353C8.814,15.38 8.884,15.394 8.953,15.394C9.094,15.394 9.228,15.339 9.327,15.24C9.426,15.14 9.482,15.006 9.482,14.866L9.482,1.129C9.48,0.99 9.423,0.857 9.323,0.759C9.224,0.661 9.09,0.606 8.951,0.606C8.811,0.606 8.677,0.661 8.578,0.759L4.552,4.827L1.028,4.827C0.888,4.827 0.754,4.883 0.655,4.982C0.556,5.081 0.5,5.216 0.5,5.356L0.5,10.639C0.5,10.779 0.556,10.914 0.655,11.013C0.754,11.112 0.888,11.168 1.028,11.168L4.552,11.168L8.578,15.236C8.627,15.286 8.686,15.325 8.75,15.353ZM14.742,5.321L15.5,6.079L13.617,7.962L15.5,9.846L14.742,10.604L12.858,8.721L10.975,10.604L10.217,9.846L12.1,7.962L10.217,6.079L10.975,5.321L12.858,7.204L14.742,5.321Z"/>
</svg>
