<svg id="volume-mute" viewBox="0 0 16 16" xmlns="http://www.w3.org/2000/svg">
  <path fill="var(--strib-icon-color, #0d0d0d)" fill-rule="evenodd" clip-rule="evenodd" d="M8.953,15.394C8.884,15.394 8.814,15.38 8.75,15.353C8.686,15.325 8.627,15.286 8.578,15.236L4.552,11.168L1.028,11.168C0.888,11.168 0.754,11.112 0.655,11.013C0.556,10.914 0.5,10.779 0.5,10.639L0.5,5.356C0.5,5.216 0.556,5.081 0.655,4.982C0.754,4.883 0.888,4.827 1.028,4.827L4.552,4.827L8.578,0.759C8.677,0.661 8.811,0.606 8.951,0.606C9.09,0.606 9.224,0.661 9.323,0.759C9.423,0.857 9.48,0.99 9.482,1.129L9.482,14.866C9.482,15.006 9.426,15.14 9.327,15.24C9.228,15.339 9.094,15.394 8.953,15.394ZM1.557,10.111L4.769,10.111C4.839,10.111 4.908,10.125 4.972,10.153C5.037,10.18 5.095,10.22 5.144,10.269L8.425,13.582L8.425,2.413L5.144,5.726C5.095,5.776 5.037,5.815 4.972,5.843C4.908,5.87 4.839,5.884 4.769,5.884L1.557,5.884L1.557,10.111Z"/>
  <path fill="var(--strib-icon-color, #0d0d0d)" fill-rule="evenodd" clip-rule="evenodd" d="M14.742,5.321L15.5,6.079L13.617,7.962L15.5,9.846L14.742,10.604L12.858,8.721L10.975,10.604L10.217,9.846L12.1,7.962L10.217,6.079L10.975,5.321L12.858,7.204L14.742,5.321Z"/>
</svg>
