<svg id="volume" viewBox="0 0 16 16" xmlns="http://www.w3.org/2000/svg">
  <path fill="var(--strib-icon-color, #0d0d0d)" fill-rule="evenodd" clip-rule="evenodd" d="M11.751,8.003C11.769,7.22 11.5,6.457 10.995,5.858L11.809,5.167C12.483,5.965 12.843,6.982 12.82,8.027C12.798,9.072 12.394,10.072 11.686,10.84L10.898,10.111C11.43,9.536 11.733,8.786 11.751,8.003ZM8.871,15.458C8.936,15.485 9.006,15.5 9.077,15.5C9.219,15.5 9.355,15.444 9.456,15.343C9.556,15.243 9.613,15.106 9.613,14.964L9.613,1.038C9.611,0.896 9.553,0.762 9.452,0.663C9.352,0.563 9.216,0.507 9.074,0.507C8.933,0.507 8.797,0.563 8.697,0.663L4.615,4.787L1.042,4.787C0.9,4.787 0.764,4.844 0.664,4.944C0.563,5.044 0.507,5.181 0.507,5.323L0.507,10.679C0.507,10.821 0.563,10.957 0.664,11.058C0.764,11.158 0.9,11.215 1.042,11.215L4.615,11.215L8.697,15.339C8.746,15.39 8.805,15.43 8.871,15.458ZM4.835,10.144L1.578,10.144L1.578,5.858L4.835,5.858C4.905,5.858 4.976,5.844 5.041,5.816C5.106,5.789 5.165,5.748 5.215,5.698L8.541,2.339L8.541,13.663L5.215,10.304C5.165,10.254 5.106,10.213 5.041,10.186C4.976,10.158 4.905,10.144 4.835,10.144ZM13.164,4.45L13.983,3.759L13.983,3.78C14.994,4.977 15.533,6.502 15.498,8.069C15.464,9.635 14.858,11.135 13.796,12.286L13.008,11.536C13.893,10.577 14.397,9.327 14.426,8.022C14.455,6.717 14.006,5.447 13.164,4.45Z"/>
</svg>
