<svg id="strib-weather-night-snowy-lg-color" viewBox="0 0 16 16" width="16" height="16" fill="currentcolor" class="strib-icon strib-weather-night-snowy-lg-color" xmlns="http://www.w3.org/2000/svg" clip-rule="evenodd" fill-rule="evenodd">
  <path fill="var(--weather-moon-shadow, #afc2c4)" d="M11.07 5.771a4.57 4.57 0 0 0-.856-3.671 4.4 4.4 0 0 1 1.798 4.573 3.2 3.2 0 0 0-.942-.902"/>
  <path fill="var(--weather-moon-highlight, #d3eaea)" d="M9.492 5.29a4.02 4.02 0 0 0-1.371-3.939 4.4 4.4 0 0 1 2.093.749 4.57 4.57 0 0 1 .856 3.671 3.17 3.17 0 0 0-1.578-.481M4.144 3.224a1.14 1.14 0 0 0 .471-.47c.116.209.261.354.471.47-.21.116-.355.261-.471.471a1.14 1.14 0 0 0-.471-.471"/>
  <path fill="var(--weather-cloud-highlight, #afc2c4)" d="M6.039 8.345c-.41.085-.782.313-1.043.643a1.78 1.78 0 0 0-1.226-.671 1.78 1.78 0 0 1 1.263-1.544c.566.31.961.893 1.006 1.572m5.174 3.195H3.596c-.799 0-1.45-.651-1.45-1.45 0-.788.633-1.434 1.42-1.45l.03.003c.515 0 .997.276 1.255.725a.17.17 0 0 0 .29 0 1.45 1.45 0 0 1 1.254-.725c.515 0 .997.276 1.256.725a.17.17 0 0 0 .143.082h.002a.166.166 0 0 0 .143-.25 1.8 1.8 0 0 0-.474-.534l.01.001c0-.036.006-.156.006-.192 0-.547-.226-1.04-.589-1.392l.021-.029A2.86 2.86 0 0 1 8.678 5.71a3.02 3.02 0 0 1 1.813 2.765 1.619 1.619 0 0 1 .722 3.065"/>
  <path fill="var(--weather-cloud-shadow, #839396)" d="M8.678 5.71q.343-.09.706-.09a2.856 2.856 0 0 1 2.853 2.853c0 .092.076.167.167.167a1.451 1.451 0 0 1 0 2.9h-1.191a1.618 1.618 0 0 0-.722-3.065A3.02 3.02 0 0 0 8.678 5.71M6.892 7.083c.363.352.589.845.589 1.392 0 .036-.006.156-.006.192l-.01-.001a1.8 1.8 0 0 0-1.426-.321 1.94 1.94 0 0 0-1.006-1.572q.241-.072.505-.073l-.002-.003c.411 0 .81.143 1.124.402a.17.17 0 0 0 .232-.016"/>
  <path fill="var(--weather-outline, #231f20)" d="m4.916 13.53-.259-.149a.5.5 0 0 0 0-.215l.259-.149a.166.166 0 0 0 .06-.228.165.165 0 0 0-.227-.06l-.259.15a.5.5 0 0 0-.187-.105v-.299a.17.17 0 0 0-.168-.167.17.17 0 0 0-.167.167v.308a.5.5 0 0 0-.181.102l-.263-.151a.166.166 0 1 0-.167.287l.261.152a.5.5 0 0 0 0 .212l-.261.152a.165.165 0 0 0-.06.227.17.17 0 0 0 .145.085.16.16 0 0 0 .082-.022l.259-.15a.4.4 0 0 0 .089.065q.048.025.098.04v.301c0 .092.076.168.168.168a.17.17 0 0 0 .167-.168v-.301a.5.5 0 0 0 .185-.107l.261.149a.165.165 0 0 0 .228-.062.17.17 0 0 0-.061-.228zm-.879-.085a.2.2 0 0 1 .197-.346.2.2 0 0 1 .073.273.204.204 0 0 1-.272.073zm8.608.085-.261-.149a.6.6 0 0 0 0-.215l.261-.151a.165.165 0 0 0 .06-.228.165.165 0 0 0-.227-.06l-.263.152a.6.6 0 0 0-.183-.103v-.308a.167.167 0 0 0-.335 0v.299a.4.4 0 0 0-.1.045 1 1 0 0 0-.087.062l-.259-.149a.166.166 0 1 0-.167.287l.259.15a.5.5 0 0 0 0 .214l-.259.15a.164.164 0 0 0-.06.227.17.17 0 0 0 .145.085.16.16 0 0 0 .082-.022l.261-.15a.5.5 0 0 0 .185.107v.301a.168.168 0 1 0 .335 0v-.301q.05-.015.098-.04a.4.4 0 0 0 .089-.065l.259.15a.2.2 0 0 0 .083.022.16.16 0 0 0 .144-.085.166.166 0 0 0-.06-.227zm-.682-.085a.2.2 0 0 1-.101.027.2.2 0 0 1-.1-.373.196.196 0 0 1 .27.074.2.2 0 0 1-.072.272zm1.606-11.526h-1.167a.17.17 0 0 1-.167-.167c0-.091.076-.167.167-.167h1.167c.091 0 .167.076.167.167a.17.17 0 0 1-.167.167m-.585.583a.17.17 0 0 1-.167-.168V1.168c0-.092.076-.168.167-.168s.168.076.168.168v1.166a.17.17 0 0 1-.168.168M4.615 4.288a.16.16 0 0 1-.158-.113c-.159-.471-.324-.634-.792-.792a.17.17 0 0 1-.114-.159c0-.071.045-.136.114-.158.47-.161.633-.324.792-.792a.17.17 0 0 1 .158-.114c.071 0 .136.047.158.114.159.468.322.631.792.792a.17.17 0 0 1 .114.158.17.17 0 0 1-.114.159c-.468.158-.631.321-.792.792a.17.17 0 0 1-.158.113m-.471-1.064c.21.116.355.261.471.471.116-.21.261-.355.471-.471a1.14 1.14 0 0 1-.471-.47 1.14 1.14 0 0 1-.471.47M9.492 5.29a3.19 3.19 0 0 1 2.52 1.383 4 4 0 0 1-.122.438A2.85 2.85 0 0 0 9.406 5.62q.05-.164.086-.33M6.658 8.328a1.79 1.79 0 0 1 1.281.872.166.166 0 0 1-.143.25h-.002a.17.17 0 0 1-.143-.082 1.45 1.45 0 0 0-1.256-.725c-.485 0-.938.246-1.206.648a4.4 4.4 0 0 1-.88-.833c.267.116.504.298.687.53.17-.214.386-.386.629-.503a4 4 0 0 0 1.033-.157m-1.033.157a1.8 1.8 0 0 1 1.033-.157q-.5.145-1.033.157m2.543 3.392h-.334v-.337h.334zm1.875-.337a.16.16 0 0 1-.07.083l-.39.232.037.022h-.735l.2-.118v-.219h.335v.02l.034-.02zM3.797 8.319q.268.032.512.139.383.477.88.833l-.048.077a.17.17 0 0 1-.29 0 1.45 1.45 0 0 0-.746-.632 5 5 0 0 1-.308-.417M9.42 11.54h.034l-.034.02zm-.535.337h-.717v-.337h.917v.219zm-1.968-.337h.917v.337h-.717l-.2-.118zm-.369 0h.034v.02zm5.464-4.867q.132.192.236.403a5 5 0 0 1-.167.465 3 3 0 0 0-.191-.43q.073-.218.122-.438m-5.63 5.204.038-.022-.391-.232a.17.17 0 0 1-.07-.083h.589l.034.02v-.02h.335v.219l.2.118zM3.566 8.64a.17.17 0 0 1-.138-.165c0-.091.076-.167.168-.167q.087 0 .174.009a2 2 0 0 0-.007.156.17.17 0 0 1-.167.167zm.207-.357a5 5 0 0 1-.202-.343.165.165 0 0 1 .029-.196.164.164 0 0 1 .196-.029q.055.03.112.057a1.8 1.8 0 0 0-.135.511M9.046 5.64q.058-.17.099-.343a3 3 0 0 1 .347-.007q-.036.166-.086.33h-.022q-.171 0-.338.02m-2.664 6.237h.735l.717.424v-.424h.334v.424l.717-.424h.735l.264.156a.17.17 0 0 1 .058.23.17.17 0 0 1-.145.083.2.2 0 0 1-.085-.023l-.46-.272-.921.547.921.546.46-.27a.168.168 0 0 1 .17.29l-.302.179.391.232a.168.168 0 0 1-.087.312.2.2 0 0 1-.085-.022l-.381-.226v.351a.17.17 0 0 1-.168.167.17.17 0 0 1-.167-.167v-.549l-.915-.542v1.091l.462.274a.17.17 0 0 1 .058.23.17.17 0 0 1-.145.082.2.2 0 0 1-.085-.024l-.29-.174v.455a.17.17 0 0 1-.167.167.17.17 0 0 1-.167-.167v-.455l-.29.174a.2.2 0 0 1-.085.022.17.17 0 0 1-.145-.083.166.166 0 0 1 .058-.229l.462-.275v-1.093l-.917.542v.549a.167.167 0 0 1-.167.167.167.167 0 0 1-.168-.167v-.35l-.381.225a.16.16 0 0 1-.085.022.168.168 0 0 1-.087-.312l.391-.232-.302-.178a.168.168 0 0 1 .17-.29l.459.272.922-.547-.922-.544-.459.27a.16.16 0 0 1-.085.022.167.167 0 0 1-.085-.312zm5.866-4.801c.185.378.297.797.319 1.239a1.786 1.786 0 0 1 1.622 1.778c0 .982-.799 1.782-1.782 1.784H9.62l-.037-.022.39-.232a.16.16 0 0 0 .07-.083h2.361a1.451 1.451 0 0 0 0-2.9.17.17 0 0 1-.167-.167c0-.326-.055-.64-.156-.932q.096-.23.167-.465M9.145 5.297a3.68 3.68 0 0 0-1.653-3.984.17.17 0 0 1-.073-.186.17.17 0 0 1 .156-.124 4.73 4.73 0 0 1 2.512.624 4.73 4.73 0 0 1 2.161 5.449 3 3 0 0 0-.236-.403 4.395 4.395 0 0 0-2.088-4.756 4.4 4.4 0 0 0-1.803-.566A4.02 4.02 0 0 1 9.492 5.29l-.108-.002q-.12 0-.239.009m-2.763 6.58H3.596a1.787 1.787 0 0 1-1.785-1.784c0-.931.716-1.696 1.624-1.778a2.113 2.113 0 0 1 2.103-1.95c.422 0 .837.127 1.183.364a3.2 3.2 0 0 1 2.424-1.432q-.04.173-.099.343a2.86 2.86 0 0 0-2.133 1.414.168.168 0 0 1-.253.045 1.77 1.77 0 0 0-1.124-.402l.002.003c-.73 0-1.358.442-1.63 1.072l-.112-.057a.164.164 0 0 0-.196.029.165.165 0 0 0-.029.196q.094.177.202.343l-.003.034a2 2 0 0 0-.174-.009.17.17 0 0 0-.168.167c0 .082.06.151.138.165a1.45 1.45 0 0 0-1.42 1.45c0 .799.651 1.45 1.45 1.45h2.363a.17.17 0 0 0 .07.083l.391.232zM3.77 8.317l.027.002q.143.217.308.417a1.4 1.4 0 0 0-.509-.093l-.03-.003h.03a.17.17 0 0 0 .167-.167 2 2 0 0 1 .007-.156"/>
</svg>