<svg id="strib-weather-night-wintry-mix-lg-color" viewBox="0 0 16 16" width="16" height="16" fill="currentcolor" class="strib-icon strib-weather-night-wintry-mix-lg-color" xmlns="http://www.w3.org/2000/svg" clip-rule="evenodd" fill-rule="evenodd">
  <path fill="var(--weather-moon-shadow, #afc2c4)" d="M8.348 7.73a4.45 4.45 0 0 0 .176-5.656 4.3 4.3 0 0 1 1.685 4.776 2.34 2.34 0 0 0-1.634 1 1.4 1.4 0 0 0-.227-.12M5.127 9.8a4.3 4.3 0 0 1-1.742-.856 4.44 4.44 0 0 0 2.26.254 1.34 1.34 0 0 0-.518.602"/>
  <path fill="var(--weather-moon-highlight, #d3eaea)" d="M5.645 9.198a4.44 4.44 0 0 1-2.26-.254 4.3 4.3 0 0 1-.799-.861h.003a3.9 3.9 0 0 0 1.364.245 3.96 3.96 0 0 0 3.421-1.974 3.93 3.93 0 0 0-.895-5.011 4.3 4.3 0 0 1 2.045.731 4.45 4.45 0 0 1-.176 5.656 1.56 1.56 0 0 0-2.159 1.277c-.198.023-.383.09-.544.191M2.586 3.177c.206-.113.348-.255.461-.461.114.206.256.348.461.461a1.13 1.13 0 0 0-.461.461 1.1 1.1 0 0 0-.461-.461"/>
  <path fill="var(--weather-cloud-highlight, #afc2c4)" d="M11.885 11.321H6.344a1 1 0 0 1-.998-.998 1 1 0 0 1 .996-.998h.002c.352.001.681.194.86.5a.16.16 0 0 0 .142.081.16.16 0 0 0 .142-.081 1 1 0 0 1 .862-.5c.356 0 .686.193.865.5.03.053.085.081.142.081l-.002-.002a.162.162 0 0 0 .142-.244 1.3 1.3 0 0 0-.368-.408l.003-.09c0-.377-.15-.718-.393-.969l.022-.029a2.03 2.03 0 0 1 1.295-.957 2.17 2.17 0 0 1 1.233 1.955 1.16 1.16 0 0 1 .596 2.159M8.092 9.024a1.33 1.33 0 0 0-.746.437 1.32 1.32 0 0 0-.829-.451c.063-.503.429-.913.911-1.039.365.222.62.606.664 1.053"/>
  <path fill="var(--weather-cloud-shadow, #839396)" d="M10.056 7.207a2.007 2.007 0 0 1 2.447 1.955c0 .089.074.163.164.163a1 1 0 0 1 .998.998 1 1 0 0 1-.998.998h-.782a1.162 1.162 0 0 0-.596-2.159c0-.863-.504-1.606-1.233-1.955m-1.317.986c.243.251.393.592.393.969l-.003.09a1.33 1.33 0 0 0-1.037-.228 1.4 1.4 0 0 0-.664-1.053q.148-.038.309-.039V7.93c.288 0 .557.096.779.278.037.03.085.043.134.035a.17.17 0 0 0 .089-.05"/>
  <path fill="var(--weather-outline, #231f20)" d="M11.811 1.9h-1.142a.165.165 0 0 1-.164-.164c0-.089.075-.164.164-.164h1.142c.09 0 .164.075.164.164s-.074.164-.164.164m-.572.572a.165.165 0 0 1-.164-.164V1.166c0-.089.075-.163.164-.163s.164.074.164.163v1.142c0 .09-.074.164-.164.164M5.407 5.566H4.265a.165.165 0 0 1-.163-.164c0-.09.074-.164.163-.164h1.142c.09 0 .164.074.164.164a.165.165 0 0 1-.164.164m-.57.57a.165.165 0 0 1-.163-.164V4.83c0-.09.074-.164.163-.164s.164.074.164.164v1.142a.165.165 0 0 1-.164.164m2.821 6.46h-.174a.4.4 0 0 0-.048-.085l.087-.151a.163.163 0 0 0-.282-.163l-.087.152a1 1 0 0 0-.094.003l-.089-.155a.16.16 0 0 0-.223-.059.16.16 0 0 0-.059.222l.087.151a.2.2 0 0 0-.028.039q-.011.02-.02.044h-.174a.165.165 0 0 0-.164.164c0 .089.074.163.164.163h.172a.5.5 0 0 0 .048.088l-.085.148a.163.163 0 1 0 .282.162l.087-.151c.015 0 .03.007.048.007.017 0 .033-.005.048-.007l.087.151a.17.17 0 0 0 .142.083.162.162 0 0 0 .14-.245l-.087-.153c.008-.013.021-.024.028-.037q.011-.022.02-.046h.174c.09 0 .164-.074.164-.163a.165.165 0 0 0-.164-.164zm-.6.24a.1.1 0 0 1-.042-.054.09.09 0 0 1 .131-.101.09.09 0 0 1 .033.123.09.09 0 0 1-.122.032m3.801-.24h-.175a.4.4 0 0 0-.048-.085l.088-.151a.163.163 0 0 0-.282-.163l-.087.152a1 1 0 0 0-.094.003l-.09-.155a.16.16 0 0 0-.222-.059.16.16 0 0 0-.059.222l.087.151a.2.2 0 0 0-.028.039q-.011.02-.02.044h-.175a.165.165 0 0 0-.163.164c0 .089.074.163.163.163h.173a.4.4 0 0 0 .048.086l-.085.148a.163.163 0 0 0 .139.245.16.16 0 0 0 .142-.083l.088-.151c.015 0 .03.007.048.007q.025-.002.048-.007l.087.151a.17.17 0 0 0 .142.083.163.163 0 0 0 .14-.245l-.088-.153c.009-.013.022-.024.029-.037q.012-.022.019-.046h.175c.09 0 .164-.074.164-.163a.165.165 0 0 0-.164-.164zm-.6.24a.1.1 0 0 1-.042-.054.1.1 0 0 1 .009-.068.09.09 0 0 1 .076-.044q.024.001.044.011a.09.09 0 0 1 .033.123.09.09 0 0 1-.122.032zm1.648.487a.165.165 0 0 1-.163-.164v-.801c0-.089.074-.164.163-.164s.164.075.164.164v.801c0 .09-.074.164-.164.164m-1.602 1.601a.165.165 0 0 1-.164-.164v-.801c0-.09.074-.164.164-.164.089 0 .163.074.163.164v.801a.165.165 0 0 1-.163.164m-3.201 0a.165.165 0 0 1-.164-.164v-.801c0-.09.074-.164.164-.164.089 0 .164.074.164.164v.801a.166.166 0 0 1-.164.164m2.155-.727h-.175a.4.4 0 0 0-.048-.086l.087-.15a.163.163 0 1 0-.281-.164l-.088.153q-.046-.002-.093 0l-.09-.155a.164.164 0 0 0-.223-.061.163.163 0 0 0-.059.222l.088.151-.029.039q-.011.02-.019.044h-.175a.165.165 0 0 0-.164.164c0 .089.074.163.164.163h.172a.5.5 0 0 0 .049.086l-.086.148a.164.164 0 0 0 .059.223.16.16 0 0 0 .223-.061l.087-.151c.016 0 .031.007.048.007s.033-.005.048-.007l.088.151c.03.052.085.083.142.083a.162.162 0 0 0 .139-.245l-.087-.153c.009-.013.022-.024.028-.037q.012-.022.02-.046h.175a.165.165 0 0 0 .164-.163.165.165 0 0 0-.164-.164zm-.601.242a.1.1 0 0 1-.041-.055.1.1 0 0 1 .009-.067.08.08 0 0 1 .076-.044q.024 0 .044.011a.09.09 0 0 1 .032.12.09.09 0 0 1-.122.033zm3.804-.242h-.175a.4.4 0 0 0-.048-.086l.087-.15a.163.163 0 1 0-.281-.164l-.088.153q-.046-.002-.094 0l-.089-.155a.16.16 0 0 0-.223-.059.163.163 0 0 0-.059.223l.088.15q-.018.02-.029.039-.011.021-.019.044h-.175a.165.165 0 0 0-.164.164c0 .089.074.164.164.164h.172q.02.045.048.087l-.085.148a.164.164 0 0 0 .14.245.16.16 0 0 0 .142-.083l.087-.151c.016 0 .031.007.048.007q.026-.001.048-.007l.088.151c.03.052.085.083.142.083a.162.162 0 0 0 .139-.245l-.087-.152c.009-.013.022-.024.028-.038q.012-.022.02-.045h.175a.165.165 0 0 0 .163-.164.165.165 0 0 0-.163-.164zm-.601.242a.1.1 0 0 1-.041-.053.1.1 0 0 1 .009-.067.08.08 0 0 1 .076-.044q.024 0 .044.011a.09.09 0 0 1 .032.12.09.09 0 0 1-.122.033zm-3.157-1.116a.163.163 0 0 1-.163-.164v-.801c0-.089.074-.164.163-.164s.164.075.164.164v.801c0 .09-.074.164-.164.164M3.047 4.219a.16.16 0 0 1-.155-.112c-.155-.46-.314-.62-.775-.775a.164.164 0 0 1 0-.31c.461-.157.62-.316.775-.775a.165.165 0 0 1 .155-.111c.07 0 .133.043.155.111.155.459.315.618.775.775a.165.165 0 0 1 .112.155c0 .07-.046.133-.112.155-.458.155-.618.315-.775.775a.165.165 0 0 1-.155.112m-.461-1.042c.206.114.348.256.461.461.114-.205.256-.347.461-.461a1.1 1.1 0 0 1-.461-.461 1.1 1.1 0 0 1-.461.461m2.449 6.937q.027-.165.092-.314.165.037.331.063-.076.146-.102.315a5 5 0 0 1-.321-.064m3.702-.71a1 1 0 0 0-.492-.073q.228-.132.437-.29.183.047.344.143a4 4 0 0 1-.289.22m-2.395-.079a.165.165 0 0 1-.164-.163c0-.09.074-.164.164-.164q.089 0 .175.012-.009.075-.009.152a.165.165 0 0 1-.164.163zm-1.307.789a4.62 4.62 0 0 1-3.01-2.321.16.16 0 0 1 .029-.192.16.16 0 0 1 .192-.029C2.77 7.852 3.359 8 3.951 8c1.29 0 2.493-.694 3.137-1.81a3.605 3.605 0 0 0-1.224-4.884.16.16 0 0 1-.072-.181.165.165 0 0 1 .152-.122 4.6 4.6 0 0 1 2.459.611 4.63 4.63 0 0 1 2.148 5.219l-.05-.001a2 2 0 0 0-.292.018 4.3 4.3 0 0 0-1.966-4.952 4.3 4.3 0 0 0-1.764-.555 3.93 3.93 0 0 1 .895 5.011 3.96 3.96 0 0 1-3.421 1.974 3.9 3.9 0 0 1-1.364-.245h-.003A4.3 4.3 0 0 0 5.127 9.8a1.3 1.3 0 0 0-.092.314m2.611-.495a1 1 0 0 0-.158.206.16.16 0 0 1-.142.081.16.16 0 0 1-.142-.081l-.033-.053a4 4 0 0 0 .475-.153M6.517 9.01c.322.043.618.204.829.451a1.32 1.32 0 0 1 1.336-.42 4 4 0 0 1-.437.29 1 1 0 0 0-.599.288 4 4 0 0 1-.475.153 1 1 0 0 0-.827-.447.165.165 0 0 0 .164-.163q0-.077.009-.152m3.692-2.16a2.4 2.4 0 0 1 .342-.017 4 4 0 0 1-.101.325 2 2 0 0 0-.363.042q.07-.173.122-.35m.342-.017a2.335 2.335 0 0 1 2.277 2.176 1.326 1.326 0 0 1-.159 2.642l-.002-.002H6.344a1.326 1.326 0 0 1-1.309-1.535q.16.038.321.064-.01.072-.01.145a1 1 0 0 0 .998.998h6.323a1 1 0 0 0 .998-.998 1 1 0 0 0-.998-.998.165.165 0 0 1-.164-.163 2.007 2.007 0 0 0-2.004-2.005l-.049.001q.057-.162.101-.325m-.464.367a2.02 2.02 0 0 0-1.326.964.17.17 0 0 1-.111.079.17.17 0 0 1-.134-.035 1.2 1.2 0 0 0-.779-.278v.002c-.627 0-1.145.472-1.22 1.078a1 1 0 0 0-.175-.012.165.165 0 0 0-.164.164c0 .089.074.163.164.163a1 1 0 0 0-.884.538 5 5 0 0 1-.331-.063 1.33 1.33 0 0 1 1.062-.793A1.56 1.56 0 0 1 8.575 7.85a2.34 2.34 0 0 1 1.634-1 4 4 0 0 1-.122.35M9.026 9.184c.192.114.356.277.471.476a.162.162 0 0 1-.142.244l.002.002a.16.16 0 0 1-.142-.081 1 1 0 0 0-.478-.421 4 4 0 0 0 .289-.22"/>
</svg>