<svg id="strib-weather-day-mostly-cloudy-thunderstorms-lg-color" viewBox="0 0 16 16" width="16" height="16" fill="currentcolor" class="strib-icon strib-weather-day-mostly-cloudy-thunderstorms-lg-color" xmlns="http://www.w3.org/2000/svg" clip-rule="evenodd" fill-rule="evenodd">
  <path fill="var(--weather-cloud-shadow, #839396)" d="M7.48 8.241a1.7 1.7 0 0 0-1.363-.307 1.86 1.86 0 0 0-.962-1.507q.23-.07.482-.07l-.002-.002c.394 0 .777.137 1.078.385a.16.16 0 0 0 .131.034.16.16 0 0 0 .092-.051c.348.338.565.811.565 1.335 0 .034-.007.15-.007.184zm1.171-2.834q.328-.084.674-.085a2.74 2.74 0 0 1 2.737 2.736c0 .087.072.16.16.16.766 0 1.391.625 1.391 1.391s-.623 1.39-1.391 1.39h-1.143a1.552 1.552 0 0 0-.692-2.939 2.9 2.9 0 0 0-1.736-2.653"/>
  <path fill="var(--weather-sun-highlight, #fff3c0)" d="m6.633 12.227.857-2.128h1.093l-.404 1.005a.16.16 0 0 0 .015.15.16.16 0 0 0 .132.071h.946l-2.223 2.821.439-1.718a.16.16 0 0 0-.028-.139.16.16 0 0 0-.126-.062zM5.056 6.121a3.045 3.045 0 0 1 2.943-2.246 3.05 3.05 0 0 1 2.555 1.386 3 3 0 0 0-1.229-.258 3.06 3.06 0 0 0-2.554 1.382 2.02 2.02 0 0 0-1.715-.264"/>
  <path fill="var(--weather-sun-shadow, #ffc783)" d="M3.63 7.807a3.3 3.3 0 0 0-1.035-.883 3.25 3.25 0 0 0 1.467-1.63c.291-.704.33-1.47.116-2.191a3.3 3.3 0 0 0 2.191-.116 3.27 3.27 0 0 0 1.63-1.467 3.26 3.26 0 0 0 1.63 1.467 3.3 3.3 0 0 0 2.191.116 3.27 3.27 0 0 0 .115 2.191 3.3 3.3 0 0 0 1.468 1.63 3.3 3.3 0 0 0-1.032.876 3.05 3.05 0 0 0-1.293-2.243 3.37 3.37 0 0 0-3.079-2.003c-.901 0-1.748.351-2.383.987a3.35 3.35 0 0 0-.924 1.73c-.57.303-.979.87-1.062 1.536"/>
  <path fill="var(--weather-cloud-highlight, #afc2c4)" d="M5.155 6.427c.541.297.919.856.962 1.507-.394.081-.751.3-1.002.618a1.7 1.7 0 0 0-1.174-.645 1.7 1.7 0 0 1 1.214-1.48m1.628 4.572H3.774a1.393 1.393 0 0 1-1.391-1.39c0-.758.61-1.378 1.367-1.391l.024.002c.494 0 .956.266 1.204.696a.162.162 0 0 0 .278 0 1.4 1.4 0 0 1 1.203-.696c.494 0 .956.266 1.204.696.029.05.081.078.135.079h.004a.2.2 0 0 0 .077-.022.157.157 0 0 0 .058-.218 1.7 1.7 0 0 0-.457-.514l.014.001c0-.034.007-.15.007-.184 0-.524-.217-.997-.565-1.335l.019-.026a2.75 2.75 0 0 1 1.696-1.29 2.9 2.9 0 0 1 1.736 2.653 1.552 1.552 0 0 1 .692 2.939h-2.51l.403-1.003a.16.16 0 0 0-.015-.15.16.16 0 0 0-.132-.07h-1.44a.16.16 0 0 0-.15.1z"/>
  <path fill="var(--weather-outline, #231f20)" d="M3.338 7.956a2.96 2.96 0 0 0-1.175-.882.16.16 0 0 1 0-.296 2.94 2.94 0 0 0 1.604-1.604 2.94 2.94 0 0 0 0-2.27.16.16 0 0 1 .034-.175.16.16 0 0 1 .176-.035c.723.3 1.547.3 2.27 0A2.94 2.94 0 0 0 7.851 1.09c.049-.12.246-.12.298 0a2.94 2.94 0 0 0 1.604 1.604c.723.3 1.547.3 2.27 0a.16.16 0 0 1 .175.035c.045.045.06.115.035.175a2.94 2.94 0 0 0 0 2.27 2.98 2.98 0 0 0 1.606 1.604.16.16 0 0 1 0 .296c-.468.194-.87.497-1.179.882a2 2 0 0 0-.282-.05l-.007-.106a3.3 3.3 0 0 1 1.032-.876 3.3 3.3 0 0 1-1.468-1.63 3.27 3.27 0 0 1-.115-2.191A3.295 3.295 0 0 1 7.999 1.52a3.27 3.27 0 0 1-1.63 1.467 3.3 3.3 0 0 1-2.191.116 3.27 3.27 0 0 1-.116 2.191 3.25 3.25 0 0 1-1.467 1.63c.403.219.756.522 1.035.883l-.01.099a2 2 0 0 0-.282.05m1.354-1.685c.127-.652.445-1.25.924-1.73a3.35 3.35 0 0 1 2.383-.987c1.372 0 2.554.824 3.079 2.003a3 3 0 0 0-.524-.296 3.05 3.05 0 0 0-5.498.86 2 2 0 0 0-.364.15m-.751 1.636c.461.046.887.28 1.174.645a1.72 1.72 0 0 1 1.341-.653c.608 0 1.175.328 1.481.856a.157.157 0 0 1-.058.218.2.2 0 0 1-.077.022h-.004a.16.16 0 0 1-.135-.079 1.4 1.4 0 0 0-1.204-.696c-.495 0-.955.268-1.203.696a.162.162 0 0 1-.278 0 1.4 1.4 0 0 0-1.204-.696l-.024-.002h.024c.087 0 .16-.073.16-.16q0-.076.007-.151m-.191.311a.16.16 0 0 1 .024-.319q.084 0 .167.008-.007.075-.007.151c0 .087-.073.16-.16.16zm2.883 4.009-.001.003zm.021-.905.129-.323h.345l-.13.323zm1.567-.323.362-.9H7.49l-.362.9h-.345l.452-1.123c.024-.06.084-.1.15-.1h1.44c.053 0 .102.025.132.07s.037.101.015.15l-.403 1.003zm.348 0-.001.003h1.038c.062 0 .117.034.143.089a.16.16 0 0 1-.019.169l-.049.062H8.295a.16.16 0 0 1-.101-.068.16.16 0 0 1-.015-.15l.042-.105zm-1.915.323h-2.88a1.714 1.714 0 0 1-1.712-1.711c0-.892.687-1.626 1.558-1.705a2.027 2.027 0 0 1 2.017-1.87c.404 0 .802.122 1.134.349a3.06 3.06 0 0 1 2.554-1.382 3.06 3.06 0 0 1 3.053 2.903 1.714 1.714 0 0 1 1.556 1.705c0 .942-.767 1.71-1.71 1.711H9.681l.049-.062a.16.16 0 0 0 .019-.169.16.16 0 0 0-.143-.089H8.568l.001-.003h3.653c.768 0 1.391-.624 1.391-1.39s-.625-1.391-1.391-1.391a.16.16 0 0 1-.16-.16 2.74 2.74 0 0 0-2.737-2.736 2.74 2.74 0 0 0-2.37 1.375.16.16 0 0 1-.111.077.16.16 0 0 1-.131-.034 1.7 1.7 0 0 0-1.078-.385l.002.002c-.888 0-1.62.683-1.696 1.55a2 2 0 0 0-.167-.008.16.16 0 0 0-.024.319 1.393 1.393 0 0 0-1.367 1.391c0 .766.625 1.39 1.391 1.39h3.009zm3.027 0-2.848 3.616a.16.16 0 0 1-.28-.139l.575-2.251h-.732a.16.16 0 0 1-.132-.07.16.16 0 0 1-.015-.15l.405-1.006h.344l-.365.905h-.001v.003l.001-.003h.701c.049 0 .096.024.126.062.03.039.04.09.028.139l-.439 1.718 2.223-2.821h-.946l-.031-.003z"/>
</svg>