<svg id="strib-weather-day-partly-sunny-thunderstorms-lg-color" viewBox="0 0 16 16" width="16" height="16" fill="currentcolor" class="strib-icon strib-weather-day-partly-sunny-thunderstorms-lg-color" xmlns="http://www.w3.org/2000/svg" clip-rule="evenodd" fill-rule="evenodd">
  <path fill="var(--weather-cloud-highlight, #afc2c4)" d="m8.756 9.15.022-.029a1.9 1.9 0 0 1 1.217-.9 2.04 2.04 0 0 1 1.165 1.843 1.094 1.094 0 0 1 .564 2.033H9.942l.264-.653a.15.15 0 0 0-.015-.144.15.15 0 0 0-.127-.067H9.047a.16.16 0 0 0-.144.096l-.309.768H6.5a.942.942 0 0 1 0-1.881c.084 0 .154-.07.154-.154 0-.537.368-.991.866-1.121.381.229.636.647.636 1.125l-.002-.002-.006.072.976.057.004-.129c0-.355-.142-.678-.372-.914"/>
  <path fill="var(--weather-sun-highlight, #fff3c0)" d="m8.576 12.963.572-1.42h.683l-.263.652a.153.153 0 0 0 .142.212h.582l-1.395 1.772.261-1.023a.153.153 0 0 0-.148-.193zm1.252-8.555a3.086 3.086 0 0 1-1.669 4.228 1.46 1.46 0 0 0-1.157.204 3.1 3.1 0 0 1-1.291-.309 2.92 2.92 0 0 1-.645-1.833c0-.784.304-1.521.858-2.075a2.9 2.9 0 0 1 2.074-.858c.692 0 1.328.241 1.83.643"/>
  <path fill="var(--weather-sun-shadow, #ffc783)" d="M7.002 8.84a1.5 1.5 0 0 0-.421.424 3 3 0 0 1-.87-.733c.391.19.828.301 1.291.309m3.678-.958a2.2 2.2 0 0 0-2.079.943 1.5 1.5 0 0 0-.442-.189 3.086 3.086 0 0 0 1.669-4.228 2.93 2.93 0 0 1 .852 3.474m-5.057 2.386a3.2 3.2 0 0 0-1.3.104 3.14 3.14 0 0 0-.111-2.107A3.18 3.18 0 0 0 2.8 6.698 3.14 3.14 0 0 0 4.212 5.13c.28-.677.317-1.414.111-2.107a3.18 3.18 0 0 0 2.107-.111A3.15 3.15 0 0 0 7.998 1.5a3.14 3.14 0 0 0 1.568 1.412 3.18 3.18 0 0 0 2.107.111 3.14 3.14 0 0 0 .111 2.107c.276.666.78 1.224 1.411 1.568a3.13 3.13 0 0 0-1.436 1.629 2.2 2.2 0 0 0-.769-.384 3.245 3.245 0 0 0-2.992-4.486c-.866 0-1.681.337-2.292.948a3.243 3.243 0 0 0 .735 5.135 1.5 1.5 0 0 0-.089.376 1.25 1.25 0 0 0-.729.352"/>
  <path fill="var(--weather-cloud-shadow, #839396)" d="M8.756 9.15c.23.236.372.559.372.914v.006a1.3 1.3 0 0 0-.978-.127 1.31 1.31 0 0 0-.63-1.002q.14-.038.293-.038l-.002-.002c.267 0 .528.095.734.262a.157.157 0 0 0 .211-.013m2.1-.925c.83.199 1.449.947 1.449 1.837 0 .084.07.154.154.154a.941.941 0 0 1 0 1.881h-.735a1.094 1.094 0 0 0-.564-2.033 2.04 2.04 0 0 0-1.165-1.843 1.85 1.85 0 0 1 .861.004"/>
  <path fill="var(--weather-outline, #231f20)" d="M9.463 10.782a.16.16 0 0 1-.138-.079.97.97 0 0 0-.839-.487.97.97 0 0 0-.839.487.16.16 0 0 1-.138.079.16.16 0 0 1-.139-.079.97.97 0 0 0-.839-.487.16.16 0 0 1-.159-.159.16.16 0 0 1 .159-.159c.378 0 .735.168.978.45a1.3 1.3 0 0 1 .977-.45c.457 0 .886.246 1.115.643a.157.157 0 0 1-.138.238zm-3.777-.191a2.85 2.85 0 0 0-1.556.179.16.16 0 0 1-.169-.033.16.16 0 0 1-.033-.169 2.83 2.83 0 0 0 0-2.183 2.87 2.87 0 0 0-1.543-1.543.16.16 0 0 1-.095-.142c0-.062.037-.12.095-.142a2.84 2.84 0 0 0 1.543-1.544 2.83 2.83 0 0 0 0-2.183.15.15 0 0 1 .033-.168.15.15 0 0 1 .169-.033 2.87 2.87 0 0 0 2.183 0 2.84 2.84 0 0 0 1.543-1.544c.047-.115.237-.115.286 0A2.84 2.84 0 0 0 9.685 2.63a2.87 2.87 0 0 0 2.183 0 .154.154 0 0 1 .202.201 2.83 2.83 0 0 0 0 2.183c.288.694.85 1.258 1.545 1.544a.153.153 0 0 1 0 .284 2.83 2.83 0 0 0-1.618 1.745h-.327q.048-.163.114-.322a3.13 3.13 0 0 1 1.411-1.567 3.2 3.2 0 0 1-1.411-1.568 3.14 3.14 0 0 1-.111-2.107 3.18 3.18 0 0 1-2.107-.111A3.14 3.14 0 0 1 7.998 1.5 3.15 3.15 0 0 1 6.43 2.912a3.18 3.18 0 0 1-2.107.111c.206.693.169 1.43-.111 2.107A3.14 3.14 0 0 1 2.8 6.698a3.18 3.18 0 0 1 1.412 1.567c.28.677.317 1.414.111 2.107a3.15 3.15 0 0 1 1.363-.095zm.755-1.051a3.243 3.243 0 0 1-.735-5.135 3.22 3.22 0 0 1 2.292-.948 3.245 3.245 0 0 1 2.992 4.486 2 2 0 0 0-.31-.061 2.935 2.935 0 0 0-4.756-3.259 2.933 2.933 0 0 0 .657 4.641 1.5 1.5 0 0 0-.14.276m3.167 2.557.223-.554h-.683l-.223.554h-.331l.309-.768a.16.16 0 0 1 .144-.096h1.017a.15.15 0 0 1 .127.067.15.15 0 0 1 .015.144l-.264.653zm1.079.308H9.684a.15.15 0 0 1-.116-.21l.04-.098h1.005a.153.153 0 0 1 .12.249zM6.441 9.54a1.5 1.5 0 0 1 .14-.276q.136.076.281.137a1.2 1.2 0 0 0-.142.275 4 4 0 0 1-.279-.136m4.239-1.658q.16.02.31.061-.06.144-.134.282a2 2 0 0 0-.327-.049q.084-.142.151-.294m-2.21 4.523H6.5a1.25 1.25 0 0 1-.148-2.489q.02-.198.089-.376.137.074.279.136a1.2 1.2 0 0 0-.066.386c0 .084-.07.154-.154.154a.941.941 0 0 0 0 1.881h2.094zm2.52-4.462a2.2 2.2 0 0 1 1.617 1.975 1.25 1.25 0 0 1-.15 2.489l.002-.002h-1.772l.046-.059a.153.153 0 0 0-.12-.249h1.846a.942.942 0 0 0 0-1.881.155.155 0 0 1-.154-.154c0-.89-.619-1.638-1.449-1.837q.074-.138.134-.282m-.461.233-.113-.003c-.673 0-1.301.364-1.638.948a.16.16 0 0 1-.107.074.15.15 0 0 1-.126-.032 1.16 1.16 0 0 0-.734-.262l.002.002c-.394 0-.742.197-.951.498a3 3 0 0 1-.281-.137 1.47 1.47 0 0 1 2.02-.439 2.2 2.2 0 0 1 2.079-.943q-.067.152-.151.294M8.47 12.405l.124-.308h.331l-.124.308zm2.217 0L8.689 14.94a.16.16 0 0 1-.121.06.14.14 0 0 1-.068-.016.15.15 0 0 1-.08-.177l.393-1.537H8.35a.15.15 0 0 1-.128-.068.15.15 0 0 1-.014-.144l.262-.653h.331l-.225.558h.434a.153.153 0 0 1 .148.193l-.261 1.023 1.395-1.772H9.71l-.026-.002z"/>
</svg>