<svg id="strib-weather-day-partly-sunny-showers-lg-color" viewBox="0 0 16 16" width="16" height="16" fill="currentcolor" class="strib-icon strib-weather-day-partly-sunny-showers-lg-color" xmlns="http://www.w3.org/2000/svg" clip-rule="evenodd" fill-rule="evenodd">
  <path fill="var(--weather-cloud-shadow, #839396)" d="M9.127 10.167a1.25 1.25 0 0 0-.977-.215 1.31 1.31 0 0 0-.629-.993q.14-.037.291-.037L7.81 8.92c.268 0 .53.092.737.261a.157.157 0 0 0 .212-.013c.23.237.371.559.371.914zm2.601 1.955a1.097 1.097 0 0 0-.561-2.04c0-.813-.475-1.515-1.163-1.845q.203-.047.417-.047c1.043 0 1.893.849 1.893 1.892 0 .085.07.155.154.155a.943.943 0 0 1 0 1.885z"/>
  <path fill="var(--weather-cloud-highlight, #afc2c4)" d="M10.004 8.237a2.05 2.05 0 0 1 1.163 1.845 1.097 1.097 0 0 1 .561 2.04H6.497a.943.943 0 0 1 0-1.885c.334 0 .645.182.814.472a.15.15 0 0 0 .134.077.15.15 0 0 0 .134-.077.95.95 0 0 1 .815-.472c.334 0 .645.182.814.472.029.05.081.077.134.077v-.002a.16.16 0 0 0 .079-.021.15.15 0 0 0 .055-.21 1.2 1.2 0 0 0-.349-.386l.003-.085c0-.355-.142-.677-.371-.914l.021-.028a1.9 1.9 0 0 1 1.224-.903m-2.482.722c.344.209.586.571.628.993a1.26 1.26 0 0 0-.705.413 1.25 1.25 0 0 0-.784-.426 1.16 1.16 0 0 1 .861-.98"/>
  <path fill="var(--weather-sun-highlight, #fff3c0)" d="M5.706 8.546a2.92 2.92 0 0 1-.646-1.837c0-.785.305-1.523.86-2.078a2.92 2.92 0 0 1 2.078-.86c.694 0 1.332.241 1.835.644a3.09 3.09 0 0 1-1.676 4.238 1.46 1.46 0 0 0-1.155.203 3.1 3.1 0 0 1-1.296-.31"/>
  <path fill="var(--weather-sun-shadow, #ffc783)" d="M11.766 8.344a2.2 2.2 0 0 0-.771-.385 3.252 3.252 0 0 0-2.997-4.497c-.868 0-1.685.338-2.297.95a3.25 3.25 0 0 0 .738 5.146 1.4 1.4 0 0 0-.09.378 1.25 1.25 0 0 0-.729.351 3.2 3.2 0 0 0-1.305.105 3.15 3.15 0 0 0-.111-2.112A3.18 3.18 0 0 0 2.79 6.709a3.13 3.13 0 0 0 1.414-1.571 3.14 3.14 0 0 0 .111-2.111 3.176 3.176 0 0 0 3.683-1.526 3.174 3.174 0 0 0 3.682 1.526 3.15 3.15 0 0 0 .112 2.111 3.18 3.18 0 0 0 1.414 1.571 3.14 3.14 0 0 0-1.414 1.571zm-4.764.512a1.5 1.5 0 0 0-.423.426 3 3 0 0 1-.873-.736c.393.191.831.302 1.296.31m3.683-.958a2.21 2.21 0 0 0-2.083.945 1.5 1.5 0 0 0-.445-.19 3.09 3.09 0 0 0 1.676-4.238 2.935 2.935 0 0 1 .852 3.483"/>
  <path fill="var(--weather-outline, #231f20)" d="M7.998 12.431H6.497a1.253 1.253 0 0 1-1.098-1.852q.171.01.339.042a.943.943 0 0 0 .759 1.501h1.26q.054.105.099.214c.022.058.08.095.142.095m-2.599-1.852a2.86 2.86 0 0 0-1.277.211.154.154 0 0 1-.202-.202 2.84 2.84 0 0 0 0-2.188 2.88 2.88 0 0 0-1.547-1.546.16.16 0 0 1-.095-.143c0-.062.037-.119.095-.142A2.84 2.84 0 0 0 3.92 5.023a2.84 2.84 0 0 0 0-2.188.154.154 0 0 1 .202-.202c.697.289 1.49.289 2.187 0a2.84 2.84 0 0 0 1.547-1.546c.047-.116.237-.116.286 0a2.85 2.85 0 0 0 1.547 1.546c.697.289 1.49.289 2.187 0a.16.16 0 0 1 .169.033.15.15 0 0 1 .033.169 2.84 2.84 0 0 0 0 2.188 2.88 2.88 0 0 0 1.549 1.546.154.154 0 0 1 0 .285 2.84 2.84 0 0 0-1.611 1.716 2 2 0 0 0-.25-.226l.026-.064a3.14 3.14 0 0 1 1.414-1.571 3.18 3.18 0 0 1-1.414-1.571 3.15 3.15 0 0 1-.112-2.111 3.174 3.174 0 0 1-3.682-1.526 3.176 3.176 0 0 1-3.683 1.526c.207.695.17 1.433-.111 2.111A3.13 3.13 0 0 1 2.79 6.709 3.18 3.18 0 0 1 4.204 8.28c.281.679.318 1.417.111 2.112a3.1 3.1 0 0 1 1.305-.105 1.3 1.3 0 0 0-.221.292m2.603 1.852h-.004a.15.15 0 0 1-.142-.095 3 3 0 0 0-.099-.214h.486q-.054.105-.099.214a.15.15 0 0 1-.142.095m4.014-3.861c.343.362.566.84.601 1.368a1.253 1.253 0 0 1-.151 2.495l.002-.002H8.002a.15.15 0 0 0 .142-.095q.045-.11.099-.214h4.225a.943.943 0 0 0 0-1.885.156.156 0 0 1-.154-.155c0-.435-.148-.836-.396-1.156q.037-.18.098-.356m-5.577.988a3.25 3.25 0 0 1-.738-5.146 3.23 3.23 0 0 1 2.297-.95 3.252 3.252 0 0 1 2.997 4.497 2 2 0 0 0-.31-.061A2.94 2.94 0 0 0 5.92 4.631a2.94 2.94 0 0 0 .659 4.651 1.4 1.4 0 0 0-.14.276m-.819.729c.192-.189.446-.317.729-.351a1.4 1.4 0 0 1 .09-.378q.136.075.279.137a1.2 1.2 0 0 0-.057.244 1 1 0 0 0-.164-.011.156.156 0 0 0-.155.154c0 .085.07.155.155.155a.93.93 0 0 0-.475.129 3 3 0 0 0-.402-.079m-.221.292q.09-.163.221-.292.203.027.402.079a1 1 0 0 0-.284.255 3 3 0 0 0-.339-.042m4.072-.035.005.009a.15.15 0 0 1-.055.21.16.16 0 0 1-.079.021v.002a.15.15 0 0 1-.134-.077l-.014-.023a3 3 0 0 1 .277-.142m-3.032-.986q.056-.147.14-.276.136.076.282.136a1.2 1.2 0 0 0-.143.277 3 3 0 0 1-.279-.137m5.224-.902a1.9 1.9 0 0 0-.803-.414q.075-.138.135-.283c.284.077.545.209.771.385q-.06.155-.103.312M6.661 9.939a1 1 0 0 0-.009.143c0 .085-.07.155-.155.155a.156.156 0 0 1-.155-.155c0-.084.07-.154.155-.154q.083 0 .164.011m1.481.015a1.3 1.3 0 0 1 .287-.025q-.141.018-.287.025m2.718-1.712a2 2 0 0 0-.327-.049 3 3 0 0 0 .152-.295q.159.02.31.061-.06.145-.135.283m-.327-.049-.112-.003c-.674 0-1.303.365-1.641.95a.16.16 0 0 1-.108.074.15.15 0 0 1-.125-.033 1.17 1.17 0 0 0-.737-.261l.002.002a1.16 1.16 0 0 0-.951.496 3 3 0 0 1-.282-.136 1.47 1.47 0 0 1 2.023-.439 2.21 2.21 0 0 1 2.083-.945 3 3 0 0 1-.152.295m1.233.151q.134.103.25.226a3 3 0 0 0-.098.356 2 2 0 0 0-.255-.27q.043-.158.103-.312M6.661 9.939c.305.041.584.193.784.426.18-.21.427-.355.697-.411q.146-.007.287-.025c.427.012.824.244 1.042.615a3 3 0 0 0-.277.142.95.95 0 0 0-.8-.449.95.95 0 0 0-.815.472.15.15 0 0 1-.134.077.15.15 0 0 1-.134-.077.95.95 0 0 0-.814-.472c.085 0 .155-.07.155-.155q0-.072.009-.143m2.011 3.713a.156.156 0 0 1-.154-.155v-.557c0-.084.07-.154.154-.154.085 0 .155.07.155.154v.557c0 .084-.07.155-.155.155m0 1.348a.156.156 0 0 1-.154-.155v-.556c0-.085.07-.155.154-.155.085 0 .155.07.155.155v.556c0 .085-.07.155-.155.155m3.244-1.348a.156.156 0 0 1-.155-.155v-.557a.155.155 0 0 1 .309 0v.557c0 .084-.07.155-.154.155m0 1.348a.156.156 0 0 1-.155-.155v-.556c0-.085.07-.155.155-.155s.154.07.154.155v.556c0 .085-.07.155-.154.155m-1.623 0a.156.156 0 0 1-.155-.155v-.556c0-.085.07-.155.155-.155s.155.07.155.155v.556c0 .085-.07.155-.155.155m0-1.348a.156.156 0 0 1-.155-.155v-.557c0-.084.07-.154.155-.154s.155.07.155.154v.557c0 .084-.07.155-.155.155M7.05 15a.156.156 0 0 1-.155-.155v-.556c0-.085.07-.155.155-.155s.154.07.154.155v.556c0 .085-.07.155-.154.155m0-1.348a.156.156 0 0 1-.155-.155v-.557a.155.155 0 0 1 .309 0v.557c0 .084-.07.155-.154.155"/>
</svg>