<svg id="strib-weather-night-lg-color" viewBox="0 0 16 16" width="16" height="16" fill="currentcolor" class="strib-icon strib-weather-night-lg-color" xmlns="http://www.w3.org/2000/svg" clip-rule="evenodd" fill-rule="evenodd">
  <path fill="var(--weather-moon-shadow, #afc2c4)" d="M2.871 12.133a6.07 6.07 0 0 0 7.461-2.617 6.06 6.06 0 0 0-.446-6.732 5.855 5.855 0 0 1 1.755 7.746 5.88 5.88 0 0 1-5.072 2.928 5.83 5.83 0 0 1-3.698-1.325"/>
  <path fill="var(--weather-moon-highlight, #d3eaea)" d="M2.871 12.133a6 6 0 0 1-1.08-1.165h.003c.595.22 1.226.333 1.86.333a5.39 5.39 0 0 0 4.661-2.689 5.36 5.36 0 0 0-1.219-6.828 5.86 5.86 0 0 1 2.79 1 6.06 6.06 0 0 1 .446 6.732 6.07 6.07 0 0 1-7.461 2.617m10.082 1.131c.28-.154.473-.348.628-.627.155.279.348.473.628.627a1.5 1.5 0 0 0-.628.628 1.5 1.5 0 0 0-.628-.628M1.791 4.283a1.5 1.5 0 0 0 .628-.628c.155.28.348.473.628.628a1.5 1.5 0 0 0-.628.628 1.5 1.5 0 0 0-.628-.628"/>
  <path fill="var(--weather-outline, #231f20)" d="M6.569 13.904a6.29 6.29 0 0 1-5.542-3.332.221.221 0 0 1 .3-.3c.714.38 1.517.583 2.324.583a4.95 4.95 0 0 0 4.275-2.467 4.914 4.914 0 0 0-1.669-6.654.23.23 0 0 1-.099-.247.23.23 0 0 1 .209-.167 6.3 6.3 0 0 1 3.349.833c3.005 1.737 4.04 5.596 2.306 8.6a6.32 6.32 0 0 1-5.456 3.151zm-4.778-2.936a5.8 5.8 0 0 0 1.86 1.704 5.83 5.83 0 0 0 2.918.786 5.88 5.88 0 0 0 5.072-2.928 5.855 5.855 0 0 0-2.142-7.99 5.9 5.9 0 0 0-2.403-.756 5.36 5.36 0 0 1 1.219 6.828 5.39 5.39 0 0 1-4.661 2.689 5.4 5.4 0 0 1-1.86-.333zM14.36 2.54h-1.555a.225.225 0 0 1-.224-.223c0-.122.102-.223.224-.223h1.555c.122 0 .224.101.224.223a.225.225 0 0 1-.224.223m-.779.779a.225.225 0 0 1-.223-.223V1.54c0-.122.101-.223.223-.223s.223.101.223.223v1.556a.225.225 0 0 1-.223.223M5.635 7.535H4.079a.225.225 0 0 1-.223-.224c0-.121.101-.223.223-.223h1.556c.122 0 .223.102.223.223a.225.225 0 0 1-.223.224m-.78.779a.225.225 0 0 1-.223-.223V6.535c0-.122.101-.223.223-.223s.224.101.224.223v1.556a.225.225 0 0 1-.224.223m8.726 6.369a.22.22 0 0 1-.211-.151c-.214-.628-.432-.845-1.056-1.056a.22.22 0 0 1-.152-.212.22.22 0 0 1 .152-.211c.624-.211.842-.428 1.056-1.056a.225.225 0 0 1 .211-.152c.095 0 .181.063.211.152.211.625.429.842 1.056 1.056a.224.224 0 0 1 0 .423c-.624.211-.842.428-1.056 1.056a.22.22 0 0 1-.211.151m-.628-1.419c.28.155.473.348.628.628a1.5 1.5 0 0 1 .628-.628 1.5 1.5 0 0 1-.628-.627 1.5 1.5 0 0 1-.628.627M2.419 5.702a.22.22 0 0 1-.211-.152c-.211-.627-.432-.844-1.056-1.056a.223.223 0 0 1 0-.422c.627-.214.845-.431 1.056-1.056a.225.225 0 0 1 .211-.152c.095 0 .181.063.211.152.211.625.429.842 1.056 1.056.09.03.152.116.152.211a.22.22 0 0 1-.152.211c-.624.212-.842.429-1.056 1.056a.22.22 0 0 1-.211.152m-.628-1.419c.28.155.473.348.628.628a1.5 1.5 0 0 1 .628-.628 1.5 1.5 0 0 1-.628-.628 1.5 1.5 0 0 1-.628.628"/>
</svg>