<svg id="strib-weather-day-night-sleet-lg" viewBox="0 0 16 16" width="16" height="16" fill="currentcolor" class="strib-icon strib-weather-day-night-sleet-lg" xmlns="http://www.w3.org/2000/svg" clip-rule="evenodd" fill-rule="evenodd">
  <path d="M9.454 2.087a3.35 3.35 0 0 1 3.343 3.179c.953.087 1.703.89 1.703 1.867a1.877 1.877 0 0 1-1.874 1.874H3.374A1.877 1.877 0 0 1 1.5 7.133c0-.977.75-1.78 1.706-1.867a2.22 2.22 0 0 1 2.209-2.048c.443 0 .876.136 1.241.382a3.36 3.36 0 0 1 2.798-1.513M3.372 8.656h9.254v.005c.838 0 1.523-.684 1.523-1.523s-.682-1.523-1.523-1.523a.18.18 0 0 1-.176-.176 3 3 0 0 0-2.996-2.996 3 3 0 0 0-2.596 1.506.177.177 0 0 1-.265.047 1.864 1.864 0 0 0-3.036 1.277c.506.049.972.305 1.286.703a1.87 1.87 0 0 1 3.09.222.174.174 0 0 1-.063.239.16.16 0 0 1-.087.024.18.18 0 0 1-.152-.089 1.54 1.54 0 0 0-1.319-.762c-.539 0-1.045.291-1.317.762a.17.17 0 0 1-.152.089.18.18 0 0 1-.152-.089 1.53 1.53 0 0 0-1.319-.762c-.839 0-1.523.684-1.523 1.523s.682 1.523 1.523 1.523m1.923 1.865h-.3a.6.6 0 0 0-.103-.181l.15-.26a.18.18 0 0 0-.063-.241.173.173 0 0 0-.239.066l-.15.26a.6.6 0 0 0-.204.002l-.152-.265a.174.174 0 1 0-.302.174l.147.257a1 1 0 0 0-.063.087.5.5 0 0 0-.044.096h-.296a.177.177 0 0 0-.175.176c0 .096.079.176.175.176h.298a.6.6 0 0 0 .105.182l-.147.258a.18.18 0 0 0 .063.241.173.173 0 0 0 .239-.065l.15-.258.006.001a.5.5 0 0 0 .097.013.5.5 0 0 0 .105-.014l.15.258a.18.18 0 0 0 .153.089q.047 0 .086-.024a.174.174 0 0 0 .064-.239l-.15-.26c.023-.025.047-.051.063-.082a.4.4 0 0 0 .044-.098h.296c.096 0 .175-.08.175-.176a.177.177 0 0 0-.175-.176zm-.644.274a.196.196 0 0 1-.265.07.192.192 0 1 1 .192-.335.197.197 0 0 1 .073.265m5.33-.274h-.3a.6.6 0 0 0-.103-.181l.15-.26a.18.18 0 0 0-.063-.241.173.173 0 0 0-.239.066l-.15.26a.6.6 0 0 0-.204.002l-.152-.265a.176.176 0 0 0-.239-.065.174.174 0 0 0-.064.239l.148.257a.5.5 0 0 0-.108.183h-.295a.18.18 0 0 0-.176.176c0 .096.08.176.176.176h.297a.6.6 0 0 0 .106.182l-.148.258a.18.18 0 0 0 .064.241.175.175 0 0 0 .239-.065l.149-.258.007.001a.5.5 0 0 0 .097.013q.053-.002.105-.014l.15.258a.18.18 0 0 0 .152.089.16.16 0 0 0 .087-.024.174.174 0 0 0 .063-.239l-.15-.26a.5.5 0 0 0 .108-.18h.295c.096 0 .176-.08.176-.176a.18.18 0 0 0-.176-.176zm-.644.274a.197.197 0 0 1-.357-.047.192.192 0 0 1 .188-.244q.053.001.096.026a.2.2 0 0 1 .073.265m2.352-.684v1.171a.176.176 0 0 1-.352 0v-1.171a.176.176 0 0 1 .352 0M9.17 12.28a.177.177 0 0 0-.175.176v1.171a.175.175 0 1 0 .351 0v-1.171a.176.176 0 0 0-.176-.176m-4.861.176a.175.175 0 1 1 .351 0v1.171a.175.175 0 1 1-.351 0zm3.329.408h-.3a.6.6 0 0 0-.103-.181l.15-.26a.18.18 0 0 0-.063-.241.174.174 0 0 0-.239.065l-.15.26a.6.6 0 0 0-.204.003l-.152-.265a.18.18 0 0 0-.239-.066.173.173 0 0 0-.063.239l.147.258a.6.6 0 0 0-.108.183h-.295a.18.18 0 0 0-.176.176c0 .096.08.175.176.175h.298a.5.5 0 0 0 .105.183l-.147.258a.174.174 0 1 0 .302.173l.15-.258.006.002q.048.01.097.012a.5.5 0 0 0 .105-.014l.15.258a.18.18 0 0 0 .152.089.173.173 0 0 0 .15-.262l-.15-.26a.45.45 0 0 0 .108-.181h.295a.177.177 0 0 0 .176-.175.18.18 0 0 0-.176-.176zm-.644.274a.197.197 0 0 1-.265.07.196.196 0 0 1-.073-.265.194.194 0 0 1 .335.195zm5.03-.274h.3l.002-.005c.096 0 .176.08.176.176s-.08.175-.176.175h-.295a1 1 0 0 1-.045.099c-.016.03-.04.056-.063.082l.15.26a.174.174 0 1 1-.302.173l-.15-.258a1 1 0 0 1-.106.014q-.048-.001-.097-.012l-.006-.002-.15.258a.17.17 0 0 1-.152.089.2.2 0 0 1-.087-.023.175.175 0 0 1-.063-.239l.148-.258a.6.6 0 0 1-.106-.183h-.297a.177.177 0 0 1-.176-.175c0-.096.08-.176.176-.176H11a.6.6 0 0 1 .108-.183l-.148-.258a.175.175 0 0 1 .063-.239.18.18 0 0 1 .239.066l.153.265a.6.6 0 0 1 .203-.003l.15-.26a.174.174 0 0 1 .239-.065.18.18 0 0 1 .064.241l-.15.26a.6.6 0 0 1 .103.181m-.609.344a.195.195 0 0 0 .264-.07h-.002a.195.195 0 0 0-.166-.291.192.192 0 0 0-.096.361M6.827 9.935c.097 0 .176.08.176.176v1.171a.177.177 0 0 1-.176.176.177.177 0 0 1-.175-.176v-1.171c0-.096.079-.176.175-.176"/>
</svg>