<svg id="strib-weather-day-night-sleet-lg-color" viewBox="0 0 16 16" width="16" height="16" fill="currentcolor" class="strib-icon strib-weather-day-night-sleet-lg-color" xmlns="http://www.w3.org/2000/svg" clip-rule="evenodd" fill-rule="evenodd">
  <path fill="var(--weather-cloud-highlight, #afc2c4)" d="M8.77 2.109a3.41 3.41 0 0 1 2.047 3.126 1.83 1.83 0 0 1 .81 3.469H3.018c-.903 0-1.64-.737-1.64-1.64 0-.893.718-1.623 1.609-1.64q.015.003.031.003c.583 0 1.128.312 1.421.82a.19.19 0 0 0 .164.093.19.19 0 0 0 .164-.093c.292-.505.835-.82 1.418-.82s1.127.312 1.42.82a.19.19 0 0 0 .257.068.19.19 0 0 0 .069-.258 2 2 0 0 0-.539-.606l.014.001c0-.041.007-.177.007-.217 0-.618-.255-1.176-.665-1.574q.013-.015.022-.031a3.23 3.23 0 0 1 2-1.521M4.648 3.311A2.2 2.2 0 0 1 5.781 5.09a2.03 2.03 0 0 0-1.178.728 2.03 2.03 0 0 0-1.387-.76 2.01 2.01 0 0 1 1.432-1.747"/>
  <path fill="var(--weather-cloud-shadow, #839396)" d="M7.392 5.451a2.02 2.02 0 0 0-1.611-.361 2.19 2.19 0 0 0-1.134-1.779q.272-.08.569-.082l-.003-.002c.465 0 .916.161 1.272.454.043.035.098.05.154.04a.2.2 0 0 0 .109-.06c.41.398.665.956.665 1.574 0 .04-.007.176-.007.217zM8.77 2.109q.387-.1.796-.101a3.23 3.23 0 0 1 3.226 3.227c0 .103.086.189.19.189.903 0 1.64.737 1.64 1.64s-.735 1.64-1.64 1.64h-1.355a1.83 1.83 0 0 0-.81-3.469A3.41 3.41 0 0 0 8.77 2.109"/>
  <path fill="var(--weather-outline, #231f20)" d="M5.09 10.715h-.323a.6.6 0 0 0-.111-.195l.161-.28a.188.188 0 0 0-.325-.189l-.162.28a.6.6 0 0 0-.219.003l-.164-.285a.19.19 0 0 0-.258-.071.19.19 0 0 0-.068.257l.159.278a.6.6 0 0 0-.116.197h-.318a.19.19 0 0 0-.189.189.19.19 0 0 0 .189.189h.321a.6.6 0 0 0 .113.197l-.159.277a.19.19 0 0 0 .068.258.187.187 0 0 0 .258-.071l.161-.277c.038.007.073.015.111.015s.076-.008.114-.015l.161.277a.19.19 0 0 0 .164.096.19.19 0 0 0 .162-.283l-.162-.28c.025-.027.051-.055.068-.088a.4.4 0 0 0 .048-.106h.318a.19.19 0 0 0 .189-.189.19.19 0 0 0-.189-.189zm-.979.371a.22.22 0 0 1-.099-.127.2.2 0 0 1 .021-.158.2.2 0 0 1 .181-.104q.057 0 .104.028a.214.214 0 0 1 .078.285.21.21 0 0 1-.285.076m6.025-.371h-.323a.7.7 0 0 0-.111-.195l.161-.28a.188.188 0 0 0-.325-.189l-.162.28a.6.6 0 0 0-.219.003l-.164-.285a.19.19 0 0 0-.258-.071.19.19 0 0 0-.068.257l.159.278a.6.6 0 0 0-.116.197h-.318a.19.19 0 0 0-.189.189.19.19 0 0 0 .189.189h.321a.6.6 0 0 0 .113.197l-.159.277a.19.19 0 0 0 .068.258.187.187 0 0 0 .258-.071l.161-.277c.038.007.073.015.111.015s.076-.008.114-.015l.161.277a.19.19 0 0 0 .164.096.19.19 0 0 0 .162-.283l-.162-.28c.025-.027.051-.055.068-.088a.4.4 0 0 0 .048-.106h.318a.19.19 0 0 0 .189-.189.19.19 0 0 0-.189-.189zm-.979.371a.22.22 0 0 1-.099-.127.2.2 0 0 1 .021-.158.2.2 0 0 1 .181-.104q.057 0 .104.028a.214.214 0 0 1 .078.285.21.21 0 0 1-.285.076m2.629.638a.19.19 0 0 1-.189-.189v-1.262a.19.19 0 0 1 .189-.189.19.19 0 0 1 .189.189v1.262a.19.19 0 0 1-.189.189m-2.523 2.525a.19.19 0 0 1-.189-.189v-1.261a.19.19 0 0 1 .189-.19c.103 0 .189.086.189.19v1.261a.19.19 0 0 1-.189.189m-5.046-.002a.19.19 0 0 1-.189-.189v-1.262a.19.19 0 0 1 .189-.189.19.19 0 0 1 .189.189v1.262a.19.19 0 0 1-.189.189m3.396-1.009H7.29a.6.6 0 0 0-.111-.195l.161-.28a.188.188 0 0 0-.325-.189l-.162.28a.6.6 0 0 0-.219.003l-.164-.285a.19.19 0 0 0-.258-.071.19.19 0 0 0-.068.257l.159.278a.6.6 0 0 0-.116.197h-.318a.19.19 0 0 0-.189.189.19.19 0 0 0 .189.189h.321a.6.6 0 0 0 .113.197l-.159.277a.19.19 0 0 0 .068.258.187.187 0 0 0 .258-.071l.161-.277c.038.007.073.015.111.015s.076-.008.114-.015l.161.277a.19.19 0 0 0 .164.096.19.19 0 0 0 .162-.283l-.162-.28c.025-.027.051-.055.068-.088a.6.6 0 0 0 .048-.106h.318a.19.19 0 0 0 .189-.189.19.19 0 0 0-.189-.189zm-.979.371a.22.22 0 0 1-.099-.127.2.2 0 0 1 .021-.159.2.2 0 0 1 .181-.103q.057 0 .104.028a.21.21 0 0 1 .075.285.21.21 0 0 1-.285.076zm6.025-.371h-.323a.7.7 0 0 0-.111-.195l.161-.28a.188.188 0 0 0-.325-.189l-.162.28a.6.6 0 0 0-.219.003l-.164-.285a.19.19 0 0 0-.258-.071.19.19 0 0 0-.068.257l.159.278a.6.6 0 0 0-.116.197h-.318a.19.19 0 0 0-.189.189.19.19 0 0 0 .189.189h.321a.6.6 0 0 0 .113.197l-.159.277a.19.19 0 0 0 .068.258.187.187 0 0 0 .258-.071l.161-.277c.038.007.073.015.111.015s.076-.008.114-.015l.161.277a.19.19 0 0 0 .164.096.19.19 0 0 0 .162-.283l-.162-.28c.025-.027.051-.055.068-.088a.6.6 0 0 0 .048-.106h.318a.19.19 0 0 0 .189-.189.19.19 0 0 0-.189-.189zm-.979.371a.21.21 0 0 1-.079-.286.21.21 0 0 1 .182-.103q.057 0 .104.028a.21.21 0 0 1 .075.285.21.21 0 0 1-.285.076zm-4.94-3.525a.19.19 0 0 1 .189.189v1.262a.19.19 0 0 1-.189.189.19.19 0 0 1-.189-.189v-1.262a.19.19 0 0 1 .189-.189m6.244-.999H3.018A2.02 2.02 0 0 1 1 7.066c0-1.052.81-1.917 1.837-2.01a2.39 2.39 0 0 1 2.379-2.205c.477 0 .946.143 1.337.411a3.61 3.61 0 0 1 3.013-1.63 3.61 3.61 0 0 1 3.6 3.424 2.02 2.02 0 0 1-.184 4.029zM5.216 3.229a2.01 2.01 0 0 0-2.008 2.006.19.19 0 0 1-.19.189c-.905 0-1.64.737-1.64 1.64s.737 1.64 1.64 1.64h9.964c.905 0 1.64-.737 1.64-1.64s-.737-1.64-1.64-1.64a.19.19 0 0 1-.19-.189 3.23 3.23 0 0 0-3.226-3.227A3.23 3.23 0 0 0 6.77 3.63a.19.19 0 0 1-.285.051 2 2 0 0 0-1.272-.454zM7.769 6.34a.19.19 0 0 1-.164-.093 1.64 1.64 0 0 0-1.42-.82c-.583 0-1.126.315-1.418.82a.19.19 0 0 1-.164.093.19.19 0 0 1-.164-.093 1.64 1.64 0 0 0-1.421-.82.19.19 0 0 1-.189-.19.19.19 0 0 1 .189-.189c.621 0 1.204.288 1.585.77.378-.48.964-.77 1.582-.77.716 0 1.385.386 1.746 1.009a.19.19 0 0 1-.162.283"/>
</svg>