<svg id="strib-weather-day-sunny-lg-color" viewBox="0 0 16 16" width="16" height="16" fill="currentcolor" class="strib-icon strib-weather-day-sunny-lg-color" xmlns="http://www.w3.org/2000/svg" clip-rule="evenodd" fill-rule="evenodd">
  <path fill="var(--weather-sun-shadow, #ffc783)" d="M4.592 12.339a3.8 3.8 0 0 0-1.1.159 3.85 3.85 0 0 0-.136-2.583 3.9 3.9 0 0 0-1.73-1.923 3.84 3.84 0 0 0 1.73-1.922c.343-.83.389-1.733.136-2.583a3.88 3.88 0 0 0 4.505-1.866 3.88 3.88 0 0 0 4.506 1.866 3.85 3.85 0 0 0 .136 2.583 3.9 3.9 0 0 0 1.73 1.922 3.85 3.85 0 0 0-1.73 1.923 3.85 3.85 0 0 0-.136 2.583 3.9 3.9 0 0 0-1.1-.159 3.87 3.87 0 0 0-3.406 2.025 3.84 3.84 0 0 0-1.922-1.73 3.8 3.8 0 0 0-1.483-.295m3.406-.374a3.977 3.977 0 0 0 3.973-3.973 3.98 3.98 0 0 0-3.973-3.973 3.95 3.95 0 0 0-2.811 1.163 3.975 3.975 0 0 0 2.811 6.783m-2.804-1.724a3.78 3.78 0 0 0 5.047-5.055 3.59 3.59 0 0 1 1.351 2.806 3.592 3.592 0 0 1-6.398 2.249"/>
  <path fill="var(--weather-sun-highlight, #fff3c0)" d="M10.241 5.186a3.78 3.78 0 0 1-5.046 5.055 3.58 3.58 0 0 1-.792-2.249c0-.961.373-1.864 1.052-2.542a3.57 3.57 0 0 1 2.543-1.052c.848 0 1.628.295 2.243.788"/>
  <path fill="var(--weather-outline, #231f20)" d="M7.998 11.965a3.975 3.975 0 0 1-2.811-6.783 3.95 3.95 0 0 1 2.811-1.163 3.98 3.98 0 0 1 3.973 3.973 3.977 3.977 0 0 1-3.973 3.973m0-7.567c-.962 0-1.865.373-2.543 1.052a3.57 3.57 0 0 0-1.052 2.542 3.6 3.6 0 0 0 3.595 3.595 3.6 3.6 0 0 0 3.594-3.595 3.6 3.6 0 0 0-3.594-3.594m-.001 10.594a.19.19 0 0 1-.174-.116 3.47 3.47 0 0 0-1.891-1.892 3.52 3.52 0 0 0-2.677 0 .19.19 0 0 1-.207-.04.19.19 0 0 1-.04-.207 3.47 3.47 0 0 0 0-2.676 3.52 3.52 0 0 0-1.892-1.892.188.188 0 0 1 0-.348 3.47 3.47 0 0 0 1.892-1.892 3.47 3.47 0 0 0 0-2.676.19.19 0 0 1 .04-.207.19.19 0 0 1 .207-.041 3.5 3.5 0 0 0 2.677 0 3.47 3.47 0 0 0 1.891-1.891c.058-.142.291-.142.351 0a3.48 3.48 0 0 0 1.892 1.891 3.5 3.5 0 0 0 2.676 0 .19.19 0 0 1 .207.041.19.19 0 0 1 .041.207 3.46 3.46 0 0 0 0 2.676 3.5 3.5 0 0 0 1.894 1.892.188.188 0 0 1 0 .348 3.47 3.47 0 0 0-1.892 1.892 3.47 3.47 0 0 0-.015 2.641q.035.046.035.108c0 .106-.08.19-.191.19a.2.2 0 0 1-.076-.016 3.486 3.486 0 0 0-4.568 1.892.19.19 0 0 1-.174.116zm-3.405-2.653c.512 0 1.012.098 1.483.295.83.343 1.501.951 1.922 1.73a3.87 3.87 0 0 1 3.406-2.025q.561 0 1.1.159a3.85 3.85 0 0 1 .136-2.583 3.85 3.85 0 0 1 1.73-1.923 3.9 3.9 0 0 1-1.73-1.922 3.85 3.85 0 0 1-.136-2.583 3.88 3.88 0 0 1-4.506-1.866 3.88 3.88 0 0 1-4.505 1.866c.253.85.207 1.753-.136 2.583a3.84 3.84 0 0 1-1.73 1.922 3.9 3.9 0 0 1 1.73 1.923c.343.829.389 1.733.136 2.583a3.8 3.8 0 0 1 1.1-.159"/>
</svg>