<svg id="strib-weather-night-partly-cloudy-showers-lg-color" viewBox="0 0 16 16" width="16" height="16" fill="currentcolor" class="strib-icon strib-weather-night-partly-cloudy-showers-lg-color" xmlns="http://www.w3.org/2000/svg" clip-rule="evenodd" fill-rule="evenodd">
  <path fill="var(--weather-moon-shadow, #afc2c4)" d="M4.989 10.216a4.5 4.5 0 0 1-1.829-.901 4.66 4.66 0 0 0 2.373.269c-.24.15-.431.371-.544.632m3.375-2.17q.297-.34.531-.743a4.66 4.66 0 0 0-.345-5.177 4.51 4.51 0 0 1 1.765 4.999 2.45 2.45 0 0 0-1.712 1.047 1.6 1.6 0 0 0-.239-.126"/>
  <path fill="var(--weather-moon-highlight, #d3eaea)" d="M5.533 9.584a4.66 4.66 0 0 1-2.373-.269 4.5 4.5 0 0 1-.83-.896h.002a4.1 4.1 0 0 0 1.429.256 4.15 4.15 0 0 0 3.584-2.067 4.12 4.12 0 0 0-.938-5.249 4.5 4.5 0 0 1 2.143.767 4.66 4.66 0 0 1-.186 5.92 1.63 1.63 0 0 0-2.261 1.338 1.4 1.4 0 0 0-.57.2M2.33 3.28a1.16 1.16 0 0 0 .482-.482c.119.215.268.363.483.482a1.17 1.17 0 0 0-.483.483 1.16 1.16 0 0 0-.482-.483"/>
  <path fill="var(--weather-cloud-highlight, #afc2c4)" d="M12.071 11.808H6.265a1.046 1.046 0 0 1 0-2.09.173.173 0 0 0 .172-.172c0-.597.408-1.1.961-1.245.423.255.705.717.706 1.247v.003c0 .027-.005.051-.007.077l1.084.064.005-.144c0-.395-.157-.753-.412-1.016q.013-.014.023-.031A2.1 2.1 0 0 1 10.152 7.5a2.27 2.27 0 0 1 1.293 2.048 1.217 1.217 0 0 1 .626 2.26"/>
  <path fill="var(--weather-cloud-shadow, #839396)" d="M10.152 7.5a2.102 2.102 0 0 1 2.564 2.046c0 .094.078.172.172.172a1.046 1.046 0 0 1 0 2.09h-.817a1.216 1.216 0 0 0-.626-2.26c0-.903-.528-1.683-1.293-2.048M8.104 9.551v-.003a1.46 1.46 0 0 0-.706-1.247q.156-.041.326-.042v-.003c.302 0 .584.101.817.291a.17.17 0 0 0 .233-.015c.255.263.412.621.412 1.016l-.005.144-1.084-.064q.005-.038.007-.077"/>
  <path fill="var(--weather-outline, #231f20)" d="M11.992 1.943h-1.196a.173.173 0 0 1-.172-.172c0-.094.078-.172.172-.172h1.196c.093 0 .171.078.171.172a.173.173 0 0 1-.171.172m-.6.596a.17.17 0 0 1-.171-.171V1.172c0-.094.078-.172.171-.172s.172.078.172.172v1.196a.17.17 0 0 1-.172.171M5.284 5.78H4.088a.173.173 0 0 1-.171-.172c0-.094.078-.171.171-.171h1.196c.094 0 .172.077.172.171a.173.173 0 0 1-.172.172m-.596.599a.173.173 0 0 1-.172-.172V5.011c0-.093.078-.171.172-.171s.171.078.171.171v1.196a.173.173 0 0 1-.171.172M2.812 4.371a.17.17 0 0 1-.162-.117c-.162-.482-.329-.649-.812-.811a.17.17 0 0 1-.116-.163c0-.073.045-.139.116-.162.483-.165.65-.332.812-.812a.17.17 0 0 1 .162-.117.17.17 0 0 1 .163.117c.162.48.329.647.812.812a.17.17 0 0 1 .116.162c0 .073-.048.14-.116.163-.481.162-.648.329-.812.811a.17.17 0 0 1-.163.117M2.33 3.28c.215.119.364.268.482.483.119-.215.268-.364.483-.483a1.17 1.17 0 0 1-.483-.482 1.16 1.16 0 0 1-.482.482m6.346 9.264c.094 0 .171.078.171.172v.617a.172.172 0 0 1-.343 0v-.617c0-.094.078-.172.172-.172m0 1.496c.094 0 .171.077.171.171v.617a.17.17 0 0 1-.171.172.173.173 0 0 1-.172-.172v-.617c0-.094.078-.171.172-.171m3.599-1.496c.094 0 .172.078.172.172v.617a.172.172 0 0 1-.343 0v-.617c0-.094.077-.172.171-.172m0 1.496c.094 0 .172.077.172.171v.617a.173.173 0 0 1-.172.172.17.17 0 0 1-.171-.172v-.617c0-.094.077-.171.171-.171m-1.799.96a.173.173 0 0 1-.172-.172v-.617a.172.172 0 0 1 .343 0v.617a.173.173 0 0 1-.171.172m0-1.496a.17.17 0 0 1-.172-.171v-.617c0-.094.078-.172.172-.172s.171.078.171.172v.617a.17.17 0 0 1-.171.171M6.878 15a.173.173 0 0 1-.171-.172v-.617c0-.094.078-.171.171-.171s.172.077.172.171v.617a.173.173 0 0 1-.172.172m0-1.496a.17.17 0 0 1-.171-.171v-.617c0-.094.078-.172.171-.172s.172.078.172.172v.617a.17.17 0 0 1-.172.171m.751-3.477a1 1 0 0 0-.165.217.174.174 0 0 1-.298 0l-.035-.056a5 5 0 0 0 .498-.161m-1.183-.638c.338.046.648.214.869.473a1.39 1.39 0 0 1 1.4-.44q-.22.165-.458.304c-.239.025-.46.133-.628.301a5 5 0 0 1-.498.161 1.05 1.05 0 0 0-.868-.468l-.024-.002h.026a.173.173 0 0 0 .172-.172q0-.08.009-.157m-.207.329a.17.17 0 0 1-.147-.17c0-.093.077-.171.171-.171q.093 0 .183.012a1 1 0 0 0-.009.157.173.173 0 0 1-.172.172zm3.948-2.226a2.12 2.12 0 0 0-1.39 1.009.17.17 0 0 1-.256.046 1.28 1.28 0 0 0-.817-.291v.003c-.658 0-1.2.495-1.278 1.13a1.4 1.4 0 0 0-.183-.012.17.17 0 0 0-.171.171c0 .086.064.158.147.17-.392.01-.732.237-.902.565a5 5 0 0 1-.348-.067 1.4 1.4 0 0 1 1.114-.832 1.632 1.632 0 0 1 2.5-1.212 2.45 2.45 0 0 1 1.712-1.047q-.056.185-.128.367m-5.293 3.054q.028-.173.095-.33.173.04.348.067a1 1 0 0 0-.106.33 5 5 0 0 1-.337-.067m5.778-3.439a2.446 2.446 0 0 1 2.385 2.279 1.39 1.39 0 0 1-.167 2.767l-.002-.002H6.265a1.39 1.39 0 0 1-1.371-1.605q.167.04.337.067a1.046 1.046 0 0 0 1.034 1.195h6.623a1.046 1.046 0 0 0 0-2.09.173.173 0 0 1-.172-.172 2.1 2.1 0 0 0-2.15-2.098q.06-.17.106-.341m-.357.018q.15-.02.304-.019l.053.001a5 5 0 0 1-.106.341 2 2 0 0 0-.379.044q.072-.182.128-.367m-5.421 3.421a4.84 4.84 0 0 1-3.152-2.431.17.17 0 0 1 .231-.231 3.8 3.8 0 0 0 1.786.448 3.8 3.8 0 0 0 3.286-1.896 3.776 3.776 0 0 0-1.283-5.115.17.17 0 0 1-.075-.19.175.175 0 0 1 .16-.128c.899-.03 1.8.192 2.575.64a4.85 4.85 0 0 1 2.25 5.464l-.053-.001q-.154 0-.304.019a4.506 4.506 0 0 0-2.06-5.185 4.5 4.5 0 0 0-1.848-.581 4.12 4.12 0 0 1 .938 5.249 4.15 4.15 0 0 1-3.584 2.067 4.1 4.1 0 0 1-1.429-.256H2.33a4.48 4.48 0 0 0 2.659 1.797 1.4 1.4 0 0 0-.095.33m3.877-.744a1.04 1.04 0 0 0-.514-.076q.239-.139.458-.304.192.05.359.15a5 5 0 0 1-.303.23m.303-.23c.201.119.373.289.493.498a.169.169 0 0 1-.148.256l.002.002a.17.17 0 0 1-.149-.084 1.05 1.05 0 0 0-.501-.442q.156-.109.303-.23"/>
</svg>