<svg id="strib-weather-day-night-flurries-lg-color" viewBox="0 0 16 16" width="16" height="16" fill="currentcolor" class="strib-icon strib-weather-day-night-flurries-lg-color" xmlns="http://www.w3.org/2000/svg" clip-rule="evenodd" fill-rule="evenodd">
  <path fill="var(--weather-cloud-shadow, #839396)" d="M6.747 3.404c.411.398.666.956.666 1.575 0 .04-.007.176-.007.217l-.011-.001a2.02 2.02 0 0 0-1.614-.363 2.2 2.2 0 0 0-1.137-1.779q.273-.082.572-.083l-.003-.002c.465 0 .916.161 1.272.454a.2.2 0 0 0 .154.04.2.2 0 0 0 .108-.058m2.018-1.553q.39-.101.801-.102a3.23 3.23 0 0 1 3.226 3.227.19.19 0 0 0 .19.189c.903 0 1.64.737 1.64 1.64 0 .904-.735 1.64-1.64 1.64h-1.343a1.831 1.831 0 0 0-.822-3.464 3.42 3.42 0 0 0-2.052-3.13"/>
  <path fill="var(--weather-cloud-highlight, #afc2c4)" d="M2.987 5.165q.015.003.031.003c.583 0 1.128.313 1.421.82a.19.19 0 0 0 .164.093.19.19 0 0 0 .164-.093c.292-.505.835-.82 1.418-.82s1.127.313 1.42.82a.19.19 0 0 0 .257.068.187.187 0 0 0 .069-.257 2 2 0 0 0-.536-.604l.011.001c0-.041.007-.177.007-.217 0-.619-.255-1.177-.666-1.575l.023-.032a3.24 3.24 0 0 1 1.996-1.521 3.42 3.42 0 0 1 2.051 3.13 1.83 1.83 0 0 1 .822 3.464H3.018c-.903 0-1.64-.736-1.64-1.64 0-.893.718-1.623 1.609-1.64m1.657-2.112a2.2 2.2 0 0 1 1.137 1.779 2.03 2.03 0 0 0-1.178.727A2.03 2.03 0 0 0 3.216 4.8a2.01 2.01 0 0 1 1.428-1.747"/>
  <path fill="var(--weather-outline, #231f20)" d="M12.984 8.826H3.018A2.02 2.02 0 0 1 1 6.808c0-1.052.81-1.918 1.837-2.011a2.39 2.39 0 0 1 2.379-2.205c.477 0 .946.144 1.337.411a3.62 3.62 0 0 1 3.013-1.63 3.61 3.61 0 0 1 3.6 3.424A2.02 2.02 0 0 1 15 6.808a2.02 2.02 0 0 1-2.018 2.018zM5.216 2.97a2.01 2.01 0 0 0-2.008 2.006.19.19 0 0 1-.19.189c-.905 0-1.64.737-1.64 1.64 0 .904.737 1.64 1.64 1.64h9.964c.905 0 1.64-.736 1.64-1.64s-.737-1.64-1.64-1.64a.19.19 0 0 1-.19-.189 3.23 3.23 0 0 0-3.226-3.227A3.23 3.23 0 0 0 6.77 3.372a.2.2 0 0 1-.131.09.2.2 0 0 1-.154-.04 2 2 0 0 0-1.272-.454zm2.553 3.111a.19.19 0 0 1-.164-.093 1.64 1.64 0 0 0-1.42-.82c-.583 0-1.126.315-1.418.82a.19.19 0 0 1-.164.093.19.19 0 0 1-.164-.093 1.65 1.65 0 0 0-1.421-.82.19.19 0 0 1-.189-.189.19.19 0 0 1 .189-.189c.621 0 1.204.287 1.585.769a2.03 2.03 0 0 1 1.582-.769c.716 0 1.385.386 1.746 1.009a.187.187 0 0 1-.162.282m2.46 6.936-.442-.262.341-.202a.19.19 0 1 0-.192-.328l-.519.305-1.042-.618 1.042-.618.519.308a.2.2 0 0 0 .096.025.19.19 0 0 0 .099-.353l-.341-.202.441-.263a.19.19 0 0 0 .066-.26.187.187 0 0 0-.26-.065l-.431.255v-.396a.19.19 0 1 0-.379 0v.62l-1.037.613v-1.233l.523-.311a.19.19 0 0 0 .065-.26.187.187 0 0 0-.26-.065l-.328.194v-.517a.19.19 0 0 0-.189-.189.19.19 0 0 0-.189.189v.517l-.328-.194a.19.19 0 0 0-.26.065.19.19 0 0 0 .066.26l.522.311v1.233l-1.037-.613v-.62a.19.19 0 0 0-.189-.19.19.19 0 0 0-.189.19v.396l-.432-.255a.19.19 0 0 0-.26.065.19.19 0 0 0 .066.26l.441.263-.34.202a.186.186 0 0 0-.066.259.19.19 0 0 0 .164.094.2.2 0 0 0 .096-.025l.52-.308 1.042.615-1.042.618-.52-.307a.19.19 0 1 0-.192.328l.341.202-.442.262a.19.19 0 0 0 .099.353.2.2 0 0 0 .096-.025l.431-.255v.396c0 .104.083.189.189.189a.19.19 0 0 0 .19-.189v-.62l1.036-.614v1.237l-.522.31a.19.19 0 0 0-.065.26c.035.06.098.093.164.093a.16.16 0 0 0 .095-.028l.328-.196v.514c0 .104.086.19.19.19a.19.19 0 0 0 .189-.19v-.514l.328.196q.046.028.096.028a.2.2 0 0 0 .164-.093.19.19 0 0 0-.066-.26l-.522-.31V12.25l1.037.613v.621a.19.19 0 0 0 .189.189.19.19 0 0 0 .189-.189v-.396l.432.254q.046.027.096.026a.19.19 0 0 0 .164-.094.19.19 0 0 0-.066-.26zm-5.75-1.799-.406-.235a.7.7 0 0 0 0-.363l.404-.232a.19.19 0 0 0 .068-.257.187.187 0 0 0-.258-.068l-.406.234a.66.66 0 0 0-.313-.181v-.467a.19.19 0 0 0-.189-.189.19.19 0 0 0-.189.189v.469a.7.7 0 0 0-.31.179l-.407-.234a.188.188 0 1 0-.189.325l.409.235a.7.7 0 0 0 0 .358l-.406.235a.187.187 0 0 0-.068.257c.035.06.098.096.164.096a.2.2 0 0 0 .093-.025l.406-.235a.7.7 0 0 0 .31.182v.466c0 .104.086.19.19.19a.19.19 0 0 0 .189-.19v-.464a.74.74 0 0 0 .315-.182l.404.233q.046.025.093.025a.188.188 0 0 0 .096-.351m-1.261-.121a.338.338 0 0 1 .169-.631c.058 0 .116.015.166.046a.335.335 0 0 1 .121.459.344.344 0 0 1-.459.123zm10.498.121-.406-.235a.7.7 0 0 0 0-.363l.403-.232a.187.187 0 0 0 .068-.257.186.186 0 0 0-.257-.068l-.406.234a.66.66 0 0 0-.313-.181v-.467a.19.19 0 0 0-.189-.189.19.19 0 0 0-.189.189v.469a.7.7 0 0 0-.311.179l-.406-.234a.188.188 0 0 0-.189.325l.409.235a.7.7 0 0 0 0 .358l-.407.235a.19.19 0 0 0-.068.257c.036.06.099.096.164.096a.2.2 0 0 0 .094-.025l.406-.235a.7.7 0 0 0 .31.182v.466c0 .104.086.19.189.19s.19-.086.19-.19v-.464a.74.74 0 0 0 .315-.182l.404.233q.046.025.093.025a.188.188 0 0 0 .096-.351m-1.262-.121a.338.338 0 0 1 .336-.585.335.335 0 0 1 .121.459.344.344 0 0 1-.459.123z"/>
</svg>