<svg id="strib-weather-night-mostly-cloudy-lg-color" viewBox="0 0 16 16" width="16" height="16" fill="currentcolor" class="strib-icon strib-weather-night-mostly-cloudy-lg-color" xmlns="http://www.w3.org/2000/svg" clip-rule="evenodd" fill-rule="evenodd">
  <path fill="var(--weather-cloud-shadow, #839396)" d="M8.765 7.176q.39-.101.801-.102a3.23 3.23 0 0 1 3.226 3.227.19.19 0 0 0 .19.189c.903 0 1.64.737 1.64 1.64 0 .904-.735 1.64-1.64 1.64h-1.349a1.83 1.83 0 0 0-.816-3.466c0-1.4-.845-2.601-2.052-3.128M4.644 8.378q.273-.082.572-.083l-.003-.002c.465 0 .916.161 1.272.454.043.035.098.05.154.04a.2.2 0 0 0 .107-.058c.411.398.667.956.667 1.575 0 .04-.007.176-.007.217l-1.63-.096c.003-.041.01-.078.01-.121 0-.832-.462-1.554-1.142-1.926"/>
  <path fill="var(--weather-cloud-highlight, #afc2c4)" d="M4.644 8.378a2.19 2.19 0 0 1 1.142 1.926c0 .043-.007.08-.01.121l1.63.096c0-.041.007-.177.007-.217 0-.619-.256-1.177-.667-1.575l.024-.032a3.24 3.24 0 0 1 1.996-1.521 3.41 3.41 0 0 1 2.051 3.128 1.83 1.83 0 0 1 .816 3.466H3.018c-.903 0-1.64-.736-1.64-1.64s.735-1.64 1.64-1.64a.19.19 0 0 0 .19-.189 2.01 2.01 0 0 1 1.436-1.923"/>
  <path fill="var(--weather-moon-highlight, #d3eaea)" d="M3.639 4.365c.237-.132.401-.296.532-.533.132.237.296.401.533.533a1.3 1.3 0 0 0-.533.532 1.3 1.3 0 0 0-.532-.532M9.687 6.7a4.54 4.54 0 0 0-1.55-4.455 4.97 4.97 0 0 1 2.367.848 5.16 5.16 0 0 1 .968 4.152A3.6 3.6 0 0 0 9.687 6.7"/>
  <path fill="var(--weather-moon-shadow, #afc2c4)" d="M11.472 7.245a5.16 5.16 0 0 0-.968-4.152 4.97 4.97 0 0 1 2.034 5.173 3.6 3.6 0 0 0-1.066-1.021"/>
  <path fill="var(--weather-outline, #231f20)" d="M14.298 2.889h-1.319a.19.19 0 0 1-.189-.19.19.19 0 0 1 .189-.189h1.319c.104 0 .19.086.19.189s-.086.19-.19.19m-.66.658a.19.19 0 0 1-.19-.189v-1.32c0-.103.086-.189.19-.189a.19.19 0 0 1 .189.189v1.32a.19.19 0 0 1-.189.189M4.171 5.568a.19.19 0 0 1-.179-.129c-.179-.532-.366-.716-.895-.895a.19.19 0 0 1-.129-.179c0-.081.05-.154.129-.18.532-.181.716-.365.895-.895a.19.19 0 0 1 .179-.129.19.19 0 0 1 .179.129c.18.53.364.714.896.895a.19.19 0 0 1 .129.18c0 .08-.053.153-.129.179-.53.179-.714.363-.896.895a.19.19 0 0 1-.179.129m-.532-1.203c.237.131.401.295.532.532.132-.237.296-.401.533-.532a1.3 1.3 0 0 1-.533-.533 1.3 1.3 0 0 1-.532.533m5.543 2.732q.067-.193.113-.389a4 4 0 0 1 .392-.008q-.04.188-.097.374h-.024q-.193 0-.384.023m.113-.389a4.17 4.17 0 0 0-1.869-4.506.19.19 0 0 1-.083-.209.19.19 0 0 1 .176-.141 5.35 5.35 0 0 1 2.841.706 5.35 5.35 0 0 1 2.444 6.163 3.5 3.5 0 0 0-.266-.455 4.97 4.97 0 0 0-2.362-5.38 5 5 0 0 0-2.039-.641A4.54 4.54 0 0 1 9.687 6.7l-.121-.002q-.136 0-.271.01m3.687 7.443H3.018A2.02 2.02 0 0 1 1 12.133c0-1.052.81-1.918 1.837-2.011a2.39 2.39 0 0 1 2.379-2.205c.477 0 .946.144 1.337.411a3.62 3.62 0 0 1 2.742-1.62q-.046.196-.113.389a3.23 3.23 0 0 0-2.412 1.6.192.192 0 0 1-.285.05 2 2 0 0 0-1.272-.454l.003.002c-.826 0-1.536.5-1.844 1.213l-.127-.065a.188.188 0 0 0-.254.255q.107.2.228.388l-.003.038a2 2 0 0 0-.198-.01.19.19 0 0 0-.189.19.19.19 0 0 0 .158.186 1.64 1.64 0 0 0-1.609 1.64c0 .904.737 1.64 1.64 1.64h9.964c.905 0 1.64-.736 1.64-1.64s-.737-1.64-1.64-1.64a.19.19 0 0 1-.19-.189c0-.369-.062-.723-.177-1.054q.11-.26.189-.526c.21.427.337.901.362 1.401A2.02 2.02 0 0 1 15 12.133a2.02 2.02 0 0 1-2.016 2.018zM9.687 6.7a3.6 3.6 0 0 1 2.851 1.566 5 5 0 0 1-.138.495 3.23 3.23 0 0 0-2.81-1.687q.058-.186.097-.374m-6.441 3.427q.304.035.58.157c.287.358.621.676.995.942a1 1 0 0 0-.054.087.19.19 0 0 1-.164.093.19.19 0 0 1-.164-.093 1.65 1.65 0 0 0-.844-.715 5 5 0 0 1-.349-.471m3.238.01c.599.09 1.137.451 1.447.987a.188.188 0 0 1-.162.282h-.002a.19.19 0 0 1-.162-.093 1.64 1.64 0 0 0-1.42-.82c-.549 0-1.062.279-1.364.733a5 5 0 0 1-.995-.942c.301.132.569.337.777.6.191-.242.435-.436.71-.569.401-.008.794-.07 1.171-.178m-1.171.178a2 2 0 0 1 1.171-.178q-.567.164-1.171.178m-2.094-.229a5 5 0 0 1-.228-.388.188.188 0 0 1 .254-.255l.127.065a2 2 0 0 0-.153.578m9.585-1.365a5 5 0 0 1-.189.526 3 3 0 0 0-.215-.486q.083-.246.138-.495.15.216.266.455m-9.588 1.403.03.003q.163.246.349.471a1.7 1.7 0 0 0-.577-.105l-.031-.003h.031a.19.19 0 0 0 .19-.189q0-.09.008-.177m-.229.366a.19.19 0 0 1-.158-.186c0-.104.086-.19.189-.19q.099 0 .198.01a2 2 0 0 0-.008.177.19.19 0 0 1-.19.189z"/>
</svg>