<svg id="strib-weather-day-partly-sunny-flurries-lg-color" viewBox="0 0 16 16" width="16" height="16" fill="currentcolor" class="strib-icon strib-weather-day-partly-sunny-flurries-lg-color" xmlns="http://www.w3.org/2000/svg" clip-rule="evenodd" fill-rule="evenodd">
  <path fill="var(--weather-sun-highlight, #fff3c0)" d="M9.886 4.517A3.184 3.184 0 0 1 5.64 8.78a3.02 3.02 0 0 1-.669-1.897c0-.81.314-1.57.885-2.142a3 3 0 0 1 2.142-.886c.714 0 1.37.248 1.888.662"/>
  <path fill="var(--weather-sun-shadow, #ffc783)" d="M6.391 9.817a1.5 1.5 0 0 0-.093.39 1.3 1.3 0 0 0-.75.362 3.2 3.2 0 0 0-1.344.108 3.25 3.25 0 0 0-.115-2.176 3.28 3.28 0 0 0-1.457-1.618 3.24 3.24 0 0 0 1.457-1.619c.289-.699.327-1.46.115-2.176a3.27 3.27 0 0 0 2.175-.114 3.25 3.25 0 0 0 1.619-1.458c.355.657.92 1.169 1.619 1.458.69.286 1.466.325 2.175.114a3.25 3.25 0 0 0 .115 2.176 3.3 3.3 0 0 0 1.457 1.619 3.23 3.23 0 0 0-1.483 1.684 2.3 2.3 0 0 0-.794-.397 3.35 3.35 0 0 0-5.456-3.654 3.346 3.346 0 0 0 .76 5.301m.145-.284a3 3 0 0 1-.896-.754c.403.195.853.309 1.329.317-.172.114-.32.263-.433.437m3.35-5.016a3.026 3.026 0 0 1 .88 3.59 2.27 2.27 0 0 0-2.146.974 1.5 1.5 0 0 0-.456-.195 3.185 3.185 0 0 0 1.722-4.369"/>
  <path fill="var(--weather-cloud-highlight, #afc2c4)" d="M11.847 12.459H6.451a.971.971 0 0 1 0-1.942.16.16 0 0 0 .16-.159c0-.57.402-1.05.939-1.168.377.231.629.646.629 1.121l-.002-.002-.006.072.976.057.004-.129c0-.35-.137-.668-.36-.903l.012-.019a1.97 1.97 0 0 1 1.258-.93 2.11 2.11 0 0 1 1.202 1.903 1.13 1.13 0 0 1 .584 2.099"/>
  <path fill="var(--weather-cloud-shadow, #839396)" d="M10.061 8.457q.212-.049.433-.049c1.075 0 1.95.875 1.95 1.95a.16.16 0 0 0 .16.159.972.972 0 0 1 0 1.942h-.757a1.132 1.132 0 0 0-.584-2.099c0-.839-.491-1.563-1.202-1.903m-2.518.729q.141-.038.293-.038l-.002-.002c.267 0 .529.093.734.262a.15.15 0 0 0 .126.032.16.16 0 0 0 .086-.045c.23.236.371.559.371.914l-.004.129-.976-.057q.005-.037.006-.072l.002.002a1.31 1.31 0 0 0-.636-1.125"/>
  <path fill="var(--weather-outline, #231f20)" d="M12.703 7.816a3 3 0 0 0-.565.984 2.4 2.4 0 0 0-.257-.233l.026-.066c.12-.291.28-.559.472-.799q.135.034.324.114M8.443 10.2a1.29 1.29 0 0 1 1.078.642.157.157 0 0 1-.138.238v.003a.16.16 0 0 1-.138-.079.97.97 0 0 0-.839-.487.97.97 0 0 0-.839.487.16.16 0 0 1-.138.079.16.16 0 0 1-.139-.079.97.97 0 0 0-.839-.487.16.16 0 0 0 .16-.159q0-.075.009-.148c.314.042.603.199.809.439.186-.216.439-.365.717-.423q.15-.007.297-.026m-.441 2.578h-.004a.16.16 0 0 1-.147-.098 3 3 0 0 0-.102-.221h.502q-.055.108-.102.221a.16.16 0 0 1-.147.098M6.68 9.959a3 3 0 0 1-.289-.142q.057-.15.145-.284.141.078.29.141a1.2 1.2 0 0 0-.146.285m1.466.267q.128-.027.26-.027l.037.001a4 4 0 0 1-.297.026M12.138 8.8c.354.372.583.865.619 1.409a1.29 1.29 0 0 1-.155 2.571l.002-.002H8.002a.16.16 0 0 0 .147-.098q.047-.113.102-.221h4.353a.972.972 0 0 0 0-1.942.16.16 0 0 1-.16-.159c0-.448-.152-.861-.407-1.191a3 3 0 0 1 .101-.367m-6.59 1.769q.21.027.414.081a1 1 0 0 0-.292.263 3 3 0 0 0-.35-.043q.092-.167.228-.301m.903-.052a.16.16 0 0 1-.159-.159.16.16 0 0 1 .159-.159q.085 0 .169.011a1 1 0 0 0-.009.148.16.16 0 0 1-.16.159m6.3-4.514c.289.317.647.571 1.047.735a.16.16 0 0 1 .097.147.16.16 0 0 1-.097.146c-.428.178-.8.446-1.095.785a2.4 2.4 0 0 0-.324-.114c.269-.334.602-.613.985-.819a3.3 3.3 0 0 1-.828-.643c.102-.09.167-.172.215-.237m-6.215 3.53a1.515 1.515 0 0 1 2.084-.452 2.27 2.27 0 0 1 2.146-.974 3 3 0 0 1-.156.304l-.116-.003c-.694 0-1.342.376-1.691.979a.16.16 0 0 1-.24.043 1.2 1.2 0 0 0-.758-.27l.002.002c-.406 0-.765.203-.981.512a3 3 0 0 1-.29-.141m5.602-.733a3 3 0 0 0-.101.367 2 2 0 0 0-.263-.279q.044-.162.107-.321.137.107.257.233m-4.14 3.978H6.451A1.29 1.29 0 0 1 5.32 10.87q.176.01.35.043a.971.971 0 0 0 .781 1.546h1.298q.055.107.102.221c.024.06.083.098.147.098M6.391 9.817a3.346 3.346 0 1 1 4.696-1.647 2.4 2.4 0 0 0-.321-.063 3.03 3.03 0 0 0-4.91-3.366 3.028 3.028 0 0 0 .68 4.792 1.5 1.5 0 0 0-.145.284m4.696-1.647c.292.079.561.216.794.397a3 3 0 0 0-.107.321 1.96 1.96 0 0 0-.826-.427 3 3 0 0 0 .139-.291m-.321-.063q.165.021.321.063a3 3 0 0 1-.139.291 2 2 0 0 0-.338-.05q.087-.147.156-.304m1.103-2.939a3.25 3.25 0 0 1-.077-2.08 3.27 3.27 0 0 1-2.175-.114 3.24 3.24 0 0 1-1.619-1.458 3.25 3.25 0 0 1-1.619 1.458 3.27 3.27 0 0 1-2.175.114 3.25 3.25 0 0 1-.115 2.176 3.24 3.24 0 0 1-1.457 1.619c.652.354 1.172.93 1.457 1.618.289.699.327 1.46.115 2.176a3.2 3.2 0 0 1 1.344-.108q-.136.134-.228.301a2.9 2.9 0 0 0-1.316.217.158.158 0 0 1-.208-.208 2.93 2.93 0 0 0 0-2.254 2.97 2.97 0 0 0-1.594-1.594.16.16 0 0 1 0-.293 2.93 2.93 0 0 0 1.594-1.593 2.93 2.93 0 0 0 0-2.254.158.158 0 0 1 .208-.208 2.96 2.96 0 0 0 2.254 0 2.92 2.92 0 0 0 1.593-1.594c.049-.119.245-.119.296 0A2.93 2.93 0 0 0 9.74 2.683a2.96 2.96 0 0 0 2.254 0 .159.159 0 0 1 .208.208 2.92 2.92 0 0 0 0 2.254c.132.317.319.607.549.858a1.5 1.5 0 0 1-.215.237 3.3 3.3 0 0 1-.629-.976zm-6.321 5.401c.198-.195.459-.327.75-.362q.021-.205.093-.39.14.078.289.142-.044.12-.06.251a1 1 0 0 0-.169-.011.16.16 0 0 0-.159.159.16.16 0 0 0 .159.159.96.96 0 0 0-.489.133 3 3 0 0 0-.414-.081m1.753 3.745-.246-.143a.5.5 0 0 0 0-.206l.246-.142a.157.157 0 0 0 .057-.217.157.157 0 0 0-.216-.057l-.247.142a.45.45 0 0 0-.178-.099v-.285a.16.16 0 0 0-.159-.16.16.16 0 0 0-.16.16v.293a.5.5 0 0 0-.172.098l-.251-.145a.156.156 0 0 0-.216.058.16.16 0 0 0 .057.216l.249.145a.5.5 0 0 0 0 .204l-.249.144a.16.16 0 0 0-.057.217.16.16 0 0 0 .138.081.14.14 0 0 0 .078-.022l.247-.142a.4.4 0 0 0 .085.062q.045.023.093.038v.287a.16.16 0 0 0 .16.159.16.16 0 0 0 .159-.159v-.287a.5.5 0 0 0 .176-.102l.249.142a.15.15 0 0 0 .078.021.16.16 0 0 0 .081-.297zm-.837-.081a.19.19 0 0 1 .096-.355q.051 0 .093.026a.18.18 0 0 1 .089.115.2.2 0 0 1-.019.144.193.193 0 0 1-.257.07zm3.807.081-.246-.143a.5.5 0 0 0 0-.206l.246-.142a.157.157 0 0 0 .057-.217.157.157 0 0 0-.216-.057l-.247.142a.45.45 0 0 0-.178-.099v-.285a.16.16 0 0 0-.159-.16.16.16 0 0 0-.16.16v.293a.5.5 0 0 0-.172.098l-.251-.145a.156.156 0 0 0-.216.058.16.16 0 0 0 .057.216l.249.145a.5.5 0 0 0 0 .204l-.249.144a.16.16 0 0 0-.057.217c.03.051.083.081.138.081a.14.14 0 0 0 .078-.022l.247-.142a.4.4 0 0 0 .085.062q.045.023.093.038v.287a.16.16 0 0 0 .16.159.16.16 0 0 0 .159-.159v-.287a.5.5 0 0 0 .176-.102l.249.142a.15.15 0 0 0 .079.021.16.16 0 0 0 .08-.297zm-.837-.081a.19.19 0 0 1 .096-.355q.052 0 .093.026a.18.18 0 0 1 .089.115.2.2 0 0 1-.019.144.193.193 0 0 1-.257.07zm3.805.081-.247-.143a.5.5 0 0 0 0-.206l.247-.142a.16.16 0 0 0 .057-.217.157.157 0 0 0-.216-.057l-.247.142a.45.45 0 0 0-.178-.099v-.285a.16.16 0 0 0-.16-.16.16.16 0 0 0-.159.16v.293a.5.5 0 0 0-.172.098l-.251-.145a.156.156 0 0 0-.216.058.16.16 0 0 0 .057.216l.248.145a.5.5 0 0 0 0 .204l-.248.144a.157.157 0 0 0-.057.217.16.16 0 0 0 .138.081.14.14 0 0 0 .078-.022l.247-.142a.4.4 0 0 0 .085.062q.044.023.093.038v.287a.16.16 0 0 0 .159.159.16.16 0 0 0 .16-.159v-.287a.5.5 0 0 0 .176-.102l.249.142a.15.15 0 0 0 .078.021.15.15 0 0 0 .138-.08.16.16 0 0 0-.057-.217zm-.837-.081a.19.19 0 0 1 .095-.355.2.2 0 0 1 .094.026.18.18 0 0 1 .089.115.2.2 0 0 1-.019.144.193.193 0 0 1-.257.07z"/>
</svg>