<?xml version="1.0" encoding="utf-8"?>
<!-- Generator: Adobe Illustrator 27.1.1, SVG Export Plug-In . SVG Version: 6.00 Build 0)  -->
<svg version="1.1" id="Layer_1" xmlns="http://www.w3.org/2000/svg" xmlns:xlink="http://www.w3.org/1999/xlink" x="0px" y="0px"
	 viewBox="0 0 15.1 15.1" style="enable-background:new 0 0 15.1 15.1;" xml:space="preserve">
<style type="text/css">
	.st0{fill:#010101;}
</style>
<path fill="var(--strib-audio-play-bottom, #717171)" id="audio-play-bottom" class="st0" d="M7.6,0C3.4,0,0.1,3.4,0.1,7.5S3.4,15,7.6,15s7.5-3.4,7.5-7.5S11.7,0,7.6,0z M7.6,14
	C4,14,1.1,11.1,1.1,7.5S4,1.1,7.6,1.1S14,4,14,7.5S11.1,14,7.6,14z"/>
<g id="audio-play-top">
	<path fill="var(--strib-play_button, #717171)" id="play_button" d="M9.6,6.7C10.1,7,10.2,7.6,10,8.1C9.9,8.2,9.8,8.3,9.6,8.4l-3.1,1.8c-0.5,0.3-1.1,0.1-1.4-0.3
		C5.1,9.8,5,9.6,5,9.4V5.7c0-0.6,0.5-1,1-1c0.2,0,0.4,0.1,0.5,0.1L9.6,6.7L9.6,6.7z"/>
</g>
</svg>
