<?xml version="1.0" encoding="utf-8"?>
<!-- Generator: Adobe Illustrator 27.1.1, SVG Export Plug-In . SVG Version: 6.00 Build 0)  -->
<svg version="1.1" xmlns="http://www.w3.org/2000/svg" xmlns:xlink="http://www.w3.org/1999/xlink" x="0px" y="0px"
	 viewBox="0 0 15 15" style="enable-background:new 0 0 15 15;" xml:space="preserve">
<g id="audio-pause-bottom">
	<g id="pause" transform="translate(-115 -675)">
		<circle fill="var(--strib-audio-pause-bottom, #006341)" id="Ellipse_14" class="st0" cx="122.5" cy="682.5" r="7.5"/>
	</g>
</g>
<g id="audio-pause-top">
	<g id="Group_669" transform="translate(119.248 678.748)">
		<path fill="var(--strib-audio-pause-top, #ffffff)" id="Rectangle_480" class="st1" d="M-113.7-674.7L-113.7-674.7c0.6,0,1,0.4,1,1v5c0,0.6-0.4,1-1,1l0,0c-0.6,0-1-0.4-1-1v-5
			C-114.7-674.3-114.3-674.7-113.7-674.7z"/>
		<path fill="var(--strib-audio-pause-top, #ffffff)" id="Rectangle_481" class="st1" d="M-109.7-674.7L-109.7-674.7c0.6,0,1,0.4,1,1v5c0,0.6-0.4,1-1,1l0,0c-0.6,0-1-0.4-1-1v-5
			C-110.7-674.3-110.3-674.7-109.7-674.7z"/>
	</g>
</g>
</svg>
