<?xml version="1.0" encoding="iso-8859-1"?>
<!-- Generator: Adobe Illustrator 27.2.0, SVG Export Plug-In . SVG Version: 6.00 Build 0)  -->
<svg version="1.1" id="Layer_1" xmlns="http://www.w3.org/2000/svg" xmlns:xlink="http://www.w3.org/1999/xlink" x="0px" y="0px"
	 viewBox="0 0 36.141 43" style="enable-background:new 0 0 36.141 43;" xml:space="preserve">
<g>
	<path d="M35.044,17.683l-0.005,0.002c-0.328,0.031-0.656,0.048-0.984,0.05c-3.601,0-6.96-1.815-8.935-4.829v16.441
		c0,6.711-5.44,12.153-12.153,12.153S0.814,36.06,0.814,29.347s5.44-12.153,12.153-12.153c0.254,0,0.503,0.024,0.752,0.038v5.99
		c-0.249-0.029-0.496-0.077-0.752-0.077c-3.426,0-6.201,2.777-6.201,6.201s2.777,6.201,6.201,6.201c3.426,0,6.452-2.698,6.452-6.124
		L19.48,1.5h5.729c0.541,5.138,4.683,9.151,9.835,9.527V17.683z"/>
</g>
</svg>
