<?xml version="1.0" encoding="iso-8859-1"?>
<!-- Generator: Adobe Illustrator 27.2.0, SVG Export Plug-In . SVG Version: 6.00 Build 0)  -->
<svg version="1.1" id="Layer_2" xmlns="http://www.w3.org/2000/svg" xmlns:xlink="http://www.w3.org/1999/xlink" x="0px" y="0px"
	 viewBox="0 0 32 32" style="enable-background:new 0 0 32 32;" xml:space="preserve">
<g>
	<path d="M15.95,1c-8.284,0-15,6.716-15,15s6.716,15,15,15s15-6.716,15-15S24.234,1,15.95,1z M24.528,14.087l-0.002,0.001
		c-0.164,0.016-0.329,0.024-0.493,0.025c-1.805,0-3.488-0.91-4.478-2.42v8.24c0,3.364-2.726,6.091-6.091,6.091
		s-6.091-2.726-6.091-6.091s2.726-6.091,6.091-6.091c0.127,0,0.252,0.012,0.377,0.019v3.002c-0.125-0.014-0.248-0.038-0.377-0.038
		c-1.717,0-3.108,1.392-3.108,3.108c0,1.716,1.392,3.108,3.108,3.108c1.717,0,3.234-1.352,3.234-3.07l0.03-13.996h2.872
		c0.271,2.575,2.347,4.586,4.93,4.775V14.087z"/>
</g>
</svg>
