<svg id="zoom-out" viewBox="0 0 16 16" xmlns="http://www.w3.org/2000/svg">
  <rect fill="var(--strib-icon-color, #0d0d0d)" fill-rule="evenodd" clip-rule="evenodd" x="3.833" y="6.056" width="5.556" height="1.111"/>
  <path fill="var(--strib-icon-color, #0d0d0d)" fill-rule="evenodd" clip-rule="evenodd" d="M11.304,10.5C12.221,9.412 12.723,8.034 12.722,6.611C12.722,5.402 12.364,4.221 11.692,3.216C11.021,2.211 10.066,1.428 8.95,0.965C7.833,0.503 6.604,0.382 5.419,0.617C4.233,0.853 3.145,1.435 2.29,2.29C1.435,3.145 0.853,4.233 0.617,5.419C0.382,6.604 0.503,7.833 0.965,8.95C1.428,10.066 2.211,11.021 3.216,11.692C4.221,12.364 5.402,12.722 6.611,12.722C8.034,12.723 9.412,12.221 10.5,11.304L14.714,15.5L15.5,14.714L11.304,10.5ZM6.611,11.611C5.622,11.611 4.656,11.318 3.833,10.768C3.011,10.219 2.37,9.438 1.992,8.525C1.613,7.611 1.514,6.606 1.707,5.636C1.9,4.666 2.376,3.775 3.076,3.076C3.775,2.376 4.666,1.9 5.636,1.707C6.606,1.514 7.611,1.613 8.525,1.992C9.438,2.37 10.219,3.011 10.768,3.833C11.318,4.656 11.611,5.622 11.611,6.611C11.61,7.937 11.082,9.208 10.145,10.145C9.208,11.082 7.937,11.61 6.611,11.611Z"/>
</svg>
